<svg xmlns="http://www.w3.org/2000/svg" xmlns:xlink="http://www.w3.org/1999/xlink" style="position: absolute; width: 0; height: 0" aria-hidden="true" id="__SVG_SPRITE_NODE__">
<symbol xmlns="http://www.w3.org/2000/svg" viewBox="0 0 30 30" id="activities"><g fill-rule="evenodd"><circle cx="15" cy="15" r="15" fill="none"></circle><path d="M15.575006,7 C19.9794768,7 23.5500059,10.5705291 23.5500059,14.9749999 C23.5500059,19.3794707 19.9794768,22.9499998 15.575006,22.9499998 C11.1705352,22.9499998 7.6000061,19.3794707 7.6000061,14.9749999 C7.6000061,10.5705291 11.1705352,7 15.575006,7 Z M15.575006,7.91678161 C14.0795646,7.91678161 12.6927464,8.38185289 11.5512951,9.17525168 L11.9509569,10.490771 L11.6261,10.490771 L11.4161114,10.8328651 L11.0067406,9.5943481 C10.0214367,10.4317115 9.26907625,11.5348977 8.86050847,12.7930576 L10.6998991,11.9726407 L10.2916776,12.6259482 L10.4380251,12.8312559 L8.64452022,13.6313733 C8.56068711,14.0663518 8.51678772,14.5155492 8.51678772,14.9749999 C8.51678772,16.3232529 8.89481529,17.5832128 9.55065988,18.6546691 L10.167666,18.5563326 L11.1841482,19.0145887 L9.93223393,19.2156755 C10.5210197,19.9978894 11.2686739,20.6537438 12.127259,21.1353013 L12.1595145,19.8278101 L12.5582119,20.0974812 L12.7832039,20.0136206 L12.7410905,21.4412586 C13.6084692,21.8219416 14.5670645,22.0332182 15.575006,22.0332182 C15.8078885,22.0332182 16.0381367,22.0219396 16.2652342,21.9998989 L12.866071,20.7127193 L13.9608036,20.7127193 L13.9608036,20.4349013 L17.5647229,21.7488808 C17.9894572,21.6243247 18.397579,21.460907 18.7849766,21.2627395 L18.854844,18.1514804 L18.9642527,18.1935607 L19.4707925,17.4315967 L19.4662412,20.8646232 C21.2385545,19.6913105 22.450423,17.7394274 22.6142454,15.4965752 L20.5044482,15.9831305 L20.1587178,15.4349519 L22.6300061,14.777 L22.6292964,14.7372807 C22.5039344,10.9491872 19.3935983,7.91678161 15.575006,7.91678161 Z M16.8891708,17.2384762 L16.8891708,17.418113 L17.4654517,17.6340774 L13.9608036,19.5209201 L13.9608036,19.0732476 L13.726245,18.9429373 L16.8891708,17.2384762 Z M11.1488549,13.8276935 L11.5705932,14.4161654 L11.7723371,14.2696071 L11.7891981,17.8682305 L11.5613996,17.7414855 L11.1675212,18.1353639 L11.1488549,13.8276935 Z M13.4447389,12.4045823 L17.2741768,14.5553625 L16.8870061,14.752 L16.8878373,14.7693074 L16.8530061,14.769 L16.7968802,14.7987837 L16.7810061,14.769 L16.7225666,14.7693074 L16.6409229,14.9150116 L13.0539155,12.9025191 L13.4447389,12.6096593 L13.4447389,12.4045823 Z M19.4751674,9.77047194 L19.4694166,14.2482633 L19.1625872,13.7575898 L18.8487689,13.918289 L18.8532049,10.065994 L19.4751674,9.77047194 Z M16.8981719,8.45756812 L16.8981719,9.17242423 L13.3027211,11.0434549 L13.3027211,10.3285988 L16.8981719,8.45756812 Z M10.079317,18.5064427 L11.4551561,17.1306035 L14.5505442,18.8504858 L14.5505442,21.258121 L12.4869522,21.258121 L10.079317,18.5064427 Z M11.3718123,14.866653 L9.75961021,12.6097033 L11.3718123,10.0303799 L13.9511357,10.0303799 L14.1791643,13.0460914 L11.3718123,14.866653 Z M22.6472261,15.9034496 L22.2985157,15.2520346 L22.5652158,13.8681945 L22.6238898,13.8681945 C22.7295032,14.5419673 22.7372508,15.2274619 22.6468927,15.9034496 L22.6472261,15.9034496 Z M21.117701,9.97637318 L19.336811,10.823146 L16.5494615,9.06692582 L16.5494615,7.63808 C18.2929671,7.87801489 19.9034897,8.70237496 21.117701,9.97637318 L21.117701,9.97637318 Z M16.5664637,14.5596145 L19.3871506,13.1134332 L21.1207013,15.8604443 L19.1701234,18.7878113 L16.5664637,17.8120223 L16.5664637,14.5596145 Z M17.4765778,21.8538624 L17.4522414,21.6348349 L19.336811,20.2950003 L20.1035738,20.489358 C19.3332538,21.1233341 18.4382209,21.5882287 17.4765778,21.8538624 L17.4765778,21.8538624 Z" fill-rule="nonzero"></path></g></symbol>
</svg>