<svg xmlns="http://www.w3.org/2000/svg" xmlns:xlink="http://www.w3.org/1999/xlink" style="position: absolute; width: 0; height: 0" aria-hidden="true" id="__SVG_SPRITE_NODE__">
<symbol xmlns="http://www.w3.org/2000/svg" viewBox="0 0 18 18" id="add-btn"><g style="mix-blend-mode:passthrough"><path d="M18,9C18,4.02944,13.9706,0,9,0C4.02944,0,0,4.02944,0,9C0,13.9706,4.02944,18,9,18C13.9706,18,18,13.9706,18,9ZM9.75,4.875C9.75,4.66789,9.58211,4.5,9.375,4.5L8.625,4.5C8.41789,4.5,8.25,4.66789,8.25,4.875L8.25,8.24925L4.875,8.25C4.66789,8.25,4.5,8.41789,4.5,8.625L4.5,9.375C4.5,9.58211,4.66789,9.75,4.875,9.75L8.25,9.74925L8.25,13.125C8.25,13.3321,8.41789,13.5,8.625,13.5L9.375,13.5C9.58211,13.5,9.75,13.3321,9.75,13.125L9.75,9.74925L13.125,9.75C13.3321,9.75,13.5,9.58211,13.5,9.375L13.5,8.625C13.5,8.41789,13.3321,8.25,13.125,8.25L9.75,8.24925L9.75,4.875Z" fill-rule="evenodd"></path></g></symbol>
<symbol xmlns="http://www.w3.org/2000/svg" viewBox="0 0 12 12" id="add-color"><path d="M13.50001049041748,6.500030517578125L13.50001049041748,9.500030517578125Q13.50001049041748,9.549270517578126,13.50962049041748,9.597570517578125Q13.519220490417482,9.645870517578125,13.53807049041748,9.691370517578125Q13.55692049041748,9.736870517578126,13.584270490417481,9.777810517578125Q13.61163049041748,9.818760517578125,13.64646049041748,9.853580517578125Q13.68128049041748,9.888400517578125,13.722220490417481,9.915760517578125Q13.76317049041748,9.943120517578125,13.80867049041748,9.961970517578125Q13.854160490417481,9.980810517578124,13.90246049041748,9.990420517578125Q13.95076049041748,10.000030517578125,14.00001049041748,10.000030517578125Q14.049260490417481,10.000030517578125,14.09756049041748,9.990420517578125Q14.14585049041748,9.980810517578124,14.19135049041748,9.961970517578125Q14.236850490417481,9.943120517578125,14.27779049041748,9.915760517578125Q14.31874049041748,9.888400517578125,14.35356049041748,9.853580517578125Q14.38838049041748,9.818760517578125,14.41574049041748,9.777810517578125Q14.44310049041748,9.736870517578126,14.46195049041748,9.691370517578125Q14.48079049041748,9.645870517578125,14.49040049041748,9.597570517578125Q14.50001049041748,9.549270517578126,14.50001049041748,9.500030517578125L14.50001049041748,6.500030517578125L17.50001049041748,6.500030517578125Q17.54925049041748,6.500030517578125,17.597550490417483,6.490420517578125Q17.64585049041748,6.480810517578125,17.69135049041748,6.461970517578125Q17.73685049041748,6.443120517578125,17.77779049041748,6.415760517578125Q17.818740490417483,6.388400517578125,17.85356049041748,6.353580517578125Q17.888380490417482,6.318760517578125,17.91574049041748,6.277810517578125Q17.94310049041748,6.236870517578125,17.96195049041748,6.191370517578125Q17.98079049041748,6.145870517578125,17.99040049041748,6.097580517578125Q18.00001049041748,6.049280517578125,18.00001049041748,6.000030517578125Q18.00001049041748,5.950780517578125,17.99040049041748,5.902480517578125Q17.98079049041748,5.854180517578126,17.96195049041748,5.808690517578125Q17.94310049041748,5.763190517578125,17.91574049041748,5.7222405175781255Q17.888380490417482,5.681300517578125,17.85356049041748,5.646480517578125Q17.818740490417483,5.611650517578125,17.77779049041748,5.5842905175781254Q17.73685049041748,5.556940517578125,17.69135049041748,5.538090517578125Q17.64585049041748,5.519240517578125,17.597550490417483,5.509640517578125Q17.54925049041748,5.500030517578125,17.50001049041748,5.500030517578125L14.50001049041748,5.500030517578125L14.50001049041748,2.500030517578125Q14.50001049041748,2.450784517578125,14.49040049041748,2.402485517578125Q14.48079049041748,2.354185517578125,14.46195049041748,2.308688517578125Q14.44310049041748,2.263191517578125,14.41574049041748,2.222245517578125Q14.38838049041748,2.181299517578125,14.35356049041748,2.146477517578125Q14.31874049041748,2.111655517578125,14.27779049041748,2.084295717578125Q14.236850490417481,2.056936217578125,14.19135049041748,2.038090717578125Q14.14585049041748,2.019245217578125,14.09756049041748,2.009637877578125Q14.049260490417481,2.000030517578125,14.00001049041748,2.000030517578125Q13.95076049041748,2.000030517578125,13.90246049041748,2.009637877578125Q13.854160490417481,2.019245217578125,13.80867049041748,2.038090717578125Q13.76317049041748,2.056936217578125,13.722220490417481,2.084295717578125Q13.68128049041748,2.111655517578125,13.64646049041748,2.146477517578125Q13.61163049041748,2.181299517578125,13.584270490417481,2.222245517578125Q13.55692049041748,2.263191517578125,13.53807049041748,2.308688517578125Q13.519220490417482,2.354185517578125,13.50962049041748,2.402485517578125Q13.50001049041748,2.450784517578125,13.50001049041748,2.500030517578125L13.50001049041748,5.500030517578125L10.50001049041748,5.500030517578125Q10.45076449041748,5.500030517578125,10.40246549041748,5.509640517578125Q10.354165490417481,5.519240517578125,10.30866849041748,5.538090517578125Q10.26317149041748,5.556940517578125,10.22222549041748,5.5842905175781254Q10.18127949041748,5.611650517578125,10.14645749041748,5.646480517578125Q10.11163549041748,5.681300517578125,10.084275690417481,5.7222405175781255Q10.05691619041748,5.763190517578125,10.03807069041748,5.808690517578125Q10.01922519041748,5.854180517578126,10.00961785041748,5.902480517578125Q10.00001049041748,5.950780517578125,10.00001049041748,6.000030517578125Q10.00001049041748,6.049280517578125,10.00961785041748,6.097580517578125Q10.01922519041748,6.145870517578125,10.03807069041748,6.191370517578125Q10.05691619041748,6.236870517578125,10.084275690417481,6.277810517578125Q10.11163549041748,6.318760517578125,10.14645749041748,6.353580517578125Q10.18127949041748,6.388400517578125,10.22222549041748,6.415760517578125Q10.26317149041748,6.443120517578125,10.30866849041748,6.461970517578125Q10.354165490417481,6.480810517578125,10.40246549041748,6.490420517578125Q10.45076449041748,6.500030517578125,10.50001049041748,6.500030517578125L13.50001049041748,6.500030517578125Z" fill-rule="evenodd" transform="rotate(90 10 2)"></path></symbol>
<symbol xmlns="http://www.w3.org/2000/svg" viewBox="0 0 24 24" id="add-column-left"><path d="M27.5 35.5C26.395431 35.5 25.5 34.60457 25.5 33.5L25.5 28.5C25.5 27.395431 26.395431 26.5 27.5 26.5L44.5 26.5C45.604600000000005 26.5 46.5 27.395431 46.5 28.5L46.5 33.5C46.5 34.60457 45.604600000000005 35.5 44.5 35.5L27.5 35.5zM44.5 33.5L27.5 33.5 27.5 28.5 44.5 28.5 44.5 33.5zM27.500244140625 46.5C26.395674140625 46.5 25.500244140625 45.60457 25.500244140625 44.5L25.500244140625 39.5C25.500244140625 38.39543 26.395674140625 37.5 27.500244140625 37.5L34.000004140625 37.5C35.104574140625 37.5 36.000044140625 38.395431 36.000044140625 39.5L36.000044140625 44.5C36.000044140625 45.60457 35.104574140625 46.5 34.000004140625 46.5L27.500244140625 46.5zM34.000004140625 44.5L27.500244140625 44.5 27.500244140625 39.5 34.000004140625 39.5 34.000004140625 44.5zM43.20711 39.20711L43.20711 39.20711 41.41421 41 46 41C46.552279999999996 41 47 41.44772 47 42 47 42.552279999999996 46.552279999999996 43 46 43L41.41421 43 43.20659 44.79238 43.20659 44.79238C43.39464 44.98043 43.5 45.23478 43.5 45.5 43.5 45.76522 43.39464 46.01957 43.20711 46.20711 43.03222 46.38199 42.79873 46.48586 42.55174 46.49866 42.53451 46.49955 42.51726 46.5 42.5 46.5 42.23478 46.5 41.98043 46.39464 41.79289 46.20711L38.293268 42.707480000000004 38.293268 42.707480000000004C38.105357 42.51957 38.0000000596046 42.26522 38 42 38 41.73478 38.105357 41.48043 38.292893 41.29289L41.79289 37.792893C41.97907 37.606712 42.23117 37.50147146 42.49447 37.5000152588L42.5 37.5C42.76073 37.5 43.011160000000004 37.601835 43.1979 37.7838L43.1979 37.7838C43.19847 37.784365 43.20653 37.792321 43.20653 37.792321L43.20653 37.792321C43.39464 37.98043 43.5 38.234783 43.5 38.5 43.5 38.76522 43.39464 39.01957 43.20711 39.20711z" fill-rule="evenodd" transform="matrix(0 -1 -1 0 48 48)"></path></symbol>
<symbol xmlns="http://www.w3.org/2000/svg" viewBox="0 0 24 24" id="add-column-right"><path d="M3.5 35.5C2.395431 35.5 1.5 34.60457 1.5 33.5L1.5 28.5C1.5 27.395431 2.395431 26.5 3.5 26.5L20.5 26.5C21.6046 26.5 22.5 27.395431 22.5 28.5L22.5 33.5C22.5 34.60457 21.6046 35.5 20.5 35.5L3.5 35.5zM20.5 33.5L3.5 33.5 3.5 28.5 20.5 28.5 20.5 33.5zM3.500244140625 46.5C2.395674140625 46.5 1.500244140625 45.60457 1.500244140625 44.5L1.500244140625 39.5C1.500244140625 38.39543 2.395674140625 37.5 3.500244140625 37.5L10.000004140625 37.5C11.104574140625 37.5 12.000044140625 38.395431 12.000044140625 39.5L12.000044140625 44.5C12.000044140625 45.60457 11.104574140625 46.5 10.000004140625 46.5L3.500244140625 46.5zM10.000004140625 44.5L3.500244140625 44.5 3.500244140625 39.5 10.000004140625 39.5 10.000004140625 44.5zM19.20711 39.20711L19.20711 39.20711 17.41421 41 22 41C22.55228 41 23 41.44772 23 42 23 42.552279999999996 22.55228 43 22 43L17.41421 43 19.20659 44.79238 19.20659 44.79238C19.39464 44.98043 19.5 45.23478 19.5 45.5 19.5 45.76522 19.39464 46.01957 19.20711 46.20711 19.03222 46.38199 18.79873 46.48586 18.55174 46.49866 18.53451 46.49955 18.51726 46.5 18.5 46.5 18.23478 46.5 17.98043 46.39464 17.79289 46.20711L14.293268 42.707480000000004 14.293268 42.707480000000004C14.105357 42.51957 14.0000000596046 42.26522 14 42 14 41.73478 14.105357 41.48043 14.292893 41.29289L17.79289 37.792893C17.97907 37.606712 18.23117 37.50147146 18.49447 37.5000152588L18.5 37.5C18.76073 37.5 19.01116 37.601835 19.1979 37.7838L19.1979 37.7838C19.19847 37.784365 19.20653 37.792321 19.20653 37.792321L19.20653 37.792321C19.39464 37.98043 19.5 38.234783 19.5 38.5 19.5 38.76522 19.39464 39.01957 19.20711 39.20711z" fill-rule="evenodd" transform="rotate(-90 0 24)"></path></symbol>
<symbol xmlns="http://www.w3.org/2000/svg" viewBox="0 0 24 24" id="add-kanban-task"><path d="M11.2,11.2V6.8C11.2,6.3,11.6,6,12,6s0.8,0.3,0.8,0.8v4.5h4.5c0.4,0,0.8,0.3,0.8,0.8s-0.3,0.8-0.8,0.8h-4.5v4.5 c0,0.4-0.3,0.8-0.8,0.8s-0.8-0.3-0.8-0.8v-4.5H6.8C6.3,12.8,6,12.4,6,12s0.3-0.8,0.8-0.8H11.2z" fill-rule="evenodd" clip-rule="evenodd"></path></symbol>
<symbol xmlns="http://www.w3.org/2000/svg" viewBox="0 0 18 18" id="add-linear-rounded"><path d="M20.250557710876464,9.75081491470337L20.250557710876464,14.25081491470337Q20.250557710876464,14.32471491470337,20.264967710876466,14.39711491470337Q20.279377710876464,14.469614914703369,20.307647710876466,14.53781491470337Q20.335917710876465,14.606114914703369,20.376957710876464,14.66751491470337Q20.417997710876463,14.728914914703369,20.470227710876465,14.78111491470337Q20.522457710876466,14.833414914703368,20.583877710876465,14.874414914703369Q20.645297710876463,14.91541491470337,20.713547710876465,14.943714914703369Q20.781787710876465,14.972014914703369,20.854237710876465,14.986414914703369Q20.926687710876465,15.00081491470337,21.000557710876464,15.00081491470337Q21.074427710876463,15.00081491470337,21.146867710876464,14.986414914703369Q21.219317710876464,14.972014914703369,21.287567710876466,14.943714914703369Q21.355817710876465,14.91541491470337,21.417227710876464,14.874414914703369Q21.478647710876466,14.833414914703368,21.530887710876463,14.78111491470337Q21.583117710876465,14.728914914703369,21.624157710876464,14.66751491470337Q21.665197710876466,14.606114914703369,21.693467710876465,14.53781491470337Q21.721727710876465,14.469614914703369,21.736147710876466,14.39711491470337Q21.750557710876464,14.32471491470337,21.750557710876464,14.25081491470337L21.750557710876464,9.75081491470337L26.250567710876467,9.75081491470337Q26.324467710876466,9.75081491470337,26.396867710876464,9.73640491470337Q26.469267710876466,9.72199491470337,26.537567710876466,9.69372491470337Q26.605767710876464,9.66545491470337,26.667267710876466,9.624414914703369Q26.728667710876465,9.58337491470337,26.780867710876464,9.531144914703368Q26.833067710876463,9.478904914703369,26.874167710876463,9.417494914703369Q26.915167710876467,9.35607491470337,26.943467710876465,9.28782491470337Q26.971767710876463,9.219574914703369,26.986167710876465,9.147134914703368Q27.000567710876467,9.074684914703369,27.000567710876467,9.00081491470337Q27.000567710876467,8.92694491470337,26.986167710876465,8.85449491470337Q26.971767710876463,8.78204491470337,26.943467710876465,8.713804914703369Q26.915167710876467,8.645554914703368,26.874167710876463,8.58413491470337Q26.833067710876463,8.522714914703368,26.780867710876464,8.47048491470337Q26.728667710876465,8.418254914703368,26.667267710876466,8.37721491470337Q26.605767710876464,8.336174914703369,26.537567710876466,8.307904914703368Q26.469267710876466,8.279634914703369,26.396867710876464,8.265224914703369Q26.324467710876466,8.25081491470337,26.250567710876467,8.25081491470337L21.750557710876464,8.25081491470337L21.750557710876464,3.750814914703369Q21.750557710876464,3.676945914703369,21.736147710876466,3.604496914703369Q21.721727710876465,3.532047914703369,21.693467710876465,3.463801914703369Q21.665197710876466,3.395556914703369,21.624157710876464,3.334136914703369Q21.583117710876465,3.272717914703369,21.530887710876463,3.220484914703369Q21.478647710876466,3.168251914703369,21.417227710876464,3.127212914703369Q21.355817710876465,3.0861735147033693,21.287567710876466,3.057905214703369Q21.219317710876464,3.0296370147033693,21.146877710876467,3.015225914703369Q21.074427710876463,3.000814914703369,21.000557710876464,3.000814914703369Q20.926687710876465,3.000814914703369,20.854237710876465,3.015225914703369Q20.781787710876465,3.0296370147033693,20.713547710876465,3.057905214703369Q20.645297710876463,3.0861735147033693,20.583877710876465,3.127212914703369Q20.522457710876466,3.168251914703369,20.470227710876465,3.220484914703369Q20.417997710876463,3.272717914703369,20.376957710876464,3.334136914703369Q20.335917710876465,3.395556914703369,20.307647710876466,3.463801914703369Q20.279377710876464,3.532047914703369,20.264967710876466,3.604496914703369Q20.250557710876464,3.676945914703369,20.250557710876464,3.750814914703369L20.250557710876464,8.25081491470337L15.750555710876466,8.25081491470337Q15.676686710876465,8.25081491470337,15.604237710876465,8.265224914703369Q15.531788710876464,8.279634914703369,15.463542710876466,8.307904914703368Q15.395297710876465,8.336174914703369,15.333877710876465,8.37721491470337Q15.272458710876466,8.418254914703368,15.220225710876464,8.47048491470337Q15.167992710876465,8.522714914703368,15.126953710876466,8.58413491470337Q15.085914610876465,8.645554914703368,15.057646310876464,8.713804914703369Q15.029378010876465,8.78204491470337,15.014967010876465,8.85449491470337Q15.000555991876466,8.92694491470337,15.000555991876466,9.00081491470337Q15.000555991876466,9.074684914703369,15.014967010876465,9.147134914703368Q15.029378010876465,9.219574914703369,15.057646310876464,9.28782491470337Q15.085914610876465,9.35607491470337,15.126953710876466,9.417494914703369Q15.167992710876465,9.478904914703369,15.220225710876464,9.531144914703368Q15.272458710876466,9.58337491470337,15.333877710876465,9.624414914703369Q15.395297710876465,9.66545491470337,15.463542710876466,9.69372491470337Q15.531788710876464,9.72199491470337,15.604237710876465,9.73640491470337Q15.676686710876465,9.75081491470337,15.750555710876466,9.75081491470337L20.250557710876464,9.75081491470337Z" fill-rule="evenodd" transform="rotate(90 15 3)"></path></symbol>
<symbol xmlns="http://www.w3.org/2000/svg" viewBox="0 0 24 24" id="add"><path d="M30.00021,12.999267578125L30.00021,20.499267578125Q30.00021,20.597767578125,30.01943,20.694367578125Q30.03864,20.790967578125,30.07633,20.881967578125Q30.11403,20.972967578125,30.16874,21.054867578125Q30.22346,21.136767578125,30.29311,21.206367578125Q30.36275,21.275967578125,30.44464,21.330767578125Q30.52654,21.385467578125,30.617530000000002,21.423167578125Q30.70852,21.460867578125,30.805120000000002,21.480067578125Q30.901719999999997,21.499267578125,31.00021,21.499267578125Q31.09871,21.499267578125,31.1953,21.480067578125Q31.2919,21.460867578125,31.3829,21.423167578125Q31.47389,21.385467578125,31.555799999999998,21.330767578125Q31.637700000000002,21.275967578125,31.7073,21.206367578125Q31.777,21.136767578125,31.831699999999998,21.054867578125Q31.886400000000002,20.972967578125,31.9241,20.881967578125Q31.9618,20.790967578125,31.981,20.694367578125Q32.0002,20.597767578125,32.0002,20.499267578125L32.0002,12.999267578125L39.5002,12.999267578125Q39.5987,12.999267578125,39.6953,12.980067578125Q39.7919,12.960867578125,39.8829,12.923167578125Q39.9739,12.885467578125,40.055800000000005,12.830767578125Q40.137699999999995,12.775967578125,40.207300000000004,12.706367578125Q40.277,12.636767578125,40.3317,12.554867578125Q40.386399999999995,12.472947578125,40.424099999999996,12.381947578125Q40.4618,12.290957578125,40.481,12.194357578125Q40.5002,12.097757578125,40.5002,11.999267578125Q40.5002,11.900777578125,40.481,11.804177578125Q40.4618,11.707577578125,40.424099999999996,11.616587578125Q40.386399999999995,11.525587578125,40.3317,11.443697578125Q40.277,11.361807578125,40.207300000000004,11.292157578125Q40.137699999999995,11.222517578125,40.055800000000005,11.167797578125Q39.9739,11.113077578125,39.8829,11.075387578125Q39.7919,11.037697578125,39.6953,11.018477578125Q39.5987,10.999267578125,39.5002,10.999267578125L32.0002,10.999267578125L32.0002,3.499265578125Q32.0002,3.400774578125,31.981,3.304175578125Q31.9618,3.207576578125,31.9241,3.116582578125Q31.886400000000002,3.025587578125,31.831699999999998,2.943695578125Q31.777,2.861802578125,31.7073,2.792158578125Q31.637700000000002,2.722514578125,31.555799999999998,2.6677955781250002Q31.47389,2.613077578125,31.3829,2.575386178125Q31.2919,2.537695078125,31.1953,2.518480378125Q31.09871,2.499265670775,31.00021,2.499265670775Q30.901719999999997,2.499265670775,30.805120000000002,2.518480378125Q30.70852,2.537695078125,30.617530000000002,2.575386178125Q30.52654,2.613077578125,30.44464,2.6677955781250002Q30.36275,2.722514578125,30.29311,2.792158578125Q30.22346,2.861802578125,30.16874,2.943695578125Q30.11403,3.025587578125,30.07633,3.116582578125Q30.03864,3.207576578125,30.01943,3.304175578125Q30.00021,3.400774578125,30.00021,3.499265578125L30.00021,10.999267578125L22.50021,10.999267578125Q22.401722,10.999267578125,22.305123000000002,11.018477578125Q22.208524,11.037697578125,22.11753,11.075387578125Q22.026536,11.113077578125,21.944643,11.167797578125Q21.862751,11.222517578125,21.793107,11.292157578125Q21.723463,11.361807578125,21.668744,11.443697578125Q21.614025,11.525587578125,21.5763341,11.616587578125Q21.5386431,11.707577578125,21.5194283,11.804177578125Q21.500213623,11.900777578125,21.500213623,11.999267578125Q21.500213623,12.097757578125,21.5194283,12.194357578125Q21.5386431,12.290957578125,21.5763341,12.381947578125Q21.614025,12.472947578125,21.668744,12.554867578125Q21.723463,12.636767578125,21.793107,12.706367578125Q21.862751,12.775967578125,21.944643,12.830767578125Q22.026536,12.885467578125,22.11753,12.923167578125Q22.208524,12.960867578125,22.305123000000002,12.980067578125Q22.401722,12.999267578125,22.50021,12.999267578125L30.00021,12.999267578125Z" fill-rule="evenodd" transform="rotate(90 21.5 2.5)"></path></symbol>
</svg>