<svg xmlns="http://www.w3.org/2000/svg" xmlns:xlink="http://www.w3.org/1999/xlink" style="position: absolute; width: 0; height: 0" aria-hidden="true" id="__SVG_SPRITE_NODE__">
<symbol xmlns="http://www.w3.org/2000/svg" viewBox="0 0 22 22" id="alipay"><path d="M7.1,15C6.8,15,5,14.9,5,13.4h0C5,13,5.6,11.8,7.6,12c1.1,0.1,2.4,0.7,2.6,0.8 c0.2,0.1,0.5,0.2,0.7,0.3c0,0-0.1,0.1-0.1,0.1c0,0-1,0.8-1.6,1.1C8.7,14.7,8,15,7.1,15z M19.2,14.7c-3.1-0.5-6-1.9-6-1.9 c0.4-0.5,0.7-1,0.9-1.4c0.2-0.5,0.4-0.9,0.5-1.2C14.8,9.7,14.9,9.3,15,9h0v0c0,0,0,0,0,0H12V7.6h3.7V7H12V5.5h-1 c-0.2,0-0.3,0-0.4,0c-0.1,0-0.2,0-0.3,0.1c-0.1,0-0.1,0.1-0.1,0.2V7H6.6v0.6h3.6V9H7.6v0.6h5.5c0,0.1-0.1,0.2-0.1,0.4 c-0.1,0.2-0.1,0.4-0.3,0.6c-0.1,0.2-0.2,0.5-0.4,0.8c-0.2,0.3-0.4,0.6-0.6,0.9c-0.1,0-0.2-0.1-0.3-0.1c-0.1,0-0.2-0.1-0.3-0.1 c-0.3-0.1-0.5-0.2-0.8-0.3c-0.3-0.1-0.6-0.2-0.9-0.3c-0.3-0.1-0.6-0.2-1-0.3C8,11,7.7,11,7.3,11c-0.4,0-0.8,0-1.1,0.1 c-0.4,0.1-0.7,0.3-1,0.5c-0.3,0.2-0.6,0.5-0.8,0.8c-0.2,0.3-0.3,0.6-0.3,1c0,0.4,0.1,0.8,0.3,1.1c0.2,0.3,0.4,0.6,0.7,0.8 c0.3,0.2,0.7,0.4,1.1,0.5C6.6,15.9,7,16,7.4,16h0.2c0,0,0,0,0.1,0c0.2,0,0.4,0,0.7-0.1c0.3,0,0.6-0.1,0.9-0.2 c0.4-0.1,0.8-0.3,1.2-0.5c0.5-0.3,1.8-1.4,1.8-1.4c2.7,1.2,4.4,1.9,6.1,2.3C16.8,18.4,14.1,20,11,20c-5,0-9-4-9-9s4-9,9-9 s9,4,9,9C20,12.3,19.7,13.6,19.2,14.7z" fill="#fff"></path></symbol>
</svg>