<svg xmlns="http://www.w3.org/2000/svg" xmlns:xlink="http://www.w3.org/1999/xlink" style="position: absolute; width: 0; height: 0" aria-hidden="true" id="__SVG_SPRITE_NODE__">
<symbol xmlns="http://www.w3.org/2000/svg" viewBox="0 0 30 30" id="animals-nature"><g fill-rule="evenodd"><circle cx="15" cy="15" r="15" fill="none"></circle><path d="M19.5224086,7.00076594 C20.3605965,7.01476908 21.131436,7.36784823 21.7522418,8.02199486 C23.5229721,9.88841324 22.2413514,12.3906408 21.2864707,13.4945549 C21.9472855,14.1156942 23.4826297,15.842748 22.8674918,18.0235702 C21.9659564,21.2196199 19.1466577,21.3276442 18.9479465,21.3309782 L18.4394992,21.3309782 C17.5129582,22.537582 16.0182898,22.9686787 15.0107306,22.9686787 C13.9134847,22.9686787 12.4288185,22.4605648 11.5599571,21.3309782 L11.5599571,21.3309782 L11.0318962,21.3304431 C10.7164116,21.3198201 8.02044436,21.1355134 7.14263355,18.0235702 C6.52582862,15.8384137 8.06917458,14.1080258 8.73032278,13.48722 C7.77644229,12.3793049 6.50382368,9.88441235 8.27055305,8.02232827 C8.89169229,7.36751482 9.66286516,7.01443567 10.5007196,7.00043253 C12.1520898,6.97309307 13.4953909,8.25037939 13.6430907,8.39641213 L13.6430907,8.39641213 L13.645758,8.39841258 L13.7231086,8.46909509 C14.1808779,8.35240226 14.6763223,8.28405361 15.2151098,8.28405361 C15.631203,8.28405361 16.0182898,8.32472939 16.3797042,8.39641213 L16.3797042,8.39641213 C16.5277373,8.25037939 17.8710385,6.97309307 19.5224086,7.00076594 Z M15.2151098,9.28461123 C11.358912,9.28461123 10.0182782,13.371194 9.96359924,13.5448996 L9.96359924,13.5448996 L9.86824453,13.8449668 L9.61852188,14.0390103 C9.53583668,14.1036915 7.52671965,15.7027166 8.10518265,17.7518426 C8.80033848,20.2167285 10.8411293,20.3264197 11.0715143,20.3310874 L11.0715143,20.3310874 L11.968382,20.3310874 C12.2447773,20.3310874 12.4684941,20.5544708 12.4684941,20.8311995 C12.4684941,20.8378677 12.4664936,20.843869 12.4661602,20.8508706 C13.1943234,21.6797231 14.3379131,21.9684545 15.0107306,21.9684545 C15.6985515,21.9684545 16.8568111,21.669054 17.5799732,20.7981921 C17.5973104,20.537467 17.8123586,20.3310874 18.077418,20.3310874 L18.077418,20.3310874 L18.9479465,20.3310874 C19.1686627,20.3264197 21.2094535,20.2167285 21.9046093,17.7518426 C22.4827389,15.7027166 20.4739553,14.1036915 20.3882694,14.0363431 L20.3882694,14.0363431 L20.1072064,13.8169605 L20.025188,13.4662153 C19.9861793,13.2988444 19.0076266,9.28461123 15.2151098,9.28461123 Z M15.9280322,17.2869858 C16.0001467,17.289956 16.4688908,17.3285682 16.4688908,17.8305269 C16.4688908,18.2706256 15.8687563,18.9471105 15.3479729,19.1894982 L15.3479729,19.1894982 L15.3479729,19.9236628 C15.3479729,19.9236628 15.3446388,20.0683619 15.4399935,20.1660504 C15.4876709,20.2153948 15.5616874,20.2524031 15.6737126,20.2524031 C16.0141222,20.2524031 16.0284587,19.9236628 16.0284587,19.9199953 L16.0284587,19.9199953 L16.6949415,19.950002 C16.6739368,20.4217744 16.3088549,20.9192193 15.6737126,20.9192193 C15.4166549,20.9192193 15.1839361,20.8288657 15.0068964,20.668163 C14.8295233,20.8288657 14.5968045,20.9192193 14.3400803,20.9192193 C13.7049379,20.9192193 13.3401895,20.4217744 13.3188514,19.9530027 L13.3188514,19.9530027 L13.3188514,19.950002 L13.9853341,19.9199953 C13.9853341,19.9236628 14.000004,20.2524031 14.3400803,20.2524031 C14.4521054,20.2524031 14.5257886,20.2153948 14.5737993,20.1660504 C14.669154,20.0683619 14.6654866,19.9236628 14.6654866,19.9236628 L14.6654866,19.1944993 C14.1427027,18.9561125 13.5352332,18.2729594 13.5352332,17.8305269 C13.5352332,17.2867383 14.0850231,17.2867383 14.0850231,17.2867383 Z M17.9971667,14.2855656 C18.3655826,14.2855656 18.6639829,14.733666 18.6639829,15.2861232 C18.6639829,15.8379136 18.3655826,16.286014 17.9971667,16.286014 C17.6290842,16.286014 17.3303506,15.8379136 17.3303506,15.2861232 C17.3303506,14.733666 17.6290842,14.2855656 17.9971667,14.2855656 Z M11.9956547,14.2855656 C12.3640707,14.2855656 12.6624709,14.733666 12.6624709,15.2861232 C12.6624709,15.8379136 12.3640707,16.286014 11.9956547,16.286014 C11.6275722,16.286014 11.3288386,15.8379136 11.3288386,15.2861232 C11.3288386,14.733666 11.6275722,14.2855656 11.9956547,14.2855656 Z M10.51739,8.00065675 C10.0102764,8.00899195 9.48249139,8.19836773 8.99604901,8.71081594 C7.71409498,10.0621188 8.76499722,11.853187 9.27944587,12.5646798 C9.72454565,11.5814594 10.7587775,9.78138925 12.6525353,8.86051616 C12.2324412,8.52844172 11.4082564,7.98565338 10.51739,8.00065675 Z M19.5054048,8.00099015 C18.7042252,7.98765383 17.9557241,8.42575204 17.5079571,8.75549262 C19.4460582,9.62535428 20.3849353,11.4891054 20.7733557,12.5230038 C21.2968064,11.786172 22.2853613,10.0371132 21.0264124,8.71081594 C20.5406369,8.19836773 20.0125185,8.00899195 19.5054048,8.00099015 Z"></path></g></symbol>
</svg>