<svg xmlns="http://www.w3.org/2000/svg" xmlns:xlink="http://www.w3.org/1999/xlink" style="position: absolute; width: 0; height: 0" aria-hidden="true" id="__SVG_SPRITE_NODE__">
<symbol xmlns="http://www.w3.org/2000/svg" viewBox="0 0 24 24" id="attendee"><g fill-rule="evenodd"><path fill="none" d="M0 0H24V24H0z"></path><path d="M6.5 7.4C8.77882508 7.4 10.2080575 7.96660876 11.1745202 8.6032627L11.3977841 8.75715027 11.6121003 8.91816822 11.8168892 9.08464932 12.0053623 9.24873828 12.0939442 9.32929032C12.6375806 9.82967742 13 10.6028387 13 11.4021935L13 13.4967742C13 13.9953548 12.6470303 14.4 12.2121212 14.4L.787878788 14.4C.352969697 14.4 0 13.9953548 0 13.4967742L0 11.4021935C0 10.6028387.283626746 9.82967742.82726311 9.32929032L.916071032 9.24873828 1.10626578 9.08464932 1.31427685 8.91816822 1.53290506 8.75715027C2.5203363 8.06089246 4.03886891 7.4 6.5 7.4zM6.19117647.4C7.98598897.4 9.44117647 1.8557074 9.44117647 3.65116113 9.44117647 5.44661486 7.98598897 6.90232226 6.19117647 6.90232226 4.39636397 6.90232226 2.94117647 5.44661486 2.94117647 3.65116113 2.94117647 1.8557074 4.39636397.4 6.19117647.4zM14.5408642 5.7C16.4197154 5.7 17.5980924 6.16138142 18.394924 6.67979963L18.5790011 6.80510808 18.7557011 6.93622269 18.924546 7.07178587 19.0799387 7.20540117 19.1529729 7.27099355C19.6011915 7.67845161 19.9 8.30802581 19.9 8.95892903L19.9 10.6645161C19.9 11.0705032 19.6089827 11.4 19.2504078 11.4L14.5395816 11.399 14.5405328 10.8980645C14.5405328 10.1129839 14.2711382 9.35148522 13.8558166 8.81706485L13.7390219 8.67709677 13.6606609 8.59079102 13.4939348 8.41498141 13.3127753 8.23660881 13.1231879 8.06408958 12.9256852 7.89921004C12.3414586 7.43307859 11.5660694 7.00199206 10.4903253 6.77572137L10.4455816 6.80510808C11.2597014 6.23815529 12.5117048 5.7 14.5408642 5.7zM14.54 0C15.97585 0 17.14 1.16338462 17.14 2.5982906 17.14 4.03319658 15.97585 5.1965812 14.54 5.1965812 13.10415 5.1965812 11.94 4.03319658 11.94 2.5982906 11.94 1.16338462 13.10415 0 14.54 0z" transform="translate(2 4.8)"></path></g></symbol>
</svg>