<svg xmlns="http://www.w3.org/2000/svg" xmlns:xlink="http://www.w3.org/1999/xlink" style="position: absolute; width: 0; height: 0" aria-hidden="true" id="__SVG_SPRITE_NODE__">
<symbol xmlns="http://www.w3.org/2000/svg" viewBox="0 0 30 30" id="backup_ical"><path d="M15,0 C23.2842712,0 30,6.71572875 30,15 C30,23.2842712 23.2842712,30 15,30 C6.71572875,30 0,23.2842712 0,15 C0,6.71572875 6.71572875,0 15,0 Z M9.46153846,7.86206897 L8.23076923,7.86206897 C7.55138462,7.86206897 7,8.4128382 7,9.0928382 L7,9.0928382 L7,22.6312997 C7,23.3106844 7.55138462,23.862069 8.23076923,23.862069 L8.23076923,23.862069 L21.7692308,23.862069 C22.4486154,23.862069 23,23.3106844 23,22.6312997 L23,22.6312997 L23,9.0928382 C23,8.4128382 22.4486154,7.86206897 21.7692308,7.86206897 L21.7692308,7.86206897 L20.5384615,7.86206897 L20.5384615,8.47745358 C20.5384615,9.49714589 19.7113846,10.3236074 18.6923077,10.3236074 C17.6732308,10.3236074 16.8461538,9.49714589 16.8461538,8.47745358 L16.8461538,8.47745358 L16.8461538,7.86206897 L13.1538462,7.86206897 L13.1538462,8.47745358 C13.1538462,9.49714589 12.3267692,10.3236074 11.3076923,10.3236074 C10.288,10.3236074 9.46153846,9.49714589 9.46153846,8.47745358 L9.46153846,8.47745358 L9.46153846,7.86206897 Z M21.7692308,12.2068966 L21.7692308,22.2068966 L8.23076923,22.2068966 L8.23076923,12.2068966 L21.7692308,12.2068966 Z M12.3076923,18.3103448 L10.4615385,18.3103448 L10.4615385,20.1724138 L12.3076923,20.1724138 L12.3076923,18.3103448 Z M16.1538462,18.3103448 L14.3076923,18.3103448 L14.3076923,20.1724138 L16.1538462,20.1724138 L16.1538462,18.3103448 Z M20,18.3103448 L18.1538462,18.3103448 L18.1538462,20.1724138 L20,20.1724138 L20,18.3103448 Z M12.3076923,14.4482759 L10.4615385,14.4482759 L10.4615385,16.3103448 L12.3076923,16.3103448 L12.3076923,14.4482759 Z M16.1538462,14.4482759 L14.3076923,14.4482759 L14.3076923,16.3103448 L16.1538462,16.3103448 L16.1538462,14.4482759 Z M20,14.4482759 L18.1538462,14.4482759 L18.1538462,16.3103448 L20,16.3103448 L20,14.4482759 Z M18.6732308,6 C18.0036923,6 17.4615385,6.54682759 17.4615385,7.22213793 L17.4615385,7.22213793 L17.4615385,8.502 C17.4615385,9.17668966 18.0036923,9.72413793 18.6732308,9.72413793 C19.3427692,9.72413793 19.8849231,9.17668966 19.8849231,8.502 L19.8849231,8.502 L19.8849231,7.22213793 C19.8849231,6.54682759 19.3427692,6 18.6732308,6 Z M11.2886154,6 C10.6190769,6 10.0769231,6.54682759 10.0769231,7.22213793 L10.0769231,7.22213793 L10.0769231,8.502 C10.0769231,9.17668966 10.6190769,9.72413793 11.2886154,9.72413793 C11.9575385,9.72413793 12.5003077,9.17668966 12.5003077,8.502 L12.5003077,8.502 L12.5003077,7.22213793 C12.5003077,6.54682759 11.9581538,6 11.2886154,6 Z" fill="#FB9609" fill-rule="evenodd"></path></symbol>
</svg>