<svg xmlns="http://www.w3.org/2000/svg" xmlns:xlink="http://www.w3.org/1999/xlink" style="position: absolute; width: 0; height: 0" aria-hidden="true" id="__SVG_SPRITE_NODE__">
<symbol xmlns="http://www.w3.org/2000/svg" viewBox="0 0 16 16" id="cal-add-button"><path d="M18.26647272491455,9.200000047683716L18.26647272491455,13.200000047683716Q18.26647272491455,13.265700047683715,18.27928272491455,13.330100047683716Q18.29209272491455,13.394500047683715,18.31722272491455,13.455100047683716Q18.34235272491455,13.515800047683715,18.378832724914552,13.570400047683716Q18.41531272491455,13.625000047683717,18.46174272491455,13.671400047683715Q18.50817272491455,13.717800047683715,18.56276272491455,13.754300047683715Q18.61736272491455,13.790800047683716,18.678022724914552,13.815900047683716Q18.73868272491455,13.841000047683716,18.80308272491455,13.853900047683716Q18.867482724914552,13.866700047683716,18.93314272491455,13.866700047683716Q18.99880272491455,13.866700047683716,19.06320272491455,13.853900047683716Q19.127602724914553,13.841000047683716,19.18826272491455,13.815900047683716Q19.24892272491455,13.790800047683716,19.30352272491455,13.754300047683715Q19.35811272491455,13.717800047683715,19.40454272491455,13.671400047683715Q19.45097272491455,13.625000047683717,19.48745272491455,13.570400047683716Q19.523932724914552,13.515800047683715,19.54906272491455,13.455100047683716Q19.57419272491455,13.394500047683715,19.58700272491455,13.330100047683716Q19.59981272491455,13.265700047683715,19.59981272491455,13.200000047683716L19.59981272491455,9.200000047683716L23.59997272491455,9.200000047683716Q23.66567272491455,9.200000047683716,23.73007272491455,9.187190047683716Q23.79447272491455,9.174380047683716,23.85507272491455,9.149250047683715Q23.91577272491455,9.124120047683716,23.97037272491455,9.087650047683717Q24.02497272491455,9.051170047683716,24.07137272491455,9.004740047683715Q24.117772724914552,8.958310047683716,24.15427272491455,8.903710047683717Q24.190772724914552,8.849120047683716,24.21587272491455,8.788460047683717Q24.24097272491455,8.727790047683715,24.25387272491455,8.663390047683716Q24.26667272491455,8.598990047683717,24.26667272491455,8.533330047683716Q24.26667272491455,8.467670047683715,24.25387272491455,8.403270047683716Q24.24097272491455,8.338870047683717,24.21587272491455,8.278210047683716Q24.190772724914552,8.217550047683716,24.15427272491455,8.162950047683715Q24.117772724914552,8.108360047683716,24.07137272491455,8.061930047683717Q24.02497272491455,8.015500047683716,23.97037272491455,7.979020047683716Q23.91577272491455,7.942540047683716,23.85507272491455,7.917410047683716Q23.79447272491455,7.892290047683716,23.73007272491455,7.879480047683716Q23.66567272491455,7.866670047683716,23.59997272491455,7.866670047683716L19.59981272491455,7.866670047683716L19.59981272491455,3.8666670476837157Q19.59981272491455,3.8010060476837157,19.58700272491455,3.7366060476837157Q19.57419272491455,3.672207047683716,19.54906272491455,3.611544047683716Q19.523932724914552,3.550881047683716,19.48745272491455,3.4962860476837156Q19.45097272491455,3.4416910476837157,19.40454272491455,3.395262047683716Q19.35811272491455,3.3488330476837156,19.30352272491455,3.3123540476837157Q19.24892272491455,3.275874347683716,19.18826272491455,3.2507470476837157Q19.127602724914553,3.225619647683716,19.06320272491455,3.2128098476837157Q18.99880272491455,3.200000047683716,18.93314272491455,3.200000047683716Q18.867482724914552,3.200000047683716,18.80308272491455,3.2128098476837157Q18.73868272491455,3.225619647683716,18.678022724914552,3.2507470476837157Q18.61736272491455,3.275874347683716,18.56276272491455,3.3123540476837157Q18.50817272491455,3.3488330476837156,18.46174272491455,3.395262047683716Q18.41531272491455,3.4416910476837157,18.378832724914552,3.4962860476837156Q18.34235272491455,3.550881047683716,18.31722272491455,3.611544047683716Q18.29209272491455,3.672207047683716,18.27928272491455,3.7366060476837157Q18.26647272491455,3.8010060476837157,18.26647272491455,3.8666670476837157L18.26647272491455,7.866670047683716L14.266639724914551,7.866670047683716Q14.20097872491455,7.866670047683716,14.136578724914552,7.879480047683716Q14.07217972491455,7.892290047683716,14.01151672491455,7.917410047683716Q13.95085372491455,7.942540047683716,13.896258724914551,7.979020047683716Q13.84166372491455,8.015500047683716,13.79523472491455,8.061930047683717Q13.74880572491455,8.108360047683716,13.71232672491455,8.162950047683715Q13.675847024914551,8.217550047683716,13.65071972491455,8.278210047683716Q13.625592324914551,8.338870047683717,13.61278252491455,8.403270047683716Q13.59997272491455,8.467670047683715,13.59997272491455,8.533330047683716Q13.59997272491455,8.598990047683717,13.61278252491455,8.663390047683716Q13.625592324914551,8.727790047683715,13.65071972491455,8.788450047683716Q13.675847024914551,8.849120047683716,13.71232672491455,8.903710047683717Q13.74880572491455,8.958310047683716,13.79523472491455,9.004740047683715Q13.84166372491455,9.051170047683716,13.896258724914551,9.087650047683717Q13.95085372491455,9.124120047683716,14.01151672491455,9.149250047683715Q14.07217972491455,9.174380047683716,14.136578724914552,9.187190047683716Q14.20097872491455,9.200000047683716,14.266639724914551,9.200000047683716L18.26647272491455,9.200000047683716Z" fill-rule="evenodd" transform="rotate(90 13.6 3.2)"></path></symbol>
</svg>