<svg xmlns="http://www.w3.org/2000/svg" xmlns:xlink="http://www.w3.org/1999/xlink" style="position: absolute; width: 0; height: 0" aria-hidden="true" id="__SVG_SPRITE_NODE__">
<symbol xmlns="http://www.w3.org/2000/svg" viewBox="0 0 10 10" id="calendar-add"><path d="M5.2082959765625,1.6666259765624962C5.3233559765625,1.6666259765624962,5.4166259765625,1.7598999765625,5.4166259765625,1.8749589765625L5.4166259765625,4.5828759765625L8.1249559765625,4.5832959765625C8.2400159765625,4.5832959765625,8.3332959765625,4.6765659765625,8.3332959765625,4.7916259765625L8.3332959765625,5.2082959765625C8.3332959765625,5.3233559765625,8.2400159765625,5.4166259765625,8.1249559765625,5.4166259765625L5.4166259765625,5.4162059765625L5.4166259765625,8.1249559765625C5.4166259765625,8.2400159765625,5.3233559765625,8.3332959765625,5.2082959765625,8.3332959765625L4.7916259765625,8.3332959765625C4.6765659765625,8.3332959765625,4.5832959765625,8.2400159765625,4.5832959765625,8.1249559765625L4.5832959765625,5.4162059765625L1.8749589765625,5.4166259765625C1.7598999765625,5.4166259765625,1.6666259765625238,5.3233559765625,1.6666259765625238,5.2082959765625L1.6666259765625238,4.7916259765625C1.6666259765625238,4.6765659765625,1.7598999765625,4.5832959765625,1.8749589765625,4.5832959765625L4.5832959765625,4.5828759765625L4.5832959765625,1.8749589765625C4.5832959765625,1.7598999765625,4.6765659765625,1.6666259765624962,4.7916259765625,1.6666259765624962L5.2082959765625,1.6666259765624962Z"></path></symbol>
<symbol xmlns="http://www.w3.org/2000/svg" viewBox="0 0 12 12" id="calendar-caldav"><path d="M8.25,1.75L3.75,1.75L3.75,1.25C3.75,0.973858,3.52614,0.75,3.25,0.75C2.97386,0.75,2.75,0.973858,2.75,1.25L2.75,1.80279C1.60888,2.0472900000000003,0.75,3.11221,0.75,4.38889L0.75,8.61111C0.75,10.06853,1.86929,11.25,3.25,11.25L8.75001,11.25C10.13072,11.25,11.25,10.06853,11.25,8.61111L11.25,4.38889C11.25,3.11221,10.39112,2.0472900000000003,9.25,1.80279L9.25,1.25C9.25,0.973858,9.02614,0.75,8.75,0.75C8.47386,0.75,8.25,0.973858,8.25,1.25L8.25,1.75ZM1.75,8.61111Q1.75,9.26695,2.18934,9.7307Q2.62868,10.19444,3.25,10.19444L8.75001,10.19444Q9.37133,10.19444,9.81067,9.7307Q10.25001,9.26695,10.25001,8.61111L10.25001,4.38889Q10.25001,3.73305,9.81067,3.2693Q9.37133,2.80556,8.75001,2.80556L3.25,2.80556Q2.62868,2.80556,2.18934,3.2693Q1.7499989999999999,3.73305,1.75,4.38889L1.75,8.61111ZM6.12119,8.6C4.80161,8.6,4,7.73675,4,6.30002C4,4.86636,4.81703,4,6.09652,4C6.92897,4,7.57334,4.36998,7.87857,5.01127C7.94024,5.12842,7.97106,5.24867,7.97106,5.35966C7.97106,5.60323,7.80766,5.76047,7.56101,5.76047C7.35136,5.76047,7.21879,5.66797,7.11704,5.45216C6.91356,4.99893,6.54974,4.77079,6.10577,4.77079C5.40282,4.77079,4.9496,5.35966,4.9496,6.29693C4.9496,7.24653,5.39666,7.83233,6.10886,7.83233C6.5775,7.83233,6.92897,7.61959,7.12937,7.17254C7.22495,6.96288,7.34211,6.87964,7.53943,6.87964C7.8015,6.87964,7.97415,7.04613,7.97415,7.29278C7.97415,7.3976,7.94949,7.49626,7.90324,7.60418C7.62575,8.220780000000001,6.96289,8.6,6.12119,8.6Z" fill-rule="evenodd"></path></symbol>
<symbol xmlns="http://www.w3.org/2000/svg" viewBox="0 0 12 12" id="calendar-checkbox"><path d="M1,8.5L1,3.5C1,2.11929,2.11929,1,3.5,1L8.5,1C9.88071,1,11,2.11929,11,3.5L11,8.5C11,9.88071,9.88071,11,8.5,11L3.5,11C2.11929,11,1,9.88071,1,8.5ZM2,8.5Q2,9.12132,2.43934,9.56066Q2.87868,10,3.5,10L8.5,10Q9.12132,10,9.56066,9.56066Q10,9.12132,10,8.5L10,3.5Q10,2.87868,9.56066,2.43934Q9.12132,2,8.5,2L3.5,2Q2.87868,2,2.43934,2.43934Q2,2.87868,2,3.5L2,8.5Z" fill-rule="evenodd"></path></symbol>
<symbol xmlns="http://www.w3.org/2000/svg" viewBox="0 0 12 12" id="calendar-complete"><path d="M1,3.5L1,8.5Q1,8.62282,1.0120382,8.74504Q1.0240764,8.867270000000001,1.0480368,8.98772Q1.0719972,9.10818,1.1076489999999999,9.22571Q1.1433010000000001,9.34324,1.190301,9.45671Q1.237301,9.57018,1.295197,9.67849Q1.353092,9.78681,1.421326,9.88892Q1.48956,9.99104,1.567474,10.08598Q1.645388,10.18092,1.732233,10.26777Q1.819078,10.35461,1.9140169999999999,10.43253Q2.00896,10.51044,2.11107,10.57867Q2.21319,10.64691,2.32151,10.7048Q2.4298200000000003,10.7627,2.54329,10.8097Q2.6567600000000002,10.8567,2.7742899999999997,10.89235Q2.89182,10.928,3.01227,10.95196Q3.13273,10.97592,3.25496,10.98796Q3.37718,11,3.5,11L8.5,11Q8.62282,11,8.74504,10.98796Q8.867270000000001,10.97592,8.98772,10.95196Q9.10818,10.928,9.22571,10.89235Q9.34324,10.8567,9.45671,10.8097Q9.57018,10.7627,9.67849,10.7048Q9.78681,10.64691,9.88892,10.57867Q9.99104,10.51044,10.08598,10.43253Q10.18092,10.35461,10.26777,10.26777Q10.35461,10.18092,10.43253,10.08598Q10.51044,9.99104,10.57867,9.88892Q10.64691,9.78681,10.7048,9.67849Q10.7627,9.57018,10.8097,9.45671Q10.8567,9.34324,10.89235,9.22571Q10.928,9.10818,10.95196,8.98772Q10.97592,8.867270000000001,10.98796,8.74504Q11,8.62282,11,8.5L11,3.5Q11,3.37718,10.98796,3.25496Q10.97592,3.13273,10.95196,3.01227Q10.928,2.89182,10.89235,2.7742899999999997Q10.8567,2.6567600000000002,10.8097,2.54329Q10.7627,2.4298200000000003,10.7048,2.32151Q10.64691,2.21319,10.57867,2.11107Q10.51044,2.00896,10.43253,1.9140169999999999Q10.35461,1.819078,10.26777,1.732233Q10.18092,1.645388,10.08598,1.567474Q9.99104,1.48956,9.88892,1.421326Q9.78681,1.353092,9.67849,1.295197Q9.57018,1.237301,9.45671,1.190301Q9.34324,1.1433010000000001,9.22571,1.1076489999999999Q9.10818,1.0719972,8.98772,1.0480368Q8.867270000000001,1.0240764,8.74504,1.0120382Q8.62282,1,8.5,1L3.5,1Q3.37718,1,3.25496,1.0120382Q3.13273,1.0240764,3.01227,1.0480368Q2.89182,1.0719972,2.7742899999999997,1.1076489999999999Q2.6567600000000002,1.1433010000000001,2.54329,1.190301Q2.4298200000000003,1.237301,2.32151,1.295197Q2.21319,1.353092,2.11107,1.421326Q2.00896,1.48956,1.9140169999999999,1.567474Q1.819078,1.645388,1.732233,1.732233Q1.645388,1.819078,1.567474,1.9140169999999999Q1.48956,2.00896,1.421326,2.11107Q1.353092,2.21319,1.295197,2.32151Q1.237301,2.4298200000000003,1.190301,2.54329Q1.1433010000000001,2.6567600000000002,1.1076489999999999,2.7742899999999997Q1.0719972,2.89182,1.0480368,3.01227Q1.0240764,3.13273,1.0120382,3.25496Q1,3.37718,1,3.5ZM9.13416,4.49359C9.22792,4.39982,9.28064,4.2726500000000005,9.28064,4.1400500000000005C9.28064,3.8639,9.05672,3.64001,8.78058,3.64001C8.64797,3.64001,8.52084,3.69279,8.42688,3.78674L5.07343,7.14004L3.57349,5.64005C3.47972,5.54628,3.35258,5.49356,3.21997,5.49356C2.94383,5.49356,2.71997,5.71742,2.71997,5.99356C2.71997,6.12617,2.77256,6.25337,2.86633,6.34714L4.71987,8.200700000000001C4.8136399999999995,8.29447,4.94082,8.34715,5.07343,8.34715C5.20603,8.34715,5.33321,8.29447,5.42698,8.200700000000001L9.13416,4.49359Z" fill-rule="evenodd"></path></symbol>
<symbol xmlns="http://www.w3.org/2000/svg" viewBox="0 0 24 24" id="calendar-config"><path d="M19.18596,15C16.88043,15,15,17.61767,15,18.25581C15,18.89396,16.88043,21.51163,19.18596,21.51163C21.49166,21.51163,23.37209,18.89396,23.37209,18.25581C23.37209,17.61767,21.49149,15,19.18596,15ZM19.18596,19.73576C18.361629999999998,19.73576,17.69094,19.07183,17.69094,18.25581C17.69094,17.439799999999998,18.361629999999998,16.77587,19.18596,16.77587C20.01029,16.77587,20.680979999999998,17.439799999999998,20.680979999999998,18.25581C20.680979999999998,19.07183,20.01029,19.73576,19.18596,19.73576Z"></path><path d="M20.392266015625,4.845396484375C21.629866015625,5.559926484375,22.392266015625,6.880436484375,22.392266015625,8.309496484375L22.392266015625,15.268296484375Q21.423366015625,14.463096484375,20.392266015625,14.169096484375L20.392266015625,8.309496484375Q20.392266015625,7.154796484375,19.392266015625,6.577446484375L12.999966015625,2.886846484375Q11.999966015625,2.309496484375,10.999976015625,2.886846484375L4.607666015625,6.577446484375Q3.607666015625,7.154796484375,3.607666015625,8.309496484375L3.607666015625,15.690696484375Q3.607666015625,16.845396484375,4.607666015625,17.422696484375L10.999976015625,21.113296484375Q11.999966015625,21.690696484375,12.999966015625,21.113296484375L14.828266015625,20.057796484375Q15.140866015625,20.461996484375,15.532766015625,20.841496484375Q15.920166015625,21.216496484375,16.317666015625,21.507296484375L13.999966015625,22.845396484375C12.762366015625,23.559896484375,11.237576015625,23.559896484375,9.999976015625,22.845396484375L3.607666015625,19.154796484375C2.370062015625,18.440296484375,1.607666015625,17.119796484375,1.607666015625,15.690696484375L1.607666015625,8.309496484375C1.607666015625,6.880436484375,2.370062015625,5.559926484375,3.607666015625,4.845396484375L9.999976015625,1.154794484375C11.237576015625,0.440263484375,12.762366015625,0.440263484375,13.999966015625,1.1547954843750001L20.392266015625,4.845396484375ZM15.999966015625,11.999996484375C15.999966015625,14.209096484375,14.209166015625,15.999996484375,11.999966015625,15.999996484375C9.790866015625,15.999996484375,7.999996015625,14.209096484375,7.999996015625,11.999996484375C7.999996015625,9.790856484375,9.790866015625,7.999996484375,11.999966015625,7.999996484375C14.209166015625,7.999996484375,15.999966015625,9.790856484375,15.999966015625,11.999996484375ZM13.999966015625,11.999996484375Q13.999966015625,11.171596484375,13.414166015625,10.585786484375Q12.828466015625,9.999996484375,11.999966015625,9.999996484375Q11.171576015625,9.999996484375,10.585786015625,10.585786484375Q9.999996015625,11.171596484375,9.999996015625,11.999996484375Q9.999996015625,12.828396484375,10.585786015625,13.414196484375Q11.171576015625,13.999996484375,11.999966015625,13.999996484375Q12.828466015625,13.999996484375,13.414166015625,13.414196484375Q13.999966015625,12.828396484375,13.999966015625,11.999996484375Z" fill-rule="evenodd"></path></symbol>
<symbol xmlns="http://www.w3.org/2000/svg" viewBox="0 0 12 12" id="calendar-exchange"><path d="M8.25,1.75L3.75,1.75L3.75,1.25C3.75,0.973858,3.52614,0.75,3.25,0.75C2.97386,0.75,2.75,0.973858,2.75,1.25L2.75,1.80279C1.60888,2.0472900000000003,0.75,3.11221,0.75,4.38889L0.75,8.61111C0.75,10.06853,1.86929,11.25,3.25,11.25L8.75001,11.25C10.13072,11.25,11.25,10.06853,11.25,8.61111L11.25,4.38889C11.25,3.11221,10.39112,2.0472900000000003,9.25,1.80279L9.25,1.25C9.25,0.973858,9.02614,0.75,8.75,0.75C8.47386,0.75,8.25,0.973858,8.25,1.25L8.25,1.75ZM1.75,8.61111Q1.75,9.26695,2.18934,9.7307Q2.62868,10.19444,3.25,10.19444L8.75001,10.19444Q9.37133,10.19444,9.81067,9.7307Q10.25001,9.26695,10.25001,8.61111L10.25001,4.38889Q10.25001,3.73305,9.81067,3.2693Q9.37133,2.80556,8.75001,2.80556L3.25,2.80556Q2.62868,2.80556,2.18934,3.2693Q1.7499989999999999,3.73305,1.75,4.38889L1.75,8.61111ZM4.4999,8.43713L4.4999,4.35999Q4.4999,4.00002,4.84229,4.00002L7.1499,4.00002Q7.31559,4.00002,7.43274,4.117179999999999Q7.5499,4.2343399999999995,7.5499,4.40002Q7.5499,4.56571,7.43274,4.682869999999999Q7.31559,4.80002,7.1499,4.80002L5.2999,4.80002L5.2999,5.99905L7.14941,5.99905Q7.3153,5.99905,7.4326,6.11635Q7.5499,6.23365,7.5499,6.39954Q7.5499,6.56542,7.4326,6.68272Q7.3153,6.80002,7.14941,6.80002L5.2999,6.80002L5.2999,8.00002L7.1499,8.00002Q7.31559,8.00002,7.43274,8.117180000000001Q7.5499,8.23434,7.5499,8.40002Q7.5499,8.56571,7.43274,8.682870000000001Q7.31559,8.80002,7.1499,8.80002L4.84229,8.80002Q4.4999,8.80002,4.4999,8.43713Z" fill-rule="evenodd"></path></symbol>
<symbol xmlns="http://www.w3.org/2000/svg" viewBox="0 0 24 24" id="calendar-filter"><path d="M20.0494640625,5.11515284375Q19.1545640625,4.22021484375,17.888864062499998,4.22021484375L6.1112140625,4.22021484375Q4.8455740625,4.22020149235,3.9506260625,5.11515284375Q3.0556640625,6.01013484375,3.0556640625,7.2757848437499995L3.0556640625,16.72021484375Q3.0558400415,17.985914843750002,3.9507920625,18.880814843750002Q4.8456740625000005,19.77581484375,6.1113240625,19.77581484375L17.888864062499998,19.77581484375Q19.1544640625,19.77581484375,20.0494640625,18.880814843750002Q20.9445640625,17.98581484375,20.9445640625,16.72021484375L20.9445640625,7.2757848437499995Q20.9443640625,6.01010484375,20.0494640625,5.11515284375ZM6.1111940625,5.77577484375L10.1112240625,5.77575484375L10.1112240625,18.22021484375L6.1113240625,18.22021484375Q5.4899340625,18.22021484375,5.0506140625,17.78091484375Q4.6112240625,17.341514843749998,4.6112240625,16.72021484375L4.6112240625,7.2757848437499995Q4.6112240625,6.65445484375,5.0505840625000005,6.21508484375Q5.4899040625,5.77576484375,6.1111940625,5.77577484375ZM17.888864062499998,18.22021484375L11.6667740625,18.22021484375L11.6667740625,5.77575484375L17.888864062499998,5.77577484375Q18.5102640625,5.7757848437499995,18.949564062500002,6.21512484375Q19.3889640625,6.65442484375,19.3889640625,7.2757848437499995L19.3889640625,16.72021484375Q19.3889640625,17.341514843749998,18.949564062500002,17.78091484375Q18.5101640625,18.22021484375,17.888864062499998,18.22021484375ZM5.800004062499999,7.30000484375L5.800004062499999,7.900004843750001C5.800004062499999,8.06568484375,5.9343140625,8.20000484375,6.1000040625,8.20000484375L8.5000040625,8.20000484375C8.665684062499999,8.20000484375,8.800004062500001,8.06568484375,8.800004062500001,7.900004843750001L8.800004062500001,7.30000484375C8.800004062500001,7.1343148437499995,8.665684062499999,7.00000484375,8.5000040625,7.00000484375L6.1000040625,7.00000484375C5.9343140625,7.00000484375,5.800004062499999,7.1343148437499995,5.800004062499999,7.30000484375ZM5.800004062499999,9.80000484375L5.800004062499999,10.40000484375C5.800004062499999,10.565684843749999,5.9343140625,10.69999484375,6.1000040625,10.69999484375L8.5000040625,10.69999484375C8.665684062499999,10.69999484375,8.800004062500001,10.565684843749999,8.800004062500001,10.40000484375L8.800004062500001,9.80000484375C8.800004062500001,9.634314843750001,8.665684062499999,9.50000484375,8.5000040625,9.50000484375L6.1000040625,9.50000484375C5.9343140625,9.50000484375,5.800004062499999,9.634314843750001,5.800004062499999,9.80000484375ZM5.800004062499999,12.30000484375L5.800004062499999,12.89999484375C5.800004062499999,13.06568484375,5.9343140625,13.19999484375,6.1000040625,13.19999484375L8.5000040625,13.19999484375C8.665684062499999,13.19999484375,8.800004062500001,13.06568484375,8.800004062500001,12.89999484375L8.800004062500001,12.30000484375C8.800004062500001,12.134314843750001,8.665684062499999,12.00000484375,8.5000040625,12.00000484375L6.1000040625,12.00000484375C5.9343140625,12.00000484375,5.800004062499999,12.134314843750001,5.800004062499999,12.30000484375Z" fill-rule="evenodd"></path></symbol>
<symbol xmlns="http://www.w3.org/2000/svg" viewBox="0 0 12 12" id="calendar-google"><path d="M8.25,1.75L3.75,1.75L3.75,1.25C3.75,0.973858,3.52614,0.75,3.25,0.75C2.97386,0.75,2.75,0.973858,2.75,1.25L2.75,1.80279C1.60888,2.0472900000000003,0.75,3.11221,0.75,4.38889L0.75,8.61111C0.75,10.06853,1.86929,11.25,3.25,11.25L8.75001,11.25C10.13072,11.25,11.25,10.06853,11.25,8.61111L11.25,4.38889C11.25,3.11221,10.39112,2.0472900000000003,9.25,1.80279L9.25,1.25C9.25,0.973858,9.02614,0.75,8.75,0.75C8.47386,0.75,8.25,0.973858,8.25,1.25L8.25,1.75ZM1.75,8.61111Q1.75,9.26695,2.18934,9.7307Q2.62868,10.19444,3.25,10.19444L8.75001,10.19444Q9.37133,10.19444,9.81067,9.7307Q10.25001,9.26695,10.25001,8.61111L10.25001,4.38889Q10.25001,3.73305,9.81067,3.2693Q9.37133,2.80556,8.75001,2.80556L3.25,2.80556Q2.62868,2.80556,2.18934,3.2693Q1.7499989999999999,3.73305,1.75,4.38889L1.75,8.61111ZM6.06905,4.00002Q5.01622,4.00002,4.4101300000000005,4.6506799999999995Q3.79995,5.30573,3.79995,6.45115Q3.79995,7.61479,4.41311,8.27397Q5.02261,8.92921,6.09265,8.92921Q7.08638,8.92922,7.65066,8.3727Q8.199950000000001,7.83097,8.199950000000001,6.90958L8.199950000000001,6.83542Q8.199950000000001,6.35621,7.74097,6.35621L6.55108,6.35621Q6.19321,6.35621,6.19321,6.677Q6.19321,6.99778,6.55108,6.99778L7.31116,6.99778L7.30552,7.12748Q7.28965,7.60113,6.95706,7.89468Q6.62636,8.18655,6.1095,8.18655Q5.4763,8.18655,5.10609,7.71357Q4.738160000000001,7.24351,4.738160000000001,6.43767Q4.738160000000001,5.64562,5.09009,5.1963Q5.44536,4.74272,6.07243,4.74272Q6.81716,4.74273,7.18762,5.41486Q7.35287,5.68654,7.63647,5.68654Q7.81515,5.68654,7.92364,5.57923Q8.03142,5.47262,8.03142,5.29834Q8.03142,5.14904,7.96228,5.0067L7.96228,5.0067L7.96179,5.00566Q7.75858,4.56162,7.26175,4.28748Q6.74078,4.00002,6.06905,4.00002Z" fill-rule="evenodd"></path></symbol>
<symbol xmlns="http://www.w3.org/2000/svg" viewBox="0 0 12 12" id="calendar-habit-complete"><rect width="12" height="12" rx="0" fill="none" style="mix-blend-mode:passthrough"></rect><path d="M11.25,5.490020751953125Q11.25,8.047010751953124,7.16706,11.343620751953125C6.48775,11.892120751953126,5.51225,11.892120751953126,4.83294,11.343620751953125Q0.75,8.047010751953124,0.75,5.490020751953125C0.75,2.590520751953125,3.1005,0.240020751953125,6,0.240020751953125C8.8995,0.240020751953125,11.25,2.590520751953125,11.25,5.490020751953125ZM10.25003,5.490020751953125Q10.25003,3.729610751953125,9.00521,2.484810751953125Q7.76041,1.240017751953125,6,1.240017751953125Q4.23959,1.240017751953125,2.99479,2.484810751953125Q1.749997,3.729610751953125,1.749997,5.490020751953125Q1.749997,7.569160751953125,5.46114,10.565520751953125Q5.69573,10.755020751953126,6,10.755020751953126Q6.30427,10.755020751953126,6.53886,10.565520751953125Q10.25003,7.569160751953125,10.25003,5.490020751953125ZM8.10496,4.544230751953125C8.30013,4.349050751953125,8.30013,4.032610751953126,8.10496,3.837440751953125C7.90978,3.642260751953125,7.59334,3.642260751953125,7.39817,3.837440751953125L5.40676,5.828850751953125L4.591340000000001,5.013440751953125C4.39616,4.818260751953125,4.07973,4.818260751953125,3.88456,5.013440751953125C3.68938,5.208610751953125,3.68938,5.525050751953125,3.88456,5.720220751953125L5.03721,6.872870751953125C5.04233,6.878470751953125,5.04759,6.883980751953125,5.05301,6.889400751953125C5.24074,7.077140751953125,5.5407,7.084280751953125,5.73698,6.910850751953125C5.74494,6.903830751953125,5.75269,6.896580751953125,5.76019,6.889070751953125L5.76514,6.884050751953125L8.10496,4.544230751953125Z" fill-rule="evenodd" style="mix-blend-mode:passthrough"></path></symbol>
<symbol xmlns="http://www.w3.org/2000/svg" viewBox="0 0 12 12" id="calendar-habit-wontdo"><rect width="12" height="12" rx="0" fill="none" style="mix-blend-mode:passthrough"></rect><path d="M11.25,5.49005126953125Q11.25,8.047041269531249,7.16706,11.34365126953125C6.48775,11.89215126953125,5.51225,11.89215126953125,4.83294,11.34365126953125Q0.75,8.047041269531249,0.75,5.49005126953125C0.75,2.59055126953125,3.1005,0.24005126953125,6,0.24005126953125C8.8995,0.24005126953125,11.25,2.59055126953125,11.25,5.49005126953125ZM10.25003,5.49005126953125Q10.25003,3.72964126953125,9.00521,2.48484126953125Q7.76041,1.24004826953125,6,1.24004826953125Q4.23959,1.24004826953125,2.99479,2.48484126953125Q1.749997,3.72964126953125,1.749997,5.49005126953125Q1.749997,7.56919126953125,5.46114,10.56555126953125Q5.69573,10.75505126953125,6,10.75505126953125Q6.30427,10.75505126953125,6.53886,10.56555126953125Q10.25003,7.56919126953125,10.25003,5.49005126953125ZM5.03946,3.57800126953125C4.84428,3.38282126953125,4.527839999999999,3.38282126953125,4.332660000000001,3.57800126953125C4.13749,3.77317126953125,4.13749,4.08961126953125,4.332660000000001,4.28479126953125L5.30096,5.25309126953125L4.37152,6.18253126953125C4.17634,6.37771126953125,4.17634,6.69415126953125,4.37152,6.88932126953125C4.5666899999999995,7.08450126953125,4.88313,7.08450126953125,5.07831,6.88932126953125L6.00775,5.95988126953125L6.92389,6.87600126953125C7.11906,7.07118126953125,7.4355,7.07118126953125,7.63068,6.87600126953125C7.82586,6.68083126953125,7.82586,6.36439126953125,7.63068,6.16921126953125L6.71454,5.25309126953125L7.66952,4.29811126953125C7.8647,4.1029312695312505,7.8647,3.78649126953125,7.66952,3.59132126953125C7.47435,3.39614126953125,7.15791,3.39614126953125,6.96273,3.59132126953125L6.00775,4.54630126953125L5.03946,3.57800126953125Z" fill-rule="evenodd" style="mix-blend-mode:passthrough"></path></symbol>
<symbol xmlns="http://www.w3.org/2000/svg" viewBox="0 0 12 12" id="calendar-habit"><rect width="12" height="12" rx="0" fill="none" style="mix-blend-mode:passthrough"></rect><path d="M6,0.22498321533203125C8.8995,0.22498321533203125,11.25,2.575483215332031,11.25,5.474983215332031C11.25,7.179643215332031,9.88902,9.130843215332032,7.16705,11.328583215332031C6.48775,11.877083215332032,5.51225,11.877083215332032,4.83294,11.328583215332031C2.11098,9.130843215332032,0.75,7.179643215332031,0.75,5.474983215332031C0.75,2.575483215332031,3.1005,0.22498321533203125,6,0.22498321533203125ZM6,1.2249802153320313C4.82639,1.2249802153320313,3.82466,1.6399132153320313,2.99479,2.4697732153320313C2.16493,3.2996432153320314,1.749997,4.301373215332031,1.749997,5.474983215332031C1.749997,6.861083215332031,2.98705,8.55293321533203,5.46114,10.550483215332031C5.61753,10.676783215332032,5.79715,10.739983215332032,6,10.739983215332032C6.20284,10.739983215332032,6.38245,10.676783215332032,6.53885,10.550483215332031C9.01295,8.55293321533203,10.25003,6.861083215332031,10.25003,5.474983215332031C10.25003,4.301383215332031,9.83507,3.2996432153320314,9.0052,2.4697732153320313C8.175329999999999,1.6399132153320313,7.1736,1.2249802153320313,6,1.2249802153320313ZM6,2.484993215332031C6.27615,2.484993215332031,6.5,2.708843215332031,6.5,2.984993215332031L6.5,4.9849932153320315L7.5,4.9849932153320315C7.53283,4.9849932153320315,7.56535,4.988203215332031,7.59755,4.994593215332031C7.62975,5.001003215332031,7.66101,5.010493215332032,7.69135,5.023053215332031C7.72169,5.035613215332031,7.7505,5.0510132153320315,7.7778,5.069253215332031C7.8051,5.087493215332032,7.83035,5.108223215332031,7.85355,5.131443215332031C7.87675,5.154653215332031,7.89749,5.179913215332031,7.91575,5.207203215332031C7.93398,5.234493215332031,7.94938,5.263303215332031,7.96195,5.293633215332031C7.97452,5.323963215332031,7.984,5.3552332153320314,7.9904,5.387433215332031C7.9968,5.4196332153320315,8,5.452143215332031,8,5.484983215332031C8,5.517813215332032,7.9968,5.5503332153320315,7.9904,5.582533215332031C7.984,5.6147332153320315,7.97452,5.646003215332032,7.96195,5.676333215332031C7.94938,5.706663215332031,7.93398,5.735483215332032,7.91575,5.762783215332031C7.89749,5.790083215332031,7.87675,5.815333215332031,7.85355,5.838533215332031C7.83035,5.861773215332032,7.8051,5.882503215332031,7.7778,5.900733215332031C7.7505,5.918963215332031,7.72169,5.934373215332031,7.69135,5.946933215332031C7.66101,5.9594932153320315,7.62975,5.968983215332031,7.59755,5.975383215332031C7.56535,5.981783215332031,7.53283,5.984983215332031,7.5,5.984983215332031L6,5.984983215332031C5.96717,5.984983215332031,5.93465,5.981783215332031,5.90245,5.975383215332031C5.87025,5.968983215332031,5.83899,5.9594932153320315,5.80865,5.946933215332031C5.77831,5.934373215332031,5.7495,5.918963215332031,5.72222,5.900733215332031C5.69491,5.882503215332031,5.66966,5.861773215332032,5.64644,5.838533215332031C5.62323,5.815333215332031,5.6025,5.790083215332031,5.58426,5.762783215332031C5.56602,5.735483215332032,5.55063,5.706663215332031,5.53806,5.676333215332031C5.52549,5.646003215332032,5.51601,5.6147332153320315,5.50961,5.582533215332031C5.5032,5.5503332153320315,5.5,5.517813215332032,5.5,5.484983215332031L5.5,2.984993215332031C5.5,2.708843215332031,5.72385,2.484993215332031,6,2.484993215332031Z" fill-rule="evenodd" style="mix-blend-mode:passthrough"></path></symbol>
<symbol xmlns="http://www.w3.org/2000/svg" viewBox="0 0 14 14" id="calendar-holiday-dark"><circle cx="7" cy="7" r="7" fill-rule="evenodd" clip-rule="evenodd" fill="#0e6c4f"></circle><path d="M3.2,7.6C3.1,7.2,3.1,6.8,3,6.5c0.8-1.1,1.3-2.3,1.7-3.6l0.9,0.2C5.4,3.7,5.1,4.3,4.8,4.9 v5.8H4V6.5C3.8,6.9,3.5,7.3,3.2,7.6z M5.4,5.5V4.6h2.2V2.9h0.9v1.7h2.3v0.9H8.6C9.1,6.9,9.9,8,11,8.9c-0.1,0.1-0.2,0.2-0.3,0.4 c-0.1,0.2-0.2,0.3-0.3,0.4C9.5,8.8,8.9,7.9,8.5,6.9v3.8H7.6V6.9c-0.5,1.1-1.1,2-2,2.9C5.5,9.7,5.4,9.5,5.2,9.3C5.1,9.1,5,9,5,9 c1.2-1,2-2.2,2.5-3.5H5.4z" fill-rule="evenodd" clip-rule="evenodd" fill="#dbe9e4"></path></symbol>
<symbol xmlns="http://www.w3.org/2000/svg" viewBox="0 0 14 14" id="calendar-holiday"><path d="M7,14c-3.9,0-7-3.1-7-7s3.1-7,7-7s7,3.1,7,7S10.9,14,7,14z M3.2,7.6C3.5,7.3,3.8,6.9,4,6.5v4.2h0.9V4.9 c0.3-0.6,0.5-1.2,0.7-1.8L4.7,2.9C4.3,4.2,3.8,5.4,3,6.5C3.1,6.8,3.1,7.2,3.2,7.6z M5.4,5.5h2C7,6.8,6.2,8,5,9C5,9,5.1,9.1,5.2,9.3 c0.2,0.2,0.3,0.4,0.4,0.5c0.9-0.9,1.6-1.8,2-2.9v3.8h0.9V6.9c0.4,1,1,1.9,1.9,2.8c0.1-0.1,0.2-0.2,0.3-0.4C10.8,9.1,10.9,9,11,8.9 C9.9,8,9.1,6.9,8.6,5.5h2.1V4.6H8.5V2.9H7.6v1.7H5.4V5.5z" fill-rule="evenodd" clip-rule="evenodd" fill="#03ce90"></path></symbol>
<symbol xmlns="http://www.w3.org/2000/svg" viewBox="0 0 12 12" id="calendar-icloud"><path d="M3.75,1.75L8.25,1.75L8.25,1.25C8.25,0.973858,8.47386,0.75,8.75,0.75C9.02614,0.75,9.25,0.973858,9.25,1.25L9.25,1.80279C10.39112,2.0472900000000003,11.25,3.11221,11.25,4.38889L11.25,8.61111C11.25,10.06853,10.13072,11.25,8.75001,11.25L3.25,11.25C1.86929,11.25,0.75,10.06853,0.75,8.61111L0.75,4.38889C0.75,3.11221,1.60888,2.0472900000000003,2.75,1.80279L2.75,1.25C2.75,0.973858,2.97386,0.75,3.25,0.75C3.52614,0.75,3.75,0.973858,3.75,1.25L3.75,1.75ZM2.18934,9.7307Q1.75,9.26695,1.75,8.61111L1.75,4.38889Q1.7499989999999999,3.73305,2.18934,3.2693Q2.62868,2.80556,3.25,2.80556L8.75001,2.80556Q9.37133,2.80556,9.81067,3.2693Q10.25001,3.73305,10.25001,4.38889L10.25001,8.61111Q10.25001,9.26695,9.81067,9.7307Q9.37133,10.19444,8.75001,10.19444L3.25,10.19444Q2.62868,10.19444,2.18934,9.7307ZM6,5C5.72386,5,5.5,4.77614,5.5,4.5C5.5,4.22386,5.72386,4,6,4C6.27614,4,6.5,4.22386,6.5,4.5C6.5,4.77614,6.27614,5,6,5ZM5.5,8.5L5.5,6C5.5,5.72386,5.72386,5.5,6,5.5C6.27614,5.5,6.5,5.72386,6.5,6L6.5,8.5C6.5,8.77614,6.27614,9,6,9C5.72386,9,5.5,8.77614,5.5,8.5Z" fill-rule="evenodd"></path></symbol>
<symbol xmlns="http://www.w3.org/2000/svg" viewBox="0 0 24 24" id="calendar-list-select"><path d="M15.882719809265136,14.485280381469726Q15.275489809265137,13.049620381469726,14.168769809265136,11.942900381469727Q13.062039809265137,10.836180381469728,11.626389809265136,10.228948381469726Q10.139389809265136,9.600000381469727,8.512499809265137,9.600000381469727Q8.175950809265137,9.600000381469727,7.9379758092651365,9.837976381469726Q7.699999809265137,10.075952381469726,7.699999809265137,10.412500381469727Q7.699999809265137,10.749050381469726,7.9379758092651365,10.987020381469726Q8.175951809265136,11.225000381469727,8.512499809265137,11.225000381469727Q11.152769809265138,11.225000381469727,13.019719809265137,13.091950381469726Q14.886669809265136,14.958900381469727,14.886669809265136,17.599170381469726Q14.886669809265136,17.93572038146973,15.124639809265137,18.173690381469726Q15.362619809265137,18.411670381469726,15.699169809265136,18.411670381469726Q16.03571980926514,18.411670381469726,16.273689809265136,18.173690381469726Q16.511669809265136,17.93572038146973,16.511669809265136,17.599170381469726Q16.511669809265136,15.972280381469727,15.882719809265136,14.485280381469726ZM12.757089809265135,17.98882038146973Q12.959189809265137,17.786720381469728,12.959189809265137,17.500910381469726Q12.959189809265137,15.699640381469727,11.685489809265137,14.425940381469726Q10.411799809265137,13.152250381469727,8.610519809265137,13.152250381469727Q8.324712809265137,13.152250381469727,8.122615809265136,13.354340381469726Q7.920519809265136,13.556440381469727,7.920519809265136,13.842250381469727Q7.920519809265136,14.128050381469727,8.122615809265136,14.330150381469727Q8.324712809265137,14.532250381469726,8.610519809265137,14.532250381469726Q9.840179809265138,14.532250381469726,10.709679809265136,15.401750381469727Q11.579189809265136,16.271250381469727,11.579189809265136,17.500910381469726Q11.579189809265136,17.786720381469728,11.781279809265136,17.98882038146973Q11.983379809265138,18.190910381469727,12.269189809265136,18.190910381469727Q12.554999809265137,18.190910381469727,12.757089809265135,17.98882038146973ZM9.937499809265137,17.19089038146973Q9.937499809265137,17.612000381469727,9.639719809265136,17.909780381469727Q9.341949809265136,18.207550381469726,8.920829809265136,18.207550381469726Q8.499711809265136,18.207550381469726,8.201936809265137,17.909780381469727Q7.904162809265137,17.612000381469727,7.904162809265137,17.19089038146973Q7.904162809265137,16.769770381469726,8.201936809265137,16.471990381469727Q8.499711809265136,16.174220381469727,8.920829809265136,16.174220381469727Q9.341949809265136,16.174220381469727,9.639719809265136,16.471990381469727Q9.937499809265137,16.769770381469726,9.937499809265137,17.19089038146973Z" fill-rule="evenodd"></path><path d="M22.99999976158142,6L22.99999976158142,18Q22.99999976158142,19.6569,21.82839976158142,20.8284Q20.65689976158142,22,18.99999976158142,22L4.999999761581421,22Q3.343139761581421,22,2.171569761581421,20.8284Q1.000000000000421,19.6569,1.000000000000421,18L1.000000000000421,7.5L0.9999997615814209,6Q0.9999998807904209,4.34315,2.171569761581421,3.17157Q3.343149761581421,2,4.999999761581421,2L18.99999976158142,2Q20.65689976158142,2,21.82839976158142,3.17157Q22.99999976158142,4.34314,22.99999976158142,6ZM20.99999976158142,6L20.99999976158142,6.5L2.999999761581421,6.5L2.999999761581421,6Q2.999999761581421,5.17157,3.5857897615814207,4.585789999999999Q4.171569761581421,4,4.999999761581421,4L18.99999976158142,4Q19.82839976158142,4,20.414199761581422,4.585789999999999Q20.99999976158142,5.17157,20.99999976158142,6ZM20.99999976158142,18L20.99999976158142,8.5L2.999999761581421,8.5L2.999999761581421,18Q2.999999761581421,18.8284,3.5857897615814207,19.4142Q4.171569761581421,20,4.999999761581421,20L18.99999976158142,20Q19.82839976158142,20,20.414199761581422,19.4142Q20.99999976158142,18.8284,20.99999976158142,18Z" fill-rule="evenodd"></path></symbol>
<symbol xmlns="http://www.w3.org/2000/svg" viewBox="0 0 24 24" id="calendar-list"><path d="M16.9,5.9h0.3c0.8,0,1,0.1,1.3,0.2c0.3,0.1,0.5,0.4,0.6,0.6s0.2,0.6,0.2,1.3v9.5c0,0.8-0.1,1-0.2,1.3 c-0.1,0.3-0.4,0.5-0.6,0.6c-0.3,0.1-0.6,0.2-1.3,0.2H6.8c-0.8,0-1-0.1-1.3-0.2S5,19.2,4.9,18.9c-0.1-0.3-0.2-0.6-0.2-1.3V8.1 c0-0.8,0.1-1,0.2-1.3s0.4-0.5,0.6-0.6s0.6-0.2,1.3-0.2h0.3V5.1c0-0.5,0.4-0.8,0.8-0.8c0.5,0,0.8,0.4,0.8,0.8v0.8h6.5V5.1 c0-0.5,0.4-0.8,0.8-0.8c0.5,0,0.8,0.4,0.8,0.8V5.9z M6.3,8.3V10h11.4V8.3H6.3z M8.4,12.4c-0.3,0-0.5,0.2-0.5,0.5v0.6 c0,0.3,0.2,0.5,0.5,0.5H9c0.3,0,0.5-0.2,0.5-0.5v-0.6c0-0.3-0.2-0.5-0.5-0.5H8.4z M11.7,12.4c-0.3,0-0.5,0.2-0.5,0.5v0.6 c0,0.3,0.2,0.5,0.5,0.5h0.6c0.3,0,0.5-0.2,0.5-0.5v-0.6c0-0.3-0.2-0.5-0.5-0.5H11.7z M15,12.4c-0.3,0-0.5,0.2-0.5,0.5v0.6 c0,0.3,0.2,0.5,0.5,0.5h0.6c0.3,0,0.5-0.2,0.5-0.5v-0.6c0-0.3-0.2-0.5-0.5-0.5H15z M8.4,15.7c-0.3,0-0.5,0.2-0.5,0.5v0.6 c0,0.3,0.2,0.5,0.5,0.5H9c0.3,0,0.5-0.2,0.5-0.5v-0.6c0-0.3-0.2-0.5-0.5-0.5H8.4z M11.7,15.7c-0.3,0-0.5,0.2-0.5,0.5v0.6 c0,0.3,0.2,0.5,0.5,0.5h0.6c0.3,0,0.5-0.2,0.5-0.5v-0.6c0-0.3-0.2-0.5-0.5-0.5H11.7z" fill-rule="evenodd" clip-rule="evenodd"></path></symbol>
<symbol xmlns="http://www.w3.org/2000/svg" viewBox="0 0 12 12" id="calendar-note"><path d="M3.5,11C2.11929,11,1,9.88071,1,8.5L1,3.5C1,2.11929,2.11929,1,3.5,1L8.5,1C9.88071,1,11,2.11929,11,3.5L11,7.17157C11,7.70201,10.78929,8.210709999999999,10.41421,8.58579L8.58579,10.41421C8.210709999999999,10.78929,7.70201,11,7.17157,11L3.5,11ZM9.58579,8L8,9.58579L8,9Q8,8.58579,8.29289,8.29289Q8.58579,8,9,8L9.58579,8ZM10,7L9,7C7.89543,7,7,7.89543,7,9L7,10L3.5,10Q2.87868,10,2.43934,9.56066Q2,9.12132,2,8.5L2,3.5Q2,2.87868,2.43934,2.43934Q2.87868,2,3.5,2L8.5,2Q9.12132,2,9.56066,2.43934Q10,2.87868,10,3.5L10,7ZM3.27002,4.45468C3.27002,4.20357,3.47359,4,3.72469,4L8.27145,4C8.52256,4,8.72612,4.20357,8.72612,4.45468C8.72612,4.70578,8.52256,4.90935,8.27145,4.90935L3.72469,4.90935C3.47359,4.90935,3.27002,4.70578,3.27002,4.45468ZM3.27002,6.27338C3.27002,6.02227,3.47359,5.8187,3.72469,5.8187L5.5434,5.8187C5.7945,5.8187,5.99807,6.02227,5.99807,6.27338C5.99807,6.52448,5.7945,6.72805,5.5434,6.72805L3.72469,6.72805C3.47359,6.72805,3.27002,6.52448,3.27002,6.27338Z" fill-rule="evenodd" style="mix-blend-mode:passthrough"></path></symbol>
<symbol xmlns="http://www.w3.org/2000/svg" viewBox="0 0 12 12" id="calendar-outlook"><path d="M8.25,1.75L3.75,1.75L3.75,1.25C3.75,0.973858,3.52614,0.75,3.25,0.75C2.97386,0.75,2.75,0.973858,2.75,1.25L2.75,1.80279C1.60888,2.0472900000000003,0.75,3.11221,0.75,4.38889L0.75,8.61111C0.75,10.06853,1.86929,11.25,3.25,11.25L8.75001,11.25C10.13072,11.25,11.25,10.06853,11.25,8.61111L11.25,4.38889C11.25,3.11221,10.39112,2.0472900000000003,9.25,1.80279L9.25,1.25C9.25,0.973858,9.02614,0.75,8.75,0.75C8.47386,0.75,8.25,0.973858,8.25,1.25L8.25,1.75ZM1.75,8.61111Q1.75,9.26695,2.18934,9.7307Q2.62868,10.19444,3.25,10.19444L8.75001,10.19444Q9.37133,10.19444,9.81067,9.7307Q10.25001,9.26695,10.25001,8.61111L10.25001,4.38889Q10.25001,3.73305,9.81067,3.2693Q9.37133,2.80556,8.75001,2.80556L3.25,2.80556Q2.62868,2.80556,2.18934,3.2693Q1.7499989999999999,3.73305,1.75,4.38889L1.75,8.61111ZM8.14181,6.3031C8.14181,7.71825,7.31245,8.6,5.99595,8.6C4.67638,8.6,3.8501,7.71825,3.8501,6.3031C3.8501,4.88486,4.67638,4,5.99595,4C7.31245,4,8.14181,4.88486,8.14181,6.3031ZM4.7997,6.3031C4.7997,7.2342,5.26525,7.82308,5.99595,7.82308C6.72357,7.82308,7.18912,7.2342,7.18912,6.3031C7.18912,5.36891,6.72357,4.77695,5.99595,4.77695C5.26834,4.77695,4.7997,5.36891,4.7997,6.3031Z" fill-rule="evenodd"></path></symbol>
<symbol xmlns="http://www.w3.org/2000/svg" viewBox="0 0 12 12" id="calendar-pomo"><path d="M6.2715129931640625,0.6115420854492187C6.256992993164062,0.5935620854492187,6.240782993164062,0.5770613854492188,6.223132993164063,0.5622719854492187C6.072532993164063,0.4361379854492188,5.850042993164062,0.4581970854492188,5.726172993164062,0.6115420854492187L5.055432993164063,1.4418710854492187C4.995172993164062,1.5164800854492186,4.907942993164062,1.5632500854492188,4.813432993164063,1.5716400854492187L3.6098029931640623,1.6785000854492187C3.5097929931640626,1.6873800854492187,3.4202329931640625,1.7451000854492187,3.3695429931640626,1.8333400854492188C3.2832629931640627,1.9835700854492186,3.3329129931640624,2.1765800854492188,3.4804429931640626,2.2644500854492184L4.083372993164062,2.623520085449219C4.222562993164063,2.706410085449219,4.288912993164063,2.874800085449219,4.244592993164062,3.032670085449219L4.104022993164063,3.533440085449219C4.084992993164063,3.601210085449219,4.085952993164062,3.6731800854492187,4.106772993164062,3.7404000854492185C4.165432993164062,3.9297600854492187,4.363742993164062,4.034850085449219,4.549702993164063,3.9751100854492187L5.6802029931640625,3.611990085449219C5.887592993164063,3.5453800854492186,6.110092993164063,3.5453800854492186,6.317482993164062,3.611990085449219L7.447982993164063,3.9751100854492187C7.514002993164063,3.9963200854492187,7.584682993164063,3.997300085449219,7.651232993164062,3.977920085449219C7.838722993164063,3.923350085449219,7.947262993164062,3.7243500854492186,7.893662993164062,3.533440085449219L7.753082993164062,3.032670085449219C7.708762993164062,2.874800085449219,7.775122993164063,2.706410085449219,7.914312993164063,2.623520085449219L8.517242993164063,2.2644500854492184C8.603892993164063,2.2128400854492187,8.660582993164063,2.1216400854492186,8.669302993164063,2.019800085449219C8.684142993164063,1.8464200854492188,8.558152993164063,1.6936200854492187,8.387882993164062,1.6785000854492187L7.184252993164063,1.5716400854492187C7.089742993164062,1.5632500854492188,7.002512993164062,1.5164800854492186,6.942242993164062,1.4418710854492187L6.2715129931640625,0.6115420854492187ZM9.551852993164063,2.770060085449219Q10.441992993164062,3.456820085449219,10.929542993164063,4.445980085449219Q11.421842993164063,5.444580085449219,11.421842993164063,6.5868500854492185Q11.421842993164063,7.603450085449219,10.988242993164063,8.53106008544922Q10.572012993164062,9.421420085449219,9.816112993164063,10.105400085449219Q9.065382993164063,10.784700085449218,8.094452993164062,11.15630008544922Q7.093222993164063,11.53950008544922,5.9988729931640625,11.53950008544922Q4.904522993164062,11.53950008544922,3.9032929931640625,11.15630008544922Q2.9323629931640625,10.784700085449218,2.1816329931640626,10.105400085449219Q1.4257269931640626,9.421410085449219,1.0095429931640625,8.53106008544922Q0.5759429931640625,7.603450085449219,0.5759429931640625,6.5868500854492185Q0.5759429931640625,5.445060085449219,1.0687769931640625,4.446470085449219Q1.5567009931640625,3.4578300854492188,2.4471229931640623,2.7710600854492187C2.5311129931640624,2.7062700854492188,2.6342029931640627,2.6711400854492187,2.7402729931640626,2.6711400854492187C3.0053729931640625,2.6711400854492187,3.2202729931640626,2.8860400854492188,3.2202729931640626,3.1511400854492186C3.2202729931640626,3.2999500854492188,3.1512529931640625,3.4403400854492188,3.0331029931640625,3.531470085449219Q2.3190429931640626,4.082330085449218,1.9296429931640624,4.871330085449219Q1.5359429931640625,5.669050085449219,1.5359429931640625,6.5868500854492185Q1.5359429931640625,7.390160085449219,1.8792229931640625,8.124540085449219Q2.2134129931640625,8.839490085449219,2.8257529931640626,9.393560085449218Q3.4432729931640624,9.95233008544922,4.2464329931640625,10.259720085449219Q5.081952993164062,10.579500085449219,5.9988729931640625,10.579500085449219Q6.915792993164063,10.579500085449219,7.7513129931640625,10.259720085449219Q8.554472993164062,9.95233008544922,9.171992993164062,9.393560085449218Q9.784332993164062,8.839490085449219,10.118522993164062,8.124540085449219Q10.461802993164062,7.390160085449219,10.461802993164062,6.5868500854492185Q10.461802993164062,5.6683300854492185,10.068502993164062,4.870430085449219Q9.679342993164063,4.080930085449219,8.965432993164063,3.5301400854492186C8.847632993164062,3.4392500854492187,8.778642993164063,3.298880085449219,8.778642993164063,3.150100085449219C8.778642993164063,2.8850000854492186,8.993542993164063,2.670100085449219,9.258642993164063,2.670100085449219C9.364742993164063,2.670100085449219,9.467852993164062,2.7052500854492187,9.551852993164063,2.770060085449219Z" fill-rule="evenodd"></path></symbol>
<symbol xmlns="http://www.w3.org/2000/svg" viewBox="0 0 12 12" id="calendar-real-subtask"><path d="M1,3.5L1,8.5C1,9.88071,2.11929,11,3.5,11L8.5,11C9.88071,11,11,9.88071,11,8.5L11,3.5C11,2.11929,9.88071,1,8.5,1L3.5,1C2.11929,1,1,2.11929,1,3.5ZM2.43934,9.56066Q2,9.12132,2,8.5L2,3.5Q2,2.87868,2.43934,2.43934Q2.87868,2,3.5,2L8.5,2Q9.12132,2,9.56066,2.43934Q10,2.87868,10,3.5L10,8.5Q10,9.12132,9.56066,9.56066Q9.12132,10,8.5,10L3.5,10Q2.87868,10,2.43934,9.56066ZM3.72457,4.18005C3.47353,4.18005,3.27002,4.38356,3.27002,4.6346C3.27002,4.88564,3.47353,5.08914,3.72457,5.08914C3.9756,5.08914,4.17911,4.88564,4.17911,4.6346C4.17911,4.38356,3.9756,4.18005,3.72457,4.18005ZM5.08809,4.18005C4.83705,4.18005,4.63354,4.38356,4.63354,4.6346C4.63354,4.88564,4.83705,5.08914,5.08809,5.08914L8.26991,5.08914C8.52095,5.08914,8.724450000000001,4.88564,8.724450000000001,4.6346C8.724450000000001,4.38356,8.52095,4.18005,8.26991,4.18005L5.08809,4.18005ZM3.72457,6.90735C3.47353,6.90735,3.27002,7.11086,3.27002,7.36189C3.27002,7.61293,3.47353,7.81644,3.72457,7.81644C3.9756,7.81644,4.17911,7.61293,4.17911,7.36189C4.17911,7.11086,3.9756,6.90735,3.72457,6.90735ZM5.08809,6.90735C4.83705,6.90735,4.63354,7.11086,4.63354,7.36189C4.63354,7.61293,4.83705,7.81644,5.08809,7.81644L8.26991,7.81644C8.52095,7.81644,8.724450000000001,7.61293,8.724450000000001,7.36189C8.724450000000001,7.11086,8.52095,6.90735,8.26991,6.90735L5.08809,6.90735Z" fill-rule="evenodd"></path></symbol>
<symbol xmlns="http://www.w3.org/2000/svg" viewBox="0 0 12 12" id="calendar-repeat"><path d="M7.85355,3.9148691035461427L8.91421,2.8542091035461423C9.10948,2.6589491035461426,9.10948,2.3423691035461425,8.91421,2.1471091035461427L7.85355,1.0864461035461426C7.65829,0.8911836035461426,7.34171,0.8911836035461426,7.14645,1.0864461035461426C6.95118,1.2817081035461426,6.95118,1.5982901035461425,7.14645,1.7935521035461426L7.35295,2.0000591035461426L4.5,2.0000591035461426C2.29086,2.0000591035461426,0.5,3.7909191035461425,0.5,6.000059103546143C0.5,6.747639103546143,0.705083,7.447319103546143,1.062058,8.045909103546142C1.216136,8.304269103546144,1.5638,8.314969103546144,1.77651,8.102259103546142C1.95523,7.923539103546142,1.9675,7.639519103546142,1.84667,7.417529103546142Q1.5,6.780589103546142,1.5,6.000059103546143Q1.5,4.757419103546143,2.37868,3.8787391035461427Q3.25736,3.0000591035461426,4.5,3.0000591035461426L7.35416,3.0000591035461426L7.14645,3.2077691035461426C6.95118,3.4030291035461424,6.95118,3.7196091035461425,7.14645,3.9148691035461427C7.34171,4.1101391035461425,7.65829,4.1101391035461425,7.85355,3.9148691035461427ZM10.15333,4.582609103546142C10.03251,4.3606091035461425,10.04478,4.076599103546142,10.2235,3.8978791035461424C10.43621,3.6851691035461425,10.7839,3.6958591035461428,10.938,3.9542291035461425C11.2949,4.552809103546142,11.5,5.252489103546143,11.5,6.000059103546143C11.5,8.209199103546142,9.70914,10.000059103546143,7.5,10.000059103546143L4.64776,10.000059103546143L4.85416,10.206459103546143C5.04942,10.401719103546142,5.04942,10.718289103546143,4.85416,10.913549103546142C4.65889,11.108799103546142,4.3423099999999994,11.108799103546142,4.14705,10.913549103546142L3.08639,9.852909103546143C2.89113,9.657649103546143,2.89113,9.341049103546142,3.08639,9.145789103546143L4.14705,8.085119103546143C4.3423099999999994,7.889859103546143,4.6589,7.889859103546143,4.85416,8.085119103546143C5.04942,8.280379103546142,5.04942,8.596979103546143,4.85416,8.792239103546143L4.64634,9.000059103546143L7.5,9.000059103546143Q8.74264,9.000059103546143,9.62132,8.121379103546143Q10.5,7.242699103546142,10.5,6.000059103546143Q10.5,5.2195391035461425,10.15333,4.582609103546142Z" fill-rule="evenodd"></path></symbol>
<symbol xmlns="http://www.w3.org/2000/svg" viewBox="0 0 12 12" id="calendar-schedule-task"><path d="M1,3.5L1,8.5C1,9.88071,2.11929,11,3.5,11L8.5,11C9.88071,11,11,9.88071,11,8.5L11,3.5C11,2.11929,9.88071,1,8.5,1L3.5,1C2.11929,1,1,2.11929,1,3.5ZM2.43934,9.56066Q2,9.12132,2,8.5L2,5.54911L10,5.54911L10,8.5Q10,9.12132,9.56066,9.56066Q9.12132,10,8.5,10L3.5,10Q2.87868,10,2.43934,9.56066ZM10,4.64001L10,3.5Q10,2.87868,9.56066,2.43934Q9.12132,2,8.5,2L3.5,2Q2.87868,2,2.43934,2.43934Q2,2.87868,2,3.5L2,4.64001L10,4.64001ZM4.40909,3.35457C4.40909,3.60561,4.205579999999999,3.80912,3.95455,3.80912C3.70351,3.80912,3.5,3.60561,3.5,3.35457C3.5,3.10353,3.70351,2.90002,3.95455,2.90002C4.205579999999999,2.90002,4.40909,3.10353,4.40909,3.35457ZM8.499179999999999,3.35457C8.499179999999999,3.60561,8.295670000000001,3.80912,8.04463,3.80912C7.79359,3.80912,7.59009,3.60561,7.59009,3.35457C7.59009,3.10353,7.79359,2.90002,8.04463,2.90002C8.295670000000001,2.90002,8.499179999999999,3.10353,8.499179999999999,3.35457Z" fill-rule="evenodd"></path></symbol>
<symbol xmlns="http://www.w3.org/2000/svg" viewBox="0 0 24 24" id="calendar-schedule"><path d="M0.9999980792807166,17.9924L0.9999956488607166,6.00756C0.9999956488607166,3.79842,2.7859989731407167,2,4.995138973140717,2L18.968088973140716,2C21.177188973140716,2,22.999988973140717,3.7781000000000002,22.999988973140717,5.98724L22.999988973140717,11.49789C22.999988973140717,12.0498,22.552888973140718,12.5005,22.001088973140718,12.5011C21.448388973140716,12.5017,20.999988973140717,12.0559,20.999988973140717,11.5032L20.999988973140717,8.200009999999999L2.9999789731407165,8.200009999999999L2.9999789731407165,8.70745C2.999958973140717,11.79763,2.9999489731407163,15.1333,2.9999789731407165,18.0105C2.9999889731407166,19.115,3.8829589731407164,20,4.9875089731407165,20L12.006288973140716,20C12.558588973140717,20,12.999988973140717,20.4478,12.999988973140717,21C12.999988973140717,21.5523,12.562288973140717,22,12.009988973140716,22C9.659998973140716,22,7.309998973140717,22,4.959998973140717,22C2.7508689731407165,22,0.9999980770107165,20.2016,0.9999980792807166,17.9924ZM2.9999889731407166,6.20001L20.999988973140717,6.20001L20.999988973140717,6.02503C20.999988973140717,4.92046,20.113288973140715,4,19.008788973140717,4L14.980688973140717,4.00001C11.650888973140717,4.00002,8.321068973140717,4.000030000000001,4.991248973140717,4.00001C3.8866689731407167,4.00001,2.9999989731407166,4.884930000000001,2.9999889731407166,5.98951L2.9999889731407166,6.20001Z" fill-rule="evenodd"></path><path d="M14,15C14,15.55228,14.447715,16,15,16L22.5,16C23.05229,16,23.5,15.55228,23.5,15C23.5,14.447715,23.05229,14,22.5,14L15,14C14.447715,14,14,14.447715,14,15Z"></path><rect x="14" y="18" width="7" height="2" rx="1"></rect></symbol>
<symbol xmlns="http://www.w3.org/2000/svg" viewBox="0 0 22 22" id="calendar-sidebar"><path d="M1.1458404421988466,5.683373373069763L1.1458404064178467,5.506923373069763C1.1458404064178467,3.4818833730697634,2.7952704064178464,1.8333333730697632,4.820310406417846,1.8333333730697632L17.208140406417847,1.8333333730697632C19.233240406417845,1.8333333730697632,20.854140406417848,3.4818833730697634,20.854140406417848,5.506923373069763L20.854140406417848,5.683373373069763L1.1458404064178467,5.683373373069763L1.1458404421988466,5.683373373069763ZM1.1458406280898468,6.600033373069763L1.1458426342978467,16.493033373069764C1.1458426322178468,18.518133373069762,2.7856904064178467,20.166633373069764,4.810730406417846,20.166633373069764C8.975570406417846,20.166733373069764,13.024440406417847,20.166733373069764,17.189240406417845,20.166633373069764C19.214340406417847,20.166633373069764,20.854140406417848,18.518133373069762,20.854140406417848,16.493033373069764C20.854140406417848,13.874333373069764,20.854140406417848,11.060103373069763,20.854140406417848,8.339383373069763L20.854140406417848,6.600033373069763L1.1458404064178467,6.600033373069763L1.1458406280898468,6.600033373069763ZM4.812500406417847,10.770853373069762Q4.812500406417847,10.714563373069764,4.818020406417847,10.658543373069763Q4.823540406417846,10.602523373069763,4.834520406417846,10.547313373069763Q4.845500406417846,10.492103373069764,4.861840406417847,10.438233373069764Q4.878180406417847,10.384363373069764,4.899730406417847,10.332363373069763Q4.921270406417847,10.280353373069763,4.947800406417846,10.230713373069763Q4.974340406417847,10.181063373069764,5.005610406417847,10.134263373069762Q5.036890406417847,10.087453373069764,5.0726004064178465,10.043943373069764Q5.108310406417846,10.000433373069763,5.148110406417847,9.960623373069764Q5.187920406417847,9.920823373069764,5.2314304064178465,9.885113373069764Q5.274940406417847,9.849403373069762,5.321750406417847,9.818123373069763Q5.368550406417847,9.786853373069764,5.418200406417847,9.760323373069763Q5.467840406417847,9.733783373069762,5.519850406417847,9.712243373069764Q5.5718504064178465,9.690703373069763,5.625720406417846,9.674363373069763Q5.679590406417847,9.658023373069764,5.734800406417847,9.647033373069764Q5.790010406417847,9.636053373069764,5.846030406417847,9.630543373069763Q5.902050406417847,9.625023373069762,5.958340406417847,9.625023373069762L6.416670406417847,9.625023373069762Q6.4729604064178465,9.625023373069762,6.528980406417847,9.630533373069763Q6.585000406417847,9.636053373069764,6.640210406417847,9.647033373069764Q6.695420406417846,9.658023373069764,6.749290406417846,9.674363373069763Q6.803160406417847,9.690703373069763,6.855160406417847,9.712243373069764Q6.907170406417847,9.733783373069762,6.956810406417847,9.760323373069763Q7.006460406417847,9.786853373069764,7.053260406417847,9.818123373069763Q7.100070406417847,9.849403373069762,7.143580406417847,9.885113373069764Q7.1870904064178465,9.920823373069764,7.226900406417847,9.960623373069764Q7.266700406417847,10.000433373069763,7.302410406417847,10.043943373069764Q7.338120406417847,10.087453373069764,7.369400406417847,10.134263373069762Q7.400670406417847,10.181063373069764,7.427210406417847,10.230713373069763Q7.453740406417847,10.280353373069763,7.475280406417847,10.332363373069763Q7.4968204064178465,10.384363373069764,7.513160406417847,10.438233373069764Q7.529510406417847,10.492103373069764,7.540490406417847,10.547313373069763Q7.551470406417847,10.602523373069763,7.556990406417847,10.658543373069763Q7.562500406417847,10.714563373069764,7.562500406417847,10.770853373069762Q7.562500406417847,10.827143373069763,7.556990406417847,10.883163373069763Q7.551470406417847,10.939183373069763,7.540490406417847,10.994393373069764Q7.529510406417847,11.049603373069763,7.513160406417847,11.103473373069763Q7.4968204064178465,11.157333373069763,7.475280406417847,11.209343373069764Q7.453740406417847,11.261353373069763,7.427210406417847,11.310993373069763Q7.400670406417847,11.360633373069764,7.369400406417847,11.407443373069762Q7.338120406417847,11.454243373069763,7.302410406417847,11.497763373069763Q7.266700406417847,11.541273373069764,7.226900406417847,11.581083373069763Q7.1870904064178465,11.620883373069763,7.143580406417847,11.656593373069763Q7.100070406417847,11.692303373069763,7.053260406417847,11.723583373069763Q7.006460406417847,11.754853373069762,6.956810406417847,11.781383373069763Q6.907170406417847,11.807923373069762,6.855160406417847,11.829463373069764Q6.803160406417847,11.851033373069763,6.749290406417846,11.867333373069764Q6.695420406417846,11.883733373069763,6.640210406417847,11.894633373069762Q6.585000406417847,11.905633373069763,6.528980406417847,11.911133373069763Q6.4729604064178465,11.916733373069762,6.416670406417847,11.916733373069762L5.958340406417847,11.916733373069762Q5.902050406417847,11.916733373069762,5.846030406417847,11.911133373069763Q5.790010406417847,11.905633373069763,5.734800406417847,11.894633373069762Q5.679590406417847,11.883733373069763,5.625720406417846,11.867333373069764Q5.5718504064178465,11.851033373069763,5.519850406417847,11.829463373069764Q5.467840406417847,11.807923373069762,5.418200406417847,11.781383373069763Q5.368550406417847,11.754853373069762,5.321750406417847,11.723573373069764Q5.274940406417847,11.692303373069763,5.2314304064178465,11.656593373069763Q5.187920406417847,11.620883373069763,5.148110406417847,11.581083373069763Q5.108310406417846,11.541273373069764,5.0726004064178465,11.497763373069763Q5.036890406417847,11.454243373069763,5.005610406417847,11.407443373069762Q4.974340406417847,11.360633373069764,4.947800406417846,11.310993373069763Q4.921270406417847,11.261353373069763,4.899730406417847,11.209343373069764Q4.878180406417847,11.157333373069763,4.861840406417847,11.103473373069763Q4.845500406417846,11.049603373069763,4.834520406417846,10.994393373069764Q4.823540406417846,10.939183373069763,4.818020406417847,10.883163373069763Q4.812500406417847,10.827143373069763,4.812500406417847,10.770853373069762ZM9.625000406417847,10.770853373069762Q9.625000406417847,10.714563373069764,9.630520406417848,10.658543373069763Q9.636040406417846,10.602523373069763,9.647020406417846,10.547313373069763Q9.658000406417846,10.492103373069764,9.674340406417846,10.438233373069764Q9.690680406417847,10.384363373069764,9.712220406417847,10.332363373069763Q9.733770406417847,10.280353373069763,9.760300406417846,10.230713373069763Q9.786840406417847,10.181063373069764,9.818110406417846,10.134263373069762Q9.849380406417847,10.087453373069764,9.885100406417846,10.043943373069764Q9.920810406417846,10.000433373069763,9.960610406417846,9.960623373069764Q10.000420406417847,9.920823373069764,10.043930406417847,9.885113373069764Q10.087440406417846,9.849403373069762,10.134250406417847,9.818123373069763Q10.181050406417846,9.786853373069764,10.230700406417848,9.760323373069763Q10.280340406417846,9.733783373069762,10.332350406417847,9.712243373069764Q10.384350406417846,9.690703373069763,10.438220406417846,9.674363373069763Q10.492090406417846,9.658023373069764,10.547300406417847,9.647033373069764Q10.602510406417847,9.636053373069764,10.658530406417846,9.630543373069763Q10.714550406417846,9.625023373069762,10.770840406417847,9.625023373069762L11.229140406417846,9.625023373069762Q11.285440406417846,9.625023373069762,11.341440406417847,9.630533373069763Q11.397540406417846,9.636053373069764,11.452740406417847,9.647033373069764Q11.507940406417847,9.658023373069764,11.561740406417847,9.674363373069763Q11.615640406417846,9.690703373069763,11.667640406417847,9.712243373069764Q11.719640406417847,9.733783373069762,11.769340406417847,9.760323373069763Q11.818940406417846,9.786853373069764,11.865740406417848,9.818123373069763Q11.912540406417847,9.849403373069762,11.956040406417847,9.885113373069764Q11.999640406417846,9.920823373069764,12.039440406417846,9.960623373069764Q12.079240406417847,10.000433373069763,12.114940406417846,10.043943373069764Q12.150640406417846,10.087453373069764,12.181940406417846,10.134263373069762Q12.213140406417846,10.181063373069764,12.239740406417846,10.230713373069763Q12.266240406417847,10.280353373069763,12.287740406417846,10.332363373069763Q12.309340406417848,10.384363373069764,12.325640406417847,10.438233373069764Q12.342040406417846,10.492103373069764,12.352940406417847,10.547313373069763Q12.363940406417846,10.602523373069763,12.369440406417846,10.658543373069763Q12.375040406417847,10.714563373069764,12.375040406417847,10.770853373069762Q12.375040406417847,10.827143373069763,12.369440406417846,10.883163373069763Q12.363940406417846,10.939183373069763,12.352940406417847,10.994393373069764Q12.342040406417846,11.049603373069763,12.325640406417847,11.103473373069763Q12.309340406417848,11.157333373069763,12.287740406417846,11.209343373069764Q12.266240406417847,11.261353373069763,12.239740406417846,11.310993373069763Q12.213140406417846,11.360633373069764,12.181940406417846,11.407443373069762Q12.150640406417846,11.454243373069763,12.114940406417846,11.497763373069763Q12.079240406417847,11.541273373069764,12.039440406417846,11.581083373069763Q11.999640406417846,11.620883373069763,11.956040406417847,11.656593373069763Q11.912540406417847,11.692303373069763,11.865740406417848,11.723583373069763Q11.818940406417846,11.754853373069762,11.769340406417847,11.781383373069763Q11.719640406417847,11.807923373069762,11.667640406417847,11.829463373069764Q11.615640406417846,11.851033373069763,11.561740406417847,11.867333373069764Q11.507940406417847,11.883733373069763,11.452740406417847,11.894633373069762Q11.397540406417846,11.905633373069763,11.341440406417847,11.911133373069763Q11.285440406417846,11.916733373069762,11.229140406417846,11.916733373069762L10.770840406417847,11.916733373069762Q10.714550406417846,11.916733373069762,10.658530406417846,11.911133373069763Q10.602510406417847,11.905633373069763,10.547300406417847,11.894633373069762Q10.492090406417846,11.883733373069763,10.438220406417846,11.867333373069764Q10.384350406417846,11.851033373069763,10.332350406417847,11.829463373069764Q10.280340406417846,11.807923373069762,10.230690406417846,11.781383373069763Q10.181050406417846,11.754853373069762,10.134250406417847,11.723573373069764Q10.087440406417846,11.692303373069763,10.043930406417847,11.656593373069763Q10.000420406417847,11.620883373069763,9.960610406417846,11.581083373069763Q9.920810406417846,11.541273373069764,9.885100406417846,11.497763373069763Q9.849380406417847,11.454243373069763,9.818110406417846,11.407443373069762Q9.786840406417847,11.360633373069764,9.760300406417846,11.310993373069763Q9.733770406417847,11.261353373069763,9.712230406417847,11.209343373069764Q9.690680406417847,11.157333373069763,9.674340406417846,11.103473373069763Q9.658000406417846,11.049603373069763,9.647020406417846,10.994393373069764Q9.636040406417846,10.939183373069763,9.630520406417848,10.883163373069763Q9.625000406417847,10.827143373069763,9.625000406417847,10.770853373069762ZM14.437540406417847,10.770853373069762Q14.437540406417847,10.714563373069764,14.443040406417847,10.658543373069763Q14.448540406417846,10.602523373069763,14.459540406417847,10.547313373069763Q14.470540406417847,10.492103373069764,14.486840406417846,10.438233373069764Q14.503140406417847,10.384363373069764,14.524740406417846,10.332363373069763Q14.546240406417846,10.280353373069763,14.572840406417846,10.230713373069763Q14.599340406417847,10.181063373069764,14.630640406417847,10.134263373069762Q14.661840406417847,10.087453373069764,14.697640406417847,10.043943373069764Q14.733340406417847,10.000433373069763,14.773140406417847,9.960623373069764Q14.812940406417846,9.920823373069764,14.856440406417846,9.885113373069764Q14.899940406417846,9.849403373069762,14.946740406417847,9.818123373069763Q14.993540406417846,9.786853373069764,15.043240406417846,9.760323373069763Q15.092840406417846,9.733783373069762,15.144840406417847,9.712243373069764Q15.196840406417847,9.690703373069763,15.250740406417847,9.674363373069763Q15.304540406417846,9.658023373069764,15.359840406417847,9.647033373069764Q15.415040406417846,9.636053373069764,15.471040406417847,9.630543373069763Q15.527040406417846,9.625023373069762,15.583340406417847,9.625023373069762L16.041640406417848,9.625023373069762Q16.097940406417848,9.625023373069762,16.153940406417846,9.630533373069763Q16.210040406417846,9.636053373069764,16.265240406417846,9.647033373069764Q16.320440406417845,9.658023373069764,16.374240406417847,9.674363373069763Q16.428140406417846,9.690703373069763,16.480140406417846,9.712243373069764Q16.532140406417845,9.733783373069762,16.581840406417847,9.760323373069763Q16.631440406417845,9.786853373069764,16.67824040641785,9.818123373069763Q16.725040406417847,9.849403373069762,16.76854040641785,9.885113373069764Q16.812140406417846,9.920823373069764,16.851940406417846,9.960623373069764Q16.891740406417846,10.000433373069763,16.927440406417844,10.043943373069764Q16.963140406417846,10.087453373069764,16.994440406417844,10.134263373069762Q17.025640406417846,10.181063373069764,17.052240406417845,10.230713373069763Q17.078740406417847,10.280353373069763,17.100240406417846,10.332363373069763Q17.121840406417846,10.384363373069764,17.138140406417847,10.438233373069764Q17.154540406417848,10.492103373069764,17.165440406417847,10.547313373069763Q17.176440406417846,10.602523373069763,17.181940406417848,10.658543373069763Q17.187540406417845,10.714563373069764,17.187540406417845,10.770853373069762Q17.187540406417845,10.827143373069763,17.181940406417848,10.883163373069763Q17.176440406417846,10.939183373069763,17.165440406417847,10.994393373069764Q17.154540406417848,11.049603373069763,17.138140406417847,11.103473373069763Q17.121840406417846,11.157333373069763,17.100240406417846,11.209343373069764Q17.078740406417847,11.261353373069763,17.052240406417845,11.310993373069763Q17.025640406417846,11.360633373069764,16.994440406417844,11.407443373069762Q16.963140406417846,11.454243373069763,16.927440406417844,11.497763373069763Q16.891740406417846,11.541273373069764,16.851940406417846,11.581083373069763Q16.812140406417846,11.620883373069763,16.76854040641785,11.656593373069763Q16.725040406417847,11.692303373069763,16.67824040641785,11.723583373069763Q16.631440406417845,11.754853373069762,16.581840406417847,11.781383373069763Q16.532140406417845,11.807923373069762,16.480140406417846,11.829463373069764Q16.428140406417846,11.851033373069763,16.374240406417847,11.867333373069764Q16.320440406417845,11.883733373069763,16.265240406417846,11.894633373069762Q16.210040406417846,11.905633373069763,16.153940406417846,11.911133373069763Q16.097940406417848,11.916733373069762,16.041640406417848,11.916733373069762L15.583340406417847,11.916733373069762Q15.527040406417846,11.916733373069762,15.471040406417847,11.911133373069763Q15.415040406417846,11.905633373069763,15.359840406417847,11.894633373069762Q15.304540406417846,11.883733373069763,15.250740406417847,11.867333373069764Q15.196840406417847,11.851033373069763,15.144840406417847,11.829463373069764Q15.092840406417846,11.807923373069762,15.043240406417846,11.781383373069763Q14.993540406417846,11.754853373069762,14.946740406417847,11.723573373069764Q14.899940406417846,11.692303373069763,14.856440406417846,11.656593373069763Q14.812940406417846,11.620883373069763,14.773140406417847,11.581083373069763Q14.733340406417847,11.541273373069764,14.697640406417847,11.497763373069763Q14.661840406417847,11.454243373069763,14.630640406417847,11.407443373069762Q14.599340406417847,11.360633373069764,14.572840406417846,11.310993373069763Q14.546240406417846,11.261353373069763,14.524740406417846,11.209343373069764Q14.503140406417847,11.157333373069763,14.486840406417846,11.103473373069763Q14.470540406417847,11.049603373069763,14.459540406417847,10.994393373069764Q14.448540406417846,10.939183373069763,14.443040406417847,10.883163373069763Q14.437540406417847,10.827143373069763,14.437540406417847,10.770853373069762ZM4.812500406417847,14.895833373069763Q4.812500406417847,14.839533373069763,4.818020406417847,14.783533373069764Q4.823540406417846,14.727533373069763,4.834520406417846,14.672333373069764Q4.845500406417846,14.617133373069763,4.861840406417847,14.563233373069764Q4.878180406417847,14.509333373069763,4.899730406417847,14.457333373069764Q4.921270406417847,14.405333373069762,4.947800406417846,14.355733373069762Q4.974340406417847,14.306033373069763,5.005610406417847,14.259233373069764Q5.036890406417847,14.212433373069763,5.0726004064178465,14.168933373069763Q5.108310406417846,14.125433373069763,5.148110406417847,14.085633373069763Q5.187920406417847,14.045833373069764,5.2314304064178465,14.010133373069763Q5.274940406417847,13.974433373069763,5.321750406417847,13.943133373069763Q5.368550406417847,13.911833373069763,5.418200406417847,13.885333373069763Q5.467840406417847,13.858733373069763,5.519850406417847,13.837233373069763Q5.5718504064178465,13.815733373069763,5.625720406417846,13.799333373069762Q5.679590406417847,13.783033373069763,5.734800406417847,13.772033373069764Q5.790010406417847,13.761033373069763,5.846030406417847,13.755533373069763Q5.902050406417847,13.750033373069764,5.958340406417847,13.750033373069764L6.416670406417847,13.750033373069764Q6.4729604064178465,13.750033373069764,6.528980406417847,13.755533373069763Q6.585000406417847,13.761033373069763,6.640210406417847,13.772033373069764Q6.695420406417846,13.783033373069763,6.749290406417846,13.799333373069762Q6.803160406417847,13.815733373069763,6.855160406417847,13.837233373069763Q6.907170406417847,13.858733373069763,6.956810406417847,13.885333373069763Q7.006460406417847,13.911833373069763,7.053260406417847,13.943133373069763Q7.100070406417847,13.974433373069763,7.143580406417847,14.010133373069763Q7.1870904064178465,14.045833373069764,7.226900406417847,14.085633373069763Q7.266700406417847,14.125433373069763,7.302410406417847,14.168933373069763Q7.338120406417847,14.212433373069763,7.369400406417847,14.259233373069764Q7.400670406417847,14.306033373069763,7.427210406417847,14.355733373069762Q7.453740406417847,14.405333373069762,7.475280406417847,14.457333373069764Q7.4968204064178465,14.509333373069763,7.513160406417847,14.563233373069764Q7.529510406417847,14.617133373069763,7.540490406417847,14.672333373069764Q7.551470406417847,14.727533373069763,7.556990406417847,14.783533373069764Q7.562500406417847,14.839533373069763,7.562500406417847,14.895833373069763Q7.562500406417847,14.952133373069763,7.556990406417847,15.008133373069763Q7.551470406417847,15.064233373069763,7.540490406417847,15.119433373069763Q7.529510406417847,15.174633373069764,7.513160406417847,15.228433373069763Q7.4968204064178465,15.282333373069763,7.475280406417847,15.334333373069763Q7.453740406417847,15.386333373069764,7.427210406417847,15.436033373069764Q7.400670406417847,15.485633373069764,7.369400406417847,15.532433373069763Q7.338120406417847,15.579233373069764,7.302410406417847,15.622733373069764Q7.266700406417847,15.666233373069764,7.226900406417847,15.706033373069763Q7.1870904064178465,15.745833373069763,7.143580406417847,15.781633373069763Q7.100070406417847,15.817333373069763,7.053260406417847,15.848533373069763Q7.006460406417847,15.879833373069763,6.956810406417847,15.906433373069763Q6.907170406417847,15.932933373069764,6.855160406417847,15.954433373069763Q6.803160406417847,15.976033373069763,6.749290406417846,15.992333373069764Q6.695420406417846,16.008733373069763,6.640210406417847,16.019633373069762Q6.585000406417847,16.03063337306976,6.528980406417847,16.036133373069763Q6.4729604064178465,16.04173337306976,6.416670406417847,16.04173337306976L5.958340406417847,16.04173337306976Q5.902050406417847,16.04173337306976,5.846030406417847,16.036133373069763Q5.790010406417847,16.03063337306976,5.734800406417847,16.019633373069762Q5.679590406417847,16.008733373069763,5.625720406417846,15.992333373069764Q5.5718504064178465,15.976033373069763,5.519850406417847,15.954433373069763Q5.467840406417847,15.932933373069764,5.418200406417847,15.906433373069763Q5.368550406417847,15.879833373069763,5.321750406417847,15.848533373069763Q5.274940406417847,15.817333373069763,5.2314304064178465,15.781633373069763Q5.187920406417847,15.745933373069763,5.148110406417847,15.706033373069763Q5.108310406417846,15.666233373069764,5.0726004064178465,15.622733373069764Q5.036890406417847,15.579233373069764,5.005610406417847,15.532433373069763Q4.974340406417847,15.485633373069764,4.947800406417846,15.436033373069764Q4.921270406417847,15.386333373069764,4.899730406417847,15.334333373069763Q4.878180406417847,15.282333373069763,4.861840406417847,15.228433373069763Q4.845500406417846,15.174633373069764,4.834520406417846,15.119433373069763Q4.823540406417846,15.064233373069763,4.818020406417847,15.008133373069763Q4.812500406417847,14.952133373069763,4.812500406417847,14.895833373069763ZM9.625000406417847,14.895833373069763Q9.625000406417847,14.839533373069763,9.630520406417848,14.783533373069764Q9.636040406417846,14.727533373069763,9.647020406417846,14.672333373069764Q9.658000406417846,14.617133373069763,9.674340406417846,14.563233373069764Q9.690680406417847,14.509333373069763,9.712220406417847,14.457333373069764Q9.733770406417847,14.405333373069762,9.760300406417846,14.355733373069762Q9.786840406417847,14.306033373069763,9.818110406417846,14.259233373069764Q9.849380406417847,14.212433373069763,9.885100406417846,14.168933373069763Q9.920810406417846,14.125433373069763,9.960610406417846,14.085633373069763Q10.000420406417847,14.045833373069764,10.043930406417847,14.010133373069763Q10.087440406417846,13.974433373069763,10.134250406417847,13.943133373069763Q10.181050406417846,13.911833373069763,10.230700406417848,13.885333373069763Q10.280340406417846,13.858733373069763,10.332350406417847,13.837233373069763Q10.384350406417846,13.815733373069763,10.438220406417846,13.799333373069762Q10.492090406417846,13.783033373069763,10.547300406417847,13.772033373069764Q10.602510406417847,13.761033373069763,10.658530406417846,13.755533373069763Q10.714550406417846,13.750033373069764,10.770840406417847,13.750033373069764L11.229140406417846,13.750033373069764Q11.285440406417846,13.750033373069764,11.341440406417847,13.755533373069763Q11.397540406417846,13.761033373069763,11.452740406417847,13.772033373069764Q11.507940406417847,13.783033373069763,11.561740406417847,13.799333373069762Q11.615640406417846,13.815733373069763,11.667640406417847,13.837233373069763Q11.719640406417847,13.858733373069763,11.769340406417847,13.885333373069763Q11.818940406417846,13.911833373069763,11.865740406417848,13.943133373069763Q11.912540406417847,13.974433373069763,11.956040406417847,14.010133373069763Q11.999640406417846,14.045833373069764,12.039440406417846,14.085633373069763Q12.079240406417847,14.125433373069763,12.114940406417846,14.168933373069763Q12.150640406417846,14.212433373069763,12.181940406417846,14.259233373069764Q12.213140406417846,14.306033373069763,12.239740406417846,14.355733373069762Q12.266240406417847,14.405333373069762,12.287740406417846,14.457333373069764Q12.309340406417848,14.509333373069763,12.325640406417847,14.563233373069764Q12.342040406417846,14.617133373069763,12.352940406417847,14.672333373069764Q12.363940406417846,14.727533373069763,12.369440406417846,14.783533373069764Q12.375040406417847,14.839533373069763,12.375040406417847,14.895833373069763Q12.375040406417847,14.952133373069763,12.369440406417846,15.008133373069763Q12.363940406417846,15.064233373069763,12.352940406417847,15.119433373069763Q12.342040406417846,15.174633373069764,12.325640406417847,15.228433373069763Q12.309340406417848,15.282333373069763,12.287740406417846,15.334333373069763Q12.266240406417847,15.386333373069764,12.239740406417846,15.436033373069764Q12.213140406417846,15.485633373069764,12.181940406417846,15.532433373069763Q12.150640406417846,15.579233373069764,12.114940406417846,15.622733373069764Q12.079240406417847,15.666233373069764,12.039440406417846,15.706033373069763Q11.999640406417846,15.745833373069763,11.956040406417847,15.781633373069763Q11.912540406417847,15.817333373069763,11.865740406417848,15.848533373069763Q11.818940406417846,15.879833373069763,11.769340406417847,15.906433373069763Q11.719640406417847,15.932933373069764,11.667640406417847,15.954433373069763Q11.615640406417846,15.976033373069763,11.561740406417847,15.992333373069764Q11.507940406417847,16.008733373069763,11.452740406417847,16.019633373069762Q11.397540406417846,16.03063337306976,11.341440406417847,16.036133373069763Q11.285440406417846,16.04173337306976,11.229140406417846,16.04173337306976L10.770840406417847,16.04173337306976Q10.714550406417846,16.04173337306976,10.658530406417846,16.036133373069763Q10.602510406417847,16.03063337306976,10.547300406417847,16.019633373069762Q10.492090406417846,16.008733373069763,10.438220406417846,15.992333373069764Q10.384350406417846,15.976033373069763,10.332350406417847,15.954433373069763Q10.280340406417846,15.932933373069764,10.230690406417846,15.906433373069763Q10.181050406417846,15.879833373069763,10.134250406417847,15.848533373069763Q10.087440406417846,15.817333373069763,10.043930406417847,15.781633373069763Q10.000420406417847,15.745933373069763,9.960610406417846,15.706033373069763Q9.920810406417846,15.666233373069764,9.885100406417846,15.622733373069764Q9.849380406417847,15.579233373069764,9.818110406417846,15.532433373069763Q9.786840406417847,15.485633373069764,9.760300406417846,15.436033373069764Q9.733770406417847,15.386333373069764,9.712230406417847,15.334333373069763Q9.690680406417847,15.282333373069763,9.674340406417846,15.228433373069763Q9.658000406417846,15.174633373069764,9.647020406417846,15.119433373069763Q9.636040406417846,15.064233373069763,9.630520406417848,15.008133373069763Q9.625000406417847,14.952133373069763,9.625000406417847,14.895833373069763Z" fill-rule="evenodd"></path></symbol>
<symbol xmlns="http://www.w3.org/2000/svg" viewBox="0 0 12 12" id="calendar-stopwatch"><path d="M3.8399852697753905,0.24005126953125L8.15997526977539,0.24005126953125C8.425075269775391,0.24005126953125,8.639975269775391,0.45495426953125,8.639975269775391,0.7200502695312501C8.639975269775391,0.98514626953125,8.425075269775391,1.20004826953125,8.15997526977539,1.20004826953125L6.479985269775391,1.20004826953125L6.479985269775391,1.70224126953125Q6.25727526977539,1.68143126953125,6.0302652697753905,1.68013126953125Q6.97541526977539,1.68562126953125,7.8551752697753905,2.03391126953125Q8.82570526977539,2.41814126953125,9.56379526977539,3.15622126953125Q9.57533526977539,3.16776126953125,9.586765269775391,3.17935126953125Q9.64327526977539,3.23656126953125,9.69767526977539,3.29514126953125Q10.337515269775391,3.98433126953125,10.68610526977539,4.86484126953125Q11.03999526977539,5.75869126953125,11.03999526977539,6.72003126953125Q11.03999526977539,7.68138126953125,10.68610526977539,8.57523126953125Q10.33790526977539,9.45476126953125,9.69907526977539,10.14341126953125Q9.632975269775391,10.21466126953125,9.56379526977539,10.28385126953125Q9.49045526977539,10.35715126953125,9.41481526977539,10.42705126953125Q8.72926526977539,11.06015126953125,7.8551752697753905,11.40615126953125Q6.961325269775391,11.76005126953125,5.999985269775391,11.76005126953125Q5.038635269775391,11.76005126953125,4.14478526977539,11.40615126953125Q3.2652552697753907,11.05795126953125,2.5766052697753907,10.41915126953125Q2.5053652697753908,10.35305126953125,2.436175269775391,10.28385126953125Q2.4246052697753906,10.27225126953125,2.4131952697753905,10.26075126953125Q2.3541852697753907,10.20097126953125,2.2974552697753907,10.13970126953125Q1.6611252697753907,9.45240126953125,1.3138612697753906,8.57523126953125Q0.9599952697753906,7.68138126953125,0.9599952697753906,6.72003126953125Q0.9599952697753906,5.75869126953125,1.3138612697753906,4.86484126953125Q1.6980842697753906,3.89431126953125,2.436175269775391,3.15622126953125Q3.1742652697753906,2.41813126953125,4.14478526977539,2.03391126953125Q5.014675269775391,1.68953126953125,5.94848526977539,1.68030126953125Q5.732275269775391,1.68241126953125,5.519985269775391,1.70224126953125L5.519985269775391,1.20004826953125L3.8399852697753905,1.20004826953125C3.5748952697753906,1.20004826953125,3.3599852697753905,0.98514626953125,3.3599852697753905,0.7200502695312501C3.3599852697753905,0.45495426953125,3.5748952697753906,0.24005126953125,3.8399852697753905,0.24005126953125ZM5.999985269775391,10.80005126953125C8.253295269775391,10.80005126953125,10.07997526977539,8.97335126953125,10.07997526977539,6.72003126953125C10.07997526977539,4.46672126953125,8.253295269775391,2.64004126953125,5.999985269775391,2.64004126953125C3.7466652697753906,2.64004126953125,1.9199922697753906,4.46672126953125,1.9199922697753906,6.72003126953125C1.9199922697753906,8.97335126953125,3.7466652697753906,10.80005126953125,5.999985269775391,10.80005126953125ZM7.44008526977539,6.72021126953125C7.44008526977539,6.52463126953125,7.40024526977539,6.33111126953125,7.322995269775391,6.15144126953125L8.47689526977539,4.99754126953125C8.66434526977539,4.81009126953125,8.66434526977539,4.50617126953125,8.47689526977539,4.31872126953125C8.28944526977539,4.131271269531251,7.9855252697753905,4.131271269531251,7.79807526977539,4.31872126953125L6.67082526977539,5.44596126953125C6.46401526977539,5.33710126953125,6.233805269775391,5.28021126953125,6.000085269775391,5.28021126953125C5.204805269775391,5.28021126953125,4.56009526977539,5.92492126953125,4.56009526977539,6.72021126953125C4.56009526977539,7.51550126953125,5.204805269775391,8.16020126953125,6.000085269775391,8.16020126953125C6.79537526977539,8.16020126953125,7.44008526977539,7.51550126953125,7.44008526977539,6.72021126953125Z" fill-rule="evenodd"></path></symbol>
<symbol xmlns="http://www.w3.org/2000/svg" viewBox="0 0 10 10" id="calendar-sub"><path d="M8.124982202606201,4.583319050513183C8.240042202606201,4.583319050513183,8.333322202606201,4.676593388513184,8.333322202606201,4.791652788513184L8.333322202606201,5.208319788513183C8.333322202606201,5.323378788513184,8.240042202606201,5.416652788513184,8.124982202606201,5.416652788513184C4.484592202606201,5.4160927885131835,5.757022202606201,5.416055788513184,1.8749852026062013,5.416652788513184C1.7599262026062013,5.416652788513184,1.6666522026062012,5.323378788513184,1.6666522026062012,5.208319788513183L1.6666522026062012,4.791652788513184C1.6666522026062012,4.676593388513184,1.7599262026062013,4.583319050513183,1.8749852026062013,4.583319050513183C5.517192202606202,4.582758937513184,4.241052202606201,4.582721642513183,8.124982202606201,4.583319050513183Z"></path></symbol>
<symbol xmlns="http://www.w3.org/2000/svg" viewBox="0 0 12 12" id="calendar-subscribe-calendar"><path d="M3.75,1.75L8.25,1.75L8.25,1.25C8.25,0.973858,8.47386,0.75,8.75,0.75C9.02614,0.75,9.25,0.973858,9.25,1.25L9.25,1.80279C10.39112,2.0472900000000003,11.25,3.11221,11.25,4.38889L11.25,8.61111C11.25,10.06853,10.13072,11.25,8.75001,11.25L3.25,11.25C1.86929,11.25,0.75,10.06853,0.75,8.61111L0.75,4.38889C0.75,3.11221,1.60888,2.0472900000000003,2.75,1.80279L2.75,1.25C2.75,0.973858,2.97386,0.75,3.25,0.75C3.52614,0.75,3.75,0.973858,3.75,1.25L3.75,1.75ZM1.75,8.61111Q1.75,9.26695,2.18934,9.7307Q2.62868,10.19444,3.25,10.19444L8.75001,10.19444Q9.37133,10.19444,9.81067,9.7307Q10.25001,9.26695,10.25001,8.61111L10.25001,4.38889Q10.25001,3.73305,9.81067,3.2693Q9.37133,2.80556,8.75001,2.80556L3.25,2.80556Q2.62868,2.80556,2.18934,3.2693Q1.7499989999999999,3.73305,1.75,4.38889L1.75,8.61111ZM8.5,8.034089999999999Q8.5,8.22708,8.36354,8.36354Q8.22708,8.5,8.034089999999999,8.5Q7.84111,8.5,7.70465,8.36354Q7.56819,8.22708,7.56819,8.034089999999999Q7.56819,6.74909,6.65955,5.84045Q5.75091,4.93181,4.46591,4.93181Q4.27292,4.93181,4.13646,4.79535Q4,4.6588899999999995,4,4.46591Q4,4.27292,4.13646,4.13646Q4.27292,4,4.46591,4Q5.28633,4,6.0363,4.31721Q6.76033,4.62345,7.31844,5.18156Q7.87655,5.73967,8.18279,6.4637Q8.5,7.21366,8.5,8.034089999999999ZM6.33111,8.3904Q6.16331,8.3904,6.04467,8.27175Q5.92602,8.1531,5.92602,7.98531Q5.92602,7.40067,5.51262,6.98727Q5.09921,6.57386,4.51457,6.57386Q4.34678,6.57386,4.22814,6.45522Q4.10949,6.33657,4.10949,6.16878Q4.10949,6.00099,4.22814,5.88234Q4.34678,5.76369,4.51457,5.76369Q5.4348,5.76369,6.08549,6.41439Q6.73619,7.06509,6.73619,7.98531Q6.73619,8.1531,6.61754,8.27175Q6.4989,8.3904,6.33111,8.3904ZM5.06977,7.43026Q5.23592,7.59641,5.23592,7.83138Q5.23592,8.06635,5.06977,8.232510000000001Q4.90362,8.39866,4.66864,8.39866Q4.43367,8.39866,4.26752,8.232510000000001Q4.10137,8.06635,4.10137,7.83138Q4.10137,7.59641,4.26752,7.43026Q4.43367,7.2641,4.66864,7.2641Q4.90362,7.26411,5.06977,7.43026Z" fill-rule="evenodd"></path></symbol>
<symbol xmlns="http://www.w3.org/2000/svg" viewBox="0 0 12 12" id="calendar-subscribe"><path d="M8.25,1.75L3.75,1.75L3.75,1.25C3.75,0.973858,3.52614,0.75,3.25,0.75C2.97386,0.75,2.75,0.973858,2.75,1.25L2.75,1.80279C1.60888,2.0472900000000003,0.75,3.11221,0.75,4.38889L0.75,8.61111C0.75,10.06853,1.86929,11.25,3.25,11.25L8.75001,11.25C10.13072,11.25,11.25,10.06853,11.25,8.61111L11.25,4.38889C11.25,3.11221,10.39112,2.0472900000000003,9.25,1.80279L9.25,1.25C9.25,0.973858,9.02614,0.75,8.75,0.75C8.47386,0.75,8.25,0.973858,8.25,1.25L8.25,1.75ZM1.75,8.61111Q1.75,9.26695,2.18934,9.7307Q2.62868,10.19444,3.25,10.19444L8.75001,10.19444Q9.37133,10.19444,9.81067,9.7307Q10.25001,9.26695,10.25001,8.61111L10.25001,4.38889Q10.25001,3.73305,9.81067,3.2693Q9.37133,2.80556,8.75001,2.80556L3.25,2.80556Q2.62868,2.80556,2.18934,3.2693Q1.7499989999999999,3.73305,1.75,4.38889L1.75,8.61111ZM6.84183,6.61614Q6.61167,6.84283,6.28569,6.84284Q5.95971,6.84284,5.72955,6.61614Q5.62093,6.50915,5.46742,6.52201Q5.34049,6.53265,5.24068,6.62105Q5.13443,6.71517,5.11808,6.84543Q5.09881,6.99897,5.21413,7.12187L5.21617,7.12405L5.21835,7.1262Q5.66065,7.56184,6.28569,7.56184Q6.91073,7.56184,7.35303,7.1262L7.94339,6.54473Q8.386669999999999,6.10812,8.386669999999999,5.49019Q8.386669999999999,4.87224,7.94339,4.435639999999999Q7.50109,4,6.87605,4Q6.25101,4,5.80871,4.435639999999999L5.45547,4.78356Q5.34842,4.88899,5.34842,5.03859Q5.34842,5.18818,5.45547,5.29362Q5.56154,5.39809,5.71107,5.39809Q5.8606,5.39809,5.96667,5.29362L6.31991,4.9457Q6.55007,4.718999999999999,6.87605,4.718999999999999Q7.20203,4.718999999999999,7.43219,4.9457Q7.66138,5.17144,7.66138,5.49019Q7.66138,5.80893,7.43219,6.03467L6.84183,6.61614ZM5.15495,6.38386Q5.38511,6.15717,5.71109,6.15717Q6.03707,6.15717,6.26723,6.38386Q6.37585,6.49085,6.52936,6.47799Q6.65629,6.46735,6.7561,6.37895Q6.86235,6.28484,6.8787,6.15457Q6.89797,6.00103,6.78269,5.87817L6.7806,5.87594L6.77843,5.8738Q6.33612,5.43816,5.71109,5.43816Q5.08605,5.43816,4.64375,5.8738L4.05339,6.45527Q3.61011,6.89188,3.61011,7.50981Q3.61011,8.12776,4.05339,8.56436Q4.495699999999999,9,5.12073,9Q5.74576,9,6.18807,8.56436L6.54131,8.21644Q6.64835,8.11101,6.64835,7.96141Q6.64835,7.81182,6.54131,7.70638Q6.43524,7.60191,6.28571,7.60191Q6.13618,7.60191,6.03011,7.70639L5.67687,8.0543Q5.44671,8.28099,5.12073,8.280999999999999Q4.79475,8.280999999999999,4.56459,8.0543Q4.3354,7.82857,4.3354,7.50981Q4.3354,7.19107,4.56459,6.96533L5.15495,6.38386Z" fill-rule="evenodd"></path></symbol>
<symbol xmlns="http://www.w3.org/2000/svg" viewBox="0 0 12 12" id="calendar-subtask"><path d="M1,3.5L1,8.5C1,9.88071,2.11929,11,3.5,11L8.5,11C9.88071,11,11,9.88071,11,8.5L11,3.5C11,2.11929,9.88071,1,8.5,1L3.5,1C2.11929,1,1,2.11929,1,3.5ZM2.43934,9.56066Q2,9.12132,2,8.5L2,3.5Q2,2.87868,2.43934,2.43934Q2.87868,2,3.5,2L8.5,2Q9.12132,2,9.56066,2.43934Q10,2.87868,10,3.5L10,8.5Q10,9.12132,9.56066,9.56066Q9.12132,10,8.5,10L3.5,10Q2.87868,10,2.43934,9.56066ZM3.72457,3.27002C3.47353,3.27002,3.27002,3.47353,3.27002,3.72457C3.27002,3.9756,3.47353,4.17911,3.72457,4.17911L8.270019999999999,4.17911C8.52106,4.17911,8.72457,3.9756,8.72457,3.72457C8.72457,3.47353,8.52106,3.27002,8.270019999999999,3.27002L3.72457,3.27002ZM3.72457,5.54272C3.47353,5.54272,3.27002,5.74623,3.27002,5.99727C3.27002,6.24831,3.47353,6.45182,3.72457,6.45182C3.9756,6.45182,4.17911,6.24831,4.17911,5.99727C4.17911,5.74623,3.9756,5.54272,3.72457,5.54272ZM5.08809,5.54272C4.83705,5.54272,4.63354,5.74623,4.63354,5.99727C4.63354,6.24831,4.83705,6.45182,5.08809,6.45182L8.26991,6.45182C8.52095,6.45182,8.724450000000001,6.24831,8.724450000000001,5.99727C8.724450000000001,5.74623,8.52095,5.54272,8.26991,5.54272L5.08809,5.54272ZM3.72457,7.81543C3.47353,7.81543,3.27002,8.01894,3.27002,8.26998C3.27002,8.52101,3.47353,8.72452,3.72457,8.72452C3.9756,8.72452,4.17911,8.52101,4.17911,8.26998C4.17911,8.01894,3.9756,7.81543,3.72457,7.81543ZM5.08809,7.81543C4.83705,7.81543,4.63354,8.01894,4.63354,8.26998C4.63354,8.52101,4.83705,8.72452,5.08809,8.72452L8.26991,8.72452C8.52095,8.72452,8.724450000000001,8.52101,8.724450000000001,8.26998C8.724450000000001,8.01894,8.52095,7.81543,8.26991,7.81543L5.08809,7.81543Z" fill-rule="evenodd"></path></symbol>
<symbol xmlns="http://www.w3.org/2000/svg" viewBox="0 0 12 12" id="calendar-timetable"><path d="M4.55181,10.027769995231628Q3.53566,9.913959995231629,1.73464,9.992249995231628Q1.236572,10.013909995231629,0.871545,9.673249995231629Q0.5,9.326519995231628,0.5,8.823169995231629L0.5,2.3262599952316285Q0.5,1.8614029952316284,0.8231459999999999,1.5240969952316283Q1.1456840000000001,1.1874256952316284,1.6096,1.1663441952316285Q3.54431,1.0784258952316284,4.65824,1.2031860952316284Q5.54041,1.3019899952316285,6,1.6632279952316285Q6.45959,1.3019899952316285,7.34176,1.2031860952316284Q8.45569,1.0784258952316284,10.3904,1.1663441952316285Q10.8543,1.1874256952316284,11.1769,1.5240969952316283Q11.5,1.8614029952316284,11.5,2.3262599952316285L11.5,8.823169995231629Q11.5,9.326519995231628,11.1285,9.673249995231629Q10.7634,10.013909995231629,10.26536,9.992249995231628Q8.46434,9.913959995231629,7.44819,10.027769995231628Q6.54432,10.128999995231629,6.4696,10.486249995231628C6.46621,10.504019995231628,6.46183,10.521469995231628,6.45651,10.538539995231629C6.41439,10.674329995231629,6.31538,10.780109995231628,6.19167,10.83436999523163C6.13229,10.860409995231628,6.06721,10.874589995231629,6,10.874509995231628C5.93279,10.874579995231628,5.86771,10.860409995231628,5.80833,10.83436999523163C5.68462,10.780109995231628,5.58561,10.674329995231629,5.54349,10.538539995231629C5.53817,10.521469995231628,5.53379,10.504019995231628,5.5304,10.486249995231628Q5.45568,10.128999995231629,4.55181,10.027769995231628ZM4.65824,9.07750999523163Q5.15783,9.133459995231629,5.52189,9.273589995231628L5.52189,2.5799699952316284Q5.41459,2.250079995231628,4.55181,2.1534499952316284Q3.5126,2.0370559952316283,1.65301,2.121559995231628Q1.57141,2.1252689952316284,1.51362,2.1855899952316284Q1.456202,2.2455199952316285,1.456202,2.3262599952316285L1.456202,8.823169995231629Q1.456202,8.910969995231628,1.52394,8.974179995231628Q1.59574,9.04118999523163,1.69311,9.036959995231628Q3.56831,8.955439995231629,4.65824,9.07750999523163ZM7.34176,9.07750999523163Q6.84217,9.133459995231629,6.47811,9.273589995231628L6.47811,2.5799699952316284Q6.58541,2.250079995231628,7.44819,2.1534499952316284Q8.487400000000001,2.0370559952316283,10.34699,2.121559995231628Q10.42859,2.1252689952316284,10.48638,2.1855899952316284Q10.5438,2.2455199952316285,10.5438,2.3262599952316285L10.5438,8.823169995231629Q10.5438,8.910969995231628,10.47606,8.974179995231628Q10.40426,9.04118999523163,10.30689,9.036959995231628Q8.43169,8.955439995231629,7.34176,9.07750999523163ZM2.40165,4.406269995231629C2.3921099999999997,4.406839995231628,2.38256,4.407129995231628,2.373,4.407129995231628C2.10848,4.407129995231628,1.89404,4.192689995231628,1.89404,3.9281699952316282C1.89404,3.6636499952316286,2.10848,3.4492099952316284,2.373,3.4492099952316284C2.38256,3.4492099952316284,2.3921099999999997,3.4494999952316285,2.40165,3.4500699952316283L4.57631,3.4500699952316283C4.58584,3.4494999952316285,4.5954,3.4492099952316284,4.60495,3.4492099952316284C4.86947,3.4492099952316284,5.08391,3.6636499952316286,5.08391,3.9281699952316282C5.08391,4.192689995231628,4.86947,4.407129995231628,4.60495,4.407129995231628C4.5954,4.407129995231628,4.58584,4.406839995231628,4.57631,4.406269995231629L2.40165,4.406269995231629ZM7.42362,4.406269995231629C7.41408,4.406839995231628,7.40453,4.407129995231628,7.39497,4.407129995231628C7.13045,4.407129995231628,6.91602,4.192689995231628,6.91602,3.9281699952316282C6.91602,3.6636499952316286,7.13045,3.4492099952316284,7.39497,3.4492099952316284C7.40453,3.4492099952316284,7.41408,3.4494999952316285,7.42362,3.4500699952316283L9.59828,3.4500699952316283C9.60782,3.4494999952316285,9.61737,3.4492099952316284,9.62692,3.4492099952316284C9.89145,3.4492099952316284,10.10588,3.6636499952316286,10.10588,3.9281699952316282C10.10588,4.192689995231628,9.89145,4.407129995231628,9.62692,4.407129995231628C9.61737,4.407129995231628,9.60782,4.406839995231628,9.59828,4.406269995231629L7.42362,4.406269995231629ZM2.40165,6.656029995231629C2.3921099999999997,6.656599995231629,2.38256,6.656889995231628,2.373,6.656889995231628C2.10848,6.656889995231628,1.89404,6.4424499952316285,1.89404,6.1779299952316284C1.89404,5.913409995231628,2.10848,5.698969995231629,2.373,5.698969995231629C2.38256,5.698969995231629,2.3921099999999997,5.699259995231628,2.40165,5.699829995231628L4.57631,5.699829995231628C4.58584,5.699259995231628,4.5954,5.698969995231629,4.60495,5.698969995231629C4.86947,5.698969995231629,5.08391,5.913409995231628,5.08391,6.1779299952316284C5.08391,6.4424499952316285,4.86947,6.656889995231628,4.60495,6.656889995231628C4.5954,6.656889995231628,4.58584,6.656599995231629,4.57631,6.656029995231629L2.40165,6.656029995231629ZM7.42752,6.657009995231628C7.41799,6.657579995231629,7.40843,6.657859995231629,7.39888,6.657859995231629C7.13436,6.657859995231629,6.91992,6.443429995231629,6.91992,6.178899995231628C6.91992,5.914379995231628,7.13436,5.699949995231629,7.39888,5.699949995231629C7.40843,5.699949995231629,7.41799,5.700229995231628,7.42752,5.700799995231629L9.60219,5.700799995231629C9.61172,5.700229995231628,9.62128,5.699949995231629,9.63083,5.699949995231629C9.89535,5.699949995231629,10.10979,5.914379995231628,10.10979,6.178899995231628C10.10979,6.443429995231629,9.89535,6.657859995231629,9.63083,6.657859995231629C9.62128,6.657859995231629,9.61172,6.657579995231629,9.60219,6.657009995231628L7.42752,6.657009995231628Z" fill-rule="evenodd"></path></symbol>
<symbol xmlns="http://www.w3.org/2000/svg" viewBox="0 0 12 12" id="calendar-wontdo"><path d="M1,3.5L1,8.5Q1,8.62282,1.0120382,8.74504Q1.0240764,8.867270000000001,1.0480368,8.98772Q1.0719972,9.10818,1.1076489999999999,9.22571Q1.1433010000000001,9.34324,1.190301,9.45671Q1.237301,9.57018,1.295197,9.67849Q1.353092,9.78681,1.421326,9.88892Q1.48956,9.99104,1.567474,10.08598Q1.645388,10.18092,1.732233,10.26777Q1.819078,10.35461,1.9140169999999999,10.43253Q2.00896,10.51044,2.11107,10.57867Q2.21319,10.64691,2.32151,10.7048Q2.4298200000000003,10.7627,2.54329,10.8097Q2.6567600000000002,10.8567,2.7742899999999997,10.89235Q2.89182,10.928,3.01227,10.95196Q3.13273,10.97592,3.25496,10.98796Q3.37718,11,3.5,11L8.5,11Q8.62282,11,8.74504,10.98796Q8.867270000000001,10.97592,8.98772,10.95196Q9.10818,10.928,9.22571,10.89235Q9.34324,10.8567,9.45671,10.8097Q9.57018,10.7627,9.67849,10.7048Q9.78681,10.64691,9.88892,10.57867Q9.99104,10.51044,10.08598,10.43253Q10.18092,10.35461,10.26777,10.26777Q10.35461,10.18092,10.43253,10.08598Q10.51044,9.99104,10.57867,9.88892Q10.64691,9.78681,10.7048,9.67849Q10.7627,9.57018,10.8097,9.45671Q10.8567,9.34324,10.89235,9.22571Q10.928,9.10818,10.95196,8.98772Q10.97592,8.867270000000001,10.98796,8.74504Q11,8.62282,11,8.5L11,3.5Q11,3.37718,10.98796,3.25496Q10.97592,3.13273,10.95196,3.01227Q10.928,2.89182,10.89235,2.7742899999999997Q10.8567,2.6567600000000002,10.8097,2.54329Q10.7627,2.4298200000000003,10.7048,2.32151Q10.64691,2.21319,10.57867,2.11107Q10.51044,2.00896,10.43253,1.9140169999999999Q10.35461,1.819078,10.26777,1.732233Q10.18092,1.645388,10.08598,1.567474Q9.99104,1.48956,9.88892,1.421326Q9.78681,1.353092,9.67849,1.295197Q9.57018,1.237301,9.45671,1.190301Q9.34324,1.1433010000000001,9.22571,1.1076489999999999Q9.10818,1.0719972,8.98772,1.0480368Q8.867270000000001,1.0240764,8.74504,1.0120382Q8.62282,1,8.5,1L3.5,1Q3.37718,1,3.25496,1.0120382Q3.13273,1.0240764,3.01227,1.0480368Q2.89182,1.0719972,2.7742899999999997,1.1076489999999999Q2.6567600000000002,1.1433010000000001,2.54329,1.190301Q2.4298200000000003,1.237301,2.32151,1.295197Q2.21319,1.353092,2.11107,1.421326Q2.00896,1.48956,1.9140169999999999,1.567474Q1.819078,1.645388,1.732233,1.732233Q1.645388,1.819078,1.567474,1.9140169999999999Q1.48956,2.00896,1.421326,2.11107Q1.353092,2.21319,1.295197,2.32151Q1.237301,2.4298200000000003,1.190301,2.54329Q1.1433010000000001,2.6567600000000002,1.1076489999999999,2.7742899999999997Q1.0719972,2.89182,1.0480368,3.01227Q1.0240764,3.13273,1.0120382,3.25496Q1,3.37718,1,3.5ZM8.353580000000001,7.68018L6.66991,5.99651L8.35352,4.3129100000000005C8.539480000000001,4.126939999999999,8.539480000000001,3.82544,8.35352,3.63947C8.16755,3.45351,7.86605,3.45351,7.68008,3.63947L5.99648,5.32308L4.31297,3.63957C4.12701,3.45361,3.8255,3.45361,3.63954,3.63957C3.45357,3.82554,3.45357,4.12704,3.63954,4.31301L5.32304,5.99651L3.63947,7.68008C3.45351,7.86605,3.45351,8.16755,3.63947,8.35352C3.82544,8.539480000000001,4.126939999999999,8.539480000000001,4.3129100000000005,8.35352L5.99648,6.66995L7.68015,8.35362C7.86611,8.53958,8.16762,8.53958,8.353580000000001,8.35362C8.53955,8.16765,8.53955,7.86615,8.353580000000001,7.68018Z" fill-rule="evenodd"></path></symbol>
<symbol xmlns="http://www.w3.org/2000/svg" viewBox="0 0 14 14" id="calendar-workday-dark"><circle cx="7" cy="7" r="7" fill-rule="evenodd" clip-rule="evenodd" fill="#6e1d22"></circle><path d="M3,3.5h2.7v0.8H4.8v2.1h0.8v0.8H4.8v2.1c0.3-0.1,0.7-0.3,1-0.4v0.9c-0.8,0.4-1.7,0.7-2.7,1L2.9,9.8 c0.4-0.1,0.7-0.2,1.1-0.3V7.1H3.1V6.3h0.9V4.2H3V3.5z M6,4.4h0.8v0.9c0,1.3-0.2,2.3-0.6,2.9L5.6,7.6C5.8,7.1,5.9,6.3,6,5.3V4.4z M7.2,2.9H8v4.1c0,1.9-0.7,3.3-1.9,4.2l-0.6-0.6c1.1-0.8,1.7-2,1.7-3.7V2.9z M8.2,3.4H11v0.8H9.9v2.3h0.9v0.8H9.9v2.8h1.2v0.8H7.9 v-0.8h1.3V7.3H8.3V6.5h0.9V4.2h-1V3.4z" fill="#e9ddde"></path></symbol>
<symbol xmlns="http://www.w3.org/2000/svg" viewBox="0 0 14 14" id="calendar-workday"><path d="M7,14c-3.9,0-7-3.1-7-7s3.1-7,7-7s7,3.1,7,7S10.9,14,7,14z M3,3.5v0.8h1v2.1H3.1v0.8h0.9v2.4 C3.6,9.6,3.2,9.7,2.9,9.8l0.2,0.8c1-0.3,1.9-0.6,2.7-1V8.8C5.5,9,5.1,9.1,4.8,9.2V7.1h0.8V6.3H4.8V4.2h0.9V3.5H3z M6,4.4v0.9 c0,1.1-0.1,1.9-0.4,2.4l0.6,0.5c0.4-0.6,0.6-1.6,0.6-2.9V4.4H6z M7.2,2.9v4.1c0,1.7-0.6,2.9-1.7,3.7l0.6,0.6C7.3,10.2,7.9,8.8,8,6.9 V2.9H7.2z M8.2,3.4v0.8h1v2.3H8.3v0.8h0.9v2.8H7.9v0.8h3.3v-0.8H9.9V7.3h0.9V6.5H9.9V4.2H11V3.4H8.2z" fill-rule="evenodd" clip-rule="evenodd" fill="#f57a82"></path></symbol>
</svg>