<svg xmlns="http://www.w3.org/2000/svg" xmlns:xlink="http://www.w3.org/1999/xlink" style="position: absolute; width: 0; height: 0" aria-hidden="true" id="__SVG_SPRITE_NODE__">
<symbol xmlns="http://www.w3.org/2000/svg" viewBox="0 0 24 23.997" id="check_needless"><path d="M24,11.9985Q24,12.2931,23.9855,12.5873Q23.9711,12.8815,23.9422,13.1746Q23.9133,13.4677,23.8701,13.7591Q23.8269,14.0504,23.7694,14.3393Q23.712,14.6282,23.6404,14.9139Q23.5688,15.1997,23.4833,15.4815Q23.3978,15.7634,23.2985,16.0407Q23.1993,16.3181,23.0866,16.5902Q22.9738,16.8623,22.8479,17.1286Q22.7219,17.3948,22.5831,17.6546Q22.4442,17.9144,22.2927,18.167Q22.1413,18.4197,21.9776,18.6646Q21.814,18.9095,21.6385,19.1461Q21.463,19.3826,21.2761,19.6103Q21.0892,19.838,20.8914,20.0563Q20.6936,20.2745,20.4853,20.4828Q20.277,20.6911,20.0587,20.8889Q19.8404,21.0867,19.6127,21.2735Q19.385,21.4604,19.1484,21.6359Q18.9118,21.8113,18.6668,21.975Q18.4219,22.1386,18.1692,22.29Q17.9166,22.4415,17.6568,22.5803Q17.397,22.7192,17.1307,22.8451Q16.8644,22.971,16.5922,23.0837Q16.32,23.1965,16.0427,23.2957Q15.7653,23.3949,15.4834,23.4804Q15.2015,23.5659,14.9158,23.6375Q14.63,23.7091,14.3411,23.7665Q14.0522,23.824,13.7608,23.8672Q13.4694,23.9104,13.1762,23.9393Q12.883,23.9682,12.5888,23.9826Q12.2946,23.9971,12,23.9971Q11.7054,23.9971,11.4112,23.9826Q11.117,23.9682,10.8238,23.9393Q10.5306,23.9104,10.2392,23.8672Q9.94784,23.824,9.65892,23.7665Q9.36999,23.7091,9.08424,23.6375Q8.79848,23.5659,8.51658,23.4804Q8.23468,23.3949,7.95732,23.2957Q7.67996,23.1965,7.4078,23.0837Q7.13564,22.971,6.86934,22.8451Q6.60304,22.7192,6.34324,22.5803Q6.08344,22.4415,5.83077,22.29Q5.57809,22.1386,5.33316,21.975Q5.08822,21.8113,4.85161,21.6359Q4.615,21.4604,4.38728,21.2735Q4.15956,21.0867,3.94129,20.8889Q3.72302,20.6911,3.51472,20.4828Q3.30642,20.2745,3.10859,20.0563Q2.91076,19.838,2.72387,19.6103Q2.53699,19.3826,2.36151,19.1461Q2.18603,18.9095,2.02236,18.6646Q1.8587,18.4197,1.70726,18.167Q1.55581,17.9144,1.41694,17.6546Q1.27808,17.3948,1.15213,17.1286Q1.02618,16.8623,0.913446,16.5902Q0.800713,16.318,0.701471,16.0407Q0.602229,15.7634,0.516716,15.4815Q0.431203,15.1997,0.359625,14.9139Q0.288047,14.6282,0.230577,14.3393Q0.173106,14.0504,0.129882,13.7591Q0.0866575,13.4677,0.0577833,13.1746Q0.028909,12.8815,0.0144545,12.5873Q0,12.2931,0,11.9985Q0,11.704,0.0144545,11.4098Q0.028909,11.1156,0.0577833,10.8225Q0.0866575,10.5293,0.129882,10.238Q0.173106,9.94663,0.230577,9.65774Q0.288047,9.36885,0.359625,9.08313Q0.431203,8.79741,0.516716,8.51555Q0.602229,8.23368,0.701471,7.95635Q0.800713,7.67902,0.913446,7.4069Q1.02618,7.13477,1.15213,6.8685Q1.27808,6.60223,1.41694,6.34247Q1.55581,6.0827,1.70726,5.83006Q1.8587,5.57741,2.02236,5.33251Q2.18603,5.0876,2.36151,4.85102Q2.53699,4.61443,2.72387,4.38675Q2.91076,4.15906,3.10859,3.94081Q3.30642,3.72257,3.51472,3.51429Q3.72302,3.30601,3.94129,3.10821Q4.15956,2.9104,4.38728,2.72354Q4.615,2.53668,4.85161,2.36122Q5.08822,2.18576,5.33316,2.02212Q5.57809,1.85848,5.83077,1.70705Q6.08344,1.55562,6.34324,1.41677Q6.60304,1.27792,6.86934,1.15199Q7.13564,1.02605,7.4078,0.913334Q7.67996,0.800616,7.95732,0.701386Q8.23468,0.602156,8.51658,0.516653Q8.79848,0.43115,9.08424,0.359581Q9.36999,0.288012,9.65892,0.230548Q9.94784,0.173085,10.2392,0.129866Q10.5306,0.0866469,10.8238,0.0577762Q11.117,0.0289055,11.4112,0.0144528Q11.7054,0,12,0Q12.2946,0,12.5888,0.0144528Q12.883,0.0289055,13.1762,0.0577762Q13.4694,0.0866469,13.7608,0.129866Q14.0522,0.173085,14.3411,0.230548Q14.63,0.288012,14.9158,0.359581Q15.2015,0.43115,15.4834,0.516653Q15.7653,0.602156,16.0427,0.701386Q16.32,0.800616,16.5922,0.913334Q16.8644,1.02605,17.1307,1.15199Q17.397,1.27792,17.6568,1.41677Q17.9166,1.55562,18.1692,1.70705Q18.4219,1.85848,18.6668,2.02212Q18.9118,2.18576,19.1484,2.36122Q19.385,2.53668,19.6127,2.72354Q19.8404,2.9104,20.0587,3.10821Q20.277,3.30601,20.4853,3.51429Q20.6936,3.72257,20.8914,3.94081Q21.0892,4.15906,21.2761,4.38675Q21.463,4.61443,21.6385,4.85102Q21.814,5.0876,21.9776,5.33251Q22.1413,5.57741,22.2927,5.83005Q22.4442,6.0827,22.5831,6.34246Q22.7219,6.60223,22.8479,6.8685Q22.9738,7.13477,23.0866,7.40689Q23.1993,7.67902,23.2985,7.95635Q23.3978,8.23368,23.4833,8.51555Q23.5688,8.79741,23.6404,9.08313Q23.712,9.36885,23.7694,9.65774Q23.8269,9.94663,23.8701,10.238Q23.9133,10.5293,23.9422,10.8225Q23.9711,11.1156,23.9855,11.4098Q24,11.704,24,11.9985ZM2.70965,14.4214Q2.85684,14.9832,3.074,15.5316Q3.58253,16.816,4.41652,17.8866L17.8878,4.41532Q16.8176,3.58214,15.5338,3.07397Q15.1432,2.91935,14.7459,2.80021L2.70965,14.4214ZM11.7004,2.40454Q10.0291,2.45529,8.4662,3.07397Q6.61755,3.80574,5.21167,5.21145Q3.80582,6.61713,3.074,8.46546Q2.51743,9.87115,2.42046,11.3645L11.7004,2.40454ZM19.5849,6.11232Q20.4179,7.18221,20.926,8.46546Q21.1444,9.01711,21.2921,9.58225L15.8657,15.0086L9.58476,21.2896Q9.01871,21.1418,8.4662,20.9231Q7.18354,20.4154,6.11404,19.5832L19.5849,6.11232ZM12.696,21.5724L21.5754,12.693Q21.4713,14.1544,20.926,15.5316Q20.1942,17.3799,18.7883,18.7856Q17.3825,20.1913,15.5338,20.9231Q14.1569,21.4681,12.696,21.5724Z" fill-rule="evenodd"></path></symbol>
</svg>