<svg xmlns="http://www.w3.org/2000/svg" xmlns:xlink="http://www.w3.org/1999/xlink" style="position: absolute; width: 0; height: 0" aria-hidden="true" id="__SVG_SPRITE_NODE__">
<symbol xmlns="http://www.w3.org/2000/svg" fill="none" viewBox="0 0 20 20" id="circle-vip"><defs><linearGradient x1=".41" y1=".413" x2=".826" y2=".882" id="circle-vip_a"><stop offset="0%" stop-color="#FFFFFF"></stop><stop offset="100%" stop-color="#FFF0CD"></stop></linearGradient></defs><circle cx="10" cy="10" fill="#FFB000" r="7.5"></circle><path d="M10,5.83349609375C10.460239999999999,5.83349609375,10.83333,6.20659209375,10.83333,6.66682909375C10.83333,6.88451609375,10.74986,7.08271609375,10.61318,7.23115609375L11.183769999999999,8.53274609375C11.31151,8.82403609375,11.63134,8.98004609375,11.939540000000001,8.90140609375L13.35887,8.53900609375C13.34219,8.47327609375,13.33333,8.404416093750001,13.33333,8.33349609375C13.33333,7.873256093749999,13.70643,7.50016609375,14.16667,7.50016609375C14.6269,7.50016609375,15,7.873256093749999,15,8.33349609375C15,8.79373609375,14.6269,9.16682609375,14.16667,9.16682609375C14.1079,9.16682609375,14.05056,9.16074609375,13.99523,9.14917609375L13.19188,13.001876093749999C13.15161,13.19505609375,12.98133,13.33349609375,12.78399,13.33349609375L7.21591,13.33349609375C7.01862,13.33349609375,6.84837,13.19511609375,6.80804,13.00198609375L6.00395,9.149346093750001C5.9488769999999995,9.16080609375,5.891808,9.16682609375,5.833333,9.16682609375C5.373096,9.16682609375,5,8.79373609375,5,8.33349609375C5,7.873256093749999,5.373096,7.50016609375,5.833333,7.50016609375C6.29357,7.50016609375,6.66667,7.873256093749999,6.66667,8.33349609375C6.66667,8.404416093750001,6.65781,8.47327609375,6.64113,8.53900609375L8.061209999999999,8.901506093750001C8.36943,8.98008609375,8.68923,8.82401609375,8.81691,8.53269609375L9.38758,7.23197609375C9.25045,7.08344609375,9.16667,6.88491609375,9.16667,6.66682909375C9.16667,6.20659209375,9.539760000000001,5.83349609375,10,5.83349609375Z" fill-rule="evenodd" fill="url(#circle-vip_a)"></path></symbol>
</svg>