<svg xmlns="http://www.w3.org/2000/svg" xmlns:xlink="http://www.w3.org/1999/xlink" style="position: absolute; width: 0; height: 0" aria-hidden="true" id="__SVG_SPRITE_NODE__">
<symbol xmlns="http://www.w3.org/2000/svg" viewBox="0 0 24 24" id="classroom"><path d="M14.316903356933594,23.0655Q22.405003356933594,16.2175,22.405003356933594,10.9058C22.405003356933594,4.88271,17.748803356933593,0,12.005003356933594,0C6.261243356933594,0,1.6050033569335938,4.88271,1.6050033569335938,10.9058Q1.6050033569335938,16.2175,9.693123356933594,23.0655C11.038783356933594,24.2048,12.971203356933593,24.2048,14.316903356933594,23.0655ZM12.959303356933594,21.3023Q20.244003356933593,15.1346,20.244003356933593,10.9058Q20.244003356933593,7.32716,17.830803356933593,4.79665Q15.417703356933593,2.26615,12.005003356933594,2.26615Q8.592313356933595,2.26615,6.179173356933593,4.79665Q3.7660433569335936,7.32716,3.7660433569335936,10.9058Q3.7660433569335936,15.1346,11.050693356933595,21.3023Q11.465883356933594,21.6539,12.005003356933594,21.6539Q12.544103356933594,21.6539,12.959303356933594,21.3023Z" fill-rule="evenodd"></path><path d="M16,9.5C16,11.70914,14.20914,13.5,12,13.5C9.79086,13.5,8,11.70914,8,9.5C8,7.29086,9.79086,5.5,12,5.5C14.20914,5.5,16,7.29086,16,9.5ZM14,9.5Q14,8.67157,13.41422,8.08569Q12.82843,7.49991,12,7.5Q11.17157,7.5,10.58578,8.08569Q10,8.671479999999999,10,9.5Q10,10.32843,10.58578,10.91431Q11.17157,11.50009,12,11.5Q12.82843,11.5,13.41422,10.91431Q14,10.328520000000001,14,9.5Z" fill-rule="evenodd"></path></symbol>
</svg>