<svg xmlns="http://www.w3.org/2000/svg" xmlns:xlink="http://www.w3.org/1999/xlink" style="position: absolute; width: 0; height: 0" aria-hidden="true" id="__SVG_SPRITE_NODE__">
<symbol xmlns="http://www.w3.org/2000/svg" viewBox="0 0 16 16" id="close-modal"><path d="M7.9999967461395265,8.942806746139526L12.861966746139526,13.804766746139526Q12.908366746139526,13.851166746139526,12.962966746139527,13.887666746139526Q13.017566746139526,13.924166746139527,13.078166746139527,13.949266746139527Q13.138866746139527,13.974366746139527,13.203266746139526,13.987166746139525Q13.267666746139527,13.999966746139526,13.333366746139527,13.999966746139526Q13.398966746139527,13.999966746139526,13.463366746139526,13.987166746139525Q13.527766746139527,13.974366746139527,13.588466746139526,13.949266746139527Q13.649166746139526,13.924166746139527,13.703666746139527,13.887666746139526Q13.758266746139526,13.851166746139526,13.804766746139526,13.804766746139526Q13.851166746139526,13.758266746139526,13.887666746139526,13.703666746139527Q13.924166746139527,13.649066746139527,13.949266746139527,13.588466746139526Q13.974366746139527,13.527766746139527,13.987166746139525,13.463366746139526Q13.999966746139526,13.398966746139527,13.999966746139526,13.333366746139527Q13.999966746139526,13.267666746139527,13.987166746139525,13.203266746139526Q13.974366746139527,13.138866746139527,13.949266746139527,13.078166746139527Q13.924166746139527,13.017566746139526,13.887666746139526,12.962966746139527Q13.851166746139526,12.908366746139526,13.804766746139526,12.861966746139526L8.942806746139526,7.9999967461395265L13.804766746139526,3.138071746139526Q13.851166746139526,3.0916417461395262,13.887666746139526,3.0370467461395263Q13.924166746139527,2.9824517461395263,13.949266746139527,2.9217887461395264Q13.974366746139527,2.8611257461395265,13.987166746139525,2.796726746139526Q13.999966746139526,2.7323276461395265,13.999966746139526,2.6666667461395264Q13.999966746139526,2.6010058461395262,13.987166746139525,2.5366067461395265Q13.974366746139527,2.472207746139526,13.949266746139527,2.4115447461395263Q13.924166746139527,2.3508817461395264,13.887666746139526,2.2962867461395264Q13.851166746139526,2.2416917461395265,13.804766746139526,2.1952617461395265Q13.710966746139526,2.101493746139526,13.588466746139526,2.0507467461395263Q13.465966746139527,1.9999997461395265,13.333366746139527,1.9999997461395265Q13.200766746139527,1.9999997461395265,13.078166746139527,2.0507467461395263Q12.955666746139526,2.101493746139526,12.861966746139526,2.1952617461395265L7.9999967461395265,7.057186746139527L3.138071746139526,2.1952617461395265Q3.0916417461395262,2.1488327461395262,3.0370467461395263,2.1123537461395263Q2.9824517461395263,2.0758747461395264,2.9217887461395264,2.0507467461395263Q2.8611257461395265,2.0256197461395264,2.796726746139526,2.0128097461395265Q2.7323276461395265,1.9999997461395265,2.6666667461395264,1.9999997461395265Q2.6010058461395262,1.9999997461395265,2.5366067461395265,2.0128097461395265Q2.472207746139526,2.0256197461395264,2.4115447461395263,2.0507467461395263Q2.3508817461395264,2.0758747461395264,2.2962867461395264,2.1123537461395263Q2.2416917461395265,2.1488327461395262,2.1952617461395265,2.1952617461395265Q2.1488327461395262,2.2416917461395265,2.1123537461395263,2.2962867461395264Q2.0758747461395264,2.3508817461395264,2.0507467461395263,2.4115447461395263Q2.0256197461395264,2.472207746139526,2.0128097461395265,2.5366067461395265Q1.9999997461395265,2.6010058461395262,1.9999997461395265,2.6666667461395264Q1.9999997461395265,2.7323276461395265,2.0128097461395265,2.796726746139526Q2.0256197461395264,2.8611257461395265,2.0507467461395263,2.9217887461395264Q2.0758747461395264,2.9824517461395263,2.1123537461395263,3.0370467461395263Q2.1488327461395262,3.0916417461395262,2.1952617461395265,3.138071746139526L7.057186746139527,7.9999967461395265L2.1952617461395265,12.861966746139526Q2.101493746139526,12.955666746139526,2.0507467461395263,13.078166746139527Q1.9999997461395265,13.200766746139527,1.9999997461395265,13.333366746139527Q1.9999997461395265,13.465966746139527,2.0507467461395263,13.588466746139526Q2.101493746139526,13.710966746139526,2.1952617461395265,13.804766746139526Q2.2416917461395265,13.851166746139526,2.2962867461395264,13.887666746139526Q2.3508817461395264,13.924166746139527,2.4115447461395263,13.949266746139527Q2.472207746139526,13.974366746139527,2.5366067461395265,13.987166746139525Q2.6010058461395262,13.999966746139526,2.6666667461395264,13.999966746139526Q2.7323276461395265,13.999966746139526,2.796726746139526,13.987166746139525Q2.8611257461395265,13.974366746139527,2.9217887461395264,13.949266746139527Q2.9824517461395263,13.924166746139527,3.0370467461395263,13.887666746139526Q3.0916417461395262,13.851166746139526,3.138071746139526,13.804766746139526L7.9999967461395265,8.942806746139526Z" fill-rule="evenodd"></path></symbol>
<symbol xmlns="http://www.w3.org/2000/svg" viewBox="-7 5 16 16" id="close"><path fill="none" d="M-7 5H9V21H-7z"></path><path d="M6.5 8.5L5.5 7.5 1 11.9 -3.5 7.5 -4.5 8.5 -0.1 13 -4.5 17.5 -3.5 18.5 1 14.1 5.5 18.5 6.5 17.5 2.1 13z"></path></symbol>
</svg>