<svg xmlns="http://www.w3.org/2000/svg" xmlns:xlink="http://www.w3.org/1999/xlink" style="position: absolute; width: 0; height: 0" aria-hidden="true" id="__SVG_SPRITE_NODE__">
<symbol xmlns="http://www.w3.org/2000/svg" viewBox="0 0 24 24" id="closed-list"><path d="M1,17.5C1,19.7091,2.79086,21.5,5,21.5L13.1266,21.5C12.6935,20.897,12.3761,20.2188,12.1905,19.5L5,19.5Q4.17157,19.5,3.58578,18.9142Q3,18.328400000000002,3,17.5L3,11.5L21,11.5L21,12.8038C21.8029,13.2674,22.4875,13.9108,23,14.6834L23,8.5C23,6.29086,21.2091,4.5,19,4.5L10.2604,4.5C9.77057,4.5,9.29777,4.32024,8.93167,3.99482L8.10249,3.257772C7.55334,2.769636,6.84414,2.5,6.1094,2.5L4,2.5C2.34315,2.5,1,3.84315,1,5.5L1,17.5ZM3,9.5L21,9.5L21,8.5Q21,7.67157,20.4142,7.08582Q19.8284,6.50003,19,6.5L10.2604,6.5Q8.7396,6.5,7.60294,5.48964L6.77377,4.75259Q6.4896,4.5,6.1094,4.5L4,4.5Q3.58579,4.5,3.29289,4.79289Q3,5.085789999999999,3,5.5L3,9.5ZM21.5355,14.4645C22.4404,15.3693,23,16.619300000000003,23,18C23,20.7614,20.7614,23,18,23C16.619300000000003,23,15.3693,22.4404,14.4645,21.5355C13.5596,20.6307,13,19.3807,13,18C13,15.2386,15.2386,13,18,13C19.3807,13,20.6307,13.5596,21.5355,14.4645ZM14.8,18Q14.8,18.8506,15.1859,19.5413L19.5413,15.1859Q18.8506,14.8,18,14.8Q16.674500000000002,14.8,15.7373,15.7373Q14.8,16.674500000000002,14.8,18ZM21.2,18Q21.2,17.1494,20.8141,16.4587L16.4587,20.8141Q17.1494,21.2,18,21.2Q19.3255,21.2,20.2627,20.2627Q21.2,19.3255,21.2,18Z" fill-rule="evenodd"></path></symbol>
</svg>