<svg xmlns="http://www.w3.org/2000/svg" xmlns:xlink="http://www.w3.org/1999/xlink" style="position: absolute; width: 0; height: 0" aria-hidden="true" id="__SVG_SPRITE_NODE__">
<symbol xmlns="http://www.w3.org/2000/svg" viewBox="0 0 24 24" id="combine-task"><path d="M36.4596388671875,35.97987155273437L38.5818388671875,35.97987155273437Q39.7748388671875,35.97987155273437,40.618338867187504,35.136331552734376Q41.461838867187495,34.292801552734375,41.461838867187495,33.099861552734374L41.461838867187495,29.380041552734376Q41.461838867187495,28.187111552734375,40.618338867187504,27.343583552734376Q39.7748388671875,26.500052452134376,38.5818388671875,26.500052452134376L25.3398488671875,26.500052452134376Q24.1469088671875,26.500052452134376,23.3033778671875,27.343584552734374Q22.4598456621175,28.187121552734375,22.4598454833075,29.380051552734376L22.4598456025075,33.099861552734374Q22.4598455429075,34.292801552734375,23.3033778671875,35.136331552734376Q24.1469088671875,35.97987155273437,25.3398488671875,35.97987155273437L27.4596388671875,35.97987155273437Q27.5541888671875,35.97987155273437,27.6469288671875,35.96142155273438Q27.7396588671875,35.94297155273438,27.8270188671875,35.906791552734376Q27.9143688671875,35.870611552734374,27.9929888671875,35.81808155273438Q28.0716088671875,35.76555155273437,28.1384588671875,35.698691552734374Q28.2053188671875,35.631831552734376,28.257848867187498,35.553211552734375Q28.3103788671875,35.474591552734374,28.3465688671875,35.38724155273437Q28.3827488671875,35.29989155273437,28.4011988671875,35.20715155273437Q28.4196388671875,35.11442155273438,28.4196388671875,35.01987155273437Q28.4196388671875,34.92531155273437,28.4011888671875,34.832581552734375Q28.3827488671875,34.739841552734376,28.3465588671875,34.652491552734375Q28.3103788671875,34.56513155273437,28.257848867187498,34.486521552734374Q28.2053188671875,34.40790155273437,28.1384588671875,34.341041552734374Q28.0716088671875,34.274181552734376,27.9929888671875,34.22165155273437Q27.9143688671875,34.169121552734374,27.8270188671875,34.13294155273437Q27.7396588671875,34.09676155273438,27.6469288671875,34.07831155273438Q27.5541888671875,34.05987155273438,27.4596388671875,34.05987155273438L25.3398488671875,34.05987155273438Q24.9421988671875,34.05987155273438,24.6610188671875,33.77869155273437Q24.3798488671875,33.49751155273437,24.3798488671875,33.099861552734374L24.3798488671875,29.380051552734376Q24.3798488671875,28.982411552734376,24.6610188671875,28.701231552734374Q24.9421988671875,28.420051552734375,25.3398488671875,28.420051552734375L38.5818388671875,28.420051552734375Q38.9795388671875,28.420051552734375,39.260638867187495,28.701231552734374Q39.5418388671875,28.982411552734376,39.5418388671875,29.380051552734376L39.5418388671875,33.099861552734374Q39.5418388671875,33.49751155273437,39.2607388671875,33.77869155273437Q38.9795388671875,34.05987155273438,38.5818388671875,34.05987155273438L36.4596388671875,34.05987155273438Q36.3650388671875,34.05987155273438,36.2723388671875,34.07831155273438Q36.1796388671875,34.09676155273438,36.092238867187504,34.13294155273437Q36.0049388671875,34.169121552734374,35.926338867187496,34.22165155273437Q35.8476388671875,34.274181552734376,35.7808388671875,34.341041552734374Q35.7139388671875,34.40790155273437,35.6614388671875,34.486521552734374Q35.608938867187504,34.56513155273437,35.572738867187496,34.652491552734375Q35.5365388671875,34.739841552734376,35.5180388671875,34.832581552734375Q35.4996388671875,34.92531155273437,35.4996388671875,35.01987155273437Q35.4996388671875,35.11442155273438,35.5180388671875,35.20715155273437Q35.5365388671875,35.29989155273437,35.572738867187496,35.38724155273437Q35.608938867187504,35.474591552734374,35.6614388671875,35.553211552734375Q35.7139388671875,35.631831552734376,35.7808388671875,35.698691552734374Q35.8476388671875,35.76555155273437,35.926338867187496,35.81808155273438Q36.0049388671875,35.870611552734374,36.092238867187504,35.906791552734376Q36.1796388671875,35.94297155273438,36.2723388671875,35.96142155273438Q36.3650388671875,35.97987155273437,36.4596388671875,35.97987155273437ZM31.2894688671875,35.96411155273437L28.7436388671875,33.40058155273437C28.7430988671875,33.40004155273437,28.7353888671875,33.39232155273437,28.7348488671875,33.391771552734376C28.5621588671875,33.21361155273438,28.4655588671875,32.974661552734375,28.4655588671875,32.725891552734375C28.4655588671875,32.472851552734376,28.5656688671875,32.23020155273437,28.7436388671875,32.05127155273438C28.9216088671875,31.872341552734376,29.1628488671875,31.771791552734374,29.4145388671875,31.771791552734374C29.6662288671875,31.771791552734374,29.9075988671875,31.872351552734376,30.0859188671875,32.05163155273438L31.0118088671875,32.98636155273437L31.011698867187498,30.459811552734376C31.011698867187498,29.932871552734376,31.4367988671875,29.505711552734375,31.9609188671875,29.505711552734375C32.4850388671875,29.505711552734375,32.9099388671875,29.932871552734376,32.9099388671875,30.459811552734376L32.9098388671875,32.98636155273437L33.8359388671875,32.05127155273438C34.0139388671875,31.872341552734376,34.255338867187504,31.771791552734374,34.507038867187504,31.771791552734374C34.7587388671875,31.771791552734374,35.0002388671875,31.872341552734376,35.1782388671875,32.05127155273438C35.3561388671875,32.23020155273437,35.4560388671875,32.472851552734376,35.4560388671875,32.725891552734375C35.4560388671875,32.978941552734376,35.3561388671875,33.22165155273437,35.1782388671875,33.40058155273437L32.6318388671875,35.964411552734376C32.4538788671875,36.14334155273438,32.2124988671875,36.24386155273437,31.960808867187502,36.24386155273437C31.7091188671875,36.24386155273437,31.4677388671875,36.14334155273438,31.2894688671875,35.96411155273437ZM31.2894088671875,37.90949155273437L28.7436388671875,40.47319155273438C28.7430988671875,40.473791552734376,28.7353888671875,40.481491552734376,28.7348488671875,40.48199155273437C28.5621588671875,40.660191552734375,28.4655588671875,40.89899155273437,28.4655588671875,41.147791552734375C28.4655588671875,41.400791552734376,28.5656688671875,41.64339155273437,28.7436388671875,41.82239155273437C28.9216088671875,42.00129155273437,29.1628488671875,42.10189155273437,29.4145388671875,42.10189155273437C29.6662288671875,42.10189155273437,29.9075988671875,42.001391552734376,30.0859188671875,41.82209155273438L31.0118288671875,40.887291552734375L31.011698867187498,43.45979155273437C31.011698867187498,43.986791552734374,31.4367988671875,44.41389155273437,31.9609188671875,44.41389155273437C32.4850388671875,44.41389155273437,32.9099388671875,43.986791552734374,32.9099388671875,43.45979155273437L32.9097388671875,40.887291552734375L33.8359388671875,41.82239155273437C34.0139388671875,42.00129155273437,34.255338867187504,42.10189155273437,34.507038867187504,42.10189155273437C34.7587388671875,42.10189155273437,35.0002388671875,42.00129155273437,35.1782388671875,41.82239155273437C35.3561388671875,41.64339155273437,35.4560388671875,41.400791552734376,35.4560388671875,41.147791552734375C35.4560388671875,40.894791552734375,35.3561388671875,40.65219155273438,35.1782388671875,40.47319155273438L32.6318388671875,37.90929155273437C32.4538488671875,37.730391552734375,32.2124888671875,37.629991552734374,31.9607988671875,37.629991552734374C31.7091088671875,37.629991552734374,31.4676788671875,37.73029155273437,31.2894088671875,37.90949155273437ZM36.4596388671875,37.95979155273437L38.5818388671875,37.95979155273437Q39.7748388671875,37.95979155273437,40.618338867187504,38.80329155273438Q41.461838867187495,39.64679155273437,41.461838867187495,40.839791552734376L41.461838867187495,44.559591552734375Q41.461838867187495,45.75249155273438,40.618338867187504,46.59609155273438Q39.7748388671875,47.43959155273437,38.5818388671875,47.43959155273437L25.3398488671875,47.43959155273437Q24.1469088671875,47.43959155273437,23.3033778671875,46.59609155273438Q22.4598456621175,45.75249155273438,22.4598454833075,44.559591552734375L22.4598456025075,40.839791552734376Q22.4598455429075,39.64679155273437,23.3033778671875,38.80329155273438Q24.1469088671875,37.95979155273437,25.3398488671875,37.95979155273437L27.4596388671875,37.95979155273437Q27.5541888671875,37.95979155273437,27.6469288671875,37.97819155273437Q27.7396588671875,37.996691552734376,27.8270188671875,38.03289155273438Q27.9143688671875,38.068991552734374,27.9929888671875,38.12159155273437Q28.0716088671875,38.174091552734374,28.1384588671875,38.24099155273437Q28.2053188671875,38.30779155273437,28.257848867187498,38.38639155273437Q28.3103788671875,38.464991552734375,28.3465688671875,38.55239155273438Q28.3827488671875,38.63979155273437,28.4011988671875,38.73249155273437Q28.4196388671875,38.825191552734374,28.4196388671875,38.919791552734374Q28.4196388671875,39.01429155273438,28.4011888671875,39.107091552734374Q28.3827488671875,39.199791552734375,28.3465588671875,39.28719155273438Q28.3103788671875,39.374491552734376,28.257848867187498,39.45309155273438Q28.2053188671875,39.53169155273437,28.1384588671875,39.598591552734376Q28.0716088671875,39.66549155273437,27.9929888671875,39.717991552734375Q27.9143688671875,39.77049155273438,27.8270188671875,39.80669155273438Q27.7396588671875,39.84289155273437,27.6469288671875,39.86129155273437Q27.5541888671875,39.879791552734375,27.4596388671875,39.879791552734375L25.3398488671875,39.879791552734375Q24.9421988671875,39.879791552734375,24.6610188671875,40.16099155273437Q24.3798488671875,40.442091552734375,24.3798488671875,40.839791552734376L24.3798488671875,44.559591552734375Q24.3798488671875,44.95719155273437,24.6610188671875,45.23839155273437Q24.9421988671875,45.519591552734376,25.3398488671875,45.519591552734376L38.5818388671875,45.519591552734376Q38.9795388671875,45.519591552734376,39.260638867187495,45.23839155273437Q39.5418388671875,44.95719155273437,39.5418388671875,44.559591552734375L39.5418388671875,40.839791552734376Q39.5418388671875,40.442091552734375,39.2607388671875,40.16099155273437Q38.9795388671875,39.879791552734375,38.5818388671875,39.879791552734375L36.4596388671875,39.879791552734375Q36.3650388671875,39.879791552734375,36.2723388671875,39.86129155273437Q36.1796388671875,39.84289155273437,36.092238867187504,39.80669155273438Q36.0049388671875,39.77049155273438,35.926338867187496,39.717991552734375Q35.8476388671875,39.66549155273437,35.7808388671875,39.598591552734376Q35.7139388671875,39.53169155273437,35.6614388671875,39.45309155273438Q35.608938867187504,39.374491552734376,35.572738867187496,39.28719155273438Q35.5365388671875,39.199791552734375,35.5180388671875,39.107091552734374Q35.4996388671875,39.01429155273438,35.4996388671875,38.919791552734374Q35.4996388671875,38.825191552734374,35.5180388671875,38.73249155273437Q35.5365388671875,38.63979155273437,35.572738867187496,38.55239155273438Q35.608938867187504,38.464991552734375,35.6614388671875,38.38639155273437Q35.7139388671875,38.30779155273437,35.7808388671875,38.24099155273437Q35.8476388671875,38.174091552734374,35.926338867187496,38.12159155273437Q36.0049388671875,38.068991552734374,36.092238867187504,38.03289155273438Q36.1796388671875,37.996691552734376,36.2723388671875,37.97819155273437Q36.3650388671875,37.95979155273437,36.4596388671875,37.95979155273437Z" fill-rule="evenodd" transform="translate(-19.96 -24.96)"></path></symbol>
</svg>