<svg xmlns="http://www.w3.org/2000/svg" xmlns:xlink="http://www.w3.org/1999/xlink" style="position: absolute; width: 0; height: 0" aria-hidden="true" id="__SVG_SPRITE_NODE__">
<symbol xmlns="http://www.w3.org/2000/svg" viewBox="0 0 48 48" id="completed-list"><g fill-rule="evenodd"><path fill="none" d="M0 0H48V48H0z"></path><path d="M36.5714286,8 C38.4649763,8 40,9.53502371 40,11.4285714 L40,36.5714286 C40,38.4649763 38.4649763,40 36.5714286,40 L11.4285714,40 C9.53502371,40 8,38.4649763 8,36.5714286 L8,11.4285714 C8,9.53502371 9.53502371,8 11.4285714,8 L36.5714286,8 Z M32.6315723,16.140472 C32.2355431,15.8070864 31.6668911,15.810833 31.2769743,16.124395 L31.13982,16.25645 L22.4228382,26.2780183 L17.035152,21.6517258 C16.6416818,21.3138613 16.0718135,21.3127326 15.6788801,21.6238877 L15.540514,21.7551613 L14.1194024,23.3654375 L14.1194024,23.3654375 C13.7764202,23.7611271 13.7762914,24.3373697 14.0931407,24.7315368 L14.226767,24.8701064 L22.0707818,31.6692636 L22.0707818,31.6692636 L22.2271664,31.7815195 C22.608425,32.0061503 23.092646,31.9705347 23.4369352,31.6925381 L23.5752123,31.5586091 L34.3957144,19.0198647 L34.3957144,19.0198647 C34.7329479,18.6192645 34.724757,18.0430801 34.4022498,17.6535287 L34.2666368,17.5169028 L32.6315723,16.140472 Z"></path></g></symbol>
<symbol xmlns="http://www.w3.org/2000/svg" viewBox="0 0 24 24" id="completed"><path d="M1,4.5L1,19.5C1,21.433,2.567,23,4.5,23L19.5,23C21.433,23,23,21.433,23,19.5L23,4.5C23,2.567,21.433,1,19.5,1L4.5,1C2.567,1,1,2.567,1,4.5ZM18.2683,8.99713C18.4558,8.8096,18.5613,8.55526,18.5613,8.290040000000001C18.5613,7.73775,18.1134,7.28998,17.5612,7.28998C17.2959,7.28998,17.0417,7.39552,16.8538,7.58344L10.14685,14.29L7.14697,11.29C6.95944,11.1025,6.70516,10.99707,6.43994,10.99707C5.88766,10.99707,5.43994,11.4448,5.43994,11.9971C5.43994,12.2623,5.54513,12.5167,5.73267,12.7042L9.43974,16.4113C9.62728,16.5989,9.88163,16.7042,10.14685,16.7042C10.41207,16.7042,10.66642,16.5989,10.85396,16.4113L18.2683,8.99713Z" fill-rule="evenodd"></path></symbol>
</svg>