<svg xmlns="http://www.w3.org/2000/svg" xmlns:xlink="http://www.w3.org/1999/xlink" style="position: absolute; width: 0; height: 0" aria-hidden="true" id="__SVG_SPRITE_NODE__">
<symbol xmlns="http://www.w3.org/2000/svg" viewBox="0 0 20 20" id="contextmenu-custom"><path d="M0.833324134349823,5.0062966269302365L0.833326159699823,14.993666626930237C0.833326157799823,16.834666626930236,2.292384134349823,18.333366626930236,4.133324134349823,18.333366626930236Q9.999994134349823,18.333366626930236,15.866624134349824,18.333366626930236C17.707624134349825,18.333366626930236,19.166624134349824,16.834666626930236,19.166624134349824,14.993666626930237C19.166624134349824,11.772966626930236,19.166624134349824,8.227036626930236,19.166624134349824,5.0062966269302365C19.166624134349824,3.165346626930237,17.647624134349822,1.6666666269302368,15.806724134349823,1.6666666269302368L4.162604134349823,1.6666666269302368C2.321654134349823,1.6666666269302368,0.833324134349823,3.165346626930237,0.833324134349823,5.0062966269302365ZM2.4999741343498227,7.262866626930236C2.499964134349823,9.836146626930237,2.499954134349823,12.613166626930237,2.4999741343498227,15.008766626930237C2.4999841343498233,15.929166626930236,3.238924134349823,16.666666626930237,4.159374134349823,16.666666626930237L6.710454134349823,16.666666626930237C9.753844134349823,16.666666626930237,12.797224134349824,16.666666626930237,15.840624134349824,16.666666626930237C16.76112413434982,16.666666626930237,17.50002413434982,15.929266626930238,17.50002413434982,15.008766626930237C17.499924134349822,12.619966626930237,17.50002413434982,9.851756626930237,17.50002413434982,7.2845666269302365L17.50002413434982,6.833336626930237L2.4999741343498227,6.833336626930237L2.4999741343498227,7.262866626930236ZM2.4999841343498233,5.166666626930237L17.50002413434982,5.166666626930237L17.50002413434982,4.991256626930237C17.50002413434982,4.070776626930237,16.76112413434982,3.3333366269302367,15.840624134349824,3.3333366269302367L12.506924134349823,3.3333366269302367C9.724404134349824,3.3333466269302368,6.941884134349823,3.333356626930237,4.159364134349823,3.3333466269302368C3.238884134349823,3.3333366269302367,2.499994134349823,4.070776626930237,2.4999841343498233,4.991256626930237L2.4999841343498233,5.166666626930237ZM4.999974134349823,8.333166626930236Q4.917894134349823,8.333166626930236,4.837394134349823,8.349186626930237Q4.756894134349823,8.365196626930237,4.681064134349823,8.396606626930236Q4.605234134349823,8.428016626930237,4.536994134349823,8.473616626930237Q4.4687541343498225,8.519206626930238,4.410714134349822,8.577246626930236Q4.352674134349823,8.635286626930236,4.307074134349823,8.703526626930238Q4.261484134349823,8.771766626930237,4.230074134349823,8.847596626930237Q4.198664134349823,8.923426626930237,4.1826441343498235,9.003926626930237Q4.166634134349823,9.084426626930238,4.166634134349823,9.166506626930236Q4.166634134349823,9.248576626930237,4.1826441343498235,9.329076626930238Q4.198664134349823,9.409576626930237,4.230074134349823,9.485406626930237Q4.261484134349823,9.561236626930237,4.307074134349823,9.629476626930238Q4.352674134349823,9.697716626930237,4.410714134349822,9.755756626930237Q4.4687541343498225,9.813796626930237,4.536994134349823,9.859396626930236Q4.605234134349823,9.904996626930236,4.681064134349823,9.936406626930237Q4.756894134349823,9.967806626930237,4.837394134349823,9.983826626930236Q4.917894134349823,9.999836626930238,4.999974134349823,9.999836626930238L5.833304134349823,9.999836626930238Q5.915384134349823,9.999836626930238,5.995874134349823,9.983826626930236Q6.076374134349823,9.967806626930237,6.152204134349823,9.936406626930237Q6.228034134349823,9.904996626930236,6.296274134349823,9.859396626930236Q6.364524134349823,9.813796626930237,6.422554134349823,9.755756626930237Q6.480594134349823,9.697726626930237,6.526194134349823,9.629476626930238Q6.571794134349823,9.561236626930237,6.603204134349823,9.485406626930237Q6.634614134349823,9.409576626930237,6.650624134349823,9.329076626930238Q6.666634134349823,9.248576626930237,6.666634134349823,9.166506626930236Q6.666634134349823,9.084426626930238,6.650624134349823,9.003926626930237Q6.634614134349823,8.923426626930237,6.603204134349823,8.847596626930237Q6.571794134349823,8.771766626930237,6.526194134349823,8.703526626930238Q6.480594134349823,8.635286626930236,6.422554134349823,8.577246626930236Q6.364524134349823,8.519206626930238,6.296274134349823,8.473606626930238Q6.228034134349823,8.428016626930237,6.152204134349823,8.396606626930236Q6.076374134349823,8.365196626930237,5.995874134349823,8.349186626930237Q5.915384134349823,8.333166626930236,5.833304134349823,8.333166626930236L4.999974134349823,8.333166626930236ZM9.166654134349823,8.333166626930236Q9.084584134349823,8.333166626930236,9.004084134349823,8.349186626930237Q8.923584134349824,8.365196626930237,8.847754134349824,8.396606626930236Q8.771924134349824,8.428016626930237,8.703684134349823,8.473616626930237Q8.635434134349822,8.519206626930238,8.577404134349823,8.577246626930236Q8.519364134349823,8.635286626930236,8.473764134349823,8.703526626930238Q8.428164134349823,8.771766626930237,8.396754134349823,8.847596626930237Q8.365344134349822,8.923426626930237,8.349334134349823,9.003926626930237Q8.333324134349823,9.084426626930238,8.333324134349823,9.166506626930236Q8.333324134349823,9.248576626930237,8.349334134349823,9.329076626930238Q8.365344134349822,9.409576626930237,8.396754134349823,9.485406626930237Q8.428164134349823,9.561236626930237,8.473764134349823,9.629476626930238Q8.519364134349823,9.697716626930237,8.577404134349823,9.755756626930237Q8.635434134349822,9.813796626930237,8.703684134349823,9.859396626930236Q8.771924134349824,9.904996626930236,8.847754134349824,9.936406626930237Q8.923584134349824,9.967806626930237,9.004084134349823,9.983826626930236Q9.084584134349823,9.999836626930238,9.166654134349823,9.999836626930238L9.999994134349823,9.999836626930238Q10.082064134349823,9.999836626930238,10.162564134349823,9.983826626930236Q10.243064134349822,9.967806626930237,10.318894134349822,9.936406626930237Q10.394724134349824,9.904996626930236,10.462964134349823,9.859396626930236Q10.531204134349823,9.813796626930237,10.589244134349823,9.755756626930237Q10.647284134349823,9.697726626930237,10.692884134349823,9.629476626930238Q10.738484134349823,9.561236626930237,10.769884134349823,9.485406626930237Q10.801294134349822,9.409576626930237,10.817314134349823,9.329076626930238Q10.833324134349823,9.248576626930237,10.833324134349823,9.166506626930236Q10.833324134349823,9.084426626930238,10.817314134349823,9.003926626930237Q10.801294134349822,8.923426626930237,10.769884134349823,8.847596626930237Q10.738484134349823,8.771766626930237,10.692884134349823,8.703526626930238Q10.647284134349823,8.635286626930236,10.589244134349823,8.577246626930236Q10.531204134349823,8.519206626930238,10.462964134349823,8.473606626930238Q10.394724134349824,8.428016626930237,10.318894134349822,8.396606626930236Q10.243064134349822,8.365196626930237,10.162564134349823,8.349186626930237Q10.082064134349823,8.333166626930236,9.999994134349823,8.333166626930236L9.166654134349823,8.333166626930236ZM12.500024134349824,9.166506626930236Q12.500024134349824,9.084426626930238,12.516024134349824,9.003926626930237Q12.532024134349824,8.923426626930237,12.563424134349823,8.847596626930237Q12.594824134349823,8.771766626930237,12.640424134349823,8.703526626930238Q12.686024134349823,8.635286626930236,12.744124134349823,8.577246626930236Q12.802124134349823,8.519206626930238,12.870324134349824,8.473606626930238Q12.938624134349823,8.428016626930237,13.014424134349824,8.396606626930236Q13.090224134349823,8.365196626930237,13.170724134349824,8.349186626930237Q13.251224134349822,8.333166626930236,13.333324134349823,8.333166626930236L14.166724134349822,8.333166626930236Q14.248724134349823,8.333166626930236,14.329224134349824,8.349186626930237Q14.409724134349823,8.365196626930237,14.485624134349823,8.396606626930236Q14.561424134349823,8.428016626930237,14.629624134349823,8.473616626930237Q14.697924134349822,8.519206626930238,14.755924134349822,8.577246626930236Q14.813924134349824,8.635286626930236,14.859524134349822,8.703526626930238Q14.905124134349823,8.771766626930237,14.936624134349824,8.847596626930237Q14.968024134349823,8.923426626930237,14.984024134349823,9.003926626930237Q15.000024134349824,9.084426626930238,15.000024134349824,9.166506626930236Q15.000024134349824,9.248576626930237,14.984024134349823,9.329076626930238Q14.968024134349823,9.409576626930237,14.936624134349824,9.485406626930237Q14.905124134349823,9.561236626930237,14.859524134349822,9.629476626930238Q14.813924134349824,9.697716626930237,14.755924134349822,9.755756626930237Q14.697924134349822,9.813796626930237,14.629624134349823,9.859396626930236Q14.561424134349823,9.904996626930236,14.485624134349823,9.936406626930237Q14.409724134349823,9.967806626930237,14.329224134349824,9.983826626930236Q14.248724134349823,9.999836626930238,14.166724134349822,9.999836626930238L13.333324134349823,9.999836626930238Q13.251224134349822,9.999836626930238,13.170724134349824,9.983826626930236Q13.090224134349823,9.967806626930237,13.014424134349824,9.936406626930237Q12.938624134349823,9.904996626930236,12.870324134349824,9.859396626930236Q12.802124134349823,9.813796626930237,12.744124134349823,9.755756626930237Q12.686024134349823,9.697726626930237,12.640424134349823,9.629476626930238Q12.594824134349823,9.561236626930237,12.563424134349823,9.485406626930237Q12.532024134349824,9.409576626930237,12.516024134349824,9.329076626930238Q12.500024134349824,9.248576626930237,12.500024134349824,9.166506626930236ZM4.999974134349823,11.666666626930237Q4.917894134349823,11.666666626930237,4.837394134349823,11.682666626930237Q4.756894134349823,11.698666626930237,4.681064134349823,11.730066626930236Q4.605234134349823,11.761466626930236,4.536994134349823,11.807066626930236Q4.4687541343498225,11.852666626930237,4.410714134349822,11.910766626930236Q4.352674134349823,11.968766626930236,4.307074134349823,12.037066626930237Q4.261484134349823,12.105266626930236,4.230074134349823,12.181066626930237Q4.198664134349823,12.256966626930236,4.1826441343498235,12.337466626930237Q4.166634134349823,12.417966626930237,4.166634134349823,12.499966626930236Q4.166634134349823,12.582066626930237,4.1826441343498235,12.662566626930237Q4.198664134349823,12.743066626930236,4.230074134349823,12.818866626930237Q4.261484134349823,12.894766626930236,4.307074134349823,12.962966626930237Q4.352674134349823,13.031266626930236,4.410714134349822,13.089266626930236Q4.4687541343498225,13.147266626930238,4.536994134349823,13.192866626930236Q4.605234134349823,13.238466626930236,4.681064134349823,13.269866626930236Q4.756894134349823,13.301266626930238,4.837394134349823,13.317366626930237Q4.917894134349823,13.333366626930237,4.999974134349823,13.333366626930237L5.833304134349823,13.333366626930237Q5.915384134349823,13.333366626930237,5.995874134349823,13.317366626930237Q6.076374134349823,13.301266626930238,6.152204134349823,13.269866626930236Q6.228034134349823,13.238466626930236,6.296274134349823,13.192866626930236Q6.364524134349823,13.147266626930238,6.422554134349823,13.089266626930236Q6.480594134349823,13.031266626930236,6.526194134349823,12.962966626930237Q6.571794134349823,12.894766626930236,6.603204134349823,12.818866626930237Q6.634614134349823,12.743066626930236,6.650624134349823,12.662566626930237Q6.666634134349823,12.582066626930237,6.666634134349823,12.499966626930236Q6.666634134349823,12.417966626930237,6.650624134349823,12.337466626930237Q6.634614134349823,12.256966626930236,6.603204134349823,12.181066626930237Q6.571794134349823,12.105266626930236,6.526194134349823,12.037066626930237Q6.480594134349823,11.968766626930236,6.422554134349823,11.910766626930236Q6.364524134349823,11.852666626930237,6.296274134349823,11.807066626930236Q6.228034134349823,11.761466626930236,6.152204134349823,11.730066626930236Q6.076374134349823,11.698666626930237,5.995874134349823,11.682666626930237Q5.915384134349823,11.666666626930237,5.833304134349823,11.666666626930237L4.999974134349823,11.666666626930237ZM8.333324134349823,12.499966626930236Q8.333324134349823,12.417966626930237,8.349334134349823,12.337466626930237Q8.365344134349822,12.256966626930236,8.396754134349823,12.181066626930237Q8.428164134349823,12.105266626930236,8.473764134349823,12.037066626930237Q8.519364134349823,11.968766626930236,8.577404134349823,11.910766626930236Q8.635434134349822,11.852666626930237,8.703684134349823,11.807066626930236Q8.771924134349824,11.761466626930236,8.847754134349824,11.730066626930236Q8.923584134349824,11.698666626930237,9.004084134349823,11.682666626930237Q9.084584134349823,11.666666626930237,9.166654134349823,11.666666626930237L9.999994134349823,11.666666626930237Q10.082064134349823,11.666666626930237,10.162564134349823,11.682666626930237Q10.243064134349822,11.698666626930237,10.318894134349822,11.730066626930236Q10.394724134349824,11.761466626930236,10.462964134349823,11.807066626930236Q10.531204134349823,11.852666626930237,10.589244134349823,11.910766626930236Q10.647284134349823,11.968766626930236,10.692884134349823,12.037066626930237Q10.738484134349823,12.105266626930236,10.769884134349823,12.181066626930237Q10.801294134349822,12.256966626930236,10.817314134349823,12.337466626930237Q10.833324134349823,12.417966626930237,10.833324134349823,12.499966626930236Q10.833324134349823,12.582066626930237,10.817314134349823,12.662566626930237Q10.801294134349822,12.743066626930236,10.769884134349823,12.818866626930237Q10.738484134349823,12.894766626930236,10.692884134349823,12.962966626930237Q10.647284134349823,13.031266626930236,10.589244134349823,13.089266626930236Q10.531204134349823,13.147266626930238,10.462964134349823,13.192866626930236Q10.394724134349824,13.238466626930236,10.318894134349822,13.269866626930236Q10.243064134349822,13.301266626930238,10.162564134349823,13.317366626930237Q10.082064134349823,13.333366626930237,9.999994134349823,13.333366626930237L9.166654134349823,13.333366626930237Q9.084584134349823,13.333366626930237,9.004084134349823,13.317366626930237Q8.923584134349824,13.301266626930238,8.847754134349824,13.269866626930236Q8.771924134349824,13.238466626930236,8.703684134349823,13.192866626930236Q8.635434134349822,13.147266626930238,8.577404134349823,13.089266626930236Q8.519364134349823,13.031266626930236,8.473764134349823,12.962966626930237Q8.428164134349823,12.894766626930236,8.396754134349823,12.818866626930237Q8.365344134349822,12.743066626930236,8.349334134349823,12.662566626930237Q8.333324134349823,12.582066626930237,8.333324134349823,12.499966626930236Z" fill-rule="evenodd"></path></symbol>
</svg>