<svg xmlns="http://www.w3.org/2000/svg" xmlns:xlink="http://www.w3.org/1999/xlink" style="position: absolute; width: 0; height: 0" aria-hidden="true" id="__SVG_SPRITE_NODE__">
<symbol xmlns="http://www.w3.org/2000/svg" viewBox="0 0 24 24" id="convert_note"><path d="M2,18.0908C2,20.1995,3.79086,21.9091,6,21.9091L12.5455,21.9091C13.0726,21.9091,13.5,21.4817,13.5,20.9545C13.5,20.4274,13.0726,20,12.5455,20L6,20Q5.1716,20,4.58582,19.4408Q4,18.8816,4,18.0908L4,5.818239999999999Q4.000030000000001,5.02742,4.58582,4.46826Q5.17157,3.90906,6,3.90906L18,3.90906Q18.8284,3.9091,19.4142,4.46826Q20,5.02747,20,5.818239999999999L20,13.5C20,14.0523,20.4477,14.5,21,14.5C21.5523,14.5,22,14.0523,22,13.5L22,5.818239999999999C22,3.70951,20.2091,2,18,2L6,2C3.79086,2,2,3.70951,2,5.818239999999999L2,18.0908ZM8,9.5C7.44772,9.5,7,9.05228,7,8.5C7,7.94772,7.44772,7.5,8,7.5L16,7.5C16.552300000000002,7.5,17,7.94772,17,8.5C17,9.05228,16.552300000000002,9.5,16,9.5L8,9.5ZM8,14.5C7.44772,14.5,7,14.0523,7,13.5C7,12.9477,7.44772,12.5,8,12.5L12,12.5C12.5523,12.5,13,12.9477,13,13.5C13,14.0523,12.5523,14.5,12,14.5L8,14.5ZM18,23C20.2091,23,22,21.2091,22,19C22,16.7909,20.2091,15,18,15C15.7909,15,14,16.7909,14,19C14,21.2091,15.7909,23,18,23ZM16,18.5C15.7239,18.5,15.5,18.2761,15.5,18C15.5,17.7239,15.7239,17.5,16,17.5L18.499,17.5L18.5,16.5L20.5,18.5L16,18.5ZM17.5,21.5L15.5,19.5L20,19.5C20.2761,19.5,20.5,19.7239,20.5,20C20.5,20.2761,20.2761,20.5,20,20.5L17.500999999999998,20.5L17.5,21.5Z" fill-rule="evenodd"></path></symbol>
</svg>