<svg xmlns="http://www.w3.org/2000/svg" xmlns:xlink="http://www.w3.org/1999/xlink" style="position: absolute; width: 0; height: 0" aria-hidden="true" id="__SVG_SPRITE_NODE__">
<symbol xmlns="http://www.w3.org/2000/svg" viewBox="0 0 16 16" id="copy-task-link"><path d="M12.55356259765625,6.89107546875L10.79207259765625,8.62599546875Q9.99072259765625,9.41527546875,8.85721259765625,9.41528546875Q7.72372259765625,9.41528546875,6.92236259765625,8.62599546875Q6.72678259765625,8.43336546875,6.44853259765625,8.45667546875Q6.19971259765625,8.477525468749999,5.99952259765625,8.65484546875Q5.79330259765625,8.837505468749999,5.76295259765625,9.07932546875Q5.72842259765625,9.35442546875,5.94624259765625,9.58657546875L5.94714259765625,9.58752546875L5.94807259765625,9.58845546875Q7.15316259765625,10.77538546875,8.85721259765625,10.77539546875Q10.56127259765625,10.77538546875,11.76636259765625,9.58845546875L13.52786259765625,7.85353546875Q14.73336259765625,6.66616546875,14.73336259765625,4.98678546875Q14.73336259765625,3.30739546875,13.52786259765625,2.12004546875Q12.32276259765625,0.93310546875,10.61867259765625,0.93310546875Q8.91463259765625,0.93310546875,7.70953259765625,2.12004546875L6.65557259765625,3.15812546875Q6.45328259765625,3.35736546875,6.45328259765625,3.63934546875Q6.45328259765625,3.92133546875,6.65557259765625,4.120575468749999Q6.85744259765625,4.31940546875,7.14272259765625,4.31940546875Q7.42799259765625,4.31940546875,7.62986259765625,4.120575468749999L8.68381259765625,3.08249546875Q9.48517259765625,2.2932154687499997,10.61867259765625,2.2932154687499997Q11.75216259765625,2.2932154687499997,12.55356259765625,3.08249546875Q13.35446259765625,3.87136546875,13.35446259765625,4.98678546875Q13.35446259765625,6.10219546875,12.55356259765625,6.89107546875ZM3.44646259765625,9.10846546875L5.20792259765625,7.37354546875Q6.00927259765625,6.58426546875,7.14277259765625,6.58426546875Q8.27628259765625,6.58426546875,9.077632597656251,7.37354546875Q9.27321259765625,7.56618546875,9.55146259765625,7.54286546875Q9.80028259765625,7.52202546875,10.00047259765625,7.34469546875Q10.20669259765625,7.16203546875,10.23704259765625,6.92021546875Q10.27156259765625,6.64511546875,10.05375259765625,6.41297546875L10.05285259765625,6.41201546875L10.05191259765625,6.41109546875Q8.84682259765625,5.22415546875,7.14277259765625,5.22415546875Q5.43871259765625,5.22415546875,4.23363259765625,6.41109546875L2.4721725976562503,8.14601546875Q1.26666259765625,9.33338546875,1.26666259765625,11.01280546875Q1.26666259765625,12.69220546875,2.47218259765625,13.87950546875Q3.67728259765625,15.06640546875,5.38132259765625,15.06640546875Q7.08535259765625,15.06640546875,8.29046259765625,13.87950546875L9.34441259765625,12.84140546875Q9.54670259765625,12.64220546875,9.54670259765625,12.36020546875Q9.54670259765625,12.07820546875,9.34441259765625,11.87900546875Q9.14255259765625,11.68010546875,8.85727259765625,11.68010546875Q8.57199259765625,11.68010546875,8.37012259765625,11.87900546875L7.31617259765625,12.91700546875Q6.51480259765625,13.70630546875,5.38132259765625,13.70630546875Q4.2478325976562505,13.70630546875,3.44646259765625,12.91700546875Q2.64553259765625,12.12820546875,2.64553259765625,11.01280546875Q2.64553259765625,9.89734546875,3.44646259765625,9.10846546875Z" fill-rule="evenodd"></path></symbol>
<symbol xmlns="http://www.w3.org/2000/svg" viewBox="0 0 16 16" id="copy"><path d="M8.000023389415741,0.6664886474609375L6.678673389415741,0.6664886474609375C5.574113389415741,0.6664886474609375,4.666703389415741,1.5681786474609374,4.666693389415741,2.6727386474609376L4.666693389415741,3.3324886474609374L6.000023389415741,3.3324886474609374L6.000023389415741,2.6664886474609375C6.000023389415741,2.2982986474609373,6.298503389415741,1.9998186474609374,6.666693389415741,1.9998186474609374L8.000023389415741,1.9998186474609374L8.000023389415741,0.6664886474609375ZM10.666533389415742,0.6664886474609375L10.666533389415742,1.9998186474609374L9.33319338941574,1.9998186474609374L9.33319338941574,0.6664886474609375L10.666533389415742,0.6664886474609375ZM13.99999338941574,3.9998386474609373L15.333293389415742,3.9998386474609373Q15.33229338941574,3.4674586474609375,15.33219338941574,2.6781586474609376C15.33219338941574,1.5728516474609375,14.427893389415742,0.6664945241209375,13.322593389415742,0.6664987659609375L11.99999338941574,0.6665017952609374L11.99999338941574,1.9998386474609375L13.333293389415742,1.9998386474609375C13.701493389415742,1.9998386474609375,13.99999338941574,2.2983086474609378,13.99999338941574,2.6664986474609376L13.99999338941574,3.9998386474609373ZM11.99999338941574,11.333288647460938L13.321393389415741,11.333288647460938C14.42599338941574,11.333288647460938,15.333393389415741,10.427218647460938,15.333393389415741,9.322648647460937L15.333393389415741,7.999988647460937L13.99999338941574,7.999988647460937L13.99999338941574,9.333318647460937C13.99999338941574,9.701508647460937,13.701593389415741,9.999988647460938,13.333393389415741,9.999988647460938L11.99999338941574,9.999988647460938L11.99999338941574,6.016208647460937C11.99999338941574,4.911638647460937,11.104593389415742,3.9999886474609374,10.00003338941574,3.9999886474609374L2.666693389415741,3.9999886474609374C1.562128389415741,3.9999886474609374,0.666698137265741,4.895418647460938,0.6666979281357409,5.999988647460937L0.6666965396957409,13.333288647460938C0.666696330565741,14.437888647460937,1.586064389415741,15.333288647460938,2.690633389415741,15.333288647460938L10.00417338941574,15.333288647460938C11.108693389415741,15.333288647460938,11.99999338941574,14.433088647460938,11.99999338941574,13.328488647460938L11.99999338941574,11.333288647460938ZM2.666613389415741,5.333478647460938L9.99994338941574,5.333478647460938C10.36813338941574,5.333478647460938,10.66661338941574,5.631958647460937,10.66661338941574,6.000148647460938L10.66661338941574,13.333488647460937C10.66661338941574,13.701688647460937,10.36813338941574,14.000188647460938,9.99994338941574,14.000188647460938L2.666613389415741,14.000188647460938C2.298423389415741,14.000188647460938,1.999943389415741,13.701688647460937,1.999943389415741,13.333488647460937L1.999943389415741,6.000148647460938C1.999943389415741,5.631958647460937,2.298423389415741,5.333478647460938,2.666613389415741,5.333478647460938ZM15.333293389415742,6.666818647460937L13.99999338941574,6.666818647460937L13.99999338941574,5.333478647460938L15.333293389415742,5.333478647460938L15.333293389415742,6.666818647460937Z" fill-rule="evenodd"></path></symbol>
</svg>