<svg xmlns="http://www.w3.org/2000/svg" xmlns:xlink="http://www.w3.org/1999/xlink" style="position: absolute; width: 0; height: 0" aria-hidden="true" id="__SVG_SPRITE_NODE__">
<symbol xmlns="http://www.w3.org/2000/svg" fill="none" viewBox="0 0 8 8" id="crown"><defs><linearGradient x1=".41" y1=".413" x2=".826" y2=".882" id="crown_a"><stop offset="0%" stop-color="#FFFFFF"></stop><stop offset="100%" stop-color="#FFF0CD"></stop></linearGradient></defs><path d="M3.996690013113022,1.25C4.334190013113022,1.25,4.607770013113022,1.5238209999999999,4.607770013113022,1.8613279999999999C4.607770013113022,2.020968,4.546570013113022,2.166047,4.4463300131130215,2.2748999999999997L4.864790013113022,3.22949C4.958470013113022,3.4431,5.192980013113022,3.55767,5.418990013113022,3.5L6.4598200131130215,3.2338899999999997C6.447590013113022,3.18568,6.441080013113022,3.13551,6.441080013113022,3.0835C6.441080013113022,2.74599,6.714720013113022,2.47217,7.052230013113022,2.47217C7.3897400131130215,2.47217,7.663310013113022,2.74599,7.663310013113022,3.0835C7.663310013113022,3.421,7.3897400131130215,3.69434,7.052230013113022,3.69434C7.009130013113022,3.69434,6.967070013113021,3.69013,6.926500013113022,3.68164L6.337390013113022,6.50684C6.307850013113022,6.64851,6.182970013113022,6.75,6.0382500131130215,6.75L1.9550000131130219,6.75C1.810320013113022,6.75,1.6855000131130218,6.64847,1.655930013113022,6.50684L1.066206013113022,3.68164C1.025818013113022,3.69004,0.9839660131130219,3.69434,0.9410840131130218,3.69434C0.6035770131130218,3.69434,0.33000001311302185,3.421,0.33000001311302185,3.0835C0.33000001311302185,2.74599,0.6035770131130218,2.47217,0.9410840131130218,2.47217C1.2785910131130218,2.47217,1.5522300131130218,2.74599,1.5522300131130218,3.0835C1.5522300131130218,3.13551,1.5457200131130218,3.18568,1.5334900131130218,3.2338899999999997L2.574870013113022,3.5C2.8009000131130217,3.55763,3.0354300131130216,3.44313,3.129070013113022,3.22949L3.547530013113022,2.27539C3.4469700131130216,2.16647,3.385540013113022,2.021262,3.385540013113022,1.8613279999999999C3.385540013113022,1.5238209999999999,3.659180013113022,1.25,3.996690013113022,1.25Z" fill-rule="evenodd" fill="url(#crown_a)"></path></symbol>
</svg>