<svg xmlns="http://www.w3.org/2000/svg" xmlns:xlink="http://www.w3.org/1999/xlink" style="position: absolute; width: 0; height: 0" aria-hidden="true" id="__SVG_SPRITE_NODE__">
<symbol xmlns="http://www.w3.org/2000/svg" viewBox="0 0 18 18" id="csl"><rect width="18" height="18" rx="0" fill="none"></rect><path d="M14.1721244140625,0.75C14.6454244140625,0.75,15.0665244140625,0.887153,15.4354244140625,1.16146C15.7750244140625,1.4138730000000002,16.0189244140625,1.7426249999999999,16.1670244140625,2.14771C16.3149244140625,2.55228,16.341024414062503,2.96077,16.245124414062502,3.37318C16.1410244140625,3.82087,15.9093244140625,4.19827,15.5498244140625,4.5054L15.5234244140625,4.5269200000000005L11.4019044140625,7.73689L11.4019044140625,15.808C11.4019044140625,16.3429,11.1751544140625,16.7512,10.7216544140625,17.0329C10.2662544140625,17.3158,9.7991044140625,17.3369,9.3202044140625,17.0963C9.2832244140625,17.0776,9.2478944140625,17.056,9.214524414062499,17.0317C9.1164744140625,16.96,8.9350744140625,16.841,8.6703044140625,16.674599999999998C8.0570044140625,16.289,7.6157344140625,15.9679,7.3465044140625,15.7112C6.7934144140625,15.1839,6.5168744140625,14.613,6.5168744140625,13.9987L6.5168744140625,7.73546L2.4260644140625,4.5252300000000005L2.4018544140625,4.5054C2.0424214140625,4.19827,1.8106634140625,3.82087,1.7065806140625,3.37318C1.6107021140625,2.96077,1.6367290140625,2.55228,1.7846614140625001,2.14771C1.9327854140625,1.74262,2.1766284140625,1.413868,2.5161924140625,1.161459C2.8852144140625002,0.887153,3.3063244140625,0.75,3.7795144140625,0.75L14.1721244140625,0.75ZM14.1721244140625,2.25L3.7795144140625,2.25C3.4894344140625,2.25,3.2940744140625,2.38761,3.1934344140624997,2.66284C3.0935744140625,2.93593,3.1511744140625,3.16708,3.3662044140625,3.35627L7.6814344140625,6.74263C7.6896444140625,6.74906,7.6977144140625,6.75568,7.7056444140625,6.76245C7.9131244140625,6.93974,8.0168744140625,7.1649,8.0168744140625,7.43793L8.0168744140625,13.9987C8.0168744140625,14.1848,8.138454414062501,14.3938,8.381604414062501,14.6256C8.578074414062499,14.813,8.9404144140625,15.0726,9.4686244140625,15.4046C9.6423244140625,15.5138,9.7867544140625,15.6068,9.9019044140625,15.6837L9.9019044140625,7.43793C9.9019044140625,7.16491,10.0056544140625,6.93975,10.2131444140625,6.76245C10.2217744140625,6.75508,10.2305544140625,6.7479,10.2394744140625,6.74092L14.5864244140625,3.3555C14.8007244140625,3.16645,14.8579244140625,2.93556,14.7582244140625,2.66284C14.6576244140625,2.38761,14.4623244140625,2.25,14.1721244140625,2.25Z" fill-rule="evenodd"></path></symbol>
</svg>