<svg xmlns="http://www.w3.org/2000/svg" xmlns:xlink="http://www.w3.org/1999/xlink" style="position: absolute; width: 0; height: 0" aria-hidden="true" id="__SVG_SPRITE_NODE__">
<symbol xmlns="http://www.w3.org/2000/svg" xmlns:xlink="http://www.w3.org/1999/xlink" viewBox="0 0 202 120" id="cycleDone"><defs><linearGradient x1="22.742%" y1="6.391%" x2="79.273%" y2="90.09%" id="cycleDone_c"><stop stop-color="#EE9C1E" offset="0%"></stop><stop stop-color="#FFB30A" offset="100%"></stop></linearGradient><linearGradient x1="22.004%" y1="11.743%" x2="76.647%" y2="87.804%" id="cycleDone_d"><stop stop-color="#FFFFFF" stop-opacity=".848" offset="0%"></stop><stop stop-color="#FFFEFD" stop-opacity=".497" offset="100%"></stop></linearGradient><linearGradient x1="22.787%" y1="9.305%" x2="81.384%" y2="88.685%" id="cycleDone_f"><stop stop-color="#FFFFFF" stop-opacity=".404" offset="0%"></stop><stop stop-color="#FFFFFF" stop-opacity="0" offset="100%"></stop></linearGradient><linearGradient x1="23.951%" y1="42.392%" x2="99.134%" y2="42.392%" id="cycleDone_h"><stop stop-color="#FFFFFF" stop-opacity="0" offset="0%"></stop><stop stop-color="#FFFFFF" stop-opacity=".4" offset="100%"></stop></linearGradient><circle id="cycleDone_e" cx="65.016" cy="65.016" r="65.016"></circle><rect id="cycleDone_a" x="0" y="0" width="202" height="120" rx="12"></rect></defs><g fill="none" fill-rule="evenodd"><mask id="cycleDone_b" fill="#fff"><use xlink:href="#cycleDone_a"></use></mask><use fill="#FFFFFF" xlink:href="#cycleDone_a"></use><g mask="url(#cycleDone_b)"><g transform="translate(4 -27)"><path d="M34 0H252.4V218.4H34z"></path><path d="M74.4246212,50.2109143 L68.793038,53.1768296 C68.30438,53.434185 67.6996167,53.2466772 67.4422613,52.7580192 C67.2886527,52.4663523 67.2886527,52.1177197 67.4422613,51.8260529 L70.4081766,46.1944697 L70.4081766,46.1944697 L67.4422613,40.5628865 C67.1849059,40.0742285 67.3724137,39.4694651 67.8610717,39.2121098 C68.1527386,39.0585012 68.5013711,39.0585012 68.793038,39.2121098 L74.4246212,42.1780251 L74.4246212,42.1780251 L80.0562044,39.2121098 C80.5448624,38.9547544 81.1496257,39.1422622 81.4069811,39.6309202 C81.5605897,39.9225871 81.5605897,40.2712196 81.4069811,40.5628865 L78.4410658,46.1944697 L78.4410658,46.1944697 L81.4069811,51.8260529 C81.6643365,52.3147109 81.4768287,52.9194742 80.9881707,53.1768296 C80.6965038,53.3304381 80.3478713,53.3304381 80.0562044,53.1768296 L74.4246212,50.2109143 L74.4246212,50.2109143 Z" fill="#FFD066" transform="rotate(-45 74.425 46.194)"></path><path d="M23.4246212,121.549729 L16.39146,125.253796 C15.658473,125.639829 14.751328,125.358567 14.3652949,124.62558 C14.1348821,124.18808 14.1348821,123.665131 14.3652949,123.227631 L18.0693617,116.19447 L18.0693617,116.19447 L14.3652949,109.161308 C13.9792618,108.428321 14.2605235,107.521176 14.9935105,107.135143 C15.4310109,106.904731 15.9539597,106.904731 16.39146,107.135143 L23.4246212,110.83921 L23.4246212,110.83921 L30.4577824,107.135143 C31.1907694,106.74911 32.0979144,107.030372 32.4839475,107.763359 C32.7143603,108.200859 32.7143603,108.723808 32.4839475,109.161308 L28.7798807,116.19447 L28.7798807,116.19447 L32.4839475,123.227631 C32.8699806,123.960618 32.5887189,124.867763 31.8557319,125.253796 C31.4182315,125.484209 30.8952827,125.484209 30.4577824,125.253796 L23.4246212,121.549729 L23.4246212,121.549729 Z" fill="#FFD066" transform="rotate(-45 23.425 116.194)"></path><circle fill="#FFB000" opacity=".6" cx="143.133" cy="109.133" r="67.133"></circle><circle fill="url(#cycleDone_c)" cx="143.133" cy="109.133" r="59.875"></circle><circle fill="#FFD066" cx="143.133" cy="109.133" r="54.432"></circle><path d="M143.1328,129.503161 L124.631431,140.243642 C122.898189,141.24983 120.677443,140.660436 119.671255,138.927195 C119.218052,138.146514 119.07209,137.224945 119.261868,136.342427 L123.759435,115.427588 L123.759435,115.427588 L107.827393,101.150731 C106.334851,99.8132497 106.209149,97.5190617 107.546631,96.0265192 C108.149054,95.3542538 108.980414,94.9306549 109.878384,94.8384317 L131.159402,92.6528318 L131.159402,92.6528318 L139.814228,73.088768 C140.625027,71.2559711 142.768086,70.4274787 144.600883,71.2382784 C145.426404,71.6034757 146.086175,72.2632466 146.451372,73.088768 L155.106198,92.6528318 L155.106198,92.6528318 L176.387216,94.8384317 C178.380861,95.0431827 179.831045,96.8253342 179.626294,98.8189785 C179.534071,99.7169482 179.110472,100.548308 178.438207,101.150731 L162.506165,115.427588 L162.506165,115.427588 L167.003732,136.342427 C167.425072,138.301766 166.178277,140.231689 164.218937,140.653029 C163.336419,140.842808 162.414849,140.696846 161.634169,140.243642 L143.1328,129.503161 L143.1328,129.503161 Z" fill="url(#cycleDone_d)"></path><g transform="translate(78.117 44.117)"><mask id="cycleDone_g" fill="#fff"><use xlink:href="#cycleDone_e"></use></mask><use fill="url(#cycleDone_f)" xlink:href="#cycleDone_e"></use><path fill="#FFB715" mask="url(#cycleDone_g)" transform="rotate(60 75.546 102.755)" d="M40.77 2.963H110.322V202.547H40.77z"></path></g></g></g><rect fill="url(#cycleDone_h)" mask="url(#cycleDone_b)" width="202" height="120" rx="12"></rect></g></symbol>
</svg>