<svg xmlns="http://www.w3.org/2000/svg" xmlns:xlink="http://www.w3.org/1999/xlink" style="position: absolute; width: 0; height: 0" aria-hidden="true" id="__SVG_SPRITE_NODE__">
<symbol xmlns="http://www.w3.org/2000/svg" viewBox="0 0 200 200" id="dark-empty-default-1"><style>#dark-empty-default-1 .st3,#dark-empty-default-1 .st4,#dark-empty-default-1 .st9{fill-rule:evenodd;clip-rule:evenodd}#dark-empty-default-1 .st4,#dark-empty-default-1 .st9{fill:#818181}#dark-empty-default-1 .st9{fill:#fff}</style><filter filterUnits="objectBoundingBox" height="109.8%" id="dark-empty-default-1_filter-6" width="157.1%" x="-14.3%" y="-4.9%"><feOffset dx="2" in="SourceAlpha" result="shadowOffsetOuter1"></feOffset><feGaussianBlur in="shadowOffsetOuter1" result="shadowBlurOuter1" stdDeviation="1"></feGaussianBlur><feColorMatrix in="shadowBlurOuter1" values="0 0 0 0 0 0 0 0 0 0 0 0 0 0 0 0 0 0 0.1 0"></feColorMatrix></filter><filter filterUnits="objectBoundingBox" height="127.6%" id="dark-empty-default-1_filter-4" width="119%" x="-9.5%" y="-6.9%"><feOffset dy="2" in="SourceAlpha" result="shadowOffsetOuter1"></feOffset><feGaussianBlur in="shadowOffsetOuter1" result="shadowBlurOuter1" stdDeviation="1"></feGaussianBlur><feColorMatrix in="shadowBlurOuter1" values="0 0 0 0 0 0 0 0 0 0 0 0 0 0 0 0 0 0 0.101420969 0"></feColorMatrix></filter><filter filterUnits="objectBoundingBox" height="115.9%" id="dark-empty-default-1_filter-2" width="120%" x="-10%" y="-5.7%"><feOffset dy="2" in="SourceAlpha" result="shadowOffsetOuter1"></feOffset><feGaussianBlur in="shadowOffsetOuter1" result="shadowBlurOuter1" stdDeviation="2"></feGaussianBlur><feColorMatrix in="shadowBlurOuter1" values="0 0 0 0 0 0 0 0 0 0 0 0 0 0 0 0 0 0 0.0579427083 0"></feColorMatrix></filter><circle id="dark-empty-default-1_Oval-5" cx="99.5" cy="100.5" r="72.5" fill-rule="evenodd" clip-rule="evenodd" fill="#fff" fill-opacity="0"></circle><g id="dark-empty-default-1_Group-2" transform="translate(39 61)"><path id="dark-empty-default-1_Rectangle-3" d="M3.8,16h78.3c1.3,0,1.8,0.1,2.3,0.4c0.5,0.3,0.9,0.6,1.1,1.1c0.3,0.5,0.4,1,0.4,2.3v96.3 c0,1.3-0.1,1.8-0.4,2.3c-0.3,0.5-0.6,0.9-1.1,1.1c-0.5,0.3-1,0.4-2.3,0.4H3.8c-1.3,0-1.8-0.1-2.3-0.4c-0.5-0.3-0.9-0.6-1.1-1.1 c-0.3-0.5-0.4-1-0.4-2.3V19.8c0-1.3,0.1-1.8,0.4-2.3C0.7,17,1,16.7,1.5,16.4C2,16.1,2.5,16,3.8,16z" fill-rule="evenodd" clip-rule="evenodd" fill="#4a4a4a"></path><g id="dark-empty-default-1_Rectangle-3-Copy"><g filter="url(#dark-empty-default-1_filter-2)"><path id="dark-empty-default-1_path-1_1_" class="st3" d="M8 24L78 24 78 112 8 112z"></path></g><path class="st4" d="M8 24L78 24 78 112 8 112z"></path></g><path id="dark-empty-default-1_Combined-Shape" d="M45,63h7c1.1,0,2,0.9,2,2s-0.9,2-2,2h-7v7c0,1.1-0.9,2-2,2s-2-0.9-2-2v-7h-7 c-1.1,0-2-0.9-2-2s0.9-2,2-2h7v-7c0-1.1,0.9-2,2-2s2,0.9,2,2V63z" fill-rule="evenodd" clip-rule="evenodd" fill="#676767"></path><path id="dark-empty-default-1_Rectangle-3-Copy-2" fill-rule="evenodd" clip-rule="evenodd" fill-opacity=".2" d="M78 92L78 112 54 112"></path><path id="dark-empty-default-1_Rectangle-5" d="M58,92c3.3,2,6.7,3,10,3s6.7-1,10-3l-24,20L58,92z" fill-rule="evenodd" clip-rule="evenodd" fill="#767676"></path><g filter="url(#dark-empty-default-1_filter-4)"><path id="dark-empty-default-1_path-3_1_" class="st3" d="M34,16V9c0-5,4-9,9-9s9,4,9,9v7l12,3v10H22V19L34,16z M43,14c2.2,0,4-1.8,4-4s-1.8-4-4-4 s-4,1.8-4,4S40.8,14,43,14z"></path></g><path class="st9" d="M34,16V9c0-5,4-9,9-9s9,4,9,9v7l12,3v10H22V19L34,16z M43,14c2.2,0,4-1.8,4-4s-1.8-4-4-4s-4,1.8-4,4 S40.8,14,43,14z"></path></g><g id="dark-empty-default-1_Group" transform="rotate(90 70.5 117.5)"><g id="dark-empty-default-1_Oval-3"><g id="dark-empty-default-1_Mask"><g filter="url(#dark-empty-default-1_filter-6)"><path id="dark-empty-default-1_path-5_1_" class="st3" d="M0 18L7 0 14 18 14 82 0 82z"></path></g><path class="st4" d="M0 18L7 0 14 18 14 82 0 82z"></path></g><path id="dark-empty-default-1_形状结合" d="M4.1,7.6L7,0l2.9,7.6C9,7.8,8,8,7,8S5,7.8,4.1,7.6z" fill-rule="evenodd" clip-rule="evenodd" fill="#494949"></path></g><path id="dark-empty-default-1_Rectangle-7-Copy" class="st9" d="M0,18c2.3,0.7,4.7,1,7,1s4.7-0.3,7-1v64c-2.3,0.7-4.7,1-7,1s-4.7-0.3-7-1V18z"></path></g></symbol>
<symbol xmlns="http://www.w3.org/2000/svg" viewBox="0 0 200 200" id="dark-empty-default-2"><path d="M73,77v-7c0-5,4-9,9-9s9,4,9,9v7l12,3v10H61V80L73,77z M82,75c2.2,0,4-1.8,4-4s-1.8-4-4-4 s-4,1.8-4,4S79.8,75,82,75z M170,47c-0.7,2.3-1,4.7-1,7s0.3,4.7,1,7h-64c-0.7-2.3-1-4.7-1-7s0.3-4.7,1-7H170z" fill-rule="evenodd" clip-rule="evenodd" fill="#ababab"></path></symbol>
<symbol xmlns="http://www.w3.org/2000/svg" viewBox="0 0 200 200" id="dark-empty-search-1"><style>#dark-empty-search-1 .st1{fill-rule:evenodd;clip-rule:evenodd}#dark-empty-search-1 .st1,#dark-empty-search-1 .st2{fill:#4a4a4a}#dark-empty-search-1 .st3,#dark-empty-search-1 .st4,#dark-empty-search-1 .st6{fill-rule:evenodd;clip-rule:evenodd;fill:#525252}#dark-empty-search-1 .st4,#dark-empty-search-1 .st6{fill:#434343}#dark-empty-search-1 .st6{fill:#676767}</style><g transform="translate(10 27)"><circle id="dark-empty-search-1_Mask" cx="90" cy="73" r="73" fill-rule="evenodd" clip-rule="evenodd" fill="#fff" fill-opacity="0"></circle><g id="dark-empty-search-1_Group-4" transform="translate(34 13)"><circle id="dark-empty-search-1_Oval-3-Copy" class="st1" cx="55.5" cy="23.5" r="3.5"></circle><path id="dark-empty-search-1_Oval-3-Copy-4" class="st2" d="M36.5,9C39,9,41,7,41,4.5S39,0,36.5,0S32,2,32,4.5S34,9,36.5,9z M36.5,7 C35.1,7,34,5.9,34,4.5S35.1,2,36.5,2S39,3.1,39,4.5S37.9,7,36.5,7z"></path><circle id="dark-empty-search-1_Oval-3-Copy-2" class="st1" cx="32.5" cy="78.5" r="2.5"></circle><circle id="dark-empty-search-1_Oval-3-Copy-6" class="st1" cx="4.5" cy="95.5" r="4.5"></circle><circle id="dark-empty-search-1_Oval-3-Copy-5" class="st1" cx="7" cy="23" r="2"></circle><circle id="dark-empty-search-1_Oval-3-Copy-7" class="st1" cx="81" cy="6" r="2"></circle><path id="dark-empty-search-1_Oval-3-Copy-3" class="st2" d="M61.5,114c3,0,5.5-2.5,5.5-5.5s-2.5-5.5-5.5-5.5s-5.5,2.5-5.5,5.5S58.5,114,61.5,114z M61.5,112c-1.9,0-3.5-1.6-3.5-3.5s1.6-3.5,3.5-3.5s3.5,1.6,3.5,3.5S63.4,112,61.5,112z"></path></g><g id="dark-empty-search-1_Group-Copy" transform="rotate(15 -53.596 340.614)"><g id="dark-empty-search-1_Oval-6" transform="translate(14.673)"><circle class="st3" cx="41.2" cy="41.2" r="41.2"></circle><circle class="st4" cx="19.2" cy="13.5" r="9"></circle><circle id="dark-empty-search-1_椭圆形" class="st3" cx="18.3" cy="12.5" r="7.5"></circle><circle id="dark-empty-search-1_Oval-6-Copy-3" class="st4" cx="48.5" cy="5.6" r="3.4"></circle><circle id="dark-empty-search-1_Oval-6-Copy" class="st4" cx="71.7" cy="22" r="9.6"></circle><circle id="dark-empty-search-1_椭圆形复制" class="st3" cx="48.5" cy="5" r="2.6"></circle><circle id="dark-empty-search-1_椭圆形复制-4" class="st3" cx="72.1" cy="23" r="8.6"></circle><circle id="dark-empty-search-1_Oval-6-Copy-2" class="st4" cx="31" cy="43.5" r="15.2"></circle><circle class="st3" cx="30.3" cy="44.9" r="13.8"></circle><circle id="dark-empty-search-1_Oval-6-Copy-4" class="st4" cx="65.5" cy="49.7" r="9"></circle><circle id="dark-empty-search-1_Oval-6-Copy-5" class="st4" cx="24.8" cy="79" r="11.3"></circle><circle id="dark-empty-search-1_Oval-6-Copy-6" class="st4" cx="54.7" cy="70.5" r="5.1"></circle><circle class="st3" cx="55" cy="71.2" r="4.4"></circle><circle id="dark-empty-search-1_椭圆形复制-3" class="st3" cx="65.5" cy="50.6" r="7.6"></circle><circle id="dark-empty-search-1_椭圆形复制-2" class="st3" cx="24.5" cy="79.9" r="9.8"></circle></g><path id="dark-empty-search-1_Combined-Shape" d="M15.1,37.7c2.8,7.4,20,13.1,40.8,13.1c21.4,0,38.9-6,41-13.7 C107.4,39.8,114,43.7,114,48c0,8.4-25.5,15.2-57,15.2C25.5,63.2,0,56.4,0,48C0,44,5.7,40.4,15.1,37.7z" fill-rule="evenodd" clip-rule="evenodd" fill="#767676"></path></g><g id="dark-empty-search-1_Group-3" transform="rotate(-15 199.767 26.3)"><path id="dark-empty-search-1_形状结合" class="st6" d="M16.1,17.9c0-9.4,7.6-17,17-17c9.3,0,16.8,7.4,17,16.7c-4.8-0.8-10.3-1.2-16.1-1.2 C27.4,16.4,21.3,16.9,16.1,17.9z"></path><ellipse id="dark-empty-search-1_Oval-12-Copy" transform="rotate(134.999 43.044 9.044)" cx="43" cy="9" rx="1.9" ry="3.8" fill-rule="evenodd" clip-rule="evenodd" fill="#fff"></ellipse><g id="dark-empty-search-1_Group-2" transform="translate(0 16.37)"><path class="st6" d="M33.6,20.1c0.1,0,0.3,0,0.4,0s0.3,0,0.4,0c-0.1,0-0.3,0-0.4,0S33.7,20.1,33.6,20.1L33.6,20.1z M0.1,10.7 C0,10.5,0,10.3,0,10.1C0,4.5,15.2,0,34,0s34,4.5,34,10.1c0,0.2,0,0.4-0.1,0.7C66.8,6.2,52,2.5,34,2.5C16,2.5,1.2,6.2,0.1,10.7z"></path><g id="dark-empty-search-1_Oval-13-Copy-3" transform="translate(17.63 8.074)"><ellipse transform="rotate(180 16.37 5.148)" class="st6" cx="16.4" cy="5.1" rx="16.4" ry="3.1"></ellipse><ellipse transform="rotate(180 16.37 3.889)" cx="16.4" cy="3.9" rx="16.4" ry="3.1" fill-rule="evenodd" clip-rule="evenodd" fill="#2d2e30"></ellipse></g></g></g></g></symbol>
<symbol xmlns="http://www.w3.org/2000/svg" viewBox="0 0 200 200" id="dark-empty-search-2"><path d="M31.6,92c-2.3-8.7,2.9-17.7,11.6-20s17.7,2.8,20,11.6c-4.9,0.5-10.4,1.5-16.1,3 S36.1,90,31.6,92z M53,78.8c1.8,1,3.7,1.2,4.2,0.3c0.5-0.9-0.5-2.5-2.3-3.5c-1.8-1-3.7-1.2-4.2-0.3S51.2,77.8,53,78.8z M52.3,106.1 c-18.1,4.9-33.9,5-35.1,0.3c-1.3-4.7,12.4-12.5,30.6-17.3s33.9-5,35.1-0.3C84.1,93.5,70.4,101.2,52.3,106.1z M34.8,102.9 c-0.2,0.3-0.2,0.5-0.2,0.7c0.5,1.7,7.9,1.1,16.6-1.2s15.4-5.6,15-7.3c-0.1-0.2-0.2-0.4-0.5-0.5c0.2-0.3,0.2-0.5,0.2-0.7 c-0.4-1.7-7.9-1.1-16.6,1.2s-15.4,5.6-15,7.3C34.4,102.6,34.6,102.8,34.8,102.9z" fill-rule="evenodd" clip-rule="evenodd" fill="#ababab"></path></symbol>
<symbol xmlns="http://www.w3.org/2000/svg" viewBox="0 0 200 200" id="dark-empty-subscribe-1"><style>#dark-empty-subscribe-1 .st5{fill-rule:evenodd;clip-rule:evenodd;fill:#676767}#dark-empty-subscribe-1 .st6{fill:#4a4a4a}</style><g transform="translate(27 27)"><circle id="dark-empty-subscribe-1_Mask" cx="73" cy="73" r="73" fill-rule="evenodd" clip-rule="evenodd" fill="#fff" fill-opacity="0"></circle><g id="dark-empty-subscribe-1_Group-26" transform="translate(30 24)"><g id="dark-empty-subscribe-1_Group-28"><path id="dark-empty-subscribe-1_Rectangle-2-Copy-3" d="M24,96.7H3c-1.7,0-3-1.3-3-3V74" fill-rule="evenodd" clip-rule="evenodd" fill="#fff" fill-opacity=".2"></path><path id="dark-empty-subscribe-1_Rectangle-14" d="M0,74l23,1l1,22c-3.6-1.9-8.1-5.5-13.6-10.8S1.5,76.8,0,74z" fill-rule="evenodd" clip-rule="evenodd" fill="#767676"></path><g id="dark-empty-subscribe-1_形状结合"><path id="dark-empty-subscribe-1_path-1" d="M65.5,97H23.9c-3.2-3.1-5.3-6.3-6.1-9.6c-0.9-3.3-0.9-6.6,0-10.1c-3.4,0.8-6.7,1-10,0.6 c-3.3-0.5-5.9-1.7-7.7-3.7V14c0-1.7,1.3-3,3-3h80c1.7,0,3,1.3,3,3v41c-14.4,0-26,11.6-26,26C60,87,62.1,92.6,65.5,97z" fill-rule="evenodd" clip-rule="evenodd"></path><path d="M65.5,97H23.9c-3.2-3.1-5.3-6.3-6.1-9.6c-0.9-3.3-0.9-6.6,0-10.1c-3.4,0.8-6.7,1-10,0.6 c-3.3-0.5-5.9-1.7-7.7-3.7V14c0-1.7,1.3-3,3-3h80c1.7,0,3,1.3,3,3v41c-14.4,0-26,11.6-26,26C60,87,62.1,92.6,65.5,97z" fill-rule="evenodd" clip-rule="evenodd" fill="#818181"></path></g><path id="dark-empty-subscribe-1_Rectangle-2" class="st5" d="M13.6,41h4.9c0.9,0,1.2,0.1,1.5,0.3c0.3,0.2,0.6,0.4,0.8,0.8c0.2,0.3,0.3,0.6,0.3,1.5v4.9 c0,0.9-0.1,1.2-0.3,1.5c-0.2,0.3-0.4,0.6-0.8,0.8c-0.3,0.2-0.6,0.3-1.5,0.3h-4.9c-0.9,0-1.2-0.1-1.5-0.3 c-0.3-0.2-0.6-0.4-0.8-0.8c-0.2-0.3-0.3-0.6-0.3-1.5v-4.9c0-0.9,0.1-1.2,0.3-1.5c0.2-0.3,0.4-0.6,0.8-0.8 C12.3,41.1,12.7,41,13.6,41z"></path><path id="dark-empty-subscribe-1_Rectangle-2-Copy-4" class="st5" d="M31.6,41h4.9c0.9,0,1.2,0.1,1.5,0.3c0.3,0.2,0.6,0.4,0.8,0.8 c0.2,0.3,0.3,0.6,0.3,1.5v4.9c0,0.9-0.1,1.2-0.3,1.5c-0.2,0.3-0.4,0.6-0.8,0.8c-0.3,0.2-0.6,0.3-1.5,0.3h-4.9 c-0.9,0-1.2-0.1-1.5-0.3c-0.3-0.2-0.6-0.4-0.8-0.8c-0.2-0.3-0.3-0.6-0.3-1.5v-4.9c0-0.9,0.1-1.2,0.3-1.5 c0.2-0.3,0.4-0.6,0.8-0.8C30.3,41.1,30.7,41,31.6,41z"></path><path id="dark-empty-subscribe-1_Rectangle-2-Copy-5" class="st5" d="M49.6,41h4.9c0.9,0,1.2,0.1,1.5,0.3c0.3,0.2,0.6,0.4,0.8,0.8 c0.2,0.3,0.3,0.6,0.3,1.5v4.9c0,0.9-0.1,1.2-0.3,1.5c-0.2,0.3-0.4,0.6-0.8,0.8c-0.3,0.2-0.6,0.3-1.5,0.3h-4.9 c-0.9,0-1.2-0.1-1.5-0.3c-0.3-0.2-0.6-0.4-0.8-0.8c-0.2-0.3-0.3-0.6-0.3-1.5v-4.9c0-0.9,0.1-1.2,0.3-1.5 c0.2-0.3,0.4-0.6,0.8-0.8C48.3,41.1,48.7,41,49.6,41z"></path><path id="dark-empty-subscribe-1_Rectangle-2-Copy-6" class="st5" d="M67.6,41h4.9c0.9,0,1.2,0.1,1.5,0.3c0.3,0.2,0.6,0.4,0.8,0.8 c0.2,0.3,0.3,0.6,0.3,1.5v4.9c0,0.9-0.1,1.2-0.3,1.5c-0.2,0.3-0.4,0.6-0.8,0.8c-0.3,0.2-0.6,0.3-1.5,0.3h-4.9 c-0.9,0-1.2-0.1-1.5-0.3c-0.3-0.2-0.6-0.4-0.8-0.8c-0.2-0.3-0.3-0.6-0.3-1.5v-4.9c0-0.9,0.1-1.2,0.3-1.5 c0.2-0.3,0.4-0.6,0.8-0.8C66.3,41.1,66.7,41,67.6,41z"></path><path id="dark-empty-subscribe-1_Rectangle-2-Copy-10" class="st5" d="M13.6,62h4.9c0.9,0,1.2,0.1,1.5,0.3c0.3,0.2,0.6,0.4,0.8,0.8 c0.2,0.3,0.3,0.6,0.3,1.5v4.9c0,0.9-0.1,1.2-0.3,1.5c-0.2,0.3-0.4,0.6-0.8,0.8c-0.3,0.2-0.6,0.3-1.5,0.3h-4.9 c-0.9,0-1.2-0.1-1.5-0.3c-0.3-0.2-0.6-0.4-0.8-0.8S11,70.3,11,69.4v-4.9c0-0.9,0.1-1.2,0.3-1.5c0.2-0.3,0.4-0.6,0.8-0.8 C12.3,62.1,12.7,62,13.6,62z"></path><path id="dark-empty-subscribe-1_Rectangle-2-Copy-9" class="st5" d="M31.6,62h4.9c0.9,0,1.2,0.1,1.5,0.3c0.3,0.2,0.6,0.4,0.8,0.8 c0.2,0.3,0.3,0.6,0.3,1.5v4.9c0,0.9-0.1,1.2-0.3,1.5c-0.2,0.3-0.4,0.6-0.8,0.8c-0.3,0.2-0.6,0.3-1.5,0.3h-4.9 c-0.9,0-1.2-0.1-1.5-0.3c-0.3-0.2-0.6-0.4-0.8-0.8c-0.2-0.3-0.3-0.6-0.3-1.5v-4.9c0-0.9,0.1-1.2,0.3-1.5 c0.2-0.3,0.4-0.6,0.8-0.8C30.3,62.1,30.7,62,31.6,62z"></path><path id="dark-empty-subscribe-1_Rectangle-2-Copy-8" class="st5" d="M49.6,62h4.9c0.9,0,1.2,0.1,1.5,0.3c0.3,0.2,0.6,0.4,0.8,0.8 c0.2,0.3,0.3,0.6,0.3,1.5v4.9c0,0.9-0.1,1.2-0.3,1.5c-0.2,0.3-0.4,0.6-0.8,0.8c-0.3,0.2-0.6,0.3-1.5,0.3h-4.9 c-0.9,0-1.2-0.1-1.5-0.3c-0.3-0.2-0.6-0.4-0.8-0.8c-0.2-0.3-0.3-0.6-0.3-1.5v-4.9c0-0.9,0.1-1.2,0.3-1.5 c0.2-0.3,0.4-0.6,0.8-0.8C48.3,62.1,48.7,62,49.6,62z"></path><path id="dark-empty-subscribe-1_Rectangle-2-Copy" class="st5" d="M3,11h80c1.7,0,3,1.3,3,3v15H0V14C0,12.3,1.3,11,3,11z"></path><path id="dark-empty-subscribe-1_Oval-18" class="st6" d="M29.5,11c0-5.8-4.7-10.5-10.5-10.5S8.5,5.2,8.5,11S13.2,21.5,19,21.5v-3 c-4.1,0-7.5-3.4-7.5-7.5s3.4-7.5,7.5-7.5s7.5,3.4,7.5,7.5H29.5z"></path><path id="dark-empty-subscribe-1_Oval-18-Copy" class="st6" d="M53.5,11c0-5.8-4.7-10.5-10.5-10.5S32.5,5.2,32.5,11S37.2,21.5,43,21.5v-3 c-4.1,0-7.5-3.4-7.5-7.5s3.4-7.5,7.5-7.5s7.5,3.4,7.5,7.5H53.5z"></path><path id="dark-empty-subscribe-1_Oval-18-Copy-2" class="st6" d="M77.5,11c0-5.8-4.7-10.5-10.5-10.5S56.5,5.2,56.5,11S61.2,21.5,67,21.5v-3 c-4.1,0-7.5-3.4-7.5-7.5s3.4-7.5,7.5-7.5s7.5,3.4,7.5,7.5H77.5z"></path></g><g id="dark-empty-subscribe-1_Group-27" transform="translate(60 55)"><g id="dark-empty-subscribe-1_Group-25" transform="translate(14 11)"><path class="st5" d="M18.3,28.4h-5.9c0-6.7-5.4-12.2-12.2-12.2v-5.9C10.2,10.4,18.3,18.5,18.3,28.4z M28.4,28.4h-5.9 c0-12.3-10-22.2-22.2-22.2V0.3C15.8,0.3,28.4,12.9,28.4,28.4z M3.6,28.4c-1.9,0-3.4-1.5-3.4-3.4s1.5-3.4,3.4-3.4S7,23.2,7,25.1 S5.5,28.4,3.6,28.4z"></path></g></g></g></g></symbol>
<symbol xmlns="http://www.w3.org/2000/svg" viewBox="0 0 200 200" id="dark-empty-subscribe-2"><path d="M143,158c-14.4,0-26-11.6-26-26s11.6-26,26-26s26,11.6,26,26S157.4,158,143,158z M149.3,145.4c0-10-8.1-18-18-18v5.9c6.7,0,12.2,5.4,12.2,12.2H149.3z M159.4,145.4c0-15.5-12.6-28.1-28.1-28.1v5.9 c12.3,0,22.2,10,22.2,22.2H159.4z M134.6,145.4c1.9,0,3.4-1.5,3.4-3.4s-1.5-3.4-3.4-3.4s-3.4,1.5-3.4,3.4S132.8,145.4,134.6,145.4z" fill-rule="evenodd" clip-rule="evenodd" fill="#ababab"></path></symbol>
</svg>