<svg xmlns="http://www.w3.org/2000/svg" xmlns:xlink="http://www.w3.org/1999/xlink" style="position: absolute; width: 0; height: 0" aria-hidden="true" id="__SVG_SPRITE_NODE__">
<symbol xmlns="http://www.w3.org/2000/svg" viewBox="0 0 12 12" id="date-filter"><path d="M4.344560023841858,9.33252L4.344560023841858,5.15697L1.617358023841858,3.01682C1.6118880238418578,3.01253,1.6065080238418579,3.00812,1.6012220238418577,3.0036Q1.2417860238418579,2.69647,1.1377040238418579,2.24878Q1.041825723841858,1.83638,1.189758123841858,1.431811Q1.337881023841858,1.026717,1.677446023841858,0.7743059999999999Q2.046465023841858,0.5,2.519660023841858,0.5L9.448110023841858,0.5Q9.921300023841859,0.5,10.290320023841858,0.7743059999999999Q10.629890023841858,1.026718,10.778010023841858,1.431811Q10.925940023841857,1.83638,10.830060023841858,2.24878Q10.725980023841858,2.69647,10.366550023841858,3.0036C10.360790023841858,3.00852,10.354930023841858,3.0133,10.348960023841858,3.01795L7.601240023841858,5.15793L7.601240023841858,10.5387Q7.601240023841858,11.0736,7.147740023841858,11.3553Q6.692360023841858,11.6382,6.213440023841858,11.3975C6.188820023841858,11.3851,6.165260023841858,11.3707,6.143010023841858,11.3545Q6.044950023841858,11.2828,5.780180023841858,11.1164Q5.166890023841858,10.7309,4.897660023841858,10.47415Q4.344560023841858,9.9468,4.344560023841858,9.33252ZM5.344560023841858,9.33252Q5.344560023841858,9.51857,5.587720023841858,9.75041Q5.784190023841858,9.93773,6.3123800238418575,10.26975Q6.486080023841858,10.37894,6.601240023841858,10.45582L6.601240023841858,4.95862Q6.601240023841858,4.6856,6.808730023841858,4.5083C6.814480023841858,4.50339,6.820350023841858,4.4986,6.826320023841858,4.49395L9.724230023841859,2.237Q9.938540023841858,2.04794,9.838820023841858,1.77523Q9.738190023841858,1.5,9.448110023841858,1.5L2.519660023841858,1.5Q2.2295800238418577,1.5,2.128940023841858,1.77523Q2.029085023841858,2.04832,2.244120023841858,2.23752L5.120940023841858,4.49508C5.126410023841858,4.49938,5.131790023841858,4.50378,5.1370800238418575,4.5083Q5.344560023841858,4.68559,5.344560023841858,4.95862L5.344560023841858,9.33252ZM10.351250023841859,6L8.601250023841857,6C8.325110023841859,6,8.101250023841857,6.22386,8.101250023841857,6.5C8.101250023841857,6.77614,8.325110023841859,7,8.601250023841857,7L10.351250023841859,7C10.627390023841858,7,10.851250023841859,6.77614,10.851250023841859,6.5C10.851250023841859,6.22386,10.627390023841858,6,10.351250023841859,6ZM10.351250023841859,7.5L8.601250023841857,7.5C8.325110023841859,7.5,8.101250023841857,7.72386,8.101250023841857,8C8.101250023841857,8.27614,8.325110023841859,8.5,8.601250023841857,8.5L10.351250023841859,8.5C10.627390023841858,8.5,10.851250023841859,8.27614,10.851250023841859,8C10.851250023841859,7.72386,10.627390023841858,7.5,10.351250023841859,7.5ZM10.351250023841859,9L8.601250023841857,9C8.325110023841859,9,8.101250023841857,9.22386,8.101250023841857,9.5C8.101250023841857,9.77614,8.325110023841859,10,8.601250023841857,10L10.351250023841859,10C10.627390023841858,10,10.851250023841859,9.77614,10.851250023841859,9.5C10.851250023841859,9.22386,10.627390023841858,9,10.351250023841859,9Z" fill-rule="evenodd"></path></symbol>
<symbol xmlns="http://www.w3.org/2000/svg" viewBox="0 0 16 16" id="date-unselected"><path d="M0.6666593551635742,4.005033373069763L0.6666593551635742,11.994933373069763C0.6666593551635742,13.467733373069763,1.8339093551635741,14.666633373069763,3.3066593551635743,14.666633373069763C6.435549355163574,14.666633373069763,9.564439355163573,14.666633373069763,12.693359355163574,14.666633373069763C14.166059355163574,14.666633373069763,15.333359355163575,13.467733373069763,15.333359355163575,11.994933373069763C15.333359355163575,9.418373373069763,15.333359355163575,6.581633373069764,15.333359355163575,4.005033373069763C15.333359355163575,2.532273373069763,14.118159355163574,1.3333333730697632,12.645359355163574,1.3333333730697632L3.330089355163574,1.3333333730697632C1.8573293551635741,1.3333333730697632,0.6666593551635742,2.532273373069763,0.6666593551635742,4.005033373069763ZM1.9999793551635743,5.814503373069763C1.9999693551635742,7.871943373069763,1.9999593551635741,10.091853373069764,1.9999793551635743,12.007033373069763C1.9999893551635741,12.743333373069763,2.591139355163574,13.333333373069763,3.327499355163574,13.333333373069763L5.433419355163574,13.333333373069763C7.846449355163574,13.333333373069763,10.259479355163574,13.333333373069763,12.672459355163575,13.333333373069763C13.408859355163575,13.333333373069763,13.999959355163574,12.743333373069763,13.999959355163574,12.007033373069763C13.999959355163574,9.983423373069764,13.999959355163574,7.619593373069764,13.999959355163574,5.466683373069763L1.9999793551635743,5.466683373069763L1.9999793551635743,5.814503373069763ZM1.9999893551635741,4.133353373069763L13.999959355163574,4.133353373069763L13.999959355163574,3.9930033730697634C13.999959355163574,3.256623373069763,13.408859355163575,2.6666633730697633,12.672459355163575,2.6666633730697633L10.002489355163574,2.666673373069763C7.777489355163574,2.6666833730697634,5.552489355163575,2.6666833730697634,3.327489355163574,2.666673373069763C2.5911093551635744,2.666673373069763,1.9999893551635741,3.256623373069763,1.9999893551635741,3.9930033730697634L1.9999893551635741,4.133353373069763ZM3.999829355163574,6.666673373069763Q3.9341693551635744,6.666673373069763,3.8697693551635743,6.679483373069763Q3.8053693551635743,6.692293373069763,3.7447093551635744,6.717423373069763Q3.684049355163574,6.7425533730697635,3.6294493551635743,6.779033373069764Q3.574859355163574,6.815513373069763,3.528429355163574,6.861933373069763Q3.481999355163574,6.908363373069763,3.445519355163574,6.962963373069763Q3.409039355163574,7.017553373069763,3.383909355163574,7.078223373069763Q3.3587793551635743,7.138883373069763,3.3459693551635743,7.203283373069763Q3.3331593551635743,7.267683373069763,3.3331593551635743,7.333343373069763Q3.3331593551635743,7.399003373069763,3.3459693551635743,7.463403373069763Q3.3587793551635743,7.527803373069763,3.383909355163574,7.5884633730697635Q3.409039355163574,7.649123373069763,3.445519355163574,7.703723373069764Q3.481999355163574,7.758313373069763,3.528429355163574,7.804743373069763Q3.574859355163574,7.851173373069763,3.6294493551635743,7.887653373069763Q3.684049355163574,7.924133373069763,3.7447093551635744,7.949263373069763Q3.8053693551635743,7.974393373069764,3.8697693551635743,7.987203373069764Q3.9341693551635744,8.000013373069763,3.999829355163574,8.000013373069763L4.666499355163574,8.000013373069763Q4.732159355163574,8.000013373069763,4.796559355163574,7.987203373069764Q4.860959355163574,7.974393373069764,4.921619355163574,7.949263373069763Q4.982279355163574,7.924133373069763,5.036879355163574,7.887653373069763Q5.091469355163574,7.851173373069763,5.137899355163574,7.804743373069763Q5.184329355163574,7.758313373069763,5.220809355163574,7.703723373069764Q5.257289355163574,7.649123373069763,5.282419355163574,7.5884633730697635Q5.307539355163574,7.527803373069763,5.320349355163574,7.463403373069763Q5.333159355163574,7.399003373069763,5.333159355163574,7.333343373069763Q5.333159355163574,7.267683373069763,5.320349355163574,7.203283373069763Q5.307539355163574,7.138883373069763,5.282419355163574,7.078223373069763Q5.257289355163574,7.017553373069763,5.220809355163574,6.962963373069763Q5.184329355163574,6.908363373069763,5.137899355163574,6.861933373069763Q5.091469355163574,6.815513373069763,5.036879355163574,6.779033373069764Q4.982279355163574,6.7425533730697635,4.921619355163574,6.717423373069763Q4.860959355163574,6.692293373069763,4.796559355163574,6.679483373069763Q4.732159355163574,6.666673373069763,4.666499355163574,6.666673373069763L3.999829355163574,6.666673373069763ZM7.333329355163574,6.666673373069763Q7.267669355163574,6.666673373069763,7.203269355163574,6.679483373069763Q7.138869355163574,6.692293373069763,7.078199355163574,6.717423373069763Q7.017539355163574,6.7425533730697635,6.962949355163574,6.779033373069764Q6.908349355163574,6.815513373069763,6.861919355163574,6.861933373069763Q6.8154893551635745,6.908363373069763,6.779009355163574,6.962963373069763Q6.742529355163574,7.017553373069763,6.717409355163574,7.078223373069763Q6.692279355163574,7.138883373069763,6.679469355163574,7.203283373069763Q6.666659355163574,7.267683373069763,6.666659355163574,7.333343373069763Q6.666659355163574,7.399003373069763,6.679469355163574,7.463403373069763Q6.692279355163574,7.527803373069763,6.717409355163574,7.5884633730697635Q6.742529355163574,7.649123373069763,6.779009355163574,7.703723373069764Q6.8154893551635745,7.758313373069763,6.861919355163574,7.804743373069763Q6.908349355163574,7.851173373069763,6.962949355163574,7.887653373069763Q7.017539355163574,7.924133373069763,7.078199355163574,7.949263373069763Q7.138869355163574,7.974393373069764,7.203269355163574,7.987203373069764Q7.267669355163574,8.000013373069763,7.333329355163574,8.000013373069763L7.999989355163574,8.000013373069763Q8.065649355163576,8.000013373069763,8.130049355163575,7.987203373069764Q8.194449355163574,7.974393373069764,8.255109355163574,7.949263373069763Q8.315779355163574,7.924133373069763,8.370369355163575,7.887653373069763Q8.424969355163574,7.851173373069763,8.471399355163573,7.804743373069763Q8.517829355163574,7.758313373069763,8.554309355163575,7.703723373069764Q8.590779355163574,7.649123373069763,8.615909355163573,7.5884633730697635Q8.641039355163574,7.527803373069763,8.653849355163574,7.463403373069763Q8.666659355163574,7.399003373069763,8.666659355163574,7.333343373069763Q8.666659355163574,7.267683373069763,8.653849355163574,7.203283373069763Q8.641039355163574,7.138883373069763,8.615909355163573,7.078223373069763Q8.590779355163574,7.017553373069763,8.554309355163575,6.962963373069763Q8.517829355163574,6.908363373069763,8.471399355163573,6.861933373069763Q8.424969355163574,6.815513373069763,8.370369355163575,6.779033373069764Q8.315779355163574,6.7425533730697635,8.255109355163574,6.717423373069763Q8.194449355163574,6.692293373069763,8.130049355163575,6.679483373069763Q8.065649355163576,6.666673373069763,7.999989355163574,6.666673373069763L7.333329355163574,6.666673373069763ZM10.000159355163575,7.333343373069763Q10.000159355163575,7.267683373069763,10.012959355163574,7.203283373069763Q10.025769355163574,7.138883373069763,10.050899355163574,7.078223373069763Q10.076029355163573,7.017553373069763,10.112509355163574,6.962963373069763Q10.148989355163573,6.908363373069763,10.195419355163574,6.861933373069763Q10.241849355163573,6.815513373069763,10.296439355163574,6.779033373069764Q10.351039355163575,6.7425533730697635,10.411699355163574,6.717423373069763Q10.472359355163574,6.692293373069763,10.536759355163575,6.679483373069763Q10.601159355163574,6.666673373069763,10.666859355163574,6.666673373069763L11.333459355163575,6.666673373069763Q11.399159355163574,6.666673373069763,11.463559355163575,6.679483373069763Q11.527959355163574,6.692293373069763,11.588659355163575,6.717423373069763Q11.649259355163574,6.7425533730697635,11.703859355163575,6.779033373069764Q11.758459355163573,6.815513373069763,11.804859355163574,6.861933373069763Q11.851359355163574,6.908363373069763,11.887759355163574,6.962963373069763Q11.924259355163574,7.017553373069763,11.949359355163574,7.078223373069763Q11.974559355163574,7.138883373069763,11.987359355163575,7.203283373069763Q12.000159355163575,7.267683373069763,12.000159355163575,7.333343373069763Q12.000159355163575,7.399003373069763,11.987359355163575,7.463403373069763Q11.974559355163574,7.527803373069763,11.949359355163574,7.5884633730697635Q11.924259355163574,7.649123373069763,11.887759355163574,7.703723373069764Q11.851359355163574,7.758313373069763,11.804859355163574,7.804743373069763Q11.758459355163573,7.851173373069763,11.703859355163575,7.887653373069763Q11.649259355163574,7.924133373069763,11.588659355163575,7.949263373069763Q11.527959355163574,7.974393373069764,11.463559355163575,7.987203373069764Q11.399159355163574,8.000013373069763,11.333459355163575,8.000013373069763L10.666859355163574,8.000013373069763Q10.601159355163574,8.000013373069763,10.536759355163575,7.987203373069764Q10.472359355163574,7.974393373069764,10.411699355163574,7.949263373069763Q10.351039355163575,7.924133373069763,10.296439355163574,7.887653373069763Q10.241849355163573,7.851173373069763,10.195419355163574,7.804743373069763Q10.148989355163573,7.758313373069763,10.112509355163574,7.703723373069764Q10.076029355163573,7.649123373069763,10.050899355163574,7.5884633730697635Q10.025769355163574,7.527803373069763,10.012959355163574,7.463403373069763Q10.000159355163575,7.399003373069763,10.000159355163575,7.333343373069763ZM3.999829355163574,9.333333373069763Q3.9341693551635744,9.333333373069763,3.8697693551635743,9.346143373069763Q3.8053693551635743,9.358953373069763,3.7447093551635744,9.384083373069764Q3.684049355163574,9.409203373069763,3.6294493551635743,9.445683373069762Q3.574859355163574,9.482163373069763,3.528429355163574,9.528593373069763Q3.481999355163574,9.575023373069763,3.445519355163574,9.629623373069764Q3.409039355163574,9.684213373069763,3.383909355163574,9.744873373069764Q3.3587793551635743,9.805543373069764,3.3459693551635743,9.869943373069763Q3.3331593551635743,9.934343373069764,3.3331593551635743,10.000003373069763Q3.3331593551635743,10.065663373069762,3.3459693551635743,10.130063373069763Q3.3587793551635743,10.194453373069763,3.383909355163574,10.255123373069763Q3.409039355163574,10.315783373069763,3.445519355163574,10.370373373069762Q3.481999355163574,10.424973373069763,3.528429355163574,10.471403373069764Q3.574859355163574,10.517833373069763,3.6294493551635743,10.554313373069764Q3.684049355163574,10.590793373069763,3.7447093551635744,10.615913373069763Q3.8053693551635743,10.641043373069763,3.8697693551635743,10.653853373069763Q3.9341693551635744,10.666663373069763,3.999829355163574,10.666663373069763L4.666499355163574,10.666663373069763Q4.732159355163574,10.666663373069763,4.796559355163574,10.653853373069763Q4.860959355163574,10.641043373069763,4.921619355163574,10.615913373069763Q4.982279355163574,10.590793373069763,5.036879355163574,10.554313373069764Q5.091469355163574,10.517833373069763,5.137899355163574,10.471403373069764Q5.184329355163574,10.424973373069763,5.220809355163574,10.370373373069762Q5.257289355163574,10.315783373069763,5.282419355163574,10.255123373069763Q5.307539355163574,10.194453373069763,5.320349355163574,10.130063373069763Q5.333159355163574,10.065663373069762,5.333159355163574,10.000003373069763Q5.333159355163574,9.934343373069764,5.320349355163574,9.869943373069763Q5.307539355163574,9.805543373069764,5.282419355163574,9.744873373069764Q5.257289355163574,9.684213373069763,5.220809355163574,9.629623373069764Q5.184329355163574,9.575023373069763,5.137899355163574,9.528593373069763Q5.091469355163574,9.482163373069763,5.036879355163574,9.445683373069762Q4.982279355163574,9.409203373069763,4.921619355163574,9.384083373069764Q4.860959355163574,9.358953373069763,4.796559355163574,9.346143373069763Q4.732159355163574,9.333333373069763,4.666499355163574,9.333333373069763L3.999829355163574,9.333333373069763ZM6.666659355163574,10.000003373069763Q6.666659355163574,9.934343373069764,6.679469355163574,9.869943373069763Q6.692279355163574,9.805543373069764,6.717409355163574,9.744873373069764Q6.742529355163574,9.684213373069763,6.779009355163574,9.629623373069764Q6.8154893551635745,9.575023373069763,6.861919355163574,9.528593373069763Q6.908349355163574,9.482163373069763,6.962949355163574,9.445683373069762Q7.017539355163574,9.409203373069763,7.078199355163574,9.384083373069764Q7.138869355163574,9.358953373069763,7.203269355163574,9.346143373069763Q7.267669355163574,9.333333373069763,7.333329355163574,9.333333373069763L7.999989355163574,9.333333373069763Q8.065649355163576,9.333333373069763,8.130049355163575,9.346143373069763Q8.194449355163574,9.358953373069763,8.255109355163574,9.384083373069764Q8.315779355163574,9.409203373069763,8.370369355163575,9.445683373069762Q8.424969355163574,9.482163373069763,8.471399355163573,9.528593373069763Q8.517829355163574,9.575023373069763,8.554309355163575,9.629623373069764Q8.590779355163574,9.684213373069763,8.615909355163573,9.744873373069764Q8.641039355163574,9.805543373069764,8.653849355163574,9.869943373069763Q8.666659355163574,9.934343373069764,8.666659355163574,10.000003373069763Q8.666659355163574,10.065663373069762,8.653849355163574,10.130063373069763Q8.641039355163574,10.194453373069763,8.615909355163573,10.255123373069763Q8.590779355163574,10.315783373069763,8.554309355163575,10.370373373069762Q8.517829355163574,10.424973373069763,8.471399355163573,10.471403373069764Q8.424969355163574,10.517833373069763,8.370369355163575,10.554313373069764Q8.315779355163574,10.590793373069763,8.255109355163574,10.615913373069763Q8.194449355163574,10.641043373069763,8.130049355163575,10.653853373069763Q8.065649355163576,10.666663373069763,7.999989355163574,10.666663373069763L7.333329355163574,10.666663373069763Q7.267669355163574,10.666663373069763,7.203269355163574,10.653853373069763Q7.138869355163574,10.641043373069763,7.078199355163574,10.615913373069763Q7.017539355163574,10.590793373069763,6.962949355163574,10.554313373069764Q6.908349355163574,10.517833373069763,6.861919355163574,10.471403373069764Q6.8154893551635745,10.424973373069763,6.779009355163574,10.370373373069762Q6.742529355163574,10.315783373069763,6.717409355163574,10.255123373069763Q6.692279355163574,10.194453373069763,6.679469355163574,10.130063373069763Q6.666659355163574,10.065663373069762,6.666659355163574,10.000003373069763Z" fill-rule="evenodd"></path></symbol>
</svg>