<svg xmlns="http://www.w3.org/2000/svg" xmlns:xlink="http://www.w3.org/1999/xlink" style="position: absolute; width: 0; height: 0" aria-hidden="true" id="__SVG_SPRITE_NODE__">
<symbol xmlns="http://www.w3.org/2000/svg" viewBox="0 0 14 14" id="delete-backup"><rect width="14" height="14" rx="0" fill="none"></rect><path d="M8.45833,1.1666667461395264C9.23154,1.1666667461395264,9.86417,1.7683987461395265,9.91352,2.5291167461395263L9.91667,2.6249967461395265L9.91667,2.9166667461395264L12.8333,2.9166667461395264C12.9944,2.9166667461395264,13.125,3.0472467461395265,13.125,3.2083367461395262L13.125,3.7916667461395264C13.125,3.9527467461395265,12.9944,4.083336746139526,12.8333,4.083336746139526L11.9583,4.083336746139526L11.9583,10.511956746139527C11.9583,11.800566746139527,10.928,12.833366746139527,9.63929,12.833366746139527L4.4506499999999996,12.833366746139527C3.1361,12.833366746139527,2.07302,11.721066746139526,2.07752,10.406496746139526C2.08141,9.270916746139527,2.0707,8.134526746139526,2.05999,6.998556746139526C2.05083,6.026216746139526,2.04167,5.054206746139526,2.04167,4.083336746139526L1.166667,4.083336746139526C1.005584,4.083336746139526,0.875,3.9527467461395265,0.875,3.7916667461395264L0.875,3.2083367461395262C0.875,3.0472467461395265,1.005584,2.9166667461395264,1.166667,2.9166667461395264L4.08333,2.9166667461395264L4.08333,2.6249967461395265C4.08333,1.8518037461395265,4.685029999999999,1.2191397461395264,5.44575,1.1697642761395264L5.54167,1.1666667461395264L8.45833,1.1666667461395264ZM10.79167,4.083336746139526L3.20833,4.083336746139526L3.20833,10.507586746139527C3.20833,11.122586746139527,3.69016,11.619566746139526,4.29437,11.663466746139527L4.38147,11.666666746139526L9.63258,11.666666746139526C10.24759,11.666666746139526,10.7446,11.189966746139527,10.78851,10.586256746139526L10.79167,10.499186746139527L10.79167,4.083336746139526ZM5.83333,5.833336746139526C5.99442,5.833336746139526,6.125,5.947596746139526,6.125,6.088546746139526L6.125,9.661456746139526C6.125,9.802396746139527,5.99442,9.916666746139526,5.83333,9.916666746139526L5.25,9.916666746139526C5.08892,9.916666746139526,4.95833,9.802396746139527,4.95833,9.661456746139526L4.95833,6.088546746139526C4.95833,5.947596746139526,5.08892,5.833336746139526,5.25,5.833336746139526L5.83333,5.833336746139526ZM8.75,5.833336746139526C8.91106,5.833336746139526,9.04167,5.947596746139526,9.04167,6.088546746139526L9.04167,9.661456746139526C9.04167,9.802396746139527,8.91106,9.916666746139526,8.75,9.916666746139526L8.16667,9.916666746139526C8.00561,9.916666746139526,7.875,9.802396746139527,7.875,9.661456746139526L7.875,6.088546746139526C7.875,5.947596746139526,8.00561,5.833336746139526,8.16667,5.833336746139526L8.75,5.833336746139526ZM8.45833,2.3333367461395262L5.54167,2.3333367461395262C5.41638,2.3333367461395262,5.30954,2.4123167461395263,5.26825,2.5232167461395263L5.2547,2.5725567461395267L5.25,2.6249967461395265L5.25,2.9166667461395264L8.75,2.9166667461395264L8.75,2.6249967461395265C8.75,2.5176067461395264,8.691970000000001,2.4237867461395264,8.60552,2.3731667461395265L8.56007,2.3515967461395264L8.51072,2.3380367461395264L8.45833,2.3333367461395262Z" fill-rule="evenodd"></path></symbol>
<symbol xmlns="http://www.w3.org/2000/svg" viewBox="0 0 16 16" id="delete-circle"><g fill="none" fill-rule="evenodd"><circle fill="#D3D3D3" cx="8" cy="8" r="8"></circle><path d="M10.25,5 L11,5.75 L8.75,8 L11,10.25 L10.25,11 L8,8.75 L5.75,11 L5,10.25 L7.25,7.999 L5,5.75 L5.75,5 L8,7.25 L10.25,5 Z" fill="#686868"></path></g></symbol>
<symbol xmlns="http://www.w3.org/2000/svg" viewBox="0 0 24 24" id="delete-forever"><path d="M20.5,18.0205L20.5,7L22,7C22.2761,7,22.5,6.77614,22.5,6.5L22.5,5.5C22.5,5.22386,22.2761,5,22,5L17,5L17,4.5L16.9946,4.33563C16.91,3.0315399999999997,15.8255,2,14.5,2L9.5,2L9.33557,2.00531006C8.03148,2.0899537,7,3.1745200000000002,7,4.5L7,5L2,5C1.723858,5,1.5,5.22386,1.5,5.5L1.5,6.5C1.5,6.77614,1.723858,7,2,7L3.5,7C3.5,8.664349999999999,3.5157,10.33065,3.53141,11.99753C3.54977,13.9449,3.56813,15.893,3.56146,17.8397C3.55375,20.0932,5.37617,22,7.62968,22L16.5245,22C18.7337,22,20.5,20.2296,20.5,18.0205ZM9.5,4L14.5,4L14.5898,4.00806L14.6744,4.0313099999999995C14.8646,4.1021,15,4.28522,15,4.5L15,5L9,5L9,4.5L9.00806,4.4101C9.05039,4.17685,9.25454,4,9.5,4ZM18.5,7L18.5,17.9986C18.5,19.1032,17.6175,20,16.512999999999998,20L7.5111,20C6.40653,20,5.5,19.1175,5.5,18.013L5.50001,7L18.5,7ZM12.5,14.9142L14.2929,16.7071C14.4804,16.8946,14.7348,17,15,17C15.2652,17,15.5196,16.8946,15.7071,16.7071C15.8946,16.5196,16,16.2652,16,16C16,15.7348,15.8946,15.4804,15.7066,15.2924L13.9142,13.5L15.7071,11.70711C15.8946,11.51957,16,11.26522,16,11C16,10.73478,15.8946,10.48043,15.7065,10.29232C15.7065,10.29232,15.6985,10.28436,15.6979,10.2838C15.5112,10.10184,15.2607,10,15,10C14.7348,10,14.4804,10.10536,14.2925,10.29327L12.5,12.0858L10.70711,10.29289C10.51957,10.10536,10.26522,10,10,10C9.73478,10,9.48043,10.10536,9.29289,10.29289C9.105360000000001,10.48043,9,10.73478,9,11C9,11.26522,9.105360000000001,11.51957,9.293009999999999,11.70723L11.08579,13.5L9.29289,15.2929C9.105360000000001,15.4804,9,15.7348,9,16C9,16.2652,9.105360000000001,16.5196,9.29289,16.7071C9.48043,16.8946,9.73478,17,10,17C10.26522,17,10.51957,16.8946,10.70748,16.706699999999998L12.5,14.9142Z" fill-rule="evenodd"></path></symbol>
<symbol xmlns="http://www.w3.org/2000/svg" viewBox="0 0 48 48" id="delete-subtask"><path d="M21,0 C23.6509668,0 25.8200773,2.06307187 25.9893646,4.67124862 L26,5 L26,6 L35,6 C35.5522847,6 36,6.44771525 36,7 L36,9 C36,9.55228475 35.5522847,10 35,10 L34,10 L34,33 C34,35.6509668 31.9369281,37.8200773 29.3287514,37.9893646 L29,38 L7,38 C4.3490332,38 2.17992266,35.9369281 2.01063536,33.3287514 L2,33 L2,10 L1,10 C0.44771525,10 0,9.55228475 0,9 L0,7 C0,6.44771525 0.44771525,6 1,6 L10,6 L10,5 C10,2.3490332 12.0630719,0.179922656 14.6712486,0.0106353594 L15,0 L21,0 Z M30,10 L6,10 L6,33 C6,33.4295548 6.27084009,33.7958515 6.6510676,33.9374375 L6.82024874,33.9838887 L7,34 L29,34 C29.4909198,34 29.8992167,33.6462497 29.9838887,33.1797513 L30,33 L30,10 Z M19,14 C19.5522847,14 20,14.4477153 20,15 L20,29 C20,29.5522847 19.5522847,30 19,30 L17,30 C16.4477153,30 16,29.5522847 16,29 L16,15 C16,14.4477153 16.4477153,14 17,14 L19,14 Z M21,4 L15,4 C14.5090802,4 14.1007833,4.35375032 14.0161113,4.82024874 L14,5 L14,6 L22,6 L22,5 C22,4.57044519 21.7291599,4.20414848 21.3489324,4.06256253 L21.1797513,4.01611134 L21,4 Z" transform="translate(6 4)" fill-rule="evenodd"></path></symbol>
<symbol xmlns="http://www.w3.org/2000/svg" viewBox="0 0 24 24" id="delete"><path d="M17.39000246524811,4.7515299046325685L17.39000246524811,5.399899904632568L22.990002465248107,5.399899904632568Q23.176402465248106,5.399899904632568,23.308202465248108,5.5316999046325686Q23.440002465248106,5.663509904632568,23.440002465248106,5.849899904632569L23.440002465248106,6.949899904632568Q23.440002465248106,7.136299904632568,23.308202465248108,7.268099904632568Q23.176402465248106,7.399899904632568,22.990002465248107,7.399899904632568L21.240002465248107,7.399899904632568L21.240002465248107,19.62249990463257Q21.240002465248107,21.403999904632567,19.99400246524811,22.65179990463257Q18.747702465248107,23.89989990463257,16.967002465248108,23.89989990463257L7.182672465248108,23.89989990463257Q5.363482465248108,23.89989990463257,4.082532465248108,22.620099904632568Q2.800332465248108,21.33899990463257,2.807282465248108,19.522999904632567L2.793672465248108,15.128499904632568L2.7745824652481077,12.996299904632568L2.7394024652481077,7.399899904632568L0.9900264652481079,7.399899904632568Q0.8036304652481079,7.399899904632568,0.6718284652481079,7.268099904632568Q0.540026888248108,7.136299904632568,0.5400268808481079,6.949899904632568L0.5400268808481079,5.849899904632569Q0.5400268808481079,5.663509904632568,0.6718284652481079,5.5316999046325686Q0.8036314652481079,5.399899904632568,0.9900264652481079,5.399899904632568L6.590022465248108,5.399899904632568L6.590022465248108,4.749899904632569Q6.5900324652481075,3.6992999046325683,7.309492465248108,2.9344949046325683Q8.025262465248108,2.173611904632568,9.064032465248108,2.1056380246325683L9.241642465248107,2.0999022498325686L14.740002465248107,2.0999022498325686Q15.790602465248108,2.099902212632568,16.555402465248108,2.8193979046325683Q17.316202465248107,3.5351999046325684,17.38420246524811,4.573989904632569L17.39000246524811,4.7515299046325685ZM14.744502465248107,4.099849904632569L9.240022465248108,4.099849904632569Q8.697282465248108,4.099849904632569,8.600492465248108,4.6330999046325685L8.599692465248108,4.637539904632568L8.590022465248108,4.745379904632568L8.590022465248108,5.3998499046325685L15.390002465248108,5.3998499046325685L15.390002465248108,4.749849904632568Q15.390002465248108,4.298179904632568,14.966802465248108,4.140579904632569L14.962702465248109,4.139039904632568L14.856702465248109,4.1099199046325685L14.744502465248107,4.099849904632569ZM19.240002465248107,19.59839990463257L19.240002465248107,7.499899904632568L19.240002465248107,7.399899904632568L4.740002465248108,7.399899904632568L4.739992465248108,19.614199904632567Q4.739992465248108,20.56479990463257,5.420342465248108,21.23399990463257Q6.097452465248108,21.89989990463257,7.052202465248108,21.89989990463257L16.95420246524811,21.89989990463257Q17.90570246524811,21.89989990463257,18.573802465248107,21.225099904632568Q19.240002465248107,20.55229990463257,19.240002465248107,19.59839990463257ZM10.113092465248108,11.016159904632568Q10.240042465248107,11.12723990463257,10.240042465248107,11.281199904632569L10.240042465248107,18.01869990463257Q10.240042465248107,18.17269990463257,10.113092465248108,18.28369990463257Q9.980282465248107,18.39999990463257,9.790042465248108,18.39999990463257L8.690042465248109,18.39999990463257Q8.499792465248108,18.39989990463257,8.366982465248107,18.28369990463257Q8.24004246524811,18.17269990463257,8.24004246524811,18.01869990463257L8.24004246524811,11.281199904632569Q8.24004246524811,11.12723990463257,8.366982465248107,11.016159904632568Q8.499792465248108,10.89994990463257,8.690042465248109,10.89994990463257L9.790042465248108,10.89994990463257Q9.980282465248107,10.89994990463257,10.113092465248108,11.016159904632568ZM15.613102465248108,11.016159904632568Q15.740002465248107,11.12723990463257,15.740002465248107,11.281199904632569L15.740002465248107,18.01869990463257Q15.740002465248107,18.17269990463257,15.613102465248108,18.28369990463257Q15.480302465248108,18.39999990463257,15.290002465248108,18.39999990463257L14.190002465248108,18.39999990463257Q13.999802465248107,18.39989990463257,13.867002465248108,18.28369990463257Q13.740002465248107,18.17269990463257,13.740002465248107,18.01869990463257L13.740002465248107,11.281199904632569Q13.740002465248107,11.12723990463257,13.867002465248108,11.016159904632568Q13.999802465248107,10.89994990463257,14.190002465248108,10.89994990463257L15.290002465248108,10.89994990463257Q15.480302465248108,10.89994990463257,15.613102465248108,11.016159904632568Z" fill-rule="evenodd"></path></symbol>
</svg>