<svg xmlns="http://www.w3.org/2000/svg" xmlns:xlink="http://www.w3.org/1999/xlink" style="position: absolute; width: 0; height: 0" aria-hidden="true" id="__SVG_SPRITE_NODE__">
<symbol xmlns="http://www.w3.org/2000/svg" viewBox="0 0 12 12" id="descendant-task-small"><path d="M1.2500016689300537,1.491542L1.2500016689300537,8.31342C1.2500016689300537,9.3755,2.1029426689300537,10.25,3.1650316689300535,10.25L6.995881668930053,10.25C7.272021668930054,10.25,7.500001668930054,10.02614,7.500001668930054,9.75C7.500001668930054,9.47386,7.2761416689300535,9.25,7.000001668930054,9.25L3.204551668930054,9.25C2.677361668930054,9.25,2.2500016689300537,8.82264,2.2500016689300537,8.295449999999999L2.2500016689300537,4.75L7.000001668930054,4.75C7.2761416689300535,4.75,7.500001668930054,4.52614,7.500001668930054,4.25C7.500001668930054,3.97386,7.2761416689300535,3.75,7.000001668930054,3.75L2.2500016689300537,3.75L2.2500016689300537,1.5C2.2500016689300537,1.223858,2.026143668930054,1,1.7500016689300537,1C1.4738596689300536,1,1.2500016689300537,1.2154,1.2500016689300537,1.491542ZM10.750001668930054,4.25Q10.750001668930054,4.34849,10.730781668930053,4.44509Q10.711571668930054,4.54169,10.673881668930054,4.632680000000001Q10.636191668930053,4.72368,10.581471668930053,4.8055699999999995Q10.526751668930054,4.88746,10.457111668930054,4.95711Q10.387461668930055,5.02675,10.305571668930053,5.08147Q10.223681668930054,5.13619,10.132681668930054,5.17388Q10.041691668930053,5.21157,9.945091668930054,5.23078Q9.848491668930054,5.25,9.750001668930054,5.25Q9.651511668930054,5.25,9.554911668930053,5.23078Q9.458311668930055,5.21157,9.367321668930053,5.17388Q9.276321668930054,5.13619,9.194431668930054,5.08147Q9.112541668930053,5.02675,9.042891668930054,4.95711Q8.973251668930054,4.88746,8.918531668930054,4.8055699999999995Q8.863811668930055,4.72368,8.826121668930053,4.632680000000001Q8.788431668930054,4.54169,8.769211668930055,4.44509Q8.750001668930054,4.34849,8.750001668930054,4.25Q8.750001668930054,4.15151,8.769211668930055,4.05491Q8.788431668930054,3.95831,8.826121668930053,3.86732Q8.863811668930055,3.77632,8.918531668930054,3.69443Q8.973251668930054,3.61254,9.042891668930054,3.54289Q9.112541668930053,3.47325,9.194431668930054,3.41853Q9.276321668930054,3.36381,9.367321668930053,3.32612Q9.458311668930055,3.28843,9.554911668930053,3.26921Q9.651511668930054,3.25,9.750001668930054,3.25Q9.848491668930054,3.25,9.945091668930054,3.26921Q10.041691668930053,3.28843,10.132681668930054,3.32612Q10.223681668930054,3.36381,10.305571668930053,3.41853Q10.387461668930055,3.47325,10.457111668930054,3.54289Q10.526751668930054,3.61254,10.581471668930053,3.69443Q10.636191668930053,3.77632,10.673881668930054,3.86732Q10.711571668930054,3.95831,10.730781668930053,4.05491Q10.750001668930054,4.15151,10.750001668930054,4.25ZM10.750001668930054,9.75Q10.750001668930054,9.84849,10.730781668930053,9.94509Q10.711571668930054,10.04169,10.673881668930054,10.13268Q10.636191668930053,10.22368,10.581471668930053,10.30557Q10.526751668930054,10.38746,10.457111668930054,10.45711Q10.387461668930055,10.52675,10.305571668930053,10.58147Q10.223681668930054,10.63619,10.132681668930054,10.67388Q10.041691668930053,10.71157,9.945091668930054,10.73078Q9.848491668930054,10.75,9.750001668930054,10.75Q9.651511668930054,10.75,9.554911668930053,10.73078Q9.458311668930055,10.71157,9.367321668930053,10.67388Q9.276321668930054,10.63619,9.194431668930054,10.58147Q9.112541668930053,10.52675,9.042891668930054,10.45711Q8.973251668930054,10.38746,8.918531668930054,10.30557Q8.863811668930055,10.22368,8.826121668930053,10.13268Q8.788431668930054,10.04169,8.769211668930055,9.94509Q8.750001668930054,9.84849,8.750001668930054,9.75Q8.750001668930054,9.65151,8.769211668930055,9.55491Q8.788431668930054,9.45831,8.826121668930053,9.36732Q8.863811668930055,9.27632,8.918531668930054,9.19443Q8.973251668930054,9.11254,9.042891668930054,9.04289Q9.112541668930053,8.97325,9.194431668930054,8.91853Q9.276321668930054,8.86381,9.367321668930053,8.82612Q9.458311668930055,8.78843,9.554911668930053,8.769210000000001Q9.651511668930054,8.75,9.750001668930054,8.75Q9.848491668930054,8.75,9.945091668930054,8.769210000000001Q10.041691668930053,8.78843,10.132681668930054,8.82612Q10.223681668930054,8.86381,10.305571668930053,8.91853Q10.387461668930055,8.97325,10.457111668930054,9.04289Q10.526751668930054,9.11254,10.581471668930053,9.19443Q10.636191668930053,9.27632,10.673881668930054,9.36732Q10.711571668930054,9.45831,10.730781668930053,9.55491Q10.750001668930054,9.65151,10.750001668930054,9.75Z" fill-rule="evenodd"></path></symbol>
<symbol xmlns="http://www.w3.org/2000/svg" viewBox="0 0 24 24" id="descendant-task"><g fill-rule="evenodd"><path fill="none" d="M0 0H24V24H0z"></path><path d="M6.5,10.5 L6.5,15 C6.5,15.8284271 7.17157288,16.5 8,16.5 L13.6776081,16.5 C13.9092433,15.3588798 14.9181201,14.5 16.127599,14.5 C17.5083109,14.5 18.627599,15.6192881 18.627599,17 C18.627599,18.3807119 17.5083109,19.5 16.127599,19.5 C14.9181201,19.5 13.9092433,18.6411202 13.6776081,17.5 L8,17.5 C6.61928813,17.5 5.5,16.3807119 5.5,15 L5.5,5 C5.5,4.72385763 5.72385763,4.5 6,4.5 C6.27614237,4.5 6.5,4.72385763 6.5,5 L6.5,9.5 L13.6776081,9.5 C13.9092433,8.35887984 14.9181201,7.5 16.127599,7.5 C17.5083109,7.5 18.627599,8.61928813 18.627599,10 C18.627599,11.3807119 17.5083109,12.5 16.127599,12.5 C14.9181201,12.5 13.9092433,11.6411202 13.6776081,10.5 L6.5,10.5 Z M16.127599,18.5 C16.9560262,18.5 17.627599,17.8284271 17.627599,17 C17.627599,16.1715729 16.9560262,15.5 16.127599,15.5 C15.2991719,15.5 14.627599,16.1715729 14.627599,17 C14.627599,17.8284271 15.2991719,18.5 16.127599,18.5 Z M16.127599,11.5 C16.9560262,11.5 17.627599,10.8284271 17.627599,10 C17.627599,9.17157288 16.9560262,8.5 16.127599,8.5 C15.2991719,8.5 14.627599,9.17157288 14.627599,10 C14.627599,10.8284271 15.2991719,11.5 16.127599,11.5 Z" fill-rule="nonzero"></path></g></symbol>
</svg>