<svg xmlns="http://www.w3.org/2000/svg" xmlns:xlink="http://www.w3.org/1999/xlink" style="position: absolute; width: 0; height: 0" aria-hidden="true" id="__SVG_SPRITE_NODE__">
<symbol id="description" xmlns="http://www.w3.org/2000/svg" viewBox="0 0 1024 1024"><path d="M403.38014815 907.03644445c-9.34494815 0-18.6898963-3.51952592-25.72894815-10.67994075L128.73576297 647.44106667c-14.19946667-14.19946667-14.19946667-37.25842963 0-51.4578963s37.25842963-14.19946667 51.45789628 0l248.91543705 248.91543704c14.19946667 14.19946667 14.19946667 37.25842963 0 51.45789629-7.16041482 7.03905185-16.50536297 10.67994075-25.72894815 10.67994075zM891.86607408 418.55051852c-9.34494815 0-18.6898963-3.51952592-25.72894816-10.67994074L617.22168889 158.95514075c-14.19946667-14.19946667-14.19946667-37.25842963 0-51.4578963s37.25842963-14.19946667 51.45789629 0l248.91543704 248.91543703c14.19946667 14.19946667 14.19946667 37.25842963 0 51.4578963-7.16041482 7.03905185-16.50536297 10.67994075-25.72894814 10.67994074z" p-id="1015"></path><path d="M45.7234963 1013.71448889c-9.58767408 0-18.93262222-3.76225185-25.85031112-10.80130371-8.37404445-8.49540741-12.1362963-20.6317037-9.95176296-32.28254815 0.12136297-0.72817778 14.56355555-77.55093333 32.64663703-157.16503703 10.8013037-47.21019259 20.75306667-86.28906667 29.73392593-116.26571852 16.74808889-56.06968889 27.54939259-72.33232592 36.65161482-81.43454815L679.84497778 44.75259259c46.60337778-46.60337778 121.96977778-47.21019259 167.96634074-1.21362962l133.62062223 133.62062221c22.33078518 22.33078518 34.34571852 52.18607408 34.10299258 84.10453334-0.36408889 31.67573333-12.86447408 61.40965925-35.31662222 83.8618074L409.32693333 916.0173037c-9.22358518 9.22358518-25.48622222 20.02488889-82.04136296 36.40888889-30.09801482 8.73813333-69.54097778 18.56853333-116.99389629 29.00574816-80.22091852 17.71899259-157.40776297 31.55437037-158.25730371 31.67573333-2.06317037 0.48545185-4.12634075 0.60681482-6.31087407 0.60681481zM161.26103703 666.37368889c-2.66998518 4.12634075-18.08308148 31.7970963-49.152 169.30133333-7.88859259 35.0738963-15.04900741 69.29825185-20.38897778 95.87674075 26.94257778-5.21860741 61.40965925-12.1362963 96.84764445-19.90352594 137.86832592-30.09801482 165.90317037-45.26838518 170.15087408-48.05973333L928.76041482 293.54666667l25.72894815 25.72894815-25.72894815-25.72894815c18.20444445-18.20444445 18.81125925-47.45291852 1.21362963-64.92918519L796.35342222 94.99685925c-17.59762963-17.59762963-46.72474075-16.99081482-64.92918519 1.21362964L161.26103703 666.37368889z m197.9429926 196.97208889zM161.62512592 665.88823703z" p-id="1016"></path></symbol>
</svg>