<svg xmlns="http://www.w3.org/2000/svg" xmlns:xlink="http://www.w3.org/1999/xlink" style="position: absolute; width: 0; height: 0" aria-hidden="true" id="__SVG_SPRITE_NODE__">
<symbol xmlns="http://www.w3.org/2000/svg" viewBox="0 0 32 32" id="device_ipad"><path d="M18.0890065,0.0131301508 L2.78921156,0 C1.27535578,0 0.0456226131,1.06894874 0.0449567839,2.38971407 L0.0153407035,24.6280613 C0.0153407035,25.9480276 1.23617839,27.0104513 2.75861005,27.0109573 L18.0650899,27.0326633 C19.5714884,27.0326633 20.7929653,25.9730628 20.8091317,24.6350392 L20.8315035,2.41363065 C20.8315035,1.08402312 19.6104794,0.0141155779 18.0890065,0.0131301508 M7.05709648,1.11984472 L7.05744271,1.11984472 L13.7332854,1.12157588 C14.0393005,1.12157588 14.2999327,1.34574724 14.2999327,1.61247839 C14.2999327,1.88821156 14.0387945,2.11171709 13.7332854,2.11171709 L7.05667035,2.10985276 C6.74397035,2.10079749 6.49076884,1.88594774 6.49076884,1.60992161 C6.49076884,1.33405528 6.74351759,1.11062965 7.05709648,1.11984472 M10.4970095,25.9205698 C9.57640754,25.9205698 8.82029196,25.1806196 8.8211435,24.2600442 C8.8211435,23.3407472 9.5767005,22.6012774 10.5047598,22.6012774 L10.5053457,22.6012774 C11.4336714,22.6020764 12.1737005,23.3588312 12.1737005,24.2616955 C12.1737005,25.181898 11.431594,25.9215276 10.4970095,25.9205698 M18.2296526,21.3280806 L2.59418056,21.3077028 C2.04196124,21.3068173 1.59485657,20.85862 1.59531891,20.3064001 L1.61397757,3.90322749 C1.61495033,3.35107807 2.06296449,2.90392791 2.61511476,2.90402102 L18.2501063,2.91641767 C18.8023912,2.91653759 19.2497513,3.36460768 19.2493134,3.91689226 C19.2493133,3.91699827 19.2493132,3.91710428 19.2489951,3.91720994 L19.2307627,20.3293845 C19.2303415,20.8816692 18.7821292,21.3288868 18.2298448,21.3282732 C18.2297806,21.3282732 18.2297165,21.3282731 18.2296526,21.3280806 Z" transform="translate(6 2.667)" fill-rule="nonzero"></path></symbol>
</svg>