<svg xmlns="http://www.w3.org/2000/svg" xmlns:xlink="http://www.w3.org/1999/xlink" style="position: absolute; width: 0; height: 0" aria-hidden="true" id="__SVG_SPRITE_NODE__">
<symbol xmlns="http://www.w3.org/2000/svg" viewBox="0 0 32 32" id="device_android"><path d="M16.0138894,0 L1.15482999,0 C0.839786124,0 0.582857143,0.250223414 0.582857143,0.557044981 L0.582857143,26.1096217 C0.582857143,26.4164433 0.839786124,26.6666667 1.15482999,26.6666667 L16.0108307,26.6666667 C16.3258746,26.6666667 16.5828306,26.4164433 16.5828306,26.1096217 L16.5828306,0.557044981 C16.5858622,0.250223414 16.3289333,0 16.0138894,0 Z M13.5828571,21.3333333 L3.58285714,21.3333333 C3.03057239,21.3333333 2.58285714,20.8856181 2.58285714,20.3333333 L2.58285714,3 C2.58285714,2.44771525 3.03057239,2 3.58285714,2 L13.5828571,2 C14.1351419,2 14.5828571,2.44771525 14.5828571,3 L14.5828571,20.3333333 C14.5828571,20.8856181 14.1351419,21.3333333 13.5828571,21.3333333 Z M7.4526487,24.1733691 C7.4526487,23.598451 7.9328612,23.1307715 8.52318612,23.1307715 C9.11351104,23.1307715 9.59372354,23.598451 9.59372354,24.1733691 C9.59372354,24.7482872 9.11351104,25.2159808 8.52318612,25.2159808 C7.9328612,25.2189455 7.4526487,24.751266 7.4526487,24.1733691 Z" transform="translate(7.417 2.667)" fill-rule="nonzero"></path></symbol>
</svg>