<svg xmlns="http://www.w3.org/2000/svg" xmlns:xlink="http://www.w3.org/1999/xlink" style="position: absolute; width: 0; height: 0" aria-hidden="true" id="__SVG_SPRITE_NODE__">
<symbol xmlns="http://www.w3.org/2000/svg" viewBox="0 0 32 32" id="device_linux"><path d="M25.6979559,6.46594118 L6.3041781,6.46594118 C5.96942255,6.46594118 5.68462255,6.58619118 5.44640034,6.82814215 C5.21084479,7.06864216 5.09120034,7.35956371 5.09120034,7.69981862 L5.09120034,20.0322451 C5.09120034,20.3728627 5.21084479,20.6626961 5.44640034,20.9046471 C5.68462257,21.1449657 5.96942257,21.2659412 6.3041781,21.2659412 L25.6979559,21.2659412 C26.0332448,21.2659412 26.3187559,21.1449657 26.5548448,20.9046471 C26.7928892,20.6626961 26.9109337,20.3728627 26.9109337,20.0322451 L26.9109337,7.69981862 C26.9109337,7.35956371 26.7928892,7.06864216 26.554667,6.82814215 C26.3187559,6.58619118 26.0332448,6.46594118 25.6979559,6.46594118 M25.6972448,4 C26.7006226,4 27.5580448,4.36147548 28.2684448,5.08424511 C28.9788448,5.80737746 29.3333337,6.67814707 29.3333337,7.69963726 L29.3333337,20.0322451 C29.3333337,21.0530098 28.9788448,21.9254118 28.2684448,22.6478186 C27.5580448,23.3705882 26.7006226,23.7320637 25.6972448,23.7320637 L17.2124448,23.7320637 L17.2124448,26.1987304 L20.8492448,26.1987304 C21.1838226,26.1987304 21.4696892,26.3189804 21.7061337,26.5609314 C21.9438226,26.80125 22.061867,27.0923529 22.061867,27.4326078 C22.061867,27.7732255 21.9438226,28.0641471 21.7059559,28.3041029 C21.4695114,28.5464166 21.1838225,28.6666667 20.8492448,28.6666667 L11.1520003,28.6666667 C10.8168892,28.6666667 10.5319115,28.5464167 10.2942226,28.3041029 C10.0577781,28.064147 9.93902255,27.7732255 9.93902255,27.4326078 C9.93902255,27.0921716 10.0579559,26.8014314 10.2942226,26.5609314 C10.5319115,26.3189804 10.8168892,26.1987304 11.1520003,26.1987304 L14.7884448,26.1987304 L14.7884448,23.7320637 L6.303467,23.7320637 C5.29937811,23.7320637 4.44213366,23.3705882 3.73226699,22.6478186 C3.021867,21.9254118 2.666667,21.0530098 2.666667,20.0322451 L2.666667,7.69981862 C2.666667,6.67814707 3.021867,5.80737746 3.73226699,5.08424511 C4.44231145,4.36147548 5.29937811,4 6.303467,4 L25.6972448,4 Z M15.4973835,11.2937324 C15.3855978,11.3048036 15.4248835,11.4055157 15.363455,11.4055157 C15.3077407,11.4112299 15.3188121,11.2826612 15.4973835,11.2937324 Z M15.9830978,11.3883366 C15.9273835,11.4083357 15.9216692,11.2819589 15.8213121,11.3151488 C15.9830978,11.2287701 16.0388121,11.3615295 15.9830978,11.3883366 Z M18.4888121,15.523644 C18.6395264,15.0215116 18.5723835,14.8204444 18.4720264,14.3461686 C18.3938121,13.9890332 18.0645264,13.5036862 17.8080978,13.3529751 C17.8748835,13.4086882 17.9977407,13.5704705 18.1263121,13.8161797 C18.3495264,14.2347424 18.5727407,14.8540151 18.4277407,15.3675759 C18.3720264,15.568286 18.2380978,15.5964997 18.1488121,15.6018567 C17.7580978,15.6464986 17.9870264,15.1329379 17.8252407,14.4354525 C17.640955,13.6540402 17.4513121,13.5983271 17.4066693,13.5368998 C17.1777407,12.5212067 16.9266693,12.6219189 16.8541693,12.242284 C16.7927407,11.901934 17.1498835,11.6230112 16.6645264,11.5280132 C16.5138121,11.5001566 16.3016693,11.3494455 16.2180978,11.3383743 C16.1345264,11.3273031 16.0898835,10.7748146 16.4023835,10.7580293 C16.7091692,10.7355297 16.7652407,11.1040935 16.7091693,11.2490904 C16.6198835,11.3940874 16.7148835,11.4498005 16.8655978,11.3998016 C16.988455,11.3608738 16.9102407,11.036952 16.9380978,10.9923101 C16.8598835,10.5233913 16.6645264,10.456607 16.4638121,10.4176792 C15.6938121,10.4791065 16.0395264,11.3273031 15.9616693,11.2490904 C15.8498835,11.13195 15.5263121,11.2380192 15.5263121,11.1655208 C15.5320264,10.7301727 15.3866692,10.4791065 15.185955,10.4737495 C14.9627407,10.4680353 14.873455,10.7805288 14.8623835,10.9590965 C14.8455978,11.126593 14.9573835,11.4780142 15.040955,11.4501577 C15.0966693,11.4333723 15.1916693,11.3219461 15.0913121,11.3273031 C15.040955,11.3273031 14.9630978,11.2044485 14.9516693,11.0594515 C14.945955,10.9144546 15.0020264,10.7694576 15.1916693,10.7748146 C15.4091693,10.7805288 15.4091693,11.2155197 15.3870264,11.2323051 C15.3233454,11.2793674 15.2653387,11.3336576 15.2141693,11.3940874 C15.1416693,11.5112278 15.0020264,11.5447986 14.9463121,11.5947975 C14.8513121,11.6951526 14.8291692,11.8069359 14.9016693,11.8458637 C15.158455,11.9908607 15.0745264,12.1583572 15.4316693,12.1694284 C15.665955,12.1804996 15.8391693,12.1358576 16.000955,12.0858587 C16.1238121,12.0469309 16.5198835,11.9630041 16.603455,11.8180071 C16.6423835,11.7565798 16.6870264,11.7565798 16.7152407,11.7733652 C16.770955,11.8012218 16.7820264,11.907291 16.6427407,11.9408617 C16.4473835,11.9965748 16.2520264,12.102644 16.073455,12.1697855 C15.9005978,12.242284 15.8445264,12.2701405 15.6827407,12.2979971 C15.3145264,12.3647814 15.040955,12.1640713 15.2866693,12.4040663 C15.3702407,12.482279 15.448455,12.5322779 15.6605978,12.5269209 C16.1295264,12.5101355 16.648455,11.9465759 16.698455,12.1976421 C16.7095264,12.2533552 16.553455,12.3204966 16.4305978,12.3819239 C15.9952407,12.5940624 15.688455,13.0179821 15.4095264,12.8729851 C15.158455,12.7390593 14.9073835,12.1197865 14.9127407,12.3987093 C14.918455,12.8283432 14.3491693,13.2079781 14.6113121,13.6990393 C14.438455,13.7436812 14.0530978,14.5640212 13.9973835,14.9879409 C13.9638121,15.2336501 14.0198835,15.5347152 13.958455,15.7022117 C13.8748835,15.9479209 13.4952407,15.4679309 13.6180978,14.8818717 C13.6405978,14.7815167 13.6180978,14.7590171 13.5902407,14.8093732 C13.4395264,15.0829389 13.523455,15.4679309 13.645955,15.7357825 C13.6963121,15.8529229 13.8245264,15.903279 13.9195264,16.003634 C14.1148835,16.2268436 14.8848835,16.7961175 15.0188121,16.9354003 C15.1916692,17.0971826 15.1416692,17.4768175 14.7845264,17.5157453 C14.9688121,17.8618095 15.1473835,17.8950231 15.1416693,18.4589399 C15.3538121,18.3471565 15.2698835,18.1018045 15.1805978,17.9457363 C15.1191692,17.8339529 15.040955,17.783954 15.0577407,17.7560974 C15.0688121,17.739312 15.1805978,17.644314 15.2420264,17.7171697 C15.4316693,17.9293081 15.7888121,17.9682358 16.168455,17.9178797 C16.553455,17.8732378 16.9663121,17.739312 17.1563121,17.4325327 C17.2455978,17.2875358 17.3070264,17.2371797 17.345955,17.2650362 C17.3905978,17.2875358 17.4073835,17.3878908 17.4016693,17.5550302 C17.395955,17.7335979 17.323455,17.9178797 17.273455,18.0682337 C17.2230978,18.2410873 17.2066693,18.3582277 17.3738121,18.3639419 C17.418455,18.0514484 17.5077407,17.7446691 17.5302407,17.4321756 C17.5580978,17.0750402 17.3013121,16.4164825 17.5805978,16.0872037 C17.6530978,15.9979198 17.7423835,15.9868486 17.8652407,15.9868486 C17.8820264,15.5404294 18.568455,15.5740001 18.7970264,15.7579248 C18.7955978,15.6575698 18.5780978,15.5625718 18.4888121,15.523644 Z M15.2127407,10.891955 C15.145955,10.8751697 15.1570264,10.9755247 15.1902407,10.9644535 C15.2127407,10.9644535 15.2405978,10.9980242 15.2291693,11.0480232 C15.2180978,11.1148075 15.223455,11.1598066 15.2738121,11.1598066 C15.2795264,11.1598066 15.2905978,11.1598066 15.2905978,11.1430212 C15.313455,11.0033813 15.2463121,10.9030262 15.2127407,10.891955 Z M16.4963121,10.8583843 C16.4238121,10.8640985 16.445955,10.8973121 16.4795264,10.9087404 C16.5241693,10.9198116 16.5688121,10.9980242 16.5798835,11.0815939 C16.5798835,11.0926651 16.6355978,11.0705227 16.6355978,11.0537374 C16.6416693,10.9198116 16.5241693,10.8530273 16.4963121,10.8583843 Z M19.4263121,18.2189449 C19.1080978,18.3807272 18.6841692,18.7378626 18.5277407,18.8885738 C18.4105978,19.0003571 17.9252407,19.0560703 17.6516693,18.9164303 C17.333455,18.754648 17.500955,18.4978676 17.0098835,18.4810823 C16.7641692,18.4753681 16.5245264,18.4753681 16.2845264,18.4753681 C16.0723835,18.4810823 15.8602407,18.4921535 15.6427407,18.4978676 C14.905955,18.514653 14.833455,18.9889288 14.3591693,18.9721434 C14.0355978,18.9610722 13.6280978,18.7042919 12.9248835,18.5592949 C12.4338121,18.4589399 11.9595264,18.4310833 11.8591693,18.2132307 C11.7588121,17.9953781 11.9820264,17.7500261 11.9988121,17.5378877 C12.0155978,17.2532508 11.7866692,16.8682588 11.9541693,16.7232618 C12.0991693,16.5950502 12.4063121,16.6896911 12.6070264,16.5782649 C12.8191693,16.4554103 12.908455,16.3607694 12.908455,16.0982749 C12.9866693,16.3661264 12.9027407,16.5836219 12.7298835,16.6896911 C12.6238121,16.7564754 12.428455,16.7900462 12.2666693,16.7732608 C12.138455,16.7621896 12.0602407,16.778975 12.0266693,16.8289739 C11.9763121,16.8904012 11.9930978,17.0018274 12.0545264,17.1471816 C12.115955,17.2925357 12.188455,17.3871765 12.1773835,17.5657442 C12.1716692,17.7443119 11.970955,17.9564504 12.0045264,18.1071615 C12.0155978,18.1628746 12.0713121,18.2132307 12.210955,18.2521585 C12.4341693,18.3135858 12.8416693,18.3750131 13.2377407,18.4696539 C13.678455,18.5814373 14.1363121,18.7821474 14.420955,18.7432196 C15.2691693,18.6260792 14.7838121,17.7164554 14.6498835,17.4989599 C13.9298835,16.3718406 13.4555978,15.6350703 13.0763121,15.9254213 C12.9813121,16.003634 12.975955,15.7357824 12.9813121,15.6297132 C12.9980978,15.2615066 13.1820264,15.1275809 13.2938121,14.842944 C13.505955,14.3015267 13.6677407,13.6822539 13.9913121,13.3640463 C14.2313121,13.0515528 14.6105978,12.5437063 14.6830978,12.2758547 C14.6216692,11.6955097 14.6048835,11.0815939 14.5938121,10.5458908 C14.5827407,9.97125998 14.6720264,9.46877047 15.3191693,9.11734925 C15.4755978,9.03377956 15.6820264,9.00020883 15.8995264,9.00020883 C16.2845264,8.99449466 16.7141693,9.10627804 16.9877407,9.30698814 C17.4230978,9.63055281 17.6963121,10.316967 17.6630978,10.8080282 C17.6405978,11.1930202 17.7077407,11.5894405 17.8305978,12.002289 C17.9755978,12.487636 18.2045264,12.827986 18.5727407,13.2186922 C19.013455,13.6876109 19.3595264,14.608306 19.4598835,15.1940081 C19.5491692,15.7407824 19.4263121,16.0811324 19.3091693,16.0979177 C19.1305978,16.1257743 19.0191693,16.689334 18.460955,16.6671916 C18.1038121,16.6504062 18.0702407,16.4382678 17.9698835,16.2543431 C17.8080978,15.9697061 17.6463121,16.05899 17.5848835,16.3604123 C17.5513121,16.5111234 17.5738121,16.734333 17.6238121,16.9018295 C17.7241692,17.2532508 17.6905978,17.5825296 17.6295264,17.9900211 C17.5123835,18.760005 18.170955,18.905002 18.6116693,18.5367954 C19.0470264,18.1739458 19.1416693,18.1182327 19.6888121,17.9285938 C20.5202407,17.6439569 20.2413121,17.3928907 19.7948835,17.2421796 C19.3930978,17.1082538 19.3763121,16.4329108 19.5213121,16.3046991 C19.5548835,17.0300411 19.9341692,17.1361104 20.0905978,17.2364654 C20.7766693,17.6610994 19.833455,18.0125206 19.4263121,18.2189449 Z" fill-rule="nonzero"></path></symbol>
</svg>