<svg xmlns="http://www.w3.org/2000/svg" xmlns:xlink="http://www.w3.org/1999/xlink" style="position: absolute; width: 0; height: 0" aria-hidden="true" id="__SVG_SPRITE_NODE__">
<symbol xmlns="http://www.w3.org/2000/svg" viewBox="0 0 32 32" id="device_apple_watch"><path d="M14.0289855,5.93568842 L13.2463768,1.24003624 C13.1315531,0.531256837 12.515062,0.0134043492 11.7971015,0.0225232119 L5.57971016,0.0225232119 C4.86174959,0.0134043322 4.24525853,0.531256824 4.13043478,1.24003624 L3.36231885,5.93568842 C1.39437166,6.39367635 0.00129135127,8.14703603 0,10.1675725 L0,21.7617754 C0.000974188015,23.832615 1.46235637,25.61538 3.49275363,26.0226449 L4.34782609,30.6893116 C4.46264983,31.398091 5.0791409,31.9159435 5.79710146,31.9068246 L12.0289855,31.9068246 C12.7469461,31.9159435 13.3634371,31.398091 13.4782609,30.6893116 L14.2608696,25.9501811 C16.121106,25.4076239 17.3977603,23.6995077 17.3913287,21.7617754 L17.3913287,10.1675725 C17.390013,8.14703603 15.9969327,6.39367635 14.0289855,5.93568842 L14.0289855,5.93568842 Z M15.3333333,21.8 C15.3333333,22.6468366 14.5871412,23.3333333 13.6666667,23.3333333 L3.66666668,23.3333333 C2.7461921,23.3333333 2,22.6468366 2,21.8 L2,9.53333331 C2,8.6864967 2.7461921,8 3.66666668,8 L13.6666667,8 C14.5871412,8 15.3333333,8.6864967 15.3333333,9.53333331 L15.3333333,21.8 Z M10,15.7764901 C9.995884,15.789202 9.931578,16.0175025 9.7735712,16.2522579 C9.63681625,16.4547596 9.49540701,16.6589007 9.27206623,16.6624845 C9.05243268,16.6664142 8.98214897,16.5291036 8.73138434,16.5291036 C8.48093944,16.5291036 8.40220518,16.6589007 8.19463634,16.6664142 C7.98005774,16.675353 7.81494,16.4452112 7.67766701,16.2436981 C7.39711902,15.8308929 7.18110367,15.0739088 7.47081452,14.5666042 C7.61335697,14.3127809 7.86956508,14.1514386 8.14856704,14.147031 C8.35881918,14.1429859 8.55886022,14.2919952 8.68656158,14.2919952 C8.81775568,14.2919952 9.05974597,14.1116921 9.31503942,14.138669 C9.42193007,14.1433031 9.72091306,14.1841495 9.91354772,14.468315 C9.89839095,14.4788109 9.55580746,14.6845791 9.55962397,15.1033696 C9.56477201,15.6089483 9.99536595,15.7747641 10,15.7764901 M9.14797902,13.8678497 C9.26310168,13.7249204 9.33875197,13.5284493 9.31884783,13.3333333 C9.15447478,13.3398953 8.95420708,13.4444374 8.83518292,13.5865181 C8.72994353,13.7104783 8.63718571,13.9100101 8.66305543,14.1028604 C8.84568946,14.1141512 9.03347558,14.0055187 9.14797902,13.8678497" transform="translate(7.333)" fill-rule="nonzero"></path></symbol>
</svg>