<svg xmlns="http://www.w3.org/2000/svg" xmlns:xlink="http://www.w3.org/1999/xlink" style="position: absolute; width: 0; height: 0" aria-hidden="true" id="__SVG_SPRITE_NODE__">
<symbol xmlns="http://www.w3.org/2000/svg" viewBox="0 0 32 32" id="device_mac"><g fill-rule="nonzero"><path d="M23.8446429,20 L23.8446429,19.047619 L23.8446429,20 Z M2.8922619,20 L2.8922619,20.952381 L2.8922619,20 Z M25.7142857,2.8922619 L26.6666667,2.8922619 L25.7142857,2.8922619 Z M25.7142857,18.1303571 L24.7619048,18.1303571 L25.7142857,18.1303571 Z M0.952380952,2.8922619 L4.4408921e-16,2.8922619 L0.952380952,2.8922619 Z M0.952380952,18.1303571 L1.9047619,18.1303571 L0.952380952,18.1303571 Z M23.8446429,0.952380952 L23.8446429,1.9047619 L23.8446429,0.952380952 Z M2.8922619,0.952380952 L2.8922619,4.4408921e-16 L2.8922619,0.952380952 Z M25.7142857,16.1904762 C26.2402712,16.1904762 26.6666667,15.7640807 26.6666667,15.2380952 C26.6666667,14.7121098 26.2402712,14.2857143 25.7142857,14.2857143 L25.7142857,16.1904762 Z M0.952380952,14.2857143 C0.426395476,14.2857143 4.4408921e-16,14.7121098 4.4408921e-16,15.2380952 C4.4408921e-16,15.7640807 0.426395476,16.1904762 0.952380952,16.1904762 L0.952380952,14.2857143 Z M19.047619,26.6666667 C19.5736045,26.6666667 20,26.2402712 20,25.7142857 C20,25.1883002 19.5736045,24.7619048 19.047619,24.7619048 L19.047619,26.6666667 Z M7.61904762,24.7619048 C7.09306214,24.7619048 6.66666667,25.1883002 6.66666667,25.7142857 C6.66666667,26.2402712 7.09306214,26.6666667 7.61904762,26.6666667 L7.61904762,24.7619048 Z M8.57142857,25.7142857 C8.57142857,26.2402712 8.99782405,26.6666667 9.52380952,26.6666667 C10.049795,26.6666667 10.4761905,26.2402712 10.4761905,25.7142857 L8.57142857,25.7142857 Z M16.1904762,25.7142857 C16.1904762,26.2402712 16.6168717,26.6666667 17.1428571,26.6666667 C17.6688426,26.6666667 18.0952381,26.2402712 18.0952381,25.7142857 L16.1904762,25.7142857 Z M23.8095238,20.3174603 L2.85714286,20.3174603 L2.85714286,22.2222222 L23.8095238,22.2222222 L23.8095238,20.3174603 Z M24.7619048,2.85714286 L24.7619048,19.3650794 L26.6666667,19.3650794 L26.6666667,2.85714286 L24.7619048,2.85714286 Z M0,2.85714286 L0,19.3650794 L1.9047619,19.3650794 L1.9047619,2.85714286 L0,2.85714286 Z M23.8095238,4.4408921e-16 L2.85714286,4.4408921e-16 L2.85714286,1.9047619 L23.8095238,1.9047619 L23.8095238,4.4408921e-16 Z M26.6666667,2.85714286 C26.6666667,1.27918643 25.3874802,0 23.8095238,0 L23.8095238,1.9047619 C24.3355093,1.9047619 24.7619048,2.33115738 24.7619048,2.85714286 L26.6666667,2.85714286 Z M1.9047619,2.85714286 C1.9047619,2.33115738 2.33115738,1.9047619 2.85714286,1.9047619 L2.85714286,4.4408921e-16 C1.27918643,4.4408921e-16 0,1.27918643 0,2.85714286 L1.9047619,2.85714286 L1.9047619,2.85714286 Z M2.85714286,20.3174603 C2.33115738,20.3174603 1.9047619,19.8910648 1.9047619,19.3650794 L0,19.3650794 C0,20.9430358 1.27918643,22.2222222 2.85714286,22.2222222 L2.85714286,20.3174603 Z M23.8095238,22.2222222 C25.3874802,22.2222222 26.6666667,20.9430358 26.6666667,19.3650794 L24.7619048,19.3650794 C24.7619048,19.8910648 24.3355093,20.3174603 23.8095238,20.3174603 L23.8095238,22.2222222 Z M25.7142857,16.1904762 L0.952380952,16.1904762 L0.952380952,21.2698413 L25.7142857,21.2698413 L25.7142857,16.1904762 Z M19.047619,24.7619048 L7.61904762,24.7619048 L7.61904762,26.6666667 L19.047619,26.6666667 L19.047619,24.7619048 Z M16.9962178,25.7142857 L16.9962178,21.9047619 L8.57142857,21.9047619 L8.57142857,25.7142857 L16.9962178,25.7142857 Z M18.0952381,25.7142857 L18.0952381,21.9047619 L16.1904762,21.9047619 L16.1904762,25.7142857 L18.0952381,25.7142857 Z" transform="translate(2.667 2.667)"></path><path d="M2.66666667,2.44315675 C2.66255066,2.45586871 2.59824467,2.6841692 2.44023786,2.91892454 C2.30348291,3.12142625 2.16207368,3.32556741 1.93873289,3.32915115 C1.71909934,3.33308091 1.64881564,3.19577025 1.39805101,3.19577025 C1.14760611,3.19577025 1.06887184,3.32556741 0.861303003,3.33308091 C0.646724408,3.34201965 0.481606664,3.11187786 0.344333674,2.91036477 C0.0637856896,2.49755952 -0.152229662,1.74057551 0.137481186,1.23327083 C0.280023634,0.979447542 0.536231749,0.818105254 0.815233706,0.813697673 C1.02548584,0.80965258 1.22552689,0.958661875 1.35322825,0.958661875 C1.48442235,0.958661875 1.72641264,0.778358735 1.98170609,0.805335623 C2.08859673,0.809969763 2.38757972,0.850816124 2.58021439,1.13498171 C2.56505762,1.14547753 2.22247413,1.35124579 2.22629063,1.7700363 C2.23143867,2.27561501 2.66203262,2.44143079 2.66666667,2.44315675 M1.81464568,0.53451636 C1.92976834,0.391587064 2.00541864,0.195115917 1.9855145,0 C1.82114144,0.00656194601 1.62087375,0.111104071 1.50184959,0.253184804 C1.3966102,0.377145012 1.30385238,0.57667675 1.32972209,0.769527088 C1.51235613,0.780817916 1.70014225,0.672185389 1.81464568,0.53451636" transform="translate(14.667 20)"></path></g></symbol>
</svg>