<svg xmlns="http://www.w3.org/2000/svg" xmlns:xlink="http://www.w3.org/1999/xlink" style="position: absolute; width: 0; height: 0" aria-hidden="true" id="__SVG_SPRITE_NODE__">
<symbol xmlns="http://www.w3.org/2000/svg" viewBox="0 0 64 64" id="doc"><g fill="none" fill-rule="evenodd"><path d="M8,9.3420016 C8,7.12807525 9.81214523,5.33333333 11.9881206,5.33333333 L40,5.33333333 L56,21.3333333 L56,54.671346 C56,56.8779007 54.2347281,58.6666667 51.9901068,58.6666667 L12.0098932,58.6666667 C9.79529033,58.6666667 8,56.8921712 8,54.6579984 L8,9.3420016 Z" fill="#2196F3"></path><path fill="#FDFDFD" fill-rule="nonzero" d="M29.5253333 48L32.7573333 30.688 36.0213333 48 39.7653333 48 44.0533333 25.216 40.1173333 25.216 37.9093333 42.496 34.7413333 25.216 30.7733333 25.216 27.6373333 42.496 25.3973333 25.216 21.4613333 25.216 25.7813333 48z"></path><path d="M40,5.33333333 L56,21.3333333 L41.5052412,21.3333333 C40.6739194,21.3333333 40,20.6662036 40,19.8280922 L40,5.33333333 Z" fill="#000000" opacity=".3"></path></g></symbol>
</svg>