<svg xmlns="http://www.w3.org/2000/svg" xmlns:xlink="http://www.w3.org/1999/xlink" style="position: absolute; width: 0; height: 0" aria-hidden="true" id="__SVG_SPRITE_NODE__">
<symbol xmlns="http://www.w3.org/2000/svg" viewBox="0 0 48 48" id="download"><g fill-rule="evenodd"><path d="M9,28 C9.55228475,28 10,28.4477153 10,29 L10,38 L38,38 L38,29 C38,28.4477153 38.4477153,28 39,28 L41,28 C41.5522847,28 42,28.4477153 42,29 L42,41 C42,41.5522847 41.5522847,42 41,42 L7,42 C6.44771525,42 6,41.5522847 6,41 L6,29 C6,28.4477153 6.44771525,28 7,28 L9,28 Z M24.9350288,6.12 C25.4259486,6.12 25.8342456,6.47375032 25.9189175,6.94024874 L25.9350288,7.12 L25.9347268,26.7448906 L35.1715729,18 L35.3100687,17.8842891 C35.6510879,17.648046 36.1062714,17.648046 36.4472907,17.8842891 L36.5857864,18 L38,19.4142136 L38.1157109,19.5527093 C38.351954,19.8937286 38.351954,20.3489121 38.1157109,20.6899313 L38,20.8284271 L24.6421356,33.6971645 L24.5036398,33.8128754 C24.1626206,34.0491185 23.7074371,34.0491185 23.3664178,33.8128754 L23.2279221,33.6971645 L10.1715729,20.8284271 L10.055862,20.6899313 C9.81961888,20.3489121 9.81961888,19.8937286 10.055862,19.5527093 L10.1715729,19.4142136 L11.5857864,18 L11.7242822,17.8842891 C12.0653015,17.648046 12.520485,17.648046 12.8615042,17.8842891 L13,18 L21.9325024,26.7448906 L21.9350288,7.12 C21.9350288,6.62908022 22.2887792,6.22078326 22.7552776,6.13611134 L22.9350288,6.12 L24.9350288,6.12 Z"></path><path d="M5,22 C5.55228475,22 6,22.4477153 6,23 L6,32 L34,32 L34,23 C34,22.4477153 34.4477153,22 35,22 L37,22 C37.5522847,22 38,22.4477153 38,23 L38,35 C38,35.5522847 37.5522847,36 37,36 L3,36 C2.44771525,36 2,35.5522847 2,35 L2,23 C2,22.4477153 2.44771525,22 3,22 L5,22 Z M20.9350288,0.12 C21.4259486,0.12 21.8342456,0.473750321 21.9189175,0.940248735 L21.9350288,1.12 L21.9347268,20.7448906 L31.1715729,12 L31.3100687,11.8842891 C31.6510879,11.648046 32.1062714,11.648046 32.4472907,11.8842891 L32.5857864,12 L34,13.4142136 L34.1157109,13.5527093 C34.351954,13.8937286 34.351954,14.3489121 34.1157109,14.6899313 L34,14.8284271 L20.6421356,27.6971645 L20.5036398,27.8128754 C20.1626206,28.0491185 19.7074371,28.0491185 19.3664178,27.8128754 L19.2279221,27.6971645 L6.17157288,14.8284271 L6.05586197,14.6899313 C5.81961888,14.3489121 5.81961888,13.8937286 6.05586197,13.5527093 L6.17157288,13.4142136 L7.58578644,12 L7.72428221,11.8842891 C8.06530146,11.648046 8.52048498,11.648046 8.86150422,11.8842891 L9,12 L17.9325024,20.7448906 L17.9350288,1.12 C17.9350288,0.629080222 18.2887792,0.220783259 18.7552776,0.136111339 L18.9350288,0.12 L20.9350288,0.12 Z" transform="translate(4 6)"></path></g></symbol>
</svg>