<svg xmlns="http://www.w3.org/2000/svg" xmlns:xlink="http://www.w3.org/1999/xlink" style="position: absolute; width: 0; height: 0" aria-hidden="true" id="__SVG_SPRITE_NODE__">
<symbol xmlns="http://www.w3.org/2000/svg" viewBox="0 0 12 12" id="drop-menu-trigger"><path d="M3.315622885559082,7.305286441345215L5.6938698855590815,9.130186441345215C5.8277098855590825,9.232876441345216,6.004309885559082,9.261166441345214,6.163519885559082,9.205406441345215C6.214569885559082,9.187846441345215,6.262439885559083,9.162136441345215,6.305269885559082,9.129276441345215L8.684249885559083,7.303816441345215C8.903329885559081,7.1357064413452145,8.944649885559082,6.821836441345215,8.776549885559081,6.602756441345215C8.608439885559083,6.383676441345215,8.294569885559081,6.342356441345215,8.075489885559083,6.510456441345215L5.998989885559082,8.103816441345215L3.924391885559082,6.511926441345215C3.705310885559082,6.343816441345215,3.391432885559082,6.385136441345215,3.223325885559082,6.604216441345215C3.142598585559082,6.709426441345215,3.106970385559082,6.8423964413452145,3.124279465559082,6.973866441345215C3.141588485559082,7.1053464413452145,3.210416985559082,7.224556441345215,3.315622885559082,7.305286441345215ZM3.315622885559082,4.688256441345215L5.6938698855590815,2.863361441345215C5.8277098855590825,2.760665893345215,6.004309885559082,2.7323801413452147,6.163519885559082,2.788137641345215C6.214569885559082,2.805697241345215,6.262439885559083,2.831408541345215,6.305269885559082,2.8642724413452147L8.684249885559083,4.689726441345215C8.903329885559081,4.857836441345215,8.944649885559082,5.171706441345215,8.776549885559081,5.390786441345215C8.608439885559083,5.609866441345215,8.294569885559081,5.651186441345215,8.075489885559083,5.483086441345215L5.998989885559082,3.889726441345215L4.961689885559082,4.6856764413452145L3.924391885559082,5.481616441345215C3.705310885559082,5.649726441345215,3.391432885559082,5.608406441345215,3.223325885559082,5.389326441345215C3.142598585559082,5.284116441345215,3.106970385559082,5.151146441345215,3.124279465559082,5.019676441345215C3.141588485559082,4.888196441345215,3.210416985559082,4.7689864413452145,3.315622885559082,4.688256441345215Z" fill-rule="evenodd"></path></symbol>
</svg>