<svg xmlns="http://www.w3.org/2000/svg" xmlns:xlink="http://www.w3.org/1999/xlink" style="position: absolute; width: 0; height: 0" aria-hidden="true" id="__SVG_SPRITE_NODE__">
<symbol xmlns="http://www.w3.org/2000/svg" viewBox="0 0 96 96" id="duedate"><path d="M78,20H68v-8h-4v8H32v-8h-4v8H18c-1.1,0-2,0.9-2,2v52c0,3.3,2.7,6,6,6h52c3.3,0,6-2.7,6-6V22C80,20.9,79.1,20,78,20z M76,74c0,1.1-0.9,2-2,2H22c-1.1,0-2-0.9-2-2V24h56V74z"></path><path d="M28 36H32V40H28zM40 36H44V40H40zM52 36H56V40H52zM64 36H68V40H64zM28 48H32V52H28zM40 48H44V52H40zM52 48H56V52H52zM64 48H68V52H64zM28 60H32V64H28zM40 60H44V64H40zM52 60H56V64H52z"></path></symbol>
</svg>