<svg xmlns="http://www.w3.org/2000/svg" xmlns:xlink="http://www.w3.org/1999/xlink" style="position: absolute; width: 0; height: 0" aria-hidden="true" id="__SVG_SPRITE_NODE__">
<symbol xmlns="http://www.w3.org/2000/svg" viewBox="-187 189 1024 1024" id="email"><path d="M325,726.5l332.8-230.2v-0.1c0-28.2-23.1-51.3-51.3-51.3H43.5c-28.2,0-51.3,23.1-51.3,51.3v0.1L325,726.5z"></path><path d="M334.1,753.6L334.1,753.6c-1.2,1.2-2.7,2.2-4.2,2.8c-0.8,0.3-1.6,0.5-2.4,0.7c-1.2,0.2-2.4,0.3-3.7,0.2 c-1.6-0.2-3.2-0.6-4.7-1.4c-1.1-0.6-2.2-1.3-3.1-2.3L-7.8,532.5v373.2c0,28.2,23.1,51.3,51.3,51.3h562.9 c28.2,0,51.3-23.1,51.3-51.3V532.5L334.1,753.6z"></path></symbol>
</svg>