<svg xmlns="http://www.w3.org/2000/svg" xmlns:xlink="http://www.w3.org/1999/xlink" style="position: absolute; width: 0; height: 0" aria-hidden="true" id="__SVG_SPRITE_NODE__">
<symbol xmlns="http://www.w3.org/2000/svg" viewBox="0 0 16 16" id="emoji"><path d="M15.333366507720948,8.000159586029053Q15.333366507720948,8.180189586029051,15.324466507720947,8.359989586029052Q15.315666507720946,8.539799586029051,15.298066507720947,8.718959586029053Q15.280366507720947,8.898109586029053,15.253966507720948,9.076189586029052Q15.227566507720947,9.254259586029052,15.192466507720948,9.430829586029052Q15.157266507720948,9.607389586029052,15.113566507720947,9.782019586029053Q15.069866507720947,9.956649586029053,15.017566507720947,10.128919586029053Q14.965266507720948,10.301189586029052,14.904666507720947,10.470689586029053Q14.843966507720948,10.640189586029052,14.775066507720947,10.806529586029052Q14.706266507720947,10.972829586029052,14.629266507720947,11.135529586029053Q14.552266507720947,11.298329586029054,14.467466507720948,11.457029586029053Q14.382566507720947,11.615829586029053,14.289966507720948,11.770229586029053Q14.197466507720947,11.924629586029052,14.097466507720947,12.074329586029053Q13.997466507720947,12.224029586029053,13.890166507720947,12.368629586029053Q13.782966507720948,12.513229586029052,13.668766507720948,12.652429586029053Q13.554566507720947,12.791529586029053,13.433666507720947,12.924929586029053Q13.312766507720948,13.058329586029053,13.185466507720948,13.185629586029053Q13.058166507720948,13.312929586029053,12.924766507720948,13.433829586029052Q12.791366507720948,13.554729586029053,12.652266507720947,13.668929586029053Q12.513066507720946,13.783129586029053,12.368466507720948,13.890329586029052Q12.223866507720947,13.997629586029053,12.074166507720948,14.097629586029052Q11.924466507720947,14.197629586029052,11.770066507720948,14.290129586029053Q11.615666507720947,14.382729586029052,11.456866507720948,14.467629586029053Q11.298166507720948,14.552429586029053,11.135366507720947,14.629429586029053Q10.972666507720946,14.706429586029053,10.806366507720947,14.775229586029052Q10.640026507720947,14.844129586029053,10.470526507720948,14.904829586029052Q10.301026507720946,14.965429586029053,10.128756507720947,15.017729586029052Q9.956476507720947,15.070029586029053,9.781856507720947,15.113729586029052Q9.607226507720947,15.157429586029053,9.430666507720947,15.192629586029053Q9.254096507720947,15.227729586029053,9.076026507720947,15.254129586029054Q8.897946507720947,15.280529586029052,8.718796507720947,15.298229586029052Q8.539636507720946,15.315829586029052,8.359826507720946,15.324629586029053Q8.180026507720946,15.333529586029053,7.999996507720947,15.333529586029053Q7.8199765077209475,15.333529586029053,7.640166507720947,15.324629586029053Q7.460366507720948,15.315829586029052,7.281206507720947,15.298229586029052Q7.102046507720948,15.280529586029052,6.923976507720948,15.254129586029054Q6.745906507720948,15.227729586029053,6.569336507720947,15.192629586029053Q6.3927765077209475,15.157429586029053,6.218146507720947,15.113729586029052Q6.043516507720947,15.070029586029053,5.871246507720947,15.017729586029052Q5.698976507720947,14.965429586029053,5.529476507720947,14.904829586029052Q5.359976507720948,14.844129586029053,5.193656507720947,14.775229586029052Q5.027336507720947,14.706429586029053,4.864596507720948,14.629429586029053Q4.701856507720947,14.552429586029053,4.543086507720947,14.467629586029053Q4.384326507720948,14.382729586029052,4.229916507720947,14.290129586029053Q4.075506507720947,14.197629586029052,3.9258165077209473,14.097629586029052Q3.776136507720947,13.997629586029053,3.631536507720947,13.890329586029052Q3.486946507720947,13.783129586029053,3.347786507720947,13.668929586029053Q3.2086265077209473,13.554729586029053,3.0752365077209474,13.433829586029052Q2.9418465077209475,13.312929586029053,2.814546507720947,13.185629586029053Q2.687256507720947,13.058329586029053,2.5663565077209474,12.924929586029053Q2.445466507720947,12.791529586029053,2.3312565077209473,12.652429586029053Q2.2170465077209474,12.513229586029052,2.1098065077209474,12.368629586029053Q2.0025665077209474,12.224029586029053,1.9025565077209472,12.074329586029053Q1.8025365077209472,11.924629586029052,1.7099865077209473,11.770229586029053Q1.6174395077209471,11.615829586029053,1.5325775077209474,11.457029586029053Q1.4477145077209472,11.298329586029054,1.3707445077209472,11.135529586029053Q1.2937755077209472,10.972829586029052,1.2248835077209472,10.806529586029052Q1.1559915077209473,10.640189586029052,1.0953435077209472,10.470689586029053Q1.0346955077209472,10.301189586029052,0.9824375077209473,10.128919586029053Q0.9301795077209473,9.956639586029052,0.8864375077209472,9.782019586029053Q0.8426955077209473,9.607389586029052,0.8075745077209473,9.430829586029052Q0.7724535077209472,9.254259586029052,0.7460388077209472,9.076189586029052Q0.7196239077209473,8.898109586029053,0.7019785077209473,8.718959586029053Q0.6843331077209472,8.539799586029051,0.6754998277209473,8.359989586029052Q0.6666665077209473,8.180189586029051,0.6666665077209473,8.000159586029053Q0.6666665077209473,7.820139586029053,0.6754998277209473,7.640329586029052Q0.6843331077209472,7.460529586029053,0.7019785077209473,7.281369586029053Q0.7196239077209473,7.102209586029053,0.7460388077209472,6.924139586029053Q0.7724535077209472,6.746069586029053,0.8075745077209473,6.569499586029052Q0.8426955077209473,6.392939586029053,0.8864375077209472,6.2183095860290525Q0.9301795077209473,6.043679586029053,0.9824375077209473,5.871409586029053Q1.0346955077209472,5.699139586029053,1.0953435077209472,5.529639586029052Q1.1559915077209473,5.360139586029053,1.2248835077209472,5.193819586029052Q1.2937755077209472,5.027499586029053,1.3707445077209472,4.864759586029053Q1.4477145077209472,4.702019586029053,01.5325775077209474,4.543249586029052Q1.6174395077209471,4.384489586029053,1.7099865077209473,4.230079586029053Q1.8025365077209472,4.075669586029052,1.9025565077209472,3.9259795860290527Q2.0025665077209474,3.7762995860290527,2.1098065077209474,3.6316995860290526Q2.2170465077209474,3.4871095860290526,2.3312565077209473,3.3479495860290527Q2.445466507720947,3.2087895860290527,2.5663565077209474,3.075399586029053Q2.687256507720947,2.942009586029053,2.814546507720947,2.8147095860290525Q2.9418465077209475,2.6874195860290526,3.0752365077209474,2.566519586029053Q3.2086265077209473,2.4456295860290527,3.347786507720947,2.3314195860290527Q3.486946507720947,2.217209586029053,3.631536507720947,2.109969586029053Q3.776136507720947,2.002729586029053,3.9258165077209473,1.9027195860290527Q4.075506507720947,1.8026995860290527,4.229916507720947,1.7101495860290528Q4.384326507720948,1.6176025860290526,4.543086507720947,1.5327405860290528Q4.701856507720947,1.4478775860290527,4.864596507720948,1.3709075860290527Q5.027336507720947,1.2939385860290527,5.193656507720947,1.2250465860290527Q5.359976507720948,1.1561545860290527,5.529476507720947,1.0955065860290527Q5.698976507720947,1.0348585860290527,5.871246507720947,0.9826005860290528Q6.043516507720947,0.9303425860290527,6.218146507720947,0.8866005860290527Q6.3927765077209475,0.8428585860290527,6.569336507720947,0.8077375860290528Q6.745906507720948,0.7726165860290527,6.923976507720948,0.7462018860290527Q7.102046507720948,0.7197869860290528,7.281206507720947,0.7021415860290527Q7.460366507720948,0.6844961860290527,7.640166507720947,0.6756629060290528Q7.8199765077209475,0.6668295860290527,7.999996507720947,0.6668295860290527Q8.180026507720946,0.6668295860290527,8.359826507720946,0.6756629060290528Q8.539636507720946,0.6844961860290527,8.718796507720947,0.7021415860290527Q8.897946507720947,0.7197869860290528,9.076026507720947,0.7462018860290527Q9.254096507720947,0.7726165860290527,9.430666507720947,0.8077375860290528Q9.607226507720947,0.8428585860290527,9.781856507720947,0.8866005860290527Q9.956486507720948,0.9303425860290527,10.128756507720947,0.9826005860290528Q10.301026507720946,1.0348585860290527,10.470526507720948,1.0955065860290527Q10.640026507720947,1.1561545860290527,10.806366507720947,1.2250465860290527Q10.972666507720946,1.2939385860290527,11.135366507720947,1.3709075860290527Q11.298166507720948,1.4478775860290527,11.456866507720948,1.5327405860290528Q11.615666507720947,1.6176025860290526,11.770066507720948,1.7101495860290528Q11.924466507720947,1.8026995860290527,12.074166507720948,1.9027195860290527Q12.223866507720947,2.002729586029053,12.368466507720948,2.109969586029053Q12.513066507720946,2.217209586029053,12.652266507720947,2.3314195860290527Q12.791366507720948,2.4456295860290527,12.924766507720948,2.566519586029053Q13.058166507720948,2.6874195860290526,13.185466507720948,2.8147095860290525Q13.312766507720948,2.942009586029053,13.433666507720947,3.075399586029053Q13.554566507720947,3.2087895860290527,13.668766507720948,3.3479495860290527Q13.782966507720948,3.4871095860290526,13.890166507720947,3.6316995860290526Q13.997466507720947,3.7762995860290527,14.097466507720947,3.9259795860290527Q14.197466507720947,4.075669586029052,14.289966507720948,4.230079586029053Q14.382566507720947,4.384489586029053,14.467466507720948,4.543249586029052Q14.552266507720947,4.702019586029053,14.629266507720947,4.864759586029053Q14.706266507720947,5.027499586029053,14.775066507720947,5.193819586029052Q14.843966507720948,5.360139586029053,14.904666507720947,5.529639586029052Q14.965266507720948,5.699139586029053,15.017566507720947,5.871409586029053Q15.069866507720947,6.043679586029053,15.113566507720947,6.2183095860290525Q15.157266507720948,6.392939586029053,15.192466507720948,6.569499586029052Q15.227566507720947,6.746069586029053,15.253966507720948,6.924139586029053Q15.280366507720947,7.102209586029053,15.298066507720947,7.281369586029053Q15.315666507720946,7.460529586029053,15.324466507720947,7.640329586029052Q15.333366507720948,7.820139586029053,15.333366507720948,8.000159586029053ZM13.999966507720947,8.000159586029053Q13.999966507720947,7.852869586029053,13.992766507720948,7.705759586029052Q13.985566507720947,7.558639586029053,13.971066507720947,7.412059586029053Q13.956666507720946,7.265479586029053,13.935066507720947,7.119779586029053Q13.913466507720948,6.9740795860290525,13.884666507720947,6.829619586029053Q13.855966507720947,6.6851595860290525,13.820166507720947,6.542279586029053Q13.784366507720947,6.399399586029053,13.741666507720947,6.2584495860290525Q13.698866507720947,6.117509586029053,13.649266507720947,5.9788195860290525Q13.599666507720947,5.840139586029053,13.543266507720947,5.704059586029053Q13.486866507720947,5.567979586029053,13.423966507720948,5.4348295860290525Q13.360966507720947,5.301679586029053,13.291566507720947,5.171779586029053Q13.222066507720948,5.041879586029053,13.146366507720947,4.915549586029052Q13.070666507720947,4.7892095860290524,12.988866507720948,4.666739586029053Q12.906966507720947,4.544269586029053,12.819266507720947,4.425969586029053Q12.731466507720947,4.307659586029052,12.638066507720946,4.193799586029053Q12.544666507720947,4.079949586029053,12.445666507720947,3.970809586029053Q12.346766507720947,3.861669586029053,12.242666507720948,3.7575195860290527Q12.138466507720947,3.653369586029053,12.029366507720948,3.554459586029053Q11.920266507720948,3.4555395860290528,11.806366507720947,3.3620995860290526Q11.692466507720948,3.268659586029053,11.574166507720948,3.1809195860290527Q11.455866507720947,3.0931795860290525,11.333466507720948,3.011349586029053Q11.210966507720947,2.9295095860290528,11.084566507720947,2.8537895860290527Q10.958266507720948,2.7780695860290527,10.828366507720947,2.7086395860290526Q10.698466507720948,2.6391995860290525,10.565326507720947,2.5762295860290525Q10.432176507720948,2.513249586029053,10.296096507720947,2.4568895860290527Q10.160016507720947,2.400519586029053,10.021336507720948,2.350899586029053Q9.882656507720947,2.301279586029053,9.741706507720947,2.2585195860290526Q9.600756507720947,2.2157595860290527,9.457876507720947,2.1799795860290527Q9.315006507720947,2.1441895860290527,9.170536507720946,2.1154495860290528Q9.026076507720948,2.086719586029053,8.880386507720948,2.065099586029053Q8.734686507720948,2.043489586029053,8.588106507720948,2.029059586029053Q8.441516507720948,2.0146195860290526,8.294406507720947,2.0073895860290527Q8.147296507720947,2.000159586029053,7.999996507720947,2.000159586029053Q7.8527065077209475,2.000159586029053,7.705596507720947,2.0073895860290527Q7.558476507720948,2.0146195860290526,7.4118965077209475,2.029059586029053Q7.265316507720947,2.043489586029053,7.119616507720948,2.065099586029053Q6.973916507720947,2.086719586029053,6.8294565077209475,2.1154495860290528Q6.684996507720947,2.1441895860290527,6.542116507720947,2.1799795860290527Q6.399236507720947,2.2157595860290527,6.258286507720947,2.2585195860290526Q6.1173465077209475,2.301279586029053,5.978656507720947,2.350899586029053Q5.839976507720947,2.400519586029053,5.703896507720947,2.4568895860290527Q5.567816507720948,2.513249586029053,5.434666507720947,2.5762295860290525Q5.301516507720947,2.6391995860290525,5.171616507720947,2.7086395860290526Q5.041716507720947,2.7780695860290527,4.915386507720947,2.8537895860290527Q4.789046507720947,2.9295095860290528,4.666576507720947,3.011349586029053Q4.544106507720947,3.0931795860290525,4.425806507720948,3.1809195860290527Q4.307496507720947,3.268659586029053,4.193636507720948,3.3620995860290526Q4.079786507720947,3.4555395860290528,3.9706465077209474,3.554459586029053Q3.8615065077209474,3.653369586029053,3.757356507720947,3.7575195860290527Q3.6532065077209475,3.861669586029053,3.5542965077209474,3.970809586029053Q3.4553765077209473,4.079949586029053,3.361936507720947,4.193799586029053Q3.2684965077209474,4.307659586029052,3.180756507720947,4.425969586029053Q3.093016507720947,4.544269586029053,3.0111865077209474,4.666739586029053Q2.9293465077209473,4.7892095860290524,2.8536265077209473,4.915549586029052Q2.7779065077209473,5.041879586029053,2.708476507720947,5.171779586029053Q2.639036507720947,5.301679586029053,2.576066507720947,5.4348295860290525Q2.5130865077209474,5.567979586029053,2.4567265077209473,5.704059586029053Q2.4003565077209474,5.840139586029053,2.3507365077209474,5.9788195860290525Q2.3011165077209474,6.117509586029053,2.258356507720947,6.2584495860290525Q2.215596507720947,6.399399586029053,2.1798165077209473,6.542279586029053Q2.1440265077209473,6.6851595860290525,2.1152865077209473,6.829619586029053Q2.0865565077209474,6.9740795860290525,2.0649365077209474,7.119779586029053Q2.0433265077209475,7.265479586029053,2.0288965077209475,7.412059586029053Q2.014456507720947,7.558639586029053,2.0072265077209472,7.705759586029052Q1.9999965077209472,7.852869586029053,1.9999965077209472,8.000159586029053Q1.9999965077209472,8.147459586029052,2.0072265077209472,8.294569586029052Q2.014456507720947,8.441679586029053,2.028886507720947,8.588269586029053Q2.0433265077209475,8.734849586029053,2.0649365077209474,8.880549586029053Q2.0865565077209474,9.026239586029053,2.1152865077209473,9.170699586029052Q2.1440265077209473,9.315169586029052,2.1798165077209473,9.458039586029052Q2.215596507720947,9.600919586029052,2.258356507720947,9.741869586029052Q2.3011165077209474,9.882819586029052,2.3507365077209474,10.021499586029053Q2.4003565077209474,10.160179586029052,2.4567265077209473,10.296259586029052Q2.5130865077209474,10.432339586029054,2.576066507720947,10.565489586029052Q2.639036507720947,10.698629586029053,2.708476507720947,10.828529586029052Q2.7779065077209473,10.958429586029053,2.8536265077209473,11.084729586029052Q2.9293465077209473,11.211129586029053,3.0111865077209474,11.333629586029053Q3.093016507720947,11.456029586029052,3.180756507720947,11.574329586029053Q3.2684965077209474,11.692629586029053,3.361936507720947,11.806529586029052Q3.4553765077209473,11.920429586029053,3.5542965077209474,12.029529586029053Q3.6532065077209475,12.138629586029053,3.757356507720947,12.242829586029053Q3.8615065077209474,12.346929586029052,3.9706465077209474,12.445829586029053Q4.079786507720947,12.544829586029053,4.193636507720948,12.638229586029052Q4.307496507720947,12.731629586029053,4.425806507720948,12.819429586029052Q4.544106507720947,12.907129586029052,4.666576507720947,12.989029586029053Q4.789046507720947,13.070829586029053,4.915386507720947,13.146529586029052Q5.041716507720947,13.222229586029053,5.171616507720947,13.291729586029053Q5.301516507720947,13.361129586029053,5.434666507720947,13.424129586029053Q5.567816507720948,13.487029586029053,5.703896507720947,13.543429586029053Q5.839976507720947,13.599829586029053,5.978656507720947,13.649429586029052Q6.1173465077209475,13.699029586029052,6.258286507720947,13.741829586029052Q6.399236507720947,13.784529586029052,6.542116507720947,13.820329586029052Q6.684996507720947,13.856129586029052,6.8294565077209475,13.884829586029053Q6.973916507720947,13.913629586029053,7.119616507720948,13.935229586029052Q7.265316507720947,13.956829586029052,7.4118965077209475,13.971229586029052Q7.558476507720948,13.985729586029052,7.705596507720947,13.992929586029053Q7.8527065077209475,14.000129586029052,7.999996507720947,14.000129586029052Q8.147296507720947,14.000129586029052,8.294406507720947,13.992929586029053Q8.441516507720948,13.985729586029052,8.588106507720948,13.971229586029052Q8.734686507720948,13.956829586029052,8.880386507720948,13.935229586029052Q9.026076507720948,13.913629586029053,9.170536507720946,13.884829586029053Q9.315006507720947,13.856129586029052,9.457876507720947,13.820329586029052Q9.600756507720947,13.784529586029052,9.741706507720947,13.741829586029052Q9.882656507720947,13.699029586029052,10.021336507720948,13.649429586029052Q10.160016507720947,13.599829586029053,10.296096507720947,13.543429586029053Q10.432176507720948,13.487029586029053,10.565326507720947,13.424129586029053Q10.698466507720948,13.361129586029053,10.828366507720947,13.291729586029053Q10.958266507720948,13.222229586029053,11.084566507720947,13.146529586029052Q11.210966507720947,13.070829586029053,11.333466507720948,12.989029586029053Q11.455866507720947,12.907129586029052,11.574166507720948,12.819429586029052Q11.692466507720948,12.731629586029053,11.806366507720947,12.638229586029052Q11.920266507720948,12.544829586029053,12.029366507720948,12.445829586029053Q12.138466507720947,12.346929586029052,12.242666507720948,12.242829586029053Q12.346766507720947,12.138629586029053,12.445666507720947,12.029529586029053Q12.544666507720947,11.920429586029053,12.638066507720946,11.806529586029052Q12.731466507720947,11.692629586029053,12.819266507720947,11.574329586029053Q12.906966507720947,11.456029586029052,12.988866507720948,11.333629586029053Q13.070666507720947,11.211129586029053,13.146366507720947,11.084729586029052Q13.222066507720948,10.958429586029053,13.291566507720947,10.828529586029052Q13.360966507720947,10.698629586029053,13.423966507720948,10.565489586029052Q13.486866507720947,10.432339586029054,13.543266507720947,10.296259586029052Q13.599666507720947,10.160179586029052,13.649266507720947,10.021499586029053Q13.698866507720947,9.882819586029052,13.741666507720947,9.741869586029052Q13.784366507720947,9.600919586029052,13.820166507720947,9.458039586029052Q13.855966507720947,9.315169586029052,13.884666507720947,9.170699586029052Q13.913466507720948,9.026239586029053,13.935066507720947,8.880549586029053Q13.956666507720946,8.734849586029053,13.971066507720947,8.588269586029053Q13.985566507720947,8.441679586029053,13.992766507720948,8.294569586029052Q13.999966507720947,8.147459586029052,13.999966507720947,8.000159586029053ZM6.666666507720947,6.333329586029053Q6.666666507720947,6.431819586029053,6.6474465077209475,6.528419586029052Q6.628236507720947,6.625019586029053,6.590546507720947,6.716019586029053Q6.552856507720947,6.807009586029053,6.498136507720948,6.888899586029053Q6.443416507720947,6.970799586029052,6.373776507720947,7.040439586029053Q6.304126507720947,7.110079586029053,6.222236507720948,7.164799586029052Q6.140346507720947,7.219519586029053,6.049346507720947,7.257209586029052Q5.958356507720947,7.294899586029053,5.861756507720948,7.314119586029053Q5.765156507720947,7.333329586029053,5.666666507720947,7.333329586029053Q5.568176507720947,7.333329586029053,5.471576507720947,7.314119586029053Q5.374976507720947,7.294899586029053,5.283986507720948,7.257209586029052Q5.192986507720947,7.219519586029053,5.111096507720947,7.164799586029052Q5.029206507720947,7.110079586029053,4.959556507720947,7.040439586029053Q4.889916507720947,6.970799586029052,4.835196507720947,6.888899586029053Q4.780476507720947,6.807009586029053,4.742786507720948,6.716019586029053Q4.705096507720947,6.625019586029053,4.685876507720947,6.528419586029052Q4.666666507720947,6.431819586029053,4.666666507720947,6.333329586029053Q4.666666507720947,6.234839586029053,4.685876507720947,6.138239586029052Q4.705096507720947,6.041639586029053,4.742786507720948,5.950649586029053Q4.780476507720947,5.859659586029053,4.835196507720947,5.7777595860290525Q4.889916507720947,5.695869586029053,4.959556507720947,5.626229586029052Q5.029206507720947,5.556579586029053,5.111096507720947,5.5018595860290525Q5.192986507720947,5.447139586029053,5.283986507720948,5.409449586029052Q5.374976507720947,5.371759586029053,5.471576507720947,5.352549586029053Q5.568176507720947,5.333329586029053,5.666666507720947,5.333329586029053Q5.765156507720947,5.333329586029053,5.861756507720948,5.352549586029053Q5.958356507720947,5.371759586029053,6.049346507720947,5.409449586029052Q6.140346507720947,5.447139586029053,6.222236507720948,5.5018595860290525Q6.304126507720947,5.556579586029053,6.373776507720947,5.626229586029052Q6.443416507720947,5.695869586029053,6.498136507720948,5.7777595860290525Q6.552856507720947,5.859659586029053,6.590546507720947,5.950649586029053Q6.628236507720947,6.041639586029053,6.6474465077209475,6.138239586029052Q6.666666507720947,6.234839586029053,6.666666507720947,6.333329586029053ZM11.333266507720948,6.333329586029053Q11.333266507720948,6.431819586029053,11.314066507720947,6.528419586029052Q11.294866507720947,6.625019586029053,11.257166507720948,6.716019586029053Q11.219466507720947,6.807009586029053,11.164766507720948,6.888899586029053Q11.110066507720948,6.970799586029052,11.040366507720947,7.040439586029053Q10.970766507720947,7.110079586029053,10.888866507720948,7.164799586029052Q10.806966507720947,7.219519586029053,10.715966507720948,7.257209586029052Q10.624976507720948,7.294899586029053,10.528386507720947,7.314119586029053Q10.431786507720947,7.333329586029053,10.333296507720947,7.333329586029053Q10.234796507720947,7.333329586029053,10.138196507720947,7.314119586029053Q10.041606507720948,7.294899586029053,9.950606507720947,7.257209586029052Q9.859616507720947,7.219519586029053,9.777716507720948,7.164799586029052Q9.695826507720946,7.110079586029053,9.626186507720947,7.040439586029053Q9.556536507720947,6.970799586029052,9.501826507720947,6.888899586029053Q9.447106507720948,6.807009586029053,9.409416507720946,6.716019586029053Q9.371726507720947,6.625019586029053,9.352506507720948,6.528419586029052Q9.333296507720947,6.431819586029053,9.333296507720947,6.333329586029053Q9.333296507720947,6.234839586029053,9.352506507720948,6.138239586029052Q9.371726507720947,6.041639586029053,9.409416507720946,5.950649586029053Q9.447106507720948,5.859659586029053,9.501826507720947,5.7777595860290525Q9.556536507720947,5.695869586029053,9.626186507720947,5.626229586029052Q9.695826507720946,5.556579586029053,9.777716507720948,5.5018595860290525Q9.859616507720947,5.447139586029053,9.950606507720947,5.409449586029052Q10.041606507720948,5.371759586029053,10.138196507720947,5.352549586029053Q10.234796507720947,5.333329586029053,10.333296507720947,5.333329586029053Q10.431786507720947,5.333329586029053,10.528386507720947,5.352549586029053Q10.624976507720948,5.371759586029053,10.715966507720948,5.409449586029052Q10.806966507720947,5.447139586029053,10.888866507720948,5.5018595860290525Q10.970766507720947,5.556579586029053,11.040366507720947,5.626229586029052Q11.110066507720948,5.695869586029053,11.164766507720948,5.7777595860290525Q11.219466507720947,5.859659586029053,11.257166507720948,5.950649586029053Q11.294866507720947,6.041639586029053,11.314066507720947,6.138239586029052Q11.333266507720948,6.234839586029053,11.333266507720948,6.333329586029053ZM7.999996507720947,11.666629586029053Q9.555556507720947,11.666629586029053,11.066666507720948,10.533329586029053C11.208066507720947,10.427249586029053,11.301666507720947,10.269319586029052,11.326666507720947,10.094279586029053C11.331066507720948,10.063049586029052,11.333366507720948,10.031549586029053,11.333366507720948,9.999999586029054L11.333366507720948,9.997709586029053C11.332866507720947,9.854249586029052,11.286066507720948,9.714769586029053,11.199966507720948,9.599999586029053C11.074066507720948,9.432129586029053,10.876466507720947,9.333329586029052,10.666666507720947,9.333329586029052L10.657916507720948,9.333389586029053C10.516676507720947,9.335249586029052,10.379676507720948,9.381909586029053,10.266666507720947,9.466669586029052Q9.111106507720947,10.333329586029052,7.999996507720947,10.333329586029052Q6.888886507720947,10.333329586029052,5.7333365077209475,9.466669586029052C5.617936507720947,9.380119586029053,5.477576507720947,9.333329586029052,5.333336507720947,9.333329586029052L5.327466507720947,9.333359586029053C5.2978765077209475,9.333619586029053,5.268346507720947,9.335849586029052,5.239056507720948,9.340029586029052C5.064016507720948,9.365039586029052,4.906086507720947,9.458549586029052,4.799996507720947,9.599999586029053C4.713456507720947,9.715399586029053,4.666666507720947,9.855749586029052,4.666666507720947,9.999999586029054L4.666696507720947,10.005869586029053C4.666956507720947,10.035459586029052,4.669186507720947,10.064989586029053,4.673366507720948,10.094279586029053C4.698376507720948,10.269319586029052,4.791886507720947,10.427249586029053,4.933336507720948,10.533329586029053Q6.444446507720947,11.666629586029053,7.999996507720947,11.666629586029053Z" fill-rule="evenodd"></path></symbol>
</svg>