<svg xmlns="http://www.w3.org/2000/svg" xmlns:xlink="http://www.w3.org/1999/xlink" style="position: absolute; width: 0; height: 0" aria-hidden="true" id="__SVG_SPRITE_NODE__">
<symbol xmlns="http://www.w3.org/2000/svg" viewBox="0 0 20 20" id="event-calendar"><path d="M0.833326159699823,14.993666626930237L0.833324134349823,5.0062966269302365C0.833324134349823,3.165346626930237,2.321654134349823,1.6666666269302368,4.162604134349823,1.6666666269302368L15.806724134349823,1.6666666269302368C17.647624134349822,1.6666666269302368,19.166624134349824,3.165346626930237,19.166624134349824,5.0062966269302365C19.166624134349824,8.227036626930236,19.166624134349824,11.772966626930236,19.166624134349824,14.993666626930237C19.166624134349824,16.834666626930236,17.707624134349825,18.333366626930236,15.866624134349824,18.333366626930236L4.133324134349823,18.333366626930236C2.292384134349823,18.333366626930236,0.833326157799823,16.834666626930236,0.833326159699823,14.993666626930237ZM2.4999741343498227,15.008766626930237C2.499954134349823,12.613166626930237,2.499964134349823,9.836146626930237,2.4999741343498227,7.262866626930236L2.4999741343498227,6.833336626930237L17.50002413434982,6.833336626930237L17.50002413434982,7.2845666269302365C17.50002413434982,9.851756626930237,17.499924134349822,12.619966626930237,17.50002413434982,15.008766626930237C17.50002413434982,15.929266626930238,16.76112413434982,16.666666626930237,15.840624134349824,16.666666626930237C12.797224134349824,16.666666626930237,9.753844134349823,16.666666626930237,6.710454134349823,16.666666626930237L4.159374134349823,16.666666626930237C3.238924134349823,16.666666626930237,2.4999841343498233,15.929166626930236,2.4999741343498227,15.008766626930237ZM17.50002413434982,5.166666626930237L17.50002413434982,4.991256626930237C17.50002413434982,4.070776626930237,16.76112413434982,3.3333366269302367,15.840624134349824,3.3333366269302367L12.506924134349823,3.3333366269302367C9.724404134349824,3.3333466269302368,6.941884134349823,3.333356626930237,4.159364134349823,3.3333466269302368C3.238884134349823,3.3333366269302367,2.499994134349823,4.070776626930237,2.4999841343498233,4.991256626930237L2.4999841343498233,5.166666626930237L17.50002413434982,5.166666626930237ZM12.473424134349823,8.973456626930236L14.874924134349824,11.128286626930237Q14.994324134349823,11.235436626930237,15.058924134349823,11.375446626930238Q15.123524134349823,11.515456626930236,15.123524134349823,11.666966626930236Q15.123524134349823,11.818566626930236,15.058924134349823,11.958566626930237Q14.994324134349823,12.098566626930237,14.874924134349824,12.205666626930237L12.473324134349824,14.360666626930238Q12.414224134349823,14.413666626930237,12.344724134349823,14.455366626930237Q12.275124134349824,14.497066626930236,12.197924134349822,14.525766626930237Q12.120624134349823,14.554466626930237,12.038624134349822,14.569166626930237Q11.956624134349823,14.583766626930236,11.873024134349823,14.583766626930236Q11.789424134349822,14.583766626930236,11.707324134349824,14.569166626930237Q11.625324134349823,14.554466626930237,11.548124134349823,14.525766626930237Q11.470824134349822,14.497066626930236,11.401324134349823,14.455366626930237Q11.331724134349823,14.413666626930237,11.272624134349822,14.360666626930238Q11.153224134349824,14.253466626930237,11.088624134349823,14.113466626930236Q11.023924134349823,13.973466626930238,11.023924134349823,13.821866626930237Q11.023924134349823,13.670366626930237,11.088624134349823,13.530366626930237Q11.153224134349824,13.390366626930236,11.272624134349822,13.283166626930237L12.218524134349822,12.434466626930236L5.636854134349823,12.434466626930236Q5.561824134349823,12.434466626930236,5.488224134349823,12.419866626930236Q5.414634134349823,12.405266626930237,5.345314134349823,12.376466626930236Q5.275984134349823,12.347766626930238,5.213594134349823,12.306066626930237Q5.151204134349823,12.264366626930236,5.098154134349823,12.211366626930237Q5.045094134349823,12.158266626930237,5.003404134349823,12.095866626930237Q4.961714134349823,12.033566626930236,4.933004134349823,11.964166626930236Q4.904284134349823,11.894866626930236,4.889654134349823,11.821266626930237Q4.875014134349823,11.747666626930236,4.875014134349823,11.672666626930237Q4.875014134349823,11.597616626930236,4.889644134349823,11.524026626930237Q4.904284134349823,11.450426626930236,4.933004134349823,11.381106626930237Q4.961714134349823,11.311786626930237,5.003404134349823,11.249396626930237Q5.045094134349823,11.187006626930236,5.098154134349823,11.133946626930237Q5.151204134349823,11.080886626930237,5.213594134349823,11.039196626930236Q5.275984134349823,10.997516626930237,5.345314134349823,10.968796626930237Q5.414634134349823,10.940086626930237,5.488224134349823,10.925446626930237Q5.561824134349823,10.910806626930237,5.636854134349823,10.910806626930237L12.231124134349823,10.910806626930237L11.272724134349822,10.050876626930236Q11.153324134349823,9.943716626930236,11.088724134349823,9.803716626930237Q11.024124134349822,9.663706626930237,11.024124134349822,9.512166626930238Q11.024124134349822,9.360626626930237,11.088724134349823,9.220616626930237Q11.153324134349823,9.080616626930237,11.272724134349822,8.973456626930236Q11.331924134349823,8.920406626930237,11.401424134349822,8.878716626930236Q11.470924134349824,8.837026626930236,11.548224134349823,8.808306626930236Q11.625424134349823,8.779596626930237,11.707424134349823,8.764956626930237Q11.789524134349824,8.750316626930235,11.873124134349823,8.750316626930235Q11.956724134349823,8.750316626930235,12.038724134349822,8.764956626930237Q12.120724134349823,8.779596626930237,12.198024134349822,8.808306626930236Q12.275224134349823,8.837026626930236,12.344824134349823,8.878716626930236Q12.414324134349823,8.920406626930237,12.473424134349823,8.973456626930236Z" fill-rule="evenodd"></path></symbol>
<symbol xmlns="http://www.w3.org/2000/svg" viewBox="0 0 14 14" id="event-repeat"><path clip-rule="evenodd" fill="none" d="M0 14L14 14 14 0 0 0z"></path><path d="M5.9 11.7H7c2.6 0 4.7-2.1 4.7-4.7 0-1.4-.6-2.7-1.7-3.6l.8-.9c1.3 1.1 2.1 2.7 2.1 4.5 0 3.2-2.6 5.8-5.8 5.8H4.5c-.5 0-.8-.6-.4-1l2.5-2.5.8.8L5.9 11.7zM8.1 2.3H7C4.4 2.3 2.3 4.4 2.3 7c0 1.4.6 2.7 1.7 3.6l-.8.9C1.9 10.4 1.2 8.7 1.2 7c0-3.2 2.6-5.8 5.8-5.8h2.5c.5 0 .8.6.4 1L7.4 4.6 6.6 3.8 8.1 2.3z"></path></symbol>
</svg>