<svg xmlns="http://www.w3.org/2000/svg" xmlns:xlink="http://www.w3.org/1999/xlink" style="position: absolute; width: 0; height: 0" aria-hidden="true" id="__SVG_SPRITE_NODE__">
<symbol xmlns="http://www.w3.org/2000/svg" viewBox="0 0 24 24" id="feedback"><path d="M22.500030596733094,7.60681C22.500030596733094,10.23333,22.500030596733094,12.7824,22.500030596733094,15.4449C22.500030596733094,17.7228,20.645330596733093,19.5571,18.367430596733094,19.5571L16.336230596733095,19.5571C15.847930596733093,19.5571,15.375830596733094,19.7333,15.005030596733093,20.0537L13.331130596733093,21.5C12.565130596733093,22.162,11.434830596733093,22.162,10.668820596733093,21.5L8.994940596733093,20.0537C8.624210596733093,19.7333,8.152090596733093,19.5571,7.6638205967330935,19.5571L5.561790596733093,19.5571C3.2838705967330934,19.5571,1.4545305967330933,17.7228,1.4545305967330933,15.4449L1.4545305967330933,6.11222C1.4545305967330933,3.8343,3.265800596733093,2,5.543720596733094,2L18.410630596733093,2C20.688530596733095,2,22.500030596733094,3.8343,22.500030596733094,6.11222L22.500030596733094,7.60681ZM14.515730596733093,4.06251L18.401730596733092,4.0625C19.540730596733095,4.0625,20.454530596733093,4.97666,20.454530596733093,6.11562C20.454530596733093,9.342749999999999,20.454530596733093,12.2144,20.454530596733093,15.4415C20.454530596733093,16.5805,19.534330596733092,17.4946,18.395430596733092,17.4946C17.771530596733093,17.4946,17.147630596733094,17.4946,16.336230596733095,17.4946Q14.822930596733093,17.494799999999998,13.673930596733094,18.4878L12.269630596733093,19.7011C12.114830596733093,19.8349,11.885230596733093,19.8349,11.730330596733094,19.7011L10.326110596733093,18.4878Q9.177150596733092,17.4946,7.6638205967330935,17.4946L5.562230596733094,17.4946C4.423280596733093,17.4946,3.4999805967330935,16.5805,3.4999705967330934,15.4415C3.499940596733093,13.1265,3.4999605967330933,10.99452,3.4999805967330935,8.782969999999999C3.4999805967330935,7.91155,3.499990596733093,7.02779,3.500000596733093,6.11562C3.500000596733093,4.976649999999999,4.413840596733094,4.06251,5.552810596733093,4.06251C8.715380596733093,4.062530000000001,11.549130596733093,4.06252,14.515730596733093,4.06251ZM10.696530596733094,7.35156C10.655750596733093,6.6175,11.240030596733094,6,11.975230596733093,6C12.710430596733094,6,13.294630596733093,6.6175,13.253830596733094,7.35156L12.927730596733094,12.2816C12.899730596733093,12.7872,12.481530596733093,13.1827,11.975230596733093,13.1827C11.468830596733094,13.1827,11.050710596733094,12.7872,11.022630596733093,12.2816L10.696530596733094,7.35156ZM11.935130596733094,16.2954C12.558130596733093,16.2954,13.063230596733094,15.7903,13.063230596733094,15.1673C13.063230596733094,14.5442,12.558130596733093,14.0391,11.935130596733094,14.0391C11.312080596733093,14.0391,10.807000596733094,14.5442,10.807000596733094,15.1673C10.807000596733094,15.7903,11.312080596733093,16.2954,11.935130596733094,16.2954Z" fill-rule="evenodd"></path></symbol>
</svg>