<svg xmlns="http://www.w3.org/2000/svg" xmlns:xlink="http://www.w3.org/1999/xlink" style="position: absolute; width: 0; height: 0" aria-hidden="true" id="__SVG_SPRITE_NODE__">
<symbol xmlns="http://www.w3.org/2000/svg" viewBox="0 0 30 30" id="flags"><g fill-rule="evenodd"><circle cx="15" cy="15" r="15" fill="none"></circle><path d="M18.3299866,16 C17.4393199,16 16.2606532,16.629 16.2606532,16.629 C15.4510617,17.0254489 14.5645916,17.2401266 13.6633199,17.258 C11.9966532,17.258 11.3299866,16.5536667 11.3299866,16.5536667 L11.3299866,15.3083333 C11.3299866,15.3083333 11.9966532,16.2956667 13.6633199,16.2956667 C14.4596868,16.249272 15.2336222,16.014258 15.9213199,15.61 C16.6725065,15.2398932 17.4931874,15.032054 18.3299866,15 C19.1486573,15.0074022 19.9518516,15.2239204 20.6633199,15.629 L21.3299866,16.0693333 L21.3299866,17.0693333 L20.6633199,16.629 C19.9518516,16.2239204 19.1486573,16.0074022 18.3299866,16 Z M10.3299866,8.29566667 L11.3299866,8.29566667 L11.3299866,22.2956667 L10.3299866,22.2956667 L10.3299866,8.29566667 Z M20.3299866,8.96233333 L21.3299866,9.20733333 L21.3299866,16.2956667 L20.3299866,16.2956667 L20.3299866,8.96233333 Z M18.3299866,9 C17.4393199,9 16.2606532,9.629 16.2606532,9.629 C15.451058,10.0254387 14.5645902,10.2401159 13.6633199,10.258 C11.9966532,10.258 11.3299866,9.648 11.3299866,9.648 L11.3299866,8.30833333 C11.3299866,8.30833333 11.9966532,9.29566667 13.6633199,9.29566667 C14.4596868,9.24927201 15.2336222,9.01425797 15.9213199,8.61 C16.6725065,8.23989318 17.4931874,8.03205399 18.3299866,8 C19.1486573,8.00740216 19.9518516,8.2239204 20.6633199,8.629 L21.3299866,9.06933333 L21.3299866,10.0693333 L20.6633199,9.81766667 C19.9895188,9.3090562 19.173878,9.02323237 18.3299866,9 Z" fill-rule="nonzero"></path></g></symbol>
</svg>