<svg xmlns="http://www.w3.org/2000/svg" xmlns:xlink="http://www.w3.org/1999/xlink" style="position: absolute; width: 0; height: 0" aria-hidden="true" id="__SVG_SPRITE_NODE__">
<symbol xmlns="http://www.w3.org/2000/svg" viewBox="0 0 30 30" id="food-drink"><g fill-rule="evenodd"><circle cx="15" cy="15" r="15" fill="none"></circle><path d="M23.0376654,16.8936668 C23.0529987,17.0713335 22.4826654,17.2760002 22.4826654,17.2760002 L23.5699987,17.9056668 C23.5699987,17.9056668 23.4163321,18.0916669 23.1066654,18.2606669 C23.4969987,18.5700002 23.5563321,18.9133335 23.5563321,19.2743335 C23.5563321,19.7186669 23.3853321,20.1043336 22.8099987,20.4650002 C23.0959987,20.7253336 23.3776654,21.6853336 23.3776654,21.9820003 C23.3776654,22.4893336 21.9329987,22.9776669 21.600332,22.9776669 C21.2666654,22.9776669 18.588332,22.9813336 16.767332,22.9813336 C15.9576653,22.9813336 15.1873319,22.9856669 14.4743319,22.9813336 L8.8789985,22.9663336 L7.59999847,10.6443334 L13.4586652,10.6443334 L14.2749986,7.35866667 L14.2766653,7.35866667 C14.3289986,7.153 14.5136653,7 14.7353319,7 C14.7783319,7 14.8193319,7.008 14.8586653,7.01833333 L14.8596653,7.01666667 L14.9186653,7.037 C14.9196653,7.03733333 14.9199986,7.03733333 14.9206653,7.038 L18.156332,8.14366669 L17.8496653,9.04200003 L15.0709986,8.09200002 L14.4366653,10.6443334 L15.9336653,10.6443334 L15.6379986,13.6793334 C16.0259986,13.6593334 16.4239986,13.6483334 16.8316653,13.6483334 C20.4139987,13.6483334 23.3309987,14.4053335 23.3309987,16.1923335 C23.3309987,16.5256668 23.1516654,16.5376668 22.9643321,16.8400002 C22.9889987,16.8563335 23.0353321,16.8626668 23.0376654,16.8936668 L23.0376654,16.8936668 Z M11.7486652,21.7196669 C12.0863319,22.0536669 12.8679986,21.9820003 12.8679986,21.9820003 L16.5866653,21.9820003 L21.2536654,21.9820003 C21.2536654,21.9820003 21.6476654,21.9790003 21.9509987,21.6790002 C22.3859987,21.2486669 21.8516654,20.6400002 21.3106654,20.6400002 C20.2456654,20.6400002 13.5206652,20.6313336 12.2869986,20.6313336 C11.7346652,20.6313336 11.4109985,21.3850002 11.7486652,21.7196669 L11.7486652,21.7196669 Z M16.861332,19.9400002 L22.7716654,17.9820002 L11.1919985,17.9820002 L16.861332,19.9400002 Z M8.64733182,11.6443334 L9.67599851,21.9820003 L10.2816652,21.9820003 C10.2736652,21.6853336 10.6266652,20.7566669 10.9119985,20.4963336 C10.3366652,20.1360002 10.0683318,19.8126669 10.0683318,19.3680002 C10.0683318,18.9866669 10.1713319,18.4700002 10.6033319,18.1476669 C10.0656652,17.9626668 9.97633185,17.5836668 10.3213319,17.4820002 C10.7036652,17.3683335 10.7466652,17.6303335 10.9736652,17.3383335 C10.5313319,16.9006668 10.2816652,16.7160002 10.2816652,16.1923335 C10.2816652,14.7770001 12.1463319,14.0103335 14.6996653,13.7516668 L14.9333319,11.6443334 L8.64733182,11.6443334 Z M16.831332,14.6170001 C14.9009986,14.6170001 11.1923319,15.0433335 11.2623319,16.2096668 C11.2836652,16.5623335 12.5866652,16.9816668 12.5866652,16.9816668 L16.852332,16.9816668 L21.0866654,16.9816668 C21.0866654,16.9816668 22.3736654,16.5240002 22.3826654,16.2096668 C22.4169987,15.0423335 18.7006653,14.6170001 16.831332,14.6170001 L16.831332,14.6170001 Z M7.59999847,10.6443334 C7.61299847,10.7926667 7.59999847,10.6723334 7.59999847,10.6443334 L7.59999847,10.6443334 Z"></path></g></symbol>
</svg>