<svg xmlns="http://www.w3.org/2000/svg" xmlns:xlink="http://www.w3.org/1999/xlink" style="position: absolute; width: 0; height: 0" aria-hidden="true" id="__SVG_SPRITE_NODE__">
<symbol xmlns="http://www.w3.org/2000/svg" viewBox="0 0 48 48" id="future-from-today"><g fill-rule="evenodd"><path fill="none" d="M0 0H48V48H0z"></path><path d="M17,8 C17.5522847,8 18,8.44771525 18,9 L18,9 L18,12 L30,12 L30,9 C30,8.44771525 30.4477153,8 31,8 L31,8 L33,8 C33.5522847,8 34,8.44771525 34,9 L34,9 L34,12 L37,12 C38.6568542,12 40,13.3431458 40,15 L40,15 L40,37 C40,38.6568542 38.6568542,40 37,40 L37,40 L11,40 C9.34314575,40 8,38.6568542 8,37 L8,37 L8,15 C8,13.3431458 9.34314575,12 11,12 L11,12 L14,12 L14,9 C14,8.44771525 14.4477153,8 15,8 L15,8 Z M13.58875,20.7265625 L11.62,20.7265625 L11.62,32 L13.8778125,32 L13.8778125,24.6171875 L13.948125,24.6171875 L19.2215625,32 L21.1746875,32 L21.1746875,20.7265625 L18.916875,20.7265625 L18.916875,28.0703125 L18.854375,28.0703125 L13.58875,20.7265625 Z M27.2801875,24.432 C26.1281875,24.432 24.9921875,25.216 23.8721875,26.816 L25.0561875,27.808 C25.9361875,26.608 26.6721875,26.016 27.2801875,26.016 C27.8721875,26.016 28.4961875,26.192 29.1361875,26.544 C29.6801875,26.864 30.2401875,27.2 30.7841875,27.536 C31.4721875,27.888 32.1921875,28.064 32.9601875,28.064 C34.0961875,28.064 35.2321875,27.264 36.3681875,25.68 L35.1841875,24.688 C34.2881875,25.872 33.5521875,26.48 32.9601875,26.48 C32.3841875,26.48 31.7601875,26.304 31.1201875,25.952 C30.5601875,25.616 30.0001875,25.28 29.4401875,24.96 C28.7361875,24.608 28.0161875,24.432 27.2801875,24.432 Z"></path></g></symbol>
</svg>