<svg xmlns="http://www.w3.org/2000/svg" xmlns:xlink="http://www.w3.org/1999/xlink" style="position: absolute; width: 0; height: 0" aria-hidden="true" id="__SVG_SPRITE_NODE__">
<symbol xmlns="http://www.w3.org/2000/svg" viewBox="0 0 16 16" id="habit_list_uncomplete"><path d="M4,1.13686838e-13 C4.24545989,1.1366867e-13 4.44960837,0.176875161 4.49194433,0.410124368 L4.5,0.5 L4.499,3 L7,3 C7.27614237,3 7.5,3.22385763 7.5,3.5 C7.5,3.74545989 7.32312484,3.94960837 7.08987563,3.99194433 L7,4 L4.499,4 L4.5,6.5 C4.5,6.77614237 4.27614237,7 4,7 C3.75454011,7 3.55039163,6.82312484 3.50805567,6.58987563 L3.5,6.5 L3.499,4 L1,4 C0.723857625,4 0.5,3.77614237 0.5,3.5 C0.5,3.25454011 0.676875161,3.05039163 0.910124368,3.00805567 L1,3 L3.499,3 L3.5,0.5 C3.5,0.223857625 3.72385763,1.13707276e-13 4,1.13686838e-13 Z" transform="rotate(45 .141 10.755)" fill-rule="nonzero"></path></symbol>
</svg>