<svg xmlns="http://www.w3.org/2000/svg" xmlns:xlink="http://www.w3.org/1999/xlink" style="position: absolute; width: 0; height: 0" aria-hidden="true" id="__SVG_SPRITE_NODE__">
<symbol xmlns="http://www.w3.org/2000/svg" fill="none" viewBox="0 0 18 18" id="habit-calendar-uncomplete"><path d="M7.939188051605225,9.000165625152588L4.757209051605225,12.182145625152588C4.464315151605224,12.475035625152588,4.4643148516052245,12.949915625152588,4.757208051605224,13.242805625152588C5.050101051605225,13.535695625152588,5.5249750516052245,13.535695625152588,5.817868051605225,13.242805625152588L8.999848051605225,10.060825625152589L12.181828051605224,13.242805625152588C12.474718051605224,13.535695625152588,12.949598051605225,13.535695625152588,13.242488051605225,13.242805625152588C13.535378051605225,12.949915625152588,13.535378051605225,12.475035625152588,13.242488051605225,12.182145625152588L10.060508051605225,9.000165625152588L13.242488051605225,5.818185625152588C13.535378051605225,5.525292625152588,13.535378051605225,5.050418625152588,13.242488051605225,4.757525625152588C12.949598051605225,4.464632425152588,12.474718051605224,4.464632425152588,12.181828051605224,4.757525625152588L8.999848051605225,7.939505625152588L5.817868051605225,4.757525625152588C5.5249750516052245,4.464632425152588,5.050101051605225,4.464632425152588,4.757208051605224,4.757525625152588C4.4643148516052245,5.050418625152588,4.4643148516052245,5.525292625152588,4.757208051605224,5.818185625152588L7.939188051605225,9.000165625152588Z" fill-rule="evenodd" fill="#FF5F5E"></path></symbol>
<symbol xmlns="http://www.w3.org/2000/svg" viewBox="0 0 18 18" id="habit-card"><path d="M1.5,3L1.5,6.75Q1.5,6.82369,1.50722291,6.89703Q1.5144458,6.97036,1.5288221,7.04263Q1.5431983,7.11491,1.5645895,7.18543Q1.5859806,7.25594,1.614181,7.32402Q1.642381,7.39211,1.677118,7.45709Q1.711855,7.52208,1.752796,7.58335Q1.793736,7.64463,1.840484,7.70159Q1.887233,7.75855,1.93934,7.81066Q1.991447,7.86277,2.04841,7.90952Q2.105373,7.95626,2.166645,7.9972Q2.227916,8.03814,2.292905,8.07288Q2.357894,8.10762,2.425975,8.135819999999999Q2.494056,8.16402,2.56457,8.185410000000001Q2.63509,8.206800000000001,2.70736,8.22118Q2.77964,8.23555,2.85297,8.24278Q2.92631,8.25,3,8.25L6.75,8.25Q6.82369,8.25,6.89703,8.24278Q6.97036,8.23555,7.04263,8.22118Q7.11491,8.206800000000001,7.18543,8.185410000000001Q7.25594,8.16402,7.32402,8.135819999999999Q7.39211,8.10762,7.45709,8.07288Q7.52208,8.03814,7.58335,7.9972Q7.64463,7.95626,7.70159,7.90952Q7.75855,7.86277,7.81066,7.81066Q7.86277,7.75855,7.90952,7.70159Q7.95626,7.64463,7.9972,7.58335Q8.03814,7.52208,8.07288,7.45709Q8.10762,7.39211,8.135819999999999,7.32402Q8.16402,7.25594,8.185410000000001,7.18543Q8.206800000000001,7.11491,8.22118,7.04263Q8.23555,6.97036,8.24278,6.89703Q8.25,6.82369,8.25,6.75L8.25,3Q8.25,2.92631,8.24278,2.85297Q8.23555,2.77964,8.22118,2.70736Q8.206800000000001,2.63509,8.185410000000001,2.56457Q8.16402,2.494056,8.135819999999999,2.425975Q8.10762,2.357894,8.07288,2.292905Q8.03814,2.227916,7.9972,2.166645Q7.95626,2.105373,7.90952,2.04841Q7.86277,1.991447,7.81066,1.93934Q7.75855,1.887233,7.70159,1.840484Q7.64463,1.793736,7.58335,1.752796Q7.52208,1.711855,7.45709,1.677118Q7.39211,1.642381,7.32402,1.614181Q7.25594,1.5859806,7.18543,1.5645895Q7.11491,1.5431983,7.04263,1.5288221Q6.97036,1.5144458,6.89703,1.50722291Q6.82369,1.5,6.75,1.5L3,1.5Q2.92631,1.5,2.85297,1.50722291Q2.77964,1.5144458,2.70736,1.5288221Q2.63509,1.5431983,2.56457,1.5645895Q2.494056,1.5859806,2.425975,1.614181Q2.357894,1.642381,2.292905,1.677118Q2.227916,1.711855,2.166645,1.752796Q2.105373,1.793736,2.04841,1.840484Q1.991447,1.887233,1.93934,1.93934Q1.887233,1.991447,1.840484,2.04841Q1.793736,2.105373,1.752796,2.166645Q1.711855,2.227916,1.677118,2.292905Q1.642381,2.357894,1.614181,2.425975Q1.5859806,2.494056,1.5645895,2.56457Q1.5431983,2.63509,1.5288221,2.70736Q1.5144458,2.77964,1.50722291,2.85297Q1.5,2.92631,1.5,3ZM6.75,6.75L3,6.75L3,3L6.75,3L6.75,6.75ZM1.5,11.25L1.5,15Q1.5,15.0737,1.50722291,15.147Q1.5144458,15.2204,1.5288221,15.2926Q1.5431983,15.3649,1.5645895,15.4354Q1.5859806,15.5059,1.614181,15.574Q1.642381,15.6421,1.677118,15.7071Q1.711855,15.7721,1.752796,15.8334Q1.793736,15.8946,1.840484,15.9516Q1.887233,16.0086,1.93934,16.0607Q1.991447,16.1128,2.04841,16.1595Q2.105373,16.2063,2.166645,16.2472Q2.227916,16.2881,2.292905,16.3229Q2.357894,16.357599999999998,2.425975,16.3858Q2.494056,16.414,2.56457,16.4354Q2.63509,16.4568,2.70736,16.4712Q2.77964,16.485599999999998,2.85297,16.492800000000003Q2.92631,16.5,3,16.5L6.75,16.5Q6.82369,16.5,6.89703,16.492800000000003Q6.97036,16.485599999999998,7.04263,16.4712Q7.11491,16.4568,7.18543,16.4354Q7.25594,16.414,7.32402,16.3858Q7.39211,16.357599999999998,7.45709,16.3229Q7.52208,16.2881,7.58335,16.2472Q7.64463,16.2063,7.70159,16.1595Q7.75855,16.1128,7.81066,16.0607Q7.86277,16.0086,7.90952,15.9516Q7.95626,15.8946,7.9972,15.8334Q8.03814,15.7721,8.07288,15.7071Q8.10762,15.6421,8.135819999999999,15.574Q8.16402,15.5059,8.185410000000001,15.4354Q8.206800000000001,15.3649,8.22118,15.2926Q8.23555,15.2204,8.24278,15.147Q8.25,15.0737,8.25,15L8.25,11.25Q8.25,11.17631,8.24278,11.10297Q8.23555,11.02964,8.22118,10.95736Q8.206800000000001,10.88509,8.185410000000001,10.81457Q8.16402,10.74406,8.135819999999999,10.67597Q8.10762,10.60789,8.07288,10.5429Q8.03814,10.47792,7.9972,10.41664Q7.95626,10.35537,7.90952,10.29841Q7.86277,10.24145,7.81066,10.18934Q7.75855,10.13723,7.70159,10.09048Q7.64463,10.04374,7.58335,10.0028Q7.52208,9.96186,7.45709,9.92712Q7.39211,9.89238,7.32402,9.86418Q7.25594,9.83598,7.18543,9.81459Q7.11491,9.7932,7.04263,9.77882Q6.97036,9.76445,6.89703,9.75722Q6.82369,9.75,6.75,9.75L3,9.75Q2.92631,9.75,2.85297,9.75722Q2.77964,9.76445,2.70736,9.77882Q2.63509,9.7932,2.56457,9.81459Q2.494056,9.83598,2.425975,9.86418Q2.357894,9.89238,2.292905,9.92712Q2.227916,9.96185,2.166645,10.00279Q2.105373,10.04374,2.04841,10.09048Q1.991447,10.13723,1.93934,10.18934Q1.887233,10.24145,1.840484,10.29841Q1.793736,10.35537,1.752796,10.41665Q1.711855,10.47792,1.677118,10.5429Q1.642381,10.60789,1.614181,10.67597Q1.5859806,10.74406,1.5645895,10.81457Q1.5431983,10.88509,1.5288221,10.95736Q1.5144458,11.02964,1.50722291,11.10297Q1.5,11.17631,1.5,11.25ZM6.75,15L3,15L3,11.25L6.75,11.25L6.75,15ZM9.75,3L9.75,6.75Q9.75,6.82369,9.75722,6.89703Q9.76445,6.97036,9.77882,7.04263Q9.7932,7.11491,9.81459,7.18543Q9.83598,7.25594,9.86418,7.32402Q9.89238,7.39211,9.92712,7.45709Q9.96185,7.52208,10.00279,7.58335Q10.04374,7.64463,10.09048,7.70159Q10.13723,7.75855,10.18934,7.81066Q10.24145,7.86277,10.29841,7.90952Q10.35537,7.95626,10.41665,7.9972Q10.47792,8.03814,10.5429,8.07288Q10.60789,8.10762,10.67597,8.135819999999999Q10.74406,8.16402,10.81457,8.185410000000001Q10.88509,8.206800000000001,10.95736,8.22118Q11.02964,8.23555,11.10297,8.24278Q11.17631,8.25,11.25,8.25L15,8.25Q15.0737,8.25,15.147,8.24278Q15.2204,8.23555,15.2926,8.22118Q15.3649,8.206800000000001,15.4354,8.185410000000001Q15.5059,8.16402,15.574,8.135819999999999Q15.6421,8.10762,15.7071,8.07288Q15.7721,8.03814,15.8334,7.9972Q15.8946,7.95626,15.9516,7.90952Q16.0086,7.86277,16.0607,7.81066Q16.1128,7.75855,16.1595,7.70159Q16.2063,7.64463,16.2472,7.58335Q16.2881,7.52208,16.3229,7.45709Q16.357599999999998,7.39211,16.3858,7.32402Q16.414,7.25594,16.4354,7.18543Q16.4568,7.11491,16.4712,7.04263Q16.485599999999998,6.97036,16.492800000000003,6.89703Q16.5,6.82369,16.5,6.75L16.5,3Q16.5,2.92631,16.492800000000003,2.85297Q16.485599999999998,2.77964,16.4712,2.70736Q16.4568,2.63509,16.4354,2.56457Q16.414,2.494056,16.3858,2.425975Q16.357599999999998,2.357894,16.3229,2.292905Q16.2881,2.227916,16.2472,2.166645Q16.2063,2.105373,16.1595,2.04841Q16.1128,1.991447,16.0607,1.93934Q16.0086,1.887233,15.9516,1.840484Q15.8946,1.793736,15.8334,1.752796Q15.7721,1.711855,15.7071,1.677118Q15.6421,1.642381,15.574,1.614181Q15.5059,1.5859806,15.4354,1.5645895Q15.3649,1.5431983,15.2926,1.5288221Q15.2204,1.5144458,15.147,1.50722291Q15.0737,1.5,15,1.5L11.25,1.5Q11.17631,1.5,11.10297,1.50722291Q11.02964,1.5144458,10.95736,1.5288221Q10.88509,1.5431983,10.81457,1.5645895Q10.74406,1.5859806,10.67597,1.614181Q10.60789,1.642381,10.5429,1.677118Q10.47792,1.711855,10.41664,1.752796Q10.35537,1.793736,10.29841,1.840484Q10.24145,1.887233,10.18934,1.93934Q10.13723,1.991447,10.09048,2.04841Q10.04374,2.105373,10.0028,2.166645Q9.96186,2.227916,9.92712,2.292905Q9.89238,2.357894,9.86418,2.425975Q9.83598,2.494056,9.81459,2.56457Q9.7932,2.63509,9.77882,2.70736Q9.76445,2.77964,9.75722,2.85297Q9.75,2.92631,9.75,3ZM15,6.75L11.25,6.75L11.25,3L15,3L15,6.75ZM9.75,11.25L9.75,15Q9.75,15.0737,9.75722,15.147Q9.76445,15.2204,9.77882,15.2926Q9.7932,15.3649,9.81459,15.4354Q9.83598,15.5059,9.86418,15.574Q9.89238,15.6421,9.92712,15.7071Q9.96185,15.7721,10.00279,15.8334Q10.04374,15.8946,10.09048,15.9516Q10.13723,16.0086,10.18934,16.0607Q10.24145,16.1128,10.29841,16.1595Q10.35537,16.2063,10.41665,16.2472Q10.47792,16.2881,10.5429,16.3229Q10.60789,16.357599999999998,10.67597,16.3858Q10.74406,16.414,10.81457,16.4354Q10.88509,16.4568,10.95736,16.4712Q11.02964,16.485599999999998,11.10297,16.492800000000003Q11.17631,16.5,11.25,16.5L15,16.5Q15.0737,16.5,15.147,16.492800000000003Q15.2204,16.485599999999998,15.2926,16.4712Q15.3649,16.4568,15.4354,16.4354Q15.5059,16.414,15.574,16.3858Q15.6421,16.357599999999998,15.7071,16.3229Q15.7721,16.2881,15.8334,16.2472Q15.8946,16.2063,15.9516,16.1595Q16.0086,16.1128,16.0607,16.0607Q16.1128,16.0086,16.1595,15.9516Q16.2063,15.8946,16.2472,15.8334Q16.2881,15.7721,16.3229,15.7071Q16.357599999999998,15.6421,16.3858,15.574Q16.414,15.5059,16.4354,15.4354Q16.4568,15.3649,16.4712,15.2926Q16.485599999999998,15.2204,16.492800000000003,15.147Q16.5,15.0737,16.5,15L16.5,11.25Q16.5,11.17631,16.492800000000003,11.10297Q16.485599999999998,11.02964,16.4712,10.95736Q16.4568,10.88509,16.4354,10.81457Q16.414,10.74406,16.3858,10.67597Q16.357599999999998,10.60789,16.3229,10.5429Q16.2881,10.47792,16.2472,10.41664Q16.2063,10.35537,16.1595,10.29841Q16.1128,10.24145,16.0607,10.18934Q16.0086,10.13723,15.9516,10.09048Q15.8946,10.04374,15.8334,10.0028Q15.7721,9.96186,15.7071,9.92712Q15.6421,9.89238,15.574,9.86418Q15.5059,9.83598,15.4354,9.81459Q15.3649,9.7932,15.2926,9.77882Q15.2204,9.76445,15.147,9.75722Q15.0737,9.75,15,9.75L11.25,9.75Q11.17631,9.75,11.10297,9.75722Q11.02964,9.76445,10.95736,9.77882Q10.88509,9.7932,10.81457,9.81459Q10.74406,9.83598,10.67597,9.86418Q10.60789,9.89238,10.5429,9.92712Q10.47792,9.96185,10.41664,10.00279Q10.35537,10.04374,10.29841,10.09048Q10.24145,10.13723,10.18934,10.18934Q10.13723,10.24145,10.09048,10.29841Q10.04374,10.35537,10.0028,10.41665Q9.96186,10.47792,9.92712,10.5429Q9.89238,10.60789,9.86418,10.67597Q9.83598,10.74406,9.81459,10.81457Q9.7932,10.88509,9.77882,10.95736Q9.76445,11.02964,9.75722,11.10297Q9.75,11.17631,9.75,11.25ZM15,15L11.25,15L11.25,11.25L15,11.25L15,15Z" fill-rule="evenodd"></path></symbol>
<symbol xmlns="http://www.w3.org/2000/svg" viewBox="0 0 24 24" id="habit-detail-archive"><path d="M1,17.304299999999998C1,19.4174,2.713,21.1304,4.826090000000001,21.1304L19.1739,21.1304C21.287,21.1304,23,19.4174,23,17.304299999999998L23,13.6464C23,13.2185,22.9282,12.7936,22.7876,12.3895L20.0675,4.56914C19.5325,3.03094,18.0824,2,16.4538,2L15.8261,2C15.2978,2,14.8696,2.428249,14.8696,2.956522C14.8696,3.4847900000000003,15.2978,3.91304,15.8261,3.91304L16.4538,3.91304Q17.0645,3.91304,17.5623,4.26692Q18.06,4.6207899999999995,18.2607,5.19761L20.6418,12.0435L16.25,12.0435Q15.4124,12.0435,14.7611,12.57Q14.1098,13.0965,13.9343,13.9155Q13.796,14.5611,13.2825,14.9762Q12.769,15.3913,12.1088,15.3913L11.8913,15.3913Q11.231,15.3913,10.71755,14.9762Q10.20409,14.5611,10.06574,13.9155Q9.89025,13.0965,9.23892,12.57Q8.587589999999999,12.0435,7.75005,12.0435L3.35817,12.0435L5.73934,5.19761Q5.93997,4.6207899999999995,6.43773,4.26692Q6.93548,3.91304,7.5462,3.91304L8.17391,3.91304C8.70219,3.91304,9.13043,3.4847900000000003,9.13043,2.956522C9.13043,2.428249,8.70219,2,8.17391,2L7.5462,2C5.9176,2,4.467499999999999,3.03094,3.93247,4.56914L1.2123599999999999,12.3895C1.0717826,12.7936,1,13.2185,1,13.6464L1,17.304299999999998ZM11.2929,12.2071L7.29327,8.20748C7.10536,8.01957,7,7.76522,7,7.5C7,7.23478,7.10536,6.98043,7.29289,6.79289C7.48043,6.60536,7.73478,6.5,8,6.5C8.26522,6.5,8.51957,6.60536,8.70711,6.79289L11,9.08579L11,3C11,2.447715,11.4477,2,12,2C12.5523,2,13,2.447715,13,3L13,9.08579L15.2929,6.79289C15.4804,6.60536,15.7348,6.5,16,6.5C16.2652,6.5,16.5196,6.60536,16.7071,6.79289C16.8946,6.98043,17,7.23478,17,7.5C17,7.76522,16.8946,8.01957,16.7071,8.20711L12.7071,12.2071C12.5196,12.3946,12.2652,12.5,12,12.5C11.7348,12.5,11.4804,12.3946,11.2929,12.2071ZM16.25,13.9565L21.087,13.9565L21.087,17.304299999999998Q21.087,18.0968,20.5266,18.6571Q19.9663,19.2174,19.1739,19.2174L4.826090000000001,19.2174Q4.03368,19.2174,3.47336,18.6571Q2.91304,18.0968,2.91304,17.304299999999998L2.91304,13.9565L7.75005,13.9565Q8.11806,13.9565,8.195170000000001,14.3163Q8.47527,15.6235,9.51486,16.463900000000002Q10.55446,17.304299999999998,11.8913,17.304299999999998L12.1088,17.304299999999998Q13.4456,17.304299999999998,14.4852,16.463900000000002Q15.5248,15.6235,15.8049,14.3163Q15.882,13.9565,16.25,13.9565Z" fill-rule="evenodd"></path></symbol>
<symbol xmlns="http://www.w3.org/2000/svg" viewBox="0 0 24 24" id="habit-detail-recovery"><path d="M11.2929,2.292893L7.29327,6.29252C7.10536,6.48043,7,6.73478,7,7C7,7.26522,7.10536,7.51957,7.29289,7.70711C7.48043,7.89464,7.73478,8,8,8C8.26522,8,8.51957,7.89464,8.70711,7.70711L11,5.414210000000001L11,11.5C11,12.0523,11.4477,12.5,12,12.5C12.5523,12.5,13,12.0523,13,11.5L13,5.414210000000001L15.2929,7.70711C15.4804,7.89464,15.7348,8,16,8C16.2652,8,16.5196,7.89464,16.7071,7.70711C16.8946,7.51957,17,7.26522,17,7C17,6.73478,16.8946,6.48043,16.7071,6.29289L12.7071,2.292893C12.5196,2.105357,12.2652,2,12,2C11.7348,2,11.4804,2.105357,11.2929,2.292893ZM1,17.3087C1,19.4218,2.713,21.1348,4.826090000000001,21.1348L19.1739,21.1348C21.287,21.1348,23,19.4218,23,17.3087L23,13.6508C23,13.2229,22.9282,12.798,22.7876,12.3939L20.0675,4.57353C19.6388,3.34105,18.6227,2.434229,17.3979,2.122454C16.886,1.99213219,16.4538,2.432644,16.4538,2.9609170000000002C16.4538,3.48919,16.9185,3.89723,17.3794,4.15538Q17.4727,4.20761,17.5623,4.27131Q18.06,4.62518,18.2607,5.20201L20.6418,12.0479L16.25,12.0479Q15.4124,12.0479,14.7611,12.5744Q14.1098,13.1009,13.9343,13.9199Q13.796,14.5655,13.2825,14.9806Q12.769,15.3957,12.1088,15.3957L11.8913,15.3957Q11.231,15.3957,10.71755,14.9806Q10.20409,14.5655,10.06574,13.9199Q9.89025,13.1009,9.23892,12.5744Q8.587589999999999,12.0479,7.75005,12.0479L3.35817,12.0479L5.73934,5.20201Q5.93997,4.62518,6.43773,4.27131Q6.52732,4.20761,6.62058,4.15538C7.08148,3.89723,7.5462,3.48919,7.5462,2.9609170000000002C7.5462,2.432644,7.11403,1.99213219,6.60208,2.122454C5.37734,2.43423,4.36116,3.34105,3.93247,4.57353L1.2123599999999999,12.3939C1.0717826,12.798,1,13.2229,1,13.6508L1,17.3087ZM16.25,13.9609L21.087,13.9609L21.087,17.3087Q21.087,18.1012,20.5266,18.6615Q19.9663,19.2218,19.1739,19.2218L4.826090000000001,19.2218Q4.03368,19.2218,3.47336,18.6615Q2.91304,18.1012,2.91304,17.3087L2.91304,13.9609L7.75005,13.9609Q8.11806,13.9609,8.195170000000001,14.3207Q8.47527,15.6279,9.51486,16.4683Q10.55446,17.3087,11.8913,17.3087L12.1088,17.3087Q13.4456,17.3087,14.4852,16.4683Q15.5248,15.6279,15.8049,14.3207Q15.882,13.9609,16.25,13.9609Z" fill-rule="evenodd"></path></symbol>
<symbol xmlns="http://www.w3.org/2000/svg" viewBox="0 0 10 10" id="habit-done"><g fill-rule="evenodd"><path d="M0 0H10V10H0z"></path><path stroke="#FFFFFF" stroke-linecap="round" d="M2.4509841 5.3395471L4.18257654 6.93746287 7.5490159 3.06253713"></path></g></symbol>
<symbol xmlns="http://www.w3.org/2000/svg" viewBox="0 0 96 96" id="habit-emoji-cry-black"><g fill="none" fill-rule="evenodd"><path d="M0 0H96V96H0z"></path><circle cx="36" cy="36" r="36" opacity=".1" transform="translate(12 12)" fill="#000000" fill-rule="nonzero"></circle><circle fill="#E5E5E5" cx="48" cy="48" r="36"></circle><path d="M59.1088423 46.6079063L69.6348626 47.7818295 72.2758425 74.5838295C68.2231682 78.2867284 63.3208562 81.0752573 57.8953693 82.6229532L59.1088423 46.6079063zM37.6046916 46.4414616L38.5567581 82.7487231C33.0940016 81.2677178 28.1469853 78.5329219 24.0437063 74.8723326L26.3776 47.7031239 37.6046916 46.4414616z" fill="#CDCDCD"></path><path d="M36.8827947,42.2026348 C37.0279615,41.5277142 37.6927738,41.0982638 38.3676945,41.2434307 C39.0004326,41.3795246 39.4174253,41.9723381 39.347464,42.6020257 L39.3268986,42.7283305 L38.7395899,45.4588904 C38.6359298,45.9408347 38.2603563,46.3124877 37.7867759,46.416741 L37.6553184,46.438426 L22.2025692,48.1521374 C21.5164198,48.2282314 20.8984994,47.7336838 20.8224053,47.0475344 C20.7510672,46.4042694 21.1812695,45.8209712 21.8006932,45.6878721 L21.9270083,45.6673706 L36.484,44.052 L36.8827947,42.2026348 Z" fill="#B7B7B7" fill-rule="nonzero"></path><path d="M71.9080064,42.2026348 C72.0531733,41.5277142 72.7179855,41.0982638 73.3929062,41.2434307 C74.0256443,41.3795246 74.442637,41.9723381 74.3726757,42.6020257 L74.3521104,42.7283305 L73.7648017,45.4588904 C73.6611416,45.9408347 73.285568,46.3124877 72.8119877,46.416741 L72.6805301,46.438426 L57.2277809,48.1521374 C56.5416315,48.2282314 55.9237111,47.7336838 55.8476171,47.0475344 C55.7762789,46.4042694 56.2064813,45.8209712 56.8259049,45.6878721 L56.9522201,45.6673706 L71.5100005,44.052 L71.9080064,42.2026348 Z" fill="#B7B7B7" fill-rule="nonzero" transform="matrix(-1 0 0 1 130.22 0)"></path><path d="M56,61 C56,64.8659933 52.418278,68 48,68 C43.581722,68 40,64.8659933 40,61 L40,61 L56,61 Z" fill="#B7B7B7" fill-rule="nonzero" transform="rotate(-180 48 64.5)"></path></g></symbol>
<symbol xmlns="http://www.w3.org/2000/svg" xmlns:xlink="http://www.w3.org/1999/xlink" viewBox="0 0 96 96" id="habit-emoji-cry"><defs><linearGradient x1="50%" y1="100%" x2="50%" y2="50%" id="habit-emoji-cry_a"><stop stop-color="#B30B0B" offset="0%"></stop><stop stop-color="#FF6F21" offset="100%"></stop></linearGradient><linearGradient x1="50%" y1="100%" x2="50%" y2="1.092%" id="habit-emoji-cry_b"><stop stop-color="#FFA000" offset="0%"></stop><stop stop-color="#FFD036" offset="100%"></stop></linearGradient><linearGradient x1="50%" y1="0%" x2="50%" y2="72.549%" id="habit-emoji-cry_g"><stop stop-color="#FFD9EE" stop-opacity=".5" offset="0%"></stop><stop stop-color="#FFF9E9" stop-opacity=".2" offset="100%"></stop></linearGradient><linearGradient x1="50%" y1="0%" x2="50%" y2="72.549%" id="habit-emoji-cry_h"><stop stop-color="#FFFFFF" stop-opacity=".3" offset="0%"></stop><stop stop-color="#FFFFFF" stop-opacity="0" offset="100%"></stop></linearGradient><linearGradient x1="50%" y1="0%" x2="50%" y2="79.932%" id="habit-emoji-cry_i"><stop stop-color="#3E303B" offset="0%"></stop><stop stop-color="#1C121A" offset="100%"></stop></linearGradient><circle id="habit-emoji-cry_c" cx="36" cy="36" r="36"></circle><circle id="habit-emoji-cry_e" cx="36" cy="36" r="36"></circle></defs><g fill="none" fill-rule="evenodd"><g><path d="M0 0H96V96H0z"></path><path d="M26.3827211,74 C21.5256921,74.9024946 18.7314517,76.4580501 18,78.6666667 C16.9028225,81.9795915 28.0638166,80.8350199 30.5743172,83 C33.0848177,85.1649801 31.235682,88.8546477 38.1122662,88.8546477 C44.9888505,88.8546477 55.0081691,85.1082976 60.09,85.1082976 C65.1718309,85.1082976 72.506765,86.3333333 77.4543294,83 C82.4018938,79.6666667 75.3373368,74 68.1100289,74 C63.2918237,74 49.3827211,74 26.3827211,74 Z" fill="#53B7F9" fill-rule="nonzero"></path><circle fill="url(#habit-emoji-cry_a)" fill-rule="nonzero" cx="48" cy="48" r="36"></circle><circle cx="36" cy="36" r="36" fill="url(#habit-emoji-cry_b)" fill-rule="nonzero" transform="translate(12 12)"></circle><g transform="translate(12 12)"><mask id="habit-emoji-cry_d" fill="#fff"><use xlink:href="#habit-emoji-cry_c"></use></mask><path fill="#35ADFF" fill-rule="nonzero" mask="url(#habit-emoji-cry_d)" d="M14.3874836 34.909754L11.3827211 70.5654589 26.5629785 70.9795915 25.3241383 33.0427556z"></path></g><g transform="translate(12 12)"><mask id="habit-emoji-cry_f" fill="#fff"><use xlink:href="#habit-emoji-cry_e"></use></mask><path fill="#35ADFF" fill-rule="nonzero" mask="url(#habit-emoji-cry_f)" transform="matrix(-1 0 0 1 106.946 0)" d="M49.3812293 34.909754L45.8827215 70.5654589 61.0629789 70.9795915 59.8241387 33.0427556z"></path></g><circle fill="url(#habit-emoji-cry_g)" fill-rule="nonzero" cx="48" cy="48" r="33"></circle><ellipse fill="url(#habit-emoji-cry_h)" fill-rule="nonzero" cx="48" cy="26.5" rx="19" ry="11.5"></ellipse><path d="M36.8827947,42.2026348 C37.0279615,41.5277142 37.6927738,41.0982638 38.3676945,41.2434307 C39.0004326,41.3795246 39.4174253,41.9723381 39.347464,42.6020257 L39.3268986,42.7283305 L38.7395899,45.4588904 C38.6359298,45.9408347 38.2603563,46.3124877 37.7867759,46.416741 L37.6553184,46.438426 L22.2025692,48.1521374 C21.5164198,48.2282314 20.8984994,47.7336838 20.8224053,47.0475344 C20.7510672,46.4042694 21.1812695,45.8209712 21.8006932,45.6878721 L21.9270083,45.6673706 L36.484,44.052 L36.8827947,42.2026348 Z" fill="#352832" fill-rule="nonzero"></path><path d="M71.9080064,42.2026348 C72.0531733,41.5277142 72.7179855,41.0982638 73.3929062,41.2434307 C74.0256443,41.3795246 74.442637,41.9723381 74.3726757,42.6020257 L74.3521104,42.7283305 L73.7648017,45.4588904 C73.6611416,45.9408347 73.285568,46.3124877 72.8119877,46.416741 L72.6805301,46.438426 L57.2277809,48.1521374 C56.5416315,48.2282314 55.9237111,47.7336838 55.8476171,47.0475344 C55.7762789,46.4042694 56.2064813,45.8209712 56.8259049,45.6878721 L56.9522201,45.6673706 L71.5100005,44.052 L71.9080064,42.2026348 Z" fill="#352832" fill-rule="nonzero" transform="matrix(-1 0 0 1 130.22 0)"></path></g><path d="M16,0.5 C16,4.36599325 12.418278,7.5 8,7.5 C3.581722,7.5 0,4.36599325 0,0.5 L0,0.5 L16,0.5 Z" transform="rotate(-180 28 34.25)" fill="url(#habit-emoji-cry_i)" fill-rule="nonzero"></path></g></symbol>
<symbol xmlns="http://www.w3.org/2000/svg" viewBox="0 0 96 96" id="habit-emoji-general-black"><g fill="none" fill-rule="evenodd"><path d="M0 0H96V96H0z"></path><circle fill="#E5E5E5" fill-rule="nonzero" cx="48" cy="48" r="36"></circle><ellipse fill="#B7B7B7" fill-rule="nonzero" transform="matrix(-1 0 0 1 126 0)" cx="63" cy="43.5" rx="4" ry="6"></ellipse><ellipse fill="#B7B7B7" fill-rule="nonzero" cx="33" cy="44" rx="4" ry="6"></ellipse><path d="M37.9167817,57.7500502 L58.2108417,57.9323465 C58.9011698,57.9385475 59.4557643,58.503196 59.4496654,59.193524 C59.4437498,59.8407066 58.9471134,60.3685921 58.3162438,60.4269403 L58.1883857,60.4322456 L37.8943257,60.2499494 C37.2039976,60.2437483 36.6494031,59.6790999 36.655502,58.9887718 C36.6614176,58.3415892 37.158054,57.8137037 37.7889236,57.7553556 L37.9167817,57.7500502 Z" fill="#B7B7B7" fill-rule="nonzero" transform="matrix(1 0 0 -1 0 118.182)"></path></g></symbol>
<symbol xmlns="http://www.w3.org/2000/svg" viewBox="0 0 96 96" id="habit-emoji-general"><defs><linearGradient x1="50%" y1="100%" x2="50%" y2="50%" id="habit-emoji-general_a"><stop stop-color="#B30B0B" offset="0%"></stop><stop stop-color="#FF6F21" offset="100%"></stop></linearGradient><linearGradient x1="50%" y1="100%" x2="50%" y2="17.595%" id="habit-emoji-general_b"><stop stop-color="#FFA000" offset="0%"></stop><stop stop-color="#FFD935" offset="100%"></stop></linearGradient><linearGradient x1="50%" y1="0%" x2="50%" y2="72.549%" id="habit-emoji-general_c"><stop stop-color="#FFD9EE" stop-opacity=".5" offset="0%"></stop><stop stop-color="#FFF9E9" stop-opacity=".2" offset="100%"></stop></linearGradient><linearGradient x1="50%" y1="0%" x2="50%" y2="72.549%" id="habit-emoji-general_d"><stop stop-color="#FFFFFF" stop-opacity=".3" offset="0%"></stop><stop stop-color="#FFFFFF" stop-opacity="0" offset="100%"></stop></linearGradient><linearGradient x1="50%" y1="0%" x2="50%" y2="100%" id="habit-emoji-general_e"><stop stop-color="#1C121A" offset="0%"></stop><stop stop-color="#3E303B" offset="100%"></stop></linearGradient></defs><g fill="none" fill-rule="evenodd"><path d="M0 0H96V96H0z"></path><circle fill="url(#habit-emoji-general_a)" fill-rule="nonzero" cx="48" cy="48" r="36"></circle><circle fill="url(#habit-emoji-general_b)" fill-rule="nonzero" cx="48" cy="48" r="36"></circle><circle fill="url(#habit-emoji-general_c)" fill-rule="nonzero" cx="48" cy="48" r="33"></circle><ellipse fill="url(#habit-emoji-general_d)" fill-rule="nonzero" cx="48" cy="26.5" rx="19" ry="11.5"></ellipse><path fill="#281D26" fill-rule="nonzero" d="M64.5 10L64.5 30 61.5 30 61.5 10zM74.5 10L74.5 26 71.5 26 71.5 10zM84.5 10L84.5 22 81.5 22 81.5 10z"></path><ellipse cx="4" cy="6.537" rx="4" ry="6" transform="matrix(-1 0 0 1 67 36.963)" fill="url(#habit-emoji-general_e)" fill-rule="nonzero"></ellipse><ellipse fill="url(#habit-emoji-general_e)" fill-rule="nonzero" cx="33" cy="44" rx="4" ry="6"></ellipse><path d="M37.9167817,57.7500502 L58.2108417,57.9323465 C58.9011698,57.9385475 59.4557643,58.503196 59.4496654,59.193524 C59.4437498,59.8407066 58.9471134,60.3685921 58.3162438,60.4269403 L58.1883857,60.4322456 L37.8943257,60.2499494 C37.2039976,60.2437483 36.6494031,59.6790999 36.655502,58.9887718 C36.6614176,58.3415892 37.158054,57.8137037 37.7889236,57.7553556 L37.9167817,57.7500502 Z" fill="#2F2525" fill-rule="nonzero" transform="matrix(1 0 0 -1 0 118.182)"></path></g></symbol>
<symbol xmlns="http://www.w3.org/2000/svg" viewBox="0 0 96 96" id="habit-emoji-sad-black"><g fill="none" fill-rule="evenodd"><path d="M0 0H96V96H0z"></path><circle fill="#E5E5E5" fill-rule="nonzero" cx="48" cy="48" r="36"></circle><ellipse fill="#B7B7B7" fill-rule="nonzero" transform="matrix(-1 0 0 1 126 0)" cx="63" cy="43.463" rx="4" ry="6"></ellipse><ellipse fill="#B7B7B7" fill-rule="nonzero" cx="33" cy="44" rx="4" ry="6"></ellipse><path d="M48,58.75 C52.946365,58.75 57.3847572,60.96619 59.2916872,64.3903886 C59.6275724,64.9935242 59.4109231,65.7547508 58.8077875,66.090636 C58.2046519,66.4265211 57.4434253,66.2098718 57.1075401,65.6067362 C55.6770848,63.0381243 52.0959853,61.25 48,61.25 C43.9905355,61.25 40.4677933,62.9634291 38.978784,65.4571067 C38.6248575,66.0498355 37.8574418,66.243423 37.2647131,65.8894965 C36.6719844,65.53557 36.4783969,64.7681543 36.8323234,64.1754256 C38.8066612,60.8689571 43.1631528,58.75 48,58.75 Z" fill="#B7B7B7" fill-rule="nonzero"></path></g></symbol>
<symbol xmlns="http://www.w3.org/2000/svg" viewBox="0 0 96 96" id="habit-emoji-sad"><defs><linearGradient x1="50%" y1="100%" x2="50%" y2="50%" id="habit-emoji-sad_a"><stop stop-color="#B30B0B" offset="0%"></stop><stop stop-color="#FF6F21" offset="100%"></stop></linearGradient><linearGradient x1="50%" y1="100%" x2="50%" y2="17.595%" id="habit-emoji-sad_b"><stop stop-color="#FFA000" offset="0%"></stop><stop stop-color="#FFD935" offset="100%"></stop></linearGradient><linearGradient x1="50%" y1="58.763%" x2="50%" y2="0%" id="habit-emoji-sad_c"><stop stop-color="#FFDC52" stop-opacity="0" offset="0%"></stop><stop stop-color="#E03131" stop-opacity=".599" offset="100%"></stop></linearGradient><linearGradient x1="50%" y1="0%" x2="50%" y2="72.549%" id="habit-emoji-sad_d"><stop stop-color="#FFD9EE" stop-opacity=".5" offset="0%"></stop><stop stop-color="#FFF9E9" stop-opacity=".2" offset="100%"></stop></linearGradient><linearGradient x1="50%" y1="0%" x2="50%" y2="72.549%" id="habit-emoji-sad_e"><stop stop-color="#FFFFFF" stop-opacity=".3" offset="0%"></stop><stop stop-color="#FFFFFF" stop-opacity="0" offset="100%"></stop></linearGradient><linearGradient x1="50%" y1="0%" x2="50%" y2="100%" id="habit-emoji-sad_f"><stop stop-color="#1C121A" offset="0%"></stop><stop stop-color="#3E303B" offset="100%"></stop></linearGradient></defs><g fill="none" fill-rule="evenodd"><path d="M0 0H96V96H0z"></path><circle fill="url(#habit-emoji-sad_a)" fill-rule="nonzero" cx="48" cy="48" r="36"></circle><circle fill="url(#habit-emoji-sad_b)" fill-rule="nonzero" cx="48" cy="48" r="36"></circle><circle fill="url(#habit-emoji-sad_c)" fill-rule="nonzero" cx="48" cy="48" r="36"></circle><circle fill="url(#habit-emoji-sad_d)" fill-rule="nonzero" cx="48" cy="48" r="33"></circle><ellipse fill="url(#habit-emoji-sad_e)" fill-rule="nonzero" cx="48" cy="26.5" rx="19" ry="11.5"></ellipse><path d="M83.3439696,24.550133 C83.9451502,29.6029359 79.8793172,32.0357496 76.4144165,32.0357496 C72.9495159,32.0357496 68.7677464,29.3677519 69.4845603,24.550133 C69.921939,21.6105639 72.2322193,17.4391028 76.4154013,12.0357496 C80.6794558,17.3950435 82.9889786,21.5665046 83.3439696,24.550133 Z" fill="#53B7F9" fill-rule="nonzero"></path><ellipse cx="4" cy="6" rx="4" ry="6" transform="matrix(-1 0 0 1 67 37.463)" fill="url(#habit-emoji-sad_f)" fill-rule="nonzero"></ellipse><ellipse fill="url(#habit-emoji-sad_f)" fill-rule="nonzero" cx="33" cy="44" rx="4" ry="6"></ellipse><path d="M48,58.75 C52.946365,58.75 57.3847572,60.96619 59.2916872,64.3903886 C59.6275724,64.9935242 59.4109231,65.7547508 58.8077875,66.090636 C58.2046519,66.4265211 57.4434253,66.2098718 57.1075401,65.6067362 C55.6770848,63.0381243 52.0959853,61.25 48,61.25 C43.9905355,61.25 40.4677933,62.9634291 38.978784,65.4571067 C38.6248575,66.0498355 37.8574418,66.243423 37.2647131,65.8894965 C36.6719844,65.53557 36.4783969,64.7681543 36.8323234,64.1754256 C38.8066612,60.8689571 43.1631528,58.75 48,58.75 Z" fill="#2F2525" fill-rule="nonzero"></path></g></symbol>
<symbol xmlns="http://www.w3.org/2000/svg" xmlns:xlink="http://www.w3.org/1999/xlink" viewBox="0 0 96 96" id="habit-emoji-smile-black"><defs><path d="M48,57.5 C51.1231644,57.5 53.8283265,58.7304053 55.1458832,60.5246137 C53.0961768,61.7736032 50.639987,62.5 48,62.5 C45.3601696,62.5 42.9041147,61.7736894 40.8535686,60.5257451 C42.1716735,58.7304053 44.8768356,57.5 48,57.5 Z" id="habit-emoji-smile-black_a"></path></defs><g fill="none" fill-rule="evenodd"><path d="M0 0H96V96H0z"></path><circle fill="#E5E5E5" fill-rule="nonzero" cx="48" cy="48" r="36"></circle><ellipse fill="#B7B7B7" fill-rule="nonzero" transform="matrix(-1 0 0 1 126 0)" cx="63" cy="40" rx="4" ry="6"></ellipse><ellipse fill="#B7B7B7" fill-rule="nonzero" cx="33" cy="40" rx="4" ry="6"></ellipse><path d="M61,50.5 C61,57.127417 55.1797017,62.5 48,62.5 C40.8202983,62.5 35,57.127417 35,50.5 L35,50.5 L61,50.5 Z" fill="#B7B7B7" fill-rule="nonzero"></path><use fill="#A4A4A4" xlink:href="#habit-emoji-smile-black_a"></use></g></symbol>
<symbol xmlns="http://www.w3.org/2000/svg" xmlns:xlink="http://www.w3.org/1999/xlink" viewBox="0 0 96 96" id="habit-emoji-smile"><defs><linearGradient x1="50%" y1="100%" x2="50%" y2="50%" id="habit-emoji-smile_a"><stop stop-color="#B30B0B" offset="0%"></stop><stop stop-color="#FF6F21" offset="100%"></stop></linearGradient><linearGradient x1="50%" y1="100%" x2="50%" y2="17.595%" id="habit-emoji-smile_b"><stop stop-color="#FFA000" offset="0%"></stop><stop stop-color="#FFD935" offset="100%"></stop></linearGradient><linearGradient x1="50%" y1="0%" x2="50%" y2="72.549%" id="habit-emoji-smile_c"><stop stop-color="#FFD9EE" stop-opacity=".5" offset="0%"></stop><stop stop-color="#FFF9E9" stop-opacity=".2" offset="100%"></stop></linearGradient><linearGradient x1="50%" y1="0%" x2="50%" y2="72.549%" id="habit-emoji-smile_d"><stop stop-color="#FFFFFF" stop-opacity=".3" offset="0%"></stop><stop stop-color="#FFFFFF" stop-opacity="0" offset="100%"></stop></linearGradient><linearGradient x1="50%" y1="0%" x2="50%" y2="100%" id="habit-emoji-smile_e"><stop stop-color="#1C121A" offset="0%"></stop><stop stop-color="#3E303B" offset="100%"></stop></linearGradient><linearGradient x1="50%" y1="0%" x2="50%" y2="100%" id="habit-emoji-smile_f"><stop stop-color="#1C121A" offset="0%"></stop><stop stop-color="#3E303B" offset="100%"></stop></linearGradient><path d="M26,0.5 C26,7.127417 20.1797017,12.5 13,12.5 C5.82029825,12.5 0,7.127417 0,0.5 L0,0.5 L26,0.5 Z" id="habit-emoji-smile_g"></path></defs><g fill="none" fill-rule="evenodd"><path d="M0 0H96V96H0z"></path><g fill="#FFDA44" fill-rule="nonzero"><path d="M3.42693468 16.4569295L0 15 0 15 3.42693468 13.5430705C4.37955215 13.138074 5.13807396 12.3795521 5.54307045 11.4269347L7 8 7 8 8.45692955 11.4269347C8.86192604 12.3795521 9.62044785 13.138074 10.5730653 13.5430705L14 15 14 15 10.5730653 16.4569295C9.62044785 16.861926 8.86192604 17.6204479 8.45692955 18.5730653L7 22 7 22 5.54307045 18.5730653C5.13807396 17.6204479 4.37955215 16.861926 3.42693468 16.4569295zM78.7252496 27.6586146L76 26.5 76 26.5 78.7252496 25.3413854C79.6778671 24.9363889 80.4363889 24.1778671 80.8413854 23.2252496L82 20.5 82 20.5 83.1586146 23.2252496C83.5636111 24.1778671 84.3221329 24.9363889 85.2747504 25.3413854L88 26.5 88 26.5 85.2747504 27.6586146C84.3221329 28.0636111 83.5636111 28.8221329 83.1586146 29.7747504L82 32.5 82 32.5 80.8413854 29.7747504C80.4363889 28.8221329 79.6778671 28.0636111 78.7252496 27.6586146zM63.4269347 8.45692955L60 7 60 7 63.4269347 5.54307045C64.3795521 5.13807396 65.138074 4.37955215 65.5430705 3.42693468L67 9.09494702e-13 67 9.09494702e-13 68.4569295 3.42693468C68.861926 4.37955215 69.6204479 5.13807396 70.5730653 5.54307045L74 7 74 7 70.5730653 8.45692955C69.6204479 8.86192604 68.861926 9.62044785 68.4569295 10.5730653L67 14 67 14 65.5430705 10.5730653C65.138074 9.62044785 64.3795521 8.86192604 63.4269347 8.45692955z" transform="translate(5)"></path></g><circle fill="url(#habit-emoji-smile_a)" fill-rule="nonzero" cx="48" cy="48" r="36"></circle><circle fill="url(#habit-emoji-smile_b)" fill-rule="nonzero" cx="48" cy="48" r="36"></circle><circle fill="url(#habit-emoji-smile_c)" fill-rule="nonzero" cx="48" cy="48" r="33"></circle><ellipse fill="url(#habit-emoji-smile_d)" fill-rule="nonzero" cx="48" cy="26.5" rx="19" ry="11.5"></ellipse><ellipse cx="4" cy="6.537" rx="4" ry="6" transform="matrix(-1 0 0 1 67 33.463)" fill="url(#habit-emoji-smile_e)" fill-rule="nonzero"></ellipse><ellipse fill="url(#habit-emoji-smile_e)" fill-rule="nonzero" cx="33" cy="40" rx="4" ry="6"></ellipse><g><path d="M26,0.5 C26,7.127417 20.1797017,12.5 13,12.5 C5.82029825,12.5 0,7.127417 0,0.5 L0,0.5 L26,0.5 Z" fill="url(#habit-emoji-smile_f)" fill-rule="nonzero" transform="translate(35 50)"></path><g transform="translate(35 50)"><mask id="habit-emoji-smile_h" fill="#fff"><use xlink:href="#habit-emoji-smile_g"></use></mask><ellipse fill="#F0183E" fill-rule="nonzero" mask="url(#habit-emoji-smile_h)" cx="13" cy="13" rx="8" ry="5.5"></ellipse></g></g><ellipse fill="#E03131" fill-rule="nonzero" opacity=".2" cx="26" cy="48" rx="6" ry="2"></ellipse><ellipse fill="#E03131" fill-rule="nonzero" opacity=".2" cx="70" cy="48" rx="6" ry="2"></ellipse></g></symbol>
<symbol xmlns="http://www.w3.org/2000/svg" viewBox="0 0 96 96" id="habit-emoji-smiley-black"><g fill="none" fill-rule="evenodd"><path d="M0 0H96V96H0z"></path><circle fill="#E5E5E5" fill-rule="nonzero" cx="48" cy="48" r="36"></circle><path d="M29.0660751,32.3844578 C30.640109,32.2419313 32.2253141,32.4653875 33.7893122,33.0393451 L34.1798512,33.1901277 C36.4923599,34.0649638 38.75,36.1168929 38.75,37.222372 C38.75,37.7143129 38.495051,38.0921758 38.1482579,38.3150729 C37.9883453,38.4178549 37.8361757,38.4735657 37.6722084,38.5113233 C37.5511274,38.5392051 37.4269821,38.5555349 37.2838351,38.5655108 L37.133764,38.5735613 C37.049052,38.5769574 36.9744455,38.5791012 36.8842798,38.5800319 L36.2868919,38.576164 L35.2727255,38.5639883 L34.6707998,38.5640705 L34.1228814,38.5728933 C33.946732,38.5774326 33.7758172,38.5836409 33.6063701,38.5917307 L33.0986653,38.6218566 C33.0135261,38.6278891 32.9278122,38.634445 32.8410527,38.6415509 C31.1006968,38.7840924 29.4749803,39.1555543 27.9599541,39.7550917 C27.3180333,40.0091173 26.5917253,39.6946662 26.3376996,39.0527454 C26.083674,38.4108246 26.3981251,37.6845165 27.0400459,37.4304909 C28.7878885,36.7388216 30.6548485,36.3122377 32.636977,36.1498942 C33.0686993,36.1145346 33.4732091,36.0915438 33.8965843,36.0781375 L34.414,36.066 L34.1616199,35.9243602 C33.9726895,35.8230945 33.777246,35.7286638 33.5755381,35.641969 L33.2683088,35.5178416 C31.9111321,34.9681534 30.5902725,34.7566718 29.2915242,34.8742716 C28.6039811,34.9365277 27.9961488,34.4296324 27.9338928,33.7420893 C27.8716367,33.0545462 28.378532,32.4467139 29.0660751,32.3844578 Z" fill="#B7B7B7" fill-rule="nonzero"></path><path d="M60.066075,32.3844578 C61.6401089,32.2419313 63.225314,32.4653875 64.7893121,33.0393451 L65.1798511,33.1901277 C67.4923598,34.0649638 69.7499999,36.1168929 69.7499999,37.222372 C69.7499999,37.7143129 69.4950509,38.0921758 69.1482578,38.3150729 C68.9883452,38.4178549 68.8361756,38.4735657 68.6722083,38.5113233 C68.5511273,38.5392051 68.426982,38.5555349 68.283835,38.5655108 L68.1337639,38.5735613 C68.0490519,38.5769574 67.9744454,38.5791012 67.8842797,38.5800319 L67.2868918,38.576164 L66.2727254,38.5639883 L65.6707997,38.5640705 L65.1228813,38.5728933 C64.9467319,38.5774326 64.7758171,38.5836409 64.60637,38.5917307 L64.0986652,38.6218566 C64.013526,38.6278891 63.9278121,38.634445 63.8410526,38.6415509 C62.1006967,38.7840924 60.4749802,39.1555543 58.959954,39.7550917 C58.3180332,40.0091173 57.5917252,39.6946662 57.3376995,39.0527454 C57.0836739,38.4108246 57.398125,37.6845165 58.0400458,37.4304909 C59.7878884,36.7388216 61.6548484,36.3122377 63.6369769,36.1498942 C64.0686992,36.1145346 64.473209,36.0915438 64.8965842,36.0781375 L65.4139999,36.066 L65.1616198,35.9243602 C64.9726894,35.8230945 64.7772459,35.7286638 64.575538,35.641969 L64.2683087,35.5178416 C62.911132,34.9681534 61.5902724,34.7566718 60.2915241,34.8742716 C59.603981,34.9365277 58.9961487,34.4296324 58.9338927,33.7420893 C58.8716366,33.0545462 59.3785319,32.4467139 60.066075,32.3844578 Z" fill="#B7B7B7" fill-rule="nonzero" transform="matrix(-1 0 0 1 127 0)"></path><path d="M69,46 C69,57.045695 59.5979797,66 48,66 C36.4020202,66 27,57.045695 27,46 L27,46 L69,46 Z" fill="#B7B7B7"></path><path d="M48,57 C53.4829758,57 58.1731433,59.219426 60.0837133,62.3592236 C56.6666353,64.6528909 52.4985006,66 48,66 C43.5014994,66 39.3333647,64.6528909 35.9160845,62.3591382 C37.8268567,59.219426 42.5170242,57 48,57 Z" fill="#A4A4A4"></path><path d="M29,46 L68,46 C68,48.209139 66.209139,50 64,50 L33,50 C30.790861,50 29,48.209139 29,46 L29,46 L29,46 Z" fill="#F8F8F8" fill-rule="nonzero"></path></g></symbol>
<symbol xmlns="http://www.w3.org/2000/svg" xmlns:xlink="http://www.w3.org/1999/xlink" viewBox="0 0 96 96" id="habit-emoji-smiley"><defs><linearGradient x1="50%" y1="100%" x2="50%" y2="17.595%" id="habit-emoji-smiley_a"><stop stop-color="#FFA000" offset="0%"></stop><stop stop-color="#FFD935" offset="100%"></stop></linearGradient><linearGradient x1="50%" y1="0%" x2="50%" y2="72.549%" id="habit-emoji-smiley_b"><stop stop-color="#FFD9EE" stop-opacity=".5" offset="0%"></stop><stop stop-color="#FFF9E9" stop-opacity=".2" offset="100%"></stop></linearGradient><linearGradient x1="50%" y1="0%" x2="50%" y2="72.549%" id="habit-emoji-smiley_c"><stop stop-color="#FFFFFF" stop-opacity=".3" offset="0%"></stop><stop stop-color="#FFFFFF" stop-opacity="0" offset="100%"></stop></linearGradient><linearGradient x1="50%" y1="0%" x2="50%" y2="100%" id="habit-emoji-smiley_d"><stop stop-color="#1C121A" offset="0%"></stop><stop stop-color="#3E303B" offset="100%"></stop></linearGradient><path d="M42,0 C42,11.045695 32.5979797,20 21,20 C9.40202025,20 0,11.045695 0,0 L0,0 L42,0 Z" id="habit-emoji-smiley_e"></path><path d="M42,0 C42,11.045695 32.5979797,20 21,20 C9.40202025,20 0,11.045695 0,0 L0,0 L42,0 Z" id="habit-emoji-smiley_g"></path></defs><g fill="none" fill-rule="evenodd"><g><path d="M0 0H96V96H0z"></path><circle fill="url(#habit-emoji-smiley_a)" fill-rule="nonzero" cx="48" cy="48" r="36"></circle><circle fill="url(#habit-emoji-smiley_b)" fill-rule="nonzero" cx="48" cy="48" r="33"></circle><ellipse fill="url(#habit-emoji-smiley_c)" fill-rule="nonzero" cx="48" cy="26.5" rx="19" ry="11.5"></ellipse><path d="M72.0808354,19.5408392 C72.8643608,14.4719012 77.2001406,13.9813402 79.652712,15.1277211 C81.2060073,15.8537623 82.3324606,17.0935247 83.0320722,18.8470083 L83.13899,19.1281433 C84.6706917,17.8309958 86.3322974,17.2674475 88.1238071,17.4374983 C90.8110718,17.6925745 94.3249295,20.3234626 92.5128543,25.1119502 C91.5835849,27.567585 88.7678983,29.8112698 84.0657943,31.8430049 L83.3463305,32.1461755 C83.1017932,32.2467025 82.8525399,32.3466997 82.5985705,32.4461669 L81.8225143,32.7429791 C81.6908136,32.7921828 81.5579338,32.8412541 81.4238751,32.8901929 L80.6053744,33.1822362 C80.3278248,33.279054 80.0455592,33.3753421 79.7585775,33.4711002 L79.324568,33.61434 L79.0190857,33.2694661 L79.0190857,33.2694661 L78.4276717,32.5884513 C78.331275,32.4759192 78.2359644,32.3638722 78.14174,32.2523103 L77.5894271,31.5887613 L77.5894271,31.5887613 L77.0631817,30.9368561 C73.2996288,26.1989124 71.6388467,22.4002401 72.0808354,19.5408392 Z" fill="#FC4363" fill-rule="nonzero" transform="rotate(15 82.511 24.114)"></path><path d="M60.8069561,6.49974524 C61.3293064,3.29831074 64.2198263,2.98848272 65.8548739,3.71251277 C66.890404,4.17106513 67.6413729,4.95407297 68.1077806,6.06153629 L68.1790592,6.23909522 C69.2001936,5.4198442 70.3079308,5.06391894 71.5022706,5.17131944 C73.2937804,5.33242019 75.6363522,6.9940337 74.428302,10.0183417 C73.8087891,11.5692689 71.9316647,12.986333 68.7969287,14.2695341 L68.3172862,14.4610103 C68.1542613,14.524501 67.9880925,14.5876571 67.8187795,14.6504785 L67.3014087,14.8379388 C67.2136082,14.8690149 67.1250217,14.9000073 67.0356492,14.930916 L66.4899821,15.1153644 C66.3049491,15.1765125 66.116772,15.237326 65.9254509,15.2978048 L65.6361112,15.3882721 L65.4324563,15.170457 L65.4324563,15.170457 L65.0381803,14.7403423 C64.9739159,14.6692694 64.9103755,14.5985029 64.8475592,14.5280428 L64.4793506,14.1089592 L64.4793506,14.1089592 L64.1285203,13.6972296 C61.619485,10.7048441 60.512297,8.30568265 60.8069561,6.49974524 Z" fill="#FC4363" fill-rule="nonzero" transform="rotate(-30 67.76 9.388)"></path><ellipse fill="#E03131" fill-rule="nonzero" opacity=".2" cx="26" cy="41.5" rx="6" ry="2.5"></ellipse><ellipse fill="#E03131" fill-rule="nonzero" opacity=".2" cx="70" cy="41.5" rx="6" ry="2.5"></ellipse><path d="M29.0660751,32.3844578 C30.640109,32.2419313 32.2253141,32.4653875 33.7893122,33.0393451 L34.1798512,33.1901277 C36.4923599,34.0649638 38.75,36.1168929 38.75,37.222372 C38.75,37.7143129 38.495051,38.0921758 38.1482579,38.3150729 C37.9883453,38.4178549 37.8361757,38.4735657 37.6722084,38.5113233 C37.5511274,38.5392051 37.4269821,38.5555349 37.2838351,38.5655108 L37.133764,38.5735613 C37.049052,38.5769574 36.9744455,38.5791012 36.8842798,38.5800319 L36.2868919,38.576164 L35.2727255,38.5639883 L34.6707998,38.5640705 L34.1228814,38.5728933 C33.946732,38.5774326 33.7758172,38.5836409 33.6063701,38.5917307 L33.0986653,38.6218566 C33.0135261,38.6278891 32.9278122,38.634445 32.8410527,38.6415509 C31.1006968,38.7840924 29.4749803,39.1555543 27.9599541,39.7550917 C27.3180333,40.0091173 26.5917253,39.6946662 26.3376996,39.0527454 C26.083674,38.4108246 26.3981251,37.6845165 27.0400459,37.4304909 C28.7878885,36.7388216 30.6548485,36.3122377 32.636977,36.1498942 C33.0686993,36.1145346 33.4732091,36.0915438 33.8965843,36.0781375 L34.414,36.066 L34.1616199,35.9243602 C33.9726895,35.8230945 33.777246,35.7286638 33.5755381,35.641969 L33.2683088,35.5178416 C31.9111321,34.9681534 30.5902725,34.7566718 29.2915242,34.8742716 C28.6039811,34.9365277 27.9961488,34.4296324 27.9338928,33.7420893 C27.8716367,33.0545462 28.378532,32.4467139 29.0660751,32.3844578 Z" fill="#2B1F28" fill-rule="nonzero"></path><path d="M60.066075,32.3844578 C61.6401089,32.2419313 63.225314,32.4653875 64.7893121,33.0393451 L65.1798511,33.1901277 C67.4923598,34.0649638 69.7499999,36.1168929 69.7499999,37.222372 C69.7499999,37.7143129 69.4950509,38.0921758 69.1482578,38.3150729 C68.9883452,38.4178549 68.8361756,38.4735657 68.6722083,38.5113233 C68.5511273,38.5392051 68.426982,38.5555349 68.283835,38.5655108 L68.1337639,38.5735613 C68.0490519,38.5769574 67.9744454,38.5791012 67.8842797,38.5800319 L67.2868918,38.576164 L66.2727254,38.5639883 L65.6707997,38.5640705 L65.1228813,38.5728933 C64.9467319,38.5774326 64.7758171,38.5836409 64.60637,38.5917307 L64.0986652,38.6218566 C64.013526,38.6278891 63.9278121,38.634445 63.8410526,38.6415509 C62.1006967,38.7840924 60.4749802,39.1555543 58.959954,39.7550917 C58.3180332,40.0091173 57.5917252,39.6946662 57.3376995,39.0527454 C57.0836739,38.4108246 57.398125,37.6845165 58.0400458,37.4304909 C59.7878884,36.7388216 61.6548484,36.3122377 63.6369769,36.1498942 C64.0686992,36.1145346 64.473209,36.0915438 64.8965842,36.0781375 L65.4139999,36.066 L65.1616198,35.9243602 C64.9726894,35.8230945 64.7772459,35.7286638 64.575538,35.641969 L64.2683087,35.5178416 C62.911132,34.9681534 61.5902724,34.7566718 60.2915241,34.8742716 C59.603981,34.9365277 58.9961487,34.4296324 58.9338927,33.7420893 C58.8716366,33.0545462 59.3785319,32.4467139 60.066075,32.3844578 Z" fill="#2B1F28" fill-rule="nonzero" transform="matrix(-1 0 0 1 127 0)"></path></g><path d="M42,0 C42,11.045695 32.5979797,20 21,20 C9.40202025,20 0,11.045695 0,0 L0,0 L42,0 Z" fill="url(#habit-emoji-smiley_d)" fill-rule="nonzero" transform="translate(27 46)"></path><g transform="translate(27 46)"><mask id="habit-emoji-smiley_f" fill="#fff"><use xlink:href="#habit-emoji-smiley_e"></use></mask><path d="M2,0 L41,0 C41,2.209139 39.209139,4 37,4 L6,4 C3.790861,4 2,2.209139 2,0 L2,0 L2,0 Z" fill="#F8F8F8" fill-rule="nonzero" mask="url(#habit-emoji-smiley_f)"></path></g><g transform="translate(27 46)"><mask id="habit-emoji-smiley_h" fill="#fff"><use xlink:href="#habit-emoji-smiley_g"></use></mask><ellipse fill="#F0183E" fill-rule="nonzero" mask="url(#habit-emoji-smiley_h)" cx="21" cy="19.5" rx="13" ry="8.5"></ellipse></g></g></symbol>
<symbol xmlns="http://www.w3.org/2000/svg" viewBox="0 0 18 18" id="habit-list"><path d="M4.5,14.25C4.5,15.0784,3.82843,15.75,3,15.75C2.171573,15.75,1.5,15.0784,1.5,14.25C1.5,13.4216,2.171573,12.75,3,12.75C3.82843,12.75,4.5,13.4216,4.5,14.25ZM5.625,14.25C5.625,14.6642,5.96079,15,6.375,15L15.75,15C16.1642,15,16.5,14.6642,16.5,14.25C16.5,13.8358,16.1642,13.5,15.75,13.5L6.375,13.5C5.96079,13.5,5.625,13.8358,5.625,14.25ZM4.5,3.75C4.5,4.57843,3.82843,5.25,3,5.25C2.171573,5.25,1.5,4.57843,1.5,3.75C1.5,2.921573,2.171573,2.25,3,2.25C3.82843,2.25,4.5,2.921573,4.5,3.75ZM5.625,3.9375C5.625,4.351710000000001,5.96079,4.6875,6.375,4.6875L15.75,4.6875C16.1642,4.6875,16.5,4.351710000000001,16.5,3.9375C16.5,3.5232900000000003,16.1642,3.1875,15.75,3.1875L6.375,3.1875C5.96079,3.1875,5.625,3.5232900000000003,5.625,3.9375ZM4.5,9C4.5,9.82843,3.82843,10.5,3,10.5C2.171573,10.5,1.5,9.82843,1.5,9C1.5,8.17157,2.171573,7.5,3,7.5C3.82843,7.5,4.5,8.17157,4.5,9ZM5.625,9C5.625,9.41421,5.96079,9.75,6.375,9.75L15.75,9.75C16.1642,9.75,16.5,9.41421,16.5,9C16.5,8.58579,16.1642,8.25,15.75,8.25L6.375,8.25C5.96079,8.25,5.625,8.58579,5.625,9Z"></path></symbol>
<symbol xmlns="http://www.w3.org/2000/svg" viewBox="0 0 20 20" id="habit-sidebar"><path d="M11.9451,18.906002777576447Q18.75,13.411702777576446,18.75,9.150002777576447C18.75,4.317512777576447,14.8325,0.40000277757644653,10,0.40000277757644653C5.16751,0.40000277757644653,1.25,4.317512777576447,1.25,9.150002777576447Q1.25,13.411702777576446,8.0549,18.906002777576447C9.18707,19.820102777576448,10.81293,19.820102777576448,11.9451,18.906002777576447ZM8.95837,4.583352777576446C8.95837,4.008052777576447,9.42474,3.5416827775764466,10.00004,3.5416827775764466C10.57534,3.5416827775764466,11.04171,4.008052777576447,11.04171,4.583352777576446L11.04171,8.124982777576447L12.9167,8.124982777576447C13.492,8.124982777576447,13.9584,8.591352777576446,13.9584,9.166642777576447C13.9584,9.741942777576446,13.492,10.208312777576447,12.9167,10.208312777576447L10.00938,10.208312777576447L10.00004,10.208352777576447C9.4607,10.208352777576447,9.0171,9.798452777576447,8.963750000000001,9.273192777576446C8.9602,9.238172777576446,8.95837,9.202642777576447,8.95837,9.166682777576446L8.95837,9.166642777576447L8.95837,4.583352777576446Z" fill-rule="evenodd"></path></symbol>
<symbol xmlns="http://www.w3.org/2000/svg" viewBox="0 0 16 16" id="habit-style"><path d="M1,3.66667L1,12.3333C1,13.8061,2.19391,15,3.66667,15L12.3333,15C13.8061,15,15,13.8061,15,12.3333L15,3.66667C15,2.19391,13.8061,1,12.3333,1L3.66667,1C2.19391,1,1,2.19391,1,3.66667ZM2.7238800000000003,13.2762Q2.33333,12.8856,2.33333,12.3333L2.33333,3.66667Q2.33333,3.11438,2.72386,2.72386Q3.11438,2.33333,3.66667,2.33333L12.3333,2.33333Q12.8856,2.3332699999999997,13.2761,2.7237999999999998Q13.6667,3.11438,13.6667,3.66667L13.6667,12.3333Q13.6666,12.8857,13.2761,13.2762Q12.8856,13.6667,12.3333,13.6667L3.66667,13.6667Q3.1144,13.6667,2.7238800000000003,13.2762ZM5.64363,7.52514C5.38328,7.26479,4.96117,7.26479,4.70082,7.52514C4.4404699999999995,7.78549,4.4404699999999995,8.2076,4.70082,8.46795L6.5711,10.33823C6.57589,10.34332,6.58077,10.34836,6.58575,10.35333C6.66161,10.42919,6.75119,10.48295,6.84652,10.5146C7.07851,10.59192,7.34457,10.53824,7.52925,10.35357C7.53629,10.34652,7.54315,10.33936,7.54981,10.33208L11.2998,6.5821C11.5601,6.32175,11.5601,5.89964,11.2998,5.63929C11.0394,5.37894,10.61733,5.37894,10.35698,5.63929L7.05738,8.93889L5.64363,7.52514Z" fill-rule="evenodd"></path></symbol>
<symbol xmlns="http://www.w3.org/2000/svg" viewBox="0 0 24 24" id="habit-uncomplete"><path d="M12,20 C7.581722,20 4,16.418278 4,12 C4,7.581722 7.581722,4 12,4 C16.418278,4 20,7.581722 20,12 C20,16.418278 16.418278,20 12,20 Z M12,11.057191 L9.6429774,8.70016835 L8.70016835,9.6429774 L11.057191,12 L8.70016835,14.3570226 L9.6429774,15.2998316 L12,12.942809 L14.3570226,15.2998316 L15.2998316,14.3570226 L12.942809,12 L15.2998316,9.6429774 L14.3570226,8.70016835 L12,11.057191 Z" fill-rule="evenodd"></path></symbol>
<symbol xmlns="http://www.w3.org/2000/svg" viewBox="0 0 10 10" id="habit-undone"><g fill-rule="evenodd"><path d="M0 0H10V10H0z"></path><path d="M4.4,4.4 L4.4,2.6 C4.4,2.26862915 4.66862915,2 5,2 C5.33137085,2 5.6,2.26862915 5.6,2.6 L5.6,4.4 L7.4,4.4 C7.73137085,4.4 8,4.66862915 8,5 C8,5.33137085 7.73137085,5.6 7.4,5.6 L5.6,5.6 L5.6,7.4 C5.6,7.73137085 5.33137085,8 5,8 C4.66862915,8 4.4,7.73137085 4.4,7.4 L4.4,5.6 L2.6,5.6 C2.26862915,5.6 2,5.33137085 2,5 C2,4.66862915 2.26862915,4.4 2.6,4.4 L4.4,4.4 Z" fill="#FFFFFF" fill-rule="nonzero" transform="rotate(45 5 5)"></path></g></symbol>
</svg>