<svg xmlns="http://www.w3.org/2000/svg" xmlns:xlink="http://www.w3.org/1999/xlink" style="position: absolute; width: 0; height: 0" aria-hidden="true" id="__SVG_SPRITE_NODE__">
<symbol xmlns="http://www.w3.org/2000/svg" fill="none" viewBox="0 0 16 16" id="habit_month_checkins"><g style="mix-blend-mode:passthrough"><path d="M12.638270703125,11.7211Q12.890870703125,11.484,13.117970703125,11.2223Q13.345070703125,10.9607,13.544270703125,10.6773Q13.743570703125,10.3939,13.912870703125,10.0917Q14.082170703125,9.78941,14.219770703125,9.47148Q14.357370703125,9.15355,14.461870703125,8.82324Q14.566370703125,8.49294,14.636670703125,8.15371Q14.706870703125,7.81447,14.742170703125,7.46984Q14.777570703125,7.12521,14.777570703125,6.77878Q14.777570703125,6.61237,14.769370703125,6.44616Q14.761170703125,6.27995,14.744870703125,6.11434Q14.728570703125,5.94873,14.704170703125,5.78412Q14.679770703125,5.61952,14.647270703125,5.4563Q14.614770703125,5.29309,14.574370703125,5.13167Q14.533970703125,4.97025,14.485670703125,4.811Q14.437370703125,4.65176,14.381270703125,4.49508Q14.325170703125,4.33839,14.261570703125,4.18465Q14.197870703125,4.03091,14.126670703125,3.88048Q14.055570703125,3.73004,13.977070703125,3.58328Q13.898670703125,3.43652,13.813070703125,3.29379Q13.727570703125,3.15105,13.635070703125,3.01269Q13.542670703125,2.87433,13.443470703125,2.74066Q13.344370703125,2.607,13.238770703125,2.47837Q13.133270703125,2.34973,13.021470703125,2.22643Q12.909770703125,2.10313,12.792070703125,1.98546Q12.674370703125,1.86779,12.551070703125,1.75603Q12.427770703125,1.64428,12.299170703125,1.53871Q12.170570703125,1.43314,12.036870703125,1.33401Q11.903170703125,1.23488,11.764870703125,1.14243Q11.626470703125,1.04998,11.483770703125,0.964426Q11.340970703125,0.878874,11.194240703125,0.800429Q11.047480703125,0.721985,10.897050703125,0.650835Q10.746620703125,0.579686,10.592870703125,0.516004Q10.439130703125,0.452321,10.282450703125,0.39626Q10.125770703125,0.340198,9.966520703125,0.291892Q9.807280703125,0.243586,9.645860703125,0.203151Q9.484430703125,0.162717,9.321220703125,0.130252Q9.158010703125,0.0977874,8.993400703125001,0.07337Q8.828790703125,0.0489527,8.663180703125,0.0326417Q8.497580703125,0.0163307,8.331370703125,0.00816533Q8.165160703125,0,7.998750703125,0Q7.832340703125,0,7.666130703125,0.00816533Q7.499920703125,0.0163307,7.334310703125,0.0326417Q7.168700703125,0.0489527,7.004090703125,0.07337Q6.839490703125,0.0977874,6.676270703125,0.130252Q6.513060703125,0.162717,6.351640703125,0.203151Q6.190220703125,0.243586,6.030970703125,0.291892Q5.871730703125,0.340198,5.715050703125,0.39626Q5.558360703125,0.452321,5.404620703125,0.516004Q5.250880703125,0.579686,5.100450703125,0.650835Q4.950010703125,0.721985,4.803250703125,0.80043Q4.656490703125,0.878874,4.5137607031249996,0.964426Q4.371020703125,1.04998,4.232660703125,1.14243Q4.0943007031250005,1.23488,3.960630703125,1.33401Q3.826970703125,1.43314,3.698340703125,1.53871Q3.569700703125,1.64428,3.446400703125,1.75603Q3.323100703125,1.86779,3.205430703125,1.98546Q3.0877607031250003,2.10313,2.976000703125,2.22643Q2.864250703125,2.34973,2.758680703125,2.47837Q2.653110703125,2.607,2.553980703125,2.74066Q2.454850703125,2.87433,2.362400703125,3.01269Q2.2699507031249997,3.15105,2.184396703125,3.29379Q2.098844703125,3.43652,2.020399703125,3.58328Q1.941955703125,3.73004,1.870805703125,3.88048Q1.7996567031250001,4.03091,1.7359747031250001,4.18465Q1.672291703125,4.33839,1.616230703125,4.49508Q1.560168703125,4.65176,1.511862703125,4.811Q1.463556703125,4.97025,1.423121703125,5.13167Q1.382687703125,5.29309,1.350222703125,5.4563Q1.317758103125,5.61952,1.293340703125,5.78412Q1.268923403125,5.94873,1.252612403125,6.11434Q1.236301403125,6.27995,1.228136033125,6.44616Q1.219970703125,6.61237,1.219970703125,6.77878Q1.2199707031250002,7.12745,1.255745203125,7.47429Q1.291519703125,7.82112,1.362690703125,8.16246Q1.433862703125,8.50379,1.539679703125,8.83602Q1.645496703125,9.16825,1.784842703125,9.48787Q1.924188703125,9.8075,2.095592703125,10.1111Q2.267000703125,10.4148,2.4686507031250002,10.6992Q2.670300703125,10.9837,2.900080703125,11.2459Q3.1298507031250002,11.5082,3.385320703125,11.7455L6.765210703125,15.1254Q6.825980703125,15.1861,6.892410703125,15.2407Q6.958840703125,15.2952,7.030300703125,15.3429Q7.101760703125,15.3907,7.177550703125,15.4312Q7.253340703125,15.4717,7.332740703125,15.5046Q7.412140703125,15.5375,7.494380703125,15.5624Q7.576620703125,15.5874,7.660910703125,15.6041Q7.745200703125,15.6209,7.830730703125,15.6293Q7.916250703125,15.6377,8.002190703124999,15.6377Q8.088140703125,15.6377,8.173660703125,15.6293Q8.259190703125,15.6209,8.343480703125,15.6041Q8.427770703124999,15.5874,8.510010703125001,15.5624Q8.592250703125,15.5375,8.671650703125,15.5046Q8.751050703125,15.4717,8.826840703125,15.4312Q8.902630703125,15.3907,8.974090703125,15.3429Q9.045550703125,15.2952,9.111980703124999,15.2407Q9.178410703125,15.1861,9.239180703125,15.1254L12.640870703125,11.7237L12.638270703125,11.7211Z" fill-rule="evenodd" fill="#0CCE9C" opacity=".8"></path><path d="M4.647295250793945,7.998328549072266L4.647296091793946,10.492206549072266Q4.647296152793945,10.672736549072265,4.7294119387939455,10.833506549072265Q4.776420138793945,10.926176549072267,4.846851138793945,11.002566549072267Q4.917281138793945,11.078966549072266,5.0058291387939455,11.133336549072265Q5.094376138793946,11.187706549072265,5.194370138793945,11.215956549072265Q5.294364138793945,11.244206549072265,5.3982711387939455,11.244206549072265L10.398269138793946,11.244206549072265Q10.547459138793945,11.244206549072265,10.685279138793945,11.187116549072265Q10.823109138793946,11.130026549072266,10.928599138793945,11.024536549072266Q11.034089138793945,10.919046549072267,11.091179138793946,10.781216549072266Q11.148269138793946,10.643386549072265,11.148269138793946,10.494206549072265Q11.148269138793946,10.345016549072266,11.091179138793946,10.207186549072265Q11.034089138793945,10.069366549072265,10.928599138793945,9.963876549072266Q10.823109138793946,9.858386549072266,10.685279138793945,9.801296549072266Q10.547459138793945,9.744206549072265,10.398269138793946,9.744206549072265L6.1479791387939455,9.744206549072265L6.147969138793945,7.998328549072266Q6.147969138793945,7.849076549072265,6.090859138793945,7.7111865490722655Q6.033739138793946,7.573295549072266,5.928209138793945,7.467758549072266Q5.8226691387939455,7.362221549072266,5.684779138793945,7.305105449072266Q5.546886138793945,7.247989351072266,5.397634138793945,7.247989401072266Q5.323732138793945,7.247989426072266,5.251250138793945,7.262407049072266Q5.178768138793945,7.276824549072265,5.110492138793945,7.3051056490722655Q5.042215138793946,7.3333867490722655,4.9807681387939455,7.374444549072265Q4.919321138793945,7.415502549072266,4.867064138793945,7.467758549072266Q4.814808138793945,7.520015549072266,4.773750138793945,7.581462549072266Q4.732692338793945,7.642909549072265,4.704411338793945,7.7111865490722655Q4.6761303387939455,7.7794625490722655,4.661712738793946,7.8519445490722655Q4.647295225793945,7.924426549072265,4.647295250793945,7.998328549072266Z" fill-rule="evenodd" fill="#FFFFFF" transform="rotate(-45 4.648 7.248)"></path></g></symbol>
</svg>