<svg xmlns="http://www.w3.org/2000/svg" xmlns:xlink="http://www.w3.org/1999/xlink" style="position: absolute; width: 0; height: 0" aria-hidden="true" id="__SVG_SPRITE_NODE__">
<symbol xmlns="http://www.w3.org/2000/svg" viewBox="0 0 15 15" id="habit_record_uncomplete"><g style="mix-blend-mode:passthrough"><g style="mix-blend-mode:passthrough"><path d="M9.514265913770199,10.457419999999999L4.561844913770199,5.457417L5.485466913770199,4.542583L10.437885913770199,9.542580000000001L9.514265913770199,10.457419999999999ZM10.6260759137702,10Q10.6260759137702,10.06402,10.613585913770198,10.126809999999999Q10.601095913770198,10.1896,10.576595913770198,10.24874Q10.552095913770199,10.30789,10.516525913770199,10.36112Q10.480965913770198,10.414349999999999,10.4356959137702,10.459620000000001Q10.390425913770198,10.50489,10.337195913770199,10.54045Q10.2839659137702,10.57602,10.224815913770199,10.60052Q10.165675913770198,10.62502,10.102885913770198,10.637509999999999Q10.040095913770198,10.65,9.976075913770199,10.65Q9.9120559137702,10.65,9.8492659137702,10.637509999999999Q9.786475913770198,10.62502,9.727325913770198,10.60052Q9.668185913770198,10.57602,9.6149559137702,10.54045Q9.5617259137702,10.50489,9.516455913770198,10.459620000000001Q9.4711859137702,10.414349999999999,9.4356159137702,10.36112Q9.4000559137702,10.30789,9.3755559137702,10.24874Q9.3510559137702,10.1896,9.3385659137702,10.126809999999999Q9.326075913770199,10.06402,9.326075913770199,10Q9.326075913770199,9.93598,9.3385659137702,9.873190000000001Q9.3510559137702,9.8104,9.3755559137702,9.75126Q9.4000559137702,9.69211,9.4356159137702,9.63888Q9.4711859137702,9.585650000000001,9.516455913770198,9.540379999999999Q9.5617259137702,9.49511,9.6149559137702,9.45954Q9.668185913770198,9.42398,9.727325913770198,9.39948Q9.786475913770198,9.37498,9.8492659137702,9.362490000000001Q9.9120559137702,9.35,9.976075913770199,9.35Q10.040095913770198,9.35,10.102885913770198,9.362490000000001Q10.165675913770198,9.37498,10.224815913770199,9.39948Q10.2839659137702,9.42398,10.337195913770199,9.45954Q10.390425913770198,9.49511,10.4356959137702,9.540379999999999Q10.480965913770198,9.585650000000001,10.516525913770199,9.63888Q10.552095913770199,9.69211,10.576595913770198,9.75126Q10.601095913770198,9.8104,10.613585913770198,9.873190000000001Q10.6260759137702,9.93598,10.6260759137702,10ZM5.673655913770199,5Q5.673655913770199,5.0640194,5.661165913770199,5.126809Q5.648676913770199,5.189598,5.624177913770199,5.248744Q5.599677913770199,5.30789,5.5641109137701985,5.361121Q5.528543913770199,5.414351,5.483274913770199,5.459619Q5.438006913770199,5.504888,5.384776913770199,5.540455Q5.331545913770199,5.576022,5.272399913770199,5.600522Q5.213253913770199,5.625021,5.1504649137701985,5.63751Q5.087675313770199,5.65,5.023655913770199,5.65Q4.9596365137701985,5.65,4.896846913770199,5.63751Q4.834057913770199,5.625021,4.7749119137701985,5.600522Q4.715765913770198,5.576022,4.662534913770199,5.540455Q4.609304913770199,5.504888,4.564036913770199,5.459619Q4.518767913770199,5.414351,4.483200913770199,5.361121Q4.447633913770199,5.30789,4.423133913770199,5.248744Q4.3986349137701986,5.189598,4.386145913770199,5.126809Q4.3736559137701985,5.0640194,4.3736559137701985,5Q4.3736559137701985,4.9359806,4.386145913770199,4.873191Q4.3986349137701986,4.810402,4.423133913770199,4.751256Q4.447633913770199,4.69211,4.483200913770199,4.638879Q4.518767913770199,4.585649,4.564036913770199,4.540381Q4.609304913770199,4.495112,4.662534913770199,4.459545Q4.715765913770198,4.423978,4.7749119137701985,4.399478Q4.834057913770199,4.374979,4.896846913770199,4.36249Q4.9596365137701985,4.35,5.023655913770199,4.35Q5.087675313770199,4.35,5.1504649137701985,4.36249Q5.213253913770199,4.374979,5.272399913770199,4.399478Q5.331545913770199,4.423978,5.384776913770199,4.459545Q5.438006913770199,4.495112,5.483274913770199,4.540381Q5.528543913770199,4.585649,5.5641109137701985,4.638879Q5.599677913770199,4.69211,5.624177913770199,4.751256Q5.648676913770199,4.810402,5.661165913770199,4.873191Q5.673655913770199,4.9359806,5.673655913770199,5Z" fill="#FFFFFF"></path><path d="M9.49061,15.433764108581542L4.538189,10.433761108581542L5.461811,9.518927108581543L10.41423,14.518924108581544L9.49061,15.433764108581542ZM10.60242,14.976344108581543Q10.60242,15.040364108581542,10.589929999999999,15.103154108581542Q10.57744,15.165944108581543,10.55294,15.225084108581543Q10.52844,15.284234108581543,10.49287,15.337464108581543Q10.45731,15.390694108581542,10.412040000000001,15.435964108581544Q10.366769999999999,15.481234108581543,10.31354,15.516794108581543Q10.26031,15.552364108581543,10.20116,15.576864108581542Q10.142019999999999,15.601364108581542,10.079229999999999,15.613854108581542Q10.01644,15.626344108581543,9.95242,15.626344108581543Q9.8884,15.626344108581543,9.825610000000001,15.613854108581542Q9.76282,15.601364108581542,9.703669999999999,15.576864108581542Q9.64453,15.552364108581543,9.5913,15.516794108581543Q9.538070000000001,15.481234108581543,9.492799999999999,15.435964108581544Q9.44753,15.390694108581542,9.41196,15.337464108581543Q9.3764,15.284234108581543,9.3519,15.225084108581543Q9.3274,15.165944108581543,9.314910000000001,15.103154108581542Q9.30242,15.040364108581542,9.30242,14.976344108581543Q9.30242,14.912324108581544,9.314910000000001,14.849534108581544Q9.3274,14.786744108581543,9.3519,14.727604108581543Q9.3764,14.668454108581543,9.41196,14.615224108581543Q9.44753,14.561994108581544,9.492799999999999,14.516724108581542Q9.538070000000001,14.471454108581543,9.5913,14.435884108581543Q9.64453,14.400324108581543,9.703669999999999,14.375824108581543Q9.76282,14.351324108581544,9.825610000000001,14.338834108581544Q9.8884,14.326344108581543,9.95242,14.326344108581543Q10.01644,14.326344108581543,10.079229999999999,14.338834108581544Q10.142019999999999,14.351324108581544,10.20116,14.375824108581543Q10.26031,14.400324108581543,10.31354,14.435884108581543Q10.366769999999999,14.471454108581543,10.412040000000001,14.516724108581542Q10.45731,14.561994108581544,10.49287,14.615224108581543Q10.52844,14.668454108581543,10.55294,14.727604108581543Q10.57744,14.786744108581543,10.589929999999999,14.849534108581544Q10.60242,14.912324108581544,10.60242,14.976344108581543ZM5.65,9.976344108581543Q5.65,10.040363508581542,5.63751,10.103153108581543Q5.625021,10.165942108581543,5.600522,10.225088108581543Q5.576022,10.284234108581543,5.540455,10.337465108581544Q5.504888,10.390695108581543,5.459619,10.435963108581543Q5.414351,10.481232108581542,5.361121,10.516799108581543Q5.30789,10.552366108581543,5.248744,10.576866108581543Q5.189598,10.601365108581543,5.126809,10.613854108581544Q5.0640194,10.626344108581543,5,10.626344108581543Q4.9359806,10.626344108581543,4.873191,10.613854108581544Q4.810402,10.601365108581543,4.751256,10.576866108581543Q4.69211,10.552366108581543,4.638879,10.516799108581543Q4.585649,10.481232108581542,4.540381,10.435963108581543Q4.495112,10.390695108581543,4.459545,10.337465108581544Q4.423978,10.284234108581543,4.399478,10.225088108581543Q4.374979,10.165942108581543,4.36249,10.103153108581543Q4.35,10.040363508581542,4.35,9.976344108581543Q4.35,9.912324708581544,4.36249,9.849535108581543Q4.374979,9.786746108581543,4.399478,9.727600108581543Q4.423978,9.668454108581543,4.459545,9.615223108581542Q4.495112,9.561993108581543,4.540381,9.516725108581543Q4.585649,9.471456108581544,4.638879,9.435889108581543Q4.69211,9.400322108581543,4.751256,9.375822108581543Q4.810402,9.351323108581543,4.873191,9.338834108581542Q4.9359806,9.326344108581543,5,9.326344108581543Q5.0640194,9.326344108581543,5.126809,9.338834108581542Q5.189598,9.351323108581543,5.248744,9.375822108581543Q5.30789,9.400322108581543,5.361121,9.435889108581543Q5.414351,9.471456108581544,5.459619,9.516725108581543Q5.504888,9.561993108581543,5.540455,9.615223108581542Q5.576022,9.668454108581543,5.600522,9.727600108581543Q5.625021,9.786746108581543,5.63751,9.849535108581543Q5.65,9.912324708581544,5.65,9.976344108581543Z" transform="rotate(-90 5 9.976)"></path></g></g></symbol>
</svg>