<svg xmlns="http://www.w3.org/2000/svg" xmlns:xlink="http://www.w3.org/1999/xlink" style="position: absolute; width: 0; height: 0" aria-hidden="true" id="__SVG_SPRITE_NODE__">
<symbol xmlns="http://www.w3.org/2000/svg" viewBox="0 0 24 24" id="habitStatistics"><path d="M152,18 C156.970563,18 161,21.981041 161,26.8919039 C161,29.3477878 159.992269,31.5711305 158.363061,33.1803188 L152.698867,38.7147524 C152.310301,39.0944164 151.689699,39.0944162 151.301133,38.7147518 L145.636039,33.1794295 C144.007731,31.5711305 143,29.3477878 143,26.8919039 C143,21.981041 147.029437,18 152,18 Z M155.608433,27.7755567 C156.100832,27.7755567 156.5,27.3763885 156.5,26.8839896 C156.5,26.3915908 156.100832,25.9924226 155.608433,25.9924226 L155.608433,25.9924226 L152.9,25.992 L152.9,21.5430203 C152.9,21.045964 152.497056,20.6430203 152,20.6430203 C151.541179,20.6430203 151.162548,20.986357 151.107012,21.4301262 L151.1,21.5430203 L151.1,26.8755567 C151.1,27.3763885 151.499168,27.7755567 151.991567,27.7755567 L151.991567,27.7755567 L152,27.7755567 Z" transform="translate(-140 -16)" fill-rule="evenodd"></path></symbol>
</svg>