<svg xmlns="http://www.w3.org/2000/svg" xmlns:xlink="http://www.w3.org/1999/xlink" style="position: absolute; width: 0; height: 0" aria-hidden="true" id="__SVG_SPRITE_NODE__">
<symbol xmlns="http://www.w3.org/2000/svg" viewBox="0 0 40 40" id="help-center"><g style="mix-blend-mode:passthrough"><rect width="40" height="40" rx="0" fill="none"></rect><g style="mix-blend-mode:passthrough"><path d="M34,19.4404Q34,19.7703,33.9837,20.099800000000002Q33.9675,20.4294,33.935,20.7577Q33.9025,21.086100000000002,33.853899999999996,21.4125Q33.8053,21.738799999999998,33.7406,22.0624Q33.6759,22.386,33.5954,22.7061Q33.5149,23.0261,33.4187,23.3419Q33.322500000000005,23.6576,33.2108,23.9683Q33.099199999999996,24.2789,32.9724,24.5838Q32.8455,24.8886,32.703900000000004,25.1868Q32.562200000000004,25.4851,32.4059,25.7761Q32.249700000000004,26.0671,32.0793,26.3501Q31.909,26.6331,31.7248,26.9074Q31.5407,27.1817,31.3433,27.4468Q31.1459,27.7118,30.9356,27.9668Q30.7254,28.2219,30.5028,28.4663Q30.2803,28.7108,30.0459,28.9441Q29.8116,29.1774,29.566,29.399Q29.3205,29.6206,29.0643,29.8299Q28.8081,30.0392,28.5419,30.2357Q28.2757,30.4323,28.0002,30.6156Q27.7246,30.7989,27.4404,30.9685Q27.1561,31.1381,26.8639,31.2937Q26.5716,31.4492,26.272,31.5903Q25.9724,31.7314,25.6662,31.8576Q25.36,31.9839,25.048,32.095Q24.736,32.206199999999995,24.4188,32.302Q24.1017,32.3977,23.7802,32.477900000000005Q23.4588,32.558099999999996,23.1337,32.6225Q22.8087,32.686800000000005,22.4809,32.7352Q22.153,32.7836,21.8232,32.816Q21.4934,32.848299999999995,21.162399999999998,32.8645Q20.831400000000002,32.880700000000004,20.5,32.880700000000004Q20.168599999999998,32.880700000000004,19.837600000000002,32.8645Q19.5066,32.848299999999995,19.1768,32.816Q18.847,32.7836,18.5191,32.7352Q18.1913,32.686800000000005,17.866300000000003,32.6225Q17.5412,32.558099999999996,17.2198,32.477900000000005Q16.89829,32.3977,16.58116,32.302Q16.264020000000002,32.206199999999995,15.95199,32.095Q15.63995,31.9839,15.33377,31.8576Q15.02759,31.7314,14.728010000000001,31.5903Q14.42842,31.4492,14.136140000000001,31.2937Q13.843869999999999,31.1381,13.55961,30.9685Q13.27536,30.7989,12.9998,30.6156Q12.72425,30.4323,12.45806,30.2357Q12.19187,30.0392,11.935690000000001,29.8299Q11.67951,29.6206,11.43395,29.399Q11.1884,29.1774,10.95406,28.9441Q10.71972,28.7108,10.497160000000001,28.4663Q10.2746,28.2219,10.06436,27.9668Q9.85412,27.7118,9.6567,27.4468Q9.45928,27.1817,9.27516,26.9074Q9.09104,26.6331,8.92066,26.3501Q8.75029,26.0671,8.59406,25.7761Q8.43784,25.4851,8.29614,25.1868Q8.15445,24.8886,8.02763,24.5838Q7.900802,24.2789,7.789155,23.9683Q7.6775079999999996,23.6576,7.581305,23.3419Q7.485103,23.0261,7.404578,22.7061Q7.324053,22.386,7.259399,22.0624Q7.194744,21.738799999999998,7.146117,21.4125Q7.0974897,21.086100000000002,7.0650062,20.7577Q7.0325227,20.4294,7.0162613,20.099800000000002Q7,19.7703,7,19.4404Q7,19.1104,7.0162613,18.780900000000003Q7.0325227,18.4513,7.0650062,18.122999999999998Q7.0974897,17.794600000000003,7.146117,17.4682Q7.194744,17.1419,7.259399,16.8183Q7.324053,16.4947,7.404578,16.174599999999998Q7.485103,15.85456,7.581305,15.53883Q7.6775079999999996,15.22309,7.789155,14.91244Q7.900802,14.60178,8.02763,14.29695Q8.15445,13.99213,8.29614,13.69386Q8.43784,13.3956,8.59406,13.104610000000001Q8.75029,12.81363,8.92066,12.53063Q9.09104,12.247630000000001,9.27516,11.97329Q9.45928,11.69896,9.6567,11.43394Q9.85412,11.16893,10.06436,10.913879999999999Q10.2746,10.65883,10.497160000000001,10.41436Q10.71972,10.169889999999999,10.95406,9.936589999999999Q11.1884,9.70328,11.43395,9.48171Q11.67951,9.26013,11.935690000000001,9.05082Q12.19187,8.84151,12.45806,8.644960000000001Q12.72425,8.448409999999999,12.9998,8.26511Q13.27536,8.0818,13.55961,7.91218Q13.843869999999999,7.74255,14.136140000000001,7.58702Q14.42842,7.43149,14.728,7.29042Q15.02759,7.14935,15.33377,7.02309Q15.63995,6.896823,15.95199,6.785668Q16.264020000000002,6.674514,16.58116,6.578737Q16.89829,6.48296,17.2198,6.402791Q17.5412,6.322621,17.866300000000003,6.258253Q18.1913,6.193884,18.5191,6.145472Q18.847,6.097059,19.1768,6.064719Q19.5066,6.032379,19.837600000000002,6.0161895Q20.168599999999998,6,20.5,6Q20.831400000000002,6,21.162399999999998,6.0161895Q21.4934,6.032379,21.8232,6.064719Q22.153,6.097059,22.4809,6.145472Q22.8087,6.193884,23.1337,6.258253Q23.4588,6.322621,23.7802,6.402791Q24.1017,6.48296,24.4188,6.578737Q24.736,6.674514,25.048,6.785668Q25.36,6.896823,25.6662,7.02309Q25.9724,7.14935,26.272,7.29042Q26.5716,7.43149,26.8639,7.58702Q27.1561,7.74255,27.4404,7.91218Q27.7246,8.0818,28.0002,8.26511Q28.2757,8.448409999999999,28.5419,8.644960000000001Q28.8081,8.84151,29.0643,9.05082Q29.3205,9.26013,29.566,9.48171Q29.8116,9.70328,30.0459,9.936589999999999Q30.2803,10.169889999999999,30.5028,10.41436Q30.7254,10.65883,30.9356,10.913879999999999Q31.1459,11.16893,31.3433,11.43394Q31.5407,11.69896,31.7248,11.97329Q31.909,12.247630000000001,32.0793,12.53063Q32.249700000000004,12.81363,32.4059,13.104610000000001Q32.562200000000004,13.3956,32.703900000000004,13.69386Q32.8455,13.99213,32.9724,14.29695Q33.099199999999996,14.60178,33.2108,14.91244Q33.322500000000005,15.22309,33.4187,15.53883Q33.5149,15.85456,33.5954,16.174599999999998Q33.6759,16.4947,33.7406,16.8183Q33.8053,17.1419,33.853899999999996,17.4682Q33.9025,17.794600000000003,33.935,18.122999999999998Q33.9675,18.4513,33.9837,18.780900000000003Q34,19.1104,34,19.4404Z"></path><path d="M20.67379026702881,13.526598453521729C19.44095026702881,13.526598453521729,18.47422026702881,13.865131453521728,17.773620267028807,14.568648453521728C17.07301726702881,15.250998453521728,16.72000044460981,16.176678453521728,16.72000044460981,17.361548453521728L18.47422026702881,17.361548453521728C18.47422026702881,16.64745845352173,18.62086026702881,16.092048453521727,18.925000267028807,15.70590845352173C19.25629026702881,15.22984845352173,19.81026026702881,15.002388453521728,20.559740267028808,15.002388453521728C21.157160267028807,15.002388453521728,21.64595026702881,15.166368453521729,21.977240267028808,15.494328453521728C22.29224026702881,15.816988453521729,22.46060026702881,16.25602845352173,22.46060026702881,16.827298453521728C22.46060026702881,17.245178453521728,22.29224026702881,17.636608453521728,21.99353026702881,18.012168453521728L21.711120267028807,18.31895845352173C20.67379026702881,19.212898453521728,20.043790267028808,19.879388453521727,19.826550267028807,20.33428845352173C19.59302026702881,20.75745845352173,19.489830267028807,21.27583845352173,19.489830267028807,21.878848453521726L19.489830267028807,22.15390845352173L21.27664026702881,22.15390845352173L21.27664026702881,21.878848453521726C21.27664026702881,21.48742845352173,21.35810026702881,21.13301845352173,21.542760267028807,20.805068453521727C21.69483026702881,20.514138453521728,21.928360267028808,20.22320845352173,22.24336026702881,19.964018453521728C23.030860267028807,19.297538453521728,23.497930267028806,18.87436845352173,23.644570267028808,18.694518453521727C24.062760267028807,18.176148453521726,24.280000267028807,17.50965845352173,24.280000267028807,16.710928453521728C24.280000267028807,15.737648453521729,23.948710267028808,14.95478845352173,23.28069026702881,14.388800453521728C22.612670267028808,13.80165745352173,21.74371026702881,13.526598453521729,20.67379026702881,13.526598453521729ZM20.37509026702881,23.03197845352173C20.043790267028808,23.03197845352173,19.73966026702881,23.13248845352173,19.50612026702881,23.35993845352173C19.272590267028807,23.571498453521727,19.15853026702881,23.84659845352173,19.15853026702881,24.18509845352173C19.15853026702881,24.513098453521728,19.272590267028807,24.788098453521727,19.50612026702881,25.01559845352173C19.73966026702881,25.24299845352173,20.043790267028808,25.35409845352173,20.37509026702881,25.35409845352173C20.71181026702881,25.35409845352173,21.01052026702881,25.24299845352173,21.244050267028808,25.031398453521728C21.47759026702881,24.80399845352173,21.60793026702881,24.528898453521727,21.60793026702881,24.18509845352173C21.60793026702881,23.84659845352173,21.493880267028807,23.571498453521727,21.26034026702881,23.35993845352173C21.026810267028807,23.13248845352173,20.728100267028807,23.03197845352173,20.37509026702881,23.03197845352173Z" fill="#FFFFFF"></path></g></g></symbol>
<symbol xmlns="http://www.w3.org/2000/svg" viewBox="0 0 16 16" id="help-new"><path d="M14,8Q14,8.14729,13.9928,8.29441Q13.9855,8.44152,13.9711,8.5881Q13.9567,8.73469,13.9351,8.880379999999999Q13.9134,9.02608,13.8847,9.170539999999999Q13.856,9.315000000000001,13.8202,9.45788Q13.7844,9.600760000000001,13.7416,9.741710000000001Q13.6989,9.88266,13.6493,10.02134Q13.5996,10.16002,13.5433,10.2961Q13.4869,10.43218,13.4239,10.56533Q13.361,10.69848,13.2915,10.82838Q13.2221,10.95828,13.1464,11.08462Q13.0706,11.21095,12.9888,11.33342Q12.907,11.45589,12.8192,11.5742Q12.7315,11.6925,12.6381,11.80636Q12.5446,11.92022,12.4457,12.0294Q12.3468,12.1385,12.2426,12.2426Q12.1385,12.3468,12.0294,12.4457Q11.92022,12.5446,11.80636,12.6381Q11.6925,12.7315,11.57419,12.8192Q11.45589,12.907,11.33342,12.9888Q11.21095,13.0706,11.08462,13.1464Q10.95828,13.2221,10.82838,13.2915Q10.69848,13.361,10.56533,13.4239Q10.43218,13.4869,10.2961,13.5433Q10.16002,13.5996,10.02134,13.6493Q9.88266,13.6989,9.741710000000001,13.7416Q9.600760000000001,13.7844,9.45788,13.8202Q9.315000000000001,13.856,9.170539999999999,13.8847Q9.02608,13.9134,8.880379999999999,13.9351Q8.73469,13.9567,8.5881,13.9711Q8.44152,13.9855,8.29441,13.9928Q8.14729,14,8,14Q7.85271,14,7.70559,13.9928Q7.55848,13.9855,7.4119,13.9711Q7.26531,13.9567,7.11962,13.9351Q6.97392,13.9134,6.82946,13.8847Q6.685,13.856,6.54212,13.8202Q6.39924,13.7844,6.25829,13.7416Q6.11734,13.6989,5.97866,13.6493Q5.839980000000001,13.5996,5.7039,13.5433Q5.56782,13.4869,5.434670000000001,13.4239Q5.30152,13.361,5.17162,13.2915Q5.04172,13.2221,4.91538,13.1464Q4.78905,13.0706,4.66658,12.9888Q4.54411,12.907,4.425800000000001,12.8192Q4.3075,12.7315,4.19364,12.6381Q4.0797799999999995,12.5446,3.97065,12.4457Q3.86151,12.3468,3.7573600000000003,12.2426Q3.65321,12.1385,3.55429,12.0294Q3.45538,11.92022,3.3619399999999997,11.80636Q3.2685,11.6925,3.1807499999999997,11.57419Q3.09301,11.45589,3.01118,11.33342Q2.929351,11.21095,2.853628,11.08462Q2.777905,10.95828,2.708472,10.82838Q2.63904,10.69848,2.576064,10.56533Q2.513089,10.43218,2.456723,10.2961Q2.400357,10.16002,2.350736,10.02134Q2.301114,9.88266,2.258358,9.741710000000001Q2.215601,9.600760000000001,2.179812,9.45788Q2.144023,9.315000000000001,2.115288,9.170539999999999Q2.0865531,9.02608,2.0649409,8.880379999999999Q2.0433288,8.73469,2.0288916,8.5881Q2.0144545,8.44152,2.00722726,8.29441Q2,8.14729,2,8Q2,7.85271,2.00722726,7.70559Q2.0144545,7.55848,2.0288916,7.4119Q2.0433288,7.26531,2.0649409,7.11962Q2.0865531,6.97392,2.115288,6.82946Q2.144023,6.685,2.179812,6.54212Q2.215601,6.39924,2.258358,6.25829Q2.301114,6.11734,2.350736,5.97866Q2.400357,5.839980000000001,2.456723,5.7039Q2.513089,5.56782,2.576064,5.434670000000001Q2.63904,5.30152,2.708472,5.17162Q2.777905,5.04172,2.853628,4.91538Q2.929351,4.78905,3.01118,4.66658Q3.09301,4.54411,3.1807499999999997,4.425800000000001Q3.2685,4.3075,3.3619399999999997,4.19364Q3.45538,4.0797799999999995,3.55429,3.97065Q3.65321,3.86151,3.7573600000000003,3.7573600000000003Q3.86151,3.65321,3.97065,3.55429Q4.0797799999999995,3.45538,4.19364,3.3619399999999997Q4.3075,3.2685,4.425800000000001,3.1807499999999997Q4.54411,3.09301,4.66658,3.01118Q4.78905,2.929351,4.91538,2.853628Q5.04172,2.777905,5.17162,2.708472Q5.30152,2.63904,5.434670000000001,2.576064Q5.56782,2.513089,5.7039,2.456723Q5.839980000000001,2.400357,5.97866,2.350736Q6.11734,2.301114,6.25829,2.258358Q6.39924,2.215601,6.54212,2.179812Q6.685,2.144023,6.82946,2.115288Q6.97392,2.0865531,7.11962,2.0649409Q7.26532,2.0433288,7.4119,2.0288916Q7.55848,2.0144545,7.70559,2.00722726Q7.85271,2,8,2Q8.14729,2,8.29441,2.00722726Q8.44152,2.0144545,8.5881,2.0288916Q8.73469,2.0433288,8.880379999999999,2.0649409Q9.02608,2.0865531,9.170539999999999,2.115288Q9.315000000000001,2.144023,9.45788,2.179812Q9.600760000000001,2.215601,9.741710000000001,2.258358Q9.88266,2.301114,10.02134,2.350736Q10.16002,2.400357,10.2961,2.456723Q10.43218,2.513089,10.56533,2.576064Q10.69848,2.63904,10.82838,2.708472Q10.95828,2.777905,11.08462,2.853628Q11.21095,2.929351,11.33342,3.01118Q11.45589,3.09301,11.5742,3.1807499999999997Q11.6925,3.2685,11.80636,3.3619399999999997Q11.92022,3.45538,12.0294,3.55429Q12.1385,3.65321,12.2426,3.7573600000000003Q12.3468,3.86151,12.4457,3.97065Q12.5446,4.0797799999999995,12.6381,4.19364Q12.7315,4.3075,12.8192,4.425800000000001Q12.907,4.54411,12.9888,4.66658Q13.0706,4.78905,13.1464,4.91538Q13.2221,5.04172,13.2915,5.17162Q13.361,5.30152,13.4239,5.434670000000001Q13.4869,5.56782,13.5433,5.7039Q13.5996,5.839980000000001,13.6493,5.97866Q13.6989,6.11734,13.7416,6.25829Q13.7844,6.39924,13.8202,6.54212Q13.856,6.685,13.8847,6.82946Q13.9134,6.97392,13.9351,7.11962Q13.9567,7.26532,13.9711,7.4119Q13.9855,7.55848,13.9928,7.70559Q14,7.85271,14,8ZM12.6667,7.99992Q12.6667,8.11448,12.6611,8.2289Q12.6555,8.34332,12.6442,8.457329999999999Q12.633,8.57134,12.6162,8.684660000000001Q12.5994,8.797979999999999,12.577,8.91034Q12.5547,9.0227,12.5269,9.13383Q12.499,9.24495,12.4658,9.35458Q12.4325,9.46421,12.3939,9.57207Q12.3553,9.679929999999999,12.3115,9.78577Q12.2676,9.89161,12.2187,9.99517Q12.1697,10.09874,12.1157,10.19977Q12.0617,10.3008,12.0028,10.39906Q11.94388,10.49733,11.88023,10.59258Q11.81658,10.68783,11.74834,10.77985Q11.6801,10.87187,11.60742,10.96042Q11.53475,11.04898,11.45781,11.13386Q11.38088,11.21874,11.29987,11.29975Q11.21887,11.38076,11.13398,11.45769Q11.0491,11.53462,10.96054,11.6073Q10.87199,11.67998,10.77997,11.74822Q10.68795,11.81646,10.5927,11.88011Q10.49745,11.94375,10.39919,12.0027Q10.30092,12.0615,10.19989,12.1155Q10.09886,12.1696,9.9953,12.2185Q9.89174,12.2675,9.7859,12.3114Q9.680060000000001,12.3552,9.572189999999999,12.3938Q9.46433,12.4324,9.354700000000001,12.4656Q9.24507,12.4989,9.133949999999999,12.5267Q9.02282,12.5546,8.91046,12.5769Q8.7981,12.5993,8.68478,12.6161Q8.57146,12.6329,8.45745,12.6441Q8.34345,12.6553,8.22902,12.661Q8.1146,12.6666,8.00004,12.6666Q7.88548,12.6666,7.77106,12.661Q7.65664,12.6553,7.54263,12.6441Q7.42862,12.6329,7.3153,12.6161Q7.20198,12.5993,7.08962,12.5769Q6.97726,12.5546,6.86613,12.5267Q6.75501,12.4989,6.64538,12.4656Q6.53575,12.4324,6.42789,12.3938Q6.32002,12.3552,6.21418,12.3114Q6.10834,12.2675,6.00478,12.2185Q5.90122,12.1696,5.800190000000001,12.1155Q5.69916,12.0615,5.60089,12.0027Q5.50263,11.94375,5.40738,11.88011Q5.31213,11.81646,5.22011,11.74822Q5.12809,11.67998,5.039540000000001,11.6073Q4.9509799999999995,11.53462,4.866099999999999,11.45769Q4.78121,11.38076,4.70021,11.29975Q4.6192,11.21874,4.54227,11.13386Q4.46533,11.04898,4.392659999999999,10.96042Q4.31998,10.87187,4.25174,10.77985Q4.18349,10.68783,4.11985,10.59258Q4.0562000000000005,10.49733,3.9973099999999997,10.39906Q3.93841,10.3008,3.88441,10.19977Q3.8304,10.09874,3.78142,9.99517Q3.73244,9.89161,3.6886,9.78577Q3.6447599999999998,9.679929999999999,3.60617,9.57207Q3.56757,9.46421,3.53432,9.35458Q3.50106,9.24495,3.47323,9.13383Q3.4453899999999997,9.0227,3.4230400000000003,8.91034Q3.40069,8.797979999999999,3.38388,8.684660000000001Q3.36707,8.57134,3.35585,8.457329999999999Q3.34462,8.34332,3.339,8.2289Q3.33337,8.11448,3.33337,7.99992Q3.33337,7.88536,3.339,7.77094Q3.34462,7.65651,3.35585,7.54251Q3.36707,7.4285,3.38388,7.31518Q3.40069,7.20186,3.4230400000000003,7.0895Q3.4453899999999997,6.97714,3.47323,6.86601Q3.50106,6.75488,3.53432,6.64526Q3.56757,6.53563,3.60617,6.42777Q3.6447599999999998,6.3199,3.6886,6.21406Q3.73244,6.10822,3.78142,6.00466Q3.8304,5.9011,3.88441,5.80007Q3.93841,5.6990300000000005,3.9973099999999997,5.60077Q4.0562000000000005,5.50251,4.11985,5.40726Q4.18349,5.311999999999999,4.25174,5.21999Q4.31998,5.1279699999999995,4.392659999999999,5.03942Q4.46533,4.9508600000000005,4.54227,4.86598Q4.6192,4.78109,4.70021,4.700089999999999Q4.78121,4.61908,4.866099999999999,4.5421499999999995Q4.9509799999999995,4.46521,5.039540000000001,4.39254Q5.12809,4.31986,5.22011,4.25162Q5.31213,4.18337,5.40738,4.119730000000001Q5.50263,4.05608,5.60089,3.99718Q5.69916,3.9382900000000003,5.800190000000001,3.88429Q5.90122,3.83028,6.00478,3.7813Q6.10834,3.73232,6.21418,3.68848Q6.32002,3.64464,6.42789,3.6060499999999998Q6.53575,3.56745,6.64538,3.5342000000000002Q6.75501,3.50094,6.86613,3.47311Q6.97726,3.44527,7.08962,3.42292Q7.20198,3.40057,7.3153,3.38376Q7.42862,3.36695,7.54263,3.35572Q7.65664,3.34449,7.77106,3.33887Q7.88548,3.33325,8.00004,3.33325Q8.1146,3.33325,8.22902,3.33887Q8.34345,3.34449,8.45745,3.35572Q8.57146,3.36695,8.68478,3.38376Q8.7981,3.40057,8.91046,3.42292Q9.02282,3.44527,9.133949999999999,3.47311Q9.24507,3.50094,9.354700000000001,3.5342000000000002Q9.46433,3.56745,9.572189999999999,3.6060499999999998Q9.680060000000001,3.64464,9.7859,3.68848Q9.89174,3.73232,9.9953,3.7813Q10.09886,3.83028,10.19989,3.88429Q10.30092,3.9382900000000003,10.39919,3.99718Q10.49745,4.05608,10.5927,4.119730000000001Q10.68795,4.18337,10.77997,4.25162Q10.87199,4.31986,10.96054,4.39254Q11.0491,4.46521,11.13398,4.5421499999999995Q11.21887,4.61908,11.29987,4.700089999999999Q11.38088,4.78109,11.45781,4.86598Q11.53475,4.9508600000000005,11.60742,5.03942Q11.6801,5.1279699999999995,11.74834,5.21999Q11.81659,5.311999999999999,11.88023,5.40726Q11.94388,5.50251,12.0028,5.60077Q12.0617,5.6990300000000005,12.1157,5.80007Q12.1697,5.9011,12.2187,6.00466Q12.2676,6.10822,12.3115,6.21406Q12.3553,6.3199,12.3939,6.42777Q12.4325,6.53563,12.4658,6.64526Q12.499,6.75488,12.5269,6.86601Q12.5547,6.97714,12.577,7.0895Q12.5994,7.20186,12.6162,7.31518Q12.633,7.4285,12.6442,7.54251Q12.6555,7.65651,12.6611,7.77094Q12.6667,7.88536,12.6667,7.99992ZM9.399840000000001,4.99843C9.00768,4.64346,8.52588,4.46533,7.96266,4.46533C7.39203,4.46533,6.90903,4.6490100000000005,6.5227,5.01501C6.1694,5.34971,5.975350000000001,5.771850000000001,5.94339,6.27316L5.93335,6.59067L7.22399,6.59067L7.22399,6.424L7.22955,6.31642C7.24807,6.14234,7.31299,5.99399,7.42502,5.8668700000000005C7.55386,5.72068,7.7288,5.648,7.96266,5.648C8.18598,5.648,8.36178,5.71906,8.500720000000001,5.86306C8.64114,6.00858,8.71066,6.18933,8.71066,6.41467C8.71066,6.56548,8.65067,6.73514,8.52577,6.92382L8.45206,7.02756L7.7262,8.00461L7.6445,8.121500000000001C7.49182,8.35862,7.40353,8.61567,7.38148,8.88996L7.37612,9.02138L7.37599,9.521329999999999L8.66132,9.521329999999999L8.66132,9.074670000000001L8.66668,8.98916C8.67741,8.904959999999999,8.70429,8.82451,8.74771,8.74672L8.803180000000001,8.66029L9.51703,7.65942L9.61692,7.51493C9.86795,7.13167,9.995989999999999,6.76468,9.995989999999999,6.41467C9.995989999999999,5.83368,9.79662,5.35759,9.399840000000001,4.99843ZM8.66671,11.33333L8.66671,10L7.33337,10L7.33337,11.33333L8.66671,11.33333Z" fill-rule="evenodd"></path></symbol>
<symbol xmlns="http://www.w3.org/2000/svg" viewBox="0 0 24 24" id="help"><path d="M12,23C18.0751,23,23,18.0751,23,12C23,5.92487,18.0751,1,12,1C5.92487,1,1,5.92487,1,12C1,18.0751,5.92487,23,12,23ZM20.3681,8.687149999999999Q21,10.28331,21,12Q21,13.7167,20.3681,15.3129Q19.682,17.0459,18.364,18.364Q17.0459,19.682,15.3129,20.3681Q13.7167,21,12,21Q10.28331,21,8.687149999999999,20.3681Q6.95406,19.682,5.63604,18.364Q4.318020000000001,17.0459,3.63191,15.3129Q3,13.7167,3,12Q3,10.28331,3.63191,8.687149999999999Q4.318020000000001,6.95406,5.63604,5.63604Q6.95406,4.318020000000001,8.687149999999999,3.63191Q10.28331,3,12,3Q13.7167,3,15.3129,3.63191Q17.0459,4.318020000000001,18.364,5.63604Q19.682,6.95406,20.3681,8.687149999999999ZM8.54998,9.32643L8.610990000000001,8.82954Q8.78746,7.39223,9.93092,6.49919Q11.0741,5.60632,12.5114,5.78278Q13.9374,5.95788,14.83,7.08735Q15.7217,8.2158,15.5637,9.64183L15.5613,9.66219L15.5588,9.68262Q15.4458,10.54358,15.0204,11.2972Q14.5847,12.0668,13.8896,12.6098Q13.4737,12.9352,13.3546,13.1528Q13.236,13.3693,13.168,13.9235C13.1007,14.4717,12.6017,14.8615,12.0536,14.7942C11.5054,14.7269,11.1156,14.2279,11.1829,13.6797Q11.2976,12.7451,11.6004,12.1923Q11.9172,11.6136,12.6583,11.0338Q13.0401,10.73555,13.2787,10.31411Q13.5133,9.89842,13.5737,9.43888L13.5762,9.41846L13.5759,9.42163Q13.6435,8.81165,13.2608,8.32738Q12.8779,7.8428,12.2676,7.76788Q11.6525,7.69234,11.162,8.075420000000001Q10.67157,8.45843,10.59608,9.07327L10.53507,9.57016C10.46776,10.11833,9.96882,10.50815,9.42065,10.44084C8.87248,10.37353,8.482669999999999,9.87459,8.54998,9.32643ZM13.248,16.999299999999998Q13.248,17.0607,13.242,17.1218Q13.2359,17.1829,13.224,17.2431Q13.212,17.3034,13.1942,17.3621Q13.1763,17.4209,13.1528,17.4776Q13.1293,17.5344,13.1004,17.5885Q13.0714,17.6427,13.0373,17.6937Q13.0032,17.7448,12.9642,17.7923Q12.9253,17.8397,12.8819,17.8832Q12.8384,17.9266,12.791,17.9655Q12.7435,18.0045,12.6924,18.0386Q12.6414,18.0727,12.5872,18.1017Q12.5331,18.1306,12.4763,18.1541Q12.4196,18.1776,12.3608,18.1954Q12.3021,18.2133,12.2418,18.2252Q12.1816,18.2372,12.1205,18.2432Q12.0594,18.2493,11.998,18.2493Q11.9366,18.2493,11.8755,18.2432Q11.8144,18.2372,11.7541,18.2252Q11.6939,18.2133,11.6351,18.1954Q11.5764,18.1776,11.5196,18.1541Q11.4629,18.1306,11.4087,18.1017Q11.3546,18.0727,11.3035,18.0386Q11.2525,18.0045,11.205,17.9655Q11.1575,17.9266,11.1141,17.8832Q11.0707,17.8397,11.0317,17.7923Q10.99277,17.7448,10.95865,17.6937Q10.92453,17.6427,10.89558,17.5885Q10.86664,17.5344,10.84313,17.4776Q10.81964,17.4209,10.80181,17.3621Q10.78398,17.3034,10.772,17.2431Q10.76002,17.1829,10.75401,17.1218Q10.74799,17.0607,10.74799,16.999299999999998Q10.74799,16.9379,10.75401,16.8767Q10.76002,16.8156,10.772,16.7554Q10.78398,16.6952,10.80181,16.636400000000002Q10.81964,16.5776,10.84313,16.520899999999997Q10.86664,16.464199999999998,10.89558,16.41Q10.92453,16.3559,10.95865,16.3048Q10.99277,16.253700000000002,11.0317,16.2063Q11.0707,16.1588,11.1141,16.1154Q11.1575,16.072,11.205,16.033Q11.2525,15.994,11.3035,15.9599Q11.3546,15.9258,11.4087,15.8969Q11.4629,15.8679,11.5196,15.8444Q11.5764,15.8209,11.6351,15.8031Q11.6939,15.7853,11.7541,15.7733Q11.8144,15.7613,11.8755,15.7553Q11.9366,15.7493,11.998,15.7493Q12.0594,15.7493,12.1205,15.7553Q12.1816,15.7613,12.2418,15.7733Q12.3021,15.7853,12.3608,15.8031Q12.4196,15.8209,12.4763,15.8444Q12.5331,15.8679,12.5872,15.8969Q12.6414,15.9258,12.6924,15.9599Q12.7435,15.994,12.791,16.033Q12.8384,16.072,12.8819,16.1154Q12.9253,16.1588,12.9642,16.2063Q13.0032,16.253700000000002,13.0373,16.3048Q13.0714,16.3559,13.1004,16.41Q13.1293,16.464199999999998,13.1528,16.520899999999997Q13.1763,16.5776,13.1942,16.636400000000002Q13.212,16.6952,13.224,16.7554Q13.2359,16.8156,13.242,16.8767Q13.248,16.9379,13.248,16.999299999999998Z" fill-rule="evenodd"></path></symbol>
</svg>