<svg xmlns="http://www.w3.org/2000/svg" xmlns:xlink="http://www.w3.org/1999/xlink" style="position: absolute; width: 0; height: 0" aria-hidden="true" id="__SVG_SPRITE_NODE__">
<symbol xmlns="http://www.w3.org/2000/svg" viewBox="0 0 24 24" id="hide-completed"><path d="M2,6L2,18Q2,19.6569,3.17157,20.8284Q4.34315,22,6,22L14.8612,22C13.9785,21.3627,13.2839,20.6476,12.8827,20L6,20Q5.1715800000000005,20,4.585789999999999,19.4142Q4,18.8284,4,18L4,6Q4,5.17157,4.585789999999999,4.585789999999999Q5.17157,4,6,4L18,4Q18.8284,4,19.4142,4.585789999999999Q20,5.17157,20,6L20,16.471C20.7371,16.0701,21.4291,15.5841,22,15.1789L22,6Q22,4.34315,20.8284,3.17157Q19.6569,2,18,2L6,2Q4.34315,2,3.17157,3.17157Q2,4.34315,2,6ZM17.2071,9.70711C17.3946,9.51957,17.5,9.26522,17.5,9C17.5,8.44772,17.052300000000002,8,16.5,8C16.2348,8,15.9804,8.105360000000001,15.7925,8.29327L10.5,13.5858L8.20711,11.29289C8.01957,11.10536,7.76522,11,7.5,11C6.94772,11,6.5,11.44772,6.5,12C6.5,12.2652,6.60536,12.5196,6.79289,12.7071L9.79289,15.7071C9.98043,15.8946,10.23478,16,10.5,16C10.76522,16,11.01957,15.8946,11.20711,15.7071L17.2071,9.70711Z" fill-rule="evenodd"></path><path d="M15.945480190734862,16.721347674560548Q16.308550190734863,17.136234674560548,16.84622019073486,17.433654674560547Q17.465230190734864,17.776067674560547,18.211970190734863,17.906557674560545Q18.631350190734864,17.97985767456055,19.06656019073486,17.97985767456055Q19.501770190734863,17.97985767456055,19.921150190734863,17.906557674560545Q20.667890190734862,17.776067674560547,21.286890190734862,17.433654674560547Q21.824570190734864,17.136235674560545,22.187630190734865,16.721347674560548C22.331730190734863,16.55668967456055,22.53533019073486,16.456015274560546,22.753650190734863,16.441472654560545C22.77190019073486,16.440256833560547,22.79019019073486,16.439648449420545,22.808480190734862,16.439648389816547C23.008330190734863,16.439649224280547,23.201390190734863,16.512193174560547,23.351780190734864,16.643802674560547C23.516440190734862,16.787894674560548,23.617110190734863,16.991495674560547,23.631650190734863,17.209815674560545C23.632860190734863,17.227977674560545,23.63347019073486,17.246174674560546,23.633480190734865,17.264375674560547L23.633480190734865,17.264375674560547C23.633480190734865,17.464497674560548,23.560930190734865,17.657557674560547,23.429320190734863,17.80794767456055L23.429320190734863,17.80794767456055L23.428340190734865,17.809077674560548Q23.216270190734864,18.051247674560546,22.969400190734863,18.264797674560548L23.530090190734864,18.819717674560547L23.530090190734864,18.819717674560547C23.68585019073486,18.973887674560547,23.773860190734865,19.183267674560547,23.77499019073486,19.402077674560548L23.775000190734865,19.406337674560547C23.775000190734865,19.623667674560547,23.689250190734864,19.832217674560546,23.536370190734864,19.986677674560546C23.38246019073486,20.142197674560546,23.17307019073486,20.230197674560547,22.954270190734864,20.231327674560546L22.950000190734862,20.231337674560546C22.73268019073486,20.231337674560546,22.524130190734866,20.145587674560545,22.369660190734862,19.992707674560545L21.519480190734864,19.151277674560546Q21.303210190734863,19.241687674560545,21.078040190734864,19.315317674560546L21.297340190734865,20.12981767456055L21.297340190734865,20.12981767456055C21.314890190734864,20.194977674560548,21.324360190734865,20.261677674560545,21.325650190734862,20.328787674560548C21.325650190734862,20.328787674560548,21.325810190734863,20.344647674560548,21.325810190734863,20.344647674560548C21.325810190734863,20.489127674560546,21.287860190734865,20.631077674560547,21.21578019073486,20.756277674560547C21.106600190734863,20.945907674560548,20.926580190734864,21.084387674560546,20.715300190734865,21.14127767456055C20.650480190734864,21.158727674560545,20.583780190734863,21.16820767456055,20.516660190734864,21.169497674560546C20.516660190734864,21.169497674560546,20.500810190734864,21.169647674560547,20.500810190734864,21.169647674560547C20.356330190734862,21.169647674560547,20.214380190734865,21.131707674560545,20.089170190734862,21.05961767456055C19.899550190734864,20.950447674560547,19.761060190734863,20.770417674560548,19.704180190734863,20.559137674560546L19.704180190734863,20.559137674560546L19.451030190734862,19.618917674560546Q19.259800190734865,19.629857674560547,19.06656019073486,19.629857674560547Q18.878470190734863,19.629857674560547,18.692280190734863,19.61949767456055L18.456220190734864,20.547777674560546C18.365430190734862,20.904817674560547,18.049200190734865,21.158337674560546,17.68115019073486,21.169287674560547C17.68115019073486,21.169287674560547,17.656620190734863,21.169647674560547,17.656620190734863,21.169647674560547C17.58805019073486,21.169647674560547,17.519750190734865,21.161097674560548,17.453300190734865,21.144197674560548C17.096450190734863,21.053457674560548,16.84293019073486,20.737227674560547,16.831980190734864,20.369177674560547C16.831980190734864,20.369177674560547,16.831620190734863,20.344647674560548,16.831620190734863,20.344647674560548C16.831620190734863,20.276077674560547,16.840170190734863,20.207777674560546,16.857070190734863,20.141327674560547L17.066190190734865,19.318947674560548Q16.843550190734863,19.246617674560547,16.629590190734863,19.157927674560547L15.846060190734864,19.976727674560546C15.694790190734864,20.134807674560548,15.486910190734863,20.226327674560547,15.268156190734864,20.231137674560546C15.268156190734864,20.231137674560546,15.250857190734862,20.231337674560546,15.250857190734862,20.231337674560546L15.250857190734862,20.231337674560546C15.037482190734863,20.231337674560546,14.833161190734863,20.149327674560546,14.679616190734864,20.002397674560548C14.521531690734863,19.851127674560548,14.430015270734863,19.64324767456055,14.425199925734864,19.42449767456055C14.425199925734864,19.42449767456055,14.425000190734863,19.406337674560547,14.425000190734863,19.406337674560547C14.425000190734863,19.193817674560545,14.507010290734863,18.989497674560546,14.653940190734863,18.835957674560547L15.183891190734863,18.282147674560548Q14.924906190734863,18.060617674560547,14.703792190734863,17.80794767456055C14.577787190734863,17.663957674560546,14.505749490734864,17.480647674560547,14.500009990734863,17.289394674560548C14.500009990734863,17.289394674560548,14.499638790734863,17.264647674560546,14.499638790734863,17.264647674560546C14.499638790734863,17.246354674560546,14.500247190734862,17.228066674560548,14.501463090734863,17.209814674560548C14.516005790734864,16.991494674560546,14.616680190734863,16.787893674560546,14.781339190734863,16.643801674560546C14.925329190734864,16.517796474560548,15.108639190734863,16.445758464560548,15.299891190734863,16.440019011560548C15.299891190734863,16.440019011560548,15.324639190734864,16.439647674560547,15.324639190734864,16.439647674560547C15.342932190734864,16.439647674560547,15.361220190734864,16.440256118560548,15.379472190734862,16.441471994560548C15.597790190734862,16.456014774560547,15.801390190734864,16.556688674560547,15.945480190734862,16.721347674560548Z" fill-rule="evenodd"></path></symbol>
<symbol xmlns="http://www.w3.org/2000/svg" viewBox="0 0 24 24" id="hide-details"><path d="M6,19C6,20.1046,5.10457,21,4,21C2.895431,21,2,20.1046,2,19C2,17.895400000000002,2.895431,17,4,17C5.10457,17,6,17.895400000000002,6,19ZM7.5,19C7.5,19.5523,7.94772,20,8.5,20L15,20C15.5523,20,16,19.5523,16,19C16,18.447699999999998,15.5523,18,15,18L8.5,18C7.94772,18,7.5,18.447699999999998,7.5,19ZM6,5C6,6.10457,5.10457,7,4,7C2.895431,7,2,6.10457,2,5C2,3.895431,2.895431,3,4,3C5.10457,3,6,3.895431,6,5ZM7.5,5.25C7.5,5.80228,7.94772,6.25,8.5,6.25L19,6.25C19.5523,6.25,20,5.80228,20,5.25C20,4.69772,19.5523,4.25,19,4.25L8.5,4.25C7.94772,4.25,7.5,4.69772,7.5,5.25ZM6,12C6,13.1046,5.10457,14,4,14C2.895431,14,2,13.1046,2,12C2,10.895430000000001,2.895431,10,4,10C5.10457,10,6,10.895430000000001,6,12ZM7.5,12C7.5,12.55228,7.94772,13,8.5,13L21,13C21.5523,13,22,12.55228,22,12C22,11.44772,21.5523,11,21,11L8.5,11C7.94772,11,7.5,11.44772,7.5,12Z"></path></symbol>
<symbol xmlns="http://www.w3.org/2000/svg" viewBox="0 0 24 24" id="hide-subtasks"><path d="M2,6L2,18Q2,19.6569,3.17157,20.8284Q4.34315,22,6,22L15.0426,22C14.3096,21.3793,13.7081,20.6602,13.2652,20L6,20Q5.1715800000000005,20,4.585789999999999,19.4142Q4,18.8284,4,18L4,6Q4,5.17157,4.585789999999999,4.585789999999999Q5.17157,4,6,4L18,4Q18.8284,4,19.4142,4.585789999999999Q20,5.17157,20,6L20,16.2369C20.4429,16.0364,20.9103,15.7468,21.3751,15.4587C21.5848,15.3288,21.7939,15.1991,22,15.0782L22,6Q22,4.34315,20.8284,3.17157Q19.6569,2,18,2L6,2Q4.34315,2,3.17157,3.17157Q2,4.34315,2,6ZM6.625,8.56689C6.625,8.083649999999999,7.01675,7.69189,7.5,7.69189L16.625,7.69189C17.1082,7.69189,17.5,8.083649999999999,17.5,8.56689C17.5,9.050139999999999,17.1082,9.44189,16.625,9.44189L7.5,9.44189C7.01675,9.44189,6.625,9.050139999999999,6.625,8.56689ZM6.625,13.125C6.625,12.6418,7.01675,12.25,7.5,12.25L16.625,12.25C17.1082,12.25,17.5,12.6418,17.5,13.125C17.5,13.6082,17.1082,14,16.625,14L7.5,14C7.01675,14,6.625,13.6082,6.625,13.125Z" fill-rule="evenodd"></path><path d="M15.94546779296875,16.721153125Q16.30853779296875,17.136040125,16.846207792968748,17.433460125C17.46521779296875,17.775873125,17.79256779296875,17.833073125,18.21195779296875,17.906363125Q18.63133779296875,17.979663125000002,19.06654779296875,17.979663125000002Q19.50175779296875,17.979663125000002,19.92113779296875,17.906363125Q20.66787779296875,17.775873125,21.28687779296875,17.433460125Q21.82455779296875,17.136041125,22.18761779296875,16.721153125C22.33171779296875,16.556495125,22.535317792968748,16.455820725,22.75363779296875,16.441278105C22.771887792968748,16.440062284,22.79017779296875,16.43945389986,22.80846779296875,16.439453840256C23.00831779296875,16.43945467472,23.20137779296875,16.511998625,23.35176779296875,16.643608125C23.51642779296875,16.787700125,23.61709779296875,16.991301125,23.63163779296875,17.209621124999998C23.63284779296875,17.227783125,23.63345779296875,17.245980125,23.63346779296875,17.264181125L23.63346779296875,17.264181125C23.63346779296875,17.464303125,23.560917792968752,17.657363125,23.42930779296875,17.807753125L23.42930779296875,17.807753125L23.42832779296875,17.808883125Q23.21625779296875,18.051053125,22.96938779296875,18.264603125L23.53007779296875,18.819523125L23.53007779296875,18.819523125C23.685837792968748,18.973693125,23.773847792968752,19.183073125,23.77497779296875,19.401883125L23.77498779296875,19.406143125C23.77498779296875,19.623473125,23.68923779296875,19.832023125,23.53635779296875,19.986483125C23.382447792968748,20.142003125,23.17305779296875,20.230003125,22.95425779296875,20.231133125L22.94998779296875,20.231143125C22.732667792968748,20.231143125,22.524117792968752,20.145393125,22.36964779296875,19.992513125L21.51946779296875,19.151083125Q21.30319779296875,19.241493124999998,21.07802779296875,19.315123125L21.29732779296875,20.129623125000002L21.29732779296875,20.129623125000002C21.31487779296875,20.194783125,21.32434779296875,20.261483124999998,21.32563779296875,20.328593125C21.32563779296875,20.328593125,21.32579779296875,20.344453125,21.32579779296875,20.344453125C21.32579779296875,20.488933125,21.28784779296875,20.630883125,21.215767792968748,20.756083125C21.10658779296875,20.945713125,20.92656779296875,21.084193125,20.715287792968752,21.141083125C20.65046779296875,21.158533124999998,20.58376779296875,21.168013125,20.51664779296875,21.169303125C20.51664779296875,21.169303125,20.50079779296875,21.169453125,20.50079779296875,21.169453125C20.35631779296875,21.169453125,20.21436779296875,21.131513124999998,20.08915779296875,21.059423125000002C19.89953779296875,20.950253125,19.76104779296875,20.770223125,19.70416779296875,20.558943125L19.70416779296875,20.558943125L19.45101779296875,19.618723125Q19.25978779296875,19.629663125,19.06654779296875,19.629663125Q18.87845779296875,19.629663125,18.69226779296875,19.619303125000002L18.45620779296875,20.547583125C18.36541779296875,20.904623125,18.049187792968752,21.158143125,17.681137792968748,21.169093125C17.681137792968748,21.169093125,17.65660779296875,21.169453125,17.65660779296875,21.169453125C17.58803779296875,21.169453125,17.51973779296875,21.160903125,17.45328779296875,21.144003125C17.09643779296875,21.053263125,16.84291779296875,20.737033125,16.83196779296875,20.368983125C16.83196779296875,20.368983125,16.83160779296875,20.344453125,16.83160779296875,20.344453125C16.83160779296875,20.275883125,16.84015779296875,20.207583125,16.85705779296875,20.141133125L17.06617779296875,19.318753125Q16.84353779296875,19.246423125,16.62957779296875,19.157733125L15.84604779296875,19.976533125C15.69477779296875,20.134613125,15.48689779296875,20.226133125,15.26814379296875,20.230943125C15.26814379296875,20.230943125,15.25084479296875,20.231143125,15.25084479296875,20.231143125L15.25084479296875,20.231143125C15.03746979296875,20.231143125,14.83314879296875,20.149133125,14.67960379296875,20.002203125C14.52151929296875,19.850933125,14.43000287296875,19.643053125,14.42518752796875,19.424303125C14.42518752796875,19.424303125,14.42498779296875,19.406143125,14.42498779296875,19.406143125C14.42498779296875,19.193623125,14.50699789296875,18.989303125,14.65392779296875,18.835763125L15.18387879296875,18.281953125Q14.92489379296875,18.060423125,14.70377979296875,17.807753125C14.57777479296875,17.663763125,14.50573709296875,17.480453125,14.49999759296875,17.289200125C14.49999759296875,17.289200125,14.49962639296875,17.264453125,14.49962639296875,17.264453125C14.49962639296875,17.246160125,14.50023479296875,17.227872125,14.50145069296875,17.209620125C14.51599339296875,16.991300125,14.61666779296875,16.787699125,14.78132679296875,16.643607125C14.92531679296875,16.517601925,15.10862679296875,16.445563915,15.29987879296875,16.439824462C15.29987879296875,16.439824462,15.32462679296875,16.439453125,15.32462679296875,16.439453125C15.34291979296875,16.439453125,15.36120779296875,16.440061569,15.379459792968749,16.441277445C15.597777792968749,16.455820225,15.80137779296875,16.556494125,15.94546779296875,16.721153125Z" fill-rule="evenodd"></path></symbol>
</svg>