<svg xmlns="http://www.w3.org/2000/svg" xmlns:xlink="http://www.w3.org/1999/xlink" style="position: absolute; width: 0; height: 0" aria-hidden="true" id="__SVG_SPRITE_NODE__">
<symbol xmlns="http://www.w3.org/2000/svg" viewBox="0 0 24 24" id="hover_emoji"><path d="M12,23Q12.27,23,12.5397,22.9867Q12.8095,22.9735,13.0782,22.947Q13.3469,22.9206,13.614,22.8809Q13.8811,22.8413,14.146,22.7886Q14.4108,22.736,14.6728,22.6703Q14.9347,22.6047,15.1931,22.5263Q15.4515,22.448,15.7058,22.357Q15.96,22.266,16.2095,22.1627Q16.459,22.0593,16.7031,21.9439Q16.947200000000002,21.8284,17.1854,21.7011Q17.4235,21.5738,17.6551,21.435Q17.8867,21.2962,18.1113,21.1462Q18.3358,20.9961,18.5527,20.8353Q18.7696,20.6744,18.9783,20.5031Q19.1871,20.3318,19.3871,20.1505Q19.5872,19.9691,19.7782,19.7782Q19.9691,19.5872,20.1505,19.3871Q20.3318,19.1871,20.5031,18.9783Q20.6744,18.7696,20.8353,18.5527Q20.9961,18.3358,21.1462,18.1113Q21.2962,17.8867,21.435,17.6551Q21.5738,17.4235,21.7011,17.1854Q21.8284,16.947200000000002,21.9439,16.7031Q22.0593,16.459,22.1627,16.2095Q22.266,15.96,22.357,15.7058Q22.448,15.4515,22.5263,15.1931Q22.6047,14.9347,22.6703,14.6728Q22.736,14.4108,22.7886,14.146Q22.8413,13.8811,22.8809,13.614Q22.9206,13.3469,22.947,13.0782Q22.9735,12.8095,22.9867,12.5397Q23,12.27,23,12Q23,11.73,22.9868,11.4603Q22.9735,11.1905,22.947,10.92181Q22.9206,10.65308,22.8809,10.38596Q22.8413,10.11885,22.7886,9.854Q22.736,9.58916,22.6703,9.32722Q22.6047,9.06527,22.5263,8.80687Q22.448,8.54846,22.357,8.29421Q22.266,8.03996,22.1627,7.79048Q22.0593,7.541,21.9439,7.29689Q21.8284,7.05279,21.7011,6.81464Q21.5738,6.57649,21.435,6.34487Q21.2962,6.11325,21.1462,5.88873Q20.9961,5.6642,20.8353,5.44731Q20.6744,5.23041,20.5031,5.02167Q20.3318,4.81293,20.1505,4.61285Q19.9691,4.41277,19.7782,4.221830000000001Q19.5872,4.03088,19.3871,3.84954Q19.1871,3.66819,18.9783,3.49688Q18.7696,3.32558,18.5527,3.16472Q18.3358,3.00386,18.1113,2.8538300000000003Q17.8867,2.70381,17.6551,2.56499Q17.4235,2.4261600000000003,17.1854,2.29887Q16.947200000000002,2.17157,16.7031,2.05612Q16.459,1.940663,16.2095,1.8373249999999999Q15.96,1.733987,15.7058,1.6430150000000001Q15.4515,1.5520429999999998,15.1931,1.473656Q14.9347,1.3952689999999999,14.6728,1.329656Q14.4108,1.264043,14.146,1.211362Q13.8811,1.158681,13.614,1.1190579999999999Q13.3469,1.079436,13.0782,1.052968Q12.8095,1.0265,12.5397,1.01325Q12.27,1,12,1Q11.73,1,11.4603,1.01325Q11.1905,1.0265,10.92181,1.052968Q10.65308,1.079436,10.38596,1.1190579999999999Q10.11885,1.158681,9.85401,1.211362Q9.58916,1.264043,9.32722,1.329656Q9.06528,1.3952689999999999,8.80687,1.473656Q8.54846,1.5520429999999998,8.29421,1.6430150000000001Q8.03996,1.733987,7.79048,1.8373249999999999Q7.541,1.940663,7.29689,2.05612Q7.05279,2.17157,6.81464,2.29887Q6.57649,2.4261600000000003,6.34487,2.56499Q6.11325,2.70381,5.88873,2.8538300000000003Q5.6642,3.00386,5.44731,3.16472Q5.23041,3.32558,5.02167,3.49688Q4.81293,3.66819,4.61285,3.84954Q4.41277,4.03088,4.221830000000001,4.221830000000001Q4.03088,4.41277,3.84954,4.61285Q3.66819,4.81293,3.49689,5.02167Q3.32558,5.23041,3.16472,5.44731Q3.00386,5.6642,2.8538300000000003,5.88873Q2.70381,6.11325,2.56499,6.34487Q2.4261600000000003,6.57649,2.29887,6.81464Q2.17157,7.05279,2.05612,7.29689Q1.940663,7.541,1.8373249999999999,7.79048Q1.733987,8.03996,1.6430150000000001,8.29421Q1.5520429999999998,8.54846,1.473656,8.80687Q1.3952689999999999,9.06527,1.329656,9.32722Q1.264043,9.58916,1.211362,9.854Q1.158681,10.11885,1.1190579999999999,10.38596Q1.079436,10.65308,1.052968,10.92181Q1.0265,11.1905,1.01325,11.4603Q1,11.73,1,12Q1,12.27,1.01325,12.5397Q1.0265,12.8095,1.052968,13.0782Q1.079436,13.3469,1.1190579999999999,13.614Q1.158681,13.8811,1.211362,14.146Q1.264043,14.4108,1.329656,14.6728Q1.3952689999999999,14.9347,1.473656,15.1931Q1.5520429999999998,15.4515,1.6430150000000001,15.7058Q1.733987,15.96,1.8373249999999999,16.2095Q1.940663,16.459,2.05612,16.7031Q2.17157,16.947200000000002,2.29887,17.1854Q2.4261600000000003,17.4235,2.56499,17.6551Q2.70381,17.8867,2.8538300000000003,18.1113Q3.00386,18.3358,3.16472,18.5527Q3.32558,18.7696,3.49689,18.9783Q3.66819,19.1871,3.84954,19.3871Q4.03088,19.5872,4.221830000000001,19.7782Q4.41277,19.9691,4.61285,20.1505Q4.81293,20.3318,5.02167,20.5031Q5.23041,20.6744,5.44731,20.8353Q5.6642,20.9961,5.88873,21.1462Q6.11325,21.2962,6.34487,21.435Q6.57649,21.5738,6.81464,21.7011Q7.05279,21.8284,7.29689,21.9439Q7.541,22.0593,7.79048,22.1627Q8.03996,22.266,8.29421,22.357Q8.54846,22.448,8.80687,22.5263Q9.06528,22.6047,9.32722,22.6703Q9.58916,22.736,9.85401,22.7886Q10.11885,22.8413,10.38596,22.8809Q10.65308,22.9206,10.92181,22.947Q11.1905,22.9735,11.4603,22.9867Q11.73,23,12,23ZM20.3681,8.687149999999999Q21,10.28331,21,12Q21,13.7167,20.3681,15.3129Q19.682,17.0459,18.364,18.364Q17.0459,19.682,15.3129,20.3681Q13.7167,21,12,21Q10.28331,21,8.687149999999999,20.3681Q6.95406,19.682,5.63604,18.364Q4.318020000000001,17.0459,3.63191,15.3129Q3,13.7167,3,12Q3,10.28331,3.63191,8.687149999999999Q4.318020000000001,6.95406,5.63604,5.63604Q6.95406,4.318020000000001,8.687149999999999,3.63191Q10.28331,3,12,3Q13.7167,3,15.3129,3.63191Q17.0459,4.318020000000001,18.364,5.63604Q19.682,6.95406,20.3681,8.687149999999999ZM7.5,8.26465L7.5,11.5C7.5,12.0523,7.94772,12.5,8.5,12.5C9.05228,12.5,9.5,12.0523,9.5,11.5L9.5,8.26465C9.5,7.71236,9.05228,7.26465,8.5,7.26465C7.94772,7.26465,7.5,7.71236,7.5,8.26465ZM17,8.5C17,8.76522,16.8946,9.01957,16.7071,9.20711L15.9142,10L16.7071,10.79289C16.8946,10.98043,17,11.2348,17,11.5C17,12.0523,16.552300000000002,12.5,16,12.5C15.7348,12.5,15.4804,12.3946,15.2929,12.2071L13.7929,10.70711C13.6119,10.52614,13.5,10.27614,13.5,10C13.5,9.72386,13.6119,9.47386,13.7929,9.29289L15.2929,7.79289C15.4804,7.60536,15.7348,7.5,16,7.5C16.552300000000002,7.5,17,7.94772,17,8.5ZM9.33113,17.331Q13.223,18.6282,16.447499999999998,15.8451C16.466,15.8292,16.4839,15.8125,16.5012,15.7952C16.6888,15.6077,16.7941,15.3534,16.7941,15.0881C16.7941,14.8482,16.707900000000002,14.6163,16.551099999999998,14.4347C16.5352,14.4162,16.5185,14.3983,16.5012,14.381C16.3316,14.2114,16.1066,14.1084,15.8669,14.0908C15.8427,14.089,15.8184,14.0881,15.7941,14.0881C15.5542,14.0881,15.3223,14.1744,15.1403,14.3315Q12.7767,16.3714,9.9633,15.4336C9.86133,15.3996,9.75455,15.3823,9.64706,15.3823C9.62866,15.3823,9.61027,15.3828,9.5919,15.3838C9.18232,15.4064,8.828109999999999,15.6769,8.69838,16.066000000000003C8.664390000000001,16.168,8.64706,16.2748,8.64706,16.3823L8.64729,16.4035C8.65043,16.5515,8.68641,16.697,8.75263,16.8295C8.87124,17.0667,9.07922,17.2471,9.33113,17.331Z" fill-rule="evenodd"></path></symbol>
</svg>