<svg xmlns="http://www.w3.org/2000/svg" xmlns:xlink="http://www.w3.org/1999/xlink" style="position: absolute; width: 0; height: 0" aria-hidden="true" id="__SVG_SPRITE_NODE__">
<symbol xmlns="http://www.w3.org/2000/svg" viewBox="0 0 24 24" id="hover-checkbox"><path d="M1,19.5L1,4.5C1,2.567,2.567,1,4.5,1L19.5,1C21.433,1,23,2.567,23,4.5L23,19.5C23,21.433,21.433,23,19.5,23L4.5,23C2.567,23,1,21.433,1,19.5Z" fill-opacity=".102"></path><path d="M1,19.5L1,4.5C1,2.567,2.567,1,4.5,1L19.5,1C21.433,1,23,2.567,23,4.5L23,19.5C23,21.433,21.433,23,19.5,23L4.5,23C2.567,23,1,21.433,1,19.5ZM3,19.5Q3,20.1213,3.43934,20.5607Q3.87868,21,4.5,21L19.5,21Q20.1213,21,20.5607,20.5607Q21,20.1213,21,19.5L21,4.5Q21,3.87868,20.5607,3.43934Q20.1213,3,19.5,3L4.5,3Q3.87868,3,3.43934,3.43934Q3,3.87868,3,4.5L3,19.5Z" fill-rule="evenodd"></path></symbol>
<symbol xmlns="http://www.w3.org/2000/svg" viewBox="0 0 24 24" id="hover-real-subtask"><path d="M1,19.5L1,4.5C1,2.567,2.567,1,4.5,1L19.5,1C21.433,1,23,2.567,23,4.5L23,19.5C23,21.433,21.433,23,19.5,23L4.5,23C2.567,23,1,21.433,1,19.5Z" fill-opacity=".102"></path><path d="M1,4.5L1,19.5C1,21.433,2.567,23,4.5,23L19.5,23C21.433,23,23,21.433,23,19.5L23,4.5C23,2.567,21.433,1,19.5,1L4.5,1C2.567,1,1,2.567,1,4.5ZM3.43934,20.5607Q3,20.1213,3,19.5L3,4.5Q3,3.87868,3.43934,3.43934Q3.87868,3,4.5,3L19.5,3Q20.1213,3,20.5607,3.43934Q21,3.87868,21,4.5L21,19.5Q21,20.1213,20.5607,20.5607Q20.1213,21,19.5,21L4.5,21Q3.87868,21,3.43934,20.5607ZM7,8Q6.90151,8,6.80491,8.01922Q6.70831,8.03843,6.61732,8.07612Q6.52632,8.11381,6.44443,8.16853Q6.36254,8.22325,6.29289,8.29289Q6.22325,8.36254,6.16853,8.44443Q6.11381,8.52632,6.07612,8.61732Q6.03843,8.70831,6.01921,8.80491Q6,8.90151,6,9Q6,9.09849,6.01921,9.19509Q6.03843,9.29169,6.07612,9.38268Q6.11381,9.47368,6.16853,9.55557Q6.22325,9.63746,6.29289,9.70711Q6.36254,9.77675,6.44443,9.83147Q6.52632,9.88619,6.61732,9.92388Q6.70831,9.96157,6.80491,9.98078Q6.90151,10,7,10Q7.09849,10,7.19509,9.98078Q7.29169,9.96157,7.38268,9.92388Q7.47368,9.88619,7.55557,9.83147Q7.63746,9.77675,7.70711,9.70711Q7.77675,9.63746,7.83147,9.55557Q7.88619,9.47368,7.92388,9.38268Q7.96157,9.29169,7.98078,9.19509Q8,9.09849,8,9Q8,8.90151,7.98078,8.80491Q7.96157,8.70831,7.92388,8.61732Q7.88619,8.52632,7.83147,8.44443Q7.77675,8.36254,7.70711,8.29289Q7.63746,8.22325,7.55557,8.16853Q7.47368,8.11381,7.38268,8.07612Q7.29169,8.03843,7.19509,8.019210000000001Q7.09849,8,7,8ZM10,8Q9.90151,8,9.80491,8.01922Q9.70831,8.03843,9.61732,8.07612Q9.52632,8.11381,9.44443,8.16853Q9.36254,8.22325,9.29289,8.29289Q9.22325,8.36254,9.16853,8.44443Q9.11381,8.52632,9.07612,8.61732Q9.03843,8.70831,9.01921,8.80491Q9,8.90151,9,9Q9,9.09849,9.01921,9.19509Q9.03843,9.29169,9.07612,9.38268Q9.11381,9.47368,9.16853,9.55557Q9.22325,9.63746,9.29289,9.70711Q9.36254,9.77675,9.44443,9.83147Q9.52632,9.88619,9.61732,9.92388Q9.70831,9.96157,9.80491,9.98078Q9.90151,10,10,10L17,10Q17.0985,10,17.1951,9.98078Q17.2917,9.96157,17.3827,9.92388Q17.4737,9.88619,17.5556,9.83147Q17.6375,9.77675,17.7071,9.70711Q17.7767,9.63746,17.8315,9.55557Q17.8862,9.47368,17.9239,9.38268Q17.9616,9.29169,17.9808,9.19509Q18,9.09849,18,9Q18,8.90151,17.9808,8.80491Q17.9616,8.70831,17.9239,8.61732Q17.8862,8.52632,17.8315,8.44443Q17.7767,8.36254,17.7071,8.29289Q17.6375,8.22325,17.5556,8.16853Q17.4737,8.11381,17.3827,8.07612Q17.2917,8.03843,17.1951,8.019210000000001Q17.0985,8,17,8L10,8ZM7,14Q6.90151,14,6.80491,14.0192Q6.70831,14.0384,6.61732,14.0761Q6.52632,14.1138,6.44443,14.1685Q6.36254,14.2232,6.29289,14.2929Q6.22325,14.3625,6.16853,14.4444Q6.11381,14.5263,6.07612,14.6173Q6.03843,14.7083,6.01921,14.8049Q6,14.9015,6,15Q6,15.0985,6.01921,15.1951Q6.03843,15.2917,6.07612,15.3827Q6.11381,15.4737,6.16853,15.5556Q6.22325,15.6375,6.29289,15.7071Q6.36254,15.7767,6.44443,15.8315Q6.52632,15.8862,6.61732,15.9239Q6.70831,15.9616,6.80491,15.9808Q6.90151,16,7,16Q7.09849,16,7.19509,15.9808Q7.29169,15.9616,7.38268,15.9239Q7.47368,15.8862,7.55557,15.8315Q7.63746,15.7767,7.70711,15.7071Q7.77675,15.6375,7.83147,15.5556Q7.88619,15.4737,7.92388,15.3827Q7.96157,15.2917,7.98078,15.1951Q8,15.0985,8,15Q8,14.9015,7.98078,14.8049Q7.96157,14.7083,7.92388,14.6173Q7.88619,14.5263,7.83147,14.4444Q7.77675,14.3625,7.70711,14.2929Q7.63746,14.2232,7.55557,14.1685Q7.47368,14.1138,7.38268,14.0761Q7.29169,14.0384,7.19509,14.0192Q7.09849,14,7,14ZM10,14Q9.90151,14,9.80491,14.0192Q9.70831,14.0384,9.61732,14.0761Q9.52632,14.1138,9.44443,14.1685Q9.36254,14.2232,9.29289,14.2929Q9.22325,14.3625,9.16853,14.4444Q9.11381,14.5263,9.07612,14.6173Q9.03843,14.7083,9.01921,14.8049Q9,14.9015,9,15Q9,15.0985,9.01921,15.1951Q9.03843,15.2917,9.07612,15.3827Q9.11381,15.4737,9.16853,15.5556Q9.22325,15.6375,9.29289,15.7071Q9.36254,15.7767,9.44443,15.8315Q9.52632,15.8862,9.61732,15.9239Q9.70831,15.9616,9.80491,15.9808Q9.90151,16,10,16L17,16Q17.0985,16,17.1951,15.9808Q17.2917,15.9616,17.3827,15.9239Q17.4737,15.8862,17.5556,15.8315Q17.6375,15.7767,17.7071,15.7071Q17.7767,15.6375,17.8315,15.5556Q17.8862,15.4737,17.9239,15.3827Q17.9616,15.2917,17.9808,15.1951Q18,15.0985,18,15Q18,14.9015,17.9808,14.8049Q17.9616,14.7083,17.9239,14.6173Q17.8862,14.5263,17.8315,14.4444Q17.7767,14.3625,17.7071,14.2929Q17.6375,14.2232,17.5556,14.1685Q17.4737,14.1138,17.3827,14.0761Q17.2917,14.0384,17.1951,14.0192Q17.0985,14,17,14L10,14Z" fill-rule="evenodd"></path></symbol>
<symbol xmlns="http://www.w3.org/2000/svg" viewBox="0 0 24 24" id="hover-schedule"><path d="M1,19.5L1,4.5C1,2.567,2.567,1,4.5,1L19.5,1C21.433,1,23,2.567,23,4.5L23,19.5C23,21.433,21.433,23,19.5,23L4.5,23C2.567,23,1,21.433,1,19.5Z" fill-opacity=".102"></path><path d="M1,11L1,19.5C1,21.433,2.567,23,4.5,23L19.5,23C21.433,23,23,21.433,23,19.5L23,4.5C23,2.567,21.433,1,19.5,1L4.5,1C2.567,1,1,2.567,1,4.5L1,11ZM3,11L3,19.5Q3,20.1213,3.43934,20.5607Q3.87868,21,4.5,21L19.5,21Q20.1213,21,20.5607,20.5607Q21,20.1213,21,19.5L21,11L3,11ZM21,9L21,4.5Q21,3.87868,20.5607,3.43934Q20.1213,3,19.5,3L4.5,3Q3.87868,3,3.43934,3.43934Q3,3.87868,3,4.5L3,9L21,9ZM8,6Q8,6.09849,7.98078,6.19509Q7.96157,6.29169,7.92388,6.38268Q7.88619,6.47368,7.83147,6.55557Q7.77675,6.63746,7.70711,6.70711Q7.63746,6.77675,7.55557,6.83147Q7.47368,6.88619,7.38268,6.92388Q7.29169,6.96157,7.19509,6.98078Q7.09849,7,7,7Q6.90151,7,6.80491,6.98078Q6.70831,6.96157,6.61732,6.92388Q6.52632,6.88619,6.44443,6.83147Q6.36254,6.77675,6.29289,6.70711Q6.22325,6.63746,6.16853,6.55557Q6.11381,6.47368,6.07612,6.38268Q6.03843,6.29169,6.01921,6.19509Q6,6.09849,6,6Q6,5.90151,6.01921,5.80491Q6.03843,5.70831,6.07612,5.61732Q6.11381,5.52632,6.16853,5.44443Q6.22325,5.36254,6.29289,5.29289Q6.36254,5.22325,6.44443,5.16853Q6.52632,5.11381,6.61732,5.07612Q6.70831,5.03843,6.80491,5.01921Q6.90151,5,7,5Q7.09849,5,7.19509,5.01921Q7.29169,5.03843,7.38268,5.07612Q7.47368,5.11381,7.55557,5.16853Q7.63746,5.22325,7.70711,5.29289Q7.77675,5.36254,7.83147,5.44443Q7.88619,5.52632,7.92388,5.61732Q7.96157,5.70831,7.98078,5.80491Q8,5.90151,8,6ZM18,6Q18,6.09849,17.9808,6.19509Q17.9616,6.29169,17.9239,6.38268Q17.8862,6.47368,17.8315,6.55557Q17.7767,6.63746,17.7071,6.70711Q17.6375,6.77675,17.5556,6.83147Q17.4737,6.88619,17.3827,6.92388Q17.2917,6.96157,17.1951,6.98078Q17.0985,7,17,7Q16.9015,7,16.8049,6.98078Q16.7083,6.96157,16.6173,6.92388Q16.5263,6.88619,16.4444,6.83147Q16.3625,6.77675,16.2929,6.70711Q16.2232,6.63746,16.1685,6.55557Q16.113799999999998,6.47368,16.0761,6.38268Q16.0384,6.29169,16.019199999999998,6.19509Q16,6.09849,16,6Q16,5.90151,16.019199999999998,5.80491Q16.0384,5.70831,16.0761,5.61732Q16.113799999999998,5.52632,16.1685,5.44443Q16.2232,5.36254,16.2929,5.29289Q16.3625,5.22325,16.4444,5.16853Q16.5263,5.11381,16.6173,5.07612Q16.7083,5.03843,16.8049,5.01921Q16.9015,5,17,5Q17.0985,5,17.1951,5.01921Q17.2917,5.03843,17.3827,5.07612Q17.4737,5.11381,17.5556,5.16853Q17.6375,5.22325,17.7071,5.29289Q17.7767,5.36254,17.8315,5.44443Q17.8862,5.52632,17.9239,5.61732Q17.9616,5.70831,17.9808,5.80491Q18,5.90151,18,6Z" fill-rule="evenodd"></path></symbol>
<symbol xmlns="http://www.w3.org/2000/svg" viewBox="0 0 24 24" id="hover-subtask"><path d="M1,19.5L1,4.5C1,2.567,2.567,1,4.5,1L19.5,1C21.433,1,23,2.567,23,4.5L23,19.5C23,21.433,21.433,23,19.5,23L4.5,23C2.567,23,1,21.433,1,19.5Z" fill-opacity=".102"></path><path d="M6,7L6,7Q6,6.901509,6.0192147,6.80491Q6.0384294,6.708311,6.0761205,6.617316Q6.113811,6.526322,6.16853,6.44443Q6.223249,6.362537,6.292893,6.292893Q6.362537,6.223249,6.44443,6.16853Q6.526322,6.113811,6.617316,6.0761205Q6.708311,6.0384294,6.80491,6.0192147Q6.901509,6,7,6L17,6Q17.0985,6,17.1951,6.0192147Q17.2917,6.0384294,17.3827,6.0761205Q17.4737,6.113811,17.5556,6.16853Q17.6375,6.223249,17.7071,6.292893Q17.776699999999998,6.362537,17.8315,6.44443Q17.886200000000002,6.526322,17.9239,6.617316Q17.9616,6.708311,17.980800000000002,6.80491Q18,6.901509,18,7L18,7Q18,7.09849,17.980800000000002,7.19509Q17.9616,7.29169,17.9239,7.38268Q17.886200000000002,7.47368,17.8315,7.5555699999999995Q17.776699999999998,7.63746,17.7071,7.70711Q17.6375,7.77675,17.5556,7.8314699999999995Q17.4737,7.88619,17.3827,7.9238800000000005Q17.2917,7.96157,17.1951,7.98079Q17.0985,8,17,8L7,8Q6.901509,8,6.80491,7.98079Q6.708311,7.96157,6.617316,7.9238800000000005Q6.526322,7.88619,6.44443,7.8314699999999995Q6.362537,7.77675,6.292893,7.70711Q6.223249,7.63746,6.16853,7.5555699999999995Q6.113811,7.47368,6.0761205,7.38268Q6.0384294,7.29169,6.0192147,7.19509Q6,7.09849,6,7ZM9,12L9,12Q9,11.90151,9.019210000000001,11.80491Q9.03843,11.70831,9.07612,11.61732Q9.11381,11.52632,9.16853,11.44443Q9.22325,11.36254,9.29289,11.29289Q9.36254,11.22325,9.44443,11.16853Q9.52632,11.11381,9.61732,11.07612Q9.70831,11.03843,9.80491,11.019210000000001Q9.90151,11,10,11L17,11Q17.0985,11,17.1951,11.019210000000001Q17.2917,11.03843,17.3827,11.07612Q17.4737,11.11381,17.5556,11.16853Q17.6375,11.22325,17.7071,11.29289Q17.776699999999998,11.36254,17.8315,11.44443Q17.886200000000002,11.52632,17.9239,11.61732Q17.9616,11.70831,17.980800000000002,11.80491Q18,11.90151,18,12L18,12Q18,12.09849,17.980800000000002,12.19509Q17.9616,12.29169,17.9239,12.38268Q17.886200000000002,12.47368,17.8315,12.55557Q17.776699999999998,12.63746,17.7071,12.70711Q17.6375,12.77675,17.5556,12.83147Q17.4737,12.88619,17.3827,12.92388Q17.2917,12.96157,17.1951,12.98078Q17.0985,13,17,13L10,13Q9.90151,13,9.80491,12.98078Q9.70831,12.96157,9.61732,12.92388Q9.52632,12.88619,9.44443,12.83147Q9.36254,12.77675,9.29289,12.70711Q9.22325,12.63746,9.16853,12.55557Q9.11381,12.47368,9.07612,12.38268Q9.03843,12.29169,9.019210000000001,12.19509Q9,12.09849,9,12ZM6,12Q6,11.90151,6.0192147,11.80491Q6.0384294,11.70831,6.0761205,11.61732Q6.113811,11.52632,6.16853,11.44443Q6.223249,11.36254,6.292893,11.29289Q6.362537,11.22325,6.44443,11.16853Q6.526322,11.11381,6.617316,11.07612Q6.708311,11.03843,6.80491,11.019210000000001Q6.901509,11,7,11Q7.09849,11,7.19509,11.019210000000001Q7.29169,11.03843,7.38268,11.07612Q7.47368,11.11381,7.5555699999999995,11.16853Q7.63746,11.22325,7.70711,11.29289Q7.77675,11.36254,7.8314699999999995,11.44443Q7.88619,11.52632,7.9238800000000005,11.61732Q7.96157,11.70831,7.98079,11.80491Q8,11.90151,8,12Q8,12.09849,7.98079,12.19509Q7.96157,12.29169,7.9238800000000005,12.38268Q7.88619,12.47368,7.8314699999999995,12.55557Q7.77675,12.63746,7.70711,12.70711Q7.63746,12.77675,7.5555699999999995,12.83147Q7.47368,12.88619,7.38268,12.92388Q7.29169,12.96157,7.19509,12.98078Q7.09849,13,7,13Q6.901509,13,6.80491,12.98078Q6.708311,12.96157,6.617316,12.92388Q6.526322,12.88619,6.44443,12.83147Q6.362537,12.77675,6.292893,12.70711Q6.223249,12.63746,6.16853,12.55557Q6.113811,12.47368,6.0761205,12.38268Q6.0384294,12.29169,6.0192147,12.19509Q6,12.09849,6,12ZM9,17L9,17Q9,16.9015,9.019210000000001,16.8049Q9.03843,16.7083,9.07612,16.6173Q9.11381,16.5263,9.16853,16.4444Q9.22325,16.3625,9.29289,16.2929Q9.36254,16.2232,9.44443,16.1685Q9.52632,16.113799999999998,9.61732,16.0761Q9.70831,16.0384,9.80491,16.019199999999998Q9.90151,16,10,16L17,16Q17.0985,16,17.1951,16.019199999999998Q17.2917,16.0384,17.3827,16.0761Q17.4737,16.113799999999998,17.5556,16.1685Q17.6375,16.2232,17.7071,16.2929Q17.776699999999998,16.3625,17.8315,16.4444Q17.886200000000002,16.5263,17.9239,16.6173Q17.9616,16.7083,17.980800000000002,16.8049Q18,16.9015,18,17L18,17Q18,17.0985,17.980800000000002,17.1951Q17.9616,17.2917,17.9239,17.3827Q17.886200000000002,17.4737,17.8315,17.5556Q17.776699999999998,17.6375,17.7071,17.7071Q17.6375,17.776699999999998,17.5556,17.8315Q17.4737,17.886200000000002,17.3827,17.9239Q17.2917,17.9616,17.1951,17.980800000000002Q17.0985,18,17,18L10,18Q9.90151,18,9.80491,17.980800000000002Q9.70831,17.9616,9.61732,17.9239Q9.52632,17.886200000000002,9.44443,17.8315Q9.36254,17.776699999999998,9.29289,17.7071Q9.22325,17.6375,9.16853,17.5556Q9.11381,17.4737,9.07612,17.3827Q9.03843,17.2917,9.019210000000001,17.1951Q9,17.0985,9,17ZM6,17Q6,16.9015,6.0192147,16.8049Q6.0384294,16.7083,6.0761205,16.6173Q6.113811,16.5263,6.16853,16.4444Q6.223249,16.3625,6.292893,16.2929Q6.362537,16.2232,6.44443,16.1685Q6.526322,16.113799999999998,6.617316,16.0761Q6.708311,16.0384,6.80491,16.019199999999998Q6.901509,16,7,16Q7.09849,16,7.19509,16.019199999999998Q7.29169,16.0384,7.38268,16.0761Q7.47368,16.113799999999998,7.5555699999999995,16.1685Q7.63746,16.2232,7.70711,16.2929Q7.77675,16.3625,7.8314699999999995,16.4444Q7.88619,16.5263,7.9238800000000005,16.6173Q7.96157,16.7083,7.98079,16.8049Q8,16.9015,8,17Q8,17.0985,7.98079,17.1951Q7.96157,17.2917,7.9238800000000005,17.3827Q7.88619,17.4737,7.8314699999999995,17.5556Q7.77675,17.6375,7.70711,17.7071Q7.63746,17.776699999999998,7.5555699999999995,17.8315Q7.47368,17.886200000000002,7.38268,17.9239Q7.29169,17.9616,7.19509,17.980800000000002Q7.09849,18,7,18Q6.901509,18,6.80491,17.980800000000002Q6.708311,17.9616,6.617316,17.9239Q6.526322,17.886200000000002,6.44443,17.8315Q6.362537,17.776699999999998,6.292893,17.7071Q6.223249,17.6375,6.16853,17.5556Q6.113811,17.4737,6.0761205,17.3827Q6.0384294,17.2917,6.0192147,17.1951Q6,17.0985,6,17Z"></path><path d="M1,19.5L1,4.5C1,2.567,2.567,1,4.5,1L19.5,1C21.433,1,23,2.567,23,4.5L23,19.5C23,21.433,21.433,23,19.5,23L4.5,23C2.567,23,1,21.433,1,19.5ZM3,19.5Q3,20.1213,3.43934,20.5607Q3.87868,21,4.5,21L19.5,21Q20.1213,21,20.5607,20.5607Q21,20.1213,21,19.5L21,4.5Q21,3.87868,20.5607,3.43934Q20.1213,3,19.5,3L4.5,3Q3.87868,3,3.43934,3.43934Q3,3.87868,3,4.5L3,19.5Z" fill-rule="evenodd"></path></symbol>
</svg>