<svg xmlns="http://www.w3.org/2000/svg" xmlns:xlink="http://www.w3.org/1999/xlink" style="position: absolute; width: 0; height: 0" aria-hidden="true" id="__SVG_SPRITE_NODE__">
<symbol xmlns="http://www.w3.org/2000/svg" viewBox="0 0 15 15" id="how-to-modify-template"><path d="M197.5,502.5 C193.634007,502.5 190.5,499.365993 190.5,495.5 C190.5,491.634007 193.634007,488.5 197.5,488.5 C201.365993,488.5 204.5,491.634007 204.5,495.5 C204.5,499.365993 201.365993,502.5 197.5,502.5 Z M197.5,501.5 C200.813708,501.5 203.5,498.813708 203.5,495.5 C203.5,492.186292 200.813708,489.5 197.5,489.5 C194.186292,489.5 191.5,492.186292 191.5,495.5 C191.5,498.813708 194.186292,501.5 197.5,501.5 Z M197,495 L197,492.5 C197,492.223858 197.223858,492 197.5,492 C197.776142,492 198,492.223858 198,492.5 L198,495 L200.5,495 C200.776142,495 201,495.223858 201,495.5 C201,495.776142 200.776142,496 200.5,496 L198,496 L198,498.5 C198,498.776142 197.776142,499 197.5,499 C197.223858,499 197,498.776142 197,498.5 L197,496 L194.5,496 C194.223858,496 194,495.776142 194,495.5 C194,495.223858 194.223858,495 194.5,495 L197,495 Z" transform="translate(-190 -488)" fill-rule="nonzero"></path></symbol>
</svg>