<svg xmlns="http://www.w3.org/2000/svg" xmlns:xlink="http://www.w3.org/1999/xlink" style="position: absolute; width: 0; height: 0" aria-hidden="true" id="__SVG_SPRITE_NODE__">
<symbol xmlns="http://www.w3.org/2000/svg" viewBox="0 0 186 186" id="ic_blank_archived_habit_front"><path d="M9.3523796,13.1579844 C7.42844757,13.7634708 4.42792659,11.9603584 2.28738246,8.78687125 C0.708811824,6.44654404 0.396951131,3.57416945 1.35180037,0.169747461 C4.8660183,0.559745581 7.41241257,1.92490824 8.9909832,4.26523545 C11.2258985,7.5786337 11.7245356,11.2016313 10.2169477,12.6479007 C11.5199142,14.4751858 12.5564839,16.1772152 13.3261193,17.7555943 L15.000604,15.4922198 C13.7361839,13.8161454 14.8535556,10.3136141 17.6442453,7.42377034 C19.6052274,5.39311388 22.3499943,4.49086783 25.8785458,4.71703219 C26.2277171,8.23554119 25.4218116,11.0101239 23.4608295,13.0407804 C20.8149517,15.780667 17.5661637,17.0365278 15.770924,16.132374 L13.8016501,18.7942102 C14.0522416,19.381077 14.2631928,19.949643 14.4344732,20.5 L28.1391828,20.5 L25.1391828,42.5 L5.13918283,42.5 L2.13918283,20.5 L13.3836954,20.5 C12.6702583,18.3670067 11.3271534,15.9176762 9.3523796,13.1579844 Z" transform="translate(117.5 49.5)" fill-rule="evenodd"></path></symbol>
</svg>