<svg xmlns="http://www.w3.org/2000/svg" xmlns:xlink="http://www.w3.org/1999/xlink" style="position: absolute; width: 0; height: 0" aria-hidden="true" id="__SVG_SPRITE_NODE__">
<symbol xmlns="http://www.w3.org/2000/svg" viewBox="0 0 186 186" id="ic_blank_habit_back_dark"><path d="M139.186633,72.1773554 L138.414076,77.6743862 C158.404783,81.5346778 172.073675,100.437219 169.207801,120.828969 C167.864606,130.386299 163.120146,138.628019 156.36977,144.502659 L156.97716,157.334947 C156.991546,157.638878 156.866772,157.932826 156.638149,158.133606 C156.223174,158.498043 155.591336,158.457073 155.226899,158.042098 L148.150769,149.984686 C141.443069,153.309373 133.697529,154.716687 125.724316,153.596125 C117.751103,152.475563 110.693521,148.987806 105.162074,143.943018 L96.1391372,149.737855 C95.8831179,149.902279 95.5661654,149.941196 95.2779731,149.843592 C94.7548741,149.666432 94.4744356,149.098759 94.6515961,148.57566 L98.7725145,136.407892 C93.9029068,128.900171 91.6139649,119.66997 92.9571601,110.11264 C95.8230335,89.7208903 114.172662,75.3182585 134.453004,77.1176938 L135.225561,71.620663 L130.769355,70.994384 C128.85517,70.7253629 127.521501,68.9555248 127.790522,67.0413399 C128.059543,65.1271551 129.829382,63.7934864 131.743566,64.0625075 L144.617051,65.8717579 C146.531236,66.140779 147.864905,67.9106171 147.595884,69.824802 C147.326863,71.7389868 145.557024,73.0726555 143.64284,72.8036343 L139.186633,72.1773554 Z M66.806901,112.891777 L68.4498552,115.895799 C68.5580414,116.09361 68.4853865,116.341669 68.2875759,116.449855 C68.165515,116.516613 68.0178599,116.516613 67.895799,116.449855 L64.8917769,114.806901 C64.6476551,114.673386 64.3523449,114.673386 64.1082231,114.806901 L61.104201,116.449855 C60.9063904,116.558041 60.658331,116.485386 60.5501448,116.287576 C60.4833875,116.165515 60.4833875,116.01786 60.5501448,115.895799 L62.193099,112.891777 C62.3266137,112.647655 62.3266137,112.352345 62.193099,112.108223 L60.5501448,109.104201 C60.4419586,108.90639 60.5146135,108.658331 60.7124241,108.550145 C60.834485,108.483387 60.9821401,108.483387 61.104201,108.550145 L64.1082231,110.193099 C64.3523449,110.326614 64.6476551,110.326614 64.8917769,110.193099 L67.895799,108.550145 C68.0936096,108.441959 68.341669,108.514614 68.4498552,108.712424 C68.5166125,108.834485 68.5166125,108.98214 68.4498552,109.104201 L66.806901,112.108223 C66.6733863,112.352345 66.6733863,112.647655 66.806901,112.891777 Z M102.230176,55.7938327 L103.462391,58.0468493 C103.543531,58.1952072 103.48904,58.3812518 103.340682,58.4623914 C103.249136,58.5124594 103.138395,58.5124594 103.046849,58.4623914 L100.793833,57.2301757 C100.610741,57.1300397 100.389259,57.1300397 100.206167,57.2301757 L97.9531507,58.4623914 C97.8047928,58.5435311 97.6187482,58.4890399 97.5376086,58.3406819 C97.4875406,58.2491363 97.4875406,58.1383949 97.5376086,58.0468493 L98.7698243,55.7938327 C98.8699603,55.6107413 98.8699603,55.3892587 98.7698243,55.2061673 L97.5376086,52.9531507 C97.4564689,52.8047928 97.5109601,52.6187482 97.6593181,52.5376086 C97.7508637,52.4875406 97.8616051,52.4875406 97.9531507,52.5376086 L100.206167,53.7698243 C100.389259,53.8699603 100.610741,53.8699603 100.793833,53.7698243 L103.046849,52.5376086 C103.195207,52.4564689 103.381252,52.5109601 103.462391,52.6593181 C103.512459,52.7508637 103.512459,52.8616051 103.462391,52.9531507 L102.230176,55.2061673 C102.13004,55.3892587 102.13004,55.6107413 102.230176,55.7938327 Z M41.9603514,43.0876653 L44.4247828,47.5936985 C44.5870621,47.8904144 44.4780797,48.2625035 44.1813638,48.4247828 C43.9982725,48.5249188 43.7767899,48.5249188 43.5936985,48.4247828 L39.0876653,45.9603514 C38.7214826,45.7600795 38.2785174,45.7600795 37.9123347,45.9603514 L33.4063015,48.4247828 C33.1095856,48.5870621 32.7374965,48.4780797 32.5752172,48.1813638 C32.4750812,47.9982725 32.4750812,47.7767899 32.5752172,47.5936985 L35.0396486,43.0876653 C35.2399205,42.7214826 35.2399205,42.2785174 35.0396486,41.9123347 L32.5752172,37.4063015 C32.4129379,37.1095856 32.5219203,36.7374965 32.8186362,36.5752172 C33.0017275,36.4750812 33.2232101,36.4750812 33.4063015,36.5752172 L37.9123347,39.0396486 C38.2785174,39.2399205 38.7214826,39.2399205 39.0876653,39.0396486 L43.5936985,36.5752172 C43.8904144,36.4129379 44.2625035,36.5219203 44.4247828,36.8186362 C44.5249188,37.0017275 44.5249188,37.2232101 44.4247828,37.4063015 L41.9603514,41.9123347 C41.7600795,42.2785174 41.7600795,42.7214826 41.9603514,43.0876653 Z M94.1343656,96.5492499 C91.6176656,93.2646951 90.3686352,89.01182 90.9900132,84.590486 C92.2198241,75.8399268 100.310513,69.7431557 109.061072,70.9729666 C112.838913,71.5039075 116.122122,73.3136269 118.534689,75.903142 C108.05123,79.235832 99.1981066,86.6601878 94.1343656,96.5492499 Z M154.050518,80.8945664 C157.083394,79.0703583 160.738243,78.2357193 164.516084,78.7666602 C173.266643,79.9964711 179.363414,88.0871597 178.133603,96.8377189 C177.512225,101.259053 175.139329,105.002899 171.814776,107.46652 C169.67299,96.5647868 163.209251,86.9877863 154.050518,80.8945664 Z" fill="#ABABAB" fill-rule="evenodd"></path></symbol>
</svg>