<svg xmlns="http://www.w3.org/2000/svg" xmlns:xlink="http://www.w3.org/1999/xlink" style="position: absolute; width: 0; height: 0" aria-hidden="true" id="__SVG_SPRITE_NODE__">
<symbol xmlns="http://www.w3.org/2000/svg" viewBox="0 0 186 186" id="ic_blank_habit_front"><g transform="translate(3.5 58.5)" fill="none" fill-rule="evenodd"><g transform="rotate(8 -98.758 727.932)"><circle fill="#FFFFFF" cx="32" cy="32" r="32"></circle><path fill-opacity=".85" fill="#000000" d="M32 6L35 32 46 45 29 35z"></path></g><rect fill="#DBDBDB" transform="rotate(90 36 15)" x="21" y="-21" width="30" height="72" rx="2"></rect><g transform="translate(4 5)"><rect fill="#FFFFFF" transform="rotate(90 36 15)" x="21" y="-21" width="30" height="72" rx="2"></rect><g transform="translate(9 5)"><circle stroke="#DBDBDB" stroke-width="2" cx="10" cy="10" r="9"></circle><ellipse fill="#D8D8D8" cx="8" cy="7.5" rx="1" ry="2.5"></ellipse><ellipse fill="#D8D8D8" cx="12" cy="7.5" rx="1" ry="2.5"></ellipse><path d="M5.10357874,11.0173819 C5.57354248,13.2909565 7.587187,15 10,15 C12.4165267,15 14.4326552,13.2856915 14.8985803,11.0068797" stroke="#D8D8D8" stroke-width="1.5" stroke-linecap="round"></path></g><path fill="#DBDBDB" d="M37 8H63V13H37zM37 17H57V22H37z"></path></g></g></symbol>
</svg>