<svg xmlns="http://www.w3.org/2000/svg" xmlns:xlink="http://www.w3.org/1999/xlink" style="position: absolute; width: 0; height: 0" aria-hidden="true" id="__SVG_SPRITE_NODE__">
<symbol xmlns="http://www.w3.org/2000/svg" viewBox="0 0 24 24" id="insert-summary"><path d="M5.4837,1.50048828125C3.28355,1.50048828125,1.5,3.29134828125,1.5,5.50048828125L1.5,18.50048828125C1.5,20.70958828125,3.28357,22.50048828125,5.48372,22.50048828125L15.6994,22.50048828125C16.227600000000002,22.50048828125,16.734299999999998,22.28958828125,17.1079,21.91458828125L21.9166,17.086388281250002C22.2901,16.711388281250002,22.5,16.20228828125,22.5,15.67188828125L22.5,5.50048828125C22.5,3.29134828125,20.7164,1.50048828125,18.5163,1.50048828125L5.4837,1.50048828125ZM4.07532,4.08642828125Q3.49188,4.67205828125,3.49188,5.50048828125L3.49186,18.50048828125Q3.4918899999999997,19.32878828125,4.07529,19.91458828125Q4.658659999999999,20.50048828125,5.48372,20.50048828125L15.6994,20.50048828125L20.5081,15.67188828125L20.5081,5.50048828125Q20.5081,4.6722082812500005,19.9247,4.08642828125Q19.3414,3.50048828125,18.5163,3.50048828125L5.4837,3.50048828125Q4.658720000000001,3.50063828125,4.07532,4.08642828125ZM8,9.00048828125C7.44772,9.00048828125,7,8.55276828125,7,8.00048828125C7,7.44820828125,7.44772,7.00048828125,8,7.00048828125L16,7.00048828125C16.552300000000002,7.00048828125,17,7.44820828125,17,8.00048828125C17,8.55276828125,16.552300000000002,9.00048828125,16,9.00048828125L8,9.00048828125ZM8,14.00048828125C7.44772,14.00048828125,7,13.55278828125,7,13.00048828125C7,12.44818828125,7.44772,12.00048828125,8,12.00048828125L13,12.00048828125C13.5523,12.00048828125,14,12.44818828125,14,13.00048828125C14,13.55278828125,13.5523,14.00048828125,13,14.00048828125L8,14.00048828125Z" fill-rule="evenodd"></path></symbol>
</svg>