<svg xmlns="http://www.w3.org/2000/svg" xmlns:xlink="http://www.w3.org/1999/xlink" style="position: absolute; width: 0; height: 0" aria-hidden="true" id="__SVG_SPRITE_NODE__">
<symbol xmlns="http://www.w3.org/2000/svg" viewBox="0 0 16 16" id="invalid2"><path d="M6.302822020307779,1.8945312731628419L0.3019450203077793,12.310843273162842Q0.025523010307779315,12.790443273162841,0.03502799130777931,13.334943273162843Q0.043973080307779314,13.847143273162843,0.3019450203077793,14.294943273162842Q0.5598760203077793,14.742743273162842,0.9978610203077793,15.006543273162842Q1.4636520203077794,15.286743273162841,2.0164820203077793,15.286743273162841L14.018212020307779,15.286743273162841Q14.57111202030778,15.287043273162842,15.03681202030778,15.006543273162842Q15.474812020307779,14.742743273162842,15.73281202030778,14.294943273162842Q15.990712020307779,13.846943273162841,15.99971202030778,13.334943273162843Q16.00921202030778,12.790643273162841,15.73281202030778,12.310843273162842L9.731892020307779,1.8945312731628419Q9.45544202030778,1.4147012731628417,8.98019202030778,1.1507152731628418Q8.53330202030778,0.9023432731628418,8.01735202030778,0.9023432731628418Q7.501442020307779,0.9024670721628418,7.054522020307779,1.1507152731628418Q6.57923202030778,1.4147242731628418,6.302822020307779,1.8945312731628419ZM1.4449720203077794,13.633443273162841Q1.2544620203077792,13.303043273162842,1.4449720203077794,12.972343273162842L7.445842020307779,2.5556632731628417Q7.636342020307779,2.2249332731628417,8.01735202030778,2.2249332731628417Q8.39836202030778,2.2249832731628416,8.588872020307779,2.5556632731628417L14.589712020307779,12.972343273162842Q14.78021202030778,13.302743273162841,14.589712020307779,13.633443273162841Q14.399212020307779,13.964143273162842,14.018212020307779,13.964143273162842L2.0164820203077793,13.964143273162842Q1.6354720203077793,13.964143273162842,1.4449720203077794,13.633443273162841ZM7.317422020307779,9.841283273162842L7.317422020307779,5.838383273162842Q7.317422020307779,5.772873273162841,7.330212020307779,5.708613273162841Q7.342992020307779,5.644353273162841,7.36806202030778,5.583813273162842Q7.393132020307779,5.523283273162842,7.4295320203077795,5.468813273162842Q7.465932020307779,5.414333273162842,7.512262020307779,5.3680032731628415Q7.558592020307779,5.321673273162842,7.613072020307779,5.285273273162842Q7.6675420203077795,5.248873273162841,7.728082020307779,5.223803273162842Q7.788612020307779,5.1987332731628415,7.852872020307779,5.185943273162842Q7.917132020307779,5.173163273162841,7.982652020307779,5.173163273162841Q8.04816202030778,5.173163273162841,8.112422020307779,5.185943273162842Q8.17668202030778,5.1987332731628415,8.23721202030778,5.223803273162842Q8.29774202030778,5.248873273162841,8.35222202030778,5.285273273162842Q8.40670202030778,5.321673273162842,8.453032020307779,5.3680032731628415Q8.49936202030778,5.414333273162842,8.535762020307779,5.468813273162842Q8.572162020307779,5.523283273162842,8.597232020307779,5.583813273162842Q8.62230202030778,5.644353273162841,8.63508202030778,5.708613273162841Q8.64787202030778,5.772873273162841,8.64787202030778,5.838383273162842L8.64787202030778,9.841283273162842Q8.64787202030778,9.906793273162842,8.63508202030778,9.971053273162841Q8.62230202030778,10.035313273162842,8.597232020307779,10.095843273162842Q8.572162020307779,10.156373273162842,8.535762020307779,10.210853273162842Q8.49936202030778,10.265333273162842,8.453032020307779,10.311663273162841Q8.40670202030778,10.357983273162843,8.35222202030778,10.394393273162843Q8.29774202030778,10.430793273162841,8.23721202030778,10.455863273162842Q8.17668202030778,10.480933273162842,8.112422020307779,10.493713273162841Q8.04816202030778,10.506503273162842,7.982652020307779,10.506503273162842Q7.917132020307779,10.506503273162842,7.852872020307779,10.493713273162841Q7.788612020307779,10.480933273162842,7.728082020307779,10.455863273162842Q7.6675420203077795,10.430793273162841,7.613072020307779,10.394393273162843Q7.558592020307779,10.357983273162843,7.512262020307779,10.311663273162841Q7.465932020307779,10.265333273162842,7.4295320203077795,10.210853273162842Q7.393132020307779,10.156373273162842,7.36806202030778,10.095843273162842Q7.342992020307779,10.035313273162842,7.330212020307779,9.971053273162841Q7.317422020307779,9.906793273162842,7.317422020307779,9.841283273162842ZM7.98147202030778,11.173143273162841Q8.06337202030778,11.173143273162841,8.14369202030778,11.189143273162841Q8.22402202030778,11.205243273162841,8.29968202030778,11.236643273162843Q8.37535202030778,11.268043273162842,8.44344202030778,11.313643273162842Q8.511542020307779,11.359243273162841,8.569452020307779,11.417243273162843Q8.62736202030778,11.475243273162842,8.672862020307779,11.543543273162841Q8.71836202030778,11.611743273162842,8.74970202030778,11.687643273162841Q8.78104202030778,11.763443273162842,8.797022020307779,11.843943273162841Q8.81300202030778,11.924443273162842,8.81300202030778,12.006543273162842Q8.81300202030778,12.088543273162841,8.797022020307779,12.169043273162842Q8.78104202030778,12.249543273162843,8.74970202030778,12.325443273162842Q8.71836202030778,12.401243273162843,8.672862020307779,12.469443273162842Q8.62736202030778,12.537743273162842,8.569452020307779,12.595743273162842Q8.511542020307779,12.653843273162842,8.44344202030778,12.699443273162842Q8.37535202030778,12.745043273162842,8.29968202030778,12.776443273162842Q8.22402202030778,12.807843273162842,8.14369202030778,12.823843273162842Q8.06337202030778,12.839843273162842,7.98147202030778,12.839843273162842Q7.8995720203077795,12.839843273162842,7.819252020307779,12.823843273162842Q7.738922020307779,12.807843273162842,7.663262020307779,12.776443273162842Q7.587592020307779,12.745043273162842,7.51950202030778,12.699443273162842Q7.451402020307779,12.653843273162842,7.39349202030778,12.595743273162842Q7.335582020307779,12.537743273162842,7.290082020307779,12.469443273162842Q7.244582020307779,12.401243273162843,7.21324202030778,12.325443273162842Q7.1819020203077795,12.249543273162843,7.16592202030778,12.169043273162842Q7.14994202030778,12.088543273162841,7.14994202030778,12.006543273162842Q7.14994202030778,11.924443273162842,7.16592202030778,11.843943273162841Q7.1819020203077795,11.763443273162842,7.21324202030778,11.687643273162841Q7.244582020307779,11.611743273162842,7.290082020307779,11.543543273162841Q7.335582020307779,11.475243273162842,7.39349202030778,11.417243273162843Q7.451402020307779,11.359243273162841,7.51950202030778,11.313643273162842Q7.587592020307779,11.268043273162842,7.663262020307779,11.236643273162843Q7.738922020307779,11.205243273162841,7.819252020307779,11.189143273162841Q7.8995720203077795,11.173143273162841,7.98147202030778,11.173143273162841Z" fill-rule="evenodd"></path></symbol>
</svg>