<svg xmlns="http://www.w3.org/2000/svg" xmlns:xlink="http://www.w3.org/1999/xlink" style="position: absolute; width: 0; height: 0" aria-hidden="true" id="__SVG_SPRITE_NODE__">
<symbol xmlns="http://www.w3.org/2000/svg" viewBox="0 0 18 18" id="invalid"><path d="M7.09067102238059,1.10899L0.3396880223805904,12.7516Q0.028713422380590437,13.2877,0.039406490380590437,13.8962Q0.04946972238059044,14.4687,0.3396880223805904,14.9692Q0.6298600223805905,15.4697,1.1225910223805904,15.7646Q1.6466010223805905,16.0778,2.2685410223805906,16.0778L15.770551022380591,16.0778Q16.39245102238059,16.0781,16.916451022380592,15.7646Q17.40915102238059,15.4697,17.69935102238059,14.9692Q17.989551022380592,14.4685,17.99965102238059,13.8962Q18.01035102238059,13.2879,17.69935102238059,12.7516L10.94835102238059,1.10899Q10.63735102238059,0.572675,10.102751022380591,0.277612Q9.59996102238059,0,9.01952102238059,0Q8.439131022380591,0.000138373,7.93634102238059,0.277612Q7.40164102238059,0.572701,7.09067102238059,1.10899ZM1.6255910223805905,14.2299Q1.4112710223805904,13.8605,1.6255910223805905,13.4909L8.37657102238059,1.84795Q8.59089102238059,1.47829,9.01952102238059,1.47829Q9.44816102238059,1.47835,9.66247102238059,1.84795L16.413451022380592,13.4909Q16.62775102238059,13.8603,16.413451022380592,14.2299Q16.19915102238059,14.5995,15.770551022380591,14.5995L2.2685410223805906,14.5995Q1.8399110223805903,14.5995,1.6255910223805905,14.2299ZM8.23192102238059,9.98643L8.23192102238059,5.52199Q8.23192102238059,5.44828,8.24630102238059,5.37599Q8.26068102238059,5.30369,8.288891022380591,5.2356Q8.317091022380591,5.1675,8.35804102238059,5.10621Q8.39899102238059,5.04493,8.45111102238059,4.99281Q8.503231022380591,4.94069,8.56452102238059,4.89974Q8.62581102238059,4.85879,8.69390102238059,4.83058Q8.762001022380591,4.80237,8.83429102238059,4.78799Q8.90659102238059,4.77361,8.98030102238059,4.77361Q9.054001022380591,4.77361,9.12629102238059,4.78799Q9.19859102238059,4.80237,9.26668102238059,4.83058Q9.334781022380591,4.85879,9.39607102238059,4.89974Q9.45735102238059,4.94069,9.509471022380591,4.99281Q9.56159102238059,5.04493,9.60254102238059,5.10621Q9.64349102238059,5.1675,9.67170102238059,5.2356Q9.69991102238059,5.30369,9.714291022380591,5.37599Q9.72867102238059,5.44828,9.72867102238059,5.52199L9.72867102238059,9.98643Q9.72867102238059,10.0601,9.714291022380591,10.1324Q9.69991102238059,10.2047,9.67170102238059,10.2728Q9.64349102238059,10.3409,9.60254102238059,10.4022Q9.56159102238059,10.4635,9.509471022380591,10.5156Q9.45735102238059,10.5677,9.39607102238059,10.6087Q9.334781022380591,10.6496,9.26668102238059,10.6778Q9.19859102238059,10.706,9.12629102238059,10.7204Q9.054001022380591,10.7348,8.98030102238059,10.7348Q8.90659102238059,10.7348,8.83429102238059,10.7204Q8.762001022380591,10.706,8.69390102238059,10.6778Q8.62581102238059,10.6496,8.56452102238059,10.6087Q8.503231022380591,10.5677,8.45111102238059,10.5156Q8.39899102238059,10.4635,8.35804102238059,10.4022Q8.317091022380591,10.3409,8.288891022380591,10.2728Q8.26068102238059,10.2047,8.24630102238059,10.1324Q8.23192102238059,10.0601,8.23192102238059,9.98643ZM8.97891102238059,11.48Q9.07105102238059,11.48,9.161411022380591,11.4979Q9.251781022380591,11.5158,9.33690102238059,11.5509Q9.42202102238059,11.586,9.498631022380591,11.6369Q9.57524102238059,11.6879,9.64039102238059,11.7528Q9.70553102238059,11.8176,9.75672102238059,11.8939Q9.80791102238059,11.9702,9.84317102238059,12.055Q9.87843102238059,12.1397,9.89640102238059,12.2297Q9.91438102238059,12.3197,9.91438102238059,12.4114Q9.91438102238059,12.5031,9.89640102238059,12.5931Q9.87843102238059,12.6831,9.84317102238059,12.7678Q9.80791102238059,12.8526,9.75672102238059,12.9289Q9.70553102238059,13.0052,9.64039102238059,13.07Q9.57524102238059,13.1349,9.498631022380591,13.1859Q9.42202102238059,13.2368,9.33690102238059,13.2719Q9.251781022380591,13.307,9.161411022380591,13.3249Q9.07105102238059,13.3428,8.97891102238059,13.3428Q8.886771022380591,13.3428,8.79641102238059,13.3249Q8.70605102238059,13.307,8.62092102238059,13.2719Q8.535801022380591,13.2368,8.45919102238059,13.1859Q8.382591022380591,13.1349,8.31744102238059,13.07Q8.252291022380591,13.0052,8.201101022380591,12.9289Q8.149911022380591,12.8526,8.11465102238059,12.7678Q8.079391022380591,12.6831,8.06142102238059,12.5931Q8.043441022380591,12.5031,8.043441022380591,12.4114Q8.043441022380591,12.3197,8.06142102238059,12.2297Q8.079391022380591,12.1397,8.11465102238059,12.055Q8.149911022380591,11.9702,8.201101022380591,11.8939Q8.252291022380591,11.8176,8.31744102238059,11.7528Q8.382591022380591,11.6879,8.45919102238059,11.6369Q8.535801022380591,11.586,8.62092102238059,11.5509Q8.70605102238059,11.5158,8.79641102238059,11.4979Q8.886771022380591,11.48,8.97891102238059,11.48Z" fill-rule="evenodd"></path></symbol>
</svg>