<svg xmlns="http://www.w3.org/2000/svg" xmlns:xlink="http://www.w3.org/1999/xlink" style="position: absolute; width: 0; height: 0" aria-hidden="true" id="__SVG_SPRITE_NODE__">
<symbol xmlns="http://www.w3.org/2000/svg" viewBox="0 0 24 24" id="invite-member"><path d="M4 22C1.79086 22 0 20.2091 0 18 0 13.58172 3.58172 10 8 10L13 10C17.4183 10 21 13.58172 21 18 21 20.2091 19.2091 22 17 22L4 22zM2.58579 19.41421Q2 18.82843 2 18 2 15.51472 3.75736 13.75736 5.51472 12 8 12L13 12Q15.4853 12 17.2426 13.75736 19 15.51472 19 18 19 18.82843 18.4142 19.41421 17.8284 20 17 20L4 20Q3.17157 20 2.58579 19.41421zM14.999998092651367 4.5C14.999998092651367 6.98528 12.985278092651367 9 10.499998092651367 9 8.014718092651368 9 5.999998092651367 6.98528 5.999998092651367 4.5 5.999998092651367 2.01472 8.014718092651368 0 10.499998092651367 0 12.985278092651367 0 14.999998092651367 2.01472 14.999998092651367 4.5zM12.999998092651367 4.5Q12.999998092651367 3.46447 12.267768092651366 2.73223 11.535528092651367 2 10.499998092651367 2 9.464468092651368 2 8.732228092651367 2.73223 7.999998092651367 3.46447 7.999998092651367 4.5 7.999998092651367 5.53553 8.732228092651367 6.26777 9.464468092651368 7 10.499998092651367 7 11.535528092651367 7 12.267768092651366 6.26777 12.999998092651367 5.53553 12.999998092651367 4.5z" fill-rule="evenodd"></path><g><path d="M20.5,5L20.5,6.5L22,6.5C22.55228,6.5,23,6.94772,23,7.5C23,8.05228,22.55228,8.5,22,8.5L20.5,8.5L20.5,10C20.5,10.55228,20.05228,11,19.5,11C18.94772,11,18.5,10.55228,18.5,10L18.5,8.5L17,8.5C16.447715,8.5,16,8.05228,16,7.5C16,6.94772,16.447715,6.5,17,6.5L18.5,6.5L18.5,5C18.5,4.447715,18.94772,4,19.5,4C20.05228,4,20.5,4.447715,20.5,5Z" fill-rule="evenodd"></path></g></symbol>
<symbol xmlns="http://www.w3.org/2000/svg" viewBox="0 0 36 36" id="invite"><g fill-rule="evenodd"><path fill="none" d="M0 0H36V36H0z"></path><path d="M15 18C19.2070617 18 21.8456446 19.0320374 23.6298834 20.1916571L24.042063 20.4719523 24.4377236 20.765235 24.8157955 21.0684684 25.1637458 21.3673447 25.3272816 21.5140645C26.330918 22.4254839 27 23.8337419 27 25.2897097L27 29.1048387C27 30.0129677 26.3483636 30.75 25.5454545 30.75L4.45454545 30.75C3.65163636 30.75 3 30.0129677 3 29.1048387L3 25.2897097C3 23.8337419 3.52361861 22.4254839 4.52725497 21.5140645L4.69120806 21.3673447 5.04233682 21.0684684 5.42635726 20.765235 5.82997857 20.4719523C7.65292855 19.2037684 10.4563734 18 15 18zM15 5.25C18.1185882 5.25 20.6470588 7.78725 20.6470588 10.9166667 20.6470588 14.0460833 18.1185882 16.5833333 15 16.5833333 11.8814118 16.5833333 9.35294118 14.0460833 9.35294118 10.9166667 9.35294118 7.78725 11.8814118 5.25 15 5.25zM28.875 7.875C29.2892136 7.875 29.625 8.21078644 29.625 8.625L29.625 12 33 12C33.4142136 12 33.75 12.3357864 33.75 12.75L33.75 14.25C33.75 14.6642136 33.4142136 15 33 15L29.625 15 29.625 18.375C29.625 18.7892136 29.2892136 19.125 28.875 19.125L27.375 19.125C26.9607864 19.125 26.625 18.7892136 26.625 18.375L26.62425 15 23.25 15C22.8357864 15 22.5 14.6642136 22.5 14.25L22.5 12.75C22.5 12.3357864 22.8357864 12 23.25 12L26.625 12 26.625 8.625C26.625 8.21078644 26.9607864 7.875 27.375 7.875L28.875 7.875z"></path></g></symbol>
</svg>