<svg xmlns="http://www.w3.org/2000/svg" xmlns:xlink="http://www.w3.org/1999/xlink" style="position: absolute; width: 0; height: 0" aria-hidden="true" id="__SVG_SPRITE_NODE__">
<symbol xmlns="http://www.w3.org/2000/svg" viewBox="0 0 24 24" id="kanban-mode"><path d="M39.9445,22.499755859375L29,22.499755859375C27.89543,22.499755859375,27,21.604355859375,27,20.499755859375L27,18.199755859375C27,17.095155859374998,27.89543,16.199755859375,29,16.199755859375L39.9445,16.199755859375C41.049,16.199755859375,41.9445,17.095155859374998,41.9445,18.199755859375L41.9445,20.499755859375C41.9445,21.604355859375,41.049,22.499755859375,39.9445,22.499755859375ZM39.9445,20.499755859375L39.9445,18.199755859375L29,18.199755859375L29,20.499755859375L39.9445,20.499755859375ZM37.7778,13.149755859375C37.7778,14.254355859375,36.88234,15.149755859375,35.777770000000004,15.149755859375L29,15.149755859375C27.895431,15.149755859375,27,14.254355859375,27,13.149755859375L27,10.849785859375C27,9.745215859375,27.895431,8.849775859375,29,8.849775859375L35.777770000000004,8.849795859375C36.88234,8.849795859375,37.7778,9.745225859375,37.7778,10.849795859375L37.7778,13.149755859375ZM35.777770000000004,10.849795859375L35.777770000000004,13.149755859375L29,13.149755859375L29,10.849785859375L35.777770000000004,10.849795859375ZM45,5.799745859375C45,6.904315859375,44.104600000000005,7.799745859375,43,7.799745859375L29,7.799745859375C27.895431,7.799745859375,27,6.904315859375,27,5.799745859375L27,3.499745859375C27,2.395174859375,27.895431,1.499743938475,29,1.499743938475L43,1.499755859375C44.104600000000005,1.499755859375,45,2.395186859375,45,3.499755859375L45,5.799745859375ZM43,3.499755859375L43,5.799745859375L29,5.799745859375L29,3.499745859375L43,3.499755859375Z" fill-rule="evenodd" transform="rotate(90 24 0)"></path></symbol>
</svg>