<svg xmlns="http://www.w3.org/2000/svg" xmlns:xlink="http://www.w3.org/1999/xlink" style="position: absolute; width: 0; height: 0" aria-hidden="true" id="__SVG_SPRITE_NODE__">
<symbol xmlns="http://www.w3.org/2000/svg" viewBox="0 0 24 24" id="keyboard"><path d="M1,7L1,17Q1,18.2426,1.8786800000000001,19.121299999999998Q2.7573600000000003,20,4,20L20,20Q21.2426,20,22.1213,19.121299999999998Q23,18.2426,23,17L23,7Q23,5.75736,22.1213,4.87868Q21.2426,4,20,4L4,4Q2.7573600000000003,4,1.8786800000000001,4.87868Q1,5.75736,1,7ZM3.29289,17.7071Q3,17.4142,3,17L3,7Q3,6.585789999999999,3.29289,6.29289Q3.58579,6,4,6L20,6Q20.4142,6,20.7071,6.29289Q21,6.585789999999999,21,7L21,17Q21,17.4142,20.7071,17.7071Q20.4142,18,20,18L4,18Q3.58579,18,3.29289,17.7071ZM7,10Q7,10.09849,6.98078,10.19509Q6.96157,10.29169,6.92388,10.38268Q6.88619,10.47368,6.83147,10.55557Q6.77675,10.63746,6.70711,10.70711Q6.63746,10.77675,6.55557,10.83147Q6.47368,10.88619,6.38268,10.92388Q6.29169,10.96157,6.19509,10.98078Q6.09849,11,6,11Q5.90151,11,5.80491,10.98078Q5.70831,10.96157,5.61732,10.92388Q5.52632,10.88619,5.44443,10.83147Q5.36254,10.77675,5.29289,10.70711Q5.22325,10.63746,5.16853,10.55557Q5.11381,10.47368,5.07612,10.38268Q5.03843,10.29169,5.01921,10.19509Q5,10.09849,5,10Q5,9.90151,5.01921,9.80491Q5.03843,9.70831,5.07612,9.61732Q5.11381,9.52632,5.16853,9.44443Q5.22325,9.36254,5.29289,9.29289Q5.36254,9.22325,5.44443,9.16853Q5.52632,9.11381,5.61732,9.07612Q5.70831,9.03843,5.80491,9.019210000000001Q5.90151,9,6,9Q6.09849,9,6.19509,9.019210000000001Q6.29169,9.03843,6.38268,9.07612Q6.47368,9.11381,6.55557,9.16853Q6.63746,9.22325,6.70711,9.29289Q6.77675,9.36254,6.83147,9.44443Q6.88619,9.52632,6.92388,9.61732Q6.96157,9.70831,6.98078,9.80491Q7,9.90151,7,10ZM11,10Q11,10.09849,10.98078,10.19509Q10.96157,10.29169,10.92388,10.38268Q10.88619,10.47368,10.83147,10.55557Q10.77675,10.63746,10.70711,10.70711Q10.63746,10.77675,10.55557,10.83147Q10.47368,10.88619,10.38268,10.92388Q10.29169,10.96157,10.19509,10.98078Q10.09849,11,10,11Q9.90151,11,9.80491,10.98078Q9.70831,10.96157,9.61732,10.92388Q9.52632,10.88619,9.44443,10.83147Q9.36254,10.77675,9.29289,10.70711Q9.22325,10.63746,9.16853,10.55557Q9.11381,10.47368,9.07612,10.38268Q9.03843,10.29169,9.01921,10.19509Q9,10.09849,9,10Q9,9.90151,9.01921,9.80491Q9.03843,9.70831,9.07612,9.61732Q9.11381,9.52632,9.16853,9.44443Q9.22325,9.36254,9.29289,9.29289Q9.36254,9.22325,9.44443,9.16853Q9.52632,9.11381,9.61732,9.07612Q9.70831,9.03843,9.80491,9.019210000000001Q9.90151,9,10,9Q10.09849,9,10.19509,9.019210000000001Q10.29169,9.03843,10.38268,9.07612Q10.47368,9.11381,10.55557,9.16853Q10.63746,9.22325,10.70711,9.29289Q10.77675,9.36254,10.83147,9.44443Q10.88619,9.52632,10.92388,9.61732Q10.96157,9.70831,10.98078,9.80491Q11,9.90151,11,10ZM15,10Q15,10.09849,14.9808,10.19509Q14.9616,10.29169,14.9239,10.38268Q14.8862,10.47368,14.8315,10.55557Q14.7767,10.63746,14.7071,10.70711Q14.6375,10.77675,14.5556,10.83147Q14.4737,10.88619,14.3827,10.92388Q14.2917,10.96157,14.1951,10.98078Q14.0985,11,14,11Q13.9015,11,13.8049,10.98078Q13.7083,10.96157,13.6173,10.92388Q13.5263,10.88619,13.4444,10.83147Q13.3625,10.77675,13.2929,10.70711Q13.2232,10.63746,13.1685,10.55557Q13.1138,10.47368,13.0761,10.38268Q13.0384,10.29169,13.0192,10.19509Q13,10.09849,13,10Q13,9.90151,13.0192,9.80491Q13.0384,9.70831,13.0761,9.61732Q13.1138,9.52632,13.1685,9.44443Q13.2232,9.36254,13.2929,9.29289Q13.3625,9.22325,13.4444,9.16853Q13.5263,9.11381,13.6173,9.07612Q13.7083,9.03843,13.8049,9.019210000000001Q13.9015,9,14,9Q14.0985,9,14.1951,9.019210000000001Q14.2917,9.03843,14.3827,9.07612Q14.4737,9.11381,14.5556,9.16853Q14.6375,9.22325,14.7071,9.29289Q14.7767,9.36254,14.8315,9.44443Q14.8862,9.52632,14.9239,9.61732Q14.9616,9.70831,14.9808,9.80491Q15,9.90151,15,10ZM19,10Q19,10.09849,18.9808,10.19509Q18.9616,10.29169,18.9239,10.38268Q18.8862,10.47368,18.8315,10.55557Q18.7767,10.63746,18.7071,10.70711Q18.6375,10.77675,18.5556,10.83147Q18.4737,10.88619,18.3827,10.92388Q18.2917,10.96157,18.1951,10.98078Q18.0985,11,18,11Q17.9015,11,17.8049,10.98078Q17.7083,10.96157,17.6173,10.92388Q17.5263,10.88619,17.4444,10.83147Q17.3625,10.77675,17.2929,10.70711Q17.2232,10.63746,17.1685,10.55557Q17.1138,10.47368,17.0761,10.38268Q17.0384,10.29169,17.0192,10.19509Q17,10.09849,17,10Q17,9.90151,17.0192,9.80491Q17.0384,9.70831,17.0761,9.61732Q17.1138,9.52632,17.1685,9.44443Q17.2232,9.36254,17.2929,9.29289Q17.3625,9.22325,17.4444,9.16853Q17.5263,9.11381,17.6173,9.07612Q17.7083,9.03843,17.8049,9.019210000000001Q17.9015,9,18,9Q18.0985,9,18.1951,9.019210000000001Q18.2917,9.03843,18.3827,9.07612Q18.4737,9.11381,18.5556,9.16853Q18.6375,9.22325,18.7071,9.29289Q18.7767,9.36254,18.8315,9.44443Q18.8862,9.52632,18.9239,9.61732Q18.9616,9.70831,18.9808,9.80491Q19,9.90151,19,10ZM7,14Q7,14.0985,6.98078,14.1951Q6.96157,14.2917,6.92388,14.3827Q6.88619,14.4737,6.83147,14.5556Q6.77675,14.6375,6.70711,14.7071Q6.63746,14.7767,6.55557,14.8315Q6.47368,14.8862,6.38268,14.9239Q6.29169,14.9616,6.19509,14.9808Q6.09849,15,6,15Q5.90151,15,5.80491,14.9808Q5.70831,14.9616,5.61732,14.9239Q5.52632,14.8862,5.44443,14.8315Q5.36254,14.7767,5.29289,14.7071Q5.22325,14.6375,5.16853,14.5556Q5.11381,14.4737,5.07612,14.3827Q5.03843,14.2917,5.01921,14.1951Q5,14.0985,5,14Q5,13.90151,5.01921,13.80491Q5.03843,13.70831,5.07612,13.61732Q5.11381,13.52632,5.16853,13.44443Q5.22325,13.36254,5.29289,13.29289Q5.36254,13.22325,5.44443,13.16853Q5.52632,13.11381,5.61732,13.07612Q5.70831,13.03843,5.80491,13.01921Q5.90151,13,6,13Q6.09849,13,6.19509,13.01921Q6.29169,13.03843,6.38268,13.07612Q6.47368,13.11381,6.55557,13.16853Q6.63746,13.22325,6.70711,13.29289Q6.77675,13.36254,6.83147,13.44443Q6.88619,13.52632,6.92388,13.61732Q6.96157,13.70831,6.98078,13.80491Q7,13.90151,7,14ZM9,14C9,14.5523,9.44771,15,10,15L14,15C14.5523,15,15,14.5523,15,14C15,13.44771,14.5523,13,14,13L10,13C9.44771,13,9,13.44771,9,14ZM19,14Q19,14.0985,18.9808,14.1951Q18.9616,14.2917,18.9239,14.3827Q18.8862,14.4737,18.8315,14.5556Q18.7767,14.6375,18.7071,14.7071Q18.6375,14.7767,18.5556,14.8315Q18.4737,14.8862,18.3827,14.9239Q18.2917,14.9616,18.1951,14.9808Q18.0985,15,18,15Q17.9015,15,17.8049,14.9808Q17.7083,14.9616,17.6173,14.9239Q17.5263,14.8862,17.4444,14.8315Q17.3625,14.7767,17.2929,14.7071Q17.2232,14.6375,17.1685,14.5556Q17.1138,14.4737,17.0761,14.3827Q17.0384,14.2917,17.0192,14.1951Q17,14.0985,17,14Q17,13.90151,17.0192,13.80491Q17.0384,13.70831,17.0761,13.61732Q17.1138,13.52632,17.1685,13.44443Q17.2232,13.36254,17.2929,13.29289Q17.3625,13.22325,17.4444,13.16853Q17.5263,13.11381,17.6173,13.07612Q17.7083,13.03843,17.8049,13.01921Q17.9015,13,18,13Q18.0985,13,18.1951,13.01921Q18.2917,13.03843,18.3827,13.07612Q18.4737,13.11381,18.5556,13.16853Q18.6375,13.22325,18.7071,13.29289Q18.7767,13.36254,18.8315,13.44443Q18.8862,13.52632,18.9239,13.61732Q18.9616,13.70831,18.9808,13.80491Q19,13.90151,19,14Z" fill-rule="evenodd"></path></symbol>
</svg>