<svg xmlns="http://www.w3.org/2000/svg" xmlns:xlink="http://www.w3.org/1999/xlink" style="position: absolute; width: 0; height: 0" aria-hidden="true" id="__SVG_SPRITE_NODE__">
<symbol xmlns="http://www.w3.org/2000/svg" viewBox="0 0 24 24" id="last-month"><path d="M18.6004,19.9865Q17.9563,20.4949,17.2738,20.8891C16.877000000000002,21.1183,16.3831,21.0112,16.081,20.6666C15.6432,20.1673,15.7917,19.3893,16.3826,19.0864L16.7518,18.8971Q17.4722,18.4303,18.1005,17.8158Q19.2866,16.6558,19.9698,15.1405Q18.8051,15.4252,17.5482,15.4252Q15.605,15.4252,13.7982,14.6967Q11.8367,13.9056,10.34509,12.3864Q8.85379,10.86733,8.07753,8.87012Q7.3627,7.03094,7.3627,5.05293Q7.3627,4.52881,7.41158,4.01726Q6.32656,4.73257,5.4478,5.80878Q3.4453899999999997,8.261140000000001,3.4454000000000002,11.4512Q3.4453899999999997,13.1344,4.05366,14.6994Q4.06646,14.7323,4.07948,14.7651C4.3456399999999995,15.4348,3.89355,16.25,3.17294,16.25C2.82332,16.25,2.5026200000000003,16.0544,2.366094,15.7325Q2.349433,15.6932,2.333046,15.6538Q1.5,13.6476,1.5,11.4512Q1.5,8.18126,3.28125,5.46063Q5.06292,2.73935,8.02787,1.482074Q8.234829999999999,1.394313,8.44524,1.3155432Q9.0228,1.099316,9.43366,1.596424Q9.82265,2.067076,9.64893,2.66326Q9.60858,2.8017000000000003,9.57294,2.9414800000000003Q9.3081,3.97997,9.3081,5.0529399999999995Q9.3081,6.7616,9.95594,8.321760000000001Q10.58161,9.82853,11.7225,10.99057Q12.863,12.1524,14.3417,12.7894Q15.8722,13.4487,17.5482,13.4488Q19.2015,13.4487,20.7268,12.799Q20.8578,12.7432,20.9869,12.6827Q21.545,12.4216,22.0618,12.7494Q22.6031,13.0928,22.4757,13.7017Q22.4289,13.9254,22.3729,14.1468Q21.4674,17.7237,18.6004,19.9865ZM3.80321,18.5992L6.68012,16.017699999999998C7.09,15.6499,7.7111,15.6499,8.12097,16.017699999999998C8.31089,16.1881,8.41938,16.4232,8.41938,16.6642C8.41938,16.9052,8.31089,17.1402,8.12097,17.3106L6.97097,18.3425L12.8842,18.3425C13.389,18.3425,13.7983,18.7518,13.7983,19.2567C13.7983,19.7616,13.389,20.1709,12.8842,20.1709L6.98617,20.1709L8.121,21.1892C8.31092,21.3597,8.41941,21.5947,8.41941,21.8357C8.41941,22.0767,8.31092,22.3117,8.121,22.4821C7.71113,22.8499,7.09003,22.8499,6.68015,22.4821L3.80656,19.9036L3.79842,19.8964C3.50227,19.6307,3.41831,19.2073,3.59412,18.8662C3.59412,18.8662,3.60493,18.8459,3.60493,18.8459C3.6542,18.7561,3.71962,18.6742,3.79845,18.6035L3.80321,18.5992Z" fill-rule="evenodd"></path></symbol>
<symbol xmlns="http://www.w3.org/2000/svg" viewBox="0 0 24 24" id="last-week"><path d="M1.00000238419,17.9924L1,6.00756C1,3.79842,2.786,2,4.99514,2L18.9681,2C21.1772,2,23,3.79842,23,6.00755L23,6.19995L23,8.199950000000001L23,10.99843C23,13.3594,23,15.7421,23,17.9924C23,20.2016,21.2492,22,19.04,22C14.3467,22,9.65334,22,4.96,22C2.75087,22,1.00000238419,20.2016,1.00000238419,17.9924ZM21,5.98951L21,6.19995L3,6.19995L3,5.98951C3,4.884930000000001,3.88667,4.00001,4.99125,4.00001C8.3262,4.000030000000001,11.6612,4.00002,14.9961,4.00001L19.0087,4C20.1133,4,21,4.88494,21,5.98951ZM2.99998,8.70745L2.99999,8.199950000000001L21,8.199950000000001L21,8.36419C21,11.54922,21,15.0265,21,18.0105C21,19.1151,20.1133,20,19.0088,20C15.3942,20,11.7796,20,8.165040000000001,20L4.99127,20C3.88671,20,3,19.115,2.99998,18.0105C2.99995,15.1333,2.9999700000000002,11.79763,2.99998,8.70745ZM14.8735,17.2275C14.7124,17.54,14.5317,17.6572,14.2144,17.6572C13.7993,17.6572,13.5405,17.398400000000002,13.5405,17.0566C13.5405,16.8857,13.5796,16.7539,13.6675,16.5928L16.274900000000002,11.70996L16.274900000000002,11.68066L13.2378,11.68066C12.8862,11.68066,12.6274,11.44629,12.6274,11.08984C12.6274,10.73828,12.8862,10.50879,13.2378,10.50879L16.8853,10.50879C17.3979,10.50879,17.7642,10.81152,17.7642,11.31445C17.7642,11.57812,17.6763,11.8125,17.4858,12.1836L14.8735,17.2275ZM11.7632,13.7275C11.7632,14.1182,11.5044,14.3525,11.0991,14.3525L7.16846,14.3525C6.76807,14.3525,6.51416,14.1182,6.51416,13.7275C6.51416,13.3418,6.76807,13.1074,7.16846,13.1074L11.104,13.1074C11.5093,13.1074,11.7632,13.3418,11.7632,13.7275Z" fill-rule="evenodd"></path></symbol>
</svg>