<svg xmlns="http://www.w3.org/2000/svg" xmlns:xlink="http://www.w3.org/1999/xlink" style="position: absolute; width: 0; height: 0" aria-hidden="true" id="__SVG_SPRITE_NODE__">
<symbol xmlns="http://www.w3.org/2000/svg" viewBox="0 0 88 88" id="logo"><g fill="none" fill-rule="evenodd"><rect></rect><path d="M30.754878,33.292402 L23.415458,42.226602 L40.797658,56.480622 C41.836938,57.334002 43.134718,57.794902 44.467478,57.794902 C44.666798,57.794902 44.867218,57.784562 45.066978,57.763662 C46.604778,57.603282 48.013658,56.833722 48.980118,55.627462 L80.158738,16.697142 L71.133458,9.469482 L43.614318,43.830182 L30.754878,33.292402 Z" fill="#FFB000"></path><path d="M44,78.1 C25.19726,78.1 9.9,62.80274 9.9,44 C9.9,25.19726 25.19726,9.9 44,9.9 L44,0 C19.7384,0 0,19.7384 0,44 C0,68.2616 19.7384,88 44,88 C68.2616,88 88,68.2616 88,44 L78.1,44 C78.1,62.80274 62.80274,78.1 44,78.1" fill="#4772FA"></path></g></symbol>
</svg>