<svg xmlns="http://www.w3.org/2000/svg" xmlns:xlink="http://www.w3.org/1999/xlink" style="position: absolute; width: 0; height: 0" aria-hidden="true" id="__SVG_SPRITE_NODE__">
<symbol xmlns="http://www.w3.org/2000/svg" viewBox="0 0 36 36" id="manage-team"><path d="M24,19.5 C27.7281039,19.5 29.8139715,20.6865069 31.141059,21.830923 L31.4575343,22.1154391 L31.7454612,22.3939355 C32.4981885,23.1445161 33,24.3042581 33,25.5032903 L33,30.1451613 C33,30.8930323 32.5112727,31.5 31.9090909,31.5 L16.0909091,31.5 C15.4887273,31.5 15,30.8930323 15,30.1451613 L15,25.5032903 C15,24.3042581 15.392714,23.1445161 16.1454412,22.3939355 L16.4462686,22.1049825 C17.7683013,20.8845745 19.9727273,19.5 24,19.5 Z M24,22.5 C21.1710176,22.5 19.5674759,23.2174365 18.2637303,24.5182828 C18.1536097,24.6280894 18.0385062,24.9195794 18.0078669,25.3038405 L18,25.5032903 L18,28.5 L30,28.5 L30,25.5032903 C30,25.1816627 29.8780167,24.8392155 29.7125166,24.617662 L29.6265034,24.5176158 C28.2821595,23.1762614 26.8033742,22.5 24,22.5 Z M12,15 C15.7281039,15 17.8139715,16.1865069 19.141059,17.330923 L19.4575343,17.6154391 L19.7454612,17.8939355 C19.9077157,18.0557273 20.0583117,18.2365305 20.1947362,18.4326405 C19.0873733,18.7123125 18.1099379,19.1215416 17.2309615,19.6476745 C15.9841402,18.5519344 14.5326053,18 12,18 C9.1710176,18 7.56747594,18.7174365 6.2637303,20.0182828 C6.15360966,20.1280894 6.03850622,20.4195794 6.00786689,20.8038405 L6,21.0032903 L6,24 L13.6660229,24.0006109 C13.5560623,24.4842448 13.5,24.9896354 13.5,25.5032903 L13.5,27 L4.09090909,27 C3.48872727,27 3,26.3930323 3,25.6451613 L3,21.0032903 C3,19.8042581 3.39271396,18.6445161 4.14544123,17.8939355 L4.44626864,17.6049825 C5.76830134,16.3845745 7.97272727,15 12,15 Z M24,9 C26.485125,9 28.5,11.014875 28.5,13.5 C28.5,15.985125 26.485125,18 24,18 C21.514875,18 19.5,15.985125 19.5,13.5 C19.5,11.014875 21.514875,9 24,9 Z M24,12 C23.1717292,12 22.5,12.6717292 22.5,13.5 C22.5,14.3282708 23.1717292,15 24,15 C24.8282708,15 25.5,14.3282708 25.5,13.5 C25.5,12.6717292 24.8282708,12 24,12 Z M12,4.5 C14.485125,4.5 16.5,6.514875 16.5,9 C16.5,11.485125 14.485125,13.5 12,13.5 C9.514875,13.5 7.5,11.485125 7.5,9 C7.5,6.514875 9.514875,4.5 12,4.5 Z M12,7.5 C11.1717292,7.5 10.5,8.17172925 10.5,9 C10.5,9.82827075 11.1717292,10.5 12,10.5 C12.8282708,10.5 13.5,9.82827075 13.5,9 C13.5,8.17172925 12.8282708,7.5 12,7.5 Z" fill-rule="evenodd"></path></symbol>
</svg>