<svg xmlns="http://www.w3.org/2000/svg" xmlns:xlink="http://www.w3.org/1999/xlink" style="position: absolute; width: 0; height: 0" aria-hidden="true" id="__SVG_SPRITE_NODE__">
<symbol xmlns="http://www.w3.org/2000/svg" viewBox="0 0 18 18" id="more-calendar"><path d="M4.499994277954102,8.999999523162842Q4.499994277954102,9.073689523162841,4.492774277954101,9.147029523162843Q4.4855442779541015,9.220359523162841,4.471174277954102,9.292639523162842Q4.456794277954101,9.364909523162842,4.435404277954102,9.435429523162842Q4.414014277954101,9.50593952316284,4.385814277954101,9.574019523162843Q4.357614277954101,9.642109523162842,4.322874277954101,9.707099523162842Q4.288134277954102,9.77207952316284,4.247194277954101,9.83335952316284Q4.206254277954102,9.894629523162841,4.159514277954102,9.951589523162841Q4.112764277954101,10.008549523162841,4.060654277954102,10.060659523162842Q4.008544277954101,10.112769523162841,3.9515842779541015,10.159519523162842Q3.8946242779541014,10.206259523162842,3.8333442779541014,10.247199523162841Q3.7720742779541014,10.288139523162842,3.7070942779541016,10.322879523162841Q3.6421042779541017,10.357619523162843,3.5740142779541015,10.38581952316284Q3.5059342779541014,10.414019523162843,3.4354242779541018,10.435409523162843Q3.3649042779541016,10.456799523162841,3.2926342779541016,10.471179523162842Q3.2203542779541015,10.485549523162842,3.1470242779541016,10.492779523162842Q3.0736842779541016,10.499999523162842,2.9999942779541016,10.499999523162842Q2.9263042779541015,10.499999523162842,2.8529642779541016,10.492779523162842Q2.7796342779541017,10.485549523162842,2.7073542779541016,10.471179523162842Q2.6350842779541015,10.456799523162841,2.5645642779541014,10.435409523162843Q2.4940502779541016,10.414019523162843,2.4259692779541018,10.38581952316284Q2.3578882779541015,10.357619523162843,2.2928992779541018,10.322879523162841Q2.2279102779541016,10.288139523162842,2.1666392779541015,10.247199523162841Q2.1053672779541017,10.206259523162842,2.0484042779541016,10.159519523162842Q1.9914412779541015,10.112769523162841,1.9393342779541016,10.060659523162842Q1.8872272779541015,10.008549523162841,1.8404782779541016,9.951589523162841Q1.7937302779541016,9.894629523162841,1.7527902779541016,9.833349523162841Q1.7118492779541015,9.77207952316284,1.6771122779541017,9.707099523162842Q1.6423752779541017,9.642109523162842,1.6141752779541017,9.574019523162843Q1.5859748779541016,9.50593952316284,1.5645837779541016,9.435429523162842Q1.5431925779541016,9.364909523162842,1.5288163779541015,9.292639523162842Q1.5144400779541016,9.220359523162841,1.5072171879541016,9.147029523162843Q1.4999942779541016,9.073689523162841,1.4999942779541016,8.999999523162842Q1.4999942779541016,8.926309523162843,1.5072171879541016,8.852969523162841Q1.5144400779541016,8.779639523162842,1.5288163779541015,8.707359523162841Q1.5431925779541016,8.635089523162842,1.5645837779541016,8.564569523162842Q1.5859748779541016,8.494055523162842,1.6141752779541017,8.425974523162841Q1.6423752779541017,8.357893523162842,1.6771122779541017,8.292904523162841Q1.7118492779541015,8.227915523162842,1.7527902779541016,8.166644523162843Q1.7937302779541016,8.105372523162842,1.8404782779541016,8.048409523162842Q1.8872272779541015,7.991446523162842,1.9393342779541016,7.939339523162841Q1.9914412779541015,7.887232523162842,2.0484042779541016,7.840483523162842Q2.1053672779541017,7.793735523162842,2.1666392779541015,7.752795523162842Q2.2279102779541016,7.711854523162842,2.2928992779541018,7.677117523162842Q2.3578882779541015,7.642380523162842,2.4259692779541018,7.614180523162842Q2.4940502779541016,7.585980123162842,2.5645642779541014,7.564589023162842Q2.6350842779541015,7.543197823162842,2.7073542779541016,7.528821623162842Q2.7796342779541017,7.514445323162842,2.8529642779541016,7.507222433162842Q2.9263042779541015,7.499999523162842,2.9999942779541016,7.499999523162842Q3.0736842779541016,7.499999523162842,3.1470242779541016,7.507222433162842Q3.2203542779541015,7.514445323162842,3.2926342779541016,7.528821623162842Q3.3649042779541016,7.543197823162842,3.4354242779541018,7.564589023162842Q3.5059342779541014,7.585980123162842,3.5740142779541015,7.614180523162842Q3.6421042779541017,7.642380523162842,3.7070942779541016,7.677117523162842Q3.7720742779541014,7.711854523162842,3.8333542779541014,7.752795523162842Q3.8946242779541014,7.793735523162842,3.9515842779541015,7.840483523162842Q4.008544277954101,7.887232523162842,4.060654277954102,7.939339523162841Q4.112764277954101,7.991446523162842,4.159514277954102,8.048409523162842Q4.206254277954102,8.105372523162842,4.247194277954101,8.166644523162843Q4.288134277954102,8.227915523162842,4.322874277954101,8.292904523162841Q4.357614277954101,8.357893523162842,4.385814277954101,8.425974523162841Q4.414014277954101,8.494055523162842,4.435404277954102,8.564569523162842Q4.456794277954101,8.635089523162842,4.471174277954102,8.707359523162841Q4.4855442779541015,8.779639523162842,4.492774277954101,8.852969523162841Q4.499994277954102,8.926309523162843,4.499994277954102,8.999999523162842ZM10.500174277954102,8.999999523162842Q10.500174277954102,9.073689523162841,10.492954277954102,9.147029523162843Q10.485734277954101,9.220359523162841,10.471354277954102,9.292639523162842Q10.456974277954101,9.364909523162842,10.435584277954101,9.435429523162842Q10.4141942779541,9.50593952316284,10.3859942779541,9.574019523162843Q10.3577942779541,9.642109523162842,10.323054277954101,9.707099523162842Q10.288324277954102,9.77207952316284,10.247384277954101,9.83335952316284Q10.206444277954102,9.894629523162841,10.159694277954102,9.951589523162841Q10.112944277954101,10.008549523162841,10.060834277954102,10.060659523162842Q10.008734277954101,10.112769523162841,9.951764277954101,10.159519523162842Q9.894804277954101,10.206259523162842,9.8335342779541,10.247199523162841Q9.772264277954102,10.288139523162842,9.707274277954102,10.322879523162841Q9.6422842779541,10.357619523162843,9.574204277954102,10.38581952316284Q9.506124277954102,10.414019523162843,9.435604277954102,10.435409523162843Q9.365084277954102,10.456799523162841,9.2928142779541,10.471179523162842Q9.220534277954101,10.485549523162842,9.147204277954103,10.492779523162842Q9.073864277954101,10.499999523162842,9.000174277954102,10.499999523162842Q8.926484277954103,10.499999523162842,8.8531542779541,10.492779523162842Q8.779814277954102,10.485549523162842,8.707544277954103,10.471179523162842Q8.635264277954102,10.456799523162841,8.564754277954101,10.435409523162843Q8.494234277954101,10.414019523162843,8.426154277954101,10.38581952316284Q8.358074277954103,10.357619523162843,8.293084277954101,10.322879523162841Q8.228094277954103,10.288139523162842,8.166824277954102,10.247199523162841Q8.105554277954102,10.206259523162842,8.048584277954102,10.159519523162842Q7.991624277954101,10.112769523162841,7.9395142779541015,10.060659523162842Q7.887414277954101,10.008549523162841,7.840664277954102,9.951589523162841Q7.7939142779541015,9.894629523162841,7.7529742779541015,9.833349523162841Q7.712034277954102,9.77207952316284,7.677294277954101,9.707099523162842Q7.642554277954101,9.642109523162842,7.614354277954101,9.574019523162843Q7.586154277954101,9.50593952316284,7.564764277954102,9.435429523162842Q7.5433742779541015,9.364909523162842,7.5289942779541015,9.292639523162842Q7.514624277954102,9.220359523162841,7.507404277954102,9.147029523162843Q7.500174277954102,9.073689523162841,7.500174277954102,8.999999523162842Q7.500174277954102,8.926309523162843,7.507404277954102,8.852969523162841Q7.514624277954102,8.779639523162842,7.5289942779541015,8.707359523162841Q7.5433742779541015,8.635089523162842,7.564764277954102,8.564569523162842Q7.586154277954101,8.494055523162842,7.614354277954101,8.425974523162841Q7.642554277954101,8.357893523162842,7.677294277954101,8.292904523162841Q7.712034277954102,8.227915523162842,7.7529742779541015,8.166644523162843Q7.7939142779541015,8.105372523162842,7.840664277954102,8.048409523162842Q7.887414277954101,7.991446523162842,7.9395142779541015,7.939339523162841Q7.991624277954101,7.887232523162842,8.048584277954102,7.840483523162842Q8.105554277954102,7.793735523162842,8.166824277954102,7.752795523162842Q8.228094277954103,7.711854523162842,8.293084277954101,7.677117523162842Q8.358074277954103,7.642380523162842,8.426154277954101,7.614180523162842Q8.494234277954101,7.585980123162842,8.564754277954101,7.564589023162842Q8.635264277954102,7.543197823162842,8.707544277954103,7.528821623162842Q8.779814277954102,7.514445323162842,8.8531542779541,7.507222433162842Q8.926484277954103,7.499999523162842,9.000174277954102,7.499999523162842Q9.073864277954101,7.499999523162842,9.147204277954103,7.507222433162842Q9.220534277954101,7.514445323162842,9.2928142779541,7.528821623162842Q9.365084277954102,7.543197823162842,9.435604277954102,7.564589023162842Q9.506124277954102,7.585980123162842,9.574204277954102,7.614180523162842Q9.6422842779541,7.642380523162842,9.707274277954102,7.677117523162842Q9.772264277954102,7.711854523162842,9.8335342779541,7.752795523162842Q9.894804277954101,7.793735523162842,9.951764277954101,7.840483523162842Q10.008734277954101,7.887232523162842,10.060834277954102,7.939339523162841Q10.112944277954101,7.991446523162842,10.159694277954102,8.048409523162842Q10.206444277954102,8.105372523162842,10.247384277954101,8.166644523162843Q10.288324277954102,8.227915523162842,10.323054277954101,8.292904523162841Q10.3577942779541,8.357893523162842,10.3859942779541,8.425974523162841Q10.4141942779541,8.494055523162842,10.435584277954101,8.564569523162842Q10.456974277954101,8.635089523162842,10.471354277954102,8.707359523162841Q10.485734277954101,8.779639523162842,10.492954277954102,8.852969523162841Q10.500174277954102,8.926309523162843,10.500174277954102,8.999999523162842ZM16.499794277954102,8.999999523162842Q16.499794277954102,9.073689523162841,16.4925942779541,9.147029523162843Q16.4853942779541,9.220359523162841,16.4709942779541,9.292639523162842Q16.456594277954103,9.364909523162842,16.435194277954103,9.435429523162842Q16.413794277954104,9.50593952316284,16.3855942779541,9.574019523162843Q16.3573942779541,9.642109523162842,16.3226942779541,9.707099523162842Q16.287994277954102,9.77207952316284,16.2469942779541,9.83335952316284Q16.2060942779541,9.894629523162841,16.159294277954103,9.951589523162841Q16.112594277954102,10.008549523162841,16.0604942779541,10.060659523162842Q16.008394277954103,10.112769523162841,15.951394277954101,10.159519523162842Q15.8943942779541,10.206259523162842,15.833194277954101,10.247199523162841Q15.771894277954102,10.288139523162842,15.7068942779541,10.322879523162841Q15.641894277954101,10.357619523162843,15.573794277954102,10.38581952316284Q15.505794277954102,10.414019523162843,15.435194277954102,10.435409523162843Q15.3646942779541,10.456799523162841,15.292494277954102,10.471179523162842Q15.220194277954102,10.485549523162842,15.146794277954102,10.492779523162842Q15.0734942779541,10.499999523162842,14.999794277954102,10.499999523162842Q14.926094277954101,10.499999523162842,14.852794277954102,10.492779523162842Q14.779494277954102,10.485549523162842,14.707194277954102,10.471179523162842Q14.634894277954102,10.456799523162841,14.5643942779541,10.435409523162843Q14.493894277954102,10.414019523162843,14.425794277954102,10.38581952316284Q14.357694277954101,10.357619523162843,14.292694277954102,10.322879523162841Q14.227694277954102,10.288139523162842,14.1664942779541,10.247199523162841Q14.105194277954102,10.206259523162842,14.048194277954101,10.159519523162842Q13.991294277954102,10.112769523162841,13.939194277954101,10.060659523162842Q13.886994277954102,10.008549523162841,13.8402942779541,9.951589523162841Q13.793594277954101,9.894629523162841,13.7525942779541,9.833349523162841Q13.711694277954102,9.77207952316284,13.676894277954101,9.707099523162842Q13.642194277954102,9.642109523162842,13.613994277954102,9.574019523162843Q13.585794277954102,9.50593952316284,13.5643942779541,9.435429523162842Q13.5429942779541,9.364909523162842,13.528594277954102,9.292639523162842Q13.514294277954102,9.220359523162841,13.506994277954101,9.147029523162843Q13.499794277954102,9.073689523162841,13.499794277954102,8.999999523162842Q13.499794277954102,8.926309523162843,13.506994277954101,8.852969523162841Q13.514294277954102,8.779639523162842,13.528594277954102,8.707359523162841Q13.5429942779541,8.635089523162842,13.5643942779541,8.564569523162842Q13.585794277954102,8.494055523162842,13.613994277954102,8.425974523162841Q13.642194277954102,8.357893523162842,13.676894277954101,8.292904523162841Q13.711694277954102,8.227915523162842,13.7525942779541,8.166644523162843Q13.793594277954101,8.105372523162842,13.8402942779541,8.048409523162842Q13.886994277954102,7.991446523162842,13.939194277954101,7.939339523162841Q13.991294277954102,7.887232523162842,14.048194277954101,7.840483523162842Q14.105194277954102,7.793735523162842,14.1664942779541,7.752795523162842Q14.227694277954102,7.711854523162842,14.292694277954102,7.677117523162842Q14.357694277954101,7.642380523162842,14.425794277954102,7.614180523162842Q14.493894277954102,7.585980123162842,14.5643942779541,7.564589023162842Q14.634894277954102,7.543197823162842,14.707194277954102,7.528821623162842Q14.779494277954102,7.514445323162842,14.852794277954102,7.507222433162842Q14.926094277954101,7.499999523162842,14.999794277954102,7.499999523162842Q15.0734942779541,7.499999523162842,15.146794277954102,7.507222433162842Q15.220194277954102,7.514445323162842,15.292494277954102,7.528821623162842Q15.3646942779541,7.543197823162842,15.435194277954102,7.564589023162842Q15.505794277954102,7.585980123162842,15.573794277954102,7.614180523162842Q15.641894277954101,7.642380523162842,15.7068942779541,7.677117523162842Q15.771894277954102,7.711854523162842,15.833194277954101,7.752795523162842Q15.8943942779541,7.793735523162842,15.951394277954101,7.840483523162842Q16.008394277954103,7.887232523162842,16.0604942779541,7.939339523162841Q16.112594277954102,7.991446523162842,16.159294277954103,8.048409523162842Q16.2060942779541,8.105372523162842,16.2469942779541,8.166644523162843Q16.287994277954102,8.227915523162842,16.3226942779541,8.292904523162841Q16.3573942779541,8.357893523162842,16.3855942779541,8.425974523162841Q16.413794277954104,8.494055523162842,16.435194277954103,8.564569523162842Q16.456594277954103,8.635089523162842,16.4709942779541,8.707359523162841Q16.4853942779541,8.779639523162842,16.4925942779541,8.852969523162841Q16.499794277954102,8.926309523162843,16.499794277954102,8.999999523162842Z"></path></symbol>
<symbol xmlns="http://www.w3.org/2000/svg" viewBox="0 0 24 24" id="more-children"><path d="M6.15192416,0.708034311 L6.15192416,1.96910796 C2.68482365,2.40276126 0,5.37492811 0,8.98455398 C0,12.5941799 2.68482365,15.5669128 6.15192416,16 L6.15192416,14.212737 C3.66056078,13.7926708 1.75745159,11.6119495 1.75745159,8.98398785 C1.75745159,6.35602623 3.65999839,4.17587108 6.15192416,3.7552387 L6.15192416,5.78152787 C6.15192416,6.11289872 6.42055331,6.38152787 6.75192416,6.38152787 C6.90943795,6.38152787 7.0606346,6.31958777 7.17287637,6.20907814 L9.43465893,3.98219992 C9.82820808,3.5947241 9.8331315,2.96157827 9.44565568,2.56802911 C9.44459629,2.56695312 9.44353446,2.56587952 9.44247021,2.56480834 L7.17756314,0.285149629 C6.94401038,0.0500757088 6.5641134,0.0488425649 6.32903948,0.282395326 C6.21567416,0.395027056 6.15192416,0.548229425 6.15192416,0.708034311 Z M13.9994376,8.09969745 C13.8498433,6.87006956 13.362256,5.68459959 12.5715433,4.6582113 L11.3281112,5.90991814 C11.7982646,6.57794802 12.0968908,7.32523569 12.2245521,8.09969745 L14,8.09969745 L13.9994376,8.09969745 Z M7.90937575,14.208208 L7.90937575,16 C9.13087491,15.8494102 10.3175062,15.371599 11.3371093,14.5756244 L10.0756809,13.3058015 C9.41656624,13.7745547 8.67815538,14.0757343 7.90937575,14.208208 L7.90937575,14.208208 Z M11.3281112,12.0586237 L12.5715433,13.3103305 C13.362256,12.2839422 13.8504057,11.0984723 13.9994376,9.86884438 L12.2239897,9.86884438 C12.0963284,10.64274 11.7977023,11.3905938 11.3275488,12.0586237 L11.3281112,12.0586237 Z" transform="translate(5 4)" fill-rule="nonzero"></path></symbol>
<symbol xmlns="http://www.w3.org/2000/svg" viewBox="0 0 16 16" id="more-for-detail"><path d="M4.000003373069763,7.999996507720947Q4.000003373069763,8.065506507720947,3.993583373069763,8.130686507720947Q3.9871633730697633,8.195876507720946,3.974383373069763,8.260116507720948Q3.9616033730697633,8.324366507720947,3.942583373069763,8.387046507720948Q3.9235733730697633,8.449726507720948,3.8985033730697634,8.510246507720947Q3.873443373069763,8.570756507720947,3.8425633730697633,8.628526507720947Q3.811683373069763,8.686296507720947,3.775293373069763,8.740756507720947Q3.738903373069763,8.795226507720947,3.697343373069763,8.845856507720947Q3.655793373069763,8.896496507720947,3.609473373069763,8.942806507720947Q3.5631633730697634,8.989126507720947,3.5125233730697634,9.030676507720948Q3.461893373069763,9.072236507720948,3.407423373069763,9.108626507720947Q3.352963373069763,9.145016507720946,3.295193373069763,9.175896507720948Q3.2374233730697632,9.206776507720948,3.1769133730697634,9.231836507720947Q3.116393373069763,9.256906507720947,3.053713373069763,9.275916507720947Q2.9910333730697634,9.294936507720948,2.926783373069763,9.307716507720947Q2.862543373069763,9.320496507720947,2.7973533730697633,9.326916507720947Q2.732173373069763,9.333336507720947,2.6666633730697633,9.333336507720947Q2.601163373069763,9.333336507720947,2.535973373069763,9.326916507720947Q2.470793373069763,9.320496507720947,2.406543373069763,9.307716507720947Q2.342303373069763,9.294936507720948,2.279620373069763,9.275916507720947Q2.2169383730697634,9.256906507720947,2.156422373069763,9.231836507720947Q2.095905373069763,9.206776507720948,2.0381373730697634,9.175896507720948Q1.9803693730697631,9.145016507720946,1.9259063730697632,9.108626507720947Q1.8714433730697633,9.072236507720948,1.8208093730697632,9.030676507720948Q1.7701753730697631,8.989126507720947,1.7238573730697633,8.942806507720947Q1.6775403730697631,8.896496507720947,1.6359863730697632,8.845856507720947Q1.5944313730697632,8.795226507720947,1.5580403730697632,8.740756507720947Q1.5216493730697631,8.686296507720947,1.4907713730697632,8.628526507720947Q1.459894373069763,8.570756507720947,1.4348273730697632,8.510246507720947Q1.409760573069763,8.449726507720948,1.3907462730697633,8.387046507720948Q1.3717318730697632,8.324366507720947,1.3589529730697631,8.260116507720948Q1.346174073069763,8.195876507720946,1.339753733069763,8.130686507720947Q1.3333333730697632,8.065506507720947,1.3333333730697632,7.999996507720947Q1.3333333730697632,7.934496507720947,1.339753733069763,7.869306507720947Q1.346174073069763,7.804126507720947,1.3589529730697631,7.739876507720947Q1.3717318730697632,7.675636507720947,1.3907462730697633,7.612953507720947Q1.409760573069763,7.5502715077209475,1.4348273730697632,7.489755507720947Q1.459894373069763,7.429238507720948,1.4907713730697632,7.3714705077209475Q1.5216493730697631,7.313702507720947,1.5580403730697632,7.259239507720947Q1.5944313730697632,7.204776507720947,1.6359863730697632,7.154142507720947Q1.6775403730697631,7.103508507720948,1.7238573730697633,7.057190507720947Q1.7701753730697631,7.010873507720947,1.8208093730697632,6.9693195077209475Q1.8714433730697633,6.927764507720947,1.9259063730697632,6.891373507720948Q1.9803693730697631,6.854982507720948,2.0381373730697634,6.824104507720947Q2.095905373069763,6.793227507720947,2.156422373069763,6.768160507720947Q2.2169383730697634,6.743093707720948,2.279620373069763,6.724079407720947Q2.342303373069763,6.705065007720947,2.406543373069763,6.692286107720947Q2.470793373069763,6.679507207720947,2.535973373069763,6.673086867720947Q2.601163373069763,6.666666507720947,2.6666633730697633,6.666666507720947Q2.732173373069763,6.666666507720947,2.7973533730697633,6.673086867720947Q2.862543373069763,6.679507207720947,2.926783373069763,6.692286107720947Q2.9910333730697634,6.705065007720947,3.053713373069763,6.724079407720947Q3.116393373069763,6.743093707720948,3.1769133730697634,6.768160507720947Q3.2374233730697632,6.793227507720947,3.295193373069763,6.824104507720947Q3.352963373069763,6.854982507720948,3.407423373069763,6.891373507720948Q3.461893373069763,6.927764507720947,3.5125233730697634,6.9693195077209475Q3.5631633730697634,7.010873507720947,3.609473373069763,7.057190507720947Q3.655793373069763,7.103508507720948,3.697343373069763,7.154142507720947Q3.738903373069763,7.204776507720947,3.775293373069763,7.259239507720947Q3.811683373069763,7.313702507720947,3.8425633730697633,7.3714705077209475Q3.873443373069763,7.429238507720948,3.8985033730697634,7.489755507720947Q3.9235733730697633,7.5502715077209475,3.942583373069763,7.612953507720947Q3.9616033730697633,7.675636507720947,3.974383373069763,7.739876507720947Q3.9871633730697633,7.804126507720947,3.993583373069763,7.869306507720947Q4.000003373069763,7.934496507720947,4.000003373069763,7.999996507720947ZM9.333493373069762,7.999996507720947Q9.333493373069762,8.065506507720947,9.327073373069762,8.130686507720947Q9.320653373069764,8.195876507720946,9.307873373069764,8.260116507720948Q9.295093373069763,8.324366507720947,9.276083373069763,8.387046507720948Q9.257073373069762,8.449726507720948,9.232003373069762,8.510246507720947Q9.206933373069763,8.570756507720947,9.176053373069763,8.628526507720947Q9.145183373069763,8.686296507720947,9.108783373069762,8.740756507720947Q9.072393373069763,8.795226507720947,9.030843373069764,8.845856507720947Q8.989293373069764,8.896496507720947,8.942973373069762,8.942806507720947Q8.896653373069764,8.989126507720947,8.846023373069762,9.030676507720948Q8.795383373069763,9.072236507720948,8.740923373069762,9.108626507720947Q8.686463373069763,9.145016507720946,8.628693373069762,9.175896507720948Q8.570923373069764,9.206776507720948,8.510403373069764,9.231836507720947Q8.449893373069763,9.256906507720947,8.387213373069763,9.275916507720947Q8.324523373069763,9.294936507720948,8.260283373069763,9.307716507720947Q8.196043373069763,9.320496507720947,8.130853373069762,9.326916507720947Q8.065663373069764,9.333336507720947,8.000163373069764,9.333336507720947Q7.934663373069763,9.333336507720947,7.869473373069763,9.326916507720947Q7.804283373069763,9.320496507720947,7.7400433730697635,9.307716507720947Q7.675793373069763,9.294936507720948,7.613113373069763,9.275916507720947Q7.5504333730697635,9.256906507720947,7.489913373069763,9.231836507720947Q7.429403373069763,9.206776507720948,7.371633373069763,9.175896507720948Q7.313863373069763,9.145016507720946,7.259403373069763,9.108626507720947Q7.204943373069764,9.072236507720948,7.154303373069763,9.030676507720948Q7.103673373069763,8.989126507720947,7.0573533730697635,8.942806507720947Q7.011033373069763,8.896496507720947,6.969483373069763,8.845856507720947Q6.927923373069763,8.795226507720947,6.891533373069763,8.740756507720947Q6.8551433730697635,8.686296507720947,6.824263373069763,8.628526507720947Q6.7933933730697635,8.570756507720947,6.768323373069763,8.510246507720947Q6.743253373069763,8.449726507720948,6.724243373069763,8.387046507720948Q6.705223373069763,8.324366507720947,6.692453373069763,8.260116507720948Q6.679673373069763,8.195876507720946,6.673253373069763,8.130686507720947Q6.666833373069763,8.065506507720947,6.666833373069763,7.999996507720947Q6.666833373069763,7.934496507720947,6.673253373069763,7.869306507720947Q6.679673373069763,7.804126507720947,6.692453373069763,7.739876507720947Q6.705223373069763,7.675636507720947,6.724243373069763,7.612953507720947Q6.743253373069763,7.5502715077209475,6.768323373069763,7.489755507720947Q6.7933933730697635,7.429238507720948,6.824263373069763,7.3714705077209475Q6.8551433730697635,7.313702507720947,6.891533373069763,7.259239507720947Q6.927923373069763,7.204776507720947,6.969483373069763,7.154142507720947Q7.011033373069763,7.103508507720948,7.0573533730697635,7.057190507720947Q7.103673373069763,7.010873507720947,7.154303373069763,6.9693195077209475Q7.204943373069764,6.927764507720947,7.259403373069763,6.891373507720948Q7.313863373069763,6.854982507720948,7.371633373069763,6.824104507720947Q7.429403373069763,6.793227507720947,7.489913373069763,6.768160507720947Q7.5504333730697635,6.743093707720948,7.613113373069763,6.724079407720947Q7.675793373069763,6.705065007720947,7.7400433730697635,6.692286107720947Q7.804283373069763,6.679507207720947,7.869473373069763,6.673086867720947Q7.934663373069763,6.666666507720947,8.000163373069764,6.666666507720947Q8.065663373069764,6.666666507720947,8.130853373069762,6.673086867720947Q8.196043373069763,6.679507207720947,8.260283373069763,6.692286107720947Q8.324523373069763,6.705065007720947,8.387213373069763,6.724079407720947Q8.449893373069763,6.743093707720948,8.510403373069764,6.768160507720947Q8.570923373069764,6.793227507720947,8.628693373069762,6.824104507720947Q8.686463373069763,6.854982507720948,8.740923373069762,6.891373507720948Q8.795383373069763,6.927764507720947,8.846023373069762,6.9693195077209475Q8.896653373069764,7.010873507720947,8.942973373069762,7.057190507720947Q8.989283373069764,7.103508507720948,9.030843373069764,7.154142507720947Q9.072393373069763,7.204776507720947,9.108783373069762,7.259239507720947Q9.145183373069763,7.313702507720947,9.176053373069763,7.3714705077209475Q9.206933373069763,7.429238507720948,9.232003373069762,7.489755507720947Q9.257073373069762,7.5502715077209475,9.276083373069763,7.612953507720947Q9.295093373069763,7.675636507720947,9.307873373069764,7.739876507720947Q9.320653373069764,7.804126507720947,9.327073373069762,7.869306507720947Q9.333493373069762,7.934496507720947,9.333493373069762,7.999996507720947ZM14.666533373069763,7.999996507720947Q14.666533373069763,8.065506507720947,14.660033373069764,8.130686507720947Q14.653633373069763,8.195876507720946,14.640833373069762,8.260116507720948Q14.628133373069764,8.324366507720947,14.609133373069763,8.387046507720948Q14.590033373069764,8.449726507720948,14.565033373069763,8.510246507720947Q14.539933373069763,8.570756507720947,14.509033373069764,8.628526507720947Q14.478233373069763,8.686296507720947,14.441833373069763,8.740756507720947Q14.405433373069764,8.795226507720947,14.363833373069763,8.845856507720947Q14.322333373069764,8.896496507720947,14.275933373069764,8.942806507720947Q14.229633373069763,8.989126507720947,14.179033373069764,9.030676507720948Q14.128433373069763,9.072236507720948,14.073933373069764,9.108626507720947Q14.019433373069763,9.145016507720946,13.961733373069762,9.175896507720948Q13.903933373069764,9.206776507720948,13.843433373069763,9.231836507720947Q13.782933373069763,9.256906507720947,13.720233373069764,9.275916507720947Q13.657533373069763,9.294936507720948,13.593333373069763,9.307716507720947Q13.529033373069764,9.320496507720947,13.463833373069763,9.326916507720947Q13.398633373069764,9.333336507720947,13.333133373069764,9.333336507720947Q13.267633373069764,9.333336507720947,13.202433373069763,9.326916507720947Q13.137333373069763,9.320496507720947,13.073033373069762,9.307716507720947Q13.008833373069763,9.294936507720948,12.946133373069763,9.275916507720947Q12.883433373069764,9.256906507720947,12.822933373069763,9.231836507720947Q12.762433373069763,9.206776507720948,12.704633373069763,9.175896507720948Q12.646833373069763,9.145016507720946,12.592433373069763,9.108626507720947Q12.537933373069762,9.072236507720948,12.487333373069763,9.030676507720948Q12.436633373069764,8.989126507720947,12.390333373069764,8.942806507720947Q12.344033373069763,8.896496507720947,12.302533373069764,8.845856507720947Q12.260933373069763,8.795226507720947,12.224533373069763,8.740756507720947Q12.188133373069762,8.686296507720947,12.157233373069763,8.628526507720947Q12.126433373069764,8.570756507720947,12.101333373069764,8.510246507720947Q12.076233373069764,8.449726507720948,12.057233373069764,8.387046507720948Q12.038233373069763,8.324366507720947,12.025433373069763,8.260116507720948Q12.012633373069763,8.195876507720946,12.006233373069763,8.130686507720947Q11.999833373069762,8.065506507720947,11.999833373069762,7.999996507720947Q11.999833373069762,7.934496507720947,12.006233373069763,7.869306507720947Q12.012633373069763,7.804126507720947,12.025433373069763,7.739876507720947Q12.038233373069763,7.675636507720947,12.057233373069764,7.612953507720947Q12.076233373069764,7.5502715077209475,12.101333373069764,7.489755507720947Q12.126433373069764,7.429238507720948,12.157233373069763,7.3714705077209475Q12.188133373069762,7.313702507720947,12.224533373069763,7.259239507720947Q12.260933373069763,7.204776507720947,12.302533373069764,7.154142507720947Q12.344033373069763,7.103508507720948,12.390333373069764,7.057190507720947Q12.436633373069764,7.010873507720947,12.487333373069763,6.9693195077209475Q12.537933373069762,6.927764507720947,12.592433373069763,6.891373507720948Q12.646833373069763,6.854982507720948,12.704633373069763,6.824104507720947Q12.762433373069763,6.793227507720947,12.822933373069763,6.768160507720947Q12.883433373069764,6.743093707720948,12.946133373069763,6.724079407720947Q13.008833373069763,6.705065007720947,13.073033373069762,6.692286107720947Q13.137333373069763,6.679507207720947,13.202433373069763,6.673086867720947Q13.267633373069764,6.666666507720947,13.333133373069764,6.666666507720947Q13.398633373069764,6.666666507720947,13.463833373069763,6.673086867720947Q13.529033373069764,6.679507207720947,13.593333373069763,6.692286107720947Q13.657533373069763,6.705065007720947,13.720233373069764,6.724079407720947Q13.782933373069763,6.743093707720948,13.843433373069763,6.768160507720947Q13.903933373069764,6.793227507720947,13.961733373069762,6.824104507720947Q14.019433373069763,6.854982507720948,14.073933373069764,6.891373507720948Q14.128433373069763,6.927764507720947,14.179033373069764,6.9693195077209475Q14.229633373069763,7.010873507720947,14.275933373069764,7.057190507720947Q14.322333373069764,7.103508507720948,14.363833373069763,7.154142507720947Q14.405433373069764,7.204776507720947,14.441833373069763,7.259239507720947Q14.478233373069763,7.313702507720947,14.509033373069764,7.3714705077209475Q14.539933373069763,7.429238507720948,14.565033373069763,7.489755507720947Q14.590033373069764,7.5502715077209475,14.609133373069763,7.612953507720947Q14.628133373069764,7.675636507720947,14.640933373069764,7.739876507720947Q14.653633373069763,7.804126507720947,14.660033373069764,7.869306507720947Q14.666533373069763,7.934496507720947,14.666533373069763,7.999996507720947Z"></path></symbol>
<symbol xmlns="http://www.w3.org/2000/svg" viewBox="0 0 16 16" id="more-for-folder"><path d="M4.000003373069763,7.999996507720947Q4.000003373069763,8.065506507720947,3.993583373069763,8.130686507720947Q3.9871633730697633,8.195876507720946,3.974383373069763,8.260116507720948Q3.9616033730697633,8.324366507720947,3.942583373069763,8.387046507720948Q3.9235733730697633,8.449726507720948,3.8985033730697634,8.510246507720947Q3.873443373069763,8.570756507720947,3.8425633730697633,8.628526507720947Q3.811683373069763,8.686296507720947,3.775293373069763,8.740756507720947Q3.738903373069763,8.795226507720947,3.697343373069763,8.845856507720947Q3.655793373069763,8.896496507720947,3.609473373069763,8.942806507720947Q3.5631633730697634,8.989126507720947,3.5125233730697634,9.030676507720948Q3.461893373069763,9.072236507720948,3.407423373069763,9.108626507720947Q3.352963373069763,9.145016507720946,3.295193373069763,9.175896507720948Q3.2374233730697632,9.206776507720948,3.1769133730697634,9.231836507720947Q3.116393373069763,9.256906507720947,3.053713373069763,9.275916507720947Q2.9910333730697634,9.294936507720948,2.926783373069763,9.307716507720947Q2.862543373069763,9.320496507720947,2.7973533730697633,9.326916507720947Q2.732173373069763,9.333336507720947,2.6666633730697633,9.333336507720947Q2.601163373069763,9.333336507720947,2.535973373069763,9.326916507720947Q2.470793373069763,9.320496507720947,2.406543373069763,9.307716507720947Q2.342303373069763,9.294936507720948,2.279620373069763,9.275916507720947Q2.2169383730697634,9.256906507720947,2.156422373069763,9.231836507720947Q2.095905373069763,9.206776507720948,2.0381373730697634,9.175896507720948Q1.9803693730697631,9.145016507720946,1.9259063730697632,9.108626507720947Q1.8714433730697633,9.072236507720948,1.8208093730697632,9.030676507720948Q1.7701753730697631,8.989126507720947,1.7238573730697633,8.942806507720947Q1.6775403730697631,8.896496507720947,1.6359863730697632,8.845856507720947Q1.5944313730697632,8.795226507720947,1.5580403730697632,8.740756507720947Q1.5216493730697631,8.686296507720947,1.4907713730697632,8.628526507720947Q1.459894373069763,8.570756507720947,1.4348273730697632,8.510246507720947Q1.409760573069763,8.449726507720948,1.3907462730697633,8.387046507720948Q1.3717318730697632,8.324366507720947,1.3589529730697631,8.260116507720948Q1.346174073069763,8.195876507720946,1.339753733069763,8.130686507720947Q1.3333333730697632,8.065506507720947,1.3333333730697632,7.999996507720947Q1.3333333730697632,7.934496507720947,1.339753733069763,7.869306507720947Q1.346174073069763,7.804126507720947,1.3589529730697631,7.739876507720947Q1.3717318730697632,7.675636507720947,1.3907462730697633,7.612953507720947Q1.409760573069763,7.5502715077209475,1.4348273730697632,7.489755507720947Q1.459894373069763,7.429238507720948,1.4907713730697632,7.3714705077209475Q1.5216493730697631,7.313702507720947,1.5580403730697632,7.259239507720947Q1.5944313730697632,7.204776507720947,1.6359863730697632,7.154142507720947Q1.6775403730697631,7.103508507720948,1.7238573730697633,7.057190507720947Q1.7701753730697631,7.010873507720947,1.8208093730697632,6.9693195077209475Q1.8714433730697633,6.927764507720947,1.9259063730697632,6.891373507720948Q1.9803693730697631,6.854982507720948,2.0381373730697634,6.824104507720947Q2.095905373069763,6.793227507720947,2.156422373069763,6.768160507720947Q2.2169383730697634,6.743093707720948,2.279620373069763,6.724079407720947Q2.342303373069763,6.705065007720947,2.406543373069763,6.692286107720947Q2.470793373069763,6.679507207720947,2.535973373069763,6.673086867720947Q2.601163373069763,6.666666507720947,2.6666633730697633,6.666666507720947Q2.732173373069763,6.666666507720947,2.7973533730697633,6.673086867720947Q2.862543373069763,6.679507207720947,2.926783373069763,6.692286107720947Q2.9910333730697634,6.705065007720947,3.053713373069763,6.724079407720947Q3.116393373069763,6.743093707720948,3.1769133730697634,6.768160507720947Q3.2374233730697632,6.793227507720947,3.295193373069763,6.824104507720947Q3.352963373069763,6.854982507720948,3.407423373069763,6.891373507720948Q3.461893373069763,6.927764507720947,3.5125233730697634,6.9693195077209475Q3.5631633730697634,7.010873507720947,3.609473373069763,7.057190507720947Q3.655793373069763,7.103508507720948,3.697343373069763,7.154142507720947Q3.738903373069763,7.204776507720947,3.775293373069763,7.259239507720947Q3.811683373069763,7.313702507720947,3.8425633730697633,7.3714705077209475Q3.873443373069763,7.429238507720948,3.8985033730697634,7.489755507720947Q3.9235733730697633,7.5502715077209475,3.942583373069763,7.612953507720947Q3.9616033730697633,7.675636507720947,3.974383373069763,7.739876507720947Q3.9871633730697633,7.804126507720947,3.993583373069763,7.869306507720947Q4.000003373069763,7.934496507720947,4.000003373069763,7.999996507720947ZM9.333253373069763,7.999996507720947Q9.333253373069763,8.065506507720947,9.326833373069764,8.130686507720947Q9.320413373069762,8.195876507720946,9.307633373069763,8.260116507720948Q9.294853373069763,8.324366507720947,9.275843373069764,8.387046507720948Q9.256823373069764,8.449726507720948,9.231753373069763,8.510246507720947Q9.206693373069763,8.570756507720947,9.175813373069763,8.628526507720947Q9.144933373069764,8.686296507720947,9.108543373069764,8.740756507720947Q9.072153373069764,8.795226507720947,9.030603373069763,8.845856507720947Q8.989043373069762,8.896496507720947,8.942723373069764,8.942806507720947Q8.896413373069763,8.989126507720947,8.845773373069763,9.030676507720948Q8.795143373069763,9.072236507720948,8.740683373069764,9.108626507720947Q8.686213373069762,9.145016507720946,8.628443373069764,9.175896507720948Q8.570683373069762,9.206776507720948,8.510163373069762,9.231836507720947Q8.449643373069764,9.256906507720947,8.386963373069763,9.275916507720947Q8.324283373069763,9.294936507720948,8.260043373069763,9.307716507720947Q8.195793373069762,9.320496507720947,8.130613373069764,9.326916507720947Q8.065423373069763,9.333336507720947,7.999923373069763,9.333336507720947Q7.934413373069763,9.333336507720947,7.869233373069763,9.326916507720947Q7.804043373069764,9.320496507720947,7.739793373069763,9.307716507720947Q7.675553373069763,9.294936507720948,7.612873373069763,9.275916507720947Q7.550193373069763,9.256906507720947,7.489673373069763,9.231836507720947Q7.429153373069763,9.206776507720948,7.371393373069763,9.175896507720948Q7.313623373069763,9.145016507720946,7.259153373069763,9.108626507720947Q7.204693373069763,9.072236507720948,7.154063373069763,9.030676507720948Q7.103423373069763,8.989126507720947,7.057113373069763,8.942806507720947Q7.010793373069763,8.896496507720947,6.9692333730697635,8.845856507720947Q6.927683373069764,8.795226507720947,6.891293373069763,8.740756507720947Q6.854903373069763,8.686296507720947,6.824023373069763,8.628526507720947Q6.793143373069763,8.570756507720947,6.768073373069763,8.510246507720947Q6.743013373069763,8.449726507720948,6.723993373069763,8.387046507720948Q6.704983373069763,8.324366507720947,6.692203373069763,8.260116507720948Q6.679423373069763,8.195876507720946,6.673003373069763,8.130686507720947Q6.666583373069763,8.065506507720947,6.666583373069763,7.999996507720947Q6.666583373069763,7.934496507720947,6.673003373069763,7.869306507720947Q6.679423373069763,7.804126507720947,6.692203373069763,7.739876507720947Q6.704983373069763,7.675636507720947,6.723993373069763,7.612953507720947Q6.743013373069763,7.5502715077209475,6.768073373069763,7.489755507720947Q6.793143373069763,7.429238507720948,6.824023373069763,7.3714705077209475Q6.854903373069763,7.313702507720947,6.891293373069763,7.259239507720947Q6.927683373069764,7.204776507720947,6.9692333730697635,7.154142507720947Q7.010793373069763,7.103508507720948,7.057113373069763,7.057190507720947Q7.103423373069763,7.010873507720947,7.154063373069763,6.9693195077209475Q7.204693373069763,6.927764507720947,7.259153373069763,6.891373507720948Q7.313623373069763,6.854982507720948,7.371393373069763,6.824104507720947Q7.429153373069763,6.793227507720947,7.489673373069763,6.768160507720947Q7.550193373069763,6.743093707720948,7.612873373069763,6.724079407720947Q7.675553373069763,6.705065007720947,7.739793373069763,6.692286107720947Q7.804043373069764,6.679507207720947,7.869233373069763,6.673086867720947Q7.934413373069763,6.666666507720947,7.999923373069763,6.666666507720947Q8.065423373069763,6.666666507720947,8.130613373069764,6.673086867720947Q8.195793373069762,6.679507207720947,8.260043373069763,6.692286107720947Q8.324283373069763,6.705065007720947,8.386963373069763,6.724079407720947Q8.449643373069764,6.743093707720948,8.510163373069762,6.768160507720947Q8.570683373069762,6.793227507720947,8.628443373069764,6.824104507720947Q8.686213373069762,6.854982507720948,8.740683373069764,6.891373507720948Q8.795143373069763,6.927764507720947,8.845773373069763,6.9693195077209475Q8.896413373069763,7.010873507720947,8.942723373069764,7.057190507720947Q8.989043373069762,7.103508507720948,9.030603373069763,7.154142507720947Q9.072153373069764,7.204776507720947,9.108543373069764,7.259239507720947Q9.144933373069764,7.313702507720947,9.175813373069763,7.3714705077209475Q9.206693373069763,7.429238507720948,9.231753373069763,7.489755507720947Q9.256823373069764,7.5502715077209475,9.275843373069764,7.612953507720947Q9.294853373069763,7.675636507720947,9.307633373069763,7.739876507720947Q9.320413373069762,7.804126507720947,9.326833373069764,7.869306507720947Q9.333253373069763,7.934496507720947,9.333253373069763,7.999996507720947ZM14.666733373069762,7.999996507720947Q14.666733373069762,8.065506507720947,14.660333373069763,8.130686507720947Q14.653933373069764,8.195876507720946,14.641133373069763,8.260116507720948Q14.628333373069763,8.324366507720947,14.609333373069763,8.387046507720948Q14.590333373069763,8.449726507720948,14.565233373069763,8.510246507720947Q14.540233373069762,8.570756507720947,14.509333373069763,8.628526507720947Q14.478433373069763,8.686296507720947,14.442033373069764,8.740756507720947Q14.405633373069763,8.795226507720947,14.364133373069762,8.845856507720947Q14.322533373069763,8.896496507720947,14.276233373069763,8.942806507720947Q14.229933373069763,8.989126507720947,14.179233373069764,9.030676507720948Q14.128633373069762,9.072236507720948,14.074133373069763,9.108626507720947Q14.019733373069764,9.145016507720946,13.961933373069764,9.175896507720948Q13.904133373069763,9.206776507720948,13.843633373069764,9.231836507720947Q13.783133373069763,9.256906507720947,13.720433373069763,9.275916507720947Q13.657733373069764,9.294936507720948,13.593533373069763,9.307716507720947Q13.529333373069763,9.320496507720947,13.464133373069764,9.326916507720947Q13.398933373069763,9.333336507720947,13.333433373069763,9.333336507720947Q13.267933373069763,9.333336507720947,13.202733373069764,9.326916507720947Q13.137533373069763,9.320496507720947,13.073333373069763,9.307716507720947Q13.009033373069764,9.294936507720948,12.946333373069763,9.275916507720947Q12.883733373069763,9.256906507720947,12.823133373069764,9.231836507720947Q12.762633373069763,9.206776507720948,12.704933373069764,9.175896507720948Q12.647133373069764,9.145016507720946,12.592633373069763,9.108626507720947Q12.538233373069763,9.072236507720948,12.487533373069763,9.030676507720948Q12.436933373069763,8.989126507720947,12.390633373069763,8.942806507720947Q12.344333373069762,8.896496507720947,12.302733373069763,8.845856507720947Q12.261133373069763,8.795226507720947,12.224833373069764,8.740756507720947Q12.188433373069763,8.686296507720947,12.157533373069763,8.628526507720947Q12.126633373069764,8.570756507720947,12.101533373069763,8.510246507720947Q12.076533373069763,8.449726507720948,12.057533373069763,8.387046507720948Q12.038433373069763,8.324366507720947,12.025733373069762,8.260116507720948Q12.012933373069764,8.195876507720946,12.006533373069763,8.130686507720947Q12.000033373069764,8.065506507720947,12.000033373069764,7.999996507720947Q12.000033373069764,7.934496507720947,12.006533373069763,7.869306507720947Q12.012933373069764,7.804126507720947,12.025733373069762,7.739876507720947Q12.038433373069763,7.675636507720947,12.057533373069763,7.612953507720947Q12.076533373069763,7.5502715077209475,12.101533373069763,7.489755507720947Q12.126633373069764,7.429238507720948,12.157533373069763,7.3714705077209475Q12.188433373069763,7.313702507720947,12.224833373069764,7.259239507720947Q12.261133373069763,7.204776507720947,12.302733373069763,7.154142507720947Q12.344333373069762,7.103508507720948,12.390633373069763,7.057190507720947Q12.436933373069763,7.010873507720947,12.487533373069763,6.9693195077209475Q12.538233373069763,6.927764507720947,12.592633373069763,6.891373507720948Q12.647133373069764,6.854982507720948,12.704933373069764,6.824104507720947Q12.762633373069763,6.793227507720947,12.823133373069764,6.768160507720947Q12.883733373069763,6.743093707720948,12.946333373069763,6.724079407720947Q13.009033373069764,6.705065007720947,13.073333373069763,6.692286107720947Q13.137533373069763,6.679507207720947,13.202733373069764,6.673086867720947Q13.267933373069763,6.666666507720947,13.333433373069763,6.666666507720947Q13.398933373069763,6.666666507720947,13.464133373069764,6.673086867720947Q13.529333373069763,6.679507207720947,13.593533373069763,6.692286107720947Q13.657733373069764,6.705065007720947,13.720433373069763,6.724079407720947Q13.783133373069763,6.743093707720948,13.843633373069764,6.768160507720947Q13.904133373069763,6.793227507720947,13.961933373069764,6.824104507720947Q14.019733373069764,6.854982507720948,14.074133373069763,6.891373507720948Q14.128633373069762,6.927764507720947,14.179233373069764,6.9693195077209475Q14.229933373069763,7.010873507720947,14.276233373069763,7.057190507720947Q14.322533373069763,7.103508507720948,14.364133373069762,7.154142507720947Q14.405633373069763,7.204776507720947,14.442033373069764,7.259239507720947Q14.478433373069763,7.313702507720947,14.509333373069763,7.3714705077209475Q14.540233373069762,7.429238507720948,14.565233373069763,7.489755507720947Q14.590333373069763,7.5502715077209475,14.609333373069763,7.612953507720947Q14.628333373069763,7.675636507720947,14.641133373069763,7.739876507720947Q14.653933373069764,7.804126507720947,14.660333373069763,7.869306507720947Q14.666733373069762,7.934496507720947,14.666733373069762,7.999996507720947Z"></path></symbol>
<symbol xmlns="http://www.w3.org/2000/svg" viewBox="0 0 24 24" id="more-for-task"><style>#more-for-task .st0{fill-rule:evenodd;clip-rule:evenodd}</style><path id="more-for-task_more-copy-2" class="st0" d="M7.5,12c0,1-0.8,1.8-1.8,1.8C4.8,13.8,4,13,4,12s0.8-1.8,1.8-1.8C6.7,10.2,7.5,11,7.5,12 L7.5,12z"></path><path id="more-for-task_more-copy-3" class="st0" d="M20,12c0,1-0.8,1.8-1.8,1.8c-1,0-1.8-0.8-1.8-1.8s0.8-1.8,1.8-1.8C19.2,10.2,20,11,20,12 L20,12z"></path><path id="more-for-task_more-copy-4" class="st0" d="M13.8,12c0,1-0.8,1.8-1.8,1.8c-1,0-1.8-0.8-1.8-1.8s0.8-1.8,1.8-1.8C13,10.2,13.8,11,13.8,12 L13.8,12z"></path></symbol>
<symbol xmlns="http://www.w3.org/2000/svg" viewBox="0 0 24 24" id="more-for-team"><style>#more-for-team .st0{fill-rule:evenodd;clip-rule:evenodd}</style><g transform="translate(-1121 -519)" id="more-for-team_web"><g id="more-for-team_Group-12-Copy-5" transform="translate(1121 519)"><g id="more-for-team_Group-13" transform="translate(5 11)"><circle id="more-for-team_Oval-3" class="st0" cx="1" cy="1" r="1"></circle><circle id="more-for-team_Oval-3-Copy" class="st0" cx="7" cy="1" r="1"></circle><circle id="more-for-team_Oval-3-Copy-2" class="st0" cx="13" cy="1" r="1"></circle></g></g></g></symbol>
<symbol xmlns="http://www.w3.org/2000/svg" viewBox="0 0 24 24" id="more-sidebar"><g fill-rule="evenodd"><path fill="none" d="M0 0H24V24H0z"></path><path d="M4,10 C5.1045695,10 6,10.8954305 6,12 C6,13.1045695 5.1045695,14 4,14 C2.8954305,14 2,13.1045695 2,12 C2,10.8954305 2.8954305,10 4,10 Z M12,10 C13.1045695,10 14,10.8954305 14,12 C14,13.1045695 13.1045695,14 12,14 C10.8954305,14 10,13.1045695 10,12 C10,10.8954305 10.8954305,10 12,10 Z M20,10 C21.1045695,10 22,10.8954305 22,12 C22,13.1045695 21.1045695,14 20,14 C18.8954305,14 18,13.1045695 18,12 C18,10.8954305 18.8954305,10 20,10 Z"></path></g></symbol>
<symbol xmlns="http://www.w3.org/2000/svg" viewBox="0 0 16 16" id="more-titlebar"><path d="M4.000003373069763,7.999996507720947Q4.000003373069763,8.065506507720947,3.993583373069763,8.130686507720947Q3.9871633730697633,8.195876507720946,3.974383373069763,8.260116507720948Q3.9616033730697633,8.324366507720947,3.942583373069763,8.387046507720948Q3.9235733730697633,8.449726507720948,3.8985033730697634,8.510246507720947Q3.873443373069763,8.570756507720947,3.8425633730697633,8.628526507720947Q3.811683373069763,8.686296507720947,3.775293373069763,8.740756507720947Q3.738903373069763,8.795226507720947,3.697343373069763,8.845856507720947Q3.655793373069763,8.896496507720947,3.609473373069763,8.942806507720947Q3.5631633730697634,8.989126507720947,3.5125233730697634,9.030676507720948Q3.461893373069763,9.072236507720948,3.407423373069763,9.108626507720947Q3.352963373069763,9.145016507720946,3.295193373069763,9.175896507720948Q3.2374233730697632,9.206776507720948,3.1769133730697634,9.231836507720947Q3.116393373069763,9.256906507720947,3.053713373069763,9.275916507720947Q2.9910333730697634,9.294936507720948,2.926783373069763,9.307716507720947Q2.862543373069763,9.320496507720947,2.7973533730697633,9.326916507720947Q2.732173373069763,9.333336507720947,2.6666633730697633,9.333336507720947Q2.601163373069763,9.333336507720947,2.535973373069763,9.326916507720947Q2.470793373069763,9.320496507720947,2.406543373069763,9.307716507720947Q2.342303373069763,9.294936507720948,2.279620373069763,9.275916507720947Q2.2169383730697634,9.256906507720947,2.156422373069763,9.231836507720947Q2.095905373069763,9.206776507720948,2.0381373730697634,9.175896507720948Q1.9803693730697631,9.145016507720946,1.9259063730697632,9.108626507720947Q1.8714433730697633,9.072236507720948,1.8208093730697632,9.030676507720948Q1.7701753730697631,8.989126507720947,1.7238573730697633,8.942806507720947Q1.6775403730697631,8.896496507720947,1.6359863730697632,8.845856507720947Q1.5944313730697632,8.795226507720947,1.5580403730697632,8.740756507720947Q1.5216493730697631,8.686296507720947,1.4907713730697632,8.628526507720947Q1.459894373069763,8.570756507720947,1.4348273730697632,8.510246507720947Q1.409760573069763,8.449726507720948,1.3907462730697633,8.387046507720948Q1.3717318730697632,8.324366507720947,1.3589529730697631,8.260116507720948Q1.346174073069763,8.195876507720946,1.339753733069763,8.130686507720947Q1.3333333730697632,8.065506507720947,1.3333333730697632,7.999996507720947Q1.3333333730697632,7.934496507720947,1.339753733069763,7.869306507720947Q1.346174073069763,7.804126507720947,1.3589529730697631,7.739876507720947Q1.3717318730697632,7.675636507720947,1.3907462730697633,7.612953507720947Q1.409760573069763,7.5502715077209475,1.4348273730697632,7.489755507720947Q1.459894373069763,7.429238507720948,1.4907713730697632,7.3714705077209475Q1.5216493730697631,7.313702507720947,1.5580403730697632,7.259239507720947Q1.5944313730697632,7.204776507720947,1.6359863730697632,7.154142507720947Q1.6775403730697631,7.103508507720948,1.7238573730697633,7.057190507720947Q1.7701753730697631,7.010873507720947,1.8208093730697632,6.9693195077209475Q1.8714433730697633,6.927764507720947,1.9259063730697632,6.891373507720948Q1.9803693730697631,6.854982507720948,2.0381373730697634,6.824104507720947Q2.095905373069763,6.793227507720947,2.156422373069763,6.768160507720947Q2.2169383730697634,6.743093707720948,2.279620373069763,6.724079407720947Q2.342303373069763,6.705065007720947,2.406543373069763,6.692286107720947Q2.470793373069763,6.679507207720947,2.535973373069763,6.673086867720947Q2.601163373069763,6.666666507720947,2.6666633730697633,6.666666507720947Q2.732173373069763,6.666666507720947,2.7973533730697633,6.673086867720947Q2.862543373069763,6.679507207720947,2.926783373069763,6.692286107720947Q2.9910333730697634,6.705065007720947,3.053713373069763,6.724079407720947Q3.116393373069763,6.743093707720948,3.1769133730697634,6.768160507720947Q3.2374233730697632,6.793227507720947,3.295193373069763,6.824104507720947Q3.352963373069763,6.854982507720948,3.407423373069763,6.891373507720948Q3.461893373069763,6.927764507720947,3.5125233730697634,6.9693195077209475Q3.5631633730697634,7.010873507720947,3.609473373069763,7.057190507720947Q3.655793373069763,7.103508507720948,3.697343373069763,7.154142507720947Q3.738903373069763,7.204776507720947,3.775293373069763,7.259239507720947Q3.811683373069763,7.313702507720947,3.8425633730697633,7.3714705077209475Q3.873443373069763,7.429238507720948,3.8985033730697634,7.489755507720947Q3.9235733730697633,7.5502715077209475,3.942583373069763,7.612953507720947Q3.9616033730697633,7.675636507720947,3.974383373069763,7.739876507720947Q3.9871633730697633,7.804126507720947,3.993583373069763,7.869306507720947Q4.000003373069763,7.934496507720947,4.000003373069763,7.999996507720947ZM9.333373373069763,7.999996507720947Q9.333373373069763,8.065506507720947,9.326953373069763,8.130686507720947Q9.320533373069763,8.195876507720946,9.307753373069763,8.260116507720948Q9.294973373069762,8.324366507720947,9.275963373069764,8.387046507720948Q9.256943373069763,8.449726507720948,9.231883373069763,8.510246507720947Q9.206813373069764,8.570756507720947,9.175933373069764,8.628526507720947Q9.145053373069764,8.686296507720947,9.108663373069763,8.740756507720947Q9.072273373069763,8.795226507720947,9.030723373069764,8.845856507720947Q8.989163373069763,8.896496507720947,8.942853373069763,8.942806507720947Q8.896533373069763,8.989126507720947,8.845903373069763,9.030676507720948Q8.795263373069762,9.072236507720948,8.740803373069763,9.108626507720947Q8.686333373069763,9.145016507720946,8.628573373069763,9.175896507720948Q8.570803373069763,9.206776507720948,8.510283373069763,9.231836507720947Q8.449773373069764,9.256906507720947,8.387083373069764,9.275916507720947Q8.324403373069764,9.294936507720948,8.260163373069762,9.307716507720947Q8.195913373069764,9.320496507720947,8.130733373069763,9.326916507720947Q8.065543373069763,9.333336507720947,8.000043373069763,9.333336507720947Q7.934543373069763,9.333336507720947,7.869353373069763,9.326916507720947Q7.8041633730697635,9.320496507720947,7.739923373069763,9.307716507720947Q7.675673373069763,9.294936507720948,7.612993373069763,9.275916507720947Q7.550313373069764,9.256906507720947,7.489793373069763,9.231836507720947Q7.429283373069763,9.206776507720948,7.371513373069763,9.175896507720948Q7.313743373069763,9.145016507720946,7.2592833730697635,9.108626507720947Q7.204813373069763,9.072236507720948,7.154183373069763,9.030676507720948Q7.103553373069763,8.989126507720947,7.057233373069764,8.942806507720947Q7.010913373069763,8.896496507720947,6.969363373069763,8.845856507720947Q6.9278033730697635,8.795226507720947,6.8914133730697635,8.740756507720947Q6.855023373069764,8.686296507720947,6.824143373069763,8.628526507720947Q6.793263373069763,8.570756507720947,6.768203373069763,8.510246507720947Q6.743133373069763,8.449726507720948,6.724123373069763,8.387046507720948Q6.705103373069763,8.324366507720947,6.6923233730697635,8.260116507720948Q6.679543373069763,8.195876507720946,6.673123373069763,8.130686507720947Q6.666703373069764,8.065506507720947,6.666703373069764,7.999996507720947Q6.666703373069764,7.934496507720947,6.673123373069763,7.869306507720947Q6.679543373069763,7.804126507720947,6.6923233730697635,7.739876507720947Q6.705103373069763,7.675636507720947,6.724123373069763,7.612953507720947Q6.743133373069763,7.5502715077209475,6.768203373069763,7.489755507720947Q6.793263373069763,7.429238507720948,6.824143373069763,7.3714705077209475Q6.855023373069764,7.313702507720947,6.8914133730697635,7.259239507720947Q6.9278033730697635,7.204776507720947,6.969363373069763,7.154142507720947Q7.010913373069763,7.103508507720948,7.057233373069764,7.057190507720947Q7.103553373069763,7.010873507720947,7.154183373069763,6.9693195077209475Q7.204813373069763,6.927764507720947,7.2592833730697635,6.891373507720948Q7.313743373069763,6.854982507720948,7.371513373069763,6.824104507720947Q7.429283373069763,6.793227507720947,7.489793373069763,6.768160507720947Q7.550313373069764,6.743093707720948,7.612993373069763,6.724079407720947Q7.675673373069763,6.705065007720947,7.739923373069763,6.692286107720947Q7.8041633730697635,6.679507207720947,7.869353373069763,6.673086867720947Q7.934543373069763,6.666666507720947,8.000043373069763,6.666666507720947Q8.065543373069763,6.666666507720947,8.130733373069763,6.673086867720947Q8.195913373069764,6.679507207720947,8.260163373069762,6.692286107720947Q8.324403373069764,6.705065007720947,8.387083373069764,6.724079407720947Q8.449773373069764,6.743093707720948,8.510283373069763,6.768160507720947Q8.570803373069763,6.793227507720947,8.628573373069763,6.824104507720947Q8.686333373069763,6.854982507720948,8.740803373069763,6.891373507720948Q8.795263373069762,6.927764507720947,8.845903373069763,6.9693195077209475Q8.896533373069763,7.010873507720947,8.942853373069763,7.057190507720947Q8.989163373069763,7.103508507720948,9.030723373069764,7.154142507720947Q9.072273373069763,7.204776507720947,9.108663373069763,7.259239507720947Q9.145053373069764,7.313702507720947,9.175933373069764,7.3714705077209475Q9.206813373069764,7.429238507720948,9.231883373069763,7.489755507720947Q9.256943373069763,7.5502715077209475,9.275963373069764,7.612953507720947Q9.294973373069762,7.675636507720947,9.307753373069763,7.739876507720947Q9.320533373069763,7.804126507720947,9.326953373069763,7.869306507720947Q9.333373373069763,7.934496507720947,9.333373373069763,7.999996507720947ZM14.666633373069763,7.999996507720947Q14.666633373069763,8.065506507720947,14.660233373069763,8.130686507720947Q14.653833373069762,8.195876507720946,14.641033373069764,8.260116507720948Q14.628233373069763,8.324366507720947,14.609233373069763,8.387046507720948Q14.590233373069763,8.449726507720948,14.565133373069763,8.510246507720947Q14.540033373069763,8.570756507720947,14.509233373069764,8.628526507720947Q14.478333373069763,8.686296507720947,14.441933373069762,8.740756507720947Q14.405533373069764,8.795226507720947,14.363933373069763,8.845856507720947Q14.322433373069764,8.896496507720947,14.276133373069763,8.942806507720947Q14.229833373069763,8.989126507720947,14.179133373069764,9.030676507720948Q14.128533373069763,9.072236507720948,14.074033373069764,9.108626507720947Q14.019633373069762,9.145016507720946,13.961833373069764,9.175896507720948Q13.904033373069764,9.206776507720948,13.843533373069763,9.231836507720947Q13.783033373069763,9.256906507720947,13.720333373069764,9.275916507720947Q13.657633373069762,9.294936507720948,13.593433373069763,9.307716507720947Q13.529133373069763,9.320496507720947,13.463933373069763,9.326916507720947Q13.398833373069763,9.333336507720947,13.333333373069763,9.333336507720947Q13.267833373069763,9.333336507720947,13.202633373069764,9.326916507720947Q13.137433373069763,9.320496507720947,13.073133373069764,9.307716507720947Q13.008933373069762,9.294936507720948,12.946233373069763,9.275916507720947Q12.883533373069763,9.256906507720947,12.823033373069762,9.231836507720947Q12.762533373069763,9.206776507720948,12.704733373069763,9.175896507720948Q12.647033373069764,9.145016507720946,12.592533373069763,9.108626507720947Q12.538033373069764,9.072236507720948,12.487433373069763,9.030676507720948Q12.436833373069764,8.989126507720947,12.390433373069763,8.942806507720947Q12.344133373069763,8.896496507720947,12.302633373069764,8.845856507720947Q12.261033373069763,8.795226507720947,12.224633373069762,8.740756507720947Q12.188233373069764,8.686296507720947,12.157433373069763,8.628526507720947Q12.126533373069764,8.570756507720947,12.101433373069764,8.510246507720947Q12.076433373069763,8.449726507720948,12.057333373069763,8.387046507720948Q12.038333373069763,8.324366507720947,12.025533373069763,8.260116507720948Q12.012833373069764,8.195876507720946,12.006333373069763,8.130686507720947Q11.999933373069764,8.065506507720947,11.999933373069764,7.999996507720947Q11.999933373069764,7.934496507720947,12.006333373069763,7.869306507720947Q12.012833373069764,7.804126507720947,12.025533373069763,7.739876507720947Q12.038333373069763,7.675636507720947,12.057333373069763,7.612953507720947Q12.076433373069763,7.5502715077209475,12.101433373069764,7.489755507720947Q12.126533373069764,7.429238507720948,12.157433373069763,7.3714705077209475Q12.188233373069764,7.313702507720947,12.224633373069762,7.259239507720947Q12.261033373069763,7.204776507720947,12.302633373069764,7.154142507720947Q12.344133373069763,7.103508507720948,12.390433373069763,7.057190507720947Q12.436833373069764,7.010873507720947,12.487433373069763,6.9693195077209475Q12.538033373069764,6.927764507720947,12.592533373069763,6.891373507720948Q12.647033373069764,6.854982507720948,12.704733373069763,6.824104507720947Q12.762533373069763,6.793227507720947,12.823033373069762,6.768160507720947Q12.883533373069763,6.743093707720948,12.946233373069763,6.724079407720947Q13.008933373069762,6.705065007720947,13.073133373069764,6.692286107720947Q13.137433373069763,6.679507207720947,13.202633373069764,6.673086867720947Q13.267833373069763,6.666666507720947,13.333333373069763,6.666666507720947Q13.398833373069763,6.666666507720947,13.463933373069763,6.673086867720947Q13.529133373069763,6.679507207720947,13.593433373069763,6.692286107720947Q13.657633373069762,6.705065007720947,13.720333373069764,6.724079407720947Q13.783033373069763,6.743093707720948,13.843533373069763,6.768160507720947Q13.904033373069764,6.793227507720947,13.961833373069764,6.824104507720947Q14.019633373069762,6.854982507720948,14.074033373069764,6.891373507720948Q14.128533373069763,6.927764507720947,14.179133373069764,6.9693195077209475Q14.229833373069763,7.010873507720947,14.276133373069763,7.057190507720947Q14.322433373069764,7.103508507720948,14.363933373069763,7.154142507720947Q14.405533373069764,7.204776507720947,14.441933373069762,7.259239507720947Q14.478333373069763,7.313702507720947,14.509233373069764,7.3714705077209475Q14.540033373069763,7.429238507720948,14.565133373069763,7.489755507720947Q14.590233373069763,7.5502715077209475,14.609233373069763,7.612953507720947Q14.628233373069763,7.675636507720947,14.641033373069764,7.739876507720947Q14.653833373069762,7.804126507720947,14.660233373069763,7.869306507720947Q14.666633373069763,7.934496507720947,14.666633373069763,7.999996507720947Z"></path></symbol>
<symbol xmlns="http://www.w3.org/2000/svg" viewBox="0 0 24 24" id="more"><style>#more .st0{fill-rule:evenodd;clip-rule:evenodd}</style><path id="more_more-copy-2" class="st0" d="M7.5,12c0,1-0.8,1.8-1.8,1.8C4.8,13.8,4,13,4,12s0.8-1.8,1.8-1.8C6.7,10.2,7.5,11,7.5,12 L7.5,12z"></path><path id="more_more-copy-3" class="st0" d="M20,12c0,1-0.8,1.8-1.8,1.8c-1,0-1.8-0.8-1.8-1.8s0.8-1.8,1.8-1.8C19.2,10.2,20,11,20,12 L20,12z"></path><path id="more_more-copy-4" class="st0" d="M13.8,12c0,1-0.8,1.8-1.8,1.8c-1,0-1.8-0.8-1.8-1.8s0.8-1.8,1.8-1.8C13,10.2,13.8,11,13.8,12 L13.8,12z"></path></symbol>
</svg>