<svg xmlns="http://www.w3.org/2000/svg" xmlns:xlink="http://www.w3.org/1999/xlink" style="position: absolute; width: 0; height: 0" aria-hidden="true" id="__SVG_SPRITE_NODE__">
<symbol xmlns="http://www.w3.org/2000/svg" viewBox="0 0 48 48" id="multi-checkbox"><g fill-rule="evenodd"><path fill="none" d="M0 0H48V48H0z"></path><path d="M37,8 C38.6568542,8 40,9.34314575 40,11 L40,37 C40,38.6568542 38.6568542,40 37,40 L11,40 C9.34314575,40 8,38.6568542 8,37 L8,11 C8,9.34314575 9.34314575,8 11,8 L37,8 Z M35.1428571,12 L12.8571429,12 C12.4363545,12 12.0863857,12.3032146 12.0138097,12.7030703 L12,12.8571429 L12,35.1428571 C12,35.5636455 12.3032146,35.9136143 12.7030703,35.9861903 L12.8571429,36 L35.1428571,36 C35.5636455,36 35.9136143,35.6967854 35.9861903,35.2969297 L36,35.1428571 L36,12.8571429 C36,12.4363545 35.6967854,12.0863857 35.2969297,12.0138097 L35.1428571,12 Z"></path></g></symbol>
<symbol xmlns="http://www.w3.org/2000/svg" viewBox="0 0 24 24" id="multi-completed"><path d="M1.5,5.5L1.5,18.5C1.5,20.7091,3.29086,22.5,5.5,22.5L18.5,22.5C20.7091,22.5,22.5,20.7091,22.5,18.5L22.5,5.5C22.5,3.29086,20.7091,1.5,18.5,1.5L5.5,1.5C3.29086,1.5,1.5,3.29086,1.5,5.5ZM4.08582,19.9141Q3.5,19.3284,3.5,18.5L3.5,5.5Q3.5,4.67157,4.085789999999999,4.085789999999999Q4.67157,3.5,5.5,3.5L18.5,3.5Q19.3284,3.50015,19.9142,4.08594Q20.5,4.67157,20.5,5.5L20.5,18.5Q20.5,19.3283,19.9142,19.9141Q19.3284,20.5,18.5,20.5L5.5,20.5Q4.6716,20.4998,4.08582,19.9141ZM17.2071,9.70711C17.3946,9.51957,17.5,9.26522,17.5,9C17.5,8.44772,17.052300000000002,8,16.5,8C16.2348,8,15.9804,8.105360000000001,15.7925,8.29327L10.5,13.5858L8.20711,11.29289C8.01957,11.10536,7.76522,11,7.5,11C6.94772,11,6.5,11.44772,6.5,12C6.5,12.2652,6.60536,12.5196,6.79289,12.7071L9.79289,15.7071C9.98043,15.8946,10.23478,16,10.5,16C10.76522,16,11.01957,15.8946,11.20711,15.7071L17.2071,9.70711Z" fill-rule="evenodd"></path></symbol>
</svg>