<svg xmlns="http://www.w3.org/2000/svg" xmlns:xlink="http://www.w3.org/1999/xlink" style="position: absolute; width: 0; height: 0" aria-hidden="true" id="__SVG_SPRITE_NODE__">
<symbol xmlns="http://www.w3.org/2000/svg" viewBox="0 0 24 24" id="ndays-later"><path d="M16.8,5.6c1.1,0,1.5,0.1,1.9,0.3c0.4,0.2,0.7,0.5,0.9,0.9S20,7.7,20,8.8v8c0,1.1-0.1,1.5-0.3,1.9 c-0.2,0.4-0.5,0.7-0.9,0.9c-0.4,0.2-0.8,0.3-1.9,0.3H7.2c-1.1,0-1.5-0.1-1.9-0.3c-0.4-0.2-0.7-0.5-0.9-0.9C4.1,18.3,4,17.9,4,16.8 v-8c0-1.1,0.1-1.5,0.3-1.9c0.2-0.4,0.5-0.7,0.9-0.9c0.4-0.2,0.8-0.3,1.9-0.3H6.4V4c0-0.4,0.4-0.8,0.8-0.8S8,3.6,8,4v1.6h8V4 c0-0.4,0.4-0.8,0.8-0.8s0.8,0.4,0.8,0.8v1.6H16.8z M9.5,14.1h1.6v-1.5H9.5v-1.7H8v1.7H6.4v1.5H8v1.7h1.5V14.1z M13.9,12.7l2.3,3.2 h1.4V9.7h-1.6v3.2l-2.3-3.2h-1.4v6.1h1.6V12.7z" fill-rule="evenodd" clip-rule="evenodd"></path></symbol>
</svg>