<svg xmlns="http://www.w3.org/2000/svg" xmlns:xlink="http://www.w3.org/1999/xlink" style="position: absolute; width: 0; height: 0" aria-hidden="true" id="__SVG_SPRITE_NODE__">
<symbol xmlns="http://www.w3.org/2000/svg" viewBox="0 0 48 48" id="new-add"><path d="M25,8 C25.5522847,8 26,8.44771525 26,9 L26,21.998 L39,22 C39.5522847,22 40,22.4477153 40,23 L40,25 C40,25.5522847 39.5522847,26 39,26 L26,25.998 L26,39 C26,39.5522847 25.5522847,40 25,40 L23,40 C22.4477153,40 22,39.5522847 22,39 L22,25.998 L9,26 C8.44771525,26 8,25.5522847 8,25 L8,23 C8,22.4477153 8.44771525,22 9,22 L22,21.998 L22,9 C22,8.44771525 22.4477153,8 23,8 L25,8 Z" fill-rule="evenodd"></path></symbol>
<symbol xmlns="http://www.w3.org/2000/svg" viewBox="0 0 48 48" id="new-close"><path d="M13.1819805,10.3535534 L24.142,21.314 L35.1022907,10.3535534 C35.2758571,10.179987 35.5452815,10.1607019 35.7401496,10.2956979 L35.8093975,10.3535534 L37.9307179,12.4748737 C38.12598,12.6701359 38.12598,12.9867184 37.9307179,13.1819805 L37.9307179,13.1819805 L26.97,24.142 L37.9307179,35.1022907 C38.12598,35.2975529 38.12598,35.6141354 37.9307179,35.8093975 L35.8093975,37.9307179 C35.6141354,38.12598 35.2975529,38.12598 35.1022907,37.9307179 L24.142,26.97 L13.1819805,37.9307179 C13.0084142,38.1042842 12.7389898,38.1235694 12.5441216,37.9885733 L12.4748737,37.9307179 L10.3535534,35.8093975 C10.1582912,35.6141354 10.1582912,35.2975529 10.3535534,35.1022907 L10.3535534,35.1022907 L21.314,24.142 L10.3535534,13.1819805 C10.1582912,12.9867184 10.1582912,12.6701359 10.3535534,12.4748737 L12.4748737,10.3535534 C12.6701359,10.1582912 12.9867184,10.1582912 13.1819805,10.3535534 Z" fill-rule="evenodd"></path></symbol>
</svg>