<svg xmlns="http://www.w3.org/2000/svg" xmlns:xlink="http://www.w3.org/1999/xlink" style="position: absolute; width: 0; height: 0" aria-hidden="true" id="__SVG_SPRITE_NODE__">
<symbol xmlns="http://www.w3.org/2000/svg" viewBox="0 0 24 24" id="no_color"><path d="M17.84,7.725c-0.3-0.3-0.749-0.375-1.049-0.075c0,0-10.491,9-10.566,9.075c-0.3,0.3-0.3,0.75,0,1.05 c0.3,0.3,0.749,0.3,1.049,0L8.773,16.5c0.749,0.975,1.948,1.5,3.222,1.5c2.473,0,4.496-2.025,4.496-4.5 c0-0.9-0.375-1.875-0.899-2.85l2.173-1.875C18.065,8.55,18.065,8.1,17.84,7.725z M7.499,13.65V13.5c0-3,4.496-7.5,4.496-7.5 s0.899,0.9,1.873,2.175L7.499,13.65z"></path></symbol>
</svg>