<svg xmlns="http://www.w3.org/2000/svg" xmlns:xlink="http://www.w3.org/1999/xlink" style="position: absolute; width: 0; height: 0" aria-hidden="true" id="__SVG_SPRITE_NODE__">
<symbol xmlns="http://www.w3.org/2000/svg" viewBox="0 0 24 24" id="note-info"><path d="M12,23C18.0751,23,23,18.0751,23,12C23,5.92487,18.0751,1,12,1C5.92487,1,1,5.92487,1,12C1,18.0751,5.92487,23,12,23ZM20.3681,8.687149999999999Q21,10.28331,21,12Q21,13.7167,20.3681,15.3129Q19.682,17.0459,18.364,18.364Q17.0459,19.682,15.3129,20.3681Q13.7167,21,12,21Q10.28331,21,8.687149999999999,20.3681Q6.95406,19.682,5.63604,18.364Q4.318020000000001,17.0459,3.63191,15.3129Q3,13.7167,3,12Q3,10.28331,3.63191,8.687149999999999Q4.318020000000001,6.95406,5.63604,5.63604Q6.95406,4.318020000000001,8.687149999999999,3.63191Q10.28331,3,12,3Q13.7167,3,15.3129,3.63191Q17.0459,4.318020000000001,18.364,5.63604Q19.682,6.95406,20.3681,8.687149999999999ZM11.998,8.75Q12.0595,8.75,12.1206,8.74398Q12.1817,8.737960000000001,12.2419,8.72598Q12.3021,8.714,12.3609,8.69618Q12.4197,8.67835,12.4764,8.65485Q12.5331,8.631350000000001,12.5873,8.6024Q12.6414,8.573450000000001,12.6925,8.53934Q12.7436,8.50522,12.791,8.46626Q12.8385,8.42731,12.8819,8.383880000000001Q12.9254,8.34046,12.9643,8.29299Q13.0033,8.245519999999999,13.0374,8.19446Q13.0715,8.1434,13.1004,8.08925Q13.1294,8.03509,13.1529,7.97835Q13.1764,7.92162,13.1942,7.86286Q13.212,7.80409,13.224,7.74386Q13.236,7.68363,13.242,7.62252Q13.248,7.56141,13.248,7.5Q13.248,7.43859,13.242,7.37748Q13.236,7.31637,13.224,7.25614Q13.212,7.19591,13.1942,7.13714Q13.1764,7.07838,13.1529,7.02165Q13.1294,6.96491,13.1004,6.91075Q13.0715,6.8566,13.0374,6.80554Q13.0033,6.75448,12.9643,6.70701Q12.9254,6.65954,12.8819,6.61612Q12.8385,6.57269,12.791,6.53374Q12.7436,6.49478,12.6925,6.46066Q12.6414,6.42655,12.5873,6.3976Q12.5331,6.36865,12.4764,6.34515Q12.4197,6.32165,12.3609,6.30382Q12.3021,6.286,12.2419,6.27402Q12.1817,6.26204,12.1206,6.25602Q12.0595,6.25,11.998,6.25Q11.9366,6.25,11.8755,6.25602Q11.8144,6.26204,11.7542,6.27402Q11.694,6.286,11.6352,6.30382Q11.5764,6.32165,11.5197,6.34515Q11.463,6.36865,11.4088,6.3976Q11.3546,6.42655,11.3036,6.46066Q11.2525,6.49478,11.2051,6.53374Q11.1576,6.57269,11.1142,6.61612Q11.0707,6.65954,11.0318,6.70701Q10.99282,6.75448,10.95871,6.80554Q10.92459,6.8566,10.89564,6.91075Q10.8667,6.96491,10.8432,7.02165Q10.8197,7.07838,10.80187,7.13714Q10.78405,7.19591,10.77206,7.25614Q10.76009,7.31637,10.75407,7.37748Q10.74805,7.43859,10.74805,7.5Q10.74805,7.56141,10.75407,7.62252Q10.76009,7.68363,10.77206,7.74386Q10.78405,7.80409,10.80187,7.86286Q10.8197,7.92162,10.8432,7.97835Q10.8667,8.03509,10.89564,8.08925Q10.92459,8.1434,10.95871,8.19446Q10.99282,8.245519999999999,11.0318,8.29299Q11.0707,8.34046,11.1142,8.383880000000001Q11.1576,8.42731,11.2051,8.46626Q11.2525,8.50522,11.3036,8.53934Q11.3546,8.573450000000001,11.4088,8.6024Q11.463,8.631350000000001,11.5197,8.65485Q11.5764,8.67835,11.6352,8.69618Q11.694,8.714,11.7542,8.72598Q11.8144,8.737960000000001,11.8755,8.74398Q11.9366,8.75,11.998,8.75ZM11,10.75L11,16.75Q11,16.8485,11.0192,16.9451Q11.0384,17.0417,11.0761,17.1327Q11.1138,17.2237,11.1685,17.3056Q11.2232,17.3875,11.2929,17.4571Q11.3625,17.5267,11.4444,17.5815Q11.5263,17.6362,11.6173,17.6739Q11.7083,17.7116,11.8049,17.7308Q11.9015,17.75,12,17.75Q12.0985,17.75,12.1951,17.7308Q12.2917,17.7116,12.3827,17.6739Q12.4737,17.6362,12.5556,17.5815Q12.6375,17.5267,12.7071,17.4571Q12.7767,17.3875,12.8315,17.3056Q12.8862,17.2237,12.9239,17.1327Q12.9616,17.0417,12.9808,16.9451Q13,16.8485,13,16.75L13,10.75Q13,10.65151,12.9808,10.55491Q12.9616,10.45831,12.9239,10.36732Q12.8862,10.27632,12.8315,10.19443Q12.7767,10.11254,12.7071,10.04289Q12.6375,9.97325,12.5556,9.91853Q12.4737,9.86381,12.3827,9.82612Q12.2917,9.78843,12.1951,9.76921Q12.0985,9.75,12,9.75Q11.9015,9.75,11.8049,9.76921Q11.7083,9.78843,11.6173,9.82612Q11.5263,9.86381,11.4444,9.91853Q11.3625,9.97325,11.2929,10.04289Q11.2232,10.11254,11.1685,10.19443Q11.1138,10.27632,11.0761,10.36732Q11.0384,10.45831,11.0192,10.55491Q11,10.65151,11,10.75Z" fill-rule="evenodd"></path></symbol>
<symbol xmlns="http://www.w3.org/2000/svg" viewBox="0 0 24 24" id="note-list"><path d="M2,5.31818L2,18.6818C2,20.7905,3.79086,22.5,6,22.5L18,22.5C20.2091,22.5,22,20.7905,22,18.6818L22,5.31818C22,3.20946,20.2091,1.5,18,1.5L6,1.5C3.79086,1.5,2,3.20946,2,5.31818ZM6,3.40909Q5.17157,3.40909,4.585789999999999,3.96825Q4,4.52741,4,5.31818L4,18.6818Q4,19.4726,4.585789999999999,20.0317Q5.17157,20.5909,6,20.5909L18,20.5909Q18.8284,20.5909,19.4142,20.0317Q20,19.4726,20,18.6818L20,5.31818Q20,4.52741,19.4142,3.96825Q18.8284,3.40909,18,3.40909L14,3.40909L14,11.04545C14,11.832,13.0592,12.281,12.4,11.8091L10.06,10.13386C10.02444,10.10841,9.97556,10.10841,9.940000000000001,10.13386L7.6,11.8091C6.94076,12.281,6,11.832,6,11.04545L6,3.40909ZM12,3.40909L8,3.40909L8,9.13636L8.74,8.60659Q9.3,8.205680000000001,10,8.205680000000001Q10.7,8.205680000000001,11.26,8.60659L12,9.13636L12,3.40909Z" fill-rule="evenodd"></path></symbol>
<symbol xmlns="http://www.w3.org/2000/svg" viewBox="0 0 24 24" id="note"><path d="M4.5,23C2.567,23,1,21.433,1,19.5L1,4.5C1,2.567,2.567,1,4.5,1L19.5,1C21.433,1,23,2.567,23,4.5L23,15.7574C23,16.553,22.6839,17.3161,22.1213,17.8787L17.8787,22.1213C17.3161,22.6839,16.553,23,15.7574,23L4.5,23ZM3.43934,20.5607Q3,20.1213,3,19.5L3,4.5Q3,3.87868,3.43934,3.43934Q3.87868,3,4.5,3L19.5,3Q20.1213,3,20.5607,3.43934Q21,3.87868,21,4.5L21,15L18.5,15C16.567,15,15,16.567,15,18.5L15,21L4.5,21Q3.87868,21,3.43934,20.5607ZM7,7Q6.90151,7,6.80491,7.01921Q6.70831,7.03843,6.61732,7.07612Q6.52632,7.11381,6.44443,7.16853Q6.36254,7.22325,6.29289,7.29289Q6.22325,7.36254,6.16853,7.44443Q6.11381,7.52632,6.07612,7.61732Q6.03843,7.70831,6.01921,7.80491Q6,7.90151,6,8Q6,8.09849,6.01921,8.19509Q6.03843,8.29169,6.07612,8.38268Q6.11381,8.47368,6.16853,8.55557Q6.22325,8.63746,6.29289,8.70711Q6.36254,8.77675,6.44443,8.83147Q6.52632,8.88619,6.61732,8.92388Q6.70831,8.96157,6.80491,8.98078Q6.90151,9,7,9L17,9Q17.0985,9,17.1951,8.98078Q17.2917,8.96157,17.3827,8.92388Q17.4737,8.88619,17.5556,8.83147Q17.6375,8.77675,17.7071,8.70711Q17.7767,8.63746,17.8315,8.55557Q17.8862,8.47368,17.9239,8.38268Q17.9616,8.29169,17.9808,8.19509Q18,8.09849,18,8Q18,7.90151,17.9808,7.80491Q17.9616,7.70831,17.9239,7.61732Q17.8862,7.52632,17.8315,7.44443Q17.7767,7.36254,17.7071,7.29289Q17.6375,7.22325,17.5556,7.16853Q17.4737,7.11381,17.3827,7.07612Q17.2917,7.03843,17.1951,7.01921Q17.0985,7,17,7L7,7ZM7,11Q6.90151,11,6.80491,11.0192Q6.70831,11.0384,6.61732,11.0761Q6.52632,11.1138,6.44443,11.1685Q6.36254,11.2232,6.29289,11.2929Q6.22325,11.3625,6.16853,11.4444Q6.11381,11.5263,6.07612,11.6173Q6.03843,11.7083,6.01921,11.8049Q6,11.9015,6,12Q6,12.0985,6.01921,12.1951Q6.03843,12.2917,6.07612,12.3827Q6.11381,12.4737,6.16853,12.5556Q6.22325,12.6375,6.29289,12.7071Q6.36254,12.7767,6.44443,12.8315Q6.52632,12.8862,6.61732,12.9239Q6.70831,12.9616,6.80491,12.9808Q6.90151,13,7,13L11,13Q11.0985,13,11.1951,12.9808Q11.2917,12.9616,11.3827,12.9239Q11.4737,12.8862,11.5556,12.8315Q11.6375,12.7767,11.7071,12.7071Q11.7767,12.6375,11.8315,12.5556Q11.8862,12.4737,11.9239,12.3827Q11.9616,12.2917,11.9808,12.1951Q12,12.0985,12,12Q12,11.9015,11.9808,11.8049Q11.9616,11.7083,11.9239,11.6173Q11.8862,11.5263,11.8315,11.4444Q11.7767,11.3625,11.7071,11.2929Q11.6375,11.2232,11.5556,11.1685Q11.4737,11.1138,11.3827,11.0761Q11.2917,11.0384,11.1951,11.0192Q11.0985,11,11,11L7,11ZM18.5,17L20.1716,17L17,20.1716L17,18.5Q17,17.8787,17.4393,17.4393Q17.8787,17,18.5,17Z" fill-rule="evenodd"></path></symbol>
</svg>