<svg xmlns="http://www.w3.org/2000/svg" xmlns:xlink="http://www.w3.org/1999/xlink" style="position: absolute; width: 0; height: 0" aria-hidden="true" id="__SVG_SPRITE_NODE__">
<symbol xmlns="http://www.w3.org/2000/svg" viewBox="0 0 20 20" id="notification-sidebar"><path d="M16.66663331346512,11.875033313465119L16.66663331346512,7.500003313465118C16.66663331346512,3.8181033134651186,13.681933313465118,0.8333333134651184,10.000003313465118,0.8333333134651184C6.3181033134651186,0.8333333134651184,3.3333333134651184,3.8181033134651186,3.3333333134651184,7.500003313465118L3.3333333134651184,11.875033313465119C3.3333333134651184,12.680433313465118,2.6804133134651185,13.333333313465118,1.8750033134651185,13.333333313465118C1.2997033134651184,13.333333313465118,0.8333333134651184,13.799733313465119,0.8333333134651184,14.375033313465119C0.8333333134651184,14.95033331346512,1.2997033134651184,15.416633313465118,1.8750033134651185,15.416633313465118L18.125033313465117,15.416633313465118C18.70033331346512,15.416633313465118,19.16663331346512,14.95033331346512,19.16663331346512,14.375033313465119C19.16663331346512,13.799733313465119,18.70033331346512,13.333333313465118,18.125033313465117,13.333333313465118C17.31953331346512,13.333333313465118,16.66663331346512,12.680433313465118,16.66663331346512,11.875033313465119ZM7.640093313465118,17.494033313465117C7.4878433134651186,17.05973331346512,7.873053313465118,16.666733313465116,8.333293313465118,16.666733313465116L11.666633313465118,16.666733313465116C12.126833313465118,16.666733313465116,12.512033313465118,17.05973331346512,12.359833313465119,17.494033313465117C12.018333313465119,18.468133313465117,11.090733313465119,19.16673331346512,9.999963313465118,19.16673331346512C8.909193313465119,19.16673331346512,7.981593313465118,18.468133313465117,7.640093313465118,17.494033313465117Z" fill-rule="evenodd"></path></symbol>
<symbol xmlns="http://www.w3.org/2000/svg" viewBox="0 0 24 24" id="notification"><path d="M13,5.5c2.6,0.5,4.5,2.7,4.5,5.4v3.8l0.5,1.4c0.2,0.5,0,1.1-0.6,1.3 c-0.1,0-0.2,0.1-0.4,0.1H6.9c-0.6,0-1-0.4-1-1c0-0.1,0-0.3,0.1-0.4l0.5-1.4v-3.8c0-2.7,1.9-4.9,4.5-5.4V4.3c0-0.6,0.4-1,1-1 c0.6,0,1,0.4,1,1V5.5z M9.8,18.7h4.4c-0.1,1.1-1,2-2.2,2S9.9,19.8,9.8,18.7z" fill-rule="evenodd" clip-rule="evenodd"></path></symbol>
</svg>