<svg xmlns="http://www.w3.org/2000/svg" xmlns:xlink="http://www.w3.org/1999/xlink" style="position: absolute; width: 0; height: 0" aria-hidden="true" id="__SVG_SPRITE_NODE__">
<symbol xmlns="http://www.w3.org/2000/svg" viewBox="0 0 30 30" id="objects"><g transform="translate(-2)" fill-rule="evenodd"><circle cx="15" cy="15" r="15" fill="none"></circle><path d="M16.1700001,7 C19.294316,7 21.8366352,9.39265334 21.8366352,12.3333036 C21.8908484,13.8091489 21.2877437,15.2330376 20.1899777,16.2209486 C19.3182365,16.9738024 18.757087,18.0235225 18.6153198,19.1665989 L18.5126537,20.0359274 L18.5126537,21.9882498 L18.4691417,21.9882498 L18.5126537,21.9892498 C18.5024938,22.4313278 18.1743541,22.8013306 17.736658,22.864245 C17.2184965,22.9480205 16.6948495,22.9933661 16.1700001,22.9999109 C15.6451507,22.9933661 15.1215037,22.9480205 14.6033421,22.864245 C14.165646,22.8013306 13.8375063,22.4313278 13.8273465,21.9892498 L13.8273465,20.0369274 L13.7246804,19.1665989 C13.5829131,18.0235225 13.0217637,16.9738024 12.1500225,16.2209486 C11.0522565,15.2330376 10.4491518,13.8091489 10.503365,12.3333036 C10.503365,9.39265334 13.0456841,7 16.1700001,7 Z M17.512,19.999 L14.827,19.999 L14.8270877,21.8872188 C15.275589,21.9566448 15.7274234,21.994334 16.1575314,21.9999944 C16.606441,21.9943964 17.0543799,21.9574714 17.5126593,21.8872761 L17.512,19.999 Z M16.1700001,20.6665905 L16.1700001,21.3332535 L14.8366742,21.3332535 L14.8366742,20.6665905 L16.1700001,20.6665905 Z M16.1700001,7.99999443 C13.5848211,7.99999443 11.5033594,9.95898736 11.5033594,12.3333036 C11.4593497,13.549741 11.9414462,14.6879377 12.8036319,15.464124 C13.8501778,16.3679427 14.528338,17.6238678 14.7113232,18.999143 L17.629,18.999 L17.6641332,18.7673088 C17.8877229,17.4861032 18.5466732,16.3188635 19.521046,15.4776322 C20.3985539,14.6879377 20.8806505,13.549741 20.8373147,12.3700123 C20.8366407,9.95898736 18.7551791,7.99999443 16.1700001,7.99999443 Z M17.503326,13.999961 C17.8715138,13.999961 18.1699889,14.2984362 18.1699889,14.666624 C18.1699889,15.0348117 17.8715138,15.3332869 17.503326,15.3332869 C17.4477773,15.3332869 17.3938155,15.3264931 17.342226,15.3136909 L16.503,16.086 L16.5033316,18.3332702 L15.8366686,18.3332702 L15.836,16.085 L14.9987659,15.313444 C14.977944,15.3186452 14.9567344,15.3228673 14.9351887,15.3260586 L14.8366742,15.3332869 C14.4684864,15.3332869 14.1700112,15.0348117 14.1700112,14.666624 C14.1700112,14.2984362 14.4684864,13.999961 14.8366742,13.999961 C15.204862,13.999961 15.5033371,14.2984362 15.5033371,14.666624 C15.5033371,14.7189679 15.4973046,14.7699028 15.4858968,14.8187714 L16.17,15.45 L16.854337,14.8197685 C16.8501195,14.8018271 16.8466268,14.7836062 16.8438914,14.7651385 L16.836663,14.666624 C16.836663,14.2984362 17.1351382,13.999961 17.503326,13.999961 Z" fill-rule="nonzero"></path></g></symbol>
</svg>