<svg xmlns="http://www.w3.org/2000/svg" xmlns:xlink="http://www.w3.org/1999/xlink" style="position: absolute; width: 0; height: 0" aria-hidden="true" id="__SVG_SPRITE_NODE__">
<symbol xmlns="http://www.w3.org/2000/svg" viewBox="0 0 16 16" id="open-views"><path d="M0.1599999964237213,4.986309923706054L0.1599999964237213,11.007019923706055C0.1599999964237213,12.479799923706056,1.3544899964237214,13.663299923706054,2.8272499964237214,13.663299923706054C6.180839996423721,13.663299923706054,9.805909996423722,13.663299923706054,13.15949999642372,13.663299923706054C14.632299996423722,13.663299923706054,15.826699996423722,12.479799923706056,15.826799996423722,11.007019923706055C15.826799996423722,8.964639923706056,15.826899996423721,7.028689923706055,15.826999996423721,4.986309923706054C15.826999996423721,3.513549923706055,14.59239999642372,2.3299999237060547,13.119599996423721,2.3299999237060547L2.8137299964237212,2.3299999237060547C1.3409799964237212,2.3299999237060547,0.1599999964237213,3.513549923706055,0.1599999964237213,4.986309923706054ZM9.126759996423722,3.6633799237060547C6.994539996423721,3.6633899237060548,4.824329996423721,3.6633899237060548,2.8309199964237215,3.6633799237060547C2.0945299964237214,3.6633799237060547,1.4930099964237213,4.2533799237060546,1.4930199964237214,4.989759923706055C1.4930699964237213,7.073079923706055,1.4932199964237214,8.920289923706054,1.4932999964237212,11.003609923706055C1.4933299964237212,11.739979923706054,2.094879996423721,12.329999923706055,2.8312499964237214,12.329999923706055L5.055379996423722,12.329999923706055C6.390699996423721,12.329999923706055,7.766329996423721,12.329999923706055,9.126499996423721,12.329999923706055L9.126759996423722,3.6633799237060547ZM10.45979999642372,12.329999923706055C11.380099996423722,12.329999923706055,12.28459999642372,12.329999923706055,13.155299996423722,12.329999923706055C13.891699996423721,12.329999923706055,14.493199996423721,11.739989923706055,14.493199996423721,11.003609923706055C14.493199996423721,8.920289923706054,14.493099996423721,7.073079923706055,14.492999996423721,4.989759923706055C14.492999996423721,4.2533799237060546,13.891499996423722,3.6633699237060546,13.155099996423722,3.6633699237060546L10.45979999642372,3.6633799237060547L10.45979999642372,12.329999923706055Z" fill-rule="evenodd"></path></symbol>
</svg>