<svg xmlns="http://www.w3.org/2000/svg" xmlns:xlink="http://www.w3.org/1999/xlink" style="position: absolute; width: 0; height: 0" aria-hidden="true" id="__SVG_SPRITE_NODE__">
<symbol xmlns="http://www.w3.org/2000/svg" viewBox="0 0 24 24" id="organizer"><path d="M11.8153768,12.2956352 C14.5102639,12.2956352 16.7012623,10.1372774 16.7012623,7.48115092 C16.7012623,4.82706447 14.5102639,2.66666667 11.8153768,2.66666667 C9.12048961,2.66666667 6.92949127,4.82706447 6.92949127,7.48115092 C6.92949127,10.1352374 9.12252964,12.2956352 11.8153768,12.2956352 Z M13.828892,12.7587233 L10.169068,12.7587233 C6.76628841,12.7587233 4,15.484211 4,18.8339496 L4,19.1950359 C4,20.9453865 6.72344766,20.9453865 10.169068,20.9453865 L13.830932,20.9453865 C17.14191,20.9453865 20,20.9453865 20,19.1950359 L20,18.8339496 C19.99796,15.484211 17.2316716,12.7587233 13.828892,12.7587233 Z" fill-rule="evenodd"></path></symbol>
</svg>