<svg xmlns="http://www.w3.org/2000/svg" xmlns:xlink="http://www.w3.org/1999/xlink" style="position: absolute; width: 0; height: 0" aria-hidden="true" id="__SVG_SPRITE_NODE__">
<symbol xmlns="http://www.w3.org/2000/svg" viewBox="0 0 64 64" id="other"><g fill="none" fill-rule="evenodd"><path d="M33.464,42.408 L33.464,41.8186667 C33.464,40.9866667 33.6373333,40.224 34.0186667,39.5306667 C34.3306667,38.9066667 34.816,38.2826667 35.4746667,37.728 C37.104,36.3066667 38.0746667,35.4053333 38.3866667,35.024 C39.2533333,33.9146667 39.704,32.4933333 39.704,30.7946667 C39.704,28.7146667 39.0106667,27.0506667 37.624,25.8373333 C36.2373333,24.5893333 34.4346667,24 32.216,24 C29.6506667,24 27.64,24.728 26.184,26.2186667 C24.728,27.6746667 24,29.6506667 24,32.1813333 L27.64,32.1813333 C27.64,30.656 27.952,29.4773333 28.576,28.6453333 C29.2693333,27.64 30.4133333,27.1546667 31.9733333,27.1546667 C33.2213333,27.1546667 34.2266667,27.5013333 34.92,28.1946667 C35.5786667,28.888 35.9253333,29.824 35.9253333,31.0373333 C35.9253333,31.9386667 35.5786667,32.7706667 34.9546667,33.568 L34.3653333,34.2266667 C32.216,36.1333333 30.8986667,37.5546667 30.448,38.5253333 C29.9626667,39.4266667 29.7546667,40.536 29.7546667,41.8186667 L29.7546667,42.408 L33.464,42.408 Z M31.592,49.2373333 C32.2853333,49.2373333 32.9093333,48.9946667 33.3946667,48.544 C33.88,48.0586667 34.1573333,47.4693333 34.1573333,46.7413333 C34.1573333,46.0133333 33.9146667,45.424 33.4293333,44.9733333 C32.944,44.488 32.32,44.28 31.592,44.28 C30.8986667,44.28 30.2746667,44.488 29.7893333,44.9733333 C29.304,45.424 29.0613333,46.0133333 29.0613333,46.7413333 C29.0613333,47.4346667 29.304,48.024 29.7893333,48.5093333 C30.2746667,48.9946667 30.8986667,49.2373333 31.592,49.2373333 Z" fill="#FFFFFF" fill-rule="nonzero"></path><path d="M0,4.00866826 C0,1.79474191 1.81214523,0 3.98812056,0 L32,0 L48,16 L48,49.3380127 C48,51.5445674 46.2347281,53.3333333 43.9901068,53.3333333 L4.00989318,53.3333333 C1.79529033,53.3333333 0,51.5588379 0,49.3246651 L0,4.00866826 Z" fill="#A3A3A3" transform="translate(8 5.333)"></path><path d="M25.464,37.0746667 L25.464,36.4853333 C25.464,35.6533333 25.6373333,34.8906667 26.0186667,34.1973333 C26.3306667,33.5733333 26.816,32.9493333 27.4746667,32.3946667 C29.104,30.9733333 30.0746667,30.072 30.3866667,29.6906667 C31.2533333,28.5813333 31.704,27.16 31.704,25.4613333 C31.704,23.3813333 31.0106667,21.7173333 29.624,20.504 C28.2373333,19.256 26.4346667,18.6666667 24.216,18.6666667 C21.6506667,18.6666667 19.64,19.3946667 18.184,20.8853333 C16.728,22.3413333 16,24.3173333 16,26.848 L19.64,26.848 C19.64,25.3226667 19.952,24.144 20.576,23.312 C21.2693333,22.3066667 22.4133333,21.8213333 23.9733333,21.8213333 C25.2213333,21.8213333 26.2266667,22.168 26.92,22.8613333 C27.5786667,23.5546667 27.9253333,24.4906667 27.9253333,25.704 C27.9253333,26.6053333 27.5786667,27.4373333 26.9546667,28.2346667 L26.3653333,28.8933333 C24.216,30.8 22.8986667,32.2213333 22.448,33.192 C21.9626667,34.0933333 21.7546667,35.2026667 21.7546667,36.4853333 L21.7546667,37.0746667 L25.464,37.0746667 Z M23.592,43.904 C24.2853333,43.904 24.9093333,43.6613333 25.3946667,43.2106667 C25.88,42.7253333 26.1573333,42.136 26.1573333,41.408 C26.1573333,40.68 25.9146667,40.0906667 25.4293333,39.64 C24.944,39.1546667 24.32,38.9466667 23.592,38.9466667 C22.8986667,38.9466667 22.2746667,39.1546667 21.7893333,39.64 C21.304,40.0906667 21.0613333,40.68 21.0613333,41.408 C21.0613333,42.1013333 21.304,42.6906667 21.7893333,43.176 C22.2746667,43.6613333 22.8986667,43.904 23.592,43.904 Z" fill="#FFFFFF" fill-rule="nonzero" transform="translate(8 5.333)"></path><path d="M32,0 L48,16 L33.5052412,16 C32.6739194,16 32,15.3328702 32,14.4947588 L32,0 Z" fill="#000000" opacity=".3" transform="translate(8 5.333)"></path></g></symbol>
</svg>