<svg xmlns="http://www.w3.org/2000/svg" xmlns:xlink="http://www.w3.org/1999/xlink" style="position: absolute; width: 0; height: 0" aria-hidden="true" id="__SVG_SPRITE_NODE__">
<symbol xmlns="http://www.w3.org/2000/svg" viewBox="0 0 64 64" id="package"><g fill="none" fill-rule="evenodd"><path d="M8,9.3420016 C8,7.12807525 9.81214523,5.33333333 11.9881206,5.33333333 L40,5.33333333 L56,21.3333333 L56,54.671346 C56,56.8779007 54.2347281,58.6666667 51.9901068,58.6666667 L12.0098932,58.6666667 C9.79529033,58.6666667 8,56.8921712 8,54.6579984 L8,9.3420016 Z" fill="#C735E9"></path><path d="M40,5.33333333 L56,21.3333333 L41.5052412,21.3333333 C40.6739194,21.3333333 40,20.6662036 40,19.8280922 L40,5.33333333 Z" fill="#000000" opacity=".3"></path><path d="M31.104,35.5413333 L31.104,50.1994667 C31.1028848,51.0514515 30.4482102,51.7500512 29.6146372,51.821228 L29.4741333,51.8272 L22.9610667,51.8272 C22.1081825,51.8272 21.4103874,51.1723789 21.3392979,50.3397948 L21.3333333,50.1994667 L21.3333333,38.7989333 L26.2186667,38.7989333 L26.2186667,35.5413333 L31.104,35.5413333 Z M29.4741333,45.3141333 L22.9610667,45.3141333 L22.9610667,48.5696 L29.4741333,48.5696 L29.4741333,45.3141333 Z M26.2186667,32.2837333 L26.2186667,35.5413333 L21.3333333,35.5413333 L21.3333333,32.2837333 L26.2186667,32.2837333 Z M31.104,29.0261333 L31.104,32.2837333 L26.2186667,32.2837333 L26.2186667,29.0261333 L31.104,29.0261333 Z M26.2186667,25.7685333 L26.2186667,29.0261333 L21.3333333,29.0261333 L21.3333333,25.7685333 L26.2186667,25.7685333 Z M26.2186667,19.2554667 L26.2186667,22.5109333 L31.104,22.5109333 L31.104,25.7685333 L26.2186667,25.7685333 L26.2186667,22.5130667 L21.3333333,22.5130667 L21.3333333,19.2554667 L26.2186667,19.2554667 Z M31.104,16 L31.104,19.2554667 L26.2186667,19.2554667 L26.2186667,16 L31.104,16 Z" fill="#FFFFFF" fill-rule="nonzero"></path></g></symbol>
</svg>