<svg xmlns="http://www.w3.org/2000/svg" xmlns:xlink="http://www.w3.org/1999/xlink" style="position: absolute; width: 0; height: 0" aria-hidden="true" id="__SVG_SPRITE_NODE__">
<symbol xmlns="http://www.w3.org/2000/svg" viewBox="0 0 24 24" id="panel-close"><path d="M12.000106502685547,10.585467362823486L6.696806502685547,5.282171362823487C6.306276502685547,4.891647362823487,5.6731145026855465,4.891647362823487,5.282590502685547,5.282171362823487C4.892067002685547,5.672696362823486,4.892065002685547,6.305857362823486,5.282588502685547,6.6963873628234865L10.585886502685547,11.999687362823487L5.282588502685547,17.302977362823487C4.892065002685547,17.693477362823486,4.892067002685547,18.32667736282349,5.282590502685547,18.717177362823485C5.6731145026855465,19.107677362823487,6.306276502685547,19.107677362823487,6.696806502685547,18.717177362823485L12.000106502685547,13.413897362823487L17.303396502685548,18.717177362823485C17.693896502685547,19.107677362823487,18.32709650268555,19.107677362823487,18.717596502685545,18.717177362823485C19.108096502685548,18.32667736282349,19.108096502685548,17.693477362823486,18.717596502685545,17.302977362823487L13.414316502685548,11.999687362823487L18.717596502685545,6.6963873628234865C19.108096502685548,6.305857362823486,19.108096502685548,5.672695362823486,18.717596502685545,5.282170362823487C18.32709650268555,4.8916463628234865,17.693896502685547,4.891645862823486,17.303396502685548,5.282170362823487L12.000106502685547,10.585467362823486Z" fill-rule="evenodd"></path></symbol>
</svg>