<svg xmlns="http://www.w3.org/2000/svg" xmlns:xlink="http://www.w3.org/1999/xlink" style="position: absolute; width: 0; height: 0" aria-hidden="true" id="__SVG_SPRITE_NODE__">
<symbol xmlns="http://www.w3.org/2000/svg" viewBox="0 0 24 24" id="parent-tag"><path d="M8.629890005960464,2.48782L4.130000005960465,2.22371L7.922630005960465,0.488023C8.833870005960465,0.1588049,9.833640005960465,0.17152620000000002,10.736200005960464,0.5238229999999999L21.060500005960463,4.55367C23.118400005960464,5.35693,24.135500005960463,7.67638,23.332300005960466,9.73431L21.867100005960463,13.4878L20.378300005960465,11.8017L21.469100005960463,9.00702Q21.770400005960465,8.23532,21.437700005960465,7.47663Q21.105000005960463,6.71798,20.333200005960464,6.41676L10.009000005960464,2.38693Q9.570810005960464,2.21589,8.629890005960464,2.48782ZM1.9485900059604644,14.706L9.785320005960465,22.5427C11.347400005960464,24.1048,13.880100005960465,24.1048,15.442200005960464,22.5427L19.684900005960465,18.3002C21.246900005960466,16.7381,21.246900005960466,14.2054,19.684900005960465,12.6433L11.848100005960465,4.80652C11.163000005960464,4.12141,10.252480005960464,3.70825,9.285730005960465,3.64381L3.5997200059604646,3.26474C1.7886600059604645,3.144,0.28606700596046447,4.6466,0.4068042659604645,6.45765L0.7858730059604645,12.1437C0.8503230059604645,13.1104,1.2634760059604644,14.0209,1.9485900059604644,14.706ZM11.199600005960464,21.1285Q11.785300005960465,21.7144,12.613700005960464,21.7144Q13.442200005960464,21.7143,14.028000005960465,21.1285L18.270600005960464,16.8859Q18.856400005960463,16.3001,18.856400005960463,15.4717Q18.856400005960463,14.6433,18.270600005960464,14.0575L10.433900005960464,6.22073Q9.902500005960464,5.68936,9.152690005960464,5.63937L3.4666800059604643,5.26031Q3.0139200059604643,5.23012,2.6930500059604645,5.55099Q2.372190005960465,5.87185,2.4023700059604645,6.32461L2.7814400059604645,12.0106Q2.8314300059604647,12.7604,3.3628000059604646,13.2918L11.199600005960464,21.1285ZM5.253680005960464,8.11166C4.6679000059604645,8.69745,4.6679000059604645,9.64717,5.253680005960464,10.23296C5.8394700059604645,10.8187,6.789200005960464,10.8188,7.3749900059604645,10.233C7.960780005960465,9.64721,7.960780005960465,8.69742,7.3749900059604645,8.11163C6.789200005960464,7.52585,5.8394700059604645,7.52588,5.253680005960464,8.11166Z" fill-rule="evenodd"></path></symbol>
</svg>