<svg xmlns="http://www.w3.org/2000/svg" xmlns:xlink="http://www.w3.org/1999/xlink" style="position: absolute; width: 0; height: 0" aria-hidden="true" id="__SVG_SPRITE_NODE__">
<symbol xmlns="http://www.w3.org/2000/svg" viewBox="0 0 16 16" id="pay-alipay"><path d="M15.608000005960465,3.36032000494957L15.608000005960465,10.84746000494957C15.608000005960465,10.84746000494957,11.507500005960464,9.59360000494957,10.606500005960465,9.26760000494957C11.148200005960465,8.336080004949569,11.580700005960464,7.26968000494957,11.865900005960464,6.1091200049495695L8.764400005960464,6.1091200049495695L8.764400005960464,5.057840004949569L12.566200005960464,5.057840004949569L12.566200005960464,4.413440004949569L8.764400005960464,4.413440004949569L8.764400005960464,2.65880000494957L7.302560005960465,2.65880000494957C7.040160005960464,2.65880000494957,7.007840005960465,2.8964800049495696,7.007840005960465,2.8964800049495696L7.007840005960465,4.413440004949569L3.4416000059604643,4.413440004949569L3.4416000059604643,5.057840004949569L7.007840005960465,5.057840004949569L7.007840005960465,6.1091200049495695L4.084160005960465,6.1091200049495695L4.084160005960465,6.694640004949569L9.993200005960464,6.694640004949569C9.775520005960464,7.4350400049495695,9.489520005960465,8.13096000494957,9.144560005960464,8.76288000494957C7.811920005960465,8.322880004949571,7.063840005960465,8.01768000494957,5.429920005960464,7.864640004949569C2.3294400059604645,7.57288000494957,1.6156000059604645,9.27424000494957,1.5044000059604645,10.31504000494957C1.3361600059604646,11.90046000494957,2.7400800059604644,13.196060004949569,4.843520005960465,13.196060004949569C6.946960005960465,13.196060004949569,8.342400005960464,12.22756000494957,9.674880005960464,10.61346000494957C11.425800005960465,11.44896000494957,14.786700005960464,12.90036000494957,15.562300005960465,13.23596000494957C15.318100005960465,14.60366000494957,14.121400005960464,15.64356000494957,12.683300005960465,15.64356000494957L3.3237600059604646,15.64356000494957C1.7088000059604644,15.64356000494957,0.4000000059604645,14.33376000494957,0.4000000059604645,12.71986000494957L0.4000000059604645,3.36032000494957C0.4000000059604645,1.7463200049495697,1.7098400059604644,0.4365600049495697,3.3237600059604646,0.4365600049495697L12.683300005960465,0.4365600049495697C14.298200005960464,0.4365600049495697,15.608000005960465,1.7463200049495697,15.608000005960465,3.36032000494957ZM2.1546700059604644,10.20289000494957C2.0368300059604643,10.78946000494957,2.3885100059604643,12.192260004949569,4.6107500059604645,12.192260004949569C5.979470005960464,12.192260004949569,7.296830005960464,11.360660004949569,8.368990005960464,9.96425000494957C6.842510005960465,9.22105000494957,5.570750005960464,8.85801000494957,4.1507500059604645,8.85801000494957C2.9150700059604646,8.85801000494957,2.2715500059604645,9.619290004949569,2.1546700059604644,10.20289000494957Z" fill-rule="evenodd"></path></symbol>
<symbol xmlns="http://www.w3.org/2000/svg" fill="none" viewBox="0 0 16 16" id="pay-paypal"><defs><clipPath id="pay-paypal_a"><rect width="16" height="16" rx="0"></rect></clipPath></defs><g clip-path="url(#pay-paypal_a)"><path d="M13.1531359375,3.957275695801C13.1384759375,4.049275790625,13.1218059375,4.143942390625,13.1031359375,4.241275390625C12.469135937499999,7.518605390625,10.298475937500001,8.651275390624999,7.527135937500001,8.651275390624999L6.1158059375,8.651275390624999C5.7768259375,8.652075390625,5.4891519375,8.900105390625,5.4384719375,9.235275390624999L4.7158049375,13.847945390625L4.5111383074999996,15.154575390625C4.4774859375,15.373675390625,4.6454829375,15.571875390625,4.8671379375,15.574575390625L7.3704759375,15.574575390625C7.6673359375,15.573875390625,7.919545937500001,15.357275390625,7.9651359374999995,15.063975390625L7.9898059375,14.935975390625L8.4611359375,11.925945390625L8.4918059375,11.761275390625C8.536805937499999,11.467405390625,8.7891759375,11.250125390625,9.086475937500001,11.249275390625L9.4604759375,11.249275390625C11.885805937499999,11.249275390625,13.7844759375,10.257945390625,14.3391359375,7.390605390625C14.5711359375,6.192605390624999,14.4511359375,5.1919453906249995,13.8378059375,4.488608390625C13.6435859375,4.271276390625,13.4113359375,4.091215390625,13.1524759375,3.957275390625L13.1531359375,3.957275695801Z" fill="#179BD7"></path><path d="M12.4891465625,3.6907650625C12.2864865625,3.6319440625,12.0802965625,3.5860730625,11.8718065625,3.5534313625C11.4602565625,3.4897781625,11.0442465625,3.4592355325,10.6278065625,3.4620980835L6.8578065625,3.4620980835C6.5603065625,3.4623782345,6.3076205625,3.6799370625,6.2631435625,3.9740980625L5.4611431625,9.0867640625L5.4384765625,9.235434062500001C5.4891570625,8.9002640625,5.7768335625,8.6522240625,6.1158095625,8.6514340625L7.5271465625000005,8.6514340625C10.2984765625,8.6514340625,12.4691465625,7.5180940625,13.103146562500001,4.2414310625C13.122476562500001,4.1440980625,13.1384765625,4.0494310625,13.1524765625,3.9574310625C12.941446562500001,3.8452730625,12.7190865625,3.7558810625,12.4891465625,3.6907650625Z" fill="#222D65"></path><path d="M6.26336609375,3.97333C6.30761609375,3.67914,6.56053609375,3.46166,6.85803609375,3.462L10.62803609375,3.462C11.07470609375,3.462,11.49199609375,3.49133,11.87199609375,3.55333C12.12999609375,3.594,12.38399609375,3.65533,12.63199609375,3.736C12.81869609375,3.798,12.99269609375,3.872,13.15339609375,3.95733C13.34199609375,2.746,13.15199609375,1.92133,12.50069609375,1.174C11.78339609375,0.352,10.48870609375,1.52588e-7,8.83203609375,1.52588e-7L4.02137609375,1.52588e-7C3.68337609375,1.52588e-7,3.39470609375,0.248,3.34203609375,0.584667L1.33870453375,13.3667C1.31958219375,13.4867,1.35365269375,13.6091,1.43203779375,13.702C1.51070409375,13.794,1.62537109375,13.8473,1.74603809375,13.848L4.7160360937500005,13.848L5.46136609375,9.08667L6.26336609375,3.97333Z" fill="#253B80"></path></g></symbol>
<symbol xmlns="http://www.w3.org/2000/svg" fill="none" viewBox="0 0 16 16" id="pay-stripe"><defs><clipPath id="pay-stripe_a"><rect width="16" height="16" rx="0"></rect></clipPath></defs><g clip-path="url(#pay-stripe_a)"><path d="M13.3795,15.4986L2.62049,15.4986C1.449241,15.4986,0.5,14.5493,0.5,13.3781L0.5,2.62049C0.5,1.449241,1.449241,0.5,2.62049,0.5L13.3795,0.5C14.5508,0.5,15.5,1.449241,15.5,2.62049L15.5,13.3795C15.5,14.5493,14.5508,15.4986,13.3795,15.4986Z" fill="#6861FF"></path><path d="M7.214092023086548,5.8342174963378906C7.214092023086548,5.358887496337891,7.611142023086548,5.17529749633789,8.247292023086548,5.17529749633789C9.173762023086548,5.17529749633789,10.349282023086548,5.458507496337891,11.274332023086547,5.958027496337891L11.274332023086547,3.0932284963378907C10.265322023086547,2.690477496337891,9.257732023086547,2.5367774963378906,8.248722023086547,2.5367774963378906C5.779552023086548,2.5367774963378906,4.134392023086548,3.8261474963378905,4.134392023086548,5.980797496337891C4.134392023086548,9.34939749633789,8.761052023086549,8.80432749633789,8.761052023086549,10.25736749633789C8.761052023086549,10.820927496337891,8.272912023086548,11.00167749633789,7.594072023086548,11.00167749633789C6.586482023086548,11.00167749633789,5.285722023086548,10.586117496337891,4.263898023086548,10.03108749633789L4.263898023086548,12.773477496337891C5.395302023086548,13.26017749633789,6.5423620230865485,13.46517749633789,7.5926420230865475,13.46517749633789C10.12300202308655,13.46517749633789,11.866362023086548,12.376437496337891,11.866362023086548,10.18762749633789C11.864942023086549,6.554327496337891,7.214092023086548,7.204707496337891,7.214092023086548,5.8342174963378906Z" fill="#FFFFFF"></path></g></symbol>
<symbol xmlns="http://www.w3.org/2000/svg" viewBox="0 0 16 16" id="pay-wechat"><path d="M6.09718,9.860820023841859C5.13992,10.392380023841858,4.99794,9.562400023841858,4.99794,9.562400023841858L3.79822,6.773860023841858C3.3366,5.448780023841858,4.19774,6.1764000238418575,4.19774,6.1764000238418575C4.19774,6.1764000238418575,4.93664,6.733180023841858,5.49742,7.072460023841858C6.0579,7.411740023841858,6.69676,7.1720600238418575,6.69676,7.1720600238418575L14.54,3.566160023841858C13.0929,1.772700023841858,10.7025,0.6000000238418579,7.99634,0.6000000238418579C3.57986,0.6000000238418579,0,3.720820023841858,0,7.570760023841858C0,9.785220023841857,1.1854,11.756200023841858,3.0318,13.033600023841858L2.69882,14.940100023841858C2.69882,14.940100023841858,2.5365,15.496700023841857,3.09906,15.238600023841858C3.4824,15.062600023841858,4.45966,14.431800023841857,5.0414,14.047900023841859C5.95594,14.365400023841858,6.9523,14.541600023841857,7.99678,14.541600023841857C12.4129,14.541600023841857,15.9935,11.420800023841858,15.9935,7.570780023841858C15.9935,6.455640023841858,15.6918,5.402520023841858,15.1573,4.467740023841857C12.6585,5.965300023841858,6.84622,9.445580023841858,6.09718,9.860820023841859L6.09718,9.860820023841859L6.09718,9.860820023841859Z"></path></symbol>
</svg>