<svg xmlns="http://www.w3.org/2000/svg" xmlns:xlink="http://www.w3.org/1999/xlink" style="position: absolute; width: 0; height: 0" aria-hidden="true" id="__SVG_SPRITE_NODE__">
<symbol xmlns="http://www.w3.org/2000/svg" viewBox="-293 385 24 24" id="person"><path fill="none" d="M-293 385H-269V409H-293z"></path><path d="M-278 392c0-1.7-1.3-3-3-3s-3 1.3-3 3 1.3 3 3 3S-278 393.7-278 392zM-285 392c0-2.2 1.8-4 4-4s4 1.8 4 4-1.8 4-4 4S-285 394.2-285 392zM-281 398c3.8 0 5.8 1.3 6.7 2 .2.2.3.4.3.7v2.8c0 .3-.2.5-.5.5h-13c-.3 0-.5-.2-.5-.5v-2.8c0-.3.1-.6.3-.7C-286.8 399.3-284.8 398-281 398M-281 397c-4.1 0-6.3 1.4-7.3 2.3-.4.4-.7.9-.7 1.5v2.7c0 .8.7 1.5 1.5 1.5h13c.8 0 1.5-.7 1.5-1.5v-2.7c0-.6-.2-1.1-.7-1.5C-274.7 398.4-276.9 397-281 397L-281 397z"></path></symbol>
</svg>