<svg xmlns="http://www.w3.org/2000/svg" xmlns:xlink="http://www.w3.org/1999/xlink" style="position: absolute; width: 0; height: 0" aria-hidden="true" id="__SVG_SPRITE_NODE__">
<symbol xmlns="http://www.w3.org/2000/svg" viewBox="0 0 16 16" id="photo"><path d="M0.6666593551635742,11.994933373069763L0.6666593551635742,4.005033373069763C0.6666593551635742,2.532273373069763,1.8573293551635741,1.3333333730697632,3.330089355163574,1.3333333730697632L12.645359355163574,1.3333333730697632C14.118159355163574,1.3333333730697632,15.333359355163575,2.532273373069763,15.333359355163575,4.005033373069763C15.333359355163575,6.581623373069763,15.333359355163575,9.418373373069763,15.333359355163575,11.994933373069763C15.333359355163575,13.467733373069763,14.166059355163574,14.666633373069763,12.693359355163574,14.666633373069763C9.564439355163573,14.666633373069763,6.435549355163574,14.666633373069763,3.3066593551635743,14.666633373069763C1.8339093551635741,14.666633373069763,0.6666593551635742,13.467733373069763,0.6666593551635742,11.994933373069763ZM3.8335693551635743,9.134713373069763L1.9999693551635742,10.560853373069763C1.9999693551635742,9.025633373069763,1.9999693551635742,7.381793373069764,1.9999793551635743,5.829693373069763L1.9999793551635743,5.826003373069764C1.9999893551635741,5.195343373069763,1.9999893551635741,4.579863373069763,1.9999893551635741,3.9930033730697634C1.9999893551635741,3.256623373069763,2.5911093551635744,2.666673373069763,3.327489355163574,2.666673373069763C5.552489355163575,2.6666833730697634,7.777489355163574,2.6666833730697634,10.002489355163574,2.666673373069763L12.672459355163575,2.6666633730697633C13.408859355163575,2.6666633730697633,13.999959355163574,3.256623373069763,13.999959355163574,3.9930033730697634L13.999959355163574,5.530353373069763L13.999959355163574,9.598023373069763L11.456859355163575,7.7485133730697635Q11.101859355163574,7.4903033730697635,10.662869355163574,7.493533373069763Q10.223879355163573,7.4967533730697635,9.872669355163573,7.760163373069763L6.688349355163575,10.148403373069764L5.505739355163574,9.162893373069764Q5.144619355163575,8.861963373069763,4.674619355163574,8.854043373069764Q4.204619355163574,8.846123373069762,3.8335693551635743,9.134713373069763ZM4.999909355163574,6.666833373069763Q5.098399355163574,6.666833373069763,5.194999355163574,6.647613373069763Q5.291599355163574,6.628403373069763,5.382589355163574,6.590703373069763Q5.473589355163575,6.5530133730697635,5.555479355163574,6.498293373069763Q5.637369355163575,6.443583373069763,5.707019355163574,6.373933373069764Q5.7766593551635745,6.304293373069763,5.831379355163574,6.222403373069763Q5.886099355163574,6.140503373069763,5.923789355163574,6.049513373069763Q5.961479355163574,5.9585133730697635,5.9806993551635745,5.8619233730697635Q5.999909355163574,5.765323373069763,5.999909355163574,5.666833373069763Q5.999909355163574,5.5683333730697635,5.9806993551635745,5.4717433730697635Q5.961479355163574,5.375143373069763,5.923789355163574,5.284143373069764Q5.886099355163574,5.193153373069763,5.831379355163574,5.111263373069763Q5.7766593551635745,5.0293633730697636,5.707019355163574,4.959723373069763Q5.637369355163575,4.890073373069763,5.555479355163574,4.835363373069763Q5.473589355163575,4.780643373069763,5.382589355163574,4.7429533730697635Q5.291599355163574,4.705263373069763,5.194999355163574,4.686043373069763Q5.098399355163574,4.666833373069763,4.999909355163574,4.666833373069763Q4.901419355163574,4.666833373069763,4.804819355163574,4.686043373069763Q4.708219355163574,4.705263373069763,4.617229355163574,4.7429533730697635Q4.526229355163574,4.780643373069763,4.444339355163574,4.835363373069763Q4.362449355163575,4.890073373069763,4.292799355163574,4.959723373069763Q4.223159355163574,5.0293633730697636,4.168439355163574,5.111263373069763Q4.113719355163575,5.193153373069763,4.076029355163574,5.284143373069764Q4.038339355163574,5.375143373069763,4.0191293551635745,5.4717433730697635Q3.9999093551635743,5.5683333730697635,3.9999093551635743,5.666833373069763Q3.9999093551635743,5.765323373069763,4.0191293551635745,5.8619233730697635Q4.038339355163574,5.9585133730697635,4.076029355163574,6.049513373069763Q4.113719355163575,6.140503373069763,4.168439355163574,6.222403373069763Q4.223159355163574,6.304293373069763,4.292799355163574,6.373933373069764Q4.362449355163575,6.443583373069763,4.444339355163574,6.498293373069763Q4.526229355163574,6.5530133730697635,4.617229355163574,6.590703373069763Q4.708219355163574,6.628403373069763,4.804819355163574,6.647613373069763Q4.901419355163574,6.666833373069763,4.999909355163574,6.666833373069763ZM13.941159355163574,11.203883373069763C13.960159355163574,11.217703373069764,13.979759355163575,11.230463373069764,13.999959355163574,11.242123373069763L13.999959355163574,12.007033373069763C13.999959355163574,12.743333373069763,13.408859355163575,13.333333373069763,12.672459355163575,13.333333373069763C10.328419355163573,13.333333373069763,7.984329355163574,13.333333373069763,5.640249355163574,13.333333373069763L5.433419355163574,13.333333373069763L3.327499355163574,13.333333373069763C2.667509355163574,13.333333373069763,2.124179355163574,12.859433373069763,2.0185693551635744,12.230933373069764C2.0382793551635743,12.218633373069764,2.057409355163574,12.205333373069763,2.075869355163574,12.190933373069763L4.652159355163574,10.187183373069763L5.834769355163575,11.172693373069762Q6.1908393551635745,11.469433373069764,6.654199355163574,11.481333373069763Q7.1175493551635745,11.493133373069764,7.4883493551635745,11.215063373069762L10.672659355163574,8.826823373069765L13.941159355163574,11.203883373069763Z" fill-rule="evenodd"></path></symbol>
</svg>