<svg xmlns="http://www.w3.org/2000/svg" xmlns:xlink="http://www.w3.org/1999/xlink" style="position: absolute; width: 0; height: 0" aria-hidden="true" id="__SVG_SPRITE_NODE__">
<symbol xmlns="http://www.w3.org/2000/svg" viewBox="0 0 24 24" id="pomoStatistics"><path d="M5.29668688,6.14827054 L5.31811944,6.12385394 C5.3955586,6.42416779 5.55239501,6.70920042 5.7880988,6.94797676 L5.91252052,7.06336684 L7.48317039,8.39354853 L7.12229572,10.2279217 C7.03597628,10.6649258 7.11783171,11.1152295 7.34835909,11.4968417 C7.83846813,12.3081649 8.86369426,12.6232595 9.74084537,12.3060661 L9.89396057,12.2434995 L11.9997701,11.2804253 L14.1089529,12.2456957 C14.4685492,12.4113163 14.8753941,12.467404 15.2706094,12.4074712 C16.276179,12.2549794 17.0241105,11.3791492 16.9039568,10.3710429 L16.8808207,10.2261917 L16.5201389,8.39525348 L18.0900503,7.06394528 C18.382321,6.81265134 18.5886107,6.48754634 18.6821819,6.12417128 C20.1228512,7.72052288 21,9.83475663 21,12.1538595 C21,17.1244222 16.9705627,21.1538595 12,21.1538595 C7.02943725,21.1538595 3,17.1244222 3,12.1538595 C3,9.84609819 3.86859043,7.74120708 5.29668688,6.14827054 L5.31811944,6.12385394 Z M11.9979077,2.00000163 C12.2849691,1.99944522 12.547187,2.14157764 12.6731289,2.36601229 L13.975633,4.6624162 L16.8878669,5.03018045 C17.3011048,5.08066944 17.5890576,5.41305825 17.5310255,5.77258992 C17.5079946,5.91527928 17.4317175,6.04743323 17.3139274,6.14872215 L15.2065668,7.93579533 L15.7041994,10.4619085 C15.7757237,10.8189343 15.5010462,11.1588064 15.0906912,11.2210356 C14.9258752,11.2460293 14.7561851,11.2226358 14.6083235,11.1545363 L11.9999391,9.96080552 L9.39493086,11.1521841 C9.02587776,11.3209423 8.56945995,11.1974528 8.37549346,10.876362 C8.29822957,10.7484603 8.27159909,10.6019604 8.29972732,10.4595568 L8.79668741,7.93344364 L6.689325,6.14872221 C6.39071636,5.89511493 6.38494664,5.47891553 6.67643618,5.21911576 C6.79225783,5.11588567 6.94389231,5.04866853 7.1079618,5.02782832 L10.0215408,4.66007554 L11.3226866,2.36601233 C11.448629,2.14157764 11.7108465,1.99944477 11.9979077,2.00000163 Z" fill-rule="nonzero"></path></symbol>
</svg>