<svg xmlns="http://www.w3.org/2000/svg" xmlns:xlink="http://www.w3.org/1999/xlink" style="position: absolute; width: 0; height: 0" aria-hidden="true" id="__SVG_SPRITE_NODE__">
<symbol xmlns="http://www.w3.org/2000/svg" fill="none" viewBox="0 0 216 216" id="pomo-get"><defs><linearGradient x1=".5" y1="0" x2=".5" y2="1" id="pomo-get_a"><stop offset="0%" stop-color="#FF9F73"></stop><stop offset="100%" stop-color="#F88F8F"></stop></linearGradient><linearGradient x1=".5" y1="0" x2=".5" y2="1" id="pomo-get_b"><stop offset="0%" stop-color="#00B9A0"></stop><stop offset="100%" stop-color="#00B9A0" stop-opacity=".1"></stop></linearGradient><linearGradient x1=".908" y1=".5" x2="0" y2=".5" id="pomo-get_c"><stop offset="0%" stop-color="#FFD800" stop-opacity=".2"></stop><stop offset="100%" stop-color="#FFB000"></stop></linearGradient></defs><g style="mix-blend-mode:passthrough"><g style="mix-blend-mode:passthrough"><rect x="42.323" y="57.063" width="132" height="117" rx="58.5" fill="url(#pomo-get_a)"></rect><path d="M110.79584927368164,44.26189933544922C110.95114927368164,44.388252335449216,111.09364927368165,44.529226335449216,111.22144927368164,44.68284133544922L117.12114927368164,51.77671133544922C117.65134927368163,52.414141335449216,118.41854927368163,52.81373133544922,119.24984927368163,52.88542133544922L129.83704927368166,53.79833133544922C131.33474927368164,53.92743133544922,132.44294927368165,55.23293133544922,132.31244927368164,56.71423133544922C132.23574927368165,57.58423133544922,131.73704927368163,58.36343133544922,130.97484927368163,58.80433133544922L125.67144927368165,61.87203133544922C124.44714927368165,62.58023133544922,123.86354927368164,64.01883133544922,124.25334927368164,65.36763133544922L125.48994927368165,69.64593133544922C125.96134927368163,71.27693133544922,125.00654927368164,72.97713133544922,123.35744927368164,73.44333133544922C122.77204927368163,73.60883133544922,122.15034927368164,73.60053133544922,121.56964927368165,73.41933133544921L111.62574927368163,70.31703133544922C109.80154927368164,69.74793133544922,107.84444927368165,69.74793133544922,106.02024927368164,70.31703133544922L96.07624927368164,73.41933133544921C94.44057927368164,73.92963133544922,92.69629927368165,73.03183133544923,92.18032927368164,71.41413133544921C91.99715927368165,70.83983133544922,91.98872927368164,70.22493133544921,92.15607927368164,69.64593133544922L93.39261927368165,65.36763133544922C93.78243927368165,64.01883133544922,93.19880927368165,62.58023133544922,91.97449927368164,61.87203133544922L86.67112927368164,58.80433133544922C85.37341177368164,58.05373133544922,84.93667727368164,56.40473133544922,85.69565327368164,55.12123133544922C86.14144427368164,54.36733133544922,86.92926927368164,53.87423133544922,87.80894927368163,53.79833133544922L98.39604927368164,52.88542133544922C99.22744927368164,52.81373133544922,99.99464927368165,52.414141335449216,100.52474927368164,51.77671133544922L106.42454927368163,44.68284133544922C107.51414927368164,43.37274133544922,109.47124927368164,43.184280335449216,110.79584927368164,44.26189933544922Z" fill-rule="evenodd" fill="url(#pomo-get_b)"></path></g><path d="M46.252969482421875,54.705720703124996L38.91967948242188,57.245920703125C37.736359482421875,57.655820703125,36.601441482421876,56.520920703125,37.011339482421874,55.337620703125L39.55155948242187,48.004220703125L37.011339482421874,40.670930703125C36.601441482421876,39.487610703125,37.736359482421875,38.352692703125,38.91967948242188,38.762590703125L46.252969482421875,41.302810703125L53.58636948242187,38.762590703125C54.769669482421875,38.352692703125,55.90456948242188,39.487610703125,55.49466948242188,40.670930703125L52.95446948242187,48.004220703125L55.49466948242188,55.337620703125C55.90456948242188,56.520920703125,54.769669482421875,57.655820703125,53.58636948242187,57.245920703125L46.252969482421875,54.705720703124996Z" fill-rule="evenodd" fill="url(#pomo-get_c)" transform="rotate(45 36 37.751)"></path><path d="M108.01975397507324,11.00004L108.76340457507324,11.00298L108.72383157507325,21.0029L107.98018117507324,20.99996L108.01975397507324,11.00004ZM123.25686757507324,12.19388L124.70606757507323,12.43422L123.06996757507324,22.29947L121.62076757507324,22.05913L123.25686757507324,12.19388ZM138.81436757507325,15.99842739L140.20956757507324,16.477458L136.96226757507324,25.93552L135.56706757507325,25.456490000000002L138.81436757507325,15.99842739ZM153.53166757507324,22.32984L154.82506757507323,23.03131L150.05776757507323,31.8218L148.76436757507324,31.1203L153.53166757507324,22.32984ZM166.97126757507323,30.9786Q167.58666757507325,31.450499999999998,168.19456757507325,31.9321L161.98426757507323,39.7699Q161.43876757507326,39.3378,160.88646757507325,38.9143L166.97126757507323,30.9786ZM178.83656757507325,41.733599999999996Q179.36646757507324,42.299800000000005,179.88766757507324,42.8748L172.47856757507324,49.5909Q172.01086757507323,49.0749,171.53516757507325,48.5665L178.83656757507325,41.733599999999996ZM188.78386757507326,54.289Q189.21376757507323,54.9344,189.63276757507325,55.5856L181.22276757507325,60.996Q180.84676757507324,60.4115,180.46126757507324,59.8329L188.78386757507326,54.289ZM196.54926757507326,68.3464L197.14296757507324,69.6978L187.98746757507325,73.71979999999999L187.39376757507324,72.36840000000001L196.54926757507326,68.3464ZM201.86666757507322,83.4569L202.22746757507326,84.8849L192.53206757507326,87.3343L192.17126757507324,85.9062L201.86666757507322,83.4569ZM204.61016757507326,99.2497L204.72956757507325,100.7075L194.76296757507325,101.5239L194.64356757507323,100.066L204.61016757507326,99.2497ZM204.72956757507325,115.2925L204.61016757507326,116.75L194.64356757507323,115.9339L194.76296757507325,114.4761L204.72956757507325,115.2925ZM202.22746757507326,131.115L201.86666757507322,132.543L192.17126757507324,130.094L192.53206757507326,128.666L202.22746757507326,131.115ZM197.14296757507324,146.302L196.54926757507326,147.654L187.39376757507324,143.632L187.98746757507325,142.28L197.14296757507324,146.302ZM189.63276757507325,160.414Q189.21356757507323,161.066,188.78386757507326,161.711L180.46126757507324,156.167Q180.84696757507322,155.588,181.22276757507325,155.004L189.63276757507325,160.414ZM179.88766757507324,173.125Q179.36676757507325,173.7,178.83646757507324,174.266L171.53516757507325,167.433Q172.01106757507324,166.925,172.47856757507324,166.409L179.88766757507324,173.125ZM168.19456757507325,184.068Q167.58626757507324,184.55,166.97116757507325,185.021L160.88656757507323,177.086Q161.43886757507323,176.662,161.98416757507323,176.23L168.19456757507325,184.068ZM154.82506757507323,192.969L153.53166757507324,193.67L148.76426757507323,184.88L150.05776757507323,184.178L154.82506757507323,192.969ZM140.20956757507324,199.523L138.81436757507325,200.002L135.56696757507325,190.544L136.96216757507324,190.064L140.20956757507324,199.523ZM124.70616757507324,203.566L123.25696757507325,203.806L121.62076757507324,193.941L123.06986757507325,193.701L124.70616757507324,203.566ZM108.76330257507324,204.997L108.01966577507324,205L107.98026937507325,195L108.72390657507324,194.997L108.76330257507324,204.997Z" fill="#FFB000"></path></g></symbol>
<symbol xmlns="http://www.w3.org/2000/svg" viewBox="0 0 24 24" id="pomo-settings"><path d="M22.392266015625,8.608273203125C22.392266015625,7.153123203125,21.602066015625,5.812773203125,20.328766015625,5.108293203125L13.936466015625,1.571465203125C12.731566015625,0.904777203125,11.268396015625,0.904777203125,10.063446015625,1.571465203125L3.671146015625,5.108293203125C2.397898015625,5.812773203125,1.607666015625,7.153123203125,1.607666015625,8.608273203125L1.607666015625,15.391733203125C1.607666015625,16.846833203125,2.3978990156249997,18.187233203125,3.671146015625,18.891733203125L10.063446015625,22.428533203125C11.268396015625,23.095233203125,12.731566015625,23.095233203125,13.936466015625,22.428533203125L20.328766015625,18.891733203125C21.602066015625,18.187233203125,22.392266015625,16.846833203125,22.392266015625,15.391733203125L22.392266015625,8.608273203125ZM12.968266015625,3.321453203125L19.360566015625,6.858283203125Q20.392266015625,7.429133203125,20.392266015625,8.608273203125L20.392266015625,15.391733203125Q20.392266015625,16.570833203124998,19.360566015625,17.141733203125L12.968266015625,20.678533203125Q11.999966015625,21.214233203125,11.031706015625,20.678533203125L4.639406015625,17.141733203125Q3.607666015625,16.570833203124998,3.607666015625,15.391733203125L3.607666015625,8.608273203125Q3.607666015625,7.429133203125,4.639406015625,6.858283203125L11.031706015625,3.321453203125Q11.999966015625,2.7857232031250003,12.968266015625,3.321453203125ZM11.999966015625,16.000033203125C14.209166015625,16.000033203125,15.999966015625,14.209133203125,15.999966015625,12.000033203125C15.999966015625,9.790863203125,14.209166015625,8.000003203125,11.999966015625,8.000003203125C9.790866015625,8.000003203125,7.999996015625,9.790863203125,7.999996015625,12.000033203125C7.999996015625,14.209133203125,9.790866015625,16.000033203125,11.999966015625,16.000033203125ZM13.414166015625,10.585783203125Q13.999966015625,11.171533203125,13.999966015625,12.000033203125Q13.999966015625,12.828433203125,13.414166015625,13.414233203125Q12.828466015625,14.000033203125,11.999966015625,14.000033203125Q11.171576015625,14.000033203125,10.585786015625,13.414233203125Q9.999996015625,12.828433203125,9.999996015625,12.000033203125Q9.999996015625,11.171533203125,10.585786015625,10.585783203125Q11.171576015625,10.000003203125,11.999966015625,10.000003203125Q12.828466015625,10.000003203125,13.414166015625,10.585783203125Z" fill-rule="evenodd"></path></symbol>
<symbol xmlns="http://www.w3.org/2000/svg" viewBox="0 0 48 48" id="pomo-start"><g fill-rule="evenodd"><path fill="none" d="M0 0H48V48H0z"></path><path d="M39.8046189,25.9969207 L17.7312805,40.7124797 C16.6284116,41.4477256 15.1383252,41.1497083 14.4030793,40.0468395 C14.1402513,39.6525974 14,39.1893789 14,38.715559 L14,9.28444102 C14,7.95895762 15.0745166,6.88444102 16.4,6.88444102 C16.87382,6.88444102 17.3370384,7.02469229 17.7312805,7.28752031 L39.8046189,22.0030793 C40.9074878,22.7383252 41.2055051,24.2284116 40.4702592,25.3312805 C40.2944955,25.594926 40.0682644,25.821157 39.8046189,25.9969207 Z"></path></g></symbol>
<symbol xmlns="http://www.w3.org/2000/svg" viewBox="0 0 40 40" id="pomo-stop"><g fill-rule="evenodd"><path fill="none" d="M0 0H40V40H0z"></path><path d="M10.4666667,7 L29.5333333,7 C31.4479205,7 33,8.55207953 33,10.4666667 L33,29.5333333 C33,31.4479205 31.4479205,33 29.5333333,33 L10.4666667,33 C8.55207953,33 7,31.4479205 7,29.5333333 L7,10.4666667 C7,8.55207953 8.55207953,7 10.4666667,7 Z"></path></g></symbol>
<symbol xmlns="http://www.w3.org/2000/svg" viewBox="0 0 36 36" id="pomo"><g fill-rule="evenodd"><path fill="none" d="M0 0H36V36H0z"></path><path d="M18,4.5 C25.4558441,4.5 31.5,10.5441559 31.5,18 C31.5,25.4558441 25.4558441,31.5 18,31.5 C10.5441559,31.5 4.5,25.4558441 4.5,18 C4.5,10.5441559 10.5441559,4.5 18,4.5 Z M18,9.5625 C13.3400974,9.5625 9.5625,13.3400974 9.5625,18 C9.5625,22.6599026 13.3400974,26.4375 18,26.4375 C22.6599026,26.4375 26.4375,22.6599026 26.4375,18 C26.4375,13.3400974 22.6599026,9.5625 18,9.5625 Z M18,12.9375 C20.7959415,12.9375 23.0625,15.2040585 23.0625,18 C23.0625,20.7959415 20.7959415,23.0625 18,23.0625 C15.2040585,23.0625 12.9375,20.7959415 12.9375,18 C12.9375,15.2040585 15.2040585,12.9375 18,12.9375 Z"></path></g></symbol>
</svg>