<svg xmlns="http://www.w3.org/2000/svg" xmlns:xlink="http://www.w3.org/1999/xlink" style="position: absolute; width: 0; height: 0" aria-hidden="true" id="__SVG_SPRITE_NODE__">
<symbol xmlns="http://www.w3.org/2000/svg" viewBox="0 0 64 64" id="ppt"><g fill="none" fill-rule="evenodd"><path d="M8,9.3420016 C8,7.12807525 9.81214523,5.33333333 11.9881206,5.33333333 L40,5.33333333 L56,21.3333333 L56,54.671346 C56,56.8779007 54.2347281,58.6666667 51.9901068,58.6666667 L12.0098932,58.6666667 C9.79529033,58.6666667 8,56.8921712 8,54.6579984 L8,9.3420016 Z" fill="#F57534"></path><path d="M27.5386667,49.445638 L27.5386667,41.0293333 L33.952,41.0293333 C39.88,41.0293333 42.8613333,38.4986667 42.8613333,33.4373333 C42.8613333,28.4106667 39.9146667,25.9146667 34.0213333,25.9146667 L23.76,25.9146667 L23.76,49.445638 L27.5386667,49.445638 Z M33.7093333,37.8053333 L27.5386667,37.8053333 L27.5386667,29.1386667 L33.7093333,29.1386667 C35.5466667,29.1386667 36.8986667,29.4853333 37.7653333,30.1786667 C38.632,30.8026667 39.0826667,31.912 39.0826667,33.4373333 C39.0826667,34.9626667 38.632,36.072 37.8,36.7653333 C36.9333333,37.4586667 35.5813333,37.8053333 33.7093333,37.8053333 Z" fill="#FFFFFF" fill-rule="nonzero"></path><path d="M40,5.33333333 L56,21.3333333 L41.5052412,21.3333333 C40.6739194,21.3333333 40,20.6662036 40,19.8280922 L40,5.33333333 Z" fill="#000000" opacity=".3"></path></g></symbol>
</svg>