<svg xmlns="http://www.w3.org/2000/svg" xmlns:xlink="http://www.w3.org/1999/xlink" style="position: absolute; width: 0; height: 0" aria-hidden="true" id="__SVG_SPRITE_NODE__">
<symbol xmlns="http://www.w3.org/2000/svg" viewBox="0 0 24 24" id="print-in-list"><path d="M19.3333,4L4.66667,4C4.66667,2.89543,5.5621,2,6.66667,2L17.3333,2C18.4379,2,19.3333,2.89543,19.3333,4ZM1,8.75L1,15.1716Q0.99999681541,16.828400000000002,2.22736,18Q2.85643,18.6005,3.61905,18.8932L3.61905,16.4953Q3.09524,15.937,3.09524,15.1716L3.09524,8.75Q3.09524,7.92157,3.70892,7.33579Q4.3225999999999996,6.75,5.19048,6.75L18.8095,6.75Q19.6774,6.75,20.2911,7.33579Q20.9048,7.92157,20.9048,8.75L20.9048,15.1716Q20.9047,15.9371,20.381,16.4953L20.381,18.8932Q21.1436,18.6005,21.7726,18Q23,16.8285,23,15.1716L23,8.75Q23,7.09314,21.7726,5.92157Q20.5453,4.75,18.8095,4.75L5.19048,4.75Q3.45472,4.75,2.22736,5.92157Q1,7.09315,1,8.75ZM18.2857,11L16.1905,11C15.6119,11,15.1429,10.55228,15.1429,10C15.1429,9.44772,15.6119,9,16.1905,9L18.2857,9C18.8643,9,19.3333,9.44772,19.3333,10C19.3333,10.55228,18.8643,11,18.2857,11ZM19.3333,15.7L19.3333,19.8Q19.3333,20.7113,18.6583,21.3556Q17.9832,22,17.0286,22L6.97143,22Q6.01677,22,5.34172,21.3556Q4.66667,20.7113,4.66667,19.8L4.66667,15.7Q4.66667,14.7887,5.34172,14.1444Q6.01677,13.5,6.97143,13.5L17.0286,13.5Q17.9832,13.5,18.6583,14.1444Q19.3333,14.7887,19.3333,15.7ZM17.2381,19.8L17.2381,15.7Q17.2381,15.5,17.0286,15.5L6.97143,15.5Q6.76191,15.5,6.76191,15.7L6.76191,19.8Q6.76191,20,6.97143,20L17.0286,20Q17.2381,20,17.2381,19.8Z" fill-rule="evenodd"></path></symbol>
</svg>