<svg xmlns="http://www.w3.org/2000/svg" xmlns:xlink="http://www.w3.org/1999/xlink" style="position: absolute; width: 0; height: 0" aria-hidden="true" id="__SVG_SPRITE_NODE__">
<symbol xmlns="http://www.w3.org/2000/svg" viewBox="0 0 36 36" id="profile_weibo"><g fill="#EA5D5C" fill-rule="nonzero"><path d="M15.8694047,16.9907707 C12.6299031,17.1153669 9.88878634,18.9843101 9.88878634,21.1024458 C9.88878634,23.2205814 12.5053069,24.9649285 15.8694047,24.8403323 C19.1089063,24.715736 21.8500231,22.5976004 21.8500231,20.3548685 C21.7254269,18.2367328 19.1089063,16.8661744 15.8694047,16.9907707 Z M18.1121366,22.5976004 C17.1153669,23.9681587 15.1218274,24.5911398 13.128288,23.4697739 C12.2561144,22.971389 12.2561144,21.9746193 12.2561144,21.9746193 C12.2561144,21.9746193 11.8823258,18.8597139 15.1218274,18.4859252 C18.4859252,18.1121366 19.1089063,21.227042 18.1121366,22.5976004 Z"></path><path d="M15.8694047,20.4794647 C15.6202123,20.6040609 15.6202123,20.9778496 15.7448085,21.1024458 C15.8694047,21.3516382 16.1185971,21.3516382 16.3677896,21.227042 C16.616982,21.1024458 16.616982,20.7286571 16.4923858,20.6040609 C16.3677896,20.3548685 16.1185971,20.3548685 15.8694047,20.4794647 Z M14.2496539,20.8532533 C13.6266728,20.9778496 13.2528842,21.4762344 13.2528842,21.9746193 C13.2528842,22.4730042 13.751269,22.8467928 14.3742501,22.8467928 C14.9972312,22.7221966 15.4956161,22.3484079 15.4956161,21.7254269 C15.4956161,21.1024458 14.9972312,20.8532533 14.2496539,20.8532533 Z"></path><path d="M18,36 C27.9411255,36 36,27.9411255 36,18 C36,8.0588745 27.9411255,0 18,0 C8.0588745,0 0,8.0588745 0,18 C0,27.9411255 8.0588745,36 18,36 Z M24.8984772,21.9851378 C23.4708122,24.954871 18.8451777,26.4968478 15.5329949,26.2112965 L14.9750804,26.1551946 L14.9750804,26.1551946 L14.4015344,26.0830446 L14.4015344,26.0830446 L13.8179829,25.9922249 C11.080148,25.52076 8.19925293,24.3537901 7.74829261,21.2924567 L7.70368865,20.8862659 L7.70368865,20.8862659 L7.70026732,20.6820259 L7.70026732,20.6820259 L7.70939086,20.4780199 L7.70939086,20.4780199 L7.73473403,20.2241041 L7.73473403,20.2241041 L7.78237918,19.9240218 C7.91416364,19.2265333 8.24582119,18.2303142 9.05574652,17.1066953 L9.46030555,16.5649794 L9.46030555,16.5649794 L9.77111727,16.1745695 L9.77111727,16.1745695 L10.0476098,15.8460374 L10.0476098,15.8460374 L10.3750718,15.476536 C10.5509084,15.2834912 10.7444255,15.0794665 10.9534737,14.8710372 L11.3916414,14.4502539 C12.3068455,13.6047346 13.4476195,12.7588781 14.6763959,12.3335052 C17.0520305,11.5111175 17.6733503,12.4066063 17.8268528,13.3240254 L17.8562267,13.5528556 C17.8597462,13.5907429 17.8626396,13.628423 17.865,13.6657731 L17.8743655,13.9897025 L17.8743655,13.9897025 L17.829359,14.2884938 L17.829359,14.2884938 L17.7669056,14.6477549 C17.7058121,15.0556288 17.7769483,15.1789395 18.5025381,15.017687 L18.8086294,14.8961564 L18.8086294,14.8961564 L19.0738234,14.8024115 L19.0738234,14.8024115 L19.3995411,14.6997191 C20.3363452,14.4239232 21.7690355,14.1724553 22.5,14.9034665 C23.0770772,15.4805807 22.9707735,16.2627222 22.8141154,16.7607029 L22.7345209,16.9837485 L22.7345209,16.9837485 L22.664118,17.1458453 L22.664118,17.1458453 L22.6142132,17.2449869 L22.6142132,17.2449869 L22.5748796,17.294438 C22.4979605,17.4084504 22.3857868,17.6937103 23.0139594,17.8731997 C23.133699,17.8731997 23.300978,17.9029136 23.4913557,17.9652171 L23.7293321,18.0558083 C24.6720846,18.4644502 25.8967414,19.5870248 25.0243547,21.7034264 L24.8984772,21.9851378 Z M22.1002538,13.7612615 C21.8147208,13.7612615 21.5862944,13.5328205 21.5862944,13.2472692 C21.5862944,12.8974689 21.8049056,12.7662938 22.0125863,12.7389656 L22.3852172,12.7018913 L22.3852172,12.7018913 L22.5828644,12.6936613 L22.5828644,12.6936613 L22.8168469,12.6966603 L22.8168469,12.6966603 L23.078168,12.7169564 C24.0754703,12.8305027 25.4426695,13.4152405 25.1840102,15.8172306 L25.1840102,15.9314511 C25.1840102,16.1598921 24.8984772,16.4454433 24.6700508,16.4454433 C24.2703046,16.4454433 24.1560914,16.1598921 24.1560914,15.9314511 L24.1467629,15.8996937 L24.1467629,15.8996937 L24.1401177,15.7915147 L24.1401177,15.7915147 L24.1483364,15.3241234 L24.1483364,15.3241234 L24.1411995,15.0870089 L24.1411995,15.0870089 L24.1164734,14.8375868 C24.0141737,14.123752 23.6066865,13.3929988 22.1002538,13.7612615 Z M27.9822335,17.3592074 C27.9060914,17.7780159 27.7538071,17.8160894 27.5423012,17.7949375 L27.2802652,17.7631104 C27.2485723,17.7605655 27.2160533,17.7589792 27.1827411,17.7589792 C26.6687817,17.7589792 26.4403553,17.1307664 26.4403553,16.7309946 C26.4403553,16.5810802 26.4564166,16.4311658 26.4764931,16.3023331 L26.5184308,16.0790231 L26.5184308,16.0790231 L26.5545685,15.9314511 L26.5545685,15.9314511 L26.6205323,15.6037035 C26.695853,15.1680708 26.752762,14.3357234 26.2690355,13.2472692 C25.3509371,11.6613614 23.7924169,11.2343862 22.9083336,11.1640057 L22.653102,11.152698 L22.653102,11.152698 L22.4519097,11.1594826 L22.4519097,11.1594826 L22.3139584,11.1787447 C22.2967478,11.1826829 22.2825556,11.186907 22.2715736,11.1913001 L21.5291878,11.4768514 L21.5291878,11.4768514 C21.0152284,11.4768514 20.7296954,11.0770796 20.7296954,10.6773078 C20.7296954,10.2775361 21.0152284,10.0490951 21.357868,9.8777643 L21.4720812,9.8777643 C21.6258298,9.83383333 21.8893987,9.80679889 22.2302967,9.80315964 L22.674413,9.81043814 C23.1514883,9.82977817 23.7212027,9.88655049 24.3274112,9.9919848 C26.2706218,10.3806518 29.1314597,12.7126538 28.0818861,16.9879907 L27.9822335,17.3592074 Z"></path></g></symbol>
</svg>