<svg xmlns="http://www.w3.org/2000/svg" xmlns:xlink="http://www.w3.org/1999/xlink" style="position: absolute; width: 0; height: 0" aria-hidden="true" id="__SVG_SPRITE_NODE__">
<symbol xmlns="http://www.w3.org/2000/svg" viewBox="0 0 36 36" id="profile_qq"><path d="M18,802 C27.9411255,802 36,810.058875 36,820 C36,829.941125 27.9411255,838 18,838 C8.0588745,838 0,829.941125 0,820 C0,810.058875 8.0588745,802 18,802 Z M18.0000251,810.1 C14.30254,810.1 11.6966156,813.079104 11.9815374,818.201231 C11.7779426,818.581588 10.6460843,821.452375 10.2899487,822.660471 C9.93381305,823.868567 9.72014943,825.867205 10.1029875,825.947153 C10.4858255,826.027102 11.7856606,824.001799 11.7856606,824.001799 C11.8746834,826.471253 13.7710423,827.803686 13.7265309,827.803686 C13.6820195,827.803686 11.5719969,828.443249 11.9637284,829.065066 C12.3554598,829.686883 17.4035013,829.313784 18.0000029,829.251604 C18.5965046,829.313784 23.6445461,829.68686 24.0362775,829.065066 C24.4280089,828.443271 22.3179864,827.803686 22.273475,827.803686 C22.2289635,827.803686 24.1253225,826.471253 24.2143453,824.001799 C24.2143453,824.001799 25.5142025,826.027102 25.8970184,825.947153 C26.2798564,825.867205 26.0661706,823.868545 25.7100572,822.660471 C25.3539438,821.452398 24.2198455,818.566828 24.0184685,818.201231 C24.2826759,813.422087 21.9539775,810.1 18.0000251,810.1 Z" transform="translate(0 -802)" fill="#44A5F4" fill-rule="evenodd"></path></symbol>
</svg>