<svg xmlns="http://www.w3.org/2000/svg" xmlns:xlink="http://www.w3.org/1999/xlink" style="position: absolute; width: 0; height: 0" aria-hidden="true" id="__SVG_SPRITE_NODE__">
<symbol xmlns="http://www.w3.org/2000/svg" viewBox="0 0 36 36" id="profile_wechat"><path d="M18,750 C27.9411255,750 36,758.058875 36,768 C36,777.941125 27.9411255,786 18,786 C8.0588745,786 0,777.941125 0,768 C0,758.058875 8.0588745,750 18,750 Z M22.2896084,764.9917 C18.4386489,764.9917 15.4064273,767.595506 15.4064273,770.789484 C15.4064273,773.988248 18.4386488,776.585545 22.2896084,776.585545 C23.0949466,776.585545 23.9079418,776.385694 24.7176828,776.18546 L26.9378662,777.385523 L26.3289333,775.388353 C27.9528181,774.185802 29.1632181,772.59044 29.1632181,770.789484 C29.1632181,767.595506 25.9259771,764.9917 22.2896084,764.9917 Z M14.3918583,759 C9.94326009,759 6.3,761.99317 6.3,765.794358 C6.3,767.98755 7.5115486,769.789463 9.53743245,771.187272 L8.7284572,773.590077 L11.5569992,772.190164 C12.5696539,772.387334 13.3816921,772.590248 14.3916669,772.590248 C14.645692,772.590248 14.8978028,772.578188 15.1476165,772.558663 C14.9893055,772.024578 14.8978028,771.465225 14.8978028,770.884815 C14.8979943,767.39508 17.9327043,764.56271 21.7779211,764.56271 C22.0399862,764.56271 22.2995627,764.581661 22.5570335,764.609418 C21.8569809,761.39132 18.3710747,759 14.3918583,759 Z M20.0583222,768.191421 C20.6701265,768.191421 21.0705941,768.592463 21.0705941,768.989868 C21.0705941,769.394356 20.6701265,769.789463 20.0583222,769.789463 C19.6551746,769.789463 19.2491555,769.394164 19.2491555,768.989868 C19.2491555,768.592463 19.6551746,768.191421 20.0583222,768.191421 Z M24.5097918,768.191421 C25.1158533,768.191421 25.5220638,768.592463 25.5220638,768.989868 C25.5220638,769.394356 25.1156619,769.789463 24.5097918,769.789463 C24.1093242,769.789463 23.7054109,769.394164 23.7054109,768.989868 C23.7054109,768.592463 24.1093242,768.191421 24.5097918,768.191421 Z M17.4263769,762.396892 C18.0358841,762.396892 18.4386489,762.792191 18.4386489,763.393658 C18.4386489,763.992446 18.0358841,764.394062 17.4263769,764.394062 C16.8199326,764.394062 16.2117655,763.992446 16.2117655,763.393658 C16.2117655,762.792191 16.8197412,762.396892 17.4263769,762.396892 Z M11.7629758,762.396892 C12.369803,762.396892 12.7729506,762.792191 12.7729506,763.393658 C12.7727592,763.992446 12.369803,764.394062 11.7629758,764.394062 C11.1561487,764.394062 10.5443444,763.992445 10.5443444,763.393658 C10.5443444,762.792191 11.1563401,762.396892 11.7629758,762.396892 Z" transform="translate(0 -750)" fill="#07C160" fill-rule="evenodd"></path></symbol>
</svg>