<svg xmlns="http://www.w3.org/2000/svg" xmlns:xlink="http://www.w3.org/1999/xlink" style="position: absolute; width: 0; height: 0" aria-hidden="true" id="__SVG_SPRITE_NODE__">
<symbol xmlns="http://www.w3.org/2000/svg" viewBox="0 0 24 24" id="project_permission_comment"><path d="M12,10.33333Q12.1145,10.33333,12.229,10.32771Q12.3434,10.32209,12.4574,10.31086Q12.5714,10.29963,12.6847,10.28282Q12.798,10.26601,12.9104,10.24366Q13.0228,10.22131,13.1339,10.19348Q13.245,10.16564,13.3546,10.13239Q13.4643,10.09913,13.5721,10.06054Q13.68,10.02194,13.7858,9.9781Q13.8917,9.93426,13.9952,9.88528Q14.0988,9.8363,14.1998,9.7823Q14.3009,9.7283,14.3991,9.6694Q14.4974,9.6105,14.5926,9.54686Q14.6879,9.48321,14.7799,9.41497Q14.8719,9.34673,14.9605,9.27405Q15.049,9.20137,15.1339,9.12444Q15.2188,9.04751,15.2998,8.9665Q15.3808,8.88549,15.4578,8.800609999999999Q15.5347,8.71573,15.6074,8.62717Q15.68,8.53861,15.7483,8.4466Q15.8165,8.35458,15.8802,8.25933Q15.9438,8.164069999999999,16.0027,8.065809999999999Q16.0616,7.96755,16.1156,7.86652Q16.169600000000003,7.76549,16.218600000000002,7.66192Q16.2676,7.55836,16.3114,7.45252Q16.3553,7.34668,16.393900000000002,7.23882Q16.4324,7.13096,16.4657,7.02133Q16.499000000000002,6.9117,16.5268,6.80057Q16.5546,6.68945,16.576999999999998,6.57709Q16.5993,6.46473,16.6161,6.35141Q16.6329,6.23809,16.644199999999998,6.12408Q16.6554,6.01007,16.661,5.89565Q16.666600000000003,5.78123,16.666600000000003,5.66667Q16.666600000000003,5.55211,16.661,5.43768Q16.6554,5.32326,16.644199999999998,5.20925Q16.6329,5.09524,16.6161,4.981920000000001Q16.5993,4.8686,16.576999999999998,4.75625Q16.5546,4.64389,16.5268,4.53276Q16.499000000000002,4.42163,16.4657,4.31201Q16.4324,4.20238,16.393900000000002,4.09451Q16.3553,3.98665,16.3114,3.88081Q16.2676,3.77497,16.218600000000002,3.67141Q16.169600000000003,3.56785,16.1156,3.46681Q16.0616,3.36578,16.0027,3.26752Q15.9438,3.16926,15.8802,3.07401Q15.8165,2.97875,15.7483,2.88674Q15.68,2.79472,15.6074,2.7061599999999997Q15.5347,2.61761,15.4578,2.5327200000000003Q15.3808,2.4478400000000002,15.2998,2.36683Q15.2188,2.28583,15.1339,2.2088900000000002Q15.049,2.1319600000000003,14.9605,2.05928Q14.8719,1.986608,14.7799,1.918365Q14.6879,1.8501210000000001,14.5926,1.786475Q14.4974,1.722829,14.3991,1.663933Q14.3009,1.605037,14.1998,1.551034Q14.0988,1.497031,13.9952,1.44805Q13.8917,1.399069,13.7858,1.355229Q13.68,1.311388,13.5721,1.272794Q13.4643,1.2342,13.3546,1.200945Q13.245,1.16769,13.1339,1.139854Q13.0228,1.112018,12.9104,1.0896687Q12.798,1.0673191,12.6847,1.0505096Q12.5714,1.0337001,12.4574,1.0224713Q12.3434,1.0112424,12.229,1.0056212Q12.1145,1,12,1Q11.8854,1,11.771,1.0056212Q11.6566,1.0112424,11.5426,1.0224713Q11.42856,1.0337001,11.31524,1.0505096Q11.20192,1.0673191,11.08956,1.0896687Q10.9772,1.112018,10.86607,1.139854Q10.75494,1.16769,10.64532,1.200945Q10.53569,1.2342,10.42783,1.272794Q10.31996,1.311388,10.21412,1.355229Q10.10828,1.399069,10.00472,1.44805Q9.90116,1.497031,9.80013,1.551034Q9.69909,1.605037,9.60083,1.663933Q9.50257,1.722829,9.40732,1.786475Q9.312059999999999,1.8501210000000001,9.22005,1.918365Q9.128029999999999,1.986608,9.039480000000001,2.05928Q8.95092,2.1319600000000003,8.86604,2.2088900000000002Q8.78115,2.28583,8.70015,2.36683Q8.61914,2.4478400000000002,8.54221,2.5327200000000003Q8.46527,2.61761,8.3926,2.7061599999999997Q8.31992,2.79472,8.25168,2.88674Q8.183430000000001,2.97875,8.11979,3.07401Q8.05614,3.16926,7.99724,3.26752Q7.93835,3.36578,7.88435,3.46682Q7.83034,3.56785,7.78136,3.67141Q7.73238,3.77497,7.68854,3.88081Q7.6447,3.98665,7.60611,4.09451Q7.56751,4.20238,7.53426,4.31201Q7.501,4.42163,7.47317,4.53276Q7.44533,4.64389,7.42298,4.75625Q7.40063,4.8686,7.38382,4.981920000000001Q7.36701,5.09525,7.35578,5.20925Q7.34456,5.32326,7.33893,5.43768Q7.33331,5.55211,7.33331,5.66667Q7.33331,5.78123,7.33893,5.89565Q7.34456,6.01007,7.35578,6.12408Q7.36701,6.23809,7.38382,6.35141Q7.40063,6.46473,7.42298,6.57709Q7.44533,6.68945,7.47317,6.80057Q7.501,6.9117,7.53426,7.02133Q7.56751,7.13096,7.60611,7.23882Q7.6447,7.34668,7.68854,7.45252Q7.73238,7.55836,7.78136,7.66192Q7.83034,7.76548,7.88435,7.86652Q7.93835,7.96755,7.99725,8.065809999999999Q8.05614,8.164069999999999,8.11979,8.25933Q8.183430000000001,8.35458,8.25168,8.4466Q8.31992,8.53861,8.3926,8.62717Q8.46527,8.715720000000001,8.54221,8.800609999999999Q8.61914,8.88549,8.70015,8.9665Q8.78115,9.0475,8.86604,9.12444Q8.95092,9.20137,9.039480000000001,9.27405Q9.128029999999999,9.34672,9.22005,9.41497Q9.312059999999999,9.48321,9.40732,9.54686Q9.50257,9.6105,9.60083,9.6694Q9.69909,9.72829,9.80013,9.7823Q9.90116,9.8363,10.00472,9.88528Q10.10828,9.93426,10.21412,9.9781Q10.31996,10.02194,10.42783,10.06054Q10.53569,10.09913,10.64532,10.13239Q10.75494,10.16564,10.86607,10.19348Q10.9772,10.22131,11.08956,10.24366Q11.20192,10.26601,11.31524,10.28282Q11.42856,10.29963,11.5426,10.31086Q11.6566,10.32209,11.771,10.32771Q11.8854,10.33333,12,10.33333ZM13.8856,3.78105Q14.6666,4.5621,14.6666,5.66667Q14.6666,6.77124,13.8856,7.55229Q13.1045,8.33333,12,8.33333Q10.89541,8.33333,10.11436,7.55229Q9.33331,6.77124,9.33331,5.66667Q9.33331,4.5621,10.11436,3.78105Q10.89541,3,12,3Q13.1045,3,13.8856,3.78105ZM5.5,23.0001C3.29086,23.0001,1.5,21.2092,1.5,19.0001C1.5,14.5818,5.08172,11.6667,9.5,11.6667L14.5036,11.6667C15.5667,11.6667,16.5815,11.8355,17.5095,12.1534C18.6477,12.5433,18.2312,13.8576,17.028100000000002,13.8575L16.332700000000003,13.8575C16.1119,13.8575,15.8939,13.8276,15.6774,13.7845C15.2887,13.7072,14.8949,13.6668,14.5036,13.6667L9.5,13.6667C6.57195,13.6669,3.5,15.929,3.5,19.0001Q3.5,19.8285,4.085789999999999,20.4143Q4.67157,21.0001,5.5,21.0001L10.33333,21.0001C10.88562,21.0001,11.33333,21.4478,11.33333,22.0001C11.33333,22.5524,10.88562,23.0001,10.33333,23.0001L5.5,23.0001ZM16.819699999999997,23.1612C16.633,23.0229,16.3951,22.9467,16.1492,22.9467L14.1555,22.9467C13.327,22.9467,12.6667,22.2808,12.6667,21.4524L12.6667,16.4488C12.6667,15.6204,13.3383,14.9333,14.1667,14.9333L22.5,14.9333C23.3285,14.9333,24,15.6204,24,16.4488L24,21.4524C24,22.2808,23.3397,22.9467,22.5113,22.9467L20.5175,22.9467C20.2716,22.9467,20.0337,23.0229,19.847,23.1612Q19.3637,23.4616,18.5491,23.8953C18.4141,23.9615,18.2527,23.9615,18.1176,23.8953Q17.3031,23.4618,16.819699999999997,23.1612ZM15.912,18.1039L20.7547,18.1039C21.1245,18.1039,21.4243,17.8041,21.4243,17.4343C21.4243,17.0645,21.1245,16.764699999999998,20.7547,16.764699999999998L15.912,16.764699999999998C15.5422,16.764699999999998,15.2425,17.0645,15.2425,17.4343C15.2425,17.8041,15.5422,18.1039,15.912,18.1039ZM15.8401,19.6908L18.766,19.6908C19.0961,19.6908,19.3637,19.9584,19.3637,20.2885C19.3637,20.6186,19.0961,20.8862,18.766,20.8862L15.8401,20.8862C15.51,20.8862,15.2425,20.6186,15.2425,20.2885C15.2425,19.9584,15.51,19.6908,15.8401,19.6908Z" fill-rule="evenodd"></path></symbol>
</svg>