<svg xmlns="http://www.w3.org/2000/svg" xmlns:xlink="http://www.w3.org/1999/xlink" style="position: absolute; width: 0; height: 0" aria-hidden="true" id="__SVG_SPRITE_NODE__">
<symbol xmlns="http://www.w3.org/2000/svg" viewBox="0 0 24 24" id="project_permission_write"><path d="M12,10.33333C14.5773,10.33333,16.666600000000003,8.244,16.666600000000003,5.66667C16.666600000000003,3.08934,14.5773,1,12,1C9.42265,1,7.33331,3.08934,7.33331,5.66667C7.33331,8.244,9.42265,10.33333,12,10.33333ZM13.8856,3.78105Q14.6666,4.5621,14.6666,5.66667Q14.6666,6.77124,13.8856,7.55229Q13.1045,8.33333,12,8.33333Q10.89541,8.33333,10.11436,7.55229Q9.33331,6.77124,9.33331,5.66667Q9.33331,4.5621,10.11436,3.78105Q10.89541,3,12,3Q13.1045,3,13.8856,3.78105ZM19.8273,10.73574C19.7336,10.88569,19.3645,11.578,19.2838,11.7358C19.2601,11.7822,19.2363,11.8279,19.2122,11.8741C19.1582,11.9777,19.1799,12.0987,19.2627,12.1428L20.7427,12.9341L22.2163,13.7381C22.2986,13.7831,22.4106,13.7349,22.4676,13.633C22.4931,13.5875,22.5189,13.5423,22.5447,13.497C22.6324,13.343,23.0085,12.6545,23.0826,12.4939C23.5091,11.5267,22.5399,11.0044,21.9767,10.701L21.9547,10.68909C21.9445,10.68362,21.9341,10.67806,21.9237,10.67243C21.3591,10.36855,20.4,9.85229,19.8273,10.73574ZM14.5071,13.6667L9.5,13.6667C6.57195,13.6669,3.5,15.929,3.5,19.0001Q3.5,19.8285,4.085789999999999,20.4143Q4.67157,21.0001,5.5,21.0001L12.5,21C13.0523,21,13.5,21.4477,13.5,22C13.5,22.5523,13.0523,23,12.5,23L5.5,23.0001C3.29086,23.0001,1.5,21.2092,1.5,19.0001C1.5,14.5818,5.08172,11.6667,9.5,11.6667L14.5071,11.6667Q15.1134,11.6667,15.919,11.8314C16.365299999999998,11.9227,16.672800000000002,12.3278,16.6715,12.7833C16.6693,13.5273,15.8941,13.9547,15.1754,13.7622C14.9537,13.7028,14.7302,13.6667,14.5071,13.6667ZM15.4193,23.4426L17.4458,22.2369C17.8041,22.0237,18.1126,21.6967,18.3246,21.3042L21.8113,14.8476C21.8681,14.7465,21.8338,14.6187,21.752,14.5742L20.2958,13.7821L20.2868,13.7775L20.2781,13.7737L18.818,12.9892C18.736,12.9452,18.6095,12.9865,18.5561,13.0894L15.069,19.5458C14.857,19.9383,14.7519,20.3752,14.7701,20.7917L14.8733,23.1477C14.8858,23.4333,15.1736,23.5888,15.4193,23.4426Z" fill-rule="evenodd"></path></symbol>
</svg>