<svg xmlns="http://www.w3.org/2000/svg" xmlns:xlink="http://www.w3.org/1999/xlink" style="position: absolute; width: 0; height: 0" aria-hidden="true" id="__SVG_SPRITE_NODE__">
<symbol xmlns="http://www.w3.org/2000/svg" viewBox="0 0 22 22" id="question-sidebar"><path d="M10.999966686534881,21.08336668653488Q11.247566686534881,21.08336668653488,11.49476668653488,21.07116668653488Q11.741966686534882,21.05906668653488,11.988366686534881,21.03476668653488Q12.234666686534881,21.010566686534883,12.479566686534882,20.974166686534883Q12.724366686534882,20.937866686534882,12.967166686534881,20.88956668653488Q13.209966686534882,20.841266686534883,13.450066686534882,20.78116668653488Q13.690166686534882,20.720966686534883,13.927066686534882,20.649166686534883Q14.163866686534881,20.57726668653488,14.396966686534881,20.493866686534883Q14.630066686534882,20.410466686534882,14.858766686534882,20.315766686534882Q15.087366686534882,20.221066686534883,15.311166686534882,20.11526668653488Q15.534966686534881,20.009366686534882,15.753266686534882,19.89266668653488Q15.971566686534882,19.776066686534882,16.183866686534884,19.64876668653488Q16.396166686534883,19.521466686534882,16.60196668653488,19.383966686534883Q16.807766686534883,19.24646668653488,17.00666668653488,19.098966686534883Q17.20546668653488,18.951566686534882,17.396766686534882,18.794566686534882Q17.588166686534883,18.637466686534882,17.771566686534882,18.471266686534882Q17.95496668653488,18.305066686534882,18.129966686534882,18.129966686534882Q18.305066686534882,17.95496668653488,18.471266686534882,17.771566686534882Q18.637466686534882,17.588166686534883,18.794566686534882,17.396766686534882Q18.951566686534882,17.20546668653488,19.098966686534883,17.00666668653488Q19.24646668653488,16.807766686534883,19.383966686534883,16.60196668653488Q19.521466686534882,16.396166686534883,19.64876668653488,16.183866686534884Q19.776066686534882,15.971566686534882,19.89266668653488,15.753266686534882Q20.009366686534882,15.534966686534881,20.11526668653488,15.311166686534882Q20.221066686534883,15.087366686534882,20.315766686534882,14.858766686534882Q20.410466686534882,14.630066686534882,20.493866686534883,14.396966686534881Q20.57726668653488,14.163866686534881,20.649166686534883,13.927066686534882Q20.720966686534883,13.690166686534882,20.78116668653488,13.450066686534882Q20.841266686534883,13.209966686534882,20.88956668653488,12.967166686534881Q20.937866686534882,12.724366686534882,20.974166686534883,12.479566686534882Q21.010566686534883,12.234666686534881,21.03476668653488,11.988366686534881Q21.05906668653488,11.741966686534882,21.07116668653488,11.49476668653488Q21.08336668653488,11.247566686534881,21.08336668653488,10.999966686534881Q21.08336668653488,10.752466686534882,21.07116668653488,10.505236686534882Q21.05906668653488,10.25799668653488,21.03476668653488,10.011666686534882Q21.010566686534883,9.76531668653488,20.974166686534883,9.520466686534881Q20.937866686534882,9.275616686534882,20.88956668653488,9.032836686534882Q20.841266686534883,8.790066686534882,20.78116668653488,8.54994668653488Q20.720966686534883,8.309836686534881,20.649166686534883,8.072966686534881Q20.57726668653488,7.836086686534881,20.493866686534883,7.603026686534881Q20.410466686534882,7.369966686534881,20.315766686534882,7.141276686534882Q20.221066686534883,6.9125866865348815,20.11526668653488,6.6888166865348815Q20.009366686534882,6.465056686534882,19.89266668653488,6.246746686534881Q19.776066686534882,6.028446686534882,19.64876668653488,5.816126686534882Q19.521466686534882,5.6038166865348815,19.383966686534883,5.397996686534881Q19.24646668653488,5.192186686534882,19.098966686534883,4.993366686534881Q18.951566686534882,4.794546686534882,18.794566686534882,4.603196686534881Q18.637466686534882,4.411856686534882,18.471266686534882,4.228446686534882Q18.305066686534882,4.045036686534882,18.129966686534882,3.8700066865348814Q17.95496668653488,3.6949766865348814,17.771566686534882,3.5287466865348818Q17.588166686534883,3.3625066865348816,17.396766686534882,3.2054766865348814Q17.20546668653488,3.0484466865348816,17.00666668653488,2.900986686534882Q16.807766686534883,2.753536686534882,16.60196668653488,2.6160166865348815Q16.396166686534883,2.4784966865348816,16.183866686534884,2.3512366865348815Q15.971566686534882,2.223976686534882,15.753266686534882,2.1072966865348817Q15.534966686534881,1.9906066865348815,15.311166686534882,1.8847746865348816Q15.087366686534882,1.7789406865348816,14.858766686534882,1.6842146865348817Q14.630066686534882,1.5894886865348816,14.396966686534881,1.5060976865348816Q14.163866686534881,1.4227066865348816,13.927066686534882,1.3508516865348816Q13.690166686534882,1.2789966865348816,13.450066686534882,1.2188516865348815Q13.209966686534882,1.1587056865348817,12.967166686534881,1.1104146865348816Q12.724366686534882,1.0621236865348815,12.479566686534882,1.0258036865348816Q12.234666686534881,0.9894830865348816,11.988366686534881,0.9652206865348816Q11.741966686534882,0.9409582865348816,11.49476668653488,0.9288124865348816Q11.247566686534881,0.9166666865348816,10.999966686534881,0.9166666865348816Q10.752466686534882,0.9166666865348816,10.505236686534882,0.9288124865348816Q10.25799668653488,0.9409582865348816,10.011666686534882,0.9652206865348816Q9.76531668653488,0.9894830865348816,9.520466686534881,1.0258036865348816Q9.275616686534882,1.0621236865348815,9.032836686534882,1.1104146865348816Q8.790066686534882,1.1587056865348817,8.54994668653488,1.2188516865348815Q8.309836686534881,1.2789966865348816,8.072966686534881,1.3508516865348816Q7.836086686534881,1.4227066865348816,7.603026686534881,1.5060976865348816Q7.369966686534881,1.5894886865348816,7.141276686534882,1.6842146865348817Q6.9125866865348815,1.7789406865348816,6.6888166865348815,1.8847746865348816Q6.465056686534882,1.9906066865348815,6.246746686534881,2.1072966865348817Q6.028446686534882,2.223976686534882,5.816126686534882,2.3512366865348815Q5.6038166865348815,2.4784966865348816,5.397996686534881,2.6160166865348815Q5.192186686534882,2.753536686534882,4.993366686534881,2.900986686534882Q4.794546686534882,3.0484466865348816,4.603196686534881,3.2054766865348814Q4.411856686534882,3.3625066865348816,4.228446686534882,3.5287466865348818Q4.045036686534882,3.6949766865348814,3.8700066865348814,3.8700066865348814Q3.6949766865348814,4.045036686534882,3.5287466865348818,4.228446686534882Q3.3625066865348816,4.411856686534882,3.2054766865348814,4.603196686534881Q3.0484466865348816,4.794546686534882,2.900986686534882,4.993366686534881Q2.753536686534882,5.192186686534882,2.6160166865348815,5.397996686534881Q2.4784966865348816,5.6038166865348815,2.3512366865348815,5.816126686534882Q2.223976686534882,6.028446686534882,2.1072966865348817,6.246746686534881Q1.9906066865348815,6.465056686534882,1.8847746865348816,6.6888166865348815Q1.7789406865348816,6.9125866865348815,1.6842146865348817,7.141276686534882Q1.5894886865348816,7.369966686534881,1.5060976865348816,7.603026686534881Q1.4227066865348816,7.836086686534881,1.3508516865348816,8.072966686534881Q1.2789966865348816,8.309836686534881,1.2188516865348815,8.54994668653488Q1.1587056865348817,8.790066686534882,1.1104146865348816,9.032836686534882Q1.0621236865348815,9.275616686534882,1.0258036865348816,9.520466686534881Q0.9894830865348816,9.76531668653488,0.9652206865348816,10.011666686534882Q0.9409582865348816,10.25799668653488,0.9288124865348816,10.505236686534882Q0.9166666865348816,10.752466686534882,0.9166666865348816,10.999966686534881Q0.9166666865348816,11.247566686534881,0.9288124865348816,11.49476668653488Q0.9409582865348816,11.741966686534882,0.9652206865348816,11.988366686534881Q0.9894830865348816,12.234666686534881,1.0258036865348816,12.479566686534882Q1.0621236865348815,12.724366686534882,1.1104146865348816,12.967166686534881Q1.1587056865348817,13.209966686534882,1.2188516865348815,13.450066686534882Q1.2789966865348816,13.690166686534882,1.3508516865348816,13.927066686534882Q1.4227066865348816,14.163866686534881,1.5060976865348816,14.396966686534881Q1.5894886865348816,14.630066686534882,1.6842146865348817,14.858766686534882Q1.7789406865348816,15.087366686534882,1.8847746865348816,15.311166686534882Q1.9906066865348815,15.534966686534881,2.1072966865348817,15.753266686534882Q2.223976686534882,15.971566686534882,2.3512366865348815,16.183866686534884Q2.4784966865348816,16.396166686534883,2.6160166865348815,16.60196668653488Q2.753536686534882,16.807766686534883,2.900986686534882,17.00666668653488Q3.0484466865348816,17.20546668653488,3.2054766865348814,17.396766686534882Q3.3625066865348816,17.588166686534883,3.5287466865348818,17.771566686534882Q3.6949766865348814,17.95496668653488,3.8700066865348814,18.129966686534882Q4.045036686534882,18.305066686534882,4.228446686534882,18.471266686534882Q4.411856686534882,18.637466686534882,4.603196686534881,18.794566686534882Q4.794546686534882,18.951566686534882,4.993366686534881,19.098966686534883Q5.192186686534882,19.24646668653488,5.397996686534881,19.383966686534883Q5.6038166865348815,19.521466686534882,5.816126686534882,19.64876668653488Q6.028446686534882,19.776066686534882,6.246746686534881,19.89266668653488Q6.465056686534882,20.009366686534882,6.6888166865348815,20.11526668653488Q6.9125866865348815,20.221066686534883,7.141276686534882,20.315766686534882Q7.369966686534881,20.410466686534882,7.603026686534881,20.493866686534883Q7.836086686534881,20.57726668653488,8.072966686534881,20.649166686534883Q8.309836686534881,20.720966686534883,8.54994668653488,20.78116668653488Q8.790066686534882,20.841266686534883,9.032836686534882,20.88956668653488Q9.275616686534882,20.937866686534882,9.520466686534881,20.974166686534883Q9.76531668653488,21.010566686534883,10.011666686534882,21.03476668653488Q10.25799668653488,21.05906668653488,10.505236686534882,21.07116668653488Q10.752466686534882,21.08336668653488,10.999966686534881,21.08336668653488ZM7.771106686534882,8.548996686534881L7.827026686534881,8.093516686534882Q7.988806686534882,6.7759966865348815,9.036966686534882,5.957366686534882Q10.084926686534882,5.138896686534881,11.402366686534881,5.300666686534882Q12.709566686534881,5.461166686534882,13.527766686534882,6.4965066865348815Q14.345166686534881,7.530926686534881,14.200366686534881,8.838126686534881L14.198166686534881,8.856786686534882L14.195866686534881,8.875516686534882Q14.092266686534881,9.664726686534882,13.702366686534882,10.355516686534882Q13.302866686534882,11.06106668653488,12.665766686534882,11.55876668653488Q12.284566686534882,11.857066686534882,12.17536668653488,12.056566686534882Q12.066666686534882,12.254966686534882,12.004266686534882,12.762966686534881C11.942566686534882,13.265466686534882,11.485166686534882,13.62276668653488,10.982766686534882,13.56106668653488C10.480236686534882,13.499366686534882,10.122906686534881,13.042066686534882,10.184596686534881,12.539566686534881Q10.289806686534881,11.682766686534881,10.567286686534882,11.175966686534881Q10.857726686534882,10.645596686534882,11.537066686534882,10.114116686534881Q11.887066686534881,9.840696686534882,12.105766686534881,9.454376686534882Q12.320866686534881,9.073326686534882,12.376166686534882,8.652086686534883L12.378466686534882,8.633356686534881L12.37816668653488,8.636276686534881Q12.440166686534882,8.077116686534882,12.089366686534882,7.633206686534882Q11.738366686534881,7.189016686534882,11.178966686534881,7.120326686534882Q10.615046686534882,7.051096686534882,10.165436686534882,7.402246686534881Q9.71590668653488,7.753336686534881,9.64669668653488,8.316946686534882L9.590776686534882,8.772426686534882C9.529076686534882,9.274916686534882,9.07171668653488,9.63224668653488,8.569226686534883,9.57054668653488C8.066736686534881,9.508846686534882,7.709406686534882,9.051486686534881,7.771106686534882,8.548996686534881ZM12.077666686534881,15.582466686534882Q12.077666686534881,15.638766686534881,12.072166686534882,15.694766686534882Q12.066566686534882,15.75086668653488,12.055666686534881,15.806066686534882Q12.044666686534882,15.861266686534881,12.02826668653488,15.915066686534882Q12.011966686534882,15.968966686534882,11.990366686534882,16.020966686534884Q11.96886668653488,16.072966686534883,11.942366686534882,16.12266668653488Q11.915766686534882,16.172266686534883,11.884566686534882,16.21906668653488Q11.853266686534882,16.26586668653488,11.817566686534882,16.30936668653488Q11.781866686534881,16.35286668653488,11.742066686534882,16.392766686534884Q11.702266686534882,16.432566686534884,11.658666686534882,16.468266686534882Q11.61516668653488,16.50396668653488,11.568366686534882,16.53516668653488Q11.521566686534882,16.56646668653488,11.471966686534882,16.593066686534883Q11.422266686534881,16.61956668653488,11.370266686534881,16.64106668653488Q11.318266686534882,16.662666686534884,11.264466686534881,16.67896668653488Q11.210566686534882,16.695366686534882,11.155366686534881,16.70626668653488Q11.100166686534882,16.71726668653488,11.044066686534881,16.722766686534882Q10.988066686534882,16.728366686534883,10.931766686534882,16.728366686534883Q10.875516686534882,16.728366686534883,10.819486686534882,16.722766686534882Q10.763476686534881,16.71726668653488,10.708256686534881,16.70626668653488Q10.653056686534882,16.695366686534882,10.599186686534882,16.67896668653488Q10.545316686534882,16.662666686534884,10.493306686534881,16.64106668653488Q10.441306686534881,16.61956668653488,10.391656686534882,16.593066686534883Q10.342016686534881,16.56646668653488,10.29520668653488,16.53516668653488Q10.248406686534882,16.50396668653488,10.204896686534882,16.468266686534882Q10.161376686534881,16.432566686534884,10.121576686534882,16.392766686534884Q10.081766686534882,16.35286668653488,10.046056686534882,16.30936668653488Q10.010346686534882,16.26586668653488,9.979076686534881,16.21906668653488Q9.94779668653488,16.172266686534883,9.921266686534882,16.12266668653488Q9.89472668653488,16.072966686534883,9.873186686534881,16.020966686534884Q9.851646686534881,15.968966686534882,9.835306686534881,15.915066686534882Q9.818966686534882,15.861266686534881,9.807986686534882,15.806066686534882Q9.797006686534882,15.75086668653488,9.791486686534881,15.694766686534882Q9.785966686534882,15.638766686534881,9.785966686534882,15.582466686534882Q9.785966686534882,15.526166686534882,9.791486686534881,15.470166686534881Q9.797006686534882,15.414166686534882,9.807986686534882,15.358966686534881Q9.818966686534882,15.303766686534882,9.835306686534881,15.249866686534881Q9.851646686534881,15.19596668653488,9.873186686534881,15.143966686534881Q9.89472668653488,15.091966686534882,9.921266686534882,15.042366686534882Q9.94779668653488,14.992666686534882,9.979076686534881,14.945866686534881Q10.010346686534882,14.899066686534882,10.046056686534882,14.855566686534882Q10.081766686534882,14.812066686534882,10.121576686534882,14.772266686534882Q10.161376686534881,14.732466686534881,10.204896686534882,14.69676668653488Q10.248406686534882,14.661066686534882,10.29520668653488,14.629766686534882Q10.342016686534881,14.598466686534882,10.391656686534882,14.571966686534882Q10.441306686534881,14.545466686534882,10.493306686534881,14.523866686534882Q10.545316686534882,14.50236668653488,10.599186686534882,14.485966686534882Q10.653056686534882,14.469666686534882,10.708256686534881,14.458666686534881Q10.763476686534881,14.447666686534882,10.819496686534881,14.44216668653488Q10.875516686534882,14.436666686534881,10.931766686534882,14.436666686534881Q10.988066686534882,14.436666686534881,11.044066686534881,14.44216668653488Q11.100166686534882,14.447666686534882,11.155366686534881,14.458666686534881Q11.210566686534882,14.469666686534882,11.264466686534881,14.485966686534882Q11.318266686534882,14.50236668653488,11.370266686534881,14.523866686534882Q11.422266686534881,14.545466686534882,11.471966686534882,14.571966686534882Q11.521566686534882,14.598466686534882,11.568366686534882,14.629766686534882Q11.61516668653488,14.661066686534882,11.658666686534882,14.69676668653488Q11.702266686534882,14.732466686534881,11.742066686534882,14.772266686534882Q11.781866686534881,14.812066686534882,11.817566686534882,14.855566686534882Q11.853266686534882,14.899066686534882,11.884566686534882,14.945866686534881Q11.915766686534882,14.992666686534882,11.942366686534882,15.042366686534882Q11.96886668653488,15.091966686534882,11.990366686534882,15.143966686534881Q12.011966686534882,15.19596668653488,12.02826668653488,15.249866686534881Q12.044666686534882,15.303766686534882,12.055666686534881,15.358966686534881Q12.066566686534882,15.414166686534882,12.072166686534882,15.470166686534881Q12.077666686534881,15.526166686534882,12.077666686534881,15.582466686534882Z" fill-rule="evenodd"></path></symbol>
<symbol xmlns="http://www.w3.org/2000/svg" viewBox="0 0 20 20" id="question"><path d="M10,2.5c4.1,0,7.5,3.4,7.5,7.5s-3.4,7.5-7.5,7.5c-4.1,0-7.5-3.4-7.5-7.5S5.9,2.5,10,2.5z M9.9,5.9c-0.9,0-1.6,0.3-2.2,0.8 C7.1,7.2,6.9,7.9,6.9,8.9h1.4c0-0.5,0.1-1,0.3-1.2c0.2-0.3,0.6-0.5,1.2-0.5c0.4,0,0.8,0.1,1,0.3c0.2,0.2,0.3,0.6,0.3,1 c0,0.3-0.1,0.6-0.3,0.9l-0.2,0.2c-0.8,0.7-1.3,1.2-1.5,1.6c-0.2,0.3-0.2,0.8-0.2,1.2v0.2h1.4v-0.2c0-0.3,0.1-0.6,0.2-0.8 c0.1-0.2,0.3-0.4,0.5-0.6c0.6-0.5,1-0.9,1.1-1c0.3-0.4,0.5-0.9,0.5-1.5c0-0.8-0.2-1.4-0.8-1.8C11.4,6.1,10.7,5.9,9.9,5.9z M9.6,13.1 c-0.3,0-0.5,0.1-0.7,0.3c-0.2,0.2-0.3,0.4-0.3,0.7c0,0.3,0.1,0.5,0.3,0.7C9.1,14.9,9.4,15,9.6,15c0.3,0,0.5-0.1,0.7-0.3 c0.2-0.2,0.3-0.4,0.3-0.7c0-0.3-0.1-0.5-0.3-0.7C10.2,13.2,9.9,13.1,9.6,13.1z"></path></symbol>
</svg>