<svg xmlns="http://www.w3.org/2000/svg" xmlns:xlink="http://www.w3.org/1999/xlink" style="position: absolute; width: 0; height: 0" aria-hidden="true" id="__SVG_SPRITE_NODE__">
<symbol xmlns="http://www.w3.org/2000/svg" viewBox="0 0 16 16" id="quickaddStyle"><path d="M4.66669,1.6666663730697633L4.66669,2.333333373069763Q4.66669,2.366163373069763,4.67309,2.3983633730697633Q4.6795,2.430563373069763,4.69206,2.460893373069763Q4.70462,2.4912233730697633,4.72286,2.518523373069763Q4.741099999999999,2.545823373069763,4.76432,2.569033373069763Q4.78753,2.592253373069763,4.814830000000001,2.6104933730697635Q4.84213,2.628733373069763,4.87246,2.641293373069763Q4.9027899999999995,2.6538533730697633,4.93499,2.660263373069763Q4.96719,2.6666633730697633,5.00002,2.6666633730697633L6,2.6666633730697633L6,13.333333373069763L5.00002,13.333333373069763Q4.96719,13.333333373069763,4.93499,13.339733373069762Q4.9027899999999995,13.346133373069764,4.87246,13.358733373069763Q4.84213,13.371233373069764,4.814830000000001,13.389533373069764Q4.78753,13.407733373069764,4.76432,13.430933373069763Q4.741099999999999,13.454133373069762,4.72286,13.481433373069763Q4.70462,13.508733373069763,4.69206,13.539133373069763Q4.6795,13.569433373069764,4.67309,13.601633373069763Q4.66669,13.633833373069763,4.66669,13.666633373069763L4.66669,14.333333373069763Q4.66669,14.366133373069763,4.67309,14.398333373069763Q4.6795,14.430533373069764,4.69206,14.460933373069762Q4.70462,14.491233373069763,4.72286,14.518533373069763Q4.741099999999999,14.545833373069764,4.76432,14.569033373069763Q4.78753,14.592233373069764,4.814830000000001,14.610533373069764Q4.84213,14.628733373069764,4.87246,14.641333373069763Q4.9027899999999995,14.653833373069762,4.93499,14.660233373069763Q4.96719,14.666633373069763,5.00002,14.666633373069763L6,14.666633373069763L7.33333,14.666633373069763L8.33335,14.666633373069763Q8.36618,14.666633373069763,8.39838,14.660233373069763Q8.430579999999999,14.653833373069762,8.46091,14.641333373069763Q8.49125,14.628733373069764,8.51854,14.610533373069764Q8.54584,14.592233373069764,8.56906,14.569033373069763Q8.59227,14.545833373069764,8.61051,14.518533373069763Q8.62875,14.491233373069763,8.64131,14.460933373069762Q8.653880000000001,14.430533373069764,8.66028,14.398333373069763Q8.66669,14.366133373069763,8.66669,14.333333373069763L8.66669,13.666633373069763Q8.66669,13.633833373069763,8.66028,13.601633373069763Q8.653880000000001,13.569433373069764,8.64131,13.539133373069763Q8.62875,13.508733373069763,8.61051,13.481433373069763Q8.59227,13.454133373069762,8.56906,13.430933373069763Q8.54584,13.407733373069764,8.51854,13.389533373069764Q8.49125,13.371233373069764,8.46091,13.358733373069763Q8.430579999999999,13.346133373069764,8.39838,13.339733373069762Q8.36618,13.333333373069763,8.33335,13.333333373069763L7.33333,13.333333373069763L7.33333,2.6666633730697633L8.33335,2.6666633730697633Q8.36618,2.6666633730697633,8.39838,2.660263373069763Q8.430579999999999,2.6538533730697633,8.46091,2.641293373069763Q8.49125,2.628733373069763,8.51854,2.6104933730697635Q8.54584,2.592253373069763,8.56906,2.569033373069763Q8.59227,2.545823373069763,8.61051,2.518523373069763Q8.62875,2.4912233730697633,8.64131,2.460893373069763Q8.653880000000001,2.430563373069763,8.66028,2.3983633730697633Q8.66669,2.366163373069763,8.66669,2.333333373069763L8.66669,1.6666663730697633Q8.66669,1.6338363730697631,8.66028,1.6016363730697631Q8.653880000000001,1.5694373730697633,8.64131,1.5391053730697632Q8.62875,1.5087743730697631,8.61051,1.481476373069763Q8.59227,1.4541793730697632,8.56906,1.4309644730697633Q8.54584,1.4077497730697632,8.51854,1.3895101730697632Q8.49125,1.3712705730697632,8.46091,1.3587068730697631Q8.430579999999999,1.3461431730697633,8.39838,1.3397382830697633Q8.36618,1.3333333730697632,8.33335,1.3333333730697632L5.00002,1.3333333730697632Q4.96719,1.3333333730697632,4.93499,1.3397382830697633Q4.9027899999999995,1.3461431730697633,4.87246,1.3587068730697631Q4.84213,1.3712705730697632,4.814830000000001,1.3895101730697632Q4.78753,1.4077497730697632,4.76432,1.4309644730697633Q4.741099999999999,1.4541793730697632,4.72286,1.481476373069763Q4.70462,1.5087743730697631,4.69206,1.5391053730697632Q4.6795,1.5694373730697633,4.67309,1.6016363730697631Q4.66669,1.6338363730697631,4.66669,1.6666663730697633ZM3,3.333333373069763L5.33331,3.333333373069763L5.33331,4.666663373069763L3,4.666663373069763Q2.72386,4.666663373069763,2.52861,4.861943373069764Q2.3333399999999997,5.057203373069763,2.33333,5.333333373069763L2.33333,10.666663373069763Q2.33333,10.942813373069763,2.52861,11.138063373069762Q2.72387,11.333323373069764,3,11.333333373069763L5.33331,11.333333373069763L5.33331,12.666633373069763L3,12.666633373069763C1.89543,12.666633373069763,1,11.771233373069764,1,10.666663373069763L1,5.333333373069763C1,4.228763373069763,1.89543,3.333333373069763,3,3.333333373069763ZM13,11.333333373069763L7.99998,11.333333373069763L7.99998,12.666633373069763L13,12.666633373069763C14.1046,12.666633373069763,15,11.771233373069764,15,10.666663373069763L15,5.333333373069763C15,4.228763373069763,14.1046,3.333333373069763,13,3.333333373069763L7.99998,3.333333373069763L7.99998,4.666663373069763L13,4.666663373069763Q13.2761,4.666673373069763,13.4714,4.861943373069764Q13.6667,5.057193373069763,13.6667,5.333333373069763L13.6667,10.666663373069763Q13.6667,10.942803373069763,13.4714,11.138063373069762Q13.2761,11.333333373069763,13,11.333333373069763Z" fill-rule="evenodd"></path></symbol>
</svg>