<svg xmlns="http://www.w3.org/2000/svg" xmlns:xlink="http://www.w3.org/1999/xlink" style="position: absolute; width: 0; height: 0" aria-hidden="true" id="__SVG_SPRITE_NODE__">
<symbol xmlns="http://www.w3.org/2000/svg" viewBox="0 0 42 7" id="range-drag-handle"><path d="M1,1v5h35c2.8,0,5-2.2,5-5H1z M0,0h42v1c0,3.3-2.7,6-6,6H0V0z" fill-opacity=".24"></path><path d="M21.5,5C21.2,5,21,4.8,21,4.5S21.2,4,21.5,4S22,4.2,22,4.5S21.8,5,21.5,5z M23.5,5 C23.2,5,23,4.8,23,4.5S23.2,4,23.5,4S24,4.2,24,4.5S23.8,5,23.5,5z M25.5,5C25.2,5,25,4.8,25,4.5S25.2,4,25.5,4S26,4.2,26,4.5 S25.8,5,25.5,5z M15.5,3C15.2,3,15,2.8,15,2.5S15.2,2,15.5,2S16,2.2,16,2.5S15.8,3,15.5,3z M17.5,3C17.2,3,17,2.8,17,2.5 S17.2,2,17.5,2S18,2.2,18,2.5S17.8,3,17.5,3z M15.5,5C15.2,5,15,4.8,15,4.5S15.2,4,15.5,4S16,4.2,16,4.5S15.8,5,15.5,5z M17.5,5 C17.2,5,17,4.8,17,4.5S17.2,4,17.5,4S18,4.2,18,4.5S17.8,5,17.5,5z M19.5,3C19.2,3,19,2.8,19,2.5S19.2,2,19.5,2S20,2.2,20,2.5 S19.8,3,19.5,3z M19.5,5C19.2,5,19,4.8,19,4.5S19.2,4,19.5,4S20,4.2,20,4.5S19.8,5,19.5,5z M21.5,3C21.2,3,21,2.8,21,2.5 S21.2,2,21.5,2S22,2.2,22,2.5S21.8,3,21.5,3z M23.5,3C23.2,3,23,2.8,23,2.5S23.2,2,23.5,2S24,2.2,24,2.5S23.8,3,23.5,3z M25.5,3 C25.2,3,25,2.8,25,2.5S25.2,2,25.5,2S26,2.2,26,2.5S25.8,3,25.5,3z" fill-opacity=".54"></path></symbol>
<symbol xmlns="http://www.w3.org/2000/svg" viewBox="0 0 20 20" id="range-next"><path d="M13.240016889190674,10.586773349227904L7.939256889190673,15.887533349227905C7.613816889190674,16.212933349227903,7.086181889190674,16.212933349227903,6.760744889190674,15.887533349227905C6.435307589190674,15.562133349227905,6.435307589190674,15.034433349227905,6.760744889190674,14.709033349227905L11.474806889190674,9.994963349227906L6.760768889190674,5.280923349227905C6.435331789190673,4.955483349227905,6.435331789190673,4.427848349227905,6.760768889190674,4.102411349227905C6.917048889190674,3.946130749227905,7.129010889190674,3.8583333492279053,7.350024889190674,3.8583333492279053C7.571036889190674,3.8583333492279053,7.782996889190674,3.946130749227905,7.9392768891906735,4.102411349227905L13.242576889190673,9.405713349227906C13.568016889190673,9.731153349227906,13.568016889190673,10.258783349227905,13.242576889190673,10.584223349227905L13.240016889190674,10.586773349227904Z" fill-rule="evenodd"></path></symbol>
<symbol xmlns="http://www.w3.org/2000/svg" viewBox="0 0 20 20" id="range-prev"><path d="M33.24001736602783,10.586773587646483L27.93925736602783,15.887533587646484C27.61381736602783,16.212933587646482,27.08618236602783,16.212933587646482,26.76074536602783,15.887533587646484C26.435308066027833,15.562133587646484,26.435308066027833,15.034433587646484,26.76074536602783,14.709033587646484L31.474807366027832,9.994963587646485L26.760769366027834,5.280923587646484C26.43533226602783,4.9554835876464844,26.43533226602783,4.427848587646484,26.760769366027834,4.102411587646484C26.917049366027832,3.9461309876464843,27.129011366027832,3.8583335876464844,27.350025366027833,3.8583335876464844C27.57103736602783,3.8583335876464844,27.782997366027832,3.9461309876464843,27.93927736602783,4.102411587646484L33.24257736602783,9.405713587646485C33.56801736602783,9.731153587646485,33.56801736602783,10.258783587646484,33.24257736602783,10.584223587646484L33.24001736602783,10.586773587646483Z" fill-rule="evenodd" transform="matrix(-1 0 0 1 40 0)"></path></symbol>
</svg>