<svg xmlns="http://www.w3.org/2000/svg" xmlns:xlink="http://www.w3.org/1999/xlink" style="position: absolute; width: 0; height: 0" aria-hidden="true" id="__SVG_SPRITE_NODE__">
<symbol xmlns="http://www.w3.org/2000/svg" viewBox="0 0 40 40" id="reddit"><path d="M24.165,23.4536266 C23.1185,23.4536266 22.239125,22.5525416 22.239125,21.4415131 C22.239125,20.3304845 23.1185,19.399673 24.165,19.399673 C25.2115,19.399673 26.06025,20.3304845 26.06025,21.4415131 C26.06025,22.5525416 25.2115,23.4536266 24.165,23.4536266 M24.6095,27.3589477 C23.63475,28.3928731 22.1315,28.895437 20.014,28.895437 C20.009625,28.895437 20.004375,28.894508 19.999125,28.894508 C19.99475,28.894508 19.9895,28.895437 19.98425,28.895437 C17.86675,28.895437 16.364375,28.3928731 15.3905,27.3589477 C15.09125,27.0412455 15.09125,26.5275342 15.3905,26.210761 C15.688875,25.8939878 16.17275,25.8939878 16.472,26.210761 C17.144,26.9241974 18.292875,27.271626 19.98425,27.271626 C19.9895,27.271626 19.99475,27.272555 19.999125,27.272555 C20.004375,27.272555 20.009625,27.271626 20.014,27.271626 C21.705375,27.271626 22.855125,26.9241974 23.528,26.210761 C23.82725,25.8930589 24.311125,25.8939878 24.6095,26.210761 C24.907875,26.5284631 24.907875,27.0421745 24.6095,27.3589477 M13.93975,21.4415131 C13.93975,20.3314135 14.817375,19.399673 15.863,19.399673 C16.9095,19.399673 17.75825,20.3314135 17.75825,21.4415131 C17.75825,22.5525416 16.9095,23.4536266 15.863,23.4536266 C14.817375,23.4536266 13.93975,22.5525416 13.93975,21.4415131 M29.331,8.62381094 C30.03975,8.62381094 30.616375,9.23599138 30.616375,9.98751486 C30.616375,10.7399673 30.03975,11.3521477 29.331,11.3521477 C28.62225,11.3521477 28.045625,10.7399673 28.045625,9.98751486 C28.045625,9.23599138 28.62225,8.62381094 29.331,8.62381094 M34,19.2315324 C34,17.2612218 32.490625,15.6587768 30.63475,15.6587768 C29.8315,15.6587768 29.093875,15.9597577 28.514625,16.4604637 C26.46275,15.0911861 23.85875,14.2662753 21.0675,14.091632 L22.5235,9.20440696 L26.524875,10.20489 C26.629875,11.7515978 27.847875,12.9759587 29.331,12.9759587 C30.882375,12.9759587 32.145,11.6354786 32.145,9.98751486 C32.145,8.34048008 30.882375,7 29.331,7 C28.246,7 27.30275,7.65584126 26.832875,8.61359245 L22.183125,7.45147146 C21.79375,7.35393133 21.4,7.59174346 21.27925,7.99676724 L19.4715,14.0628344 C16.464125,14.1408665 13.637,14.9685642 11.434625,16.4177319 C10.86325,15.9430366 10.144875,15.6587768 9.36525,15.6587768 C7.509375,15.6587768 6,17.2612218 6,19.2315324 C6,20.4493906 6.5775,21.5260479 7.456875,22.1707417 C7.420125,22.4540725 7.400875,22.7392613 7.400875,23.0281659 C7.400875,25.4908219 8.74925,27.7816216 11.1975,29.4778909 C13.54425,31.1044887 16.6505,32 19.943125,32 C23.23575,32 26.342,31.1044887 28.68875,29.4778909 C31.137,27.7816216 32.485375,25.4908219 32.485375,23.0281659 C32.485375,22.765272 32.46875,22.504236 32.438125,22.245058 C33.376125,21.6105826 34,20.4967672 34,19.2315324" fill-rule="evenodd"></path></symbol>
</svg>