<svg xmlns="http://www.w3.org/2000/svg" xmlns:xlink="http://www.w3.org/1999/xlink" style="position: absolute; width: 0; height: 0" aria-hidden="true" id="__SVG_SPRITE_NODE__">
<symbol xmlns="http://www.w3.org/2000/svg" viewBox="0 0 18 18" id="reduce-btn"><g style="mix-blend-mode:passthrough"><path d="M18,9C18,4.02944,13.9706,0,9,0C4.02944,0,0,4.02944,0,9C0,13.9706,4.02944,18,9,18C13.9706,18,18,13.9706,18,9ZM4.5,9.37501C4.5,9.58212,4.66789,9.75001,4.875,9.75001C7.48027,9.74943,8.36093,9.74918,9.2416,9.74921C10.0654,9.74924,10.8893,9.74952,13.125,9.75001C13.3321,9.75001,13.5,9.58212,13.5,9.37501L13.5,8.62501C13.5,8.41791,13.3321,8.25001,13.125,8.25001C10.8857,8.24952,10.0619,8.24924,9.23813,8.24921C8.3584,8.24918,7.47868,8.24943,4.875,8.25001C4.66789,8.25001,4.5,8.41791,4.5,8.62501L4.5,9.37501Z" fill-rule="evenodd"></path></g></symbol>
</svg>