<svg xmlns="http://www.w3.org/2000/svg" xmlns:xlink="http://www.w3.org/1999/xlink" style="position: absolute; width: 0; height: 0" aria-hidden="true" id="__SVG_SPRITE_NODE__">
<symbol xmlns="http://www.w3.org/2000/svg" viewBox="0 0 24 24" id="release-note"><path d="M2.48299,12.5714L1.190476,10.84807C1.0694,10.68664,1.00272984,10.49092,1.0000819706,10.28914L1,10.27664C1,9.97687,1.141137,9.694600000000001,1.380952,9.51474C1.542387,9.39366,1.738108,9.32699,1.9398840000000002,9.324349999999999L1.952381,9.324259999999999C2.18741,9.324259999999999,2.4141399999999997,9.41117,2.58896,9.56827Q2.77529,8.824729999999999,3.07876,8.10726Q3.83787,6.31251,5.22145,4.928929999999999Q6.60503,3.54535,8.39977,2.786241Q10.25865,2,12.2925,2Q14.3264,2,16.185299999999998,2.786241Q17.98,3.54535,19.3636,4.928929999999999Q20.7472,6.31251,21.5063,8.10726Q22.2925,9.96614,22.2925,12Q22.2925,14.0339,21.5063,15.8927Q20.7472,17.6875,19.3636,19.0711Q17.98,20.4546,16.185299999999998,21.2138Q14.3264,22,12.2925,22C11.7665,22,11.3401,21.5736,11.3401,21.0476C11.3401,20.5216,11.7665,20.0952,12.2925,20.0952Q15.6457,20.0952,18.0167,17.7242Q20.3878,15.3532,20.3878,12Q20.3878,8.646840000000001,18.0167,6.2758Q15.6457,3.90476,12.2925,3.90476Q8.93936,3.90476,6.56832,6.2758Q4.97454,7.86958,4.4520800000000005,9.90711C4.60501,9.80848,4.7829999999999995,9.75573,4.96499,9.75511L4.968249999999999,9.755099999999999C5.01332,9.755099999999999,5.05833,9.7583,5.10294,9.764669999999999C5.35299,9.80039,5.57861,9.93399,5.73016,10.13605C5.85123,10.29749,5.91791,10.49321,5.92055,10.69499L5.92063,10.70748C5.92063,11.00725,5.7795,11.28953,5.53945,11.46956L3.81633,12.7619C3.65147,12.8855,3.45096,12.9524,3.2449,12.9524C2.95798,12.9524,2.68636,12.823,2.50551,12.6003C2.49782,12.5908,2.49031,12.5812,2.48299,12.5714ZM16.7915,11.20431Q17.0635,10.93234,17.0635,10.54769Q17.0635,10.16306,16.7915,9.89107Q16.5195,9.61909,16.134900000000002,9.61914L8.595220000000001,9.61914Q8.2106,9.61914,7.93862,9.891110000000001Q7.66665,10.16308,7.66665,10.54771Q7.66665,10.93234,7.93862,11.20431Q8.2106,11.47628,8.595220000000001,11.47628L16.134900000000002,11.47624Q16.5195,11.47624,16.7915,11.20431ZM14.9661,15.371Q15.2381,15.099,15.2381,14.7144Q15.2381,14.3297,14.9661,14.0577Q14.6941,13.7858,14.3095,13.7858L8.59523,13.7858Q8.2106,13.7858,7.93863,14.0578Q7.66665,14.3298,7.66665,14.7144Q7.66665,15.099,7.93863,15.371Q8.2106,15.643,8.59523,15.643L11.9286,15.643L14.3095,15.6429Q14.6941,15.6429,14.9661,15.371Z" fill-rule="evenodd"></path></symbol>
</svg>