<svg xmlns="http://www.w3.org/2000/svg" xmlns:xlink="http://www.w3.org/1999/xlink" style="position: absolute; width: 0; height: 0" aria-hidden="true" id="__SVG_SPRITE_NODE__">
<symbol xmlns="http://www.w3.org/2000/svg" viewBox="0 0 24 24" id="rename"><g fill-rule="evenodd"><path fill="none" d="M0 0H24V24H0z"></path><path d="M15.4158254,8.62029891 C15.7719554,8.97642892 15.7719554,9.55382975 15.4158254,9.90995976 L10.9805145,14.3452706 C10.81093,14.5148551 10.6122265,14.6525557 10.3938938,14.7517959 L9.54189305,15.1390617 C9.29705222,15.2503508 9.0083518,15.1420858 8.89706263,14.897245 C8.83886598,14.7692099 8.83886598,14.6222663 8.89706263,14.4942312 L9.28432835,13.6422305 C9.38356861,13.4238977 9.52126916,13.2251943 9.69085366,13.0556098 L14.1261645,8.62029891 C14.4822945,8.26416889 15.0596954,8.26416889 15.4158254,8.62029891 Z M10.1541722,1.55376046e-16 C11.4914503,-9.02779573e-17 11.9763797,0.139238417 12.4652686,0.400699056 C12.9541574,0.662159695 13.3378403,1.04584256 13.5993009,1.53473144 C13.8607616,2.02362033 14,2.50854969 14,3.8458278 L14,6.693 L6.693,14 L3.8458278,14 C2.50854969,14 2.02362033,13.8607616 1.53473144,13.5993009 C1.04584256,13.3378403 0.662159695,12.9541574 0.400699056,12.4652686 C0.139238417,11.9763797 6.01853049e-17,11.4914503 -1.03584031e-16,10.1541722 L1.03584031e-16,3.8458278 C-6.01853049e-17,2.50854969 0.139238417,2.02362033 0.400699056,1.53473144 C0.662159695,1.04584256 1.04584256,0.662159695 1.53473144,0.400699056 C2.02362033,0.139238417 2.50854969,9.02779573e-17 3.8458278,-1.55376046e-16 L10.1541722,1.55376046e-16 Z M10,3 L4,3 L4,4.18417462 L6.24034335,4.18417462 L6.24034335,10 L7.76480687,10 L7.76480687,4.18417462 L10,4.18417462 L10,3 Z" transform="translate(4 5)"></path></g></symbol>
</svg>