<svg xmlns="http://www.w3.org/2000/svg" xmlns:xlink="http://www.w3.org/1999/xlink" style="position: absolute; width: 0; height: 0" aria-hidden="true" id="__SVG_SPRITE_NODE__">
<symbol xmlns="http://www.w3.org/2000/svg" viewBox="0 0 36 36" id="reopen"><g fill-rule="evenodd"><path fill="none" d="M0 0H36V36H0z"></path><path d="M14.2655811,17.5230012 C14.5359876,17.7933206 14.5568113,18.2187405 14.3280596,18.5129719 L14.2656115,18.5836309 L13.2049513,19.6442911 C12.9120581,19.9371843 12.4371843,19.9371843 12.1442911,19.6442911 L5.78033009,13.2803301 C5.48743687,12.9874369 5.48743687,12.5125631 5.78033009,12.2196699 L12.1442911,5.85570888 C12.4371843,5.56281566 12.9120581,5.56281566 13.2049513,5.85570888 L14.2656115,6.91636906 C14.5585047,7.20926227 14.5585047,7.68413601 14.2656115,7.97702923 L10.9921602,11.249789 L20.4,11.25 C25.6772456,11.25 30,15.2525504 30,20.25 C30,25.1728608 25.8053201,29.1302993 20.6356455,29.2473351 L20.4,29.25 L9,29.25 C8.58578644,29.25 8.25,28.9142136 8.25,28.5 L8.25,27 C8.25,26.5857864 8.58578644,26.25 9,26.25 L20.4,26.25 C24.0697674,26.25 27,23.5368216 27,20.25 C27,17.0229388 24.1753526,14.3488507 20.5994225,14.2526779 L20.4,14.25 L10.9921602,14.249789 L14.2655811,17.5230012 Z"></path></g></symbol>
</svg>