<svg xmlns="http://www.w3.org/2000/svg" xmlns:xlink="http://www.w3.org/1999/xlink" style="position: absolute; width: 0; height: 0" aria-hidden="true" id="__SVG_SPRITE_NODE__">
<symbol xmlns="http://www.w3.org/2000/svg" viewBox="0 0 24 24" id="restore"><path d="M20.500019073486328,18.020437057495116L20.500019073486328,6.999937057495117L22.000019073486328,6.999937057495117C22.276119073486328,6.999937057495117,22.500019073486328,6.776077057495117,22.500019073486328,6.499937057495117L22.500019073486328,5.499937057495117C22.500019073486328,5.223797057495117,22.276119073486328,4.999937057495117,22.000019073486328,4.999937057495117L17.000019073486328,4.999937057495117L17.000019073486328,4.499937057495117L16.994619073486326,4.335567057495117C16.91001907348633,3.031477057495117,15.825519073486328,1.9999370574951172,14.500019073486328,1.9999370574951172L9.500019073486328,1.9999370574951172L9.335589073486329,2.005247117495117C8.031499073486328,2.089890957495117,7.000019073486328,3.1744570574951174,7.000019073486328,4.499937057495117L7.000019073486328,4.999937057495117L2.000019073486328,4.999937057495117C1.723877073486328,4.999937057495117,1.5000190734863281,5.223797057495117,1.5000190734863281,5.499937057495117L1.5000190734863281,6.499937057495117C1.5000190734863281,6.776077057495117,1.723877073486328,6.999937057495117,2.000019073486328,6.999937057495117L3.500019073486328,6.999937057495117C3.500019073486328,8.664287057495116,3.515719073486328,10.330587057495118,3.5314290734863283,11.997467057495117C3.549789073486328,13.944837057495118,3.568149073486328,15.892937057495118,3.561479073486328,17.839637057495118C3.553769073486328,20.093137057495117,5.376189073486328,21.999937057495117,7.629699073486328,21.999937057495117L16.524519073486328,21.999937057495117C18.733719073486327,21.999937057495117,20.500019073486328,20.22953705749512,20.500019073486328,18.020437057495116ZM9.500019073486328,3.999937057495117L14.500019073486328,3.999937057495117L14.589819073486328,4.007997057495118L14.674419073486328,4.031247057495117C14.864619073486327,4.102037057495117,15.000019073486328,4.285157057495117,15.000019073486328,4.499937057495117L15.000019073486328,4.999937057495117L9.000019073486328,4.999937057495117L9.000019073486328,4.499937057495117L9.008079073486329,4.410037057495117C9.050409073486328,4.176787057495117,9.254559073486329,3.999937057495117,9.500019073486328,3.999937057495117ZM18.500019073486328,6.999937057495117L18.500019073486328,17.998537057495117C18.500019073486328,19.10313705749512,17.617519073486328,19.999937057495117,16.513019073486326,19.999937057495117L7.511119073486328,19.999937057495117C6.406549073486328,19.999937057495117,5.500019073486328,19.117437057495117,5.500019073486328,18.01293705749512L5.500029073486328,6.999937057495117L18.500019073486328,6.999937057495117ZM7.725189073486328,12.928137057495118L10.602139073486327,10.346577057495118C11.012019073486329,9.978787057495119,11.633119073486329,9.978787057495119,12.043019073486327,10.346577057495118C12.427619073486328,10.691717057495117,12.427619073486328,11.294277057495117,12.043019073486327,11.639427057495118L10.892639073486329,12.671637057495117L15.585819073486329,12.671637057495117C16.090719073486326,12.671637057495117,16.500019073486328,13.080937057495117,16.500019073486328,13.585837057495118C16.500019073486328,14.090737057495117,16.090719073486326,14.500037057495117,15.585819073486329,14.500037057495117L10.908409073486329,14.500037057495117L12.043019073486327,15.518037057495118C12.232919073486329,15.688537057495116,12.341419073486328,15.923537057495118,12.341419073486328,16.164537057495117C12.341419073486328,16.405537057495117,12.232919073486329,16.64063705749512,12.043019073486327,16.811037057495117C11.633119073486329,17.178837057495116,11.011999073486328,17.178837057495116,10.602129073486328,16.811037057495117L7.719939073486328,14.224737057495117L7.658619073486328,14.164537057495117C7.506549073486328,14.001037057495116,7.422019073486328,13.791737057495117,7.422019073486328,13.578737057495117C7.422019073486328,13.337737057495117,7.5305090734863285,13.102637057495118,7.720429073486328,12.932237057495117L7.725189073486328,12.928137057495118Z" fill-rule="evenodd"></path></symbol>
</svg>