<svg xmlns="http://www.w3.org/2000/svg" xmlns:xlink="http://www.w3.org/1999/xlink" style="position: absolute; width: 0; height: 0" aria-hidden="true" id="__SVG_SPRITE_NODE__">
<symbol xmlns="http://www.w3.org/2000/svg" viewBox="0 0 19 16" id="right-panel-all-selected"><path d="M11.2997827,17.0774838 L9.16167927,19.65096 C9.07344568,19.7571602 9.0880105,19.91478 9.19421072,20.0030136 C9.19497573,20.0036491 9.19574452,20.0042802 9.19651706,20.0049066 L14.8203826,24.5650005 L14.8203826,24.5650005 C15.1683739,24.8474734 15.6028473,25 16.0491071,25 C16.1158472,25 16.1830292,24.9966494 16.2499166,24.9898024 C16.7646844,24.9366293 17.2364322,24.6818356 17.5601141,24.2825275 L27.8409076,11.5895013 C27.9278097,11.4822088 27.9112802,11.324783 27.8039877,11.2378808 C27.8032747,11.2373033 27.8025585,11.2367297 27.8018392,11.2361601 L25.1718303,9.15350194 C25.0644294,9.06845309 24.9085851,9.08568443 24.8223586,9.19214218 L15.763436,20.3765638 L15.763436,20.3765638 L11.649466,17.0430076 C11.5431208,16.9568359 11.3872521,16.9722034 11.2997827,17.0774838 Z" transform="translate(-9 -9)" fill="#FFFFFF" fill-rule="evenodd"></path></symbol>
<symbol xmlns="http://www.w3.org/2000/svg" viewBox="0 0 12 12" id="right-triangle-down"><path d="M6.146540440139771,20.116204742218017C6.34180044013977,20.311464742218018,6.341810440139771,20.62804074221802,6.146560440139771,20.823310742218016L2.8540304401397707,24.116193742218016L6.146560440139771,27.40907374221802C6.341810440139771,27.604353742218017,6.34180044013977,27.92092374221802,6.146540440139771,28.11618374221802C5.951270440139771,28.311453742218017,5.63468044013977,28.311453742218017,5.4394104401397705,28.11618374221802L2.1465304401397707,24.823303742218016C1.7560063401397705,24.432773742218018,1.7560063401397705,23.799613742218018,2.1465304401397707,23.409083742218016L5.4394104401397705,20.11620374221802C5.63468044013977,19.92093684221802,5.951270440139771,19.920936942218017,6.146540440139771,20.116204742218017Z" transform="rotate(180 4.912 15.058)"></path></symbol>
</svg>