<svg xmlns="http://www.w3.org/2000/svg" xmlns:xlink="http://www.w3.org/1999/xlink" style="position: absolute; width: 0; height: 0" aria-hidden="true" id="__SVG_SPRITE_NODE__">
<symbol xmlns="http://www.w3.org/2000/svg" viewBox="0 0 24 24" id="save"><path d="M6.84384,3.5127L5.02072,3.50244Q5.14367,2.34779,5.99585,1.495606Q6.99169,0.499768734,8.399989999999999,0.5L15.8858,0.5Q16.672800000000002,0.5,17.2293,1.056641L21.4435,5.27051Q22,5.82701,22,6.61426L22,16.4464Q22,17.8547,21.0042,18.8505Q20.152,19.7027,18.9977,19.8257L18.9896,18.002Q19.407,17.9022,19.7314,17.5778Q20.2,17.1091,20.2,16.4464L20.2,6.61426Q20.2,6.57283,20.1707,6.54346L15.9565,2.3291Q15.9272,2.29981,15.8858,2.2998000000000003L8.399989999999999,2.2998000000000003Q7.73725,2.2998000000000003,7.26862,2.76855Q6.94333,3.09384,6.84384,3.5127ZM1,19.9463C1,21.9345,2.61178,23.5459,4.60001,23.5459L14.4,23.5459C16.388199999999998,23.5459,18,21.9345,18,19.9463L18,10.792C18,10.3146,17.8103,9.85661,17.4728,9.51904L13.2272,5.17383C12.8896,4.83626,12.4318,4.64648,11.9544,4.64648L4.60001,4.64648C2.61178,4.64648,1,6.25836,1,8.24658L1,19.9463ZM2.79999,19.9463Q2.79999,20.6919,3.32721,21.2188Q3.85442,21.746,4.60001,21.7461L14.4,21.7461Q15.1456,21.7461,15.6728,21.2188Q16.2,20.6915,16.2,19.9463L16.2,10.792L11.9544,6.44629L4.60001,6.44629Q3.85442,6.44629,3.32721,6.97363Q2.8,7.50084,2.79999,8.24658L2.79999,19.9463ZM6.4,10.6465Q6.31136,10.6465,6.22442,10.6638Q6.13748,10.6811,6.05558,10.715Q5.97369,10.7489,5.89999,10.7982Q5.82628,10.8474,5.7636,10.9101Q5.70092,10.9728,5.65168,11.0465Q5.60243,11.1202,5.56851,11.2021Q5.53459,11.284,5.51729,11.3709Q5.5,11.4578,5.5,11.5465Q5.5,11.6351,5.51729,11.7221Q5.53459,11.809,5.56851,11.8909Q5.60243,11.9728,5.65168,12.0465Q5.70092,12.1202,5.7636,12.1829Q5.82628,12.2456,5.89999,12.2948Q5.97369,12.3441,6.05558,12.378Q6.13748,12.4119,6.22442,12.4292Q6.31136,12.4465,6.4,12.4465L8.65,12.4465L8.65,18.7465Q8.65,18.8351,8.667290000000001,18.9221Q8.68458,19.009,8.718499999999999,19.0909Q8.75243,19.1728,8.80167,19.2465Q8.85092,19.3202,8.913599999999999,19.3829Q8.97628,19.4456,9.04998,19.4948Q9.12369,19.5441,9.20558,19.578Q9.28748,19.6119,9.37442,19.6292Q9.46136,19.6465,9.55,19.6465Q9.63864,19.6465,9.72558,19.6292Q9.81252,19.6119,9.89441,19.578Q9.97631,19.5441,10.05001,19.4948Q10.12371,19.4456,10.18639,19.3829Q10.24907,19.3202,10.29832,19.2465Q10.34757,19.1728,10.38149,19.0909Q10.41541,19.009,10.4327,18.9221Q10.45,18.8351,10.45,18.7465L10.45,12.4465L12.7,12.4465Q12.7886,12.4465,12.8756,12.4292Q12.9625,12.4119,13.0444,12.378Q13.1263,12.3441,13.2,12.2948Q13.2737,12.2456,13.3364,12.1829Q13.3991,12.1202,13.4483,12.0465Q13.4976,11.9728,13.5315,11.8909Q13.5654,11.809,13.5827,11.7221Q13.6,11.6351,13.6,11.5465Q13.6,11.4578,13.5827,11.3709Q13.5654,11.284,13.5315,11.2021Q13.4976,11.1202,13.4483,11.0465Q13.3991,10.9728,13.3364,10.9101Q13.2737,10.8474,13.2,10.7982Q13.1263,10.7489,13.0444,10.715Q12.9625,10.6811,12.8756,10.6638Q12.7886,10.6465,12.7,10.6465L6.4,10.6465Z" fill-rule="evenodd"></path></symbol>
</svg>