<svg xmlns="http://www.w3.org/2000/svg" xmlns:xlink="http://www.w3.org/1999/xlink" style="position: absolute; width: 0; height: 0" aria-hidden="true" id="__SVG_SPRITE_NODE__">
<symbol xmlns="http://www.w3.org/2000/svg" viewBox="0 0 24 24" id="schedule_filter"><defs><clipPath id="schedule_filter_a"><rect width="24" height="24" rx="0"></rect></clipPath></defs><g clip-path="url(#schedule_filter_a)"><path d="M9.271930152587892,10.827910095367432L5.21649715258789,7.6454300953674315Q5.20010315258789,7.632560095367432,5.184387152587891,7.6191300953674315Q4.5793111525878905,7.102110095367431,4.40360855258789,6.346370095367432Q4.242022352587891,5.651330095367431,4.4909181525878905,4.970650095367432Q4.74019315258789,4.288918095367432,5.312716152587891,3.8633430953674317Q5.936050152587891,3.4000000953674316,6.73308015258789,3.4000000953674316L17.264300152587893,3.4000000953674316Q18.06140015258789,3.4000000953674316,18.68460015258789,3.863347095367432Q19.25720015258789,4.288922095367432,19.50650015258789,4.970660095367432Q19.75540015258789,5.651310095367432,19.59380015258789,6.346380095367431Q19.418200152587893,7.102100095367431,18.81300015258789,7.6191300953674315Q18.79520015258789,7.634360095367431,18.77760015258789,7.647970095367431L14.69210015258789,10.829880095367432L14.69210015258789,18.893800095367432Q14.69210015258789,19.837400095367432,13.891790152587891,20.33470009536743Q13.087680152587891,20.834200095367432,12.242090152587892,20.40920009536743Q12.16851015258789,20.372200095367432,12.10194015258789,20.323500095367432Q11.95948015258789,20.219400095367433,11.56403015258789,19.970900095367433Q10.611840152587892,19.372300095367432,10.18546015258789,18.96580009536743Q9.271930152587892,18.094800095367432,9.271930152587892,17.06040009536743L9.271930152587892,10.827910095367432ZM12.62317015258789,18.28610009536743Q11.84024015258789,17.79400009536743,11.55870015258789,17.525500095367434Q11.26193015258789,17.24260009536743,11.26193015258789,17.06040009536743L11.26193015258789,10.412100095367432Q11.26193015258789,9.888800095367433,10.864190152587891,9.548930095367432Q10.848330152587891,9.535390095367433,10.832090152587892,9.522650095367432L6.46497015258789,6.095570095367432Q6.264350152587891,5.915340095367432,6.359890152587891,5.654050095367431Q6.4564401525878905,5.390000095367432,6.73308015258789,5.390000095367432L17.264300152587893,5.390000095367432Q17.54100015258789,5.390000095367432,17.63750015258789,5.654060095367432Q17.73280015258789,5.914730095367432,17.53350015258789,6.094630095367432L13.134510152587891,9.520600095367431Q13.116870152587891,9.534390095367431,13.09983015258789,9.54896009536743Q12.70209015258789,9.888800095367433,12.70209015258789,10.412100095367432L12.70209015258789,18.33600009536743L12.62317015258789,18.28610009536743ZM16.27730015258789,13.750000095367431L18.63710015258789,13.750000095367431Q19.04930015258789,13.750000095367431,19.340700152587893,13.458600095367432Q19.63210015258789,13.167150095367433,19.63210015258789,12.755000095367432Q19.63210015258789,12.342840095367432,19.340700152587893,12.051420095367432Q19.04920015258789,11.760000095367431,18.63710015258789,11.760000095367431L16.27730015258789,11.759990095367431Q15.86520015258789,11.759980095367432,15.573800152587891,12.051430095367431Q15.28240015258789,12.342860095367431,15.28240015258789,12.755010095367432Q15.28240015258789,13.167160095367432,15.573800152587891,13.458600095367432Q15.86520015258789,13.750000095367431,16.27730015258789,13.750000095367431ZM16.27730015258789,16.500000095367433L18.63710015258789,16.500000095367433Q19.04930015258789,16.500000095367433,19.340700152587893,16.20860009536743Q19.63210015258789,15.91710009536743,19.63210015258789,15.505000095367432Q19.63210015258789,15.092900095367431,19.340700152587893,14.801400095367432Q19.04920015258789,14.510000095367431,18.63710015258789,14.510000095367431L16.27730015258789,14.510000095367431Q15.86520015258789,14.510000095367431,15.573800152587891,14.801400095367432Q15.28240015258789,15.092900095367431,15.28240015258789,15.505000095367432Q15.28240015258789,15.917200095367432,15.573800152587891,16.20860009536743Q15.86520015258789,16.500000095367433,16.27730015258789,16.500000095367433ZM16.27730015258789,19.299100095367432L18.63710015258789,19.299100095367432Q19.04930015258789,19.299100095367432,19.340700152587893,19.007700095367433Q19.63210015258789,18.716200095367434,19.63210015258789,18.30410009536743Q19.63210015258789,17.892000095367433,19.340700152587893,17.60050009536743Q19.04920015258789,17.309100095367434,18.63710015258789,17.309100095367434L16.27730015258789,17.309100095367434Q15.86520015258789,17.309100095367434,15.573800152587891,17.60050009536743Q15.28240015258789,17.892000095367433,15.28240015258789,18.30410009536743Q15.28240015258789,18.71630009536743,15.573800152587891,19.007700095367433Q15.86520015258789,19.299100095367432,16.27730015258789,19.299100095367432Z" fill-rule="evenodd"></path></g></symbol>
</svg>