<svg xmlns="http://www.w3.org/2000/svg" xmlns:xlink="http://www.w3.org/1999/xlink" style="position: absolute; width: 0; height: 0" aria-hidden="true" id="__SVG_SPRITE_NODE__">
<symbol xmlns="http://www.w3.org/2000/svg" viewBox="0 0 16 16" id="section-list"><path d="M1.3333333730697632,4.666666746139526L1.3333333730697632,8.666666746139526C1.3333333730697632,9.771236746139525,2.2287633730697634,10.666666746139526,3.333333373069763,10.666666746139526L12.666633373069763,10.666666746139526C13.771233373069764,10.666666746139526,14.666633373069763,9.771236746139525,14.666633373069763,8.666666746139526L14.666633373069763,4.666666746139526C14.666633373069763,3.5620967461395265,13.771233373069764,2.6666667461395264,12.666633373069763,2.6666667461395264L3.333333373069763,2.6666667461395264C2.2287633730697634,2.6666667461395264,1.3333333730697632,3.5620967461395265,1.3333333730697632,4.666666746139526ZM2.861933373069763,9.138066746139526Q2.6666633730697633,8.942806746139526,2.6666633730697633,8.666666746139526L2.6666633730697633,4.666666746139526Q2.6666633730697633,4.3905267461395265,2.861933373069763,4.195266746139526Q3.0571933730697634,3.9999967461395265,3.333333373069763,3.9999967461395265L12.666633373069763,3.9999967461395265Q12.942833373069764,3.9999967461395265,13.138033373069764,4.195266746139526Q13.333333373069763,4.3905267461395265,13.333333373069763,4.666666746139526L13.333333373069763,8.666666746139526Q13.333333373069763,8.942806746139526,13.138033373069764,9.138066746139526Q12.942833373069764,9.333336746139526,12.666633373069763,9.333336746139526L3.333333373069763,9.333336746139526Q3.0571933730697634,9.333336746139526,2.861933373069763,9.138066746139526ZM2.000000373069763,12.000166746139527Q1.9343393730697631,12.000166746139527,1.869939373069763,12.012976746139527Q1.8055403730697632,12.025786746139527,1.7448773730697633,12.050906746139527Q1.684215373069763,12.076036746139525,1.6296203730697632,12.112516746139526Q1.575024373069763,12.148996746139526,1.5285953730697632,12.195426746139526Q1.4821663730697632,12.241856746139526,1.4456873730697632,12.296446746139527Q1.4092076730697631,12.351046746139527,1.3840803730697633,12.411706746139526Q1.3589529730697631,12.472366746139526,1.3461431730697633,12.536766746139527Q1.3333333730697632,12.601166746139526,1.3333333730697632,12.666866746139526Q1.3333333730697632,12.732466746139526,1.3461431730697633,12.796866746139527Q1.3589529730697631,12.861266746139526,1.3840803730697633,12.921966746139526Q1.4092076730697631,12.982566746139526,1.4456873730697632,13.037166746139526Q1.4821663730697632,13.091766746139527,1.5285953730697632,13.138266746139527Q1.575024373069763,13.184666746139527,1.6296193730697632,13.221166746139527Q1.684215373069763,13.257666746139526,1.7448773730697633,13.282766746139526Q1.8055403730697632,13.307866746139526,1.869939373069763,13.320666746139526Q1.9343393730697631,13.333466746139527,2.000000373069763,13.333466746139527L14.000033373069764,13.333466746139527Q14.065633373069764,13.333466746139527,14.130033373069763,13.320666746139526Q14.194433373069764,13.307866746139526,14.255133373069762,13.282766746139526Q14.315833373069763,13.257666746139526,14.370333373069764,13.221166746139527Q14.424933373069763,13.184666746139527,14.471433373069763,13.138266746139527Q14.517833373069763,13.091766746139527,14.554333373069763,13.037166746139526Q14.590833373069763,12.982566746139526,14.615933373069764,12.921966746139526Q14.641033373069764,12.861266746139526,14.653833373069762,12.796866746139527Q14.666633373069763,12.732466746139526,14.666633373069763,12.666866746139526Q14.666633373069763,12.601166746139526,14.653833373069762,12.536766746139527Q14.641033373069764,12.472366746139526,14.615933373069764,12.411706746139526Q14.590833373069763,12.351046746139527,14.554333373069763,12.296446746139527Q14.517833373069763,12.241856746139526,14.471433373069763,12.195426746139526Q14.424933373069763,12.148996746139526,14.370333373069764,12.112516746139526Q14.315833373069763,12.076036746139525,14.255133373069762,12.050906746139527Q14.194433373069764,12.025786746139527,14.130033373069763,12.012976746139527Q14.065633373069764,12.000166746139527,14.000033373069764,12.000166746139527L2.000000373069763,12.000166746139527Z" fill-rule="evenodd"></path></symbol>
</svg>