<svg xmlns="http://www.w3.org/2000/svg" xmlns:xlink="http://www.w3.org/1999/xlink" style="position: absolute; width: 0; height: 0" aria-hidden="true" id="__SVG_SPRITE_NODE__">
<symbol xmlns="http://www.w3.org/2000/svg" viewBox="0 0 24 24" id="select-inner"><path d="M22.499990463256836,9.5C22.499990463256836,10.60457,21.604590463256837,11.5,20.499990463256836,11.5L3.499990463256836,11.5C2.395420463256836,11.5,1.499990463256836,10.60457,1.499990463256836,9.5L1.499990463256836,4.5C1.499990463256836,3.395431,2.395420463256836,2.5,3.499990463256836,2.5L20.499990463256836,2.5C21.604590463256837,2.5,22.499990463256836,3.395431,22.499990463256836,4.5L22.499990463256836,9.5ZM20.499990463256836,9.5L3.499990463256836,9.5L3.499990463256836,4.5L20.499990463256836,4.5L20.499990463256836,9.5ZM20.499990463256836,15.5L21.999790463256836,14.1768C21.633290463256834,13.7618,21.097190463256837,13.5,20.499990463256836,13.5L3.499980463256836,13.5C2.395412463256836,13.5,1.499980926516836,14.3954,1.499980926516836,15.5L1.499980926516836,20.5C1.499980926516836,21.6046,2.395412463256836,22.5,3.499980463256836,22.5L13.999990463256836,22.5L11.999990463256836,20.5L3.499980463256836,20.5L3.499980463256836,15.5L20.499990463256836,15.5ZM16.313490463256834,19.9993L14.703590463256836,18.405099999999997C14.516390463256837,18.2196,14.263490463256836,18.1156,13.999990463256836,18.1156C13.447690463256835,18.1156,12.999990463256836,18.5633,12.999990463256836,19.1156C12.999990463256836,19.3825,13.106690463256836,19.6383,13.296390463256836,19.8262L16.325790463256837,22.8262C16.717590463256833,23.2142,17.349490463256835,23.2118,17.738390463256835,22.8208L23.307990463256836,17.1189C23.691190463256834,16.726599999999998,23.686690463256834,16.0987,23.297790463256835,15.712C22.903690463256837,15.32,22.265390463256836,15.3249,21.877390463256837,15.723L17.721990463256837,19.9868L17.024090463256837,20.703L16.313490463256834,19.9993Z" fill-rule="evenodd"></path></symbol>
</svg>