<svg xmlns="http://www.w3.org/2000/svg" xmlns:xlink="http://www.w3.org/1999/xlink" style="position: absolute; width: 0; height: 0" aria-hidden="true" id="__SVG_SPRITE_NODE__">
<symbol xmlns="http://www.w3.org/2000/svg" viewBox="0 0 14 14" id="send"><path d="M2.8797974921875,2.57591975L12.2336644921875,6.73319125C12.3808544921875,6.79861125,12.4471544921875,6.97098125,12.3817344921875,7.11818125C12.3524044921875,7.18416125,12.2996444921875,7.23692125,12.2336644921875,7.26625125L2.8797974921875,11.42352125C2.7325974921875,11.48894125,2.5602337921875,11.42265125,2.4948117921875,11.27545125C2.4683821321875,11.21598125,2.4625988021875,11.14939125,2.4783819221875,11.08625125L3.3177714921875,7.72670125L7.2052144921875,7.14394125C7.2558944921875,7.13634125,7.2978644921875,7.10299125,7.3174844921875,7.05752125L7.3278044921875,7.02135125C7.3380444921875,6.95308125,7.2991844921875,6.88877125,7.2377144921875,6.86427125L7.2052144921875,6.85550125L3.3177714921875,6.271861250000001L2.4783819221875,2.91318725C2.4393135921875,2.75691425,2.5343270921875,2.59855825,2.6906004921875,2.55948987C2.7537334921875,2.54370675,2.8203304921875,2.54949008,2.8797974921875,2.57591975Z" fill-rule="evenodd"></path></symbol>
</svg>