<svg xmlns="http://www.w3.org/2000/svg" xmlns:xlink="http://www.w3.org/1999/xlink" style="position: absolute; width: 0; height: 0" aria-hidden="true" id="__SVG_SPRITE_NODE__">
<symbol xmlns="http://www.w3.org/2000/svg" viewBox="0 0 20 20" id="shared-list-all-members"><path d="M10,0c5.5,0,10,4.5,10,10s-4.5,10-10,10S0,15.5,0,10S4.5,0,10,0z M14.6,7.9 c0-0.9-0.3-1.9-0.8-2.6c-0.1-0.2-0.4-0.3-0.6-0.1c-0.2,0.1-0.3,0.4-0.1,0.7c0.4,0.6,0.6,1.4,0.6,2.1c0,0.5-0.1,0.9-0.2,1.4 l-0.1,0.3l0.2,0.2c1,1,1.5,2.4,1.5,3.8c0,0.3,0.2,0.5,0.5,0.5c0.3,0,0.5-0.2,0.5-0.5c0-1.6-0.6-3.1-1.6-4.2 C14.5,8.8,14.6,8.3,14.6,7.9z M10.6,9.6c0.6-0.5,0.9-1.2,0.9-2C11.6,6.2,10.4,5,9,5S6.4,6.2,6.4,7.6c0,0.8,0.4,1.5,0.9,2 C6,10.2,5,11.7,5,13.3c0,0.1,0,0.1,0,0.2c0,0,0,0,0,0.1C5,13.8,5.2,14,5.5,14c1.5,0,2.7,0,3.4,0c0.8,0,2,0,3.6,0 c0.3,0,0.5-0.2,0.5-0.5c0,0,0,0,0-0.1c0-0.1,0-0.1,0-0.2C13,11.7,12,10.2,10.6,9.6z" fill-rule="evenodd" clip-rule="evenodd"></path></symbol>
</svg>