<svg xmlns="http://www.w3.org/2000/svg" xmlns:xlink="http://www.w3.org/1999/xlink" style="position: absolute; width: 0; height: 0" aria-hidden="true" id="__SVG_SPRITE_NODE__">
<symbol xmlns="http://www.w3.org/2000/svg" viewBox="0 0 24 24" id="show-completed"><path d="M2,18L2,6Q2,4.34315,3.17157,3.17157Q4.34315,2,6,2L18,2Q19.6569,2,20.8284,3.17157Q22,4.34315,22,6L22,15.0827C21.3909,14.591,20.7178,14.1671,20,13.882L20,6Q20,5.17157,19.4142,4.585789999999999Q18.8284,4,18,4L6,4Q5.17157,4,4.585789999999999,4.585789999999999Q4,5.17157,4,6L4,18Q4,18.8284,4.585789999999999,19.4142Q5.1715800000000005,20,6,20L11.8357,20C12.126,20.5809,12.597,21.3043,13.2197,22L6,22Q4.34315,22,3.17157,20.8284Q2,19.6569,2,18ZM17.5,9C17.5,9.26522,17.3946,9.51957,17.2071,9.70711L11.20711,15.7071C11.01957,15.8946,10.76522,16,10.5,16C10.23478,16,9.98043,15.8946,9.79289,15.7071L6.79289,12.7071C6.60536,12.5196,6.5,12.2652,6.5,12C6.5,11.44772,6.94772,11,7.5,11C7.76522,11,8.01957,11.10536,8.20711,11.29289L10.5,13.5858L15.7925,8.29327C15.9804,8.105360000000001,16.2348,8,16.5,8C17.052300000000002,8,17.5,8.44772,17.5,9ZM13.15,18.7318C13.15,18.0298,15.2184,15.1504,17.7545,15.1504C20.2906,15.1504,22.3593,18.0298,22.3593,18.7318C22.3593,19.4337,20.2908,22.3132,17.7545,22.3132C15.2184,22.3132,13.15,19.4337,13.15,18.7318ZM16.11,18.7318C16.11,19.6294,16.8478,20.3597,17.7545,20.3597C18.6613,20.3597,19.399,19.6294,19.399,18.7318C19.399,17.8342,18.6613,17.1038,17.7545,17.1038C16.8478,17.1038,16.11,17.8342,16.11,18.7318Z" fill-rule="evenodd"></path></symbol>
<symbol xmlns="http://www.w3.org/2000/svg" viewBox="0 0 24 24" id="show-countdown"><path d="M1,12.000094771385193C1,18.075194771385192,5.92487,23.000094771385193,12,23.000094771385193C18.0751,23.000094771385193,23,18.075194771385192,23,12.000094771385193Q23,11.710594771385193,22.9851,11.422294771385193C22.9565,10.870764771385193,22.4862,10.446824771385193,21.9347,10.475404771385193C21.3831,10.503984771385193,20.9592,10.974274771385193,20.9877,11.525794771385193Q21,11.762394771385193,21,12.000094771385193Q21,13.716794771385192,20.3681,15.312994771385194Q19.682,17.045994771385192,18.364,18.364094771385194Q17.0459,19.68209477138519,15.3129,20.36819477138519Q13.7167,21.000094771385193,12,21.000094771385193Q10.28331,21.000094771385193,8.687149999999999,20.36819477138519Q6.95406,19.68209477138519,5.63604,18.364094771385194Q4.318020000000001,17.045994771385192,3.63191,15.312994771385194Q3,13.716794771385192,3,12.000094771385193Q3,10.283404771385193,3.63191,8.687244771385192Q4.318020000000001,6.954154771385193,5.63604,5.636134771385193Q6.95406,4.3181147713851935,8.687149999999999,3.632004771385193Q10.28331,3.000094771385193,12,3.000094771385193Q12.2378,3.000094771385193,12.4743,3.012354771385193C13.0258,3.040934771385193,13.4961,2.616994771385193,13.5247,2.065444771385193C13.5533,1.513902771385193,13.1293,1.0436162713851929,12.5778,1.0150327713851928Q12.2895,1.0000947713851929,12,1.0000947713851929C5.92487,1.0000947713851929,1,5.924964771385193,1,12.000094771385193ZM17.9911,2.7733747713851926Q17.5077,2.4589047713851926,16.994799999999998,2.197094771385193C16.7586,2.0765147713851926,16.484099999999998,2.0547147713851928,16.2318,2.136484771385193C15.9795,2.2182647713851926,15.7701,2.396904771385193,15.6495,2.6331247713851926C15.3984,3.125034771385193,15.5936,3.7273547713851927,16.0855,3.9784447713851927Q16.505000000000003,4.192574771385193,16.9005,4.449854771385192C17.3635,4.751014771385193,17.9829,4.619854771385192,18.284,4.156914771385193C18.4287,3.9345947713851928,18.4791,3.663934771385193,18.4241,3.404474771385193C18.3692,3.1450047713851927,18.2134,2.917994771385193,17.9911,2.7733747713851926ZM21.803,7.005304771385193Q21.5412,6.4923847713851925,21.2267,6.008984771385193C20.9256,5.546044771385193,20.3061,5.414884771385193,19.8432,5.716054771385193C19.3802,6.017214771385193,19.2491,6.636644771385193,19.5502,7.099594771385193Q19.8075,7.495074771385193,20.0217,7.914574771385193C20.2727,8.406484771385193,20.8751,8.601704771385194,21.367,8.350614771385192C21.6032,8.230034771385192,21.7818,8.020564771385192,21.8636,7.7682647713851924C21.9454,7.5159647713851925,21.9236,7.241524771385193,21.803,7.005304771385193ZM11,7.000094771385193L11,13.000094771385193Q11,13.098594771385192,11.0192,13.195194771385193Q11.0384,13.291794771385193,11.0761,13.382794771385193Q11.1138,13.473794771385192,11.1685,13.555694771385193Q11.2232,13.637594771385192,11.2929,13.707194771385193Q11.3625,13.776794771385193,11.4444,13.831594771385193Q11.5263,13.886294771385193,11.6173,13.923994771385193Q11.7083,13.961694771385194,11.8049,13.980894771385193Q11.9015,14.000094771385193,12,14.000094771385193L15,14.000094771385193Q15.0985,14.000094771385193,15.1951,13.980894771385193Q15.2917,13.961694771385194,15.3827,13.923994771385193Q15.4737,13.886294771385193,15.5556,13.831594771385193Q15.6375,13.776794771385193,15.7071,13.707194771385193Q15.7767,13.637594771385192,15.8315,13.555694771385193Q15.8862,13.473794771385192,15.9239,13.382794771385193Q15.9616,13.291794771385193,15.9808,13.195194771385193Q16,13.098594771385192,16,13.000094771385193Q16,12.901594771385193,15.9808,12.804994771385193Q15.9616,12.708394771385192,15.9239,12.617394771385193Q15.8862,12.526394771385194,15.8315,12.444494771385193Q15.7767,12.362594771385194,15.7071,12.292994771385192Q15.6375,12.223294771385193,15.5556,12.168594771385193Q15.4737,12.113894771385192,15.3827,12.076194771385193Q15.2917,12.038494771385192,15.1951,12.019294771385193Q15.0985,12.000094771385193,15,12.000094771385193L13,12.000094771385193L13,7.000094771385193Q13,6.901604771385193,12.9808,6.805004771385192Q12.9616,6.708404771385193,12.9239,6.617414771385193Q12.8862,6.526414771385193,12.8315,6.4445247713851925Q12.7767,6.362634771385193,12.7071,6.292984771385193Q12.6375,6.223344771385193,12.5556,6.1686247713851925Q12.4737,6.113904771385193,12.3827,6.076214771385193Q12.2917,6.038524771385193,12.1951,6.019304771385193Q12.0985,6.000094771385193,12,6.000094771385193Q11.9015,6.000094771385193,11.8049,6.019304771385193Q11.7083,6.038524771385193,11.6173,6.076214771385193Q11.5263,6.113904771385193,11.4444,6.1686247713851925Q11.3625,6.223344771385193,11.2929,6.292984771385193Q11.2232,6.362634771385193,11.1685,6.4445247713851925Q11.1138,6.526414771385193,11.0761,6.617414771385193Q11.0384,6.708404771385193,11.0192,6.805004771385192Q11,6.901604771385193,11,7.000094771385193Z" fill-rule="evenodd"></path></symbol>
<symbol xmlns="http://www.w3.org/2000/svg" viewBox="0 0 24 24" id="show-details"><path d="M7.5,10C7.5,9.44772,7.94772,9,8.5,9L19,9C19.5523,9,20,9.44772,20,10C20,10.55228,19.5523,11,19,11L8.5,11C7.94772,11,7.5,10.55228,7.5,10ZM6,5C6,3.895431,5.10457,3,4,3C2.895431,3,2,3.895431,2,5C2,6.10457,2.895431,7,4,7C5.10457,7,6,6.10457,6,5ZM7.5,5C7.5,4.44772,7.94772,4,8.5,4L21,4C21.5523,4,22,4.44772,22,5C22,5.55228,21.5523,6,21,6L8.5,6C7.94772,6,7.5,5.55228,7.5,5ZM7.5,20C7.5,19.4477,7.94772,19,8.5,19L19,19C19.5523,19,20,19.4477,20,20C20,20.5523,19.5523,21,19,21L8.5,21C7.94772,21,7.5,20.5523,7.5,20ZM6,15C6,13.8954,5.10457,13,4,13C2.895431,13,2,13.8954,2,15C2,16.104599999999998,2.895431,17,4,17C5.10457,17,6,16.104599999999998,6,15ZM7.5,15C7.5,14.4477,7.94772,14,8.5,14L21,14C21.5523,14,22,14.4477,22,15C22,15.5523,21.5523,16,21,16L8.5,16C7.94772,16,7.5,15.5523,7.5,15Z"></path></symbol>
<symbol xmlns="http://www.w3.org/2000/svg" viewBox="0 0 24 24" id="show-subtasks"><path d="M2,18L2,6Q2,4.34315,3.17157,3.17157Q4.34315,2,6,2L18,2Q19.6569,2,20.8284,3.17157Q22,4.34315,22,6L22,15.0827C21.3909,14.591,20.7178,14.1671,20,13.882L20,6Q20,5.17157,19.4142,4.585789999999999Q18.8284,4,18,4L6,4Q5.17157,4,4.585789999999999,4.585789999999999Q4,5.17157,4,6L4,18Q4,18.8284,4.585789999999999,19.4142Q5.1715800000000005,20,6,20L11.8357,20C12.126,20.5809,12.597,21.3043,13.2197,22L6,22Q4.34315,22,3.17157,20.8284Q2,19.6569,2,18ZM7.5,7.69189C7.01675,7.69189,6.625,8.083649999999999,6.625,8.56689C6.625,9.050139999999999,7.01675,9.44189,7.5,9.44189L16.625,9.44189C17.1082,9.44189,17.5,9.050139999999999,17.5,8.56689C17.5,8.083649999999999,17.1082,7.69189,16.625,7.69189L7.5,7.69189ZM7.5,12.25C7.01675,12.25,6.625,12.6418,6.625,13.125C6.625,13.6082,7.01675,14,7.5,14L16.625,14C17.1082,14,17.5,13.6082,17.5,13.125C17.5,12.6418,17.1082,12.25,16.625,12.25L7.5,12.25ZM13.15,18.7318C13.15,18.0298,15.2185,15.1504,17.7546,15.1504C20.2907,15.1504,22.3593,18.0298,22.3593,18.7318C22.3593,19.4337,20.2909,22.3132,17.7546,22.3132C15.2185,22.3132,13.15,19.4337,13.15,18.7318ZM16.1101,18.7318C16.1101,19.6294,16.8478,20.3597,17.7546,20.3597C18.6613,20.3597,19.3991,19.6294,19.3991,18.7318C19.3991,17.8342,18.6613,17.1038,17.7546,17.1038C16.8478,17.1038,16.1101,17.8342,16.1101,18.7318Z" fill-rule="evenodd"></path></symbol>
<symbol xmlns="http://www.w3.org/2000/svg" viewBox="0 0 24 24" id="show-tasktime"><path d="M12,23C18.0751,23,23,18.0751,23,12C23,5.92487,18.0751,1,12,1C5.92487,1,1,5.92487,1,12C1,18.0751,5.92487,23,12,23ZM20.3681,8.687149999999999Q21,10.28331,21,12Q21,13.7167,20.3681,15.3129Q19.682,17.0459,18.364,18.364Q17.0459,19.682,15.3129,20.3681Q13.7167,21,12,21Q10.28331,21,8.687149999999999,20.3681Q6.95406,19.682,5.63604,18.364Q4.318020000000001,17.0459,3.63191,15.3129Q3,13.7167,3,12Q3,10.28331,3.63191,8.687149999999999Q4.318020000000001,6.95406,5.63604,5.63604Q6.95406,4.318020000000001,8.687149999999999,3.63191Q10.28331,3,12,3Q13.7167,3,15.3129,3.63191Q17.0459,4.318020000000001,18.364,5.63604Q19.682,6.95406,20.3681,8.687149999999999ZM11,13L11,7Q11,6.90151,11.0192,6.80491Q11.0384,6.70831,11.0761,6.61732Q11.1138,6.52632,11.1685,6.44443Q11.2232,6.36254,11.2929,6.29289Q11.3625,6.22325,11.4444,6.16853Q11.5263,6.11381,11.6173,6.07612Q11.7083,6.03843,11.8049,6.01921Q11.9015,6,12,6Q12.0985,6,12.1951,6.01921Q12.2917,6.03843,12.3827,6.07612Q12.4737,6.11381,12.5556,6.16853Q12.6375,6.22325,12.7071,6.29289Q12.7767,6.36254,12.8315,6.44443Q12.8862,6.52632,12.9239,6.61732Q12.9616,6.70831,12.9808,6.80491Q13,6.90151,13,7L13,12L15,12Q15.0985,12,15.1951,12.0192Q15.2917,12.0384,15.3827,12.0761Q15.4737,12.1138,15.5556,12.1685Q15.6375,12.2232,15.7071,12.2929Q15.7767,12.3625,15.8315,12.4444Q15.8862,12.5263,15.9239,12.6173Q15.9616,12.7083,15.9808,12.8049Q16,12.9015,16,13Q16,13.0985,15.9808,13.1951Q15.9616,13.2917,15.9239,13.3827Q15.8862,13.4737,15.8315,13.5556Q15.7767,13.6375,15.7071,13.7071Q15.6375,13.7767,15.5556,13.8315Q15.4737,13.8862,15.3827,13.9239Q15.2917,13.9616,15.1951,13.9808Q15.0985,14,15,14L12,14Q11.9015,14,11.8049,13.9808Q11.7083,13.9616,11.6173,13.9239Q11.5263,13.8862,11.4444,13.8315Q11.3625,13.7767,11.2929,13.7071Q11.2232,13.6375,11.1685,13.5556Q11.1138,13.4737,11.0761,13.3827Q11.0384,13.2917,11.0192,13.1951Q11,13.0985,11,13Z" fill-rule="evenodd"></path></symbol>
</svg>