<svg xmlns="http://www.w3.org/2000/svg" xmlns:xlink="http://www.w3.org/1999/xlink" style="position: absolute; width: 0; height: 0" aria-hidden="true" id="__SVG_SPRITE_NODE__">
<symbol xmlns="http://www.w3.org/2000/svg" viewBox="0 0 18 18" id="sidebar-all-list"><path d="M15,3L3,3C3,2.171573,3.67157,1.5,4.5,1.5L13.5,1.5C14.3284,1.5,15,2.171573,15,3ZM16.125,5.25L1.875,5.25C1.875,4.42157,2.54657,3.75,3.375,3.75L14.625,3.75C15.4534,3.75,16.125,4.42157,16.125,5.25ZM0.75,8.25L0.75,14.25C0.75,15.4926,1.75736,16.5,3,16.5L15,16.5C16.2426,16.5,17.25,15.4926,17.25,14.25L17.25,8.25C17.25,7.00736,16.2426,6,15,6L3,6C1.75736,6,0.75,7.00736,0.75,8.25ZM2.25,8.25L2.25,14.25Q2.25,14.5607,2.46967,14.7803Q2.68934,15,3,15L15,15Q15.3107,15,15.5303,14.7803Q15.75,14.5607,15.75,14.25L15.75,8.25Q15.75,7.93935,15.5303,7.71968Q15.3107,7.5,15,7.5L3,7.5Q2.68935,7.50001,2.4696800000000003,7.71968Q2.25,7.93934,2.25,8.25Z" fill-rule="evenodd"></path></symbol>
<symbol xmlns="http://www.w3.org/2000/svg" viewBox="0 0 24 24" id="sidebar-assigned-to-me-list"><path d="M16.8214,5.019525321655274C16.8214,7.682325321655274,14.6628,9.840945321655273,12,9.840945321655273C9.33719,9.840945321655273,7.17856,7.682325321655274,7.17856,5.019525321655274C7.17856,2.3567253216552735,9.33719,0.19809532165527344,12,0.19809532165527344C14.6628,0.19809532165527344,16.8214,2.3567253216552735,16.8214,5.019525321655274ZM14.776,5.019525321655274Q14.776,3.8696753216552735,13.9629,3.0566153216552734Q13.1498,2.2435453216552736,12,2.2435453216552736Q10.8501,2.2435453216552736,10.03708,3.0566153216552734Q9.22402,3.8696753216552735,9.22402,5.019525321655274Q9.22402,6.169365321655273,10.03708,6.982435321655274Q10.8501,7.795495321655274,12,7.795495321655274Q13.1498,7.795495321655274,13.9629,6.982435321655274Q14.776,6.169365321655273,14.776,5.019525321655274ZM0.75,19.483795321655272C0.75,21.850695321655273,2.66878,23.769495321655274,5.03571,23.769495321655274L18.9643,23.769495321655274C21.3312,23.769495321655274,23.25,21.850695321655273,23.25,19.483795321655272C23.25,14.749895321655274,19.4124,10.912395321655273,14.6786,10.912395321655273L9.32143,10.912395321655273C4.58756,10.912395321655273,0.75,14.749895321655274,0.75,19.483795321655272ZM11.0127,21.631095321655273L5.03571,21.631095321655273Q4.14628,21.631095321655273,3.51735,21.00219532165527Q2.88843,20.373195321655274,2.88843,19.483795321655272Q2.88843,16.819195321655272,4.77261,14.934995321655274Q6.65679,13.050795321655274,9.32143,13.050795321655274L14.6786,13.050795321655274Q17.3432,13.050795321655274,19.2274,14.934995321655274Q21.1116,16.819195321655272,21.1116,19.483795321655272Q21.1116,20.373195321655274,20.4826,21.00219532165527Q19.8537,21.631095321655273,18.9643,21.631095321655273L13.0582,21.631095321655273L13.0582,17.961295321655275L13.9247,18.789295321655274C14.1157,18.975095321655274,14.3716,19.079095321655274,14.638,19.079095321655274L14.6519,19.078995321655274C14.9231,19.075295321655272,15.1818,18.963995321655272,15.3709,18.769595321655274C15.5568,18.578695321655275,15.6607,18.322795321655274,15.6607,18.056295321655274L15.6606,18.042395321655274C15.6569,17.771195321655274,15.5457,17.512595321655272,15.3513,17.323395321655273L12.7487,14.806095321655274C12.5578,14.620195321655274,12.3019,14.516295321655273,12.0354,14.516295321655273C12.0226,14.516295321655273,12.0097,14.516495321655274,11.9969,14.516995321655273C11.7525,14.526195321655273,11.5196,14.622695321655273,11.3401,14.788995321655273L8.6476,17.237595321655274C8.43877,17.431195321655274,8.32008,17.702995321655273,8.32008,17.987695321655274L8.32018,18.001795321655273C8.32366,18.254795321655273,8.42076,18.497395321655272,8.5927,18.682895321655273C8.78624,18.891795321655273,9.05808,19.010495321655274,9.34281,19.010495321655274L9.35691,19.010395321655274C9.60983,19.006895321655275,9.85248,18.909795321655274,10.03852,18.737395321655274L11.0127,17.881295321655273L11.0127,21.631095321655273Z" fill-rule="evenodd"></path></symbol>
<symbol xmlns="http://www.w3.org/2000/svg" viewBox="0 0 24 24" id="sidebar-calendar-calDav"><path d="M2.99999,8.71166C2.9999700000000002,12.1625,2.99995,15.9192,3,19.0012C3.00001,19.5535,3.44337,20,3.99565,20L8.197949999999999,20C12.1334,20,16.0689,20.0001,20.0044,20C20.5567,20,21,19.5535,21,19.0012C21,15.8248,21,11.93197,21,8.39572L21,8.200199999999999L2.99999,8.200199999999999L2.99999,8.71166ZM3.00001,4.99879C3.00001,5.3891,3,5.79024,3,6.2002L21,6.2002L21,4.99879C21,4.44651,20.5567,4,20.0044,4L14.9836,4.00001C11.321,4.00002,7.6583,4.000030000000001,3.99563,4.00001C3.44334,4,3.00001,4.4465,3.00001,4.99879ZM1.00000824451,4.96821L1.0000100383,19.0318C1.00000996997,20.6886,2.31316,22,3.97001,22Q12,22,20.03,22C21.6869,22,23,20.6886,23,19.0318C23,15.6058,23,11.80277,23,8.200199999999999L23,6.2002L23,4.96821C23,3.31135,21.6857,2,20.0289,2L3.9842,2C2.32735,2,1.00000789693,3.31136,1.00000824451,4.96821Z" fill-rule="evenodd"></path><path d="M12.196290000000001,18.4062C13.7959,18.4062,15.05566,17.685499999999998,15.58301,16.513669999999998C15.6709,16.308590000000002,15.71777,16.121090000000002,15.71777,15.92188C15.71777,15.45312,15.38965,15.13672,14.8916,15.13672C14.5166,15.13672,14.293949999999999,15.29492,14.112300000000001,15.69336C13.731449999999999,16.54297,13.06348,16.94727,12.17285,16.94727C10.81934,16.94727,9.96973,15.83398,9.96973,14.0293C9.96973,12.24805,10.83105,11.128910000000001,12.16699,11.128910000000001C13.01074,11.128910000000001,13.70215,11.5625,14.08887,12.423829999999999C14.28223,12.83398,14.53418,13.00977,14.93262,13.00977C15.40137,13.00977,15.71191,12.71094,15.71191,12.24805C15.71191,12.03711,15.65332,11.808589999999999,15.53613,11.58594C14.956050000000001,10.36719,13.731449999999999,9.66406,12.14941,9.66406C9.71777,9.66406,8.165039,11.31055,8.165039,14.035160000000001C8.165039,16.76562,9.68848,18.4062,12.196290000000001,18.4062Z"></path></symbol>
<symbol xmlns="http://www.w3.org/2000/svg" viewBox="0 0 24 24" id="sidebar-calendar-exchange"><path d="M2.99998,8.71958C2.9999700000000002,12.1683,2.99995,15.9215,3,19.0012C3.00001,19.5535,3.44336,20,3.99564,20L8.19794,20C12.1334,20,16.0689,20.0001,20.0044,20C20.5567,20,21,19.5535,21,19.0012C21,15.8248,21,11.93197,21,8.39572L21,8.200199999999999L2.99999,8.200199999999999L2.99998,8.71958ZM3,4.99879C3,5.3891,3,5.79024,3,6.2002L21,6.2002L21,4.99879C21,4.44651,20.5567,4,20.0044,4L14.9836,4.00001C11.321,4.00002,7.65829,4.000030000000001,3.99562,4.00001C3.44334,4,3,4.4465,3,4.99879ZM1,4.96821L1.00000240895,19.0318C1.00000234058,20.6886,2.3131500000000003,22,3.97,22Q12,22,20.03,22C21.6869,22,23,20.6886,23,19.0318C23,15.6058,23,11.80277,23,8.200199999999999L23,6.2002L23,4.96821C23,3.31135,21.6857,2,20.0289,2L3.98419,2C2.32734,2,1,3.31136,1,4.96821Z" fill-rule="evenodd"></path><path d="M10.14844,18.2656L14.16797,18.2656C14.6543,18.2656,14.9707,17.9902,14.9707,17.5332C14.9707,17.0762,14.64844,16.80078,14.16797,16.80078L11.0332,16.80078L11.0332,14.66797L14.01562,14.66797C14.46094,14.66797,14.753910000000001,14.410160000000001,14.753910000000001,13.98828C14.753910000000001,13.566410000000001,14.455079999999999,13.308589999999999,14.01562,13.308589999999999L11.0332,13.308589999999999L11.0332,11.27539L14.16797,11.27539C14.64844,11.27539,14.9707,11,14.9707,10.54297C14.9707,10.08594,14.6543,9.81055,14.16797,9.81055L10.14844,9.81055C9.5918,9.81055,9.263672,10.15039,9.263672,10.73047L9.263672,17.3398C9.263672,17.925800000000002,9.5918,18.2656,10.14844,18.2656Z"></path></symbol>
<symbol xmlns="http://www.w3.org/2000/svg" viewBox="0 0 24 24" id="sidebar-calendar-google"><path d="M1.00000729083,4.96821L1.00000908467,19.0318C1.0000090163,20.6886,2.31316,22,3.97001,22Q12,22,20.03,22C21.6869,22,23,20.6886,23,19.0318C23,15.6572,23,11.91683,23,8.36253L23,4.96821C23,3.31135,21.6857,2,20.0289,2L3.9842,2C2.32734,2,1.00000694326,3.31136,1.00000729083,4.96821ZM21,6.2002L21,4.99879C21,4.44651,20.5567,4,20.0044,4L14.9836,4.00001C11.321,4.00002,7.6583,4.000030000000001,3.99563,4.00001C3.44334,4,3.00001,4.4465,3.00001,4.99879C3.00001,5.3891,3,5.79024,3,6.2002L21,6.2002ZM2.99999,8.200199999999999L2.99999,8.71166C2.9999700000000002,12.1625,2.99995,15.9192,3,19.0012C3.00001,19.5535,3.44337,20,3.99565,20L8.197949999999999,20C12.1334,20,16.0689,20.0001,20.0044,20C20.5567,20,21,19.5535,21,19.0012C21,15.8498,21,11.99317,21,8.47924L21,8.200199999999999L2.99999,8.200199999999999Z" fill-rule="evenodd"></path><path d="M12.14941,18.4062C14.53418,18.4062,15.89941,16.95898,15.89941,14.808589999999999L15.89941,14.67969C15.89941,14.09961,15.57129,13.75977,15.01465,13.75977L12.946290000000001,13.75977C12.518550000000001,13.75977,12.237300000000001,14,12.237300000000001,14.4043C12.237300000000001,14.808589999999999,12.52441,15.04883,12.946290000000001,15.04883L14.17676,15.04883L14.1709,15.18359C14.13574,16.232419999999998,13.33301,16.941409999999998,12.178709999999999,16.941409999999998C10.77246,16.941409999999998,9.88184,15.82227,9.88184,13.98828C9.88184,12.18945,10.71973,11.128910000000001,12.11426,11.128910000000001C12.946290000000001,11.128910000000001,13.56152,11.49805,13.977540000000001,12.253910000000001C14.19434,12.611329999999999,14.45801,12.76953,14.83301,12.76953C15.2959,12.76953,15.60645,12.45898,15.60645,12.00781C15.60645,11.83789,15.57715,11.66797,15.477540000000001,11.46289C15.00293,10.42578,13.731449999999999,9.66406,12.1084,9.66406C9.62402,9.66406,8.077148,11.30469,8.077148,14.01172C8.077148,16.75977,9.62402,18.4062,12.14941,18.4062Z"></path></symbol>
<symbol xmlns="http://www.w3.org/2000/svg" viewBox="0 0 24 24" id="sidebar-calendar-icloud"><path d="M2.9999689731407164,8.71958C2.999958973140717,12.1683,2.9999389731407167,15.9215,2.9999889731407166,19.0012C2.9999989731407166,19.5535,3.4433489731407168,20,3.9956289731407164,20L8.197928973140716,20C12.133388973140717,20,16.068888973140716,20.0001,20.004388973140717,20C20.556688973140716,20,20.999988973140717,19.5535,20.999988973140717,19.0012C20.999988973140717,15.8248,20.999988973140717,11.93197,20.999988973140717,8.39572L20.999988973140717,8.200199999999999L2.9999789731407165,8.200199999999999L2.9999689731407164,8.71958ZM2.9999889731407166,4.99879C2.9999889731407166,5.3891,2.9999889731407166,5.79024,2.9999889731407166,6.2002L20.999988973140717,6.2002L20.999988973140717,4.99879C20.999988973140717,4.44651,20.556688973140716,4,20.004388973140717,4L14.983588973140716,4.00001C11.320988973140716,4.00002,7.658278973140717,4.000030000000001,3.9956089731407167,4.00001C3.4433289731407166,4,2.9999889731407166,4.4465,2.9999889731407166,4.99879ZM0.9999889731407166,4.96821L0.9999913820907166,19.0318C0.9999913137207166,20.6886,2.313138973140717,22,3.9699889731407167,22Q11.999988973140717,22,20.029988973140718,22C21.686888973140718,22,22.999988973140717,20.6886,22.999988973140717,19.0318C22.999988973140717,15.6058,22.999988973140717,11.80277,22.999988973140717,8.200199999999999L22.999988973140717,6.2002L22.999988973140717,4.96821C22.999988973140717,3.31135,21.685688973140717,2,20.028888973140717,2L3.9841789731407165,2C2.3273289731407165,2,0.9999889731407166,3.31136,0.9999889731407166,4.96821Z" fill-rule="evenodd"></path><path d="M12.00293,11.205079999999999C12.51855,11.205079999999999,12.91699,10.8125,12.91699,10.32031C12.91699,9.82227,12.51855,9.43555,12.00293,9.43555C11.487305,9.43555,11.088867,9.82227,11.088867,10.32031C11.088867,10.8125,11.487305,11.205079999999999,12.00293,11.205079999999999ZM12.00293,18.3887C12.53027,18.3887,12.8584,18.0547,12.8584,17.497999999999998L12.8584,12.75195C12.8584,12.19531,12.53027,11.85547,12.00293,11.85547C11.469727,11.85547,11.147461,12.19531,11.147461,12.75195L11.147461,17.497999999999998C11.147461,18.0547,11.469727,18.3887,12.00293,18.3887Z"></path></symbol>
<symbol xmlns="http://www.w3.org/2000/svg" viewBox="0 0 24 24" id="sidebar-calendar-outlook"><path d="M2.99998,8.71958C2.9999700000000002,12.1683,2.99995,15.9215,3,19.0012C3.00001,19.5535,3.44336,20,3.99564,20L8.19794,20C12.1334,20,16.0689,20.0001,20.0044,20C20.5567,20,21,19.5535,21,19.0012C21,15.8248,21,11.93197,21,8.39572L21,8.200199999999999L2.99999,8.200199999999999L2.99998,8.71958ZM3,4.99879C3,5.3891,3,5.79024,3,6.2002L21,6.2002L21,4.99879C21,4.44651,20.5567,4,20.0044,4L14.9836,4.00001C11.321,4.00002,7.65829,4.000030000000001,3.99562,4.00001C3.44334,4,3,4.4465,3,4.99879ZM1,4.96821L1.00000240895,19.0318C1.00000234058,20.6886,2.3131500000000003,22,3.97,22Q12,22,20.03,22C21.6869,22,23,20.6886,23,19.0318C23,15.6058,23,11.80277,23,8.200199999999999L23,6.2002L23,4.96821C23,3.31135,21.6857,2,20.0289,2L3.98419,2C2.32734,2,1,3.31136,1,4.96821Z" fill-rule="evenodd"></path><path d="M12.00293,18.4062C14.50488,18.4062,16.081049999999998,16.73047,16.081049999999998,14.04102C16.081049999999998,11.3457,14.50488,9.66406,12.00293,9.66406C9.49512,9.66406,7.924805,11.3457,7.924805,14.04102C7.924805,16.73047,9.49512,18.4062,12.00293,18.4062ZM12.00293,16.92969C10.61426,16.92969,9.72949,15.81055,9.72949,14.04102C9.72949,12.26562,10.62012,11.14062,12.00293,11.14062C13.38574,11.14062,14.27051,12.26562,14.27051,14.04102C14.27051,15.81055,13.38574,16.92969,12.00293,16.92969Z"></path></symbol>
<symbol xmlns="http://www.w3.org/2000/svg" viewBox="0 0 24 24" id="sidebar-calendar-url"><path d="M1.00000729083,4.96821L1.00000908467,19.0318C1.0000090163,20.6886,2.31316,22,3.97001,22Q12,22,20.03,22C21.6869,22,23,20.6886,23,19.0318C23,15.6572,23,11.91683,23,8.36253L23,4.96821C23,3.31135,21.6857,2,20.0289,2L3.9842,2C2.32734,2,1.00000694326,3.31136,1.00000729083,4.96821ZM21,6.2002L21,4.99879C21,4.44651,20.5567,4,20.0044,4L14.9836,4.00001C11.321,4.00002,7.6583,4.000030000000001,3.99563,4.00001C3.44334,4,3.00001,4.4465,3.00001,4.99879C3.00001,5.3891,3,5.79024,3,6.2002L21,6.2002ZM2.99999,8.200199999999999L2.99999,8.71166C2.9999700000000002,12.1625,2.99995,15.9192,3,19.0012C3.00001,19.5535,3.44337,20,3.99565,20L8.197949999999999,20C12.1334,20,16.0689,20.0001,20.0044,20C20.5567,20,21,19.5535,21,19.0012C21,15.8498,21,11.99317,21,8.47924L21,8.200199999999999L2.99999,8.200199999999999Z" fill-rule="evenodd"></path><path d="M15.002682861022949,12.132209809265136Q15.002682861022949,12.696789809265137,14.596692861022948,13.096669809265137L13.539812861022948,14.137619809265136Q13.13199286102295,14.539309809265138,12.55433286102295,14.539309809265138Q11.976692861022949,14.539309809265138,11.568852861022949,14.137619809265136Q11.369672861022948,13.941439809265137,11.08825286102295,13.965019809265137Q10.85622286102295,13.984459809265136,10.673952861022949,14.145899809265137Q10.479662861022948,14.317989809265136,10.449722861022948,14.556599809265137Q10.414382861022949,14.838199809265138,10.625432861022949,15.063139809265136L10.62935286102295,15.067319809265136L10.63342286102295,15.071329809265137Q11.429452861022948,15.855359809265137,12.55433286102295,15.855369809265136Q13.67921286102295,15.855359809265137,14.475252861022948,15.071319809265137L15.532122861022948,14.030369809265137Q16.330002861022948,13.244509809265136,16.330002861022948,12.132209809265136Q16.330002861022948,11.019909809265137,15.532122861022948,10.234050809265137Q14.73610286102295,9.449999809265137,13.611212861022949,9.449999809265137Q12.48634286102295,9.449999809265137,11.69029286102295,10.234050809265137L11.057922861022949,10.856899809265137Q10.861972861022949,11.049889809265137,10.861972861022949,11.323749809265136Q10.861972861022949,11.597609809265137,11.057922861022949,11.790599809265137Q11.25202286102295,11.981779809265136,11.525632861022949,11.981779809265136Q11.79924286102295,11.981779809265136,11.993352861022949,11.790599809265137L12.62572286102295,11.167749809265137Q13.03355286102295,10.766069809265137,13.611212861022949,10.766059809265137Q14.18886286102295,10.766059809265137,14.596692861022948,11.167749809265137Q15.00269286102295,11.567629809265137,15.002682861022949,12.132209809265136ZM9.07732286102295,15.747789809265136Q9.07732286102295,15.183209809265136,9.483312861022949,14.783329809265137L10.540182861022949,13.742379809265136Q10.94801286102295,13.340689809265136,11.525672861022949,13.340689809265136Q12.103332861022949,13.340699809265136,12.51115286102295,13.742379809265136Q12.71034286102295,13.938559809265136,12.991752861022949,13.914979809265137Q13.223782861022949,13.895539809265138,13.40605286102295,13.734099809265135Q13.600342861022948,13.562009809265136,13.630282861022948,13.323399809265137Q13.66562286102295,13.041799809265136,13.45457286102295,12.816859809265136L13.450652861022949,12.812679809265138L13.44658286102295,12.808679809265136Q12.650542861022949,12.024629809265136,11.525672861022949,12.024629809265136Q10.40078286102295,12.024629809265136,9.604752861022948,12.808679809265136L8.547879861022949,13.849629809265137Q7.750002861022949,14.635499809265138,7.750002861022949,15.747789809265136Q7.750002861022949,16.860089809265137,8.54788386102295,17.645949809265137Q9.34394286102295,18.429989809265138,10.468802861022949,18.429999809265137Q11.59365286102295,18.429989809265138,12.38971286102295,17.645949809265137L13.022082861022948,17.023099809265137Q13.218032861022948,16.83010980926514,13.218032861022948,16.556249809265136Q13.218032861022948,16.282389809265137,13.022082861022948,16.08939980926514Q12.82797286102295,15.898219809265136,12.554372861022948,15.898219809265136Q12.28076286102295,15.898219809265136,12.086652861022948,16.089409809265135L11.45428286102295,16.71224980926514Q11.04644286102295,17.113929809265137,10.46879286102295,17.113939809265137Q9.89114286102295,17.113939809265137,9.483312861022949,16.71224980926514Q9.07732286102295,16.312389809265138,9.07732286102295,15.747789809265136Z" fill-rule="evenodd"></path></symbol>
<symbol xmlns="http://www.w3.org/2000/svg" viewBox="0 0 24 24" id="sidebar-collapse"><path d="M23.000015258789062,3Q22.901524258789063,3,22.804925258789062,3.0192147Q22.70832625878906,3.0384294,22.61733125878906,3.0761205Q22.526337258789063,3.113811,22.444445258789063,3.16853Q22.362552258789062,3.223249,22.292908258789062,3.292893Q22.22326425878906,3.362537,22.168545258789063,3.44443Q22.11382625878906,3.526322,22.07613575878906,3.6173159999999998Q22.03844465878906,3.708311,22.01922995878906,3.80491Q22.000015258789062,3.901509,22.000015258789062,4Q22.000015258789062,4.09849,22.01922995878906,4.19509Q22.03844465878906,4.29169,22.07613575878906,4.38268Q22.11382625878906,4.47368,22.168545258789063,4.5555699999999995Q22.22326425878906,4.63746,22.292908258789062,4.70711Q22.362552258789062,4.77675,22.444445258789063,4.8314699999999995Q22.526337258789063,4.88619,22.61733125878906,4.9238800000000005Q22.70832625878906,4.96157,22.804925258789062,4.98079Q22.901524258789063,5,23.000015258789062,5L41.00001525878906,5Q41.098515258789064,5,41.19511525878906,4.98079Q41.29171525878906,4.96157,41.38271525878906,4.9238800000000005Q41.47371525878906,4.88619,41.55561525878906,4.8314699999999995Q41.637515258789065,4.77675,41.70711525878906,4.70711Q41.77671525878907,4.63746,41.83151525878906,4.5555699999999995Q41.886215258789065,4.47368,41.923915258789066,4.38268Q41.96161525878907,4.29169,41.980815258789065,4.19509Q42.00001525878906,4.09849,42.00001525878906,4Q42.00001525878906,3.901509,41.980815258789065,3.80491Q41.96161525878907,3.708311,41.923915258789066,3.6173159999999998Q41.886215258789065,3.526322,41.83151525878906,3.44443Q41.77671525878907,3.362537,41.70711525878906,3.292893Q41.637515258789065,3.223249,41.55561525878906,3.16853Q41.47371525878906,3.113811,41.38271525878906,3.0761205Q41.29171525878906,3.0384294,41.19511525878906,3.0192147Q41.098515258789064,3,41.00001525878906,3L23.000015258789062,3ZM26.640195258789063,11.23178L23.640315258789062,8.73187L23.640195258789063,8.73178Q23.505415258789064,8.61946,23.340445258789064,8.55973Q23.175465258789064,8.5,23.000015258789062,8.5Q22.901524258789063,8.5,22.804925258789062,8.519210000000001Q22.70832625878906,8.53843,22.61733125878906,8.57612Q22.526337258789063,8.61381,22.444445258789063,8.66853Q22.362552258789062,8.72325,22.292908258789062,8.79289Q22.22326425878906,8.86254,22.168545258789063,8.94443Q22.11382625878906,9.02632,22.07613575878906,9.11732Q22.03844465878906,9.20831,22.01922995878906,9.30491Q22.000015258789062,9.40151,22.000015258789062,9.5Q22.000015258789062,9.609950000000001,22.023903258789062,9.71727Q22.047791158789064,9.82459,22.094425858789062,9.92416Q22.14106025878906,10.02372,22.208214258789063,10.11078Q22.275367258789064,10.19784,22.35983125878906,10.26822L22.35994525878906,10.26832L24.437965258789063,12L22.35983125878906,13.7318Q22.275367258789064,13.8022,22.208214258789063,13.8892Q22.14106025878906,13.9763,22.094425858789062,14.0758Q22.047791158789064,14.1754,22.023903258789062,14.2827Q22.000015258789062,14.3901,22.000015258789062,14.5Q22.000015258789062,14.5985,22.01922995878906,14.6951Q22.03844465878906,14.7917,22.07613575878906,14.8827Q22.11382625878906,14.9737,22.168545258789063,15.0556Q22.22326425878906,15.1375,22.292908258789062,15.2071Q22.362552258789062,15.2767,22.444445258789063,15.3315Q22.526337258789063,15.3862,22.61733125878906,15.4239Q22.70832625878906,15.4616,22.804925258789062,15.4808Q22.901524258789063,15.5,23.000015258789062,15.5Q23.175465258789064,15.5,23.340445258789064,15.4403Q23.505415258789064,15.3805,23.640195258789063,15.2682L26.640195258789063,12.76822Q26.793005258789062,12.64088,26.88545525878906,12.46476Q26.97789525878906,12.28863,26.99590525878906,12.09054Q27.013915258789062,11.89244,26.95474525878906,11.70253Q26.895575258789062,11.51262,26.768235258789062,11.35982Q26.710035258789063,11.28998,26.640195258789063,11.23178ZM30.000015258789062,11Q29.901525258789064,11,29.804925258789062,11.01921Q29.708325258789063,11.03843,29.617335258789062,11.07612Q29.52633525878906,11.11381,29.444445258789063,11.16853Q29.36255525878906,11.22325,29.292905258789062,11.29289Q29.223265258789063,11.36254,29.168545258789063,11.44443Q29.113825258789063,11.52632,29.076135258789062,11.61732Q29.03844525878906,11.70831,29.019225258789064,11.80491Q29.000015258789062,11.90151,29.000015258789062,12Q29.000015258789062,12.09849,29.019225258789064,12.19509Q29.03844525878906,12.29169,29.076135258789062,12.38268Q29.113825258789063,12.47368,29.168545258789063,12.55557Q29.223265258789063,12.63746,29.292905258789062,12.70711Q29.36255525878906,12.77675,29.444445258789063,12.83147Q29.52633525878906,12.88619,29.617335258789062,12.92388Q29.708325258789063,12.96157,29.804925258789062,12.98078Q29.901525258789064,13,30.000015258789062,13L41.00001525878906,13Q41.098515258789064,13,41.19511525878906,12.98078Q41.29171525878906,12.96157,41.38271525878906,12.92388Q41.47371525878906,12.88619,41.55561525878906,12.83147Q41.637515258789065,12.77675,41.70711525878906,12.70711Q41.77671525878907,12.63746,41.83151525878906,12.55557Q41.886215258789065,12.47368,41.923915258789066,12.38268Q41.96161525878907,12.29169,41.980815258789065,12.19509Q42.00001525878906,12.09849,42.00001525878906,12Q42.00001525878906,11.90151,41.980815258789065,11.80491Q41.96161525878907,11.70831,41.923915258789066,11.61732Q41.886215258789065,11.52632,41.83151525878906,11.44443Q41.77671525878907,11.36254,41.70711525878906,11.29289Q41.637515258789065,11.22325,41.55561525878906,11.16853Q41.47371525878906,11.11381,41.38271525878906,11.07612Q41.29171525878906,11.03843,41.19511525878906,11.01921Q41.098515258789064,11,41.00001525878906,11L30.000015258789062,11ZM23.000015258789062,19Q22.901524258789063,19,22.804925258789062,19.0192Q22.70832625878906,19.0384,22.61733125878906,19.0761Q22.526337258789063,19.1138,22.444445258789063,19.1685Q22.362552258789062,19.2232,22.292908258789062,19.2929Q22.22326425878906,19.3625,22.168545258789063,19.4444Q22.11382625878906,19.5263,22.07613575878906,19.6173Q22.03844465878906,19.7083,22.01922995878906,19.8049Q22.000015258789062,19.9015,22.000015258789062,20Q22.000015258789062,20.0985,22.01922995878906,20.1951Q22.03844465878906,20.2917,22.07613575878906,20.3827Q22.11382625878906,20.4737,22.168545258789063,20.5556Q22.22326425878906,20.6375,22.292908258789062,20.7071Q22.362552258789062,20.7767,22.444445258789063,20.8315Q22.526337258789063,20.8862,22.61733125878906,20.9239Q22.70832625878906,20.9616,22.804925258789062,20.9808Q22.901524258789063,21,23.000015258789062,21L41.00001525878906,21Q41.098515258789064,21,41.19511525878906,20.9808Q41.29171525878906,20.9616,41.38271525878906,20.9239Q41.47371525878906,20.8862,41.55561525878906,20.8315Q41.637515258789065,20.7767,41.70711525878906,20.7071Q41.77671525878907,20.6375,41.83151525878906,20.5556Q41.886215258789065,20.4737,41.923915258789066,20.3827Q41.96161525878907,20.2917,41.980815258789065,20.1951Q42.00001525878906,20.0985,42.00001525878906,20Q42.00001525878906,19.9015,41.980815258789065,19.8049Q41.96161525878907,19.7083,41.923915258789066,19.6173Q41.886215258789065,19.5263,41.83151525878906,19.4444Q41.77671525878907,19.3625,41.70711525878906,19.2929Q41.637515258789065,19.2232,41.55561525878906,19.1685Q41.47371525878906,19.1138,41.38271525878906,19.0761Q41.29171525878906,19.0384,41.19511525878906,19.0192Q41.098515258789064,19,41.00001525878906,19L23.000015258789062,19Z" fill-rule="evenodd" transform="matrix(-1 0 0 1 44 0)"></path></symbol>
<symbol xmlns="http://www.w3.org/2000/svg" viewBox="0 0 18 18" id="sidebar-completed-list"><path d="M1.125,4.125L1.125,13.875C1.125,15.5319,2.46815,16.875,4.125,16.875L13.875,16.875C15.5319,16.875,16.875,15.5319,16.875,13.875L16.875,4.125C16.875,2.46815,15.5319,1.125,13.875,1.125L4.125,1.125C2.46815,1.125,1.125,2.46815,1.125,4.125ZM3.0643599999999998,14.9357Q2.625,14.4963,2.625,13.875L2.625,4.125Q2.625,3.50368,3.06434,3.06434Q3.50368,2.625,4.125,2.625L13.875,2.625Q14.4963,2.62493,14.9356,3.06427Q15.375,3.50368,15.375,4.125L15.375,13.875Q15.375,14.4964,14.9356,14.9357Q14.4963,15.375,13.875,15.375L4.125,15.375Q3.5037,15.3751,3.0643599999999998,14.9357ZM12.7129,7.41234L8.47031,11.6549L8.470220000000001,11.655C8.177330000000001,11.9479,7.70246,11.9479,7.40956,11.655C7.40636,11.6518,7.40319,11.6485,7.40006,11.6453L5.28833,9.53357C4.99544,9.24068,4.99544,8.765799999999999,5.28833,8.472909999999999C5.58122,8.180019999999999,6.0561,8.180019999999999,6.34899,8.472909999999999L7.93998,10.0639L11.6522,6.35168C11.9451,6.05879,12.42,6.05879,12.7129,6.35168C13.0058,6.64457,13.0058,7.11945,12.7129,7.41234Z" fill-rule="evenodd"></path></symbol>
<symbol xmlns="http://www.w3.org/2000/svg" viewBox="0 0 24 24" id="sidebar-custom-smart-list"><path d="M3.00001,4Q2.901522,4,2.804923,4.0192147Q2.708324,4.0384294,2.61733,4.0761205Q2.526336,4.113811,2.444443,4.16853Q2.36255,4.223249,2.292907,4.292893Q2.223263,4.362537,2.168544,4.44443Q2.113825,4.526322,2.0761338,4.617316Q2.0384428,4.708311,2.0192281,4.80491Q2.0000133514,4.901509,2.0000133514,5Q2.0000133514,5.09849,2.0192281,5.19509Q2.0384428,5.29169,2.0761338,5.38268Q2.113825,5.47368,2.168544,5.5555699999999995Q2.223263,5.63746,2.292907,5.70711Q2.36255,5.77675,2.444443,5.8314699999999995Q2.526336,5.88619,2.61733,5.9238800000000005Q2.708324,5.96157,2.804923,5.98079Q2.901522,6,3.00001,6L21,6Q21.0985,6,21.1951,5.98079Q21.2917,5.96157,21.3827,5.9238800000000005Q21.4737,5.88619,21.5556,5.8314699999999995Q21.6375,5.77675,21.7071,5.70711Q21.7768,5.63746,21.8315,5.5555699999999995Q21.8862,5.47368,21.9239,5.38268Q21.9616,5.29169,21.9808,5.19509Q22,5.09849,22,5Q22,4.901509,21.9808,4.80491Q21.9616,4.708311,21.9239,4.617316Q21.8862,4.526322,21.8315,4.44443Q21.7768,4.362537,21.7071,4.292893Q21.6375,4.223249,21.5556,4.16853Q21.4737,4.113811,21.3827,4.0761205Q21.2917,4.0384294,21.1951,4.0192147Q21.0985,4,21,4L3.00001,4ZM13.402,9.40503C12.4716,9.40503,12.0454,10.56436,12.7544,11.16697L15.6463,13.62508C15.6686,13.64408,15.6815,13.67194,15.6815,13.70127L15.6815,18.787C15.6815,19.1658,15.8955,19.512,16.234299999999998,19.6814L17.957900000000002,20.5432C18.2903,20.7095,18.6815,20.4677,18.6815,20.096L18.6815,13.70127C18.6815,13.67194,18.6944,13.64408,18.7167,13.62508L21.6086,11.16697C22.3176,10.56436,21.8914,9.40503,20.961,9.40503L13.402,9.40503ZM3,13C2.447719,13,2.0000038147,12.55228,2.0000038147,12C2.0000038147,11.44772,2.447719,11,3,11L10,11C10.55229,11,11,11.44772,11,12C11,12.55228,10.55229,13,10,13L3,13ZM3,20C2.447719,20,2.0000038147,19.552300000000002,2.0000038147,19C2.0000038147,18.447699999999998,2.447719,18,3,18L13,18C13.5523,18,14,18.447699999999998,14,19C14,19.552300000000002,13.5523,20,13,20L3,20Z" fill-rule="evenodd"></path></symbol>
<symbol xmlns="http://www.w3.org/2000/svg" viewBox="0 0 18 18" id="sidebar-delete-list"><path d="M16.125045776367188,4.875L16.125045776367188,13.884C16.125045776367188,15.5408,14.773345776367188,16.875,13.116445776367188,16.875L4.940645776367187,16.875C3.2505157763671875,16.875,1.9135257763671876,15.4858,1.9204857763671874,13.7957C1.9273157763671875,12.1334,1.9123957763671875,10.40957,1.8978557763671875,8.73059C1.8863257763671875,7.39955,1.8750457763671875,6.09669,1.8750457763671875,4.875L0.7500457763671875,4.875C0.5429387763671875,4.875,0.3750457763671875,4.70711,0.3750457763671875,4.5L0.3750457763671875,3.75C0.3750457763671875,3.54289,0.5429387763671875,3.375,0.7500457763671875,3.375L4.5000457763671875,3.375L4.5000457763671875,3C4.5000457763671875,2.005887,5.273655776367187,1.1924653,6.251725776367188,1.12898254L6.3750457763671875,1.125L11.625045776367188,1.125C12.619145776367187,1.125,13.432545776367187,1.898658,13.496045776367188,2.8767199999999997L13.500045776367188,3L13.500045776367188,3.375L17.250045776367188,3.375C17.457145776367188,3.375,17.625045776367188,3.54289,17.625045776367188,3.75L17.625045776367188,4.5C17.625045776367188,4.70711,17.457145776367188,4.875,17.250045776367188,4.875L16.125045776367188,4.875ZM7.1250457763671875,2.625L10.875045776367188,2.625L10.942445776367187,2.63104L11.005845776367188,2.64848C11.148445776367188,2.70158,11.250045776367188,2.83892,11.250045776367188,3L11.250045776367188,3.375L6.7500457763671875,3.375L6.7500457763671875,3L6.756085776367187,2.93257C6.787835776367188,2.75763,6.940955776367187,2.625,7.1250457763671875,2.625ZM14.625045776367188,4.875L14.625045776367188,13.8869C14.625045776367188,14.7153,13.966945776367188,15.375,13.138445776367188,15.375L4.886075776367187,15.375C4.057645776367187,15.375,3.3750457763671875,14.6994,3.3750457763671875,13.871L3.3750457763671875,4.875L14.625045776367188,4.875ZM7.8750457763671875,7.82812C7.8750457763671875,7.64691,7.707155776367188,7.5,7.5000457763671875,7.5L6.7500457763671875,7.5C6.542935776367187,7.5,6.3750457763671875,7.64691,6.3750457763671875,7.82812L6.3750457763671875,12.4219C6.3750457763671875,12.6031,6.542935776367187,12.75,6.7500457763671875,12.75L7.5000457763671875,12.75C7.707155776367188,12.75,7.8750457763671875,12.6031,7.8750457763671875,12.4219L7.8750457763671875,7.82812ZM11.625045776367188,7.82812C11.625045776367188,7.64691,11.457145776367188,7.5,11.250045776367188,7.5L10.500045776367188,7.5C10.292935776367187,7.5,10.125045776367188,7.64691,10.125045776367188,7.82812L10.125045776367188,12.4219C10.125045776367188,12.6031,10.292935776367187,12.75,10.500045776367188,12.75L11.250045776367188,12.75C11.457145776367188,12.75,11.625045776367188,12.6031,11.625045776367188,12.4219L11.625045776367188,7.82812Z" fill-rule="evenodd"></path></symbol>
<symbol xmlns="http://www.w3.org/2000/svg" viewBox="0 0 24 24" id="sidebar-expand"><path d="M3,3Q2.901509,3,2.80491,3.0192147Q2.708311,3.0384294,2.6173159999999998,3.0761205Q2.526322,3.113811,2.44443,3.16853Q2.362537,3.223249,2.292893,3.292893Q2.223249,3.362537,2.16853,3.44443Q2.113811,3.526322,2.0761205,3.6173159999999998Q2.0384294,3.708311,2.0192147,3.80491Q2,3.901509,2,4Q2,4.09849,2.0192147,4.19509Q2.0384294,4.29169,2.0761205,4.38268Q2.113811,4.47368,2.16853,4.5555699999999995Q2.223249,4.63746,2.292893,4.70711Q2.362537,4.77675,2.44443,4.8314699999999995Q2.526322,4.88619,2.6173159999999998,4.9238800000000005Q2.708311,4.96157,2.80491,4.98079Q2.901509,5,3,5L21,5Q21.0985,5,21.1951,4.98079Q21.2917,4.96157,21.3827,4.9238800000000005Q21.4737,4.88619,21.5556,4.8314699999999995Q21.6375,4.77675,21.7071,4.70711Q21.7767,4.63746,21.8315,4.5555699999999995Q21.8862,4.47368,21.9239,4.38268Q21.9616,4.29169,21.9808,4.19509Q22,4.09849,22,4Q22,3.901509,21.9808,3.80491Q21.9616,3.708311,21.9239,3.6173159999999998Q21.8862,3.526322,21.8315,3.44443Q21.7767,3.362537,21.7071,3.292893Q21.6375,3.223249,21.5556,3.16853Q21.4737,3.113811,21.3827,3.0761205Q21.2917,3.0384294,21.1951,3.0192147Q21.0985,3,21,3L3,3ZM6.64018,11.23178L3.6403,8.73187L3.64018,8.73178Q3.5054,8.61946,3.34043,8.55973Q3.17545,8.5,3,8.5Q2.901509,8.5,2.80491,8.519210000000001Q2.708311,8.53843,2.6173159999999998,8.57612Q2.526322,8.61381,2.44443,8.66853Q2.362537,8.72325,2.292893,8.79289Q2.223249,8.86254,2.16853,8.94443Q2.113811,9.02632,2.0761205,9.11732Q2.0384294,9.20831,2.0192147,9.30491Q2,9.40151,2,9.5Q2,9.609950000000001,2.023888,9.71727Q2.0477759,9.82459,2.0944106,9.92416Q2.141045,10.02372,2.208199,10.11078Q2.275352,10.19784,2.359816,10.26822L2.35993,10.26832L4.43795,12L2.359816,13.7318Q2.275352,13.8022,2.208199,13.8892Q2.141045,13.9763,2.0944106,14.0758Q2.0477759,14.1754,2.023888,14.2827Q2,14.3901,2,14.5Q2,14.5985,2.0192147,14.6951Q2.0384294,14.7917,2.0761205,14.8827Q2.113811,14.9737,2.16853,15.0556Q2.223249,15.1375,2.292893,15.2071Q2.362537,15.2767,2.44443,15.3315Q2.526322,15.3862,2.6173159999999998,15.4239Q2.708311,15.4616,2.80491,15.4808Q2.901509,15.5,3,15.5Q3.17545,15.5,3.34043,15.4403Q3.5054,15.3805,3.64018,15.2682L6.64018,12.76822Q6.79299,12.64088,6.88544,12.46476Q6.97788,12.28863,6.99589,12.09054Q7.0139,11.89244,6.95473,11.70253Q6.89556,11.51262,6.76822,11.35982Q6.71002,11.28998,6.64018,11.23178ZM10,11Q9.90151,11,9.80491,11.01921Q9.70831,11.03843,9.61732,11.07612Q9.52632,11.11381,9.44443,11.16853Q9.36254,11.22325,9.29289,11.29289Q9.22325,11.36254,9.16853,11.44443Q9.11381,11.52632,9.07612,11.61732Q9.03843,11.70831,9.019210000000001,11.80491Q9,11.90151,9,12Q9,12.09849,9.019210000000001,12.19509Q9.03843,12.29169,9.07612,12.38268Q9.11381,12.47368,9.16853,12.55557Q9.22325,12.63746,9.29289,12.70711Q9.36254,12.77675,9.44443,12.83147Q9.52632,12.88619,9.61732,12.92388Q9.70831,12.96157,9.80491,12.98078Q9.90151,13,10,13L21,13Q21.0985,13,21.1951,12.98078Q21.2917,12.96157,21.3827,12.92388Q21.4737,12.88619,21.5556,12.83147Q21.6375,12.77675,21.7071,12.70711Q21.7767,12.63746,21.8315,12.55557Q21.8862,12.47368,21.9239,12.38268Q21.9616,12.29169,21.9808,12.19509Q22,12.09849,22,12Q22,11.90151,21.9808,11.80491Q21.9616,11.70831,21.9239,11.61732Q21.8862,11.52632,21.8315,11.44443Q21.7767,11.36254,21.7071,11.29289Q21.6375,11.22325,21.5556,11.16853Q21.4737,11.11381,21.3827,11.07612Q21.2917,11.03843,21.1951,11.01921Q21.0985,11,21,11L10,11ZM3,19Q2.901509,19,2.80491,19.0192Q2.708311,19.0384,2.6173159999999998,19.0761Q2.526322,19.1138,2.44443,19.1685Q2.362537,19.2232,2.292893,19.2929Q2.223249,19.3625,2.16853,19.4444Q2.113811,19.5263,2.0761205,19.6173Q2.0384294,19.7083,2.0192147,19.8049Q2,19.9015,2,20Q2,20.0985,2.0192147,20.1951Q2.0384294,20.2917,2.0761205,20.3827Q2.113811,20.4737,2.16853,20.5556Q2.223249,20.6375,2.292893,20.7071Q2.362537,20.7767,2.44443,20.8315Q2.526322,20.8862,2.6173159999999998,20.9239Q2.708311,20.9616,2.80491,20.9808Q2.901509,21,3,21L21,21Q21.0985,21,21.1951,20.9808Q21.2917,20.9616,21.3827,20.9239Q21.4737,20.8862,21.5556,20.8315Q21.6375,20.7767,21.7071,20.7071Q21.7767,20.6375,21.8315,20.5556Q21.8862,20.4737,21.9239,20.3827Q21.9616,20.2917,21.9808,20.1951Q22,20.0985,22,20Q22,19.9015,21.9808,19.8049Q21.9616,19.7083,21.9239,19.6173Q21.8862,19.5263,21.8315,19.4444Q21.7767,19.3625,21.7071,19.2929Q21.6375,19.2232,21.5556,19.1685Q21.4737,19.1138,21.3827,19.0761Q21.2917,19.0384,21.1951,19.0192Q21.0985,19,21,19L3,19Z" fill-rule="evenodd"></path></symbol>
<symbol xmlns="http://www.w3.org/2000/svg" viewBox="0 0 16 16" id="sidebar-focus-sidebar"><path d="M8.00001701171875,15.33320390625C12.05008701171875,15.33320390625,15.33338701171875,12.04990390625,15.33338701171875,7.99983390625C15.33338701171875,3.94974390625,12.05008701171875,0.66650390625,8.00001701171875,0.66650390625C3.94992701171875,0.66650390625,0.66668701171875,3.94974390625,0.66668701171875,7.99983390625C0.66668701171875,12.04990390625,3.94992701171875,15.33320390625,8.00001701171875,15.33320390625ZM13.57878701171875,5.79126390625Q13.99998701171875,6.85537390625,13.99998701171875,7.99983390625Q13.99998701171875,9.14429390625,13.57878701171875,10.20840390625Q13.12138701171875,11.36380390625,12.24268701171875,12.24250390625Q11.36398701171875,13.12120390625,10.20858701171875,13.57860390625Q9.14447701171875,13.99980390625,8.00001701171875,13.99980390625Q6.85555701171875,13.99980390625,5.79144701171875,13.57860390625Q4.63605701171875,13.12120390625,3.75737701171875,12.24250390625Q2.87869701171875,11.36380390625,2.42128701171875,10.20840390625Q2.00001701171875,9.14429390625,2.00001701171875,7.99983390625Q2.00001701171875,6.85537390625,2.42128701171875,5.79126390625Q2.87869701171875,4.63587390625,3.75737701171875,3.75719390625Q4.63605701171875,2.87851390625,5.79144701171875,2.42110390625Q6.85555701171875,1.99983390625,8.00001701171875,1.99983390625Q9.14447701171875,1.99983390625,10.20858701171875,2.42110390625Q11.36398701171875,2.87851390625,12.24268701171875,3.75719390625Q13.12138701171875,4.63587390625,13.57878701171875,5.79126390625ZM8.00010701171875,10.66680390625C9.47285701171875,10.66680390625,10.66678701171875,9.47292390625,10.66678701171875,8.00016390625C10.66678701171875,6.52740390625,9.47285701171875,5.33349390625,8.00010701171875,5.33349390625C6.52734701171875,5.33349390625,5.33343701171875,6.52740390625,5.33343701171875,8.00016390625C5.33343701171875,9.47292390625,6.52734701171875,10.66680390625,8.00010701171875,10.66680390625ZM8.94290701171875,7.05735390625Q9.33343701171875,7.44787390625,9.33343701171875,8.00016390625Q9.33343701171875,8.55244390625,8.94290701171875,8.94297390625Q8.55238701171875,9.33349390625,8.00010701171875,9.33349390625Q7.44781701171875,9.33349390625,7.05729701171875,8.94297390625Q6.66676701171875,8.55244390625,6.66676701171875,8.00016390625Q6.66676701171875,7.44787390625,7.05729701171875,7.05735390625Q7.44781701171875,6.66683390625,8.00010701171875,6.66683390625Q8.55238701171875,6.66683390625,8.94290701171875,7.05735390625Z" fill-rule="evenodd"></path></symbol>
<symbol xmlns="http://www.w3.org/2000/svg" viewBox="0 0 24 24" id="sidebar-folder-open"><path d="M22.49739999523163,11.5L22.49739999523163,8.5C22.49739999523163,6.29086,20.706499995231628,4.5,18.49739999523163,4.5L10.757799995231629,4.5C10.267939995231629,4.5,9.795139995231628,4.32024,9.429039995231628,3.99482L8.599859995231629,3.257772C8.050709995231628,2.769636,7.341519995231629,2.5,6.606769995231629,2.5L4.497369995231629,2.5C2.8405199952316282,2.5,1.4973709952316283,3.84315,1.4973709952316283,5.5L1.4973709952316283,11.5C1.4973709952316283,12.05229,1.9450899952316285,12.5,2.4973699952316286,12.5C3.0496599952316283,12.5,3.4973699952316286,12.05229,3.4973699952316286,11.5L3.4973699952316286,5.5Q3.4973699952316286,5.085789999999999,3.7902599952316285,4.79289Q4.083159995231629,4.5,4.497369995231629,4.5L6.606769995231629,4.5Q6.986969995231628,4.5,7.2711399952316285,4.75259L8.100309995231628,5.48964Q9.236969995231629,6.5,10.757799995231629,6.5L18.49739999523163,6.5Q19.325799995231627,6.50003,19.91159999523163,7.08582Q20.49739999523163,7.67157,20.49739999523163,8.5L20.49739999523163,11.5C20.49739999523163,12.05229,20.94509999523163,12.5,21.49739999523163,12.5C22.049699995231627,12.5,22.49739999523163,12.05229,22.49739999523163,11.5M1.6301499952316285,13.5C1.0286549952316284,13.5,0.5632682952316284,14.0272,0.6378749652316285,14.624L1.0593879952316283,17.9961C1.3096019952316285,19.9979,3.0112099952316282,21.5,5.028499995231629,21.5L18.96619999523163,21.5C20.98349999523163,21.5,22.685099995231628,19.9979,22.935399995231627,17.9961L23.35689999523163,14.624C23.43149999523163,14.0272,22.966099995231627,13.5,22.36459999523163,13.5L1.6301499952316285,13.5ZM3.0439399952316286,17.7481L2.7629399952316285,15.5L21.23179999523163,15.5L20.950799995231627,17.7481Q20.85699999523163,18.4987,20.28979999523163,18.9994Q19.72269999523163,19.5,18.96619999523163,19.5L5.028499995231629,19.5Q4.272009995231628,19.5,3.7048899952316283,18.9994Q3.1377699952316283,18.4987,3.0439399952316286,17.7481Z" fill-rule="evenodd"></path></symbol>
<symbol xmlns="http://www.w3.org/2000/svg" viewBox="0 0 24 24" id="sidebar-folder"><path d="M1,17.5C1,19.7091,2.79086,21.5,5,21.5L19,21.5C21.2091,21.5,23,19.7091,23,17.5L23,8.5C23,6.29086,21.2091,4.5,19,4.5L10.2604,4.5C9.77057,4.5,9.29777,4.32024,8.93167,3.99482L8.10249,3.257772C7.55334,2.769636,6.23474,2.5,5.5,2.5L4.5,2.5C2,2.5,1,4.34315,1,6L1,17.5ZM3,17.5Q3,18.328400000000002,3.58578,18.9142Q4.17157,19.5,5,19.5L19,19.5Q19.8284,19.5,20.4142,18.9142Q21,18.328400000000002,21,17.5L21,11.5L3,11.5L3,17.5ZM3,6L3,9.5L12,9.5L21,9.5L21,8.5Q21,7.67157,20.4142,7.08582Q19.8284,6.50003,19,6.5L10.2604,6.5Q8.7396,6.5,7.60294,5.48964L6.77377,4.75259Q6.4896,4.5,5.5,4.5L4.5,4.5C3.43502,4.5,3,4.97068,3,6Z" fill-rule="evenodd"></path></symbol>
<symbol xmlns="http://www.w3.org/2000/svg" viewBox="0 0 24 24" id="sidebar-habit-sidebar"><path d="M22.5,10.97998046875Q22.5,16.09398046875,14.3341,22.68718046875C12.9755,23.78408046875,11.02449,23.78408046875,9.66589,22.68718046875Q1.5,16.09398046875,1.5,10.97998046875C1.5,5.18102046875,6.20101,0.48001098635,12,0.48001098635C17.799,0.48001098635,22.5,5.18102046875,22.5,10.97998046875ZM20.5,10.97998046875Q20.5,7.45920046875,18.0104,4.96960046875Q15.5208,2.48001046875,12,2.48001046875Q8.47918,2.48001046875,5.98959,4.96960046875Q3.5,7.45919046875,3.5,10.97998046875Q3.5,15.13828046875,10.92229,21.13108046875Q11.39146,21.50988046875,12,21.50988046875Q12.6085,21.50988046875,13.0777,21.13108046875Q20.5,15.13828046875,20.5,10.97998046875ZM15,10.00000046875L13,10.00000046875L13,6.00000046875C13,5.44771046875,12.5523,5.00000046875,12,5.00000046875C11.44771,5.00000046875,11,5.44771046875,11,6.00000046875L11,10.99998046875Q11,11.09848046875,11.01921,11.19508046875Q11.03843,11.29168046875,11.07612,11.38268046875Q11.11381,11.47368046875,11.16853,11.55558046875Q11.22325,11.63748046875,11.29289,11.70708046875Q11.36253,11.77678046875,11.44443,11.83148046875Q11.5263,11.88618046875,11.6173,11.92388046875Q11.7083,11.96158046875,11.8049,11.98078046875Q11.9015,11.99998046875,12,11.99998046875L15,11.99998046875Q15.0985,11.99998046875,15.1951,11.98078046875Q15.2917,11.96158046875,15.3827,11.92388046875Q15.4737,11.88618046875,15.5556,11.83148046875Q15.6375,11.77678046875,15.7071,11.70708046875Q15.7767,11.63748046875,15.8315,11.55558046875Q15.8862,11.47368046875,15.9239,11.38268046875Q15.9616,11.29168046875,15.9808,11.19508046875Q16,11.09848046875,16,10.99998046875Q16,10.90148046875,15.9808,10.80488046875Q15.9616,10.70828046875,15.9239,10.61728046875Q15.8862,10.52628046875,15.8315,10.44443046875Q15.7767,10.36254046875,15.7071,10.29289046875Q15.6375,10.22325046875,15.5556,10.16853046875Q15.4737,10.11381046875,15.3827,10.07612046875Q15.2917,10.03843046875,15.1951,10.01921046875Q15.0985,10.00000046875,15,10.00000046875Z" fill-rule="evenodd"></path></symbol>
<symbol xmlns="http://www.w3.org/2000/svg" viewBox="0 0 24 24" id="sidebar-inbox-list"><path d="M0.5,12.2590655859375L0.5,17.1454755859375C0.5,19.3545755859375,2.29086,21.1454755859375,4.5,21.1454755859375L19.5,21.1454755859375C21.7091,21.1454755859375,23.5,19.3545755859375,23.5,17.1454755859375L23.5,12.3607955859375C23.5,11.6111155859375,23.2893,10.8765255859375,22.892,10.240805585937501L19.4477,4.7299755859375C18.7168,3.5604545859375,17.4349,2.8499755859375,16.0557,2.8499755859375L7.94426,2.8499755859375C6.5651,2.8499755859375,5.28322,3.5604545859375,4.55227,4.7299755859375L1.05409,10.3270655859375C0.691995,10.9064155859375,0.5,11.5758655859375,0.5,12.2590655859375ZM2.5,13.2590755859375L2.5,17.1454755859375Q2.5,17.9738755859375,3.08579,18.559675585937498Q3.67157,19.1454755859375,4.5,19.1454755859375L19.5,19.1454755859375Q20.3284,19.1454755859375,20.9142,18.559675585937498Q21.5,17.9738755859375,21.5,17.1454755859375L21.5,13.2590755859375L16.0718,13.2590755859375Q15.8657,14.3960755859375,15.0014,15.2604755859375Q13.8664,16.3953755859375,12.2613,16.3953755859375Q10.6563,16.3953755859375,9.5213,15.2604755859375Q8.65694,14.3960755859375,8.450859999999999,13.2590755859375L2.5,13.2590755859375ZM2.83011,11.2590355859375L9.38634,11.2590355859375C9.93863,11.2590355859375,10.38634,11.7067455859375,10.38634,12.2590355859375L10.38634,12.5203955859375Q10.38634,13.2970755859375,10.9355,13.8461755859375Q11.4847,14.3953755859375,12.2613,14.3953755859375Q13.038,14.3953755859375,13.5872,13.8461755859375Q14.1363,13.2970755859375,14.1363,12.5203955859375L14.1363,12.2590355859375C14.1363,11.7067455859375,14.5841,11.2590355859375,15.1363,11.2590355859375L21.1699,11.2590355859375L17.7517,5.7899755859374995Q17.1642,4.8499755859375,16.0557,4.8499755859375L7.94426,4.8499755859375Q6.83577,4.8499755859375,6.24827,5.7899755859374995L2.83011,11.2590355859375Z" fill-rule="evenodd"></path></symbol>
<symbol xmlns="http://www.w3.org/2000/svg" viewBox="0 0 16 16" id="sidebar-list-add"><path d="M18.000166066589355,8.666707515716553L18.000166066589355,12.666707515716553Q18.000166066589355,12.732407515716552,18.012976066589356,12.796807515716553Q18.025786066589355,12.861207515716552,18.050906066589356,12.921807515716553Q18.076036066589356,12.982507515716552,18.112516066589357,13.037107515716553Q18.148996066589355,13.091707515716553,18.195426066589356,13.138107515716552Q18.241856066589357,13.184507515716552,18.296446066589354,13.221007515716552Q18.351046066589355,13.257507515716553,18.411706066589353,13.282607515716553Q18.472366066589355,13.307707515716553,18.536766066589355,13.320607515716553Q18.601166066589357,13.333407515716553,18.666826066589355,13.333407515716553Q18.732486066589356,13.333407515716553,18.796886066589355,13.320607515716553Q18.861286066589354,13.307707515716553,18.921946066589356,13.282607515716553Q18.982616066589355,13.257507515716553,19.037206066589356,13.221007515716552Q19.091806066589356,13.184507515716552,19.138236066589357,13.138107515716552Q19.184666066589354,13.091707515716553,19.221146066589355,13.037107515716553Q19.257616066589357,12.982507515716552,19.282746066589354,12.921807515716553Q19.307876066589355,12.861207515716552,19.320686066589356,12.796807515716553Q19.333496066589355,12.732407515716552,19.333496066589355,12.666707515716553L19.333496066589355,8.666707515716553L23.333476066589355,8.666707515716553Q23.399176066589355,8.666707515716553,23.463576066589354,8.653897515716553Q23.527976066589353,8.641087515716553,23.588576066589354,8.615957515716552Q23.649276066589355,8.590827515716553,23.703876066589356,8.554357515716553Q23.758476066589356,8.517877515716552,23.804876066589355,8.471447515716552Q23.851276066589357,8.425017515716553,23.887776066589353,8.370417515716554Q23.924276066589357,8.315827515716553,23.949376066589355,8.255167515716554Q23.974476066589354,8.194497515716552,23.987376066589356,8.130097515716553Q24.000176066589354,8.065697515716554,24.000176066589354,8.000037515716553Q24.000176066589354,7.934377515716553,23.987376066589356,7.869977515716553Q23.974476066589354,7.805577515716553,23.949376066589355,7.744917515716553Q23.924276066589357,7.684257515716553,23.887776066589353,7.629657515716553Q23.851276066589357,7.575067515716553,23.804876066589355,7.528637515716553Q23.758476066589356,7.482207515716553,23.703876066589356,7.445727515716553Q23.649276066589355,7.409247515716553,23.588576066589354,7.384117515716553Q23.527976066589353,7.358997515716553,23.463576066589354,7.346187515716553Q23.399176066589355,7.333377515716553,23.333476066589355,7.333377515716553L19.333496066589355,7.333377515716553L19.333496066589355,3.3333745157165526Q19.333496066589355,3.2677135157165527,19.320686066589356,3.2033135157165527Q19.307876066589355,3.1389145157165528,19.282746066589354,3.078251515716553Q19.257616066589357,3.017588515716553,19.221146066589355,2.9629935157165526Q19.184666066589354,2.9083985157165526,19.138236066589357,2.861969515716553Q19.091806066589356,2.8155405157165525,19.037206066589356,2.7790615157165526Q18.982616066589355,2.742581815716553,18.921946066589356,2.7174545157165526Q18.861286066589354,2.692327115716553,18.796886066589355,2.6795173157165526Q18.732486066589356,2.6667075157165527,18.666826066589355,2.6667075157165527Q18.601166066589357,2.6667075157165527,18.536766066589355,2.6795173157165526Q18.472366066589355,2.692327115716553,18.411706066589353,2.7174545157165526Q18.351046066589355,2.742581815716553,18.296446066589354,2.7790615157165526Q18.241856066589357,2.8155405157165525,18.195426066589356,2.861969515716553Q18.148996066589355,2.9083985157165526,18.112516066589357,2.9629935157165526Q18.076036066589356,3.0175895157165527,18.050906066589356,3.078251515716553Q18.025786066589355,3.1389145157165528,18.012976066589356,3.2033135157165527Q18.000166066589355,3.2677135157165527,18.000166066589355,3.3333745157165526L18.000166066589355,7.333377515716553L14.000143066589356,7.333377515716553Q13.934482066589355,7.333377515716553,13.870082066589356,7.346187515716553Q13.805683066589355,7.358997515716553,13.745020066589355,7.384117515716553Q13.684357066589355,7.409247515716553,13.629762066589356,7.445727515716553Q13.575167066589355,7.482207515716553,13.528738066589355,7.528637515716553Q13.482309066589355,7.575067515716553,13.445830066589355,7.629657515716553Q13.409350366589356,7.684257515716553,13.384223066589355,7.744917515716553Q13.359095666589356,7.805577515716553,13.346285866589355,7.869977515716553Q13.333476066589355,7.934377515716553,13.333476066589355,8.000037515716553Q13.333476066589355,8.065697515716554,13.346285866589355,8.130097515716553Q13.359095666589356,8.194497515716552,13.384223066589355,8.255157515716553Q13.409350366589356,8.315827515716553,13.445830066589355,8.370417515716554Q13.482309066589355,8.425017515716553,13.528738066589355,8.471447515716552Q13.575167066589355,8.517877515716552,13.629762066589356,8.554357515716553Q13.684358066589356,8.590827515716553,13.745020066589355,8.615957515716552Q13.805683066589355,8.641087515716553,13.870082066589356,8.653897515716553Q13.934482066589355,8.666707515716553,14.000143066589356,8.666707515716553L18.000166066589355,8.666707515716553Z" fill-rule="evenodd" transform="rotate(90 13.333 2.667)"></path></symbol>
<symbol xmlns="http://www.w3.org/2000/svg" viewBox="0 0 18 18" id="sidebar-normal-list"><path d="M1.875,14.25L1.875,14.25Q1.875,14.1761,1.889411,14.1037Q1.9038221,14.0312,1.9320903,13.963Q1.9603586,13.8947,2.001398,13.8333Q2.042437,13.7719,2.09467,13.7197Q2.146903,13.6674,2.208322,13.6264Q2.269742,13.5854,2.337987,13.5571Q2.406233,13.5288,2.478682,13.5144Q2.551131,13.5,2.625,13.5L15.375,13.5Q15.4489,13.5,15.5213,13.5144Q15.5938,13.5288,15.662,13.5571Q15.7303,13.5854,15.7917,13.6264Q15.8531,13.6674,15.9053,13.7197Q15.9576,13.7719,15.9986,13.8333Q16.0396,13.8947,16.0679,13.963Q16.0962,14.0312,16.110599999999998,14.1037Q16.125,14.1761,16.125,14.25L16.125,14.25Q16.125,14.3239,16.110599999999998,14.3963Q16.0962,14.4688,16.0679,14.537Q16.0396,14.6053,15.9986,14.6667Q15.9576,14.7281,15.9053,14.7803Q15.8531,14.8326,15.7917,14.8736Q15.7303,14.9146,15.662,14.9429Q15.5938,14.9712,15.5213,14.9856Q15.4489,15,15.375,15L2.625,15Q2.551131,15,2.478682,14.9856Q2.406233,14.9712,2.337987,14.9429Q2.269742,14.9146,2.208322,14.8736Q2.146903,14.8326,2.09467,14.7803Q2.042437,14.7281,2.001398,14.6667Q1.9603586,14.6053,1.9320903,14.537Q1.9038221,14.4688,1.889411,14.3963Q1.875,14.3239,1.875,14.25ZM1.875,8.625L1.875,8.625Q1.875,8.55113,1.889411,8.47868Q1.9038221,8.40623,1.9320903,8.33799Q1.9603586,8.269739999999999,2.001398,8.20832Q2.042437,8.146899999999999,2.09467,8.09467Q2.146903,8.04244,2.208322,8.0014Q2.269742,7.96036,2.337987,7.93209Q2.406233,7.90382,2.478682,7.88941Q2.551131,7.875,2.625,7.875L15.375,7.875Q15.4489,7.875,15.5213,7.88941Q15.5938,7.90382,15.662,7.93209Q15.7303,7.96036,15.7917,8.0014Q15.8531,8.04244,15.9053,8.09467Q15.9576,8.146899999999999,15.9986,8.20832Q16.0396,8.269739999999999,16.0679,8.33799Q16.0962,8.40623,16.110599999999998,8.47868Q16.125,8.55113,16.125,8.625L16.125,8.625Q16.125,8.69887,16.110599999999998,8.77132Q16.0962,8.84377,16.0679,8.91201Q16.0396,8.980260000000001,15.9986,9.04168Q15.9576,9.103100000000001,15.9053,9.15533Q15.8531,9.20756,15.7917,9.2486Q15.7303,9.28964,15.662,9.317910000000001Q15.5938,9.34618,15.5213,9.36059Q15.4489,9.375,15.375,9.375L2.625,9.375Q2.551131,9.375,2.478682,9.36059Q2.406233,9.34618,2.337987,9.317910000000001Q2.269742,9.28964,2.208322,9.2486Q2.146903,9.20756,2.09467,9.15533Q2.042437,9.103100000000001,2.001398,9.04168Q1.9603586,8.980260000000001,1.9320903,8.91201Q1.9038221,8.84377,1.889411,8.77132Q1.875,8.69887,1.875,8.625ZM1.875,3L1.875,3Q1.875,2.926131,1.889411,2.853682Q1.9038221,2.781233,1.9320903,2.712987Q1.9603586,2.644742,2.001398,2.583322Q2.042437,2.521903,2.09467,2.46967Q2.146903,2.417437,2.208322,2.376398Q2.269742,2.3353586,2.337987,2.3070903Q2.406233,2.2788221,2.478682,2.264411Q2.551131,2.25,2.625,2.25L15.375,2.25Q15.4489,2.25,15.5213,2.264411Q15.5938,2.2788221,15.662,2.3070903Q15.7303,2.3353586,15.7917,2.376398Q15.8531,2.417437,15.9053,2.46967Q15.9576,2.521903,15.9986,2.583322Q16.0396,2.644742,16.0679,2.712987Q16.0962,2.781233,16.110599999999998,2.853682Q16.125,2.926131,16.125,3L16.125,3Q16.125,3.073869,16.110599999999998,3.146318Q16.0962,3.218767,16.0679,3.28701Q16.0396,3.35526,15.9986,3.41668Q15.9576,3.4781,15.9053,3.53033Q15.8531,3.58256,15.7917,3.6235999999999997Q15.7303,3.66464,15.662,3.69291Q15.5938,3.72118,15.5213,3.73559Q15.4489,3.75,15.375,3.75L2.625,3.75Q2.551131,3.75,2.478682,3.73559Q2.406233,3.72118,2.337987,3.69291Q2.269742,3.66464,2.208322,3.6235999999999997Q2.146903,3.58256,2.09467,3.53033Q2.042437,3.4781,2.001398,3.41668Q1.9603586,3.35526,1.9320903,3.28701Q1.9038221,3.218767,1.889411,3.146318Q1.875,3.073869,1.875,3Z"></path></symbol>
<symbol xmlns="http://www.w3.org/2000/svg" viewBox="0 0 24 24" id="sidebar-note-list"><path d="M2,5.31818L2,18.6818C2,20.7905,3.79086,22.5,6,22.5L18,22.5C20.2091,22.5,22,20.7905,22,18.6818L22,5.31818C22,3.20946,20.2091,1.5,18,1.5L6,1.5C3.79086,1.5,2,3.20946,2,5.31818ZM6,3.40909Q5.17157,3.40909,4.585789999999999,3.96825Q4,4.52741,4,5.31818L4,18.6818Q4,19.4726,4.585789999999999,20.0317Q5.17157,20.5909,6,20.5909L18,20.5909Q18.8284,20.5909,19.4142,20.0317Q20,19.4726,20,18.6818L20,5.31818Q20,4.52741,19.4142,3.96825Q18.8284,3.40909,18,3.40909L14,3.40909L14,11.04545C14,11.832,13.0592,12.281,12.4,11.8091L10.06,10.13386C10.02444,10.10841,9.97556,10.10841,9.940000000000001,10.13386L7.6,11.8091C6.94076,12.281,6,11.832,6,11.04545L6,3.40909ZM12,3.40909L8,3.40909L8,9.13636L8.74,8.60659Q9.3,8.205680000000001,10,8.205680000000001Q10.7,8.205680000000001,11.26,8.60659L12,9.13636L12,3.40909Z" fill-rule="evenodd"></path></symbol>
<symbol xmlns="http://www.w3.org/2000/svg" viewBox="0 0 24 24" id="sidebar-share-list"><path d="M3,4Q2.901509,4,2.80491,4.0192147Q2.708311,4.0384294,2.6173159999999998,4.0761205Q2.526322,4.113811,2.44443,4.16853Q2.362537,4.223249,2.292893,4.292893Q2.223249,4.362537,2.16853,4.44443Q2.113811,4.526322,2.0761205,4.617316Q2.0384294,4.708311,2.0192147,4.80491Q2,4.901509,2,5Q2,5.09849,2.0192147,5.19509Q2.0384294,5.29169,2.0761205,5.38268Q2.113811,5.47368,2.16853,5.5555699999999995Q2.223249,5.63746,2.292893,5.70711Q2.362537,5.77675,2.44443,5.8314699999999995Q2.526322,5.88619,2.6173159999999998,5.9238800000000005Q2.708311,5.96157,2.80491,5.98079Q2.901509,6,3,6L21,6Q21.0985,6,21.1951,5.98079Q21.2917,5.96157,21.3827,5.9238800000000005Q21.4737,5.88619,21.5556,5.8314699999999995Q21.6375,5.77675,21.7071,5.70711Q21.7767,5.63746,21.8315,5.5555699999999995Q21.8862,5.47368,21.9239,5.38268Q21.9616,5.29169,21.9808,5.19509Q22,5.09849,22,5Q22,4.901509,21.9808,4.80491Q21.9616,4.708311,21.9239,4.617316Q21.8862,4.526322,21.8315,4.44443Q21.7767,4.362537,21.7071,4.292893Q21.6375,4.223249,21.5556,4.16853Q21.4737,4.113811,21.3827,4.0761205Q21.2917,4.0384294,21.1951,4.0192147Q21.0985,4,21,4L3,4ZM19.75,12.22222Q19.75,12.33139,19.7392,12.44004Q19.7283,12.54868,19.7068,12.65576Q19.6852,12.76283,19.6531,12.8673Q19.621,12.97177,19.5787,13.07263Q19.5364,13.17349,19.4843,13.26977Q19.4322,13.36605,19.3708,13.45682Q19.3094,13.54759,19.2393,13.63198Q19.1692,13.71638,19.091,13.79357Q19.0128,13.87077,18.9274,13.94002Q18.8419,14.0093,18.75,14.0699Q18.6581,14.1306,18.5606,14.182Q18.4632,14.2335,18.361,14.2753Q18.2589,14.3171,18.1531,14.3488Q18.0474,14.3804,17.939,14.4017Q17.8305,14.423,17.7205,14.4337Q17.610500000000002,14.4444,17.5,14.4444Q17.389499999999998,14.4444,17.2795,14.4337Q17.1695,14.423,17.061,14.4017Q16.9526,14.3804,16.846899999999998,14.3488Q16.7411,14.3171,16.639,14.2753Q16.5368,14.2335,16.4394,14.182Q16.341900000000003,14.1306,16.25,14.0699Q16.158099999999997,14.0093,16.0726,13.94002Q15.9872,13.87077,15.909,13.79357Q15.8308,13.71638,15.7607,13.63198Q15.6906,13.54759,15.6292,13.45682Q15.5678,13.36605,15.5157,13.26977Q15.4636,13.17349,15.4213,13.07263Q15.379,12.97177,15.3469,12.8673Q15.3148,12.76283,15.2932,12.65576Q15.2717,12.54868,15.2608,12.44004Q15.25,12.33139,15.25,12.22222Q15.25,12.11305,15.2608,12.00441Q15.2717,11.89576,15.2932,11.788689999999999Q15.3148,11.68161,15.3469,11.57715Q15.379,11.47268,15.4213,11.37181Q15.4636,11.27095,15.5157,11.174669999999999Q15.5678,11.078389999999999,15.6292,10.98762Q15.6906,10.89685,15.7607,10.81246Q15.8308,10.728069999999999,15.909,10.650870000000001Q15.9872,10.57368,16.0726,10.50442Q16.158099999999997,10.43516,16.25,10.37451Q16.341900000000003,10.31386,16.4394,10.2624Q16.5368,10.210930000000001,16.639,10.16916Q16.7411,10.127379999999999,16.846899999999998,10.095690000000001Q16.9526,10.064,17.061,10.0427Q17.1695,10.0214,17.2795,10.0107Q17.389499999999998,10,17.5,10Q17.610500000000002,10,17.7205,10.0107Q17.8305,10.0214,17.939,10.0427Q18.0474,10.064,18.1531,10.095690000000001Q18.2589,10.127379999999999,18.361,10.16916Q18.4632,10.210930000000001,18.5606,10.2624Q18.6581,10.31386,18.75,10.37451Q18.8419,10.43516,18.9274,10.50442Q19.0128,10.57368,19.091,10.650870000000001Q19.1692,10.728069999999999,19.2393,10.81246Q19.3094,10.89685,19.3708,10.98762Q19.4322,11.078389999999999,19.4843,11.174669999999999Q19.5364,11.27095,19.5787,11.37181Q19.621,11.47268,19.6531,11.57714Q19.6852,11.68161,19.7068,11.788689999999999Q19.7283,11.89576,19.7392,12.00441Q19.75,12.11305,19.75,12.22222ZM3,13C2.447715,13,2,12.55228,2,12C2,11.44772,2.447715,11,3,11L12,11C12.5523,11,13,11.44772,13,12C13,12.55228,12.5523,13,12,13L3,13ZM22,19.3724C22,19.7188,21.7556,20,21.4545,20L13.5455,20C13.2444,20,13,19.7188,13,19.3724L13,18.3366C13,17.781100000000002,13.1964,17.2439,13.5727,16.8962C14.2136,16.3037,15.3253,15.5555,17.5,15.5555C19.6747,15.5555,20.7318,16.3037,21.3727,16.8962C21.7491,17.2439,22,17.781100000000002,22,18.3366L22,19.3724ZM3,20C2.447715,20,2,19.552300000000002,2,19C2,18.447699999999998,2.447715,18,3,18L10,18C10.55229,18,11,18.447699999999998,11,19C11,19.552300000000002,10.55229,20,10,20L3,20Z" fill-rule="evenodd"></path></symbol>
<symbol xmlns="http://www.w3.org/2000/svg" viewBox="0 0 24 24" id="sidebar-share-note-list"><path d="M6,22.5C3.79086,22.5,2,20.7905,2,18.6818L2,5.31818C2,3.20946,3.79086,1.5,6,1.5L18,1.5C20.2091,1.5,22,3.20946,22,5.31818L22,11.5C22,12.0523,21.5523,12.5,21,12.5C20.4477,12.5,20,12.0523,20,11.5L20,5.31818Q20,4.52741,19.4142,3.96825Q18.8284,3.40909,18,3.40909L14,3.40909L14,11.04545C14,11.832,13.0592,12.281,12.4,11.8091L10.06,10.13386C10.02444,10.10841,9.97556,10.10841,9.940000000000001,10.13386L7.6,11.8091C6.94076,12.281,6,11.832,6,11.04545L6,3.40909Q5.17157,3.40909,4.585789999999999,3.96825Q4,4.52741,4,5.31818L4,18.6818Q4,19.4726,4.585789999999999,20.0317Q5.17157,20.5909,6,20.5909L12.0455,20.5909C12.5726,20.5909,13,21.0183,13,21.5455C13,22.0726,12.5726,22.5,12.0455,22.5L6,22.5ZM8,3.40909L8,9.13636L8.74,8.60659Q9.3,8.205680000000001,10,8.205680000000001Q10.7,8.205680000000001,11.26,8.60659L12,9.13636L12,3.40909L8,3.40909Z" fill-rule="evenodd"></path><path d="M18.5,17.44444C19.74264,17.44444,20.75,16.44952,20.75,15.22222C20.75,13.994923,19.74264,13,18.5,13C17.25736,13,16.25,13.994923,16.25,15.22222C16.25,16.44952,17.25736,17.44444,18.5,17.44444ZM14.545455,23.0001L22.454549999999998,23.0001C22.75564,23.0001,23,22.71893,23,22.37247L23,21.33671C23,20.78125,22.749090000000002,20.244,22.37273,19.89629C21.73182,19.3038,20.67473,18.55566,18.5,18.55566C16.32527,18.55566,15.21363,19.3038,14.572721,19.89629C14.196357,20.244,14,20.78125,14,21.33671L14,22.37247C14,22.71893,14.244364,23.0001,14.545455,23.0001Z" fill-rule="evenodd"></path></symbol>
<symbol xmlns="http://www.w3.org/2000/svg" viewBox="0 0 24 24" id="sidebar-summary-list"><path d="M5.4837,1.50048828125C3.28355,1.50048828125,1.5,3.29134828125,1.5,5.50048828125L1.5,18.50048828125C1.5,20.70958828125,3.28357,22.50048828125,5.48372,22.50048828125L15.6994,22.50048828125C16.227600000000002,22.50048828125,16.734299999999998,22.28958828125,17.1079,21.91458828125L21.9166,17.086388281250002C22.2901,16.711388281250002,22.5,16.20228828125,22.5,15.67188828125L22.5,5.50048828125C22.5,3.29134828125,20.7164,1.50048828125,18.5163,1.50048828125L5.4837,1.50048828125ZM4.07532,4.08642828125Q3.49188,4.67205828125,3.49188,5.50048828125L3.49186,18.50048828125Q3.4918899999999997,19.32878828125,4.07529,19.91458828125Q4.658659999999999,20.50048828125,5.48372,20.50048828125L15.6994,20.50048828125L20.5081,15.67188828125L20.5081,5.50048828125Q20.5081,4.6722082812500005,19.9247,4.08642828125Q19.3414,3.50048828125,18.5163,3.50048828125L5.4837,3.50048828125Q4.658720000000001,3.50063828125,4.07532,4.08642828125ZM8,9.00048828125C7.44772,9.00048828125,7,8.55276828125,7,8.00048828125C7,7.44820828125,7.44772,7.00048828125,8,7.00048828125L16,7.00048828125C16.552300000000002,7.00048828125,17,7.44820828125,17,8.00048828125C17,8.55276828125,16.552300000000002,9.00048828125,16,9.00048828125L8,9.00048828125ZM8,14.00048828125C7.44772,14.00048828125,7,13.55278828125,7,13.00048828125C7,12.44818828125,7.44772,12.00048828125,8,12.00048828125L13,12.00048828125C13.5523,12.00048828125,14,12.44818828125,14,13.00048828125C14,13.55278828125,13.5523,14.00048828125,13,14.00048828125L8,14.00048828125Z" fill-rule="evenodd"></path></symbol>
<symbol xmlns="http://www.w3.org/2000/svg" fill="none" viewBox="0 0 12 12" id="sidebar-sync-error"><path d="M6,0C2.72143,0,0,2.65179,0,6C0,9.34821,2.72143,12,6,12C9.34821,12,12,9.34821,12,6C12,2.65179,9.27857,0,6,0Z" fill-rule="evenodd" fill="#FFB000"></path><path d="M6.00001409375 8.9814775C5.58081709375 8.9814775 5.30224609375 8.7028975 5.30224609375 8.2837055 5.30224609375 7.8645085 5.6504600937500005 7.5859375 6.00001409375 7.5859375 6.41920609375 7.5859375 6.6977860937500004 7.9341515000000005 6.6977860937500004 8.2837055 6.6977860937500004 8.7015675 6.34822609375 8.9814775 6.00001409375 8.9814775zM5.232421875000001 6.4176325L5.232421875000001 3.5180805C5.232421875000001 3.0988835 5.5806358750000005 2.8203125 5.930189875 2.8203125 6.349381875 2.8203125 6.6279618750000004 3.1685265 6.6279618750000004 3.5180805L6.6279618750000004 6.1631725C6.6279618750000004 6.5823625 6.279741875 6.8609425 5.930189875 6.8609425 5.510992875 6.8609425 5.232421875 6.512722500000001 5.232421875 6.1631725L5.232421875 6.4176325 5.232421875000001 6.4176325z" fill-rule="evenodd" fill="#FFFFFF"></path></symbol>
<symbol xmlns="http://www.w3.org/2000/svg" fill="none" viewBox="0 0 12 12" id="sidebar-sync-offline"><path d="M6,0C2.72143,0,0,2.65179,0,6C0,9.34821,2.72143,12,6,12C9.34821,12,12,9.34821,12,6C12,2.65179,9.27857,0,6,0Z" fill-rule="evenodd" fill="#E03131"></path><path d="M8.23870060546875,3.78508351171875C7.99152060546875,3.53791171171875,7.54832060546875,3.48866671171875,7.25190060546875,3.78508351171875L6.013830605468749,5.02315951171875L4.77725060546875,3.78657151171875C4.53007560546875,3.53940021171875,4.08687160546875,3.49015521171875,3.79045460546875,3.78657151171875C3.54328280546875,4.03374351171875,3.49403780546875,4.47694751171875,3.79045460546875,4.77336951171875L5.02704060546875,6.00994951171875L3.79055260546875,7.24642951171875C3.54338070546875,7.49360951171875,3.49413540546875,7.93680951171875,3.79055260546875,8.23322951171875C4.03772360546875,8.480399511718751,4.48092860546875,8.529639511718749,4.7773406054687495,8.23322951171875L6.013830605468749,6.99673951171875L7.25214060546875,8.23504951171875C7.49938060546875,8.48192951171875,7.94231060546875,8.53099951171875,8.23860060546875,8.234719511718751C8.485770605468751,7.98753951171875,8.535010605468749,7.54433951171875,8.23860060546875,7.2479195117187505L7.00062060546875,6.00994951171875L8.23870060546875,4.77187951171875C8.485870605468751,4.52470451171875,8.53511060546875,4.08150051171875,8.23870060546875,3.78508351171875Z" fill-rule="evenodd" fill="#FFFFFF"></path></symbol>
<symbol xmlns="http://www.w3.org/2000/svg" viewBox="0 0 22 22" id="sidebar-sync"><path d="M1.375,11Q1.375,9.04241,2.131757,7.25323Q2.8624,5.52579,4.194100000000001,4.194100000000001Q5.52579,2.8624,7.25323,2.131756Q9.04241,1.375,11,1.375Q12.9576,1.375,14.7468,2.131756Q16.459600000000002,2.85623,17.7834,4.17163L17.7834,3.57503Q17.7834,3.48475,17.801,3.3962Q17.8186,3.3076499999999998,17.8531,3.22424Q17.8877,3.1408300000000002,17.9378,3.06576Q17.988,2.99069,18.0518,2.92685Q18.1157,2.86301,18.1908,2.81285Q18.2658,2.76269,18.3492,2.72814Q18.4327,2.69359,18.5212,2.67598Q18.6097,2.6583699999999997,18.7,2.6583699999999997Q18.7903,2.6583699999999997,18.8789,2.67598Q18.9674,2.69359,19.0508,2.72814Q19.1342,2.76269,19.2093,2.81285Q19.2844,2.86301,19.3482,2.92685Q19.4121,2.99069,19.4622,3.06576Q19.5124,3.1408300000000002,19.5469,3.22424Q19.5815,3.3076499999999998,19.5991,3.3962Q19.6167,3.48475,19.6167,3.57503L19.6167,6.32503Q19.6167,6.41468,19.5993,6.50262Q19.582,6.59057,19.5479,6.67349Q19.5138,6.7564,19.4643,6.83115Q19.4148,6.90589,19.3518,6.96963Q19.2887,7.03337,19.2145,7.08368Q19.1404,7.134,19.0578,7.16899Q18.9753,7.20398,18.8875,7.22232Q18.7998,7.24065,18.7101,7.24164L18.7013,7.2417L18.7,7.2417L15.95,7.2417Q15.8597,7.2417,15.7712,7.22409Q15.6826,7.20647,15.5992,7.17192Q15.5158,7.13737,15.4407,7.08721Q15.3657,7.03705,15.3018,6.97321Q15.238,6.90937,15.1878,6.8343Q15.1377,6.75924,15.1031,6.67583Q15.0686,6.59241,15.0509,6.50387Q15.0333,6.41532,15.0333,6.32503Q15.0333,6.23475,15.0509,6.1462Q15.0686,6.05765,15.1031,5.97424Q15.1377,5.89083,15.1878,5.81576Q15.238,5.74069,15.3018,5.67685Q15.3657,5.61301,15.4407,5.56285Q15.5158,5.51269,15.5992,5.47814Q15.6826,5.44359,15.7712,5.42598Q15.8597,5.40837,15.95,5.40837L16.4264,5.40837Q14.1685,3.20833,11,3.20833Q7.77259,3.20833,5.49046,5.49046Q3.20833,7.77258,3.20833,11C3.20833,11.5063,2.79793,11.9167,2.291667,11.9167C1.785406,11.9167,1.375,11.5063,1.375,11ZM20.625,11Q20.625,12.9576,19.8682,14.7468Q19.1376,16.4742,17.8059,17.8059Q16.4742,19.1376,14.7468,19.8682Q12.9576,20.625,11,20.625Q9.04241,20.625,7.25323,19.8682Q5.54039,19.1438,4.21663,17.8284L4.21663,18.425Q4.21663,18.5153,4.19902,18.6038Q4.18141,18.6923,4.14686,18.7758Q4.11231,18.8592,4.06215,18.9342Q4.01199,19.0093,3.94815,19.0731Q3.88431,19.137,3.80924,19.1871Q3.73417,19.2373,3.65076,19.2719Q3.56735,19.3064,3.4788,19.324Q3.39025,19.3416,3.29997,19.3416Q3.20968,19.3416,3.12113,19.324Q3.03259,19.3064,2.94917,19.2719Q2.86576,19.2373,2.7906899999999997,19.1871Q2.71563,19.137,2.65179,19.0731Q2.58795,19.0093,2.53779,18.9342Q2.4876300000000002,18.8592,2.45308,18.7758Q2.41853,18.6923,2.40091,18.6038Q2.3833,18.5153,2.3833,18.425L2.3833,15.675Q2.3833,15.5853,2.40067,15.4974Q2.41804,15.4094,2.4521100000000002,15.3265Q2.4861899999999997,15.2436,2.5356899999999998,15.1689Q2.5851800000000003,15.0941,2.6482200000000002,15.0304Q2.7112600000000002,14.9666,2.78545,14.9163Q2.8596500000000002,14.866,2.94218,14.831Q3.0247200000000003,14.796,3.11247,14.7777Q3.20022,14.7593,3.28986,14.7584L3.29874,14.7583L3.29997,14.7583L6.05001,14.7583Q6.14029,14.7583,6.22884,14.7759Q6.31739,14.7935,6.4008,14.8281Q6.48421,14.8626,6.55928,14.9128Q6.63435,14.9629,6.69819,15.0268Q6.76203,15.0906,6.81219,15.1657Q6.86235,15.2408,6.8969,15.3242Q6.93145,15.4076,6.94906,15.4961Q6.96667,15.5847,6.96667,15.675Q6.96667,15.7653,6.94906,15.8538Q6.93145,15.9423,6.8969,16.0258Q6.86235,16.1092,6.81219,16.1842Q6.76203,16.2593,6.69819,16.3231Q6.63435,16.387,6.55928,16.4371Q6.48421,16.487299999999998,6.4008,16.521900000000002Q6.31739,16.5564,6.22884,16.573999999999998Q6.14029,16.5916,6.05001,16.5916L5.57363,16.5916Q7.83148,18.7917,11,18.7917Q14.2274,18.7917,16.5095,16.5095Q18.7917,14.2274,18.7917,11C18.7917,10.49374,19.2021,10.08333,19.7083,10.08333C20.2146,10.08333,20.625,10.49374,20.625,11Z" fill-rule="evenodd"></path></symbol>
<symbol xmlns="http://www.w3.org/2000/svg" viewBox="0 0 24 24" id="sidebar-tag"><path d="M16.812199980926515,21.054799980926514C15.250099980926514,22.616899980926515,12.717399980926514,22.616899980926515,11.155309980926514,21.054799980926514L3.318579980926514,13.218099980926514C2.633474980926514,12.532999980926514,2.2203219809265136,11.622469980926514,2.1558719809265137,10.655729980926514L1.7768039709265138,4.969719980926514C1.6560669809265136,3.1586599809265135,3.1586599809265135,1.6560669809265136,4.969719980926514,1.7768039709265138L10.655729980926514,2.1558709809265135C11.622479980926514,2.220320980926514,12.532999980926514,2.6334739809265137,13.218099980926514,3.318579980926514L21.054899980926514,11.155379980926513C22.616899980926515,12.717499980926513,22.616899980926515,15.250099980926514,21.054899980926514,16.812199980926515L16.812199980926515,21.054799980926514ZM13.983699980926513,20.226399980926512Q13.155299980926515,20.226399980926512,12.569599980926514,19.640599980926513L4.732799980926513,11.803899980926513Q4.201429980926514,11.272499980926513,4.151439980926513,10.522689980926513L3.7723699809265137,4.8366799809265135Q3.742189980926514,4.383909980926514,4.063049980926514,4.063049980926514Q4.383919980926514,3.742189980926514,4.8366799809265135,3.7723699809265137L10.522689980926513,4.151439980926513Q11.272499980926513,4.201429980926514,11.803899980926513,4.732799980926513L19.640599980926513,12.569599980926514Q20.226399980926512,13.155299980926515,20.226399980926512,13.983699980926513Q20.226399980926512,14.812199980926513,19.640599980926513,15.397899980926514L15.397999980926514,19.640599980926513Q14.812199980926513,20.226399980926512,13.983699980926513,20.226399980926512ZM6.6236799809265134,8.745019980926514C6.037899980926514,8.159229980926515,6.037899980926514,7.209519980926514,6.6236799809265134,6.623729980926513C7.209469980926514,6.037939980926514,8.159199980926513,6.037909980926513,8.744989980926514,6.623699980926514C9.330779980926515,7.209489980926514,9.330779980926515,8.159279980926513,8.744989980926514,8.745069980926512C8.159199980926513,9.330849980926514,7.209469980926514,9.330809980926514,6.6236799809265134,8.745019980926514Z" fill-rule="evenodd"></path></symbol>
<symbol xmlns="http://www.w3.org/2000/svg" viewBox="0 0 18 18" id="sidebar-today-list"><path d="M0.7499917149543762,4.50567L0.7499917149543762,13.4943C0.7499917149543762,15.1512,2.0631417149543765,16.5,3.7199917149543764,16.5C7.240001714954376,16.5,10.759991714954376,16.5,14.279991714954376,16.5C15.936891714954376,16.5,17.249991714954376,15.1512,17.249991714954376,13.4943C17.249991714954376,11.13488,17.249991714954376,8.5815,17.249991714954376,6.1499L17.249991714954376,4.649900000000001L17.249991714954376,4.50567C17.249991714954376,2.8488100000000003,15.882891714954376,1.5,14.226091714954377,1.5L3.7463517149543764,1.5C2.0894917149543764,1.5,0.7499917149543762,2.8488100000000003,0.7499917149543762,4.50567ZM15.749991714954376,4.649900000000001L15.749991714954376,4.4921299999999995C15.749991714954376,3.6637,15.084991714954377,3,14.256591714954377,3L11.271991714954376,3.00001C8.762481714954376,3.00001,6.252951714954376,3.00002,3.7434317149543763,3.00001C2.9150017149543763,3,2.249991714954376,3.6637,2.249991714954376,4.4921299999999995L2.249991714954376,4.649900000000001L15.749991714954376,4.649900000000001ZM2.249981714954376,6.1499L2.249981714954376,6.5345C2.249971714954376,8.851040000000001,2.249951714954376,11.35122,2.249981714954376,13.5079C2.249991714954376,14.3363,2.915031714954376,15,3.7434417149543764,15L6.034761714954376,15C8.775361714954377,15,11.515991714954376,15,14.256591714954377,15C15.084991714954377,15,15.749991714954376,14.3363,15.749991714954376,13.5079C15.749991714954376,11.23132,15.749991714954376,8.57196,15.749991714954376,6.1499L2.249981714954376,6.1499Z" fill-rule="evenodd"></path></symbol>
<symbol xmlns="http://www.w3.org/2000/svg" viewBox="0 0 18 18" id="sidebar-tomorrow-list"><path d="M9.74949,2.661699989271164L12.1855,5.0976199892711636C12.3261,5.238269989271164,12.5169,5.317239989271164,12.7158,5.317239989271164C12.9147,5.317239989271164,13.1055,5.238269989271164,13.2461,5.0976199892711636C13.3868,4.956959989271164,13.4657,4.766229989271164,13.4657,4.567319989271164C13.4657,4.368409989271164,13.3868,4.177609989271164,13.2461,4.036959989271164L9.5389,0.32978898927116396L9.53385,0.3246909892711639C9.44759,0.23842798927116393,9.34158,0.17450908927116393,9.22503,0.13847818927116395L9.22364,0.13805018927116394C9.1523,0.11613918927116394,9.07808,0.10499998927116394,9.00345,0.10499998927116394C8.80454,0.10499998927116394,8.61377,0.18401728927116395,8.47312,0.324669989271164L8.4662,0.3316869892711639L4.76087,4.036989989271164C4.62021,4.177639989271164,4.54124,4.368369989271164,4.54124,4.567289989271164C4.54124,4.766199989271164,4.62021,4.956999989271164,4.76087,5.097649989271164C4.90152,5.238299989271164,5.09235,5.317299989271164,5.29126,5.317299989271164C5.49017,5.317299989271164,5.68087,5.238299989271164,5.82153,5.097649989271164L8.24949,2.6697099892711638L8.2495,6.544539989271164C8.2495,6.629849989271164,8.26374,6.711839989271164,8.28998,6.788239989271164Q6.44458,6.991109989271164,5.01015,8.270639989271164Q3.3131,9.784429989271164,3.04339,12.032099989271163Q3,12.384199989271163,3,12.742699989271165L3,12.750499989271164L3,12.757699989271163Q3,13.115899989271163,3.04312,13.465699989271164Q3.24256,15.127799989271164,4.22084,16.388199989271165L2.4375,16.388199989271165Q2.36363,16.388199989271165,2.29118,16.402599989271163Q2.21873,16.416999989271165,2.15049,16.445299989271163Q2.08224,16.473599989271165,2.02082,16.514599989271165Q1.9594,16.555599989271165,1.90717,16.607899989271164Q1.85494,16.660099989271163,1.8139,16.721499989271162Q1.77286,16.782899989271165,1.74459,16.851199989271166Q1.71632,16.919399989271163,1.70191,16.991899989271165Q1.6875,17.064299989271163,1.6875,17.138199989271165Q1.6875,17.212099989271163,1.70191,17.284499989271165Q1.71632,17.356999989271163,1.74459,17.425199989271164Q1.77286,17.493499989271164,1.8139,17.554899989271163Q1.85494,17.616299989271162,1.90717,17.668499989271165Q1.9594,17.720799989271164,2.02082,17.761799989271164Q2.08224,17.802799989271165,2.15049,17.831099989271163Q2.21873,17.859399989271164,2.29118,17.873799989271163Q2.36363,17.888199989271165,2.4375,17.888199989271165L15.5625,17.888199989271165Q15.6364,17.888199989271165,15.7088,17.873799989271163Q15.7813,17.859399989271164,15.8495,17.831099989271163Q15.9178,17.802799989271165,15.9792,17.761799989271164Q16.0406,17.720799989271164,16.0928,17.668499989271165Q16.1451,17.616299989271162,16.1861,17.554899989271163Q16.2271,17.493499989271164,16.2554,17.425199989271164Q16.2837,17.356999989271163,16.2981,17.284499989271165Q16.3125,17.212099989271163,16.3125,17.138199989271165Q16.3125,17.064299989271163,16.2981,16.991899989271165Q16.2837,16.919399989271163,16.2554,16.851199989271166Q16.2271,16.782899989271165,16.1861,16.721499989271162Q16.1451,16.660099989271163,16.0928,16.607899989271164Q16.0406,16.555599989271165,15.9792,16.514599989271165Q15.9178,16.473599989271165,15.8495,16.445299989271163Q15.7813,16.416999989271165,15.7088,16.402599989271163Q15.6364,16.388199989271165,15.5625,16.388199989271165L13.7707,16.388199989271165Q13.9302,16.177899989271165,14.0736,15.950699989271165C14.0827,15.938099989271164,14.0914,15.925299989271164,14.0996,15.912099989271164Q15,14.473999989271164,15,12.757199989271164L15,12.750599989271164L15,12.742299989271164Q15,11.025999989271163,14.0996,9.587969989271164C14.0914,9.574779989271164,14.0827,9.561889989271164,14.0736,9.549299989271164Q13.2691,8.274769989271164,11.9577,7.529579989271164Q10.897,6.926829989271164,9.70837,6.790119989271164C9.73502,6.713179989271164,9.7495,6.630549989271164,9.7495,6.544539989271164L9.74949,2.661699989271164ZM11.649,16.388199989271165Q12.34,15.886999989271164,12.8052,15.150099989271164L12.8304,15.110099989271164L12.8418,15.094299989271164Q13.5,14.030199989271164,13.5,12.757199989271164L13.5,12.751899989271164L13.5,12.741299989271164Q13.5,11.469899989271164,12.8418,10.405699989271165L12.8304,10.389899989271164L12.8052,10.349999989271163Q12.2013,9.393239989271164,11.2166,8.833729989271164Q10.1894,8.250019989271165,9,8.250019989271165Q7.28666,8.250019989271165,6.00865,9.390009989271164Q4.73484,10.526299989271164,4.53271,12.210799989271164Q4.5,12.476299989271164,4.5,12.742699989271165L4.5,12.749599989271164L4.5,12.758599989271165Q4.5,13.023799989271163,4.53185,13.282199989271163Q4.73484,14.973799989271164,6.00865,16.109999989271163Q6.17546,16.258799989271164,6.3497,16.388199989271165L11.649,16.388199989271165ZM1.28033,7.760329989271164L1.81066,8.290659989271164Q1.86289,8.342889989271164,1.92431,8.383929989271165Q1.98573,8.424969989271164,2.05398,8.453239989271164Q2.12222,8.481509989271164,2.19467,8.495919989271163Q2.26712,8.510329989271163,2.34099,8.510329989271163Q2.41486,8.510329989271163,2.48731,8.495919989271163Q2.55976,8.481509989271164,2.628,8.453239989271164Q2.69625,8.424969989271164,2.75767,8.383929989271165Q2.81909,8.342889989271164,2.87132,8.290659989271164Q2.92355,8.238429989271165,2.96459,8.177009989271165Q3.00563,8.115589989271164,3.0339,8.047339989271164Q3.06217,7.979099989271164,3.07658,7.906649989271164Q3.09099,7.834199989271164,3.09099,7.760329989271164Q3.09099,7.686459989271164,3.07658,7.614009989271164Q3.06217,7.541559989271164,3.0339,7.473319989271164Q3.00563,7.405069989271164,2.96459,7.343649989271164Q2.92355,7.282229989271164,2.87132,7.229999989271164L2.34099,6.699669989271164Q2.2355,6.594179989271164,2.09767,6.537089989271164Q1.95984,6.479999989271164,1.81066,6.479999989271164Q1.66148,6.479999989271164,1.52365,6.537089989271164Q1.38582,6.594179989271164,1.28033,6.699669989271164Q1.2281,6.7518999892711635,1.18706,6.813319989271164Q1.14602,6.874739989271164,1.11775,6.9429899892711635Q1.08948,7.011229989271164,1.07507,7.083679989271164Q1.06066,7.156129989271164,1.06066,7.229999989271164Q1.06066,7.303869989271164,1.07507,7.376319989271164Q1.08948,7.448769989271164,1.11775,7.517009989271164Q1.14602,7.585259989271164,1.18706,7.646679989271164Q1.2281,7.708099989271164,1.28033,7.760329989271164ZM16.7197,7.760329989271164L16.1893,8.290659989271164Q16.1371,8.342889989271164,16.0757,8.383929989271165Q16.0143,8.424969989271164,15.946,8.453239989271164Q15.8778,8.481509989271164,15.8053,8.495919989271163Q15.7329,8.510329989271163,15.659,8.510329989271163Q15.5851,8.510329989271163,15.5127,8.495919989271163Q15.4402,8.481509989271164,15.372,8.453239989271164Q15.3037,8.424969989271164,15.2423,8.383929989271165Q15.1809,8.342889989271164,15.1287,8.290659989271164Q15.0764,8.238429989271165,15.0354,8.177009989271165Q14.9944,8.115589989271164,14.9661,8.047339989271164Q14.9378,7.979099989271164,14.9234,7.906649989271164Q14.909,7.834199989271164,14.909,7.760329989271164Q14.909,7.686459989271164,14.9234,7.614009989271164Q14.9378,7.541559989271164,14.9661,7.473319989271164Q14.9944,7.405069989271164,15.0354,7.343649989271164Q15.0764,7.282229989271164,15.1287,7.229999989271164L15.659,6.699669989271164Q15.7645,6.594179989271164,15.9023,6.537089989271164Q16.0402,6.479999989271164,16.1893,6.479999989271164Q16.3385,6.479999989271164,16.4764,6.537089989271164Q16.6142,6.594179989271164,16.7197,6.699669989271164Q16.8252,6.805159989271164,16.8822,6.9429899892711635Q16.9393,7.080819989271164,16.9393,7.229999989271164Q16.9393,7.379179989271164,16.8822,7.517009989271164Q16.8252,7.654839989271164,16.7197,7.760329989271164ZM0.75,12.919499989271165L1.5,12.919499989271165Q1.57387,12.919499989271165,1.64632,12.904999989271165Q1.71877,12.890599989271164,1.78701,12.862399989271164Q1.85526,12.834099989271165,1.91668,12.793099989271164Q1.9781,12.751999989271164,2.03033,12.699799989271163Q2.08256,12.647499989271164,2.1236,12.586099989271164Q2.16464,12.524699989271165,2.19291,12.456499989271164Q2.22118,12.388199989271165,2.23559,12.315799989271165Q2.25,12.243299989271163,2.25,12.169499989271165Q2.25,12.095599989271165,2.23559,12.023099989271165Q2.22118,11.950699989271165,2.19291,11.882399989271164Q2.16464,11.814199989271163,2.1236,11.752799989271164Q2.08256,11.691399989271163,2.03033,11.639099989271164Q1.9781,11.586899989271163,1.91668,11.545899989271163Q1.85526,11.504799989271165,1.78701,11.476499989271163Q1.71877,11.448299989271163,1.64632,11.433899989271165Q1.57387,11.419499989271165,1.5,11.419499989271165L0.75,11.419499989271165Q0.676131,11.419499989271165,0.603682,11.433899989271165Q0.531233,11.448299989271163,0.462987,11.476499989271163Q0.394742,11.504799989271165,0.333322,11.545799989271163Q0.271903,11.586899989271163,0.21967,11.639099989271164Q0.167437,11.691399989271163,0.126398,11.752799989271164Q0.0853586,11.814199989271163,0.0570903,11.882399989271164Q0.0288221,11.950699989271165,0.014411,12.023099989271165Q0,12.095599989271165,0,12.169499989271165Q0,12.243299989271163,0.014411,12.315799989271165Q0.0288221,12.388199989271165,0.0570903,12.456499989271164Q0.0853586,12.524699989271165,0.126398,12.586099989271164Q0.167437,12.647499989271164,0.21967,12.699799989271163Q0.271903,12.751999989271164,0.333322,12.793099989271164Q0.394742,12.834099989271165,0.462987,12.862399989271164Q0.531233,12.890599989271164,0.603682,12.904999989271165Q0.676131,12.919499989271165,0.75,12.919499989271165ZM16.5,12.919499989271165L17.25,12.919499989271165Q17.3239,12.919499989271165,17.3963,12.904999989271165Q17.4688,12.890599989271164,17.537,12.862399989271164Q17.6053,12.834099989271165,17.6667,12.793099989271164Q17.7281,12.751999989271164,17.7803,12.699799989271163Q17.8326,12.647499989271164,17.8736,12.586099989271164Q17.9146,12.524699989271165,17.9429,12.456499989271164Q17.9712,12.388199989271165,17.9856,12.315799989271165Q18,12.243299989271163,18,12.169499989271165Q18,12.095599989271165,17.9856,12.023099989271165Q17.9712,11.950699989271165,17.9429,11.882399989271164Q17.9146,11.814199989271163,17.8736,11.752799989271164Q17.8326,11.691399989271163,17.7803,11.639099989271164Q17.7281,11.586899989271163,17.6667,11.545899989271163Q17.6053,11.504799989271165,17.537,11.476499989271163Q17.4688,11.448299989271163,17.3963,11.433899989271165Q17.3239,11.419499989271165,17.25,11.419499989271165L16.5,11.419499989271165Q16.4261,11.419499989271165,16.3537,11.433899989271165Q16.2812,11.448299989271163,16.213,11.476499989271163Q16.1447,11.504799989271165,16.0833,11.545799989271163Q16.0219,11.586899989271163,15.9697,11.639099989271164Q15.9174,11.691399989271163,15.8764,11.752799989271164Q15.8354,11.814199989271163,15.8071,11.882399989271164Q15.7788,11.950699989271165,15.7644,12.023099989271165Q15.75,12.095599989271165,15.75,12.169499989271165Q15.75,12.243299989271163,15.7644,12.315799989271165Q15.7788,12.388199989271165,15.8071,12.456499989271164Q15.8354,12.524699989271165,15.8764,12.586099989271164Q15.9174,12.647499989271164,15.9697,12.699799989271163Q16.0219,12.751999989271164,16.0833,12.793099989271164Q16.1447,12.834099989271165,16.213,12.862399989271164Q16.2812,12.890599989271164,16.3537,12.904999989271165Q16.4261,12.919499989271165,16.5,12.919499989271165Z" fill-rule="evenodd"></path></symbol>
<symbol xmlns="http://www.w3.org/2000/svg" viewBox="0 0 24 24" id="sidebar-trigger"><defs><clipPath id="sidebar-trigger_a"><rect width="24" height="24" rx="0"></rect></clipPath></defs><g clip-path="url(#sidebar-trigger_a)"><path d="M23,3Q22.901508,3,22.804911,3.0192146Q22.708311,3.0384295,22.617315,3.0761206Q22.526321,3.113811,22.444429,3.16853Q22.362537,3.223249,22.292892,3.292893Q22.223249,3.362537,22.16853,3.44443Q22.113811,3.526322,22.0761204,3.6173159999999998Q22.0384293,3.708311,22.0192146,3.80491Q22,3.901509,22,4Q22,4.09849,22.0192146,4.19509Q22.0384293,4.29169,22.0761204,4.38268Q22.113811,4.47368,22.16853,4.5555699999999995Q22.223249,4.63746,22.292892,4.70711Q22.362537,4.77675,22.444429,4.8314699999999995Q22.526321,4.88619,22.617315,4.9238800000000005Q22.708311,4.96157,22.804911,4.98079Q22.901508,5,23,5L41,5Q41.0985,5,41.1951,4.98079Q41.2917,4.96157,41.3827,4.9238800000000005Q41.4737,4.88619,41.5556,4.8314699999999995Q41.6375,4.77675,41.7071,4.70711Q41.776700000000005,4.63746,41.8315,4.5555699999999995Q41.8862,4.47368,41.9239,4.38268Q41.961600000000004,4.29169,41.9808,4.19509Q42,4.09849,42,4Q42,3.901509,41.9808,3.80491Q41.961600000000004,3.708311,41.9239,3.6173159999999998Q41.8862,3.526322,41.8315,3.44443Q41.776700000000005,3.362537,41.7071,3.292893Q41.6375,3.223249,41.5556,3.16853Q41.4737,3.113811,41.3827,3.0761206Q41.2917,3.0384295,41.1951,3.0192146Q41.0985,3,41,3L23,3ZM23,11Q22.901510000000002,11,22.804688,11.01953Q22.708086,11.03875,22.617188,11.07617Q22.526188,11.11386,22.444336,11.16895Q22.362446,11.22367,22.292969,11.29297Q22.223328,11.36262,22.168457,11.44434Q22.113737,11.52623,22.0761719,11.61719Q22.0384808,11.70818,22.019043,11.80469Q21.999832153,11.90129,22,12Q22,12.09849,22.019043,12.19531Q22.0382614,12.29191,22.0761719,12.38281Q22.113861,12.47381,22.168457,12.55566Q22.223177,12.63755,22.292969,12.70703Q22.362617,12.77667,22.444336,12.83105Q22.526226,12.88578,22.617188,12.92383Q22.708178,12.96152,22.804688,12.98047Q22.901287,12.99969,23,13L41,13Q41.0985,13,41.1951,12.98078Q41.2917,12.96157,41.3827,12.92388Q41.4737,12.88619,41.5556,12.83147Q41.6375,12.77675,41.7071,12.70711Q41.776700000000005,12.63746,41.8315,12.55557Q41.8862,12.47368,41.9239,12.38268Q41.961600000000004,12.29169,41.9808,12.19509Q42,12.09849,42,12Q42,11.90151,41.9808,11.80491Q41.961600000000004,11.70831,41.9239,11.61732Q41.8862,11.52632,41.8315,11.44443Q41.776700000000005,11.36254,41.7071,11.29289Q41.6375,11.22325,41.5556,11.16853Q41.4737,11.11381,41.3827,11.07612Q41.2917,11.03843,41.1951,11.01921Q41.0985,11,41,11L23,11ZM23,19Q22.901508,19,22.804911,19.0192Q22.708311,19.0384,22.617315,19.0761Q22.526321,19.1138,22.444429,19.1685Q22.362537,19.2232,22.292892,19.2929Q22.223249,19.3625,22.16853,19.4444Q22.113811,19.5263,22.0761204,19.6173Q22.0384293,19.7083,22.0192146,19.8049Q22,19.9015,22,20Q22,20.0985,22.0192146,20.1951Q22.0384293,20.2917,22.0761204,20.3827Q22.113811,20.4737,22.16853,20.5556Q22.223249,20.6375,22.292892,20.7071Q22.362537,20.7767,22.444429,20.8315Q22.526321,20.8862,22.617315,20.9239Q22.708311,20.9616,22.804911,20.9808Q22.901508,21,23,21L41,21Q41.0985,21,41.1951,20.9808Q41.2917,20.9616,41.3827,20.9239Q41.4737,20.8862,41.5556,20.8315Q41.6375,20.7767,41.7071,20.7071Q41.776700000000005,20.6375,41.8315,20.5556Q41.8862,20.4737,41.9239,20.3827Q41.961600000000004,20.2917,41.9808,20.1951Q42,20.0985,42,20Q42,19.9015,41.9808,19.8049Q41.961600000000004,19.7083,41.9239,19.6173Q41.8862,19.5263,41.8315,19.4444Q41.776700000000005,19.3625,41.7071,19.2929Q41.6375,19.2232,41.5556,19.1685Q41.4737,19.1138,41.3827,19.0761Q41.2917,19.0384,41.1951,19.0192Q41.0985,19,41,19L23,19Z" fill-rule="evenodd" transform="matrix(-1 0 0 1 44 0)"></path></g></symbol>
<symbol xmlns="http://www.w3.org/2000/svg" viewBox="0 0 18 18" id="sidebar-wont-do-list"><path d="M1.125,4.125L1.125,13.875C1.125,15.5319,2.46815,16.875,4.125,16.875L13.875,16.875C15.5319,16.875,16.875,15.5319,16.875,13.875L16.875,4.125C16.875,2.46815,15.5319,1.125,13.875,1.125L4.125,1.125C2.46815,1.125,1.125,2.46815,1.125,4.125ZM3.0643599999999998,14.9355Q2.625,14.4963,2.625,13.875L2.625,4.125Q2.625,3.50368,3.06434,3.06434Q3.50368,2.625,4.125,2.625L13.875,2.625Q14.4963,2.6251100000000003,14.9356,3.06445Q15.375,3.50368,15.375,4.125L15.375,13.875Q15.375,14.4962,14.9356,14.9355Q14.4963,15.375,13.875,15.375L4.125,15.375Q3.5037,15.3749,3.0643599999999998,14.9355ZM6.88329,5.81567C6.59039,5.52277,6.11552,5.52277,5.82263,5.81567C5.52973,6.10856,5.52974,6.58343,5.82263,6.87633L7.9436,8.9973L5.82237,11.11853C5.52948,11.4114,5.52948,11.8863,5.82237,12.1792C6.11526,12.4721,6.59014,12.4721,6.88303,12.1792L9.00426,10.05796L11.1259,12.1796C11.4188,12.4725,11.8937,12.4725,12.1866,12.1796C12.4795,11.8867,12.4795,11.4119,12.1866,11.11897L10.06492,8.9973L12.1863,6.87589C12.4792,6.583,12.4792,6.10813,12.1863,5.81523C11.8934,5.52234,11.4186,5.52234,11.1257,5.81523L9.00426,7.93664L6.88329,5.81567Z" fill-rule="evenodd"></path></symbol>
</svg>