<svg xmlns="http://www.w3.org/2000/svg" xmlns:xlink="http://www.w3.org/1999/xlink" style="position: absolute; width: 0; height: 0" aria-hidden="true" id="__SVG_SPRITE_NODE__">
<symbol xmlns="http://www.w3.org/2000/svg" viewBox="0 0 24 24" id="sign-out"><path d="M9.5,22L5.80952,22Q4.23157,22,3.11578,20.8842Q2,19.7684,2,18.1905L2.000000227065,5.80952Q2.000000227065,4.23203,3.10792,3.1177200000000003Q4.21923,2,5.7976600000000005,2L9.5,2C10.02599,2,10.45239,2.426407,10.45239,2.952393C10.45239,3.47838,10.02599,3.90479,9.5,3.90479L5.7976600000000005,3.90476Q5.01142,3.90476,4.45866,4.460710000000001Q3.90476,5.017799999999999,3.90476,5.80952L3.90476,18.1905Q3.90476,18.9795,4.46265,19.5373Q5.02055,20.0952,5.80952,20.0952L9.5,20.0952C10.02599,20.0952,10.45239,20.5216,10.45239,21.0476C10.45239,21.5736,10.02599,22,9.5,22ZM15.4195,16.4966L18.9638,12.9524L8.63039,12.9524C8.1044,12.9524,7.67801,12.526,7.67801,12C7.67801,11.47401,8.1044,11.04761,8.63039,11.04761L18.9638,11.04762L15.4195,7.50337C15.2409,7.32476,15.1406,7.08252,15.1406,6.82993C15.1406,6.57734,15.2409,6.3351,15.4195,6.1565C15.5981,5.97789,15.8404,5.877549999999999,16.093,5.877549999999999C16.345599999999997,5.877549999999999,16.5878,5.97789,16.7664,6.1565L16.7664,6.1565L21.9365,11.32656C22.1151,11.50517,22.2154,11.74741,22.2154,12C22.2154,12.2526,22.1151,12.4948,21.9365,12.6734L16.7669,17.843L16.7669,17.843C16.5878,18.0221,16.345599999999997,18.1224,16.093,18.1224C15.8404,18.1224,15.5981,18.0221,15.4195,17.8435C15.2409,17.6649,15.1406,17.4227,15.1406,17.170099999999998C15.1406,16.9175,15.2409,16.6752,15.4195,16.4966Z" fill-rule="evenodd"></path></symbol>
</svg>