<svg xmlns="http://www.w3.org/2000/svg" xmlns:xlink="http://www.w3.org/1999/xlink" style="position: absolute; width: 0; height: 0" aria-hidden="true" id="__SVG_SPRITE_NODE__">
<symbol xmlns="http://www.w3.org/2000/svg" viewBox="0 0 24 24" id="sort-by-assignee"><path d="M6.4090728759765625 17.827271700592043C6.4090728759765625 19.63475170059204 7.874322875976563 21.10000170059204 9.681802875976562 21.10000170059204L20.318172875976565 21.10000170059204C22.125672875976562 21.10000170059204 23.59097287597656 19.63475170059204 23.59097287597656 17.827271700592043 23.59097287597656 14.212301700592041 20.660372875976563 11.281801700592041 17.045472875976564 11.281801700592041L12.954542875976562 11.281801700592041C9.339572875976563 11.281801700592041 6.4090728759765625 14.212301700592041 6.4090728759765625 17.827271700592043zM8.556802875976562 17.827271700592043Q8.556802875976562 18.29326170059204 8.886312875976563 18.62276170059204 9.215812875976562 18.952271700592043 9.681802875976562 18.952271700592043L20.318172875976565 18.952271700592043Q20.784172875976562 18.952271700592043 21.11367287597656 18.62276170059204 21.443172875976565 18.29326170059204 21.443172875976565 17.827271700592043 21.443172875976565 16.005661700592043 20.15517287597656 14.717601700592041 18.86707287597656 13.42953170059204 17.045472875976564 13.42953170059204L12.954542875976562 13.42953170059204Q11.132932875976563 13.42953170059204 9.844872875976563 14.717601700592041 8.556802875976562 16.005661700592043 8.556802875976562 17.827271700592043zM18.681820070648193 6.7818199046325685C18.681820070648193 8.815239904632568 17.033410070648195 10.463649904632568 14.999990070648193 10.463649904632568 12.966580070648194 10.463649904632568 11.318170070648193 8.815239904632568 11.318170070648193 6.7818199046325685 11.318170070648193 4.7484099046325685 12.966580070648194 3.0999999046325684 14.999990070648193 3.0999999046325684 17.033410070648195 3.0999999046325684 18.681820070648193 4.7484099046325685 18.681820070648193 6.7818199046325685zM16.681820070648193 6.7818199046325685Q16.681820070648193 6.085189904632568 16.189220070648194 5.592589904632568 15.696630070648194 5.099999904632568 14.999990070648193 5.099999904632568 14.303360070648193 5.099999904632568 13.810760070648193 5.592589904632568 13.318170070648193 6.085189904632568 13.318170070648193 6.7818199046325685 13.318170070648193 7.478459904632568 13.810760070648193 7.971049904632569 14.303360070648193 8.463649904632568 14.999990070648193 8.463649904632568 15.696630070648194 8.463649904632568 16.189220070648194 7.971049904632569 16.681820070648193 7.478459904632568 16.681820070648193 6.7818199046325685z" fill-rule="evenodd"></path><g><path d="M3.5,1C2.94772,1,2.5,1.447715,2.5,2L2.5,19.8358L1.70711,19.0429C1.51957,18.8554,1.26522,18.75,1,18.75C0.447715,18.75,0,19.1977,0,19.75C0,20.0152,0.105357,20.2696,0.292893,20.4571L2.79289,22.9571C3.18342,23.3476,3.81658,23.3476,4.20711,22.9571C4.39464,22.7696,4.5,22.5152,4.5,22.25L4.5,2C4.5,1.447715,4.05228,1,3.5,1Z" fill-rule="evenodd"></path></g></symbol>
<symbol xmlns="http://www.w3.org/2000/svg" viewBox="0 0 24 24" id="sort-by-complete"><path d="M3.5 1C2.94772 1 2.5 1.447715 2.5 2L2.5 19.8358 1.70711 19.0429C1.51957 18.8554 1.26522 18.75 1 18.75.447715 18.75 0 19.1977 0 19.75 0 20.0152.105357 20.2696.292893 20.4571L2.79289 22.9571C3.18342 23.3476 3.81658 23.3476 4.20711 22.9571 4.39464 22.7696 4.5 22.5152 4.5 22.25L4.5 2C4.5 1.447715 4.05228 1 3.5 1zM23.3681 15.41289990463257Q24 13.816699904632568 24 12.099999904632568 24 10.383299904632569 23.3681 8.787149904632567 22.682 7.0540599046325685 21.364 5.736039904632568 20.0459 4.418019904632568 18.3129 3.7319049046325685 16.7167 3.0999999046325684 15 3.0999999046325684 13.28331 3.0999999046325684 11.687149999999999 3.7319049046325685 9.95406 4.418019904632568 8.63604 5.736039904632568 7.31802 7.0540599046325685 6.631905 8.787149904632567 6 10.383309904632569 6 12.099999904632568 6 13.816699904632568 6.631905 15.41289990463257 7.31802 17.145899904632568 8.63604 18.46399990463257 9.95406 19.781999904632567 11.687149999999999 20.468099904632567 13.2833 21.09999990463257 15 21.09999990463257 16.7167 21.09999990463257 18.3129 20.468099904632567 20.0459 19.781999904632567 21.364 18.46399990463257 22.682 17.145899904632568 23.3681 15.41289990463257zM19.9497 7.1502499046325685Q22 9.200499904632569 22 12.099999904632568 22 14.999499904632568 19.9497 17.04969990463257 17.8995 19.09999990463257 15 19.09999990463257 12.10051 19.09999990463257 10.05025 17.04969990463257 8 14.999499904632568 8 12.099999904632568 8 9.200499904632569 10.05025 7.1502499046325685 12.10051 5.099999904632568 15 5.099999904632568 17.8995 5.099999904632568 19.9497 7.1502499046325685z" fill-rule="evenodd"></path><path d="M15,7.099999904632568C14.447715,7.099999904632568,14,7.547714904632568,14,8.099999904632568L14,12.899999904632569C14,13.452279904632569,14.447715,13.899999904632569,15,13.899999904632569L17.4,13.899999904632569C17.952280000000002,13.899999904632569,18.4,13.452279904632569,18.4,12.899999904632569C18.4,12.34771990463257,17.952280000000002,11.899999904632569,17.4,11.899999904632569L16,11.899999904632569L16,8.099999904632568C16,7.547714904632568,15.55228,7.099999904632568,15,7.099999904632568Z" fill-rule="evenodd"></path></symbol>
<symbol xmlns="http://www.w3.org/2000/svg" viewBox="0 0 24 24" id="sort-by-completion"><path d="M3.5,1C2.94772,1,2.5,1.447715,2.5,2L2.5,19.8358L1.70711,19.0429C1.51957,18.8554,1.26522,18.75,1,18.75C0.447715,18.75,0,19.1977,0,19.75C0,20.0152,0.105357,20.2696,0.292893,20.4571L2.79289,22.9571C3.18342,23.3476,3.81658,23.3476,4.20711,22.9571C4.39464,22.7696,4.5,22.5152,4.5,22.25L4.5,2C4.5,1.447715,4.05228,1,3.5,1Z" fill-rule="evenodd"></path><path d="M33,21.09999990463257C37.9706,21.09999990463257,42,17.070599904632566,42,12.099999904632568C42,7.1294399046325685,37.9706,3.0999999046325684,33,3.0999999046325684C28.02944,3.0999999046325684,24,7.1294399046325685,24,12.099999904632568C24,17.070599904632566,28.02944,21.09999990463257,33,21.09999990463257ZM39.9357,13.099999904632568Q39.637,15.362499904632568,37.9497,17.04969990463257Q35.8995,19.09999990463257,33,19.09999990463257Q30.10051,19.09999990463257,28.05025,17.04969990463257Q26,14.999499904632568,26,12.099999904632568Q26,9.200499904632569,28.05025,7.1502499046325685Q29.73754,5.4629599046325685,32,5.164259904632568L32,12.099999904632568C32,12.652289904632568,32.44771,13.099999904632568,33,13.099999904632568L39.9357,13.099999904632568ZM37.9497,7.1502499046325685Q39.637,8.837539904632568,39.9357,11.099999904632568L34,11.099999904632568L34,5.164259904632568Q36.2625,5.4629599046325685,37.9497,7.1502499046325685Z" fill-rule="evenodd" transform="matrix(-1 0 0 1 48 0)"></path></symbol>
<symbol xmlns="http://www.w3.org/2000/svg" viewBox="0 0 24 24" id="sort-by-create-time"><path d="M3.5,1C2.94772,1,2.5,1.447715,2.5,2L2.5,19.8358L1.70711,19.0429C1.51957,18.8554,1.26522,18.75,1,18.75C0.447715,18.75,0,19.1977,0,19.75C0,20.0152,0.105357,20.2696,0.292893,20.4571L2.79289,22.9571C3.18342,23.3476,3.81658,23.3476,4.20711,22.9571C4.39464,22.7696,4.5,22.5152,4.5,22.25L4.5,2C4.5,1.447715,4.05228,1,3.5,1Z" fill-rule="evenodd"></path><path d="M6,12.099999904632568Q6,13.816699904632568,6.631905,15.41289990463257Q7.31802,17.145899904632568,8.63604,18.46399990463257Q9.95406,19.781999904632567,11.687149999999999,20.468099904632567Q13.2833,21.09999990463257,15,21.09999990463257Q15.15704,21.09999990463257,15.31308,21.09469990463257C15.88009,21.07549990463257,16.263199999999998,20.53859990463257,16.162399999999998,19.980299904632567C16.067,19.45199990463257,15.56739,19.09789990463257,15.03052,19.09989990463257Q15.01527,19.09999990463257,15,19.09999990463257Q12.10051,19.09999990463257,10.05025,17.04969990463257Q8,14.999499904632568,8,12.099999904632568Q8,9.200499904632569,10.05025,7.1502499046325685Q12.10051,5.099999904632568,15,5.099999904632568Q17.8995,5.099999904632568,19.9497,7.1502499046325685Q22,9.200499904632569,22,12.099999904632568Q22,12.196099904632568,21.997700000000002,12.291269904632568C21.9881,12.700359904632569,22.2437,13.070869904632568,22.6397,13.173999904632568C23.3102,13.348699904632568,23.9908,12.906359904632568,23.9993,12.21352990463257Q24,12.156829904632568,24,12.099999904632568Q24,10.383299904632569,23.3681,8.787149904632567Q22.682,7.0540599046325685,21.364,5.736039904632568Q20.0459,4.418019904632568,18.3129,3.7319049046325685Q16.7167,3.0999999046325684,15,3.0999999046325684Q13.28331,3.0999999046325684,11.687149999999999,3.7319049046325685Q9.95406,4.418019904632568,8.63604,5.736039904632568Q7.31802,7.0540599046325685,6.631905,8.787149904632567Q6,10.383309904632569,6,12.099999904632568Z"></path><path d="M15,7.099999904632568C14.447715,7.099999904632568,14,7.547714904632568,14,8.099999904632568L14,12.899999904632569C14,13.452279904632569,14.447715,13.899999904632569,15,13.899999904632569L17.4,13.899999904632569C17.952280000000002,13.899999904632569,18.4,13.452279904632569,18.4,12.899999904632569C18.4,12.34771990463257,17.952280000000002,11.899999904632569,17.4,11.899999904632569L16,11.899999904632569L16,8.099999904632568C16,7.547714904632568,15.55228,7.099999904632568,15,7.099999904632568Z" fill-rule="evenodd"></path><path d="M28.46741,14.657189986663818L28.46741,16.68781398666382L30.49805,16.68781398666382C30.946640000000002,16.68781398666382,31.31018,17.05147398666382,31.31018,17.500073986663818C31.31018,17.948663986663817,30.946640000000002,18.312313986663817,30.49805,18.312313986663817L28.46741,18.312313986663817L28.46741,20.34293398666382C28.46741,20.79152398666382,28.10368,21.155193986663818,27.65509,21.155193986663818C27.2065,21.155193986663818,26.8429,20.79152398666382,26.8429,20.34293398666382L26.8429,18.312313986663817L24.812317,18.312313986663817C24.363724,18.312313986663817,24,17.948663986663817,24,17.500073986663818C24,17.05147398666382,24.363724,16.68781398666382,24.812317,16.68781398666382L26.8429,16.68781398666382L26.8429,14.657189986663818C26.8429,14.208596986663819,27.2065,13.844933986663818,27.65509,13.844933986663818C28.10368,13.844933986663818,28.46741,14.208596986663819,28.46741,14.657189986663818Z" fill-rule="evenodd" transform="rotate(90 24 13.845)"></path></symbol>
<symbol xmlns="http://www.w3.org/2000/svg" viewBox="0 0 24 24" id="sort-by-custom"><path d="M23.000001430511475,4.5C23.000001430511475,3.947715,22.552301430511477,3.5,22.000001430511475,3.5L8.000001430511475,3.500000834465C7.447716430511474,3.500000834465,7.000001430511475,3.947716,7.000001430511475,4.5C7.000001430511475,5.05229,7.447716430511474,5.5,8.000001430511475,5.5L22.000001430511475,5.5C22.552301430511477,5.5,23.000001430511475,5.05228,23.000001430511475,4.5ZM17.000001430511475,12C17.000001430511475,11.44772,16.552281430511474,11,16.000001430511475,11L8.000001430511475,11C7.447716430511474,11,7.000001430511475,11.44772,7.000001430511475,12C7.000001430511475,12.55229,7.447716430511474,13,8.000001430511475,13L16.000001430511475,13C16.552291430511474,13,17.000001430511475,12.55229,17.000001430511475,12ZM20.000001430511475,19.5C20.000001430511475,18.947699999999998,19.552301430511477,18.5,19.000001430511475,18.5L8.000001430511475,18.5C7.447716430511474,18.5,7.000001430511475,18.947699999999998,7.000001430511475,19.5C7.000001430511475,20.0523,7.447716430511474,20.5,8.000001430511475,20.5L19.000001430511475,20.5C19.552301430511477,20.5,20.000001430511475,20.0523,20.000001430511475,19.5Z"></path><path d="M3.5,1C2.94772,1,2.5,1.447715,2.5,2L2.5,19.8358L1.70711,19.0429C1.51957,18.8554,1.26522,18.75,1,18.75C0.447715,18.75,0,19.1977,0,19.75C0,20.0152,0.105357,20.2696,0.292893,20.4571L2.79289,22.9571C3.18342,23.3476,3.81658,23.3476,4.20711,22.9571C4.39464,22.7696,4.5,22.5152,4.5,22.25L4.5,2C4.5,1.447715,4.05228,1,3.5,1Z" fill-rule="evenodd"></path></symbol>
<symbol xmlns="http://www.w3.org/2000/svg" viewBox="0 0 24 24" id="sort-by-default"><path d="M3.5,1C2.94772,1,2.5,1.447715,2.5,2L2.5,19.8358L1.70711,19.0429C1.51957,18.8554,1.26522,18.75,1,18.75C0.447715,18.75,0,19.1977,0,19.75C0,20.0152,0.105357,20.2696,0.292893,20.4571L2.79289,22.9571C3.18342,23.3476,3.81658,23.3476,4.20711,22.9571C4.39464,22.7696,4.5,22.5152,4.5,22.25L4.5,2C4.5,1.447715,4.05228,1,3.5,1Z" fill-rule="evenodd"></path><path d="M6,12.099999904632568Q6,13.816699904632568,6.631905,15.41289990463257Q7.31802,17.145899904632568,8.63604,18.46399990463257Q9.95406,19.781999904632567,11.687149999999999,20.468099904632567Q13.2833,21.09999990463257,15,21.09999990463257Q15.34282,21.09999990463257,15.68083,21.074799904632567C16.156,21.039399904632567,16.4999,20.62669990463257,16.5,20.15019990463257C16.5,19.531499904632568,15.94339,19.068299904632568,15.32522,19.09339990463257Q15.16397,19.09999990463257,15,19.09999990463257Q12.10051,19.09999990463257,10.05025,17.04969990463257Q8,14.999499904632568,8,12.099999904632568Q8,9.200499904632569,10.05025,7.1502499046325685Q12.10051,5.099999904632568,15,5.099999904632568Q17.8995,5.099999904632568,19.9497,7.1502499046325685Q22,9.200499904632569,22,12.099999904632568Q22,12.664599904632569,21.9223,13.196999904632568C21.8271,13.848999904632569,22.2928,14.500099904632568,22.9517,14.500199904632568C23.3792,14.500299904632568,23.7603,14.213099904632568,23.8407,13.793299904632569Q24,12.961819904632568,24,12.099999904632568Q24,10.383299904632569,23.3681,8.787149904632567Q22.682,7.0540599046325685,21.364,5.736039904632568Q20.0459,4.418019904632568,18.3129,3.7319049046325685Q16.7167,3.0999999046325684,15,3.0999999046325684Q13.28331,3.0999999046325684,11.687149999999999,3.7319049046325685Q9.95406,4.418019904632568,8.63604,5.736039904632568Q7.31802,7.0540599046325685,6.631905,8.787149904632567Q6,10.383309904632569,6,12.099999904632568Z"></path><path d="M15 7.099999904632568C14.447715 7.099999904632568 14 7.547714904632568 14 8.099999904632568L14 12.899999904632569C14 13.452279904632569 14.447715 13.899999904632569 15 13.899999904632569L17.4 13.899999904632569C17.952280000000002 13.899999904632569 18.4 13.452279904632569 18.4 12.899999904632569 18.4 12.34771990463257 17.952280000000002 11.899999904632569 17.4 11.899999904632569L16 11.899999904632569 16 8.099999904632568C16 7.547714904632568 15.55228 7.099999904632568 15 7.099999904632568zM23.842779621582032 16.99312634994507L23.842779621582032 16.841206349945068C23.842779621582032 16.616690349945067 23.66077962158203 16.434655349945068 23.436259621582032 16.434655349945068L21.089489621582032 16.434655349945068 20.276419621582033 15.621606349945068 18.27458162158203 15.621606349945068C18.05006162158203 15.621606349945068 17.86804962158203 15.803579349945068 17.86804962158203 16.028100349945067L17.86804962158203 20.09352634994507Q17.86804962158203 20.500026349945067 18.27458162158203 20.500026349945067L23.436259621582032 20.500026349945067Q23.639509621582032 20.50004634994507 23.741139621582033 20.39842634994507 23.84276962158203 20.29680634994507 23.84276962158203 20.09352634994507L23.84276962158203 16.99312634994507 23.842779621582032 16.99312634994507z" fill-rule="evenodd"></path></symbol>
<symbol xmlns="http://www.w3.org/2000/svg" viewBox="0 0 24 24" id="sort-by-duedate"><path d="M3.5,1C2.94772,1,2.5,1.447715,2.5,2L2.5,19.8358L1.70711,19.0429C1.51957,18.8554,1.26522,18.75,1,18.75C0.447715,18.75,0,19.1977,0,19.75C0,20.0152,0.105357,20.2696,0.292893,20.4571L2.79289,22.9571C3.18342,23.3476,3.81658,23.3476,4.20711,22.9571C4.39464,22.7696,4.5,22.5152,4.5,22.25L4.5,2C4.5,1.447715,4.05228,1,3.5,1ZM6,16.9L6,7.29998C6,5.53266,7.43269,4.09998,9.2,4.09998L20.4,4.09998C22.1673,4.09998,23.6,5.53266,23.6,7.29998L23.6,16.9C23.6,18.6673,22.1673,20.1,20.4,20.1L9.2,20.1C7.43269,20.1,6,18.6673,6,16.9ZM7.80313,7.19998Q7.83581,6.68426,8.21005,6.31003Q8.6201,5.89998,9.2,5.89998L20.4,5.89998Q20.9799,5.89998,21.3899,6.31003Q21.7642,6.68426,21.7969,7.19998L7.80313,7.19998ZM7.8,16.9L7.8,8.99998L21.8,8.99998L21.8,16.9Q21.8,17.4799,21.3899,17.8899Q20.9799,18.3,20.4,18.3L9.2,18.3Q8.6201,18.3,8.21005,17.8899Q7.8,17.4799,7.8,16.9ZM10,12.2C9.50294,12.2,9.1,11.797,9.1,11.3C9.1,10.80293,9.50294,10.39999,10,10.39999L10.8,10.39999C11.2971,10.39999,11.7,10.80293,11.7,11.3C11.7,11.797,11.2971,12.2,10.8,12.2L10,12.2ZM14,12.2C13.5029,12.2,13.1,11.797,13.1,11.3C13.1,10.80293,13.5029,10.39999,14,10.39999L14.8,10.39999C15.2971,10.39999,15.7,10.80293,15.7,11.3C15.7,11.797,15.2971,12.2,14.8,12.2L14,12.2ZM18,12.2C17.5029,12.2,17.1,11.797,17.1,11.3C17.1,10.80293,17.5029,10.39999,18,10.39999L18.8,10.39999C19.2971,10.39999,19.7,10.80293,19.7,11.3C19.7,11.797,19.2971,12.2,18.8,12.2L18,12.2ZM10,15.4C9.50294,15.4,9.1,14.9971,9.1,14.5C9.1,14.0029,9.50294,13.6,10,13.6L10.8,13.6C11.2971,13.6,11.7,14.0029,11.7,14.5C11.7,14.9971,11.2971,15.4,10.8,15.4L10,15.4ZM14,15.4C13.5029,15.4,13.1,14.9971,13.1,14.5C13.1,14.0029,13.5029,13.6,14,13.6L14.8,13.6C15.2971,13.6,15.7,14.0029,15.7,14.5C15.7,14.9971,15.2971,15.4,14.8,15.4L14,15.4Z" fill-rule="evenodd"></path></symbol>
<symbol xmlns="http://www.w3.org/2000/svg" viewBox="0 0 24 24" id="sort-by-list"><path d="M2.5,2C2.5,1.447715,2.94772,1,3.5,1C4.05228,1,4.5,1.447715,4.5,2L4.5,22.25C4.5,22.5152,4.39464,22.7696,4.20711,22.9571C3.81658,23.3476,3.18342,23.3476,2.79289,22.9571L0.292893,20.4571C0.105357,20.2696,0,20.0152,0,19.75C0,19.1977,0.447715,18.75,1,18.75C1.26522,18.75,1.51957,18.8554,1.70711,19.0429L2.5,19.8358L2.5,2ZM21.2,5.59994L8.4,5.59994C8.4,4.716279999999999,9.11635,3.99994,10,3.99994L19.6,3.99994C20.4837,3.99994,21.2,4.716279999999999,21.2,5.59994ZM22.4,7.99996L7.2,7.99996C7.2,7.11631,7.91634,6.39996,8.8,6.39996L20.8,6.39996C21.6837,6.39996,22.4,7.11631,22.4,7.99996ZM6,11.1996L6,17.5996C6,18.925,7.07452,19.9996,8.4,19.9996L21.2,19.9996C22.5255,19.9996,23.6,18.925,23.6,17.5996L23.6,11.1996C23.6,9.87408,22.5255,8.79956,21.2,8.79956L8.4,8.79956C7.07452,8.79956,6,9.87408,6,11.1996ZM8.4,17.9996Q8,17.9996,8,17.5996L8,11.1996Q8,10.79956,8.4,10.79956L21.2,10.79956Q21.6,10.79956,21.6,11.1996L21.6,17.5996Q21.6,17.9996,21.2,17.9996L8.4,17.9996Z" fill-rule="evenodd"></path></symbol>
<symbol xmlns="http://www.w3.org/2000/svg" viewBox="0 0 24 24" id="sort-by-modified-time"><path d="M3.5,1C2.94772,1,2.5,1.447715,2.5,2L2.5,19.8358L1.70711,19.0429C1.51957,18.8554,1.26522,18.75,1,18.75C0.447715,18.75,0,19.1977,0,19.75C0,20.0152,0.105357,20.2696,0.292893,20.4571L2.79289,22.9571C3.18342,23.3476,3.81658,23.3476,4.20711,22.9571C4.39464,22.7696,4.5,22.5152,4.5,22.25L4.5,2C4.5,1.447715,4.05228,1,3.5,1Z" fill-rule="evenodd"></path><path d="M6,12.099999904632568Q6,13.816699904632568,6.631905,15.41289990463257Q7.31802,17.145899904632568,8.63604,18.46399990463257Q9.95406,19.781999904632567,11.687149999999999,20.468099904632567Q13.2833,21.09999990463257,15,21.09999990463257L15.00507,21.09999990463257C15.55724,21.09999990463257,15.9999,20.652299904632567,15.99979,20.100099904632568L15.99979,20.097499904632567C15.99967,19.54589990463257,15.55674,19.09999990463257,15.0051,19.09999990463257L15,19.09999990463257Q12.10051,19.09999990463257,10.05025,17.04969990463257Q8,14.999499904632568,8,12.099999904632568Q8,9.200499904632569,10.05025,7.1502499046325685Q12.10051,5.099999904632568,15,5.099999904632568Q17.8995,5.099999904632568,19.9497,7.1502499046325685Q22,9.200499904632569,22,12.099999904632568L22,12.109149904632568C21.999499999999998,12.585639904632568,22.368,12.993279904632569,22.8445,12.992349904632569L23.0655,12.991919904632569C23.5714,12.990939904632569,23.9995,12.614939904632568,24,12.108979904632568L24,12.099999904632568Q24,10.383299904632569,23.3681,8.787149904632567Q22.682,7.0540599046325685,21.364,5.736039904632568Q20.0459,4.418019904632568,18.3129,3.7319049046325685Q16.7167,3.0999999046325684,15,3.0999999046325684Q13.28331,3.0999999046325684,11.687149999999999,3.7319049046325685Q9.95406,4.418019904632568,8.63604,5.736039904632568Q7.31802,7.0540599046325685,6.631905,8.787149904632567Q6,10.383309904632569,6,12.099999904632568Z"></path><path d="M15,7.099999904632568C14.447715,7.099999904632568,14,7.547714904632568,14,8.099999904632568L14,12.899999904632569C14,13.452279904632569,14.447715,13.899999904632569,15,13.899999904632569L17.4,13.899999904632569C17.952280000000002,13.899999904632569,18.4,13.452279904632569,18.4,12.899999904632569C18.4,12.34771990463257,17.952280000000002,11.899999904632569,17.4,11.899999904632569L16,11.899999904632569L16,8.099999904632568C16,7.547714904632568,15.55228,7.099999904632568,15,7.099999904632568Z" fill-rule="evenodd"></path><path d="M23.433777074279785,14.54117495565796Q23.473957074279785,14.608539955657958,23.505197074279785,14.701090955657959Q23.536367074279784,14.793604955657958,23.548717074279786,14.896390955657958Q23.561067074279784,14.999190955657959,23.533917074279785,15.106690955657958Q23.506737074279783,15.214240955657958,23.431097074279783,15.31964095565796Q23.347617074279785,15.425940955657959,23.281077074279786,15.50612095565796Q23.214517074279783,15.586320955657959,23.165817074279786,15.64833095565796Q23.110167074279786,15.719200955657959,23.060507074279784,15.773310955657958L21.404027074279785,14.47234995565796Q21.488467074279786,14.373958955657958,21.604207074279785,14.235704955657958Q21.719947074279787,14.09745195565796,21.798377074279784,14.015826955657959Q21.898617074279784,13.915534955657959,22.012967074279786,13.865664955657959Q22.127307074279784,13.81582105565796,22.242447074279784,13.806048185657959Q22.357587074279785,13.79621747565796,22.468127074279785,13.815002855657958Q22.578677074279785,13.833799055657959,22.662477074279785,13.86386985565796Q22.838997074279785,13.93088895565796,23.066787074279787,14.12404995565796Q23.294577074279786,14.317265955657959,23.433777074279785,14.54117495565796ZM17.737767074279784,19.14060095565796Q17.779509074279787,19.087450955657957,17.932048074279784,18.88868095565796Q18.084624074279784,18.68985095565796,18.314197074279786,18.397480955657958L18.822067074279786,17.75088095565796L19.385597074279787,17.03334095565796L20.881297074279786,15.128790955657959L22.538757074279786,16.43769095565796L21.043047074279784,18.34218095565796L20.487427074279786,19.058700955657958Q20.208197074279784,19.40512095565796,19.986047074279785,19.69260095565796Q19.763907074279786,19.98001095565796,19.617777074279786,20.16602095565796Q19.471677074279786,20.35205095565796,19.442917074279784,20.379580955657957Q19.372397074279785,20.460260955657958,19.279097074279786,20.551680955657957Q19.185797074279787,20.64311095565796,19.080817074279786,20.70387095565796Q18.976767074279785,20.77253095565796,18.772767074279784,20.87726095565796Q18.568777074279787,20.98200095565796,18.344547074279784,21.085190955657957Q18.120304074279787,21.18836095565796,17.917398074279784,21.268840955657957Q17.714503074279786,21.34938095565796,17.613602074279786,21.377590955657958Q17.402950074279786,21.42698095565796,17.321340574279784,21.34861095565796Q17.239715544279786,21.27018095565796,17.246626526279787,21.060790955657957Q17.249132304279787,20.94819095565796,17.283228674279783,20.73144095565796Q17.317342974279786,20.51476095565796,17.357472074279784,20.281310955657958Q17.397593074279786,20.04786095565796,17.438030074279784,19.850460955657958Q17.478475074279785,19.65307095565796,17.509442074279786,19.57723095565796Q17.543579074279783,19.460820955657958,17.591972074279784,19.36272095565796Q17.640346074279787,19.26465095565796,17.737767074279784,19.14060095565796Z"></path></symbol>
<symbol xmlns="http://www.w3.org/2000/svg" viewBox="0 0 24 24" id="sort-by-priority"><path d="M3.5 1C2.94772 1 2.5 1.447715 2.5 2L2.5 19.8358 1.70711 19.0429C1.51957 18.8554 1.26522 18.75 1 18.75.447715 18.75 0 19.1977 0 19.75 0 20.0152.105357 20.2696.292893 20.4571L2.79289 22.9571C3.18342 23.3476 3.81658 23.3476 4.20711 22.9571 4.39464 22.7696 4.5 22.5152 4.5 22.25L4.5 2C4.5 1.447715 4.05228 1 3.5 1zM8 2.0999999046325684C8.51356 2.0999999046325684 8.94363 2.4890139046325683 8.99499 2.9999999046325683L23 2.9999999046325683C23.1526 2.9999999046325683 23.3031 3.0349179046325685 23.4402 3.1020799046325687 23.9361 3.3451699046325682 24.141 3.944249904632568 23.8979 4.440159904632568L21.4666 9.399999904632569 23.8979 14.359799904632569C23.9651 14.496899904632569 24 14.647399904632568 24 14.799999904632568 24 15.352299904632568 23.5523 15.799999904632568 23 15.799999904632568L9 15.799999904632568 9 21.09999990463257C9 21.652299904632567 8.55228 22.09999990463257 8 22.09999990463257 7.447715 22.09999990463257 7 21.652299904632567 7 21.09999990463257L7 3.0999999046325684C7 2.5477149046325684 7.447715 2.0999999046325684 8 2.0999999046325684zM21.3961 13.799999904632568L9 13.799999904632568 9 4.999999904632569 21.3961 4.999999904632569 19.455 8.959839904632569C19.3189 9.237499904632568 19.3189 9.562499904632569 19.455 9.840159904632568L21.3961 13.799999904632568z" fill-rule="evenodd"></path></symbol>
<symbol xmlns="http://www.w3.org/2000/svg" viewBox="0 0 24 24" id="sort-by-tag"><path d="M3.5 1C2.94772 1 2.5 1.447715 2.5 2L2.5 19.8358 1.70711 19.0429C1.51957 18.8554 1.26522 18.75 1 18.75.447715 18.75 0 19.1977 0 19.75 0 20.0152.105357 20.2696.292893 20.4571L2.79289 22.9571C3.18342 23.3476 3.81658 23.3476 4.20711 22.9571 4.39464 22.7696 4.5 22.5152 4.5 22.25L4.5 2C4.5 1.447715 4.05228 1 3.5 1zM6.936005129394531 13.731963359375Q6.054694861173531 12.897043359375 6.054695188999132 11.683013359375L6.054695188999132 6.939333359375Q6.054695531725531 5.770253359375 6.881355129394532 4.943603359375 7.708015129394531 4.116941988465 8.877095129394531 4.116943359375L13.63411512939453 4.116943359375Q14.793695129394532 4.116943359375 15.61833512939453 4.932159359375L22.88259512939453 12.000003359375Q24.01699512939453 13.121343359375 23.99999512939453 14.716243359375 23.98299512939453 16.311243359375 22.82509512939453 17.408143359375L19.47179512939453 20.585043359375Q18.38319512939453 21.616343359375 16.883595129394532 21.616343359375 15.384115129394532 21.616343359375 14.295525129394532 20.585043359375L6.936005129394531 13.731963359375zM8.230065129394532 12.365993359375L15.589585129394532 19.219043359375Q16.13389512939453 19.734743359375003 16.883595129394532 19.734743359375003 17.63339512939453 19.734743359375003 18.17769512939453 19.219043359375L21.53109512939453 16.042243359375Q22.10999512939453 15.493743359375 22.11849512939453 14.696243359375 22.12699512939453 13.898793359375 21.55979512939453 13.338133359375L14.295525129394532 6.270293359375Q14.02064512939453 5.998553359375 13.63411512939453 5.998533359375L8.877095129394531 5.998533359375Q8.487405129394531 5.998533359375 8.211855129394532 6.274113359375 7.936295129394531 6.549663359375 7.936295129394531 6.939333359375L7.936295129394531 11.683013359375Q7.936295129394531 12.087683359375 8.230065129394532 12.365993359375z" fill-rule="evenodd"></path><path d="M12.500002590942383,8.999981275100708Q12.500002590942383,9.059871275100708,12.494132590942382,9.119471275100707Q12.488262590942384,9.179071275100707,12.476582590942382,9.237801275100708Q12.464892590942384,9.296541275100708,12.447512590942383,9.353851275100707Q12.430122590942382,9.411161275100708,12.407212590942382,9.466481275100708Q12.384292590942383,9.521811275100708,12.356062590942383,9.574631275100709Q12.327832590942382,9.627441275100708,12.294562590942384,9.677241275100709Q12.261292590942382,9.727031275100709,12.223292590942382,9.773331275100707Q12.185302590942383,9.819621275100708,12.142962590942382,9.861971275100707Q12.100612590942383,9.904311275100708,12.054322590942382,9.942301275100707Q12.008022590942383,9.980301275100707,11.958232590942384,10.013571275100709Q11.908432590942382,10.046841275100707,11.855622590942383,10.075071275100708Q11.802802590942383,10.103301275100709,11.747482590942383,10.126221275100708Q11.692152590942383,10.149131275100707,11.634842590942382,10.166521275100708Q11.577532590942383,10.183901275100709,11.518792590942383,10.195591275100707Q11.460062590942382,10.207271275100709,11.400462590942382,10.213141275100707Q11.340862590942383,10.219011275100709,11.280972590942383,10.219011275100709Q11.221092590942384,10.219011275100709,11.161492590942382,10.213141275100707Q11.101892590942382,10.207271275100709,11.043157590942382,10.195591275100707Q10.984421590942382,10.183901275100709,10.927112590942382,10.166521275100708Q10.869804590942383,10.149131275100707,10.814476590942382,10.126221275100708Q10.759148590942383,10.103301275100709,10.706332590942383,10.075071275100708Q10.653517590942382,10.046841275100707,10.603723590942383,10.013571275100709Q10.553929590942383,9.980301275100707,10.507636590942383,9.942301275100707Q10.461342590942383,9.904311275100708,10.418996590942383,9.861971275100707Q10.376650590942383,9.819621275100708,10.338658590942384,9.773331275100707Q10.300666590942383,9.727031275100709,10.267395590942384,9.677241275100709Q10.234123590942383,9.627441275100708,10.205893590942383,9.574631275100709Q10.177662590942383,9.521811275100708,10.154745290942383,9.466491275100708Q10.131827590942382,9.411161275100708,10.114443390942382,9.353851275100707Q10.097059190942383,9.296541275100708,10.085375790942383,9.237801275100708Q10.073692490942383,9.179071275100707,10.067822530942383,9.119471275100707Q10.061952590942383,9.059871275100708,10.061952590942383,8.999981275100708Q10.061952590942383,8.940101275100709,10.067822530942383,8.880501275100707Q10.073692490942383,8.820901275100708,10.085375790942383,8.762166275100707Q10.097059190942383,8.703430275100708,10.114443390942382,8.646121275100707Q10.131827590942382,8.588813275100708,10.154745290942383,8.533485275100707Q10.177662590942383,8.478157275100708,10.205893590942383,8.425341275100708Q10.234123590942383,8.372526275100707,10.267395590942384,8.322732275100709Q10.300666590942383,8.272938275100708,10.338658590942384,8.226645275100708Q10.376650590942383,8.180351275100708,10.418996590942383,8.138005275100708Q10.461342590942383,8.095659275100708,10.507636590942383,8.057667275100709Q10.553929590942383,8.019675275100708,10.603723590942383,7.986404275100708Q10.653517590942382,7.953132275100708,10.706332590942383,7.924902275100708Q10.759148590942383,7.896671275100708,10.814476590942382,7.873753975100708Q10.869804590942383,7.850836275100708,10.927112590942382,7.833452075100708Q10.984421590942382,7.816067875100708,11.043157590942382,7.804384475100708Q11.101892590942382,7.792701175100708,11.161492590942382,7.786831215100708Q11.221092590942384,7.780961275100708,11.280972590942383,7.780961275100708Q11.340862590942383,7.780961275100708,11.400462590942382,7.786831215100708Q11.460062590942382,7.792701175100708,11.518792590942383,7.804384475100708Q11.577532590942383,7.816067875100708,11.634842590942382,7.833452075100708Q11.692152590942383,7.850836275100708,11.747472590942383,7.873753975100708Q11.802802590942383,7.896671275100708,11.855622590942383,7.924902275100708Q11.908432590942382,7.953132275100708,11.958232590942384,7.986404275100708Q12.008022590942383,8.019675275100708,12.054322590942382,8.057667275100709Q12.100612590942383,8.095659275100708,12.142962590942382,8.138005275100708Q12.185302590942383,8.180351275100708,12.223292590942382,8.226645275100708Q12.261292590942382,8.272938275100708,12.294562590942384,8.322732275100709Q12.327832590942382,8.372526275100707,12.356062590942383,8.425341275100708Q12.384292590942383,8.478157275100708,12.407212590942382,8.533485275100707Q12.430122590942382,8.588813275100708,12.447512590942383,8.646121275100707Q12.464892590942384,8.703430275100708,12.476582590942382,8.762166275100707Q12.488262590942384,8.820901275100708,12.494132590942382,8.880501275100707Q12.500002590942383,8.940101275100709,12.500002590942383,8.999981275100708Z"></path></symbol>
<symbol xmlns="http://www.w3.org/2000/svg" viewBox="0 0 24 24" id="sort-by-title"><path d="M3.5 1C2.94772 1 2.5 1.447715 2.5 2L2.5 19.8358 1.70711 19.0429C1.51957 18.8554 1.26522 18.75 1 18.75.447715 18.75 0 19.1977 0 19.75 0 20.0152.105357 20.2696.292893 20.4571L2.79289 22.9571C3.18342 23.3476 3.81658 23.3476 4.20711 22.9571 4.39464 22.7696 4.5 22.5152 4.5 22.25L4.5 2C4.5 1.447715 4.05228 1 3.5 1zM19.5518 15.099999904632568L22.0943 20.523999904632568 22.0945 20.524399904632567Q22.155 20.653499904632568 22.249200000000002 20.760499904632567 22.3433 20.867499904632567 22.4635 20.94389990463257 22.5838 21.02039990463257 22.7207 21.06019990463257 22.8575 21.09999990463257 23 21.09999990463257 23.0985 21.09999990463257 23.1951 21.080799904632567 23.2917 21.06159990463257 23.3827 21.023899904632568 23.4737 20.986199904632567 23.5556 20.931499904632567 23.6375 20.87669990463257 23.7071 20.80709990463257 23.776699999999998 20.737499904632568 23.8315 20.655599904632567 23.886200000000002 20.57369990463257 23.9239 20.482699904632568 23.9616 20.391699904632567 23.980800000000002 20.29509990463257 24 20.19849990463257 24 20.09999990463257 24 19.87729990463257 23.9055 19.67559990463257L23.905 19.67469990463257 21.093 13.675559904632568 16.405459999999998 3.6755659046325686Q16.32103 3.495458904632568 16.17411 3.3613699046325682 16.027189999999997 3.2272809046325683 15.84014 3.1596239046325683 15.65308 3.0919699046325686 15.45438 3.101040904632568 15.25567 3.1101159046325684 15.075569999999999 3.1945409046325683 14.91684 3.2689419046325683 14.79289 3.392892904632568 14.66894 3.5168449046325683 14.59454 3.6755659046325686L9.90704 13.67556990463257 7.094708 19.67519990463257 7.0945409999999995 19.67559990463257Q7 19.87729990463257 7 20.09999990463257 7 20.19849990463257 7.019215 20.29509990463257 7.03843 20.391699904632567 7.076121 20.482699904632568 7.113812 20.57369990463257 7.16853 20.655599904632567 7.223249 20.737499904632568 7.292893 20.80709990463257 7.362537 20.87669990463257 7.44443 20.931499904632567 7.526322 20.986199904632567 7.617317 21.023899904632568 7.708311 21.06159990463257 7.80491 21.080799904632567 7.9015086 21.09999990463257 8 21.09999990463257 8.142511 21.09999990463257 8.279348 21.06019990463257 8.416185 21.02039990463257 8.536453999999999 20.94389990463257 8.656723 20.867499904632567 8.750847 20.760499904632567 8.844972 20.653499904632568 8.905459 20.524399904632567L11.44816 15.099999904632568 19.5518 15.099999904632568zM18.6143 13.099999904632568L15.5 6.456079904632569 12.38566 13.099999904632568 18.6143 13.099999904632568z" fill-rule="evenodd"></path></symbol>
<symbol xmlns="http://www.w3.org/2000/svg" viewBox="0 0 16 16" id="sort"><path d="M9.33337056564331,2.3333336269302367L9.33337056564331,13.666666626930237Q9.33336056564331,13.732366626930236,9.34617056564331,13.796766626930237Q9.35898056564331,13.861166626930236,9.384110565643311,13.921766626930237Q9.40924056564331,13.982466626930236,9.44572056564331,14.037066626930237Q9.48220056564331,14.091666626930238,9.528630565643311,14.138066626930236Q9.57506056564331,14.184466626930236,9.62965056564331,14.220966626930236Q9.68425056564331,14.257466626930237,9.74491056564331,14.282566626930237Q9.805570565643311,14.307666626930237,9.86997056564331,14.320566626930237Q9.93437056564331,14.333366626930237,10.00003056564331,14.333366626930237Q10.02528056564331,14.333366626930237,10.05046056564331,14.331466626930236L10.05235056564331,14.331266626930237Q10.171830565643312,14.322366626930236,10.28074056564331,14.272466626930237Q10.389640565643312,14.222566626930236,10.47436056564331,14.137866626930236L12.831380565643311,11.780866626930237Q12.87781056564331,11.734366626930237,12.914290565643311,11.679766626930236Q12.95077056564331,11.625206626930236,12.97588056564331,11.564546626930237Q13.00098056564331,11.503886626930237,13.01388056564331,11.439486626930236Q13.02668056564331,11.375086626930237,13.02668056564331,11.309426626930238Q13.02668056564331,11.243766626930237,13.01388056564331,11.179366626930237Q13.00098056564331,11.114966626930237,12.97588056564331,11.054306626930236Q12.95077056564331,10.993636626930236,12.914290565643311,10.939046626930237Q12.87781056564331,10.884446626930236,12.831380565643311,10.838026626930237Q12.78495056564331,10.791596626930238,12.730360565643311,10.755116626930237Q12.67576056564331,10.718636626930238,12.61510056564331,10.693506626930237Q12.55443056564331,10.668376626930236,12.49003056564331,10.655566626930236Q12.425640565643311,10.642756626930236,12.35998056564331,10.642756626930236Q12.294310565643311,10.642756626930236,12.22992056564331,10.655566626930236Q12.16552056564331,10.668376626930236,12.10485056564331,10.693506626930237Q12.04419056564331,10.718636626930238,11.989600565643311,10.755116626930237Q11.93500056564331,10.791596626930238,11.888570565643311,10.838026626930237L10.66670056564331,12.059866626930237L10.66670056564331,2.3333336269302367Q10.66670056564331,2.2676726269302367,10.65389056564331,2.2032726269302367Q10.64108056564331,2.138873626930237,10.61595056564331,2.078210626930237Q10.59082056564331,2.0175486269302367,10.554340565643312,1.9629536269302368Q10.51787056564331,1.9083576269302367,10.47144056564331,1.8619286269302369Q10.42501056564331,1.8154996269302368,10.370410565643311,1.7790206269302369Q10.31582056564331,1.7425409269302368,10.25515056564331,1.717413626930237Q10.19449056564331,1.6922862269302368,10.130090565643311,1.679476426930237Q10.065690565643312,1.6666666269302368,10.00003056564331,1.6666666269302368Q9.93437056564331,1.6666666269302368,9.86997056564331,1.679476426930237Q9.805570565643311,1.6922862269302368,9.74491056564331,1.717413626930237Q9.68425056564331,1.7425409269302368,9.62965056564331,1.7790206269302369Q9.57506056564331,1.8154996269302368,9.528630565643311,1.8619286269302369Q9.48220056564331,1.9083576269302367,9.44572056564331,1.9629526269302369Q9.40924056564331,2.0175486269302367,9.384110565643311,2.078210626930237Q9.35898056564331,2.138873626930237,9.34617056564331,2.2032726269302367Q9.33336056564331,2.2676726269302367,9.33337056564331,2.3333336269302367ZM6.666740565643311,13.666766626930237L6.666740565643311,2.333414626930237Q6.666740565643311,2.267753626930237,6.653930565643311,2.2033546269302366Q6.641120565643311,2.1389546269302366,6.61599056564331,2.078292626930237Q6.590860565643311,2.017629626930237,6.554390565643311,1.9630346269302368Q6.5179105656433105,1.9084396269302368,6.4714805656433105,1.8620096269302369Q6.425050565643311,1.8155806269302368,6.37045056564331,1.7791016269302369Q6.315860565643311,1.7426220269302368,6.255190565643311,1.7174947269302367Q6.19453056564331,1.6923673269302368,6.130130565643311,1.6795575269302367Q6.06573056564331,1.6667476892302369,6.000070565643311,1.6667476892302369Q5.974820565643311,1.6667476892302369,5.94965056564331,1.6686578969302368L5.947750565643311,1.6687980869302368Q5.828280565643311,1.6776747269302368,5.7193705656433105,1.7275937269302368Q5.610460565643311,1.7775126269302368,5.52575056564331,1.8622266269302368L3.1687235656433104,4.219246626930237Q3.1222945656433105,4.265676626930237,3.0858155656433106,4.320276626930237Q3.0493362656433107,4.3748666269302365,3.0242088656433106,4.4355366269302365Q2.9990815656433107,4.496196626930237,2.9862716656433106,4.560596626930237Q2.9734619015433106,4.624996626930237,2.9734619015433106,4.690656626930236Q2.9734619015433106,4.756316626930237,2.9862716656433106,4.820716626930237Q2.9990815656433107,4.885116626930237,3.0242088656433106,4.945776626930237Q3.0493362656433107,5.0064366269302365,3.0858155656433106,5.061036626930237Q3.1222945656433105,5.115626626930236,3.1687235656433104,5.162056626930237Q3.2151535656433103,5.208486626930236,3.2697485656433107,5.244966626930237Q3.3243435656433107,5.2814466269302365,3.3850065656433106,5.306576626930237Q3.4456685656433104,5.331696626930237,3.5100685656433104,5.344506626930237Q3.5744675656433107,5.357316626930237,3.6401285656433107,5.357316626930237Q3.7057895656433106,5.357316626930237,3.7701885656433105,5.344506626930237Q3.8345875656433104,5.331696626930237,3.8952505656433107,5.306576626930237Q3.9559135656433106,5.2814466269302365,4.010510565643311,5.244966626930237Q4.065100565643311,5.208486626930236,4.11153056564331,5.162056626930237L5.333410565643311,3.940186626930237L5.333410565643311,13.666766626930237Q5.333410565643311,13.732366626930236,5.346220565643311,13.796766626930237Q5.359030565643311,13.861166626930236,5.38415056564331,13.921866626930237Q5.409280565643311,13.982566626930236,5.44576056564331,14.037166626930237Q5.482240565643311,14.091766626930237,5.52867056564331,14.138166626930238Q5.575100565643311,14.184566626930236,5.62969056564331,14.221066626930236Q5.684290565643311,14.257566626930236,5.744950565643311,14.282666626930236Q5.805610565643311,14.307766626930237,5.870010565643311,14.320566626930237Q5.934410565643311,14.333366626930237,6.000070565643311,14.333366626930237Q6.06573056564331,14.333366626930237,6.130130565643311,14.320566626930237Q6.19453056564331,14.307766626930237,6.255190565643311,14.282666626930236Q6.315860565643311,14.257566626930236,6.37045056564331,14.221066626930236Q6.425050565643311,14.184566626930236,6.4714805656433105,14.138166626930238Q6.5179105656433105,14.091766626930237,6.554390565643311,14.037166626930237Q6.590860565643311,13.982566626930236,6.61599056564331,13.921866626930237Q6.641120565643311,13.861166626930236,6.653930565643311,13.796766626930237Q6.666740565643311,13.732366626930236,6.666740565643311,13.666766626930237Z" fill-rule="evenodd"></path></symbol>
</svg>