<svg xmlns="http://www.w3.org/2000/svg" xmlns:xlink="http://www.w3.org/1999/xlink" style="position: absolute; width: 0; height: 0" aria-hidden="true" id="__SVG_SPRITE_NODE__">
<symbol xmlns="http://www.w3.org/2000/svg" viewBox="0 0 48 48" id="start-pomo"><g fill-rule="evenodd"><path fill="none" d="M0 0H48V48H0z"></path><path d="M24,6 C33.9411255,6 42,14.0588745 42,24 C42,33.9411255 33.9411255,42 24,42 C14.0588745,42 6,33.9411255 6,24 C6,14.0588745 14.0588745,6 24,6 Z M24,10 C16.2680135,10 10,16.2680135 10,24 C10,31.7319865 16.2680135,38 24,38 C31.7319865,38 38,31.7319865 38,24 C38,16.2680135 31.7319865,10 24,10 Z M24,16 C28.418278,16 32,19.581722 32,24 C32,28.418278 28.418278,32 24,32 C19.581722,32 16,28.418278 16,24 C16,19.581722 19.581722,16 24,16 Z M24,20 C21.790861,20 20,21.790861 20,24 C20,26.209139 21.790861,28 24,28 C26.209139,28 28,26.209139 28,24 C28,21.790861 26.209139,20 24,20 Z"></path></g></symbol>
</svg>