<svg xmlns="http://www.w3.org/2000/svg" xmlns:xlink="http://www.w3.org/1999/xlink" style="position: absolute; width: 0; height: 0" aria-hidden="true" id="__SVG_SPRITE_NODE__">
<symbol xmlns="http://www.w3.org/2000/svg" viewBox="0 0 36 36" id="statistics_pro"><g fill="none" fill-rule="evenodd"><path d="M0 0H36V36H0z"></path><path d="M18.12,6.75 C19.5117576,6.75 20.64,7.87824243 20.64,9.27 C20.64,9.92829648 20.3875832,10.5276379 19.9742562,10.9765174 L21.6997153,14.9125271 C22.0860211,15.793388 23.0531692,16.2651575 23.9851545,16.0273516 L28.2772126,14.9314743 C28.2267923,14.7326835 28.2,14.5244706 28.2,14.31 C28.2,12.9182424 29.3282424,11.79 30.72,11.79 C32.1117576,11.79 33.24,12.9182424 33.24,14.31 C33.24,15.7017576 32.1117576,16.83 30.72,16.83 C30.5422914,16.83 30.3688791,16.8116053 30.2015632,16.7766161 L27.7722615,28.4271739 C27.6504594,29.0113694 27.135544,29.43 26.5387861,29.43 L9.70092392,29.43 C9.10429705,29.43 8.58945701,29.0115491 8.46751984,28.4275158 L6.03595142,16.7771346 C5.86940386,16.811787 5.69682887,16.83 5.52,16.83 C4.12824243,16.83 3,15.7017576 3,14.31 C3,12.9182424 4.12824243,11.79 5.52,11.79 C6.91175757,11.79 8.04,12.9182424 8.04,14.31 C8.04,14.5244706 8.01320766,14.7326835 7.96278737,14.9314743 L12.2571147,16.0276591 C13.1891543,16.265287 14.1562187,15.7933199 14.5423474,14.9123719 L16.268029,10.9789959 C15.8533474,10.5298452 15.6,9.92950881 15.6,9.27 C15.6,7.87824243 16.7282424,6.75 18.12,6.75 Z" fill="#FFB000"></path></g></symbol>
</svg>