<svg xmlns="http://www.w3.org/2000/svg" xmlns:xlink="http://www.w3.org/1999/xlink" style="position: absolute; width: 0; height: 0" aria-hidden="true" id="__SVG_SPRITE_NODE__">
<symbol xmlns="http://www.w3.org/2000/svg" viewBox="0 0 24 24" id="statistics"><path d="M12.0386,1.500069433C12.0286,1.5000336116,12.0187,1.5000116429,12.0087,1.50000354514L12,1.5C6.20101,1.5,1.5,6.20101,1.5,12C1.5,12.3684,1.5189675,12.7323,1.555979,13.0908C2.101644,18.3772,6.56936,22.5,12,22.5C17.799,22.5,22.5,17.799,22.5,12C22.5,6.21388,17.8198,1.5208716,12.0386,1.500069433ZM3.62259,13.9091Q3.76795,14.5451,4.01227,15.1623Q4.667199999999999,16.8166,5.92531,18.0747Q7.18342,19.3328,8.83773,19.9877Q10.36134,20.5909,12,20.5909Q13.6387,20.5909,15.1623,19.9877Q16.8166,19.3328,18.0747,18.0747Q19.3328,16.8166,19.9877,15.1623Q20.5909,13.6387,20.5909,12Q20.5909,10.36134,19.9877,8.83773Q19.3328,7.18342,18.0747,5.92531Q16.8166,4.667199999999999,15.1623,4.01227Q14.0871,3.58661,12.9545,3.4613300000000002L12.9545,12.9545C12.9545,13.4817,12.5272,13.9091,12,13.9091L3.62259,13.9091ZM11.04545,3.4613300000000002Q9.91294,3.58661,8.83773,4.01227Q7.18342,4.667199999999999,5.92531,5.92531Q4.667199999999999,7.18342,4.01227,8.83773Q3.40909,10.36134,3.40909,12L11.04545,12L11.04545,3.4613300000000002Z" fill-rule="evenodd"></path></symbol>
</svg>