<svg xmlns="http://www.w3.org/2000/svg" xmlns:xlink="http://www.w3.org/1999/xlink" style="position: absolute; width: 0; height: 0" aria-hidden="true" id="__SVG_SPRITE_NODE__">
<symbol xmlns="http://www.w3.org/2000/svg" viewBox="0 0 36 36" id="statistics_pro_warning"><g fill="none" fill-rule="evenodd"><path d="M0 0H36V36H0z"></path><path d="M18,4.5 C25.4558441,4.5 31.5,10.5441559 31.5,18 C31.5,25.4558441 25.4558441,31.5 18,31.5 C10.5441559,31.5 4.5,25.4558441 4.5,18 C4.5,10.5441559 10.5441559,4.5 18,4.5 Z M17.9879032,22.5 C17.4556452,22.5 17.0201613,22.6738411 16.6572581,23.0215232 C16.2943548,23.3692053 16.125,23.8162252 16.125,24.3625828 C16.125,24.9089404 16.2943548,25.3559603 16.6572581,25.7036424 C17.0201613,26.0513245 17.4556452,26.25 17.9879032,26.25 C18.5201613,26.25 18.9556452,26.0761589 19.3185484,25.7284768 C19.6814516,25.3807947 19.875,24.9089404 19.875,24.3625828 C19.875,23.8162252 19.6814516,23.3692053 19.3427419,23.0215232 C18.9798387,22.6738411 18.5201613,22.5 17.9879032,22.5 Z M17,9 L19,9 C19.2761424,9 19.5,9.22385763 19.5,9.5 L19.5,20.5 C19.5,20.7761424 19.2761424,21 19,21 L17,21 C16.7238576,21 16.5,20.7761424 16.5,20.5 L16.5,9.5 C16.5,9.22385763 16.7238576,9 17,9 Z" fill-opacity=".6" fill="#FFB000"></path></g></symbol>
</svg>