<svg xmlns="http://www.w3.org/2000/svg" xmlns:xlink="http://www.w3.org/1999/xlink" style="position: absolute; width: 0; height: 0" aria-hidden="true" id="__SVG_SPRITE_NODE__">
<symbol xmlns="http://www.w3.org/2000/svg" viewBox="0 0 24 24" id="stopwatch-outline"><path d="M7.5,0.5L16.5,0.5C17.052300000000002,0.5,17.5,0.947715,17.5,1.5C17.5,2.05228,17.052300000000002,2.5,16.5,2.5L13,2.5L13,3.54938C18.0533,4.0511,22,8.31465,22,13.5C22,19.0228,17.5228,23.5,12,23.5C6.47715,23.5,2,19.0228,2,13.5C2,8.31465,5.946680000000001,4.0511,11,3.54938L11,2.5L7.5,2.5C6.94772,2.5,6.5,2.05228,6.5,1.5C6.5,0.947715,6.94772,0.5,7.5,0.5ZM20,13.5Q20,11.9741,19.4383,10.5552Q18.8284,9.01472,17.6569,7.84315Q16.485300000000002,6.67157,14.9448,6.06169Q13.5259,5.5,12,5.5Q10.47405,5.5,9.055240000000001,6.06169Q7.51472,6.67157,6.34315,7.84315Q5.17157,9.01472,4.5616900000000005,10.5552Q4,11.9741,4,13.5Q4,15.0259,4.5616900000000005,16.4448Q5.17157,17.9853,6.34315,19.1569Q7.51472,20.3284,9.055240000000001,20.9383Q10.47405,21.5,12,21.5Q13.5259,21.5,14.9448,20.9383Q16.485300000000002,20.3284,17.6569,19.1569Q18.8284,17.9853,19.4383,16.4448Q20,15.0259,20,13.5ZM15,13.5042Q15,13.1034,14.8948,12.7167Q14.7896,12.3301,14.5867,11.9846L16.1599,10.41136Q16.2295,10.34172,16.2842,10.25982Q16.338900000000002,10.17793,16.3766,10.08694Q16.4143,9.99594,16.433500000000002,9.89934Q16.4528,9.80274,16.4528,9.70425Q16.4528,9.60576,16.433500000000002,9.50916Q16.4143,9.41256,16.3766,9.32157Q16.338900000000002,9.23057,16.2842,9.14868Q16.2295,9.06679,16.1599,8.99715Q16.019199999999998,8.85649,15.8354,8.78037Q15.6517,8.70425,15.4528,8.70425Q15.2538,8.70425,15.0701,8.78037Q14.8863,8.85649,14.7457,8.99715L13.0492,10.6936Q12.5417,10.5042,12,10.5042Q11.85262,10.5042,11.70595,10.5186Q11.55928,10.533,11.41473,10.5618Q11.27018,10.5905,11.12915,10.6333Q10.98811,10.6761,10.85195,10.7325Q10.71579,10.7889,10.58581,10.8584Q10.45583,10.9279,10.33329,11.0097Q10.21075,11.0916,10.09682,11.1851Q9.982890000000001,11.2786,9.87868,11.3828Q9.77447,11.487,9.68097,11.601Q9.58747,11.7149,9.50559,11.8374Q9.42371,11.96,9.35424,12.09Q9.28476,12.2199,9.22836,12.3561Q9.17196,12.4923,9.12918,12.6333Q9.086400000000001,12.7743,9.05764,12.9189Q9.02889,13.0634,9.01445,13.2101Q9,13.3568,9,13.5042Q9,13.6515,9.01445,13.7982Q9.02889,13.9449,9.05764,14.0894Q9.086400000000001,14.234,9.12918,14.375Q9.17196,14.516,9.22836,14.6522Q9.28476,14.7884,9.35424,14.9183Q9.42371,15.0483,9.50559,15.1709Q9.58747,15.2934,9.68097,15.4073Q9.77447,15.5213,9.87868,15.6255Q9.982890000000001,15.7297,10.09682,15.8232Q10.21075,15.9167,10.33329,15.9986Q10.45583,16.080399999999997,10.58581,16.149900000000002Q10.71579,16.2194,10.85195,16.2758Q10.98811,16.3322,11.12915,16.375Q11.27018,16.4178,11.41473,16.4465Q11.55928,16.4753,11.70595,16.4897Q11.85262,16.5042,12,16.5042Q12.1474,16.5042,12.2941,16.4897Q12.4407,16.4753,12.5853,16.4465Q12.7298,16.4178,12.8709,16.375Q13.0119,16.3322,13.148,16.2758Q13.2842,16.2194,13.4142,16.149900000000002Q13.5442,16.080399999999997,13.6667,15.9986Q13.7893,15.9167,13.9032,15.8232Q14.0171,15.7297,14.1213,15.6255Q14.2255,15.5213,14.319,15.4073Q14.4125,15.2934,14.4944,15.1709Q14.5763,15.0483,14.6458,14.9183Q14.7152,14.7884,14.7716,14.6522Q14.828,14.516,14.8708,14.375Q14.9136,14.234,14.9424,14.0894Q14.9711,13.9449,14.9856,13.7982Q15,13.6515,15,13.5042Z" fill-rule="evenodd"></path></symbol>
<symbol xmlns="http://www.w3.org/2000/svg" viewBox="0 0 36 36" id="stopwatch"><path d="M23.25,3.75 C23.6642136,3.75 24,4.08578644 24,4.5 L24,6 C24,6.41421356 23.6642136,6.75 23.25,6.75 L19.4985,6.75 L19.4999269,7.59283152 C25.4194297,8.3309462 30,13.3805483 30,19.5 C30,26.127417 24.627417,31.5 18,31.5 C11.372583,31.5 6,26.127417 6,19.5 C6,13.3810672 10.5797936,8.33180251 16.4985674,7.59301936 L16.4985,6.75 L12.75,6.75 C12.3357864,6.75 12,6.41421356 12,6 L12,4.5 C12,4.08578644 12.3357864,3.75 12.75,3.75 L23.25,3.75 Z M21.8161824,13.5795859 L21.7123106,13.6663691 L18.1225496,17.2532807 L18,17.25 L18,17.25 C16.7573593,17.25 15.75,18.2573593 15.75,19.5 C15.75,20.7426407 16.7573593,21.75 18,21.75 C19.2426407,21.75 20.25,20.7426407 20.25,19.5 L20.244,19.3755 L23.8336309,15.7876894 C24.0939805,15.5273399 24.1229082,15.1232033 23.9204141,14.8309011 L23.8336309,14.7270292 L22.7729708,13.6663691 C22.5451649,13.4385632 22.2072721,13.3879397 21.9305387,13.5144985 L21.8161824,13.5795859 Z" fill-rule="evenodd"></path></symbol>
</svg>