<svg xmlns="http://www.w3.org/2000/svg" xmlns:xlink="http://www.w3.org/1999/xlink" style="position: absolute; width: 0; height: 0" aria-hidden="true" id="__SVG_SPRITE_NODE__">
<symbol xmlns="http://www.w3.org/2000/svg" viewBox="0 0 24 24" id="subcalendar-list-url-only"><g fill-rule="evenodd"><path d="M11.664166464843749,12.335489375Q9.928286464843751,10.599609375,7.47337646484375,10.599609375C7.08677746484375,10.599609375,6.77337646484375,10.913010375,6.77337646484375,11.299609375C6.77337646484375,11.686209375,7.08677746484375,11.999609375,7.47337646484375,11.999609375Q9.348386464843749,11.999609375,10.67421646484375,13.325439375Q12.00004646484375,14.651269375,12.00004646484375,16.526279375C12.00004646484375,16.912879375,12.31344646484375,17.226279375,12.70004646484375,17.226279375C13.08664646484375,17.226279375,13.40004646484375,16.912879375,13.40004646484375,16.526279375Q13.40004646484375,14.071369375,11.664166464843749,12.335489375Z"></path><path d="M13.26572646484375,17.091959375000002Q13.50004646484375,16.857649375,13.50004646484375,16.526279375Q13.50002646484375,14.029949375000001,11.734876464843751,12.264779375Q9.96970646484375,10.499610875,7.47337646484375,10.499609375Q7.14200546484375,10.499609375,6.90769146484375,10.733924375Q6.67337646484375,10.968238375,6.67337646484375,11.299609375Q6.67337646484375,11.630979374999999,6.90769146484375,11.865299375Q7.14200546484375,12.099609375,7.47337646484375,12.099609375Q9.30695646484375,12.099609375,10.60350646484375,13.396149375Q11.900036464843751,14.692689375,11.90004646484375,16.526279375Q11.90004646484375,16.857649375,12.13435646484375,17.091959375000002Q12.36867646484375,17.326279375,12.70004646484375,17.326279375Q13.031416464843751,17.326279375,13.26572646484375,17.091959375000002ZM11.59345646484375,12.406199375Q13.30004646484375,14.112789375,13.30004646484375,16.526279375Q13.30004646484375,16.774799375,13.12430646484375,16.950539374999998Q12.94856646484375,17.126279375,12.70004646484375,17.126279375Q12.451516464843749,17.126279375,12.27577646484375,16.950539374999998Q12.10004646484375,16.774799375,12.10004646484375,16.526279375Q12.10004646484375,14.609839375,10.74492646484375,13.254729375Q9.38979646484375,11.899609375,7.47337646484375,11.899609375Q7.22484846484375,11.899609375,7.04911246484375,11.723869375Q6.87337646484375,11.548137375,6.87337646484375,11.299609375Q6.87337636484375,11.051081375,7.04911246484375,10.875345375Q7.22484846484375,10.699609375,7.47337646484375,10.699609375Q9.88686646484375,10.699607875,11.59345646484375,12.406199375Z"></path></g><g fill-rule="evenodd"><path d="M11.670453505859374,6.40082934375Q9.599533505859375,5.52490234375,7.333343505859375,5.52490234375C6.850094505859375,5.52490234375,6.458343505859375,5.91665334375,6.458343505859375,6.39990234375C6.458343505859375,6.88315234375,6.850094505859375,7.27490234375,7.333343505859375,7.27490234375Q11.223503505859375,7.27490234375,13.974253505859375,10.02566234375Q16.725043505859375,12.77641234375,16.725043505859375,16.66660234375C16.725043505859375,17.14980234375,17.116743505859375,17.54160234375,17.600043505859375,17.54160234375C18.083243505859375,17.54160234375,18.475043505859375,17.14980234375,18.475043505859375,16.66660234375Q18.475043505859375,14.40038234375,17.599043505859377,12.32946234375Q16.753343505859377,10.32984234375,15.211693505859374,8.78822234375Q13.670063505859375,7.24659234375,11.670453505859374,6.40082934375Z"></path><path d="M17.691143505859372,12.29050234375Q16.837843505859375,10.27293234375,15.282403505859374,8.71751234375Q13.726963505859375,7.16208234375,11.709403505859374,6.30872834375Q9.619803505859375,5.42490234375,7.333343505859375,5.42490234375Q6.929485505859375,5.42490234375,6.643914505859375,5.71047334375Q6.358343505859375,5.99604434375,6.358343505859375,6.39990234375Q6.358343505859375,6.80376234375,6.643914505859375,7.08933234375Q6.929485505859375,7.37490234375,7.333343505859375,7.37490234375Q11.182083505859374,7.37490234375,13.903543505859375,10.09637234375Q16.625043505859374,12.817822343749999,16.625043505859374,16.66660234375Q16.625043505859374,17.07040234375,16.910543505859373,17.35600234375Q17.196143505859375,17.64160234375,17.600043505859375,17.64160234375Q18.003843505859376,17.64160234375,18.289443505859374,17.35600234375Q18.575043505859377,17.07040234375,18.575043505859377,16.66660234375Q18.575043505859377,14.38014234375,17.691143505859372,12.29050234375ZM11.631493505859375,6.49292934375Q13.613113505859374,7.3310823437499995,15.140983505859374,8.85893234375Q16.668843505859375,10.38676234375,17.506943505859375,12.36841234375Q18.375043505859374,14.42068234375,18.375043505859374,16.66660234375Q18.375043505859374,16.987602343749998,18.148043505859377,17.214602343750002Q17.921043505859373,17.44160234375,17.600043505859375,17.44160234375Q17.279043505859377,17.44160234375,17.052043505859373,17.214602343750002Q16.825043505859377,16.987602343749998,16.825043505859377,16.66660234375Q16.824943505859373,12.73500234375,14.044963505859375,9.95494234375Q11.264923505859375,7.17490234375,7.333343505859375,7.17490234375Q7.012328505859375,7.17490234375,6.785335505859375,6.94791234375Q6.558343505859375,6.72092234375,6.558343405859375,6.39990234375Q6.558343405859375,6.07888634375,6.785335505859375,5.85189434375Q7.012327505859375,5.62490234375,7.333343505859375,5.62490234375Q9.579243505859374,5.62490084375,11.631493505859375,6.49292934375Z"></path></g><circle cx="7.917" cy="16.083" r="1.167"></circle><path d="M22.35,18.5L22.35,5.5Q22.35,3.9052800000000003,21.2224,2.777639Q20.0947,1.65,18.5,1.65L5.5,1.65Q3.9052800000000003,1.65,2.777639,2.777639Q1.65,3.9052800000000003,1.65,5.5L1.65,18.5Q1.65,20.0947,2.777639,21.2224Q3.9052800000000003,22.35,5.5,22.35L18.5,22.35Q20.0947,22.35,21.2224,21.2224Q22.35,20.0947,22.35,18.5ZM20.65,10L20.65,18.5Q20.65,19.3906,20.0203,20.0203Q19.3906,20.65,18.5,20.65L5.5,20.65Q4.60944,20.65,3.97972,20.0203Q3.35,19.3906,3.35,18.5L3.35,5.5Q3.35,4.60944,3.97972,3.97972Q4.60944,3.35,5.5,3.35L18.5,3.35Q19.3906,3.35,20.0203,3.97972Q20.65,4.60944,20.65,5.5L20.65,10Z" fill-rule="evenodd"></path></symbol>
<symbol xmlns="http://www.w3.org/2000/svg" viewBox="0 0 24 24" id="subcalendar"><path d="M6.5,2.5L6.5,3.5L3.98021,3.5C2.5994900000000003,3.5,1.5,4.61304,1.5,5.99375L1.50000227397,20.0062C1.50000218878,21.3869,2.59992,22.5,3.98063,22.5C9.32688,22.5,14.6731,22.5,20.0194,22.5C21.4001,22.5,22.5,21.3869,22.5,20.0062C22.5,16.7367,22.5,13.4671,22.5,10.19749L22.5,5.99375C22.5,4.61303,21.3827,3.5,20.002,3.5L17.5,3.5L17.5,2.5Q17.5,2.401509,17.480800000000002,2.30491Q17.4616,2.208311,17.4239,2.1173159999999998Q17.386200000000002,2.026322,17.3315,1.94443Q17.276699999999998,1.862537,17.2071,1.792893Q17.1375,1.723249,17.0556,1.66853Q16.9737,1.613811,16.8827,1.5761205Q16.7917,1.5384294,16.6951,1.5192147Q16.5985,1.5,16.5,1.5Q16.4015,1.5,16.3049,1.5192147Q16.2083,1.5384294,16.1173,1.5761205Q16.0263,1.613811,15.9444,1.66853Q15.8625,1.723249,15.7929,1.792893Q15.7232,1.862537,15.6685,1.94443Q15.6138,2.026322,15.5761,2.1173159999999998Q15.5384,2.208311,15.5192,2.30491Q15.5,2.401509,15.5,2.5L15.5,3.5L8.5,3.5L8.5,2.5Q8.5,2.401509,8.48078,2.30491Q8.46157,2.208311,8.42388,2.1173159999999998Q8.38619,2.026322,8.33147,1.94443Q8.27675,1.862537,8.20711,1.792893Q8.13746,1.723249,8.05557,1.66853Q7.97368,1.613811,7.88268,1.5761205Q7.79169,1.5384294,7.69509,1.5192147Q7.59849,1.5,7.5,1.5Q7.40151,1.5,7.30491,1.5192147Q7.20831,1.5384294,7.11732,1.5761205Q7.02632,1.613811,6.94443,1.66853Q6.86254,1.723249,6.79289,1.792893Q6.72325,1.862537,6.66853,1.94443Q6.61381,2.026322,6.57612,2.1173159999999998Q6.53843,2.208311,6.51921,2.30491Q6.5,2.401509,6.5,2.5ZM3.64192,20.3618Q3.5,20.2189,3.5,20.0062L3.5,13L3.5,5.99375Q3.5,5.78092,3.64187,5.63798Q3.77881,5.5,3.98021,5.5L20.002,5.5Q20.2109,5.5,20.3562,5.64498Q20.5,5.78842,20.5,5.99374L20.5,13.2122L20.5,20.0062Q20.5,20.2189,20.3581,20.3618Q20.2209,20.5,20.0194,20.5L12,20.5L3.98063,20.5Q3.77907,20.5,3.64192,20.3618Z" fill-rule="evenodd"></path><path d="M12.574558671875,13.68567Q13.226508671875,13.68567,13.686838671875,13.23228L14.867558671874999,12.06934Q15.325928671875,11.61787,15.325928671875,10.98037Q15.325938671875,10.342880000000001,14.867558671874999,9.8914Q14.407228671875,9.43801,13.755268671875001,9.43801Q13.103318671875,9.43801,12.642988671874999,9.8914L11.936518671875,10.58723Q11.724368671875,10.79618,11.425308671875001,10.79618Q11.126258671875,10.79618,10.914118671875,10.58723Q10.700018671875,10.37637,10.700018671875,10.07717Q10.700018671875,9.77798,10.914118671875,9.56712L11.620588671875,8.871286Q12.505198671875,7.999999874517,13.755268671875001,8Q15.005348671875,8.000000627417,15.889958671875,8.871285Q16.776518671875,9.74449,16.776518671875,10.98037Q16.776518671875,12.216239999999999,15.889958671875,13.089459999999999L14.709238671875,14.25239Q13.824638671875,15.12367,12.574558671875,15.12368Q11.324478671875,15.12367,10.439868671875,14.25239L10.435518671875,14.2481L10.431428671875,14.243739999999999Q10.200798671874999,13.99794,10.239338671875,13.69087Q10.272028671874999,13.43033,10.484528671875001,13.24211Q10.684148671875,13.0653,10.938018671875,13.04403Q11.245028671875,13.01831,11.462268671875,13.23228Q11.922598671875,13.68567,12.574558671875,13.68567ZM11.425348671875,12.31433Q10.773388671875,12.31433,10.313068671875,12.76772L9.132348671875,13.93066Q8.673968671875,14.38213,8.673968671875,15.01963Q8.673968671875,15.65713,9.132348671875,16.1086Q9.592678671875,16.561999999999998,10.244628671875,16.56199Q10.896588671875,16.56198,11.356918671875,16.1086L12.063388671875,15.41277Q12.275528671875,15.20382,12.574588671875,15.20382Q12.873648671875,15.20382,13.085788671875001,15.41277Q13.299878671875,15.62363,13.299878671875,15.922830000000001Q13.299878671875,16.22202,13.085788671875001,16.43288L12.379318671875,17.128709999999998Q11.494688671875,17.99999,10.244638671875,18Q8.994568671875,17.99999,8.109951671875,17.12872Q7.223389173809,16.25552,7.223388671875,15.01963Q7.223389424776,13.783760000000001,8.109946671875,12.910540000000001L9.290668671875,11.74761Q10.175268671875,10.87633,11.425348671875,10.87632Q12.675418671875,10.87633,13.560038671874999,11.74761L13.564368671875,11.75188L13.568548671875,11.75633Q13.799108671875,12.00206,13.760568671875,12.30913Q13.727878671875,12.56967,13.515378671875,12.75789Q13.315758671874999,12.9347,13.061888671875,12.95597Q12.754878671875,12.9817,12.537638671875001,12.76772Q12.077308671874999,12.31433,11.425348671875,12.31433Z" fill-rule="evenodd"></path></symbol>
</svg>