<svg xmlns="http://www.w3.org/2000/svg" xmlns:xlink="http://www.w3.org/1999/xlink" style="position: absolute; width: 0; height: 0" aria-hidden="true" id="__SVG_SPRITE_NODE__">
<symbol xmlns="http://www.w3.org/2000/svg" viewBox="0 0 24 24" id="switch-mode"><path clip-rule="evenodd" fill="none" d="M0 0H24V24H0z"></path><path d="M19.4,8.5l0,1L5,9.5C4.6,9.5,4.3,9,4.6,8.6l3-3l0.7,0.7L6.2,8.5L19.4,8.5z M5,15.5l0-1l14.4,0 c0.4,0,0.7,0.5,0.4,0.9l-3,3l-0.7-0.7l2.1-2.1L5,15.5z"></path></symbol>
<symbol xmlns="http://www.w3.org/2000/svg" viewBox="0 0 18 18" id="switch-range"><path d="M4.610645273895264,13.655232L1.0431112738952637,16.39193C0.8853012738952637,16.51302,0.7820567738952636,16.69239,0.7560932038952637,16.88961C0.7301295738952637,17.08682,0.7835917738952637,17.28661,0.9046832738952637,17.44442C1.1568432738952636,17.77304,1.6277282738952636,17.835,1.9563452738952636,17.58284L5.068225273895264,15.194420000000001L8.183125273895264,17.58504C8.511745273895263,17.8372,8.982365273895264,17.77523,9.234515273895264,17.44661C9.486675273895264,17.118,9.424705273895263,16.64628,9.096085273895264,16.39412L5.527735273895264,13.656331C5.463485273895263,13.607034,5.391715273895263,13.5684121,5.315145273895264,13.5420728C5.076325273895264,13.4584365,4.811395273895264,13.50118882,4.610645273895264,13.655232ZM3.569785273895264,21.72762C3.569785273895264,22.55605,4.241355273895264,23.22762,5.069785273895263,23.22762C5.898215273895263,23.22762,6.569785273895263,22.55605,6.569785273895263,21.72762C6.569785273895263,20.89919,5.898215273895263,20.22762,5.069785273895263,20.22762C4.241355273895264,20.22762,3.569785273895264,20.89919,3.569785273895264,21.72762ZM4.610645273895264,29.8051L1.0431112738952637,27.0684C0.8853012738952637,26.9473,0.7820567738952636,26.768,0.7560932038952637,26.5708C0.7301295738952637,26.3735,0.7835917738952637,26.1738,0.9046832738952637,26.016C1.1568432738952636,25.6873,1.6277282738952636,25.6254,1.9563452738952636,25.877499999999998L5.068225273895264,28.266L8.183125273895264,25.8753C8.511745273895263,25.6232,8.982365273895264,25.6851,9.234515273895264,26.0138C9.486675273895264,26.342399999999998,9.424705273895263,26.8141,9.096085273895264,27.066200000000002L5.527735273895264,29.804C5.463485273895263,29.8533,5.391715273895263,29.892,5.315145273895264,29.9183C5.076325273895264,30.0019,4.811395273895264,29.9592,4.610645273895264,29.8051Z" fill-rule="evenodd" transform="rotate(-90 .75 13.5)"></path></symbol>
<symbol xmlns="http://www.w3.org/2000/svg" viewBox="0 0 14 14" id="switch"><g style="mix-blend-mode:passthrough"><path d="M10.35534625,4.965118168945312L8.99770625,3.6074681689453123C8.74776625,3.3575328689453126,8.34254625,3.3575328689453126,8.09260625,3.6074681689453123C7.84267625,3.8574041689453127,7.84267625,4.262629168945312,8.09260625,4.512568168945313L8.654966250000001,5.074918168945312L3.80015625,5.074918168945312C3.44669425,5.074918168945312,3.16015625,5.361458168945313,3.16015625,5.714918168945312C3.16015625,6.068378168945312,3.44669425,6.3549181689453125,3.80015625,6.3549181689453125L10.20015625,6.3549181689453125C10.553616250000001,6.3549181689453125,10.84015625,6.068378168945312,10.84015625,5.714918168945312C10.84015625,5.391238168945312,10.56349625,5.173268168945313,10.35534625,4.965118168945312ZM3.6446502499999998,9.024728168945312L5.0022962500000006,10.382368168945312C5.25222625,10.632308168945313,5.65745625,10.632308168945313,5.90739625,10.382368168945312C6.157326250000001,10.132438168945313,6.157326250000001,9.727208168945314,5.90739625,9.477268168945312L5.34503625,8.914918168945313L10.19984625,8.914918168945313C10.55330625,8.914918168945313,10.83984625,8.628378168945313,10.83984625,8.274918168945312C10.83984625,7.921458168945312,10.55330625,7.634918168945313,10.19984625,7.634918168945313L3.79984325,7.634918168945313C3.44638125,7.634918168945313,3.159843445,7.921458168945312,3.159843445,8.274918168945312C3.159843445,8.598598168945312,3.43650025,8.816578168945313,3.6446502499999998,9.024728168945312Z" fill-rule="evenodd"></path></g></symbol>
</svg>