<svg xmlns="http://www.w3.org/2000/svg" xmlns:xlink="http://www.w3.org/1999/xlink" style="position: absolute; width: 0; height: 0" aria-hidden="true" id="__SVG_SPRITE_NODE__">
<symbol xmlns="http://www.w3.org/2000/svg" viewBox="0 0 30 30" id="symbols"><g fill-rule="evenodd"><circle cx="15" cy="15" r="15" fill="none"></circle><path d="M14.2999999,22.9819998 L15.5333333,22.9819998 L14.2176666,21.5889998 C14.6162725,20.8856811 14.8051609,20.0829342 14.7619999,19.2756665 L14.7619999,18.9873332 L13.8889999,18.9873332 L13.8889999,19.2459999 C13.9148498,19.8233555 13.8013175,20.3984487 13.558,20.9226665 L12.1303333,19.2716665 C12.8803333,18.8689999 13.5326666,18.3866665 13.5326666,17.5409999 C13.5326666,16.6013332 12.7483333,15.9676666 11.7923333,15.9676666 C10.7773333,15.9676666 10.052,16.6756666 10.052,17.5343332 C10.052,18.1509999 10.4343333,18.6183332 10.8756666,19.0906665 C10.7826666,19.1353332 10.6943333,19.1799999 10.611,19.2299999 C9.86666666,19.6496665 9.326,20.1926665 9.326,21.0769999 C9.326,22.2653332 10.3016667,23.0329998 11.586,23.0329998 C12.342312,23.023044 13.0694952,22.7398427 13.6333333,22.2356665 L14.2999999,22.9819998 Z M11.1646666,19.7839999 C11.2333333,19.7443332 11.302,19.7093332 11.3753333,19.6746665 L13.062,21.5673332 C12.6769746,21.9298509 12.1616441,22.121146 11.6333333,22.0976665 C10.9076666,22.0976665 10.2726664,21.7929998 10.2726664,21.0023332 C10.2723333,20.4259999 10.635,20.0723332 11.1646666,19.7839999 Z M11.6313333,18.7346665 C11.1166666,18.2226665 10.95,17.9346666 10.95,17.5909999 C10.9338948,17.2775499 11.0916296,16.9806811 11.3604009,16.818594 C11.6291723,16.656507 11.9653425,16.6555183 12.2350626,16.8160215 C12.5047828,16.9765247 12.6642611,17.2724606 12.65,17.5859999 C12.65,18.1329999 12.2236666,18.4313332 11.6303333,18.7346665 L11.6313333,18.7346665 Z M18.1183332,23.0223332 L20.5083332,19.5106665 L23.2333332,15.9859999 L22.0533332,15.9859999 L19.5896666,19.3926665 L16.9036666,23.0536665 L18.1183332,23.0223332 Z M19.6849999,7 L19.6606666,12.0359999 C19.6606666,12.0359999 18.7206666,11.8066666 18.0683332,12.1693333 C17.0286666,12.7489999 17.0349999,13.5716666 17.2646666,14.2093333 C17.6666666,15.3259999 20.6886665,14.7869999 20.6886665,12.6336666 L20.6886665,8.32599999 C20.6886665,8.32599999 22.1403332,9.06266664 22.2393332,10.441 C22.3166665,11.515 21.2796665,12.1809999 21.7086665,12.5946666 C21.7086665,12.5946666 22.9293332,11.4693333 22.9516665,10.3926666 C22.9999999,7.98799999 21.2779999,7 19.6856666,7 L19.6849999,7 Z M12,10.1593333 L13,10.1593333 L13,14.6593333 L12,14.6593333 L12,10.1593333 Z M9,9.65933331 L16,9.65933331 L16,10.6593333 L9,10.6613333 L9,9.65933331 Z M9,7.65933333 L16,7.65933333 L16,8.65933333 L9,8.65933333 L9,7.65933333 Z M21.4063332,21.2126665 C21.4063332,20.6703332 21.6103332,20.2703332 22.0273332,20.2703332 C22.4273332,20.2703332 22.6396665,20.6479999 22.6396665,21.2216665 L22.6396665,21.2616665 C22.6396665,21.8396665 22.4093332,22.2173332 22.0229999,22.2173332 C21.6276665,22.2173332 21.4063332,21.8306665 21.4063332,21.2526665 L21.4063332,21.2126665 Z M20.6349999,21.3039998 C20.6349999,22.2473332 21.1349999,22.9949998 22.0126665,22.9949998 C22.9049999,22.9949998 23.4099998,22.2223332 23.4099998,21.3139998 L23.4099998,21.1736665 C23.4099998,20.2353332 22.8953332,19.4979999 22.0223332,19.4979999 C21.1493332,19.4979999 20.6349999,20.2456665 20.6349999,21.1646665 L20.6349999,21.3049998 L20.6349999,21.3039998 Z M17.4093332,17.7039999 C17.4093332,17.1643332 17.6126666,16.7659999 18.0276666,16.7659999 C18.4253332,16.7659999 18.6373332,17.1419999 18.6373332,17.7126666 L18.6373332,17.7523332 C18.6373332,18.3276665 18.4083332,18.7036665 18.0233332,18.7036665 C17.6299999,18.7036665 17.4093332,18.3186665 17.4093332,17.7436666 L17.4093332,17.7056666 L17.4093332,17.7039999 Z M16.6349999,17.7946666 C16.6349999,18.7379999 17.1349999,19.4856665 18.0126666,19.4856665 C18.9049999,19.4856665 19.4099999,18.7129999 19.4099999,17.8046666 L19.4099999,17.6656666 C19.4099999,16.7273332 18.8953332,15.9899999 18.0223332,15.9899999 C17.1493332,15.9899999 16.6349999,16.7376666 16.6349999,17.6566666 L16.6349999,17.7969999 L16.6349999,17.7946666 Z" fill-rule="nonzero"></path></g></symbol>
</svg>