<svg xmlns="http://www.w3.org/2000/svg" xmlns:xlink="http://www.w3.org/1999/xlink" style="position: absolute; width: 0; height: 0" aria-hidden="true" id="__SVG_SPRITE_NODE__">
<symbol xmlns="http://www.w3.org/2000/svg" viewBox="0 0 24 24" id="sync-sidebar"><path d="M38.369,21.44390005722046L41.2528,22.27080005722046Q41.3475,22.29790005722046,41.4456,22.30610005722046Q41.5438,22.314200057220457,41.6416,22.30310005722046Q41.7395,22.29190005722046,41.8333,22.26190005722046Q41.927099999999996,22.231900057220457,42.0132,22.18410005722046Q42.0994,22.13640005722046,42.1746,22.07270005722046Q42.249700000000004,22.009100057220458,42.311,21.93200005722046Q42.3724,21.85490005722046,42.417500000000004,21.76740005722046Q42.462599999999995,21.679800057220458,42.4897,21.585200057220458Q42.5445,21.39390005722046,42.522,21.19630005722046Q42.4995,20.99870005722046,42.403099999999995,20.824700057220458Q42.3066,20.650700057220458,42.150999999999996,20.52690005722046Q41.9953,20.40310005722046,41.8041,20.34830005722046L41.2645,20.193500057220458Q41.430099999999996,20.09080005722046,41.5918,19.981600057220458Q42.3895,19.44270005722046,43.0711,18.76110005722046Q44.4546,17.37750005722046,45.2137,15.582800057220458Q46,13.723800057220458,46,11.690000057220459Q46,9.656170057220459,45.2137,7.797240057220459Q44.4546,6.002480057220459,43.0711,4.618930057220458Q41.6875,3.2353800572204587,39.8928,2.476261057220459Q38.0338,1.690000057220459,36,1.690000057220459C35.44771,1.690000057220459,35,2.1377160572204588,35,2.690000057220459C35,3.242280057220459,35.44771,3.690000057220459,36,3.690000057220459Q39.3137,3.690000057220459,41.6569,6.033150057220459Q44,8.376290057220459,44,11.690000057220459Q44,15.00370005722046,41.6569,17.34690005722046Q41.1109,17.89280005722046,40.4722,18.32430005722046Q40.3694,18.39370005722046,40.2647,18.45990005722046L40.4326,17.87440005722046Q40.4874,17.68320005722046,40.4649,17.48550005722046Q40.4424,17.287900057220458,40.346000000000004,17.11390005722046Q40.2495,16.94000005722046,40.0938,16.81610005722046Q39.9382,16.692300057220457,39.747,16.637500057220457Q39.5558,16.582700057220457,39.3581,16.605200057220458Q39.1605,16.62770005722046,38.9865,16.72410005722046Q38.8126,16.82060005722046,38.6887,16.97620005722046Q38.5649,17.13190005722046,38.5101,17.323100057220458L37.6832,20.20690005722046Q37.656,20.30160005722046,37.6479,20.39970005722046Q37.6397,20.49790005722046,37.650800000000004,20.59570005722046Q37.662,20.693600057220458,37.692,20.78740005722046Q37.7221,20.881200057220457,37.769800000000004,20.96730005722046Q37.8175,21.053500057220457,37.8812,21.12870005722046Q37.9448,21.20380005722046,38.0219,21.265100057220458Q38.099000000000004,21.32650005722046,38.1865,21.37160005722046Q38.274100000000004,21.41660005722046,38.3688,21.443800057220457L38.369,21.44390005722046ZM33.61616,2.551398057220459L30.7474,1.728793157220459Q30.652720000000002,1.701645257220459,30.55457,1.693489377220459Q30.456409999999998,1.685333487220459,30.35856,1.696483047220459Q30.2607,1.707632557220459,30.166890000000002,1.737659157220459Q30.07309,1.767685657220459,29.98695,1.815435057220459Q29.90081,1.863185057220459,29.82564,1.926822057220459Q29.75046,1.990460057220459,29.68915,2.0675400572204587Q29.62784,2.1446200572204592,29.58274,2.2321810572204592Q29.53765,2.319741057220459,29.5105,2.414417057220459Q29.45567,2.605624057220459,29.47819,2.803260057220459Q29.50071,3.000890057220459,29.59714,3.1748600572204593Q29.69358,3.348840057220459,29.84925,3.472660057220459Q30.00492,3.596490057220459,30.19612,3.6513200572204587L30.73537,3.805940057220459Q30.56986,3.908610057220459,30.40821,4.017820057220459Q29.61053,4.556720057220459,28.92893,5.238310057220459Q27.54538,6.621870057220459,26.78626,8.41662005722046Q26,10.275550057220459,26,12.30940005722046Q26,14.343200057220459,26.78626,16.20210005722046Q27.54538,17.996900057220458,28.92893,19.38050005722046Q30.31249,20.76400005722046,32.10724,21.52310005722046Q33.96617,22.309400057220458,36,22.309400057220458C36.5523,22.309400057220458,37,21.86170005722046,37,21.309400057220458C37,20.75710005722046,36.5523,20.309400057220458,36,20.309400057220458Q32.68629,20.309400057220458,30.34315,17.96620005722046Q28,15.623100057220459,28,12.30940005722046Q28,8.995680057220458,30.34315,6.652530057220459Q30.8891,6.106570057220459,31.52782,5.675070057220459Q31.630589999999998,5.605640057220459,31.73529,5.539520057220459L31.56741,6.125000057220459Q31.54026,6.219670057220459,31.5321,6.317830057220459Q31.52395,6.415980057220459,31.5351,6.513840057220459Q31.54624,6.611700057220459,31.57627,6.705500057220459Q31.6063,6.799300057220459,31.654049999999998,6.885440057220459Q31.7018,6.9715900572204585,31.765430000000002,7.046760057220459Q31.82907,7.121930057220459,31.90615,7.183240057220459Q31.98323,7.244550057220459,32.07079,7.289650057220459Q32.15835,7.334750057220459,32.25303,7.361900057220459Q32.44424,7.416720057220459,32.64187,7.394210057220459Q32.8395,7.371690057220459,33.01348,7.275250057220459Q33.18745,7.178820057220459,33.31128,7.023150057220459Q33.4351,6.867480057220459,33.48993,6.676270057220459L34.31684,3.792490057220459L34.31719,3.791280057220459L34.31925,3.783950057220459Q34.3454,3.6895700572204593,34.35276,3.591920057220459Q34.36011,3.494260057220459,34.34838,3.397040057220459Q34.33664,3.299810057220459,34.30627,3.2067100572204588Q34.2759,3.113610057220459,34.22804,3.0281600572204592Q34.18018,2.942720057220459,34.116659999999996,2.868190057220459Q34.053129999999996,2.793660057220459,33.97636,2.732860057220459Q33.89958,2.672069057220459,33.81247,2.627325057220459Q33.72535,2.582581057220459,33.63122,2.555587057220459Q33.62371,2.553434057220459,33.61616,2.551398057220459Z" fill-rule="evenodd" transform="rotate(90 24 0)"></path></symbol>
</svg>