<svg xmlns="http://www.w3.org/2000/svg" xmlns:xlink="http://www.w3.org/1999/xlink" style="position: absolute; width: 0; height: 0" aria-hidden="true" id="__SVG_SPRITE_NODE__">
<symbol xmlns="http://www.w3.org/2000/svg" fill="none" viewBox="0 0 16 16" id="tags"><rect width="16" height="16" rx="0" fill="none"></rect><path d="M2.4448440234375,2.226788046875L6.1236340234375,2.431158046875C6.6322640234375,2.459418046875,7.0666940234375,2.653658046875,7.4269040234375,3.013868046875L13.2195740234375,8.806518046875C13.7402740234375,9.327228046875,14.0006740234375,9.955778046875,14.0006740234375,10.692148046875C14.0006740234375,11.428548046875,13.7402740234375,12.057048046875,13.2195740234375,12.577748046875L10.6879740234375,15.109348046875C10.1672640234375,15.630048046875,9.5387340234375,15.890448046875,8.8023740234375,15.890448046875C8.0659740234375,15.890448046875,7.4374340234375,15.630048046875,6.9167440234375,15.109348046875L1.1240670234375,9.316718046875C0.7638530234375001,8.956498046875,0.5696170234375,8.522068046875,0.5413590234375,8.013448046875L0.3369820834375,4.334648046875C0.3039139234375,3.739418046875,0.49815002343750003,3.231038046875,0.9196890234375,2.809498046875C1.3412340234375,2.387958046875,1.8496140234375,2.193718046875,2.4448440234375,2.226788046875ZM2.3708840234375,3.558068046875C2.1724740234375,3.547048046875,2.0030140234375002,3.611788046875,1.8625040234375,3.752298046875C1.7219840234375,3.892818046875,1.6572340234375,4.062278046875,1.6682640234375,4.260688046875L1.8726440234375,7.939448046875C1.8820540234375,8.109008046875001,1.9468040234375,8.253828046875,2.0668740234375003,8.373918046875L7.8595740234375,14.166548046875C8.1198840234375,14.426948046875,8.4341540234375,14.557148046875,8.8023740234375,14.557148046875C9.1705540234375,14.557148046875,9.4848240234375,14.426948046875,9.7451740234375,14.166548046875L12.2767740234375,11.634948046875C12.5371740234375,11.374648046875,12.6672740234375,11.060348046875,12.6672740234375,10.692148046875C12.6672740234375,10.323948046875,12.5371740234375,10.009698046875,12.2767740234375,9.749378046875L6.4840940234375,3.956678046875C6.3640240234375,3.836608046875,6.2192140234375,3.771868046875,6.0496740234375,3.762438046875L2.3708840234375,3.558068046875ZM7.6428440234375,0.254379546875L14.3955740234375,2.223018046875C14.9450740234375,2.383218046875,15.3509740234375,2.717688046875,15.6133740234375,3.226418046875C15.8757740234375,3.735148046875,15.9128740234375,4.259808046875,15.7246740234375,4.800398046875L14.3206740234375,8.834978046875L13.2628740234375,7.817848046875L14.4654740234375,4.362198046875C14.5281740234375,4.181998046875,14.5157740234375,4.007108046875,14.4282740234375,3.837528046875C14.3408740234375,3.667958046875,14.2055740234375,3.556468046875,14.0224740234375,3.503068046875L7.2697040234375,1.534418046875C7.0689940234375,1.475908046875,6.8821040234375,1.505308046875,6.7090540234375,1.622598046875L6.5968340234375,1.698668046875L4.4210640234375,1.562678046875L5.9609540234375,0.518917046875C6.4801140234375,0.167022185875,7.0407440234375,0.078843046875,7.6428440234375,0.254379546875ZM4.0729240234374995,5.016798046875C4.1039040234375,5.016798046875,4.1348040234375,5.018318046875,4.1656340234375,5.021358046875C4.1964640234375,5.024388046875,4.2270740234375,5.028928046875,4.2574540234375,5.034978046875C4.287844023437501,5.041018046875,4.3178540234375,5.048538046875,4.3475040234375,5.057528046875C4.3771440234375,5.066518046875,4.4062840234375,5.076948046875,4.4349040234375,5.088798046875C4.4635240234375,5.100658046875,4.4914840234375,5.113888046875,4.5188040234375,5.128488046875C4.5461340234375,5.143098046875,4.5726740234375,5.158998046875,4.5984240234375,5.176208046875C4.6241840234375,5.193418046875,4.6490440234375,5.211848046875,4.6729840234375,5.231498046875C4.6969340234375,5.251158046875,4.7198640234375,5.271938046875,4.7417640234375,5.293838046875C4.7636740234375,5.315748046875,4.7844440234375,5.338678046875,4.8041040234375,5.362618046875C4.8237540234375,5.386568046875,4.8421840234375,5.411418046875,4.8594040234375,5.437178046875C4.8766140234375,5.462938046875,4.8925140234375,5.489478046875,4.9071240234375,5.516798046875C4.9217240234375,5.544118046875,4.9349540234375,5.572088046875,4.9468040234375,5.600708046875C4.9586640234375,5.629328046875,4.9690940234375,5.658468046875,4.9780840234375,5.688108046875C4.9870740234375,5.717748046875,4.9945940234375,5.747768046875,5.0006340234375,5.778148046875C5.0066840234375,5.808538046875,5.0112240234375,5.839148046875,5.0142540234375,5.869978046875C5.0172940234375,5.900798046875,5.0188040234375,5.931708046875,5.0188040234375,5.962688046875C5.0188040234375,5.993668046875,5.0172940234375,6.024568046875,5.0142540234375,6.055398046875C5.0112240234375,6.086228046875,5.0066840234375,6.116838046875,5.0006340234375,6.147218046875C4.9945940234375,6.177608046875,4.9870740234375,6.207618046875,4.9780840234375,6.237258046875C4.9690940234375,6.266908046875,4.9586640234375,6.296038046875,4.9468040234375,6.324658046875C4.9349540234375,6.353288046875,4.9217240234375,6.381258046875,4.9071240234375,6.408578046875C4.8925140234375,6.435898046875,4.8766140234375,6.462428046875,4.8594040234375,6.488188046875C4.8421840234375,6.513948046875,4.8237540234375,6.538798046875,4.8041040234375,6.562748046875C4.7844440234375,6.586698046875,4.7636740234375,6.609618046875,4.7417640234375,6.631528046875C4.7198640234375,6.653438046875,4.6969340234375,6.674218046875,4.6729840234375,6.693868046875C4.6490440234375,6.713518046875,4.6241840234375,6.731948046875,4.5984240234375,6.749158046875C4.5726740234375,6.766378046875,4.5461340234375,6.782278046875,4.5188040234375,6.796878046875C4.4914840234375,6.811488046875,4.4635240234375,6.824718046875,4.4349040234375,6.836578046875C4.4062840234375,6.848448046875,4.3771440234375,6.858868046875,4.3475040234375,6.867848046875C4.3178540234375,6.876828046875,4.287844023437501,6.884338046875,4.2574540234375,6.890378046875C4.2270740234375,6.896428046875,4.1964640234375,6.900978046875,4.1656340234375,6.904048046875C4.1348040234375,6.907068046875,4.1039040234375,6.908578046875,4.0729240234374995,6.908578046875C4.0419440234375,6.908578046875,4.0110340234374995,6.907068046875,3.9802040234375,6.904048046875C3.9493840234375,6.900978046875,3.9187740234375,6.896428046875,3.8883840234375,6.890378046875C3.8580040234375,6.884338046875,3.8279940234375,6.876828046875,3.7983440234375,6.867848046875C3.7687040234375,6.858868046875,3.7395740234375,6.848448046875,3.7109440234375,6.836578046875C3.6823240234375,6.824718046875,3.6543540234375,6.811488046875,3.6270340234375,6.796878046875C3.5997140234375,6.782278046875,3.5731740234375,6.766378046875,3.5474140234375,6.749158046875C3.5216540234375,6.731948046875,3.4968040234375,6.713518046875,3.4728540234375,6.693868046875C3.4489040234375,6.674218046875,3.4259840234375,6.653438046875,3.4040840234375,6.631528046875C3.3821740234375,6.609618046875,3.3613940234375,6.586698046875,3.3417440234375,6.562748046875C3.3220840234375,6.538798046875,3.3036540234375,6.513948046875,3.2864440234375,6.488188046875C3.2692340234375,6.462428046875,3.2533240234375,6.435898046875,3.2387240234375,6.408578046875C3.2241240234375,6.381258046875,3.2108940234375,6.353288046875,3.1990340234375,6.324658046875C3.1871840234375,6.296038046875,3.1767540234375,6.266908046875,3.1677640234375,6.237258046875C3.1587740234375,6.207618046875,3.1512540234375,6.177608046875,3.1452040234375,6.147218046875C3.1391640234375,6.116838046875,3.1346240234375,6.086228046875,3.1315840234375,6.055398046875C3.1285540234375,6.024568046875,3.1270340234375,5.993668046875,3.1270340234375,5.962688046875C3.1270340234375,5.931708046875,3.1285540234375,5.900798046875,3.1315840234375,5.869978046875C3.1346240234375,5.839148046875,3.1391640234375,5.808538046875,3.1452040234375,5.778148046875C3.1512540234375,5.747768046875,3.1587740234375,5.717748046875,3.1677640234375,5.688108046875C3.1767540234375,5.658468046875,3.1871840234375,5.629328046875,3.1990340234375,5.600708046875C3.2108940234375,5.572088046875,3.2241240234375,5.544118046875,3.2387240234375,5.516798046875C3.2533240234375,5.489478046875,3.2692340234375,5.462938046875,3.2864440234375,5.437178046875C3.3036540234375,5.411418046875,3.3220840234375,5.386568046875,3.3417440234375,5.362618046875C3.3613940234375,5.338678046875,3.3821740234375,5.315748046875,3.4040840234375,5.293838046875C3.4259840234375,5.271938046875,3.4489040234375,5.251158046875,3.4728540234375,5.231498046875C3.4968040234375,5.211848046875,3.5216540234375,5.193418046875,3.5474140234375,5.176208046875C3.5731740234375,5.158998046875,3.5997140234375,5.143098046875,3.6270340234375,5.128488046875C3.6543540234375,5.113888046875,3.6823240234375,5.100658046875,3.7109440234375,5.088798046875C3.7395740234375,5.076948046875,3.7687040234375,5.066518046875,3.7983440234375,5.057528046875C3.8279940234375,5.048538046875,3.8580040234375,5.041018046875,3.8883840234375,5.034978046875C3.9187740234375,5.028928046875,3.9493840234375,5.024388046875,3.9802040234375,5.021358046875C4.0110340234374995,5.018318046875,4.0419440234375,5.016798046875,4.0729240234374995,5.016798046875Z" fill-rule="evenodd" fill="#4772FA"></path></symbol>
</svg>