<svg xmlns="http://www.w3.org/2000/svg" xmlns:xlink="http://www.w3.org/1999/xlink" style="position: absolute; width: 0; height: 0" aria-hidden="true" id="__SVG_SPRITE_NODE__">
<symbol xmlns="http://www.w3.org/2000/svg" viewBox="0 0 24 24" id="task-menu-assign"><path d="M16.8214,5.019525321655274C16.8214,7.682325321655274,14.6628,9.840945321655273,12,9.840945321655273C9.33719,9.840945321655273,7.17856,7.682325321655274,7.17856,5.019525321655274C7.17856,2.3567253216552735,9.33719,0.19809532165527344,12,0.19809532165527344C14.6628,0.19809532165527344,16.8214,2.3567253216552735,16.8214,5.019525321655274ZM14.683,5.019525321655274Q14.683,3.9081853216552735,13.8972,3.1223553216552733Q13.1113,2.3365253216552735,12,2.3365253216552735Q10.8887,2.3365253216552735,10.10282,3.1223553216552733Q9.31699,3.9081853216552735,9.31699,5.019525321655274Q9.31699,6.1308553216552735,10.10282,6.916685321655273Q10.8887,7.702525321655274,12,7.702525321655274Q13.1113,7.702525321655274,13.8972,6.916685321655273Q14.683,6.1308553216552735,14.683,5.019525321655274ZM0.75,19.483795321655272C0.75,21.850695321655273,2.66878,23.769495321655274,5.03571,23.769495321655274L18.9643,23.769495321655274C21.3312,23.769495321655274,23.25,21.850695321655273,23.25,19.483795321655272C23.25,14.749895321655274,19.4124,10.912395321655273,14.6786,10.912395321655273L9.32143,10.912395321655273C4.58756,10.912395321655273,0.75,14.749895321655274,0.75,19.483795321655272ZM18.9643,21.631095321655273L5.03571,21.631095321655273Q4.14628,21.631095321655273,3.51735,21.00219532165527Q2.88843,20.373195321655274,2.88843,19.483795321655272Q2.88843,16.819195321655272,4.77261,14.934995321655274Q6.65679,13.050795321655274,9.32143,13.050795321655274L14.6786,13.050795321655274Q17.3432,13.050795321655274,19.2274,14.934995321655274Q21.1116,16.819195321655272,21.1116,19.483795321655272Q21.1116,20.373195321655274,20.4826,21.00219532165527Q19.8537,21.631095321655273,18.9643,21.631095321655273ZM12.9527,18.400495321655274L12.1246,19.266995321655273C11.9388,19.45799532165527,11.8349,19.713895321655272,11.8349,19.980295321655273L11.835,19.994195321655273C11.8387,20.265395321655273,11.95,20.524095321655274,12.1444,20.713195321655274C12.3353,20.898995321655274,12.5912,21.002995321655273,12.8576,21.002995321655273L12.8716,21.002895321655274C13.1428,20.999195321655275,13.4014,20.887895321655275,13.5906,20.693595321655273L16.1079,18.090995321655274C16.2937,17.900095321655275,16.3977,17.644195321655275,16.3977,17.377695321655274C16.3977,17.364895321655272,16.397399999999998,17.351995321655274,16.397,17.339195321655275C16.387700000000002,17.094795321655273,16.2913,16.861895321655272,16.125,16.682395321655275L13.6763,13.989895321655274C13.4828,13.781095321655274,13.211,13.662395321655273,12.9263,13.662395321655273L12.9122,13.662495321655273C12.6592,13.665995321655274,12.4165,13.762995321655273,12.231,13.934995321655274C12.0222,14.128495321655274,11.9035,14.400395321655273,11.9035,14.685095321655274L11.9036,14.699195321655273C11.9071,14.952095321655273,12.0042,15.194795321655274,12.1766,15.380795321655274L13.0327,16.354995321655274L8.89024,16.354995321655274C8.3254,16.354995321655274,7.86751,16.812895321655272,7.86751,17.377695321655274C7.86751,17.942595321655272,8.3254,18.400495321655274,8.89024,18.400495321655274L12.9527,18.400495321655274Z" fill-rule="evenodd"></path></symbol>
</svg>