<svg xmlns="http://www.w3.org/2000/svg" xmlns:xlink="http://www.w3.org/1999/xlink" style="position: absolute; width: 0; height: 0" aria-hidden="true" id="__SVG_SPRITE_NODE__">
<symbol xmlns="http://www.w3.org/2000/svg" viewBox="0 0 16 16" id="td-footer-comment"><path d="M15.33335929555893,4.598330643730163C15.33335929555893,6.580560643730164,15.33335929555893,8.562780643730164,15.33335929555893,10.545000643730164C15.33335929555893,12.017800643730164,14.147059295558929,13.200000643730164,12.67435929555893,13.200000643730164L10.82655929555893,13.200000643730164C10.50827929555893,13.200000643730164,10.20048929555893,13.313900643730163,9.95883929555893,13.521000643730163L8.86770929555893,14.456300643730163C8.36838929555893,14.884200643730164,7.63159929555893,14.884200643730164,7.13227929555893,14.456300643730163L6.041149295558929,13.521000643730163C5.799499295558929,13.313900643730163,5.4917092955589295,13.200000643730164,5.17342929555893,13.200000643730164L3.3256492955589296,13.200000643730164C1.8528992955589294,13.200000643730164,0.6666592955589294,12.017800643730164,0.6666592955589294,10.545000643730164L0.6666592955589294,3.8550006437301634C0.6666592955589294,2.3822406437301638,1.8573292955589293,1.2000006437301636,3.3300892955589294,1.2000006437301636L12.64535929555893,1.2000034056401636C14.118159295558929,1.2000036709101636,15.33335929555893,2.3822406437301638,15.33335929555893,3.8550006437301634L15.33335929555893,4.598330643730163ZM10.155419295558929,2.5333406437301633L12.67245929555893,2.5333406437301633C13.40885929555893,2.5333406437301633,13.999959295558929,3.126960643730164,13.999959295558929,3.8633406437301634L13.999959295558929,5.486580643730163C13.999959295558929,7.169940643730164,13.999959295558929,8.853300643730163,13.999959295558929,10.536670643730163C13.999959295558929,11.273000643730164,13.40355929555893,11.866700643730164,12.66715929555893,11.866700643730164L10.82655929555893,11.866700643730164Q9.840099295558929,11.866700643730164,9.09111929555893,12.508700643730164L8.173539295558928,13.295100643730164C8.073679295558929,13.380700643730163,7.92631929555893,13.380700643730163,7.8264492955589295,13.295100643730164L6.9088692955589295,12.508700643730164Q6.159889295558929,11.866700643730164,5.17342929555893,11.866700643730164L3.3333092955589296,11.866700643730164C2.596939295558929,11.866700643730164,1.9999892955589293,11.273000643730164,1.9999792955589295,10.536670643730163C1.9999592955589294,8.861660643730165,1.9999692955589294,7.186640643730164,1.9999792955589295,5.511630643730164C1.9999792955589295,4.962200643730164,1.9999892955589293,4.4127706437301635,1.9999892955589293,3.8633306437301638C1.9999892955589293,3.1269506437301633,2.5911092955589297,2.5333406437301633,3.3274892955589292,2.5333406437301633C5.60346929555893,2.533350643730164,7.8794492955589295,2.533350643730164,10.155419295558929,2.5333406437301633ZM4.66681929555893,4.866630643730163Q4.601159295558929,4.866630643730163,4.536759295558929,4.879440643730163Q4.472359295558929,4.892250643730163,4.411699295558929,4.917370643730163Q4.351039295558929,4.942500643730163,4.29643929555893,4.978980643730163Q4.2418492955589295,5.015460643730163,4.19541929555893,5.061890643730163Q4.14898929555893,5.108320643730163,4.1125092955589295,5.1629106437301635Q4.0760292955589295,5.217510643730163,4.05089929555893,5.278170643730164Q4.025779295558929,5.338830643730163,4.012969295558929,5.403230643730163Q4.000159295558929,5.467630643730163,4.000159295558929,5.533290643730163Q4.000159295558929,5.598950643730164,4.012969295558929,5.663350643730164Q4.025779295558929,5.727750643730164,4.05089929555893,5.788410643730163Q4.0760292955589295,5.849080643730163,4.1125092955589295,5.903670643730163Q4.14898929555893,5.958270643730164,4.19541929555893,6.004700643730164Q4.2418492955589295,6.051130643730164,4.29643929555893,6.087610643730163Q4.351039295558929,6.124080643730164,4.411699295558929,6.1492106437301635Q4.472359295558929,6.174340643730163,4.536759295558929,6.187150643730163Q4.601159295558929,6.199960643730163,4.66681929555893,6.199960643730163L11.33345929555893,6.199960643730163Q11.39915929555893,6.199960643730163,11.46355929555893,6.187150643730163Q11.52795929555893,6.174340643730163,11.58865929555893,6.1492106437301635Q11.64925929555893,6.124080643730164,11.70385929555893,6.087610643730163Q11.758459295558929,6.051130643730164,11.804859295558929,6.004700643730164Q11.851359295558929,5.958270643730164,11.88775929555893,5.903670643730163Q11.92425929555893,5.849080643730163,11.94935929555893,5.788410643730163Q11.97455929555893,5.727750643730164,11.98735929555893,5.663350643730164Q12.00015929555893,5.598950643730164,12.00015929555893,5.533290643730163Q12.00015929555893,5.467630643730163,11.98735929555893,5.403230643730163Q11.97455929555893,5.338830643730163,11.94935929555893,5.278170643730164Q11.92425929555893,5.217510643730163,11.88775929555893,5.1629106437301635Q11.851359295558929,5.108320643730163,11.804859295558929,5.061890643730163Q11.758459295558929,5.015460643730163,11.70385929555893,4.978980643730163Q11.64925929555893,4.942500643730163,11.58865929555893,4.917370643730163Q11.52795929555893,4.892250643730163,11.46355929555893,4.879440643730163Q11.39915929555893,4.866630643730163,11.33345929555893,4.866630643730163L4.66681929555893,4.866630643730163ZM4.66681929555893,7.866630643730163Q4.601159295558929,7.866630643730163,4.536759295558929,7.879440643730163Q4.472359295558929,7.892250643730163,4.411699295558929,7.917370643730163Q4.351039295558929,7.942500643730163,4.29643929555893,7.978980643730163Q4.2418492955589295,8.015460643730163,4.19541929555893,8.061890643730163Q4.14898929555893,8.108320643730163,4.1125092955589295,8.162910643730164Q4.0760292955589295,8.217510643730163,4.05089929555893,8.278170643730164Q4.025779295558929,8.338830643730162,4.012969295558929,8.403230643730163Q4.000159295558929,8.467630643730164,4.000159295558929,8.533290643730163Q4.000159295558929,8.598950643730163,4.012969295558929,8.663350643730164Q4.025779295558929,8.727750643730165,4.05089929555893,8.788410643730163Q4.0760292955589295,8.849080643730163,4.1125092955589295,8.903670643730162Q4.14898929555893,8.958270643730163,4.19541929555893,9.004700643730164Q4.2418492955589295,9.051130643730165,4.29643929555893,9.087600643730163Q4.351039295558929,9.124080643730164,4.411699295558929,9.149210643730164Q4.472359295558929,9.174340643730163,4.536759295558929,9.187150643730163Q4.601159295558929,9.199960643730163,4.66681929555893,9.199960643730163L8.666819295558929,9.199960643730163Q8.73247929555893,9.199960643730163,8.796879295558929,9.187150643730163Q8.86127929555893,9.174340643730163,8.92193929555893,9.149210643730164Q8.98260929555893,9.124080643730164,9.03719929555893,9.087600643730163Q9.09179929555893,9.051130643730165,9.13822929555893,9.004700643730164Q9.18465929555893,8.958270643730163,9.22112929555893,8.903670643730162Q9.257609295558929,8.849080643730163,9.28273929555893,8.788410643730163Q9.307869295558929,8.727750643730165,9.320679295558929,8.663350643730164Q9.333489295558929,8.598950643730163,9.333489295558929,8.533290643730163Q9.333489295558929,8.467630643730164,9.320679295558929,8.403230643730163Q9.307869295558929,8.338830643730162,9.28273929555893,8.278170643730164Q9.257609295558929,8.217510643730163,9.22113929555893,8.162910643730164Q9.18465929555893,8.108320643730163,9.13822929555893,8.061890643730163Q9.09179929555893,8.015460643730163,9.03719929555893,7.978980643730163Q8.98260929555893,7.942500643730163,8.92194929555893,7.917370643730163Q8.86127929555893,7.892250643730163,8.796879295558929,7.879440643730163Q8.73247929555893,7.866630643730163,8.666819295558929,7.866630643730163L4.66681929555893,7.866630643730163Z" fill-rule="evenodd"></path></symbol>
<symbol xmlns="http://www.w3.org/2000/svg" viewBox="0 0 24 24" id="td-footer-markdown"><path d="M20.1421,17.623188077163697L12.8807,2.8406360771636963C12.7737,2.611194077163696,12.5799,2.4336310771636964,12.342,2.3470450771636964C12.237,2.308817677163696,12.1261,2.289342552163696,12.0143,2.289488881826696C11.9026,2.289342999163696,11.7917,2.308818177163696,11.6866,2.3470450771636964C11.44875,2.4336310771636964,11.255,2.611194077163696,11.14801,2.8406360771636963L3.88663,17.623188077163697C3.77964,17.852588077163695,3.76818,18.115188077163694,3.85476,18.353088077163697C3.94135,18.590988077163697,4.11889,18.784688077163697,4.34833,18.891688077163696C4.8261199999999995,19.114488077163696,5.39406,18.907788077163698,5.61686,18.429988077163696L8.01203,13.293488077163696C8.06806,13.303688077163697,8.1249,13.308788077163696,8.181840000000001,13.308788077163696L15.8182,13.308788077163696C15.8841,13.308788077163696,15.9498,13.301888077163696,16.0143,13.288388077163697L18.4118,18.429988077163696C18.6346,18.907788077163698,19.2026,19.114488077163696,19.6804,18.891688077163696C20.1581,18.668888077163697,20.3649,18.1009880771637,20.1421,17.623188077163697ZM15.1335,11.399658077163696L12.0143,4.9999980771636965L8.895150000000001,11.399658077163696L15.1335,11.399658077163696ZM2.454546,22.499988077163696L21.5455,22.499988077163696C22.0726,22.499988077163696,22.5,22.072588077163697,22.5,21.545488077163697C22.5,21.018288077163696,22.0726,20.590888077163697,21.5455,20.590888077163697L2.454546,20.590888077163697C1.927365,20.590888077163697,1.5,21.018288077163696,1.5,21.545488077163697C1.5,22.072588077163697,1.927365,22.499988077163696,2.454546,22.499988077163696Z" fill-rule="evenodd"></path></symbol>
</svg>