<svg xmlns="http://www.w3.org/2000/svg" xmlns:xlink="http://www.w3.org/1999/xlink" style="position: absolute; width: 0; height: 0" aria-hidden="true" id="__SVG_SPRITE_NODE__">
<symbol xmlns="http://www.w3.org/2000/svg" viewBox="0 0 24 24" id="teacher"><path d="M16.499998092651367,5.5C16.499998092651367,7.98528,14.485298092651368,10,11.999998092651367,10C9.514718092651368,10,7.499998092651367,7.98528,7.499998092651367,5.5C7.499998092651367,3.01472,9.514718092651368,1,11.999998092651367,1C14.485298092651368,1,16.499998092651367,3.01472,16.499998092651367,5.5ZM14.499998092651367,5.5Q14.499998092651367,4.46447,13.767798092651367,3.73223Q13.035498092651368,3,11.999998092651367,3Q10.964468092651368,3,10.232228092651367,3.73223Q9.499998092651367,4.46447,9.499998092651367,5.5Q9.499998092651367,6.53553,10.232228092651367,7.26777Q10.964468092651368,8,11.999998092651367,8Q13.035498092651368,8,13.767798092651367,7.26777Q14.499998092651367,6.53553,14.499998092651367,5.5ZM5.499998092651367,23C3.290858092651367,23,1.4999980926513672,21.2091,1.4999980926513672,19C1.4999980926513672,14.5817,5.081718092651367,11,9.499998092651367,11L14.499998092651367,11C18.918298092651366,11,22.499998092651367,14.5817,22.499998092651367,19C22.499998092651367,21.2091,20.709098092651367,23,18.499998092651367,23L5.499998092651367,23ZM4.0857880926513666,20.4142Q3.499998092651367,19.8284,3.499998092651367,19Q3.499998092651367,16.514699999999998,5.257358092651367,14.7574Q7.014718092651367,13,9.499998092651367,13L14.499998092651367,13Q16.98529809265137,13,18.742598092651367,14.7574Q20.499998092651367,16.514699999999998,20.499998092651367,19Q20.499998092651367,19.8284,19.914198092651368,20.4142Q19.328398092651366,21,18.499998092651367,21L5.499998092651367,21Q4.671568092651367,21,4.0857880926513666,20.4142Z" fill-rule="evenodd"></path></symbol>
</svg>