<svg xmlns="http://www.w3.org/2000/svg" xmlns:xlink="http://www.w3.org/1999/xlink" style="position: absolute; width: 0; height: 0" aria-hidden="true" id="__SVG_SPRITE_NODE__">
<symbol xmlns="http://www.w3.org/2000/svg" viewBox="0 0 24 24" id="text-mode"><path d="M2,19C2,19.552300000000002,2.447715,20,3,20L15,20C15.5523,20,16,19.552300000000002,16,19C16,18.447699999999998,15.5523,18,15,18L3,18C2.447715,18,2,18.447699999999998,2,19ZM2,12L2,12Q2,11.90151,2.0192147,11.80491Q2.0384294,11.70831,2.0761205,11.61732Q2.113811,11.52632,2.16853,11.44443Q2.223249,11.36254,2.292893,11.29289Q2.362537,11.22325,2.44443,11.16853Q2.526322,11.11381,2.6173159999999998,11.07612Q2.708311,11.03843,2.80491,11.019210000000001Q2.901509,11,3,11L21,11Q21.0985,11,21.1951,11.01922Q21.2917,11.03843,21.3827,11.07612Q21.4737,11.11381,21.5556,11.16853Q21.6375,11.22325,21.7071,11.29289Q21.7767,11.36254,21.8315,11.44443Q21.8862,11.52632,21.9239,11.61732Q21.9616,11.70831,21.9808,11.80491Q22,11.90151,22,12L22,12Q22,12.09849,21.9808,12.19509Q21.9616,12.29169,21.9239,12.38268Q21.8862,12.47368,21.8315,12.55557Q21.7767,12.63746,21.7071,12.70711Q21.6375,12.77675,21.5556,12.83147Q21.4737,12.88619,21.3827,12.92388Q21.2917,12.96157,21.1951,12.98078Q21.0985,13,21,13L3,13Q2.901509,13,2.80491,12.98078Q2.708311,12.96157,2.6173159999999998,12.92388Q2.526322,12.88619,2.44443,12.83147Q2.362537,12.77675,2.292893,12.70711Q2.223249,12.63746,2.16853,12.55557Q2.113811,12.47368,2.0761205,12.38268Q2.0384294,12.29169,2.0192147,12.19509Q2,12.09849,2,12ZM2,5L2,5Q2,4.901509,2.0192147,4.80491Q2.0384294,4.708311,2.0761205,4.617316Q2.113811,4.526322,2.16853,4.44443Q2.223249,4.362537,2.292893,4.292893Q2.362537,4.223249,2.44443,4.16853Q2.526322,4.113811,2.6173159999999998,4.0761205Q2.708311,4.0384294,2.80491,4.0192147Q2.901509,4,3,4L21,4Q21.0985,4,21.1951,4.0192147Q21.2917,4.0384294,21.3827,4.0761205Q21.4737,4.113811,21.5556,4.16853Q21.6375,4.223249,21.7071,4.292893Q21.7767,4.362537,21.8315,4.44443Q21.8862,4.526322,21.9239,4.617316Q21.9616,4.708311,21.9808,4.80491Q22,4.901509,22,5L22,5Q22,5.09849,21.9808,5.19509Q21.9616,5.29169,21.9239,5.38268Q21.8862,5.47368,21.8315,5.5555699999999995Q21.7767,5.63746,21.7071,5.70711Q21.6375,5.77675,21.5556,5.8314699999999995Q21.4737,5.88619,21.3827,5.9238800000000005Q21.2917,5.96157,21.1951,5.98079Q21.0985,6,21,6L3,6Q2.901509,6,2.80491,5.98079Q2.708311,5.96157,2.6173159999999998,5.9238800000000005Q2.526322,5.88619,2.44443,5.8314699999999995Q2.362537,5.77675,2.292893,5.70711Q2.223249,5.63746,2.16853,5.5555699999999995Q2.113811,5.47368,2.0761205,5.38268Q2.0384294,5.29169,2.0192147,5.19509Q2,5.09849,2,5Z"></path></symbol>
<symbol xmlns="http://www.w3.org/2000/svg" viewBox="0 0 64 64" id="text"><g fill="none" fill-rule="evenodd"><path d="M0 0H64V64H0z"></path><g transform="translate(8 5.333)"><path d="M0,4.00866826 C0,1.79474191 1.81214523,0 3.98812056,0 L32,0 L48,16 L48,49.3380127 C48,51.5445674 46.2347281,53.3333333 43.9901068,53.3333333 L4.00989318,53.3333333 C1.79529033,53.3333333 0,51.5588379 0,49.3246651 L0,4.00866826 Z" fill="#4772FA"></path><rect fill="#FFFFFF" x="9.333" y="25.333" width="21.333" height="2.667" rx=".853"></rect><rect fill="#FFFFFF" x="9.333" y="33.333" width="21.333" height="2.667" rx=".853"></rect><rect fill="#FFFFFF" x="9.333" y="41.333" width="13.333" height="2.667" rx=".853"></rect><path d="M32,0 L48,16 L35.199384,16 C33.432413,16 32,14.5660259 32,12.800616 L32,0 Z" fill="#000000" opacity=".3"></path></g></g></symbol>
</svg>