<svg xmlns="http://www.w3.org/2000/svg" xmlns:xlink="http://www.w3.org/1999/xlink" style="position: absolute; width: 0; height: 0" aria-hidden="true" id="__SVG_SPRITE_NODE__">
<symbol xmlns="http://www.w3.org/2000/svg" viewBox="0 0 48 48" id="thin-notification-sidebar"><g fill-rule="evenodd"><path fill="none" d="M0 0H48V48H0z"></path><path d="M28.9845679,39 C29.5351481,39 29.9814815,39.4477153 29.9814815,40 L29.9814815,42 C29.9814815,42.5522847 29.5351481,43 28.9845679,43 L19.0154321,43 C18.4648519,43 18.0185185,42.5522847 18.0185185,42 L18.0185185,40 C18.0185185,39.4477153 18.4648519,39 19.0154321,39 L28.9845679,39 Z M24.9969136,5 C25.5471266,5.00094061 25.9933078,5.44670122 25.9947673,5.99691314 L25.9958411,7.13545551 C32.6040387,8.08166804 37.7185019,13.6569618 37.9486971,20.4708033 L37.9567901,20.9506173 L37.9567901,30.9197531 C37.9567901,31.9422591 38.7264875,32.7849927 39.7180949,32.9001663 L39.9506173,32.9135802 L40.9475309,32.9135802 C41.498111,32.9135802 41.9444444,33.3599137 41.9444444,33.9104938 L41.9444444,35.904321 C41.9444444,36.4549012 41.498111,36.9012346 40.9475309,36.9012346 L7.05246914,36.9012346 C6.50188897,36.9012346 6.05555556,36.4549012 6.05555556,35.904321 L6.05555556,33.9104938 C6.05555556,33.3599137 6.50188897,32.9135802 7.05246914,32.9135802 L8.04938272,32.9135802 C9.07188874,32.9135802 9.9146223,32.1438828 10.0297959,31.1522755 L10.0432099,30.9197531 L10.0432099,20.9506173 C10.0432099,13.9194475 15.2425162,8.10264078 22.0061728,7.13516964 L22.0061728,5.99691358 C22.0061728,5.44633341 22.4525063,5 23.0030864,5 L24.9969136,5 Z M23.9995,10.9970883 C23.5240162,10.9970883 23.0483717,11.029681 22.5725665,11.0948664 C17.7972209,11.7779302 14.1793223,15.8280048 14.0469637,20.675402 L14.0432099,20.9506173 L14.0432099,31.0350348 L14.0164732,31.4984983 L14.003085,31.6137667 C13.9582497,31.999784 13.8771987,32.3739331 13.7635261,32.7329124 L13.706,32.901 L34.293,32.901 L34.2321979,32.7196727 C34.0754878,32.2216125 33.9821613,31.6962436 33.9612783,31.1534278 L33.9567901,30.9197531 L33.957359,21.0180753 L33.9509778,20.6058601 C33.791164,15.8753279 30.3080341,11.9284429 25.701146,11.1379133 L25.428873,11.09507 C24.9514415,11.0297489 24.4749838,10.9970883 23.9995,10.9970883 Z"></path></g></symbol>
<symbol xmlns="http://www.w3.org/2000/svg" viewBox="0 0 24 24" id="thin-search-sidebar"><g fill-rule="evenodd"><path fill="none" d="M0 0H24V24H0z"></path><path d="M11,3 C15.418278,3 19,6.581722 19,11 C19,12.8482015 18.3732643,14.550021 17.3207287,15.9045228 L20.3536574,18.9392359 C20.5487175,19.1346188 20.5486709,19.4511211 20.3535534,19.6464466 L19.6464466,20.3535534 C19.4511211,20.5486709 19.1346188,20.5487175 18.9392359,20.3536574 L15.9045228,17.3207287 C14.550021,18.3732643 12.8482015,19 11,19 C6.581722,19 3,15.418278 3,11 C3,6.581722 6.581722,3 11,3 Z M11,5 C7.6862915,5 5,7.6862915 5,11 C5,14.3137085 7.6862915,17 11,17 C14.3137085,17 17,14.3137085 17,11 C17,7.6862915 14.3137085,5 11,5 Z"></path></g></symbol>
<symbol xmlns="http://www.w3.org/2000/svg" viewBox="0 0 36 36" id="thin-triangle-down"><path d="M9.68064767,11.8496824 L17.9512716,20.1203064 L26.2218956,11.8496824 C26.3683422,11.7032358 26.6057791,11.7032358 26.7522257,11.8496824 L28.2927083,13.390165 C28.4391549,13.5366117 28.4391549,13.7740485 28.2927083,13.9204951 L18.4816017,23.7316017 C18.1887085,24.0244949 17.7138348,24.0244949 17.4209415,23.7316017 L7.60983496,13.9204951 C7.46338835,13.7740485 7.46338835,13.5366117 7.60983496,13.390165 L9.15031759,11.8496824 C9.2967642,11.7032358 9.53420106,11.7032358 9.68064767,11.8496824 Z" fill-rule="evenodd"></path></symbol>
</svg>