<svg xmlns="http://www.w3.org/2000/svg" xmlns:xlink="http://www.w3.org/1999/xlink" style="position: absolute; width: 0; height: 0" aria-hidden="true" id="__SVG_SPRITE_NODE__">
<symbol xmlns="http://www.w3.org/2000/svg" viewBox="0 0 24 24" id="this-month"><path d="M22.3729,14.3968Q22.4289,14.1754,22.4757,13.9517Q22.6031,13.3428,22.0618,12.9994Q21.545,12.6716,20.9869,12.9327Q20.8578,12.9932,20.7268,13.049Q19.2015,13.6987,17.5482,13.6988Q15.8722,13.6987,14.3417,13.0394Q12.863,12.4024,11.7225,11.24057Q10.58161,10.07853,9.95594,8.571760000000001Q9.3081,7.0116,9.3081,5.3029399999999995Q9.3081,4.22997,9.57294,3.1914800000000003Q9.60858,3.0517000000000003,9.64893,2.91326Q9.82265,2.317076,9.43366,1.846424Q9.0228,1.349316,8.44524,1.5655432Q8.234829999999999,1.644313,8.02787,1.732074Q5.06292,2.98935,3.28125,5.71063Q1.5,8.43126,1.5,11.7012Q1.5,13.8976,2.333046,15.9038Q3.13774,17.8417,4.60504,19.3362Q6.07262,20.8311,7.97574,21.651Q9.94646,22.5,12.1043,22.5Q15.7326,22.5,18.6004,20.2365Q21.4674,17.9737,22.3729,14.3968ZM10.34509,12.6364Q11.8367,14.1556,13.7982,14.9467Q15.605,15.6752,17.5482,15.6752Q18.8051,15.6752,19.9698,15.3905Q19.2866,16.9058,18.1005,18.0658Q16.843899999999998,19.2948,15.2187,19.9331Q13.7154,20.5235,12.1043,20.5235Q10.45309,20.5235,8.9178,19.9044Q7.25053,19.2321,5.98241,17.9404Q4.71401,16.648400000000002,4.05366,14.9494Q3.4453899999999997,13.3844,3.4454000000000002,11.7012Q3.4453899999999997,8.511140000000001,5.4478,6.05878Q6.32656,4.98257,7.41158,4.26726Q7.3627,4.77881,7.3627,5.30293Q7.3627,7.28094,8.07753,9.12012Q8.85379,11.11733,10.34509,12.6364Z" fill-rule="evenodd"></path></symbol>
<symbol xmlns="http://www.w3.org/2000/svg" viewBox="0 0 24 24" id="this-week"><path d="M0.9999914035607166,17.9924L0.9999889731407166,6.00756C0.9999889731407166,3.79842,2.7859889731407166,2,4.995128973140717,2L18.968088973140716,2C21.177188973140716,2,22.999988973140717,3.79842,22.999988973140717,6.00755L22.999988973140717,6.2002L22.999988973140717,8.200199999999999C22.999988973140717,11.44223,22.999988973140717,14.8466,22.999988973140717,17.9924C22.999988973140717,20.2016,21.249188973140715,22,19.039988973140716,22C14.346688973140717,22,9.653328973140717,22,4.9599889731407165,22C2.7508589731407165,22,0.9999914012907165,20.2016,0.9999914035607166,17.9924ZM20.999988973140717,6.2002L20.999988973140717,5.98951C20.999988973140717,4.88494,20.113288973140715,4,19.008688973140718,4L14.996088973140717,4.00001C11.661188973140716,4.00002,8.326188973140717,4.000030000000001,4.9912389731407165,4.00001C3.8866589731407166,4.00001,2.9999889731407166,4.884930000000001,2.9999889731407166,5.98951L2.9999889731407166,6.2002L20.999988973140717,6.2002ZM2.9999789731407165,8.200199999999999L20.999988973140717,8.200199999999999L20.999988973140717,8.36419C20.999988973140717,11.54922,20.999988973140717,15.0265,20.999988973140717,18.0105C20.999988973140717,19.1151,20.113288973140715,20,19.008788973140717,20C15.394188973140716,20,11.779588973140717,20,8.165028973140718,20L4.991258973140717,20C3.8866989731407164,20,2.9999889731407166,19.115,2.9999689731407164,18.0105C2.9999389731407167,15.1333,2.999958973140717,11.79763,2.9999689731407164,8.70745L2.9999789731407165,8.200199999999999ZM6.500008973140717,10.5C5.9477189731407165,10.5,5.500008973140717,10.94772,5.500008973140717,11.5C5.500008973140717,12.0523,5.9477189731407165,12.5,6.500008973140717,12.5L7.500008973140717,12.5C8.052288973140715,12.5,8.500008973140716,12.0523,8.500008973140716,11.5C8.500008973140716,10.94772,8.052288973140715,10.5,7.500008973140717,10.5L6.500008973140717,10.5ZM11.499988973140717,10.5C10.947718973140717,10.5,10.500008973140716,10.94772,10.500008973140716,11.5C10.500008973140716,12.0523,10.947718973140717,12.5,11.499988973140717,12.5L12.499988973140717,12.5C13.052288973140717,12.5,13.499988973140717,12.0523,13.499988973140717,11.5C13.499988973140717,10.94772,13.052288973140717,10.5,12.499988973140717,10.5L11.499988973140717,10.5ZM16.499988973140717,10.5C15.947688973140716,10.5,15.499988973140717,10.94772,15.499988973140717,11.5C15.499988973140717,12.0523,15.947688973140716,12.5,16.499988973140717,12.5L17.499988973140717,12.5C18.052288973140715,12.5,18.499988973140717,12.0523,18.499988973140717,11.5C18.499988973140717,10.94772,18.052288973140715,10.5,17.499988973140717,10.5L16.499988973140717,10.5ZM6.500008973140717,15C5.9477189731407165,15,5.500008973140717,15.4477,5.500008973140717,16C5.500008973140717,16.552300000000002,5.9477189731407165,17,6.500008973140717,17L17.499988973140717,17C18.052288973140715,17,18.499988973140717,16.552300000000002,18.499988973140717,16C18.499988973140717,15.4477,18.052288973140715,15,17.499988973140717,15L6.500008973140717,15Z" fill-rule="evenodd"></path></symbol>
</svg>