<svg xmlns="http://www.w3.org/2000/svg" xmlns:xlink="http://www.w3.org/1999/xlink" style="position: absolute; width: 0; height: 0" aria-hidden="true" id="__SVG_SPRITE_NODE__">
<symbol xmlns="http://www.w3.org/2000/svg" viewBox="0 0 16 16" id="timecard_remind"><path d="M5.218946686534881,1.6543820965042113C5.330126686534881,1.7655520965042113,5.431526686534881,1.8864930965042115,5.521756686534881,2.0158030965042117C6.287956686534882,1.7087590965042114,7.1244166865348815,1.5398370965042114,8.000326686534882,1.5398370965042114C8.876136686534881,1.5398370965042114,9.712506686534882,1.7087220965042116,10.478636686534882,2.0157030965042115C10.56885668653488,1.8864330965042113,10.670266686534882,1.7655230965042115,10.78136668653488,1.6543820965042113C11.263966686534882,1.1718100965042115,11.930566686534881,0.8733330965042114,12.666966686534881,0.8733330965042114C14.139766686534882,0.8733330965042114,15.333666686534881,2.0672430965042112,15.333666686534881,3.5400030965042113C15.333666686534881,4.276383096504212,15.03516668653488,4.943043096504211,14.552566686534881,5.425623096504212C14.441466686534882,5.5367830965042115,14.320466686534882,5.638173096504212,14.191166686534881,5.728403096504212C14.498166686534882,6.494473096504211,14.666966686534881,7.3307730965042115,14.666966686534881,8.20650309650421C14.666966686534881,9.968233096504212,13.983666686534882,11.57033309650421,12.867566686534882,12.762233096504211L13.860866686534882,14.049933096504212C14.085766686534882,14.341433096504211,14.031666686534882,14.76013309650421,13.74016668653488,14.98493309650421C13.448666686534882,15.20983309650421,13.029966686534882,15.155833096504212,12.805066686534882,14.864333096504211L11.861866686534881,13.641533096504212C10.772366686534882,14.41713309650421,9.43958668653488,14.873133096504212,8.000326686534882,14.873133096504212C6.5606966865348815,14.873133096504212,5.227646686534881,14.416833096504211,4.137926686534882,13.640933096504211L3.1942366865348815,14.864333096504211C2.9693466865348817,15.155833096504212,2.550716686534882,15.20983309650421,2.2591766865348815,14.98493309650421C1.9676466865348816,14.76013309650421,1.9136266865348817,14.341433096504211,2.138506686534882,14.049933096504212L3.132396686534882,12.76153309650421C2.0167166865348816,11.569633096504212,1.3336586865348816,9.96785309650421,1.3336586865348816,8.20650309650421C1.3336586865348816,7.3308430965042115,1.5024856865348815,6.494603096504211,1.8093666865348816,5.728583096504211C1.6799666865348817,5.638313096504212,1.5589516865348816,5.5368530965042115,1.4477146865348816,5.425623096504212C0.9651436865348816,4.943043096504211,0.6666666865348816,4.276383096504212,0.6666666865348816,3.5400030965042113C0.6666666865348816,2.0672430965042112,1.8605766865348816,0.8733330965042114,3.3333366865348815,0.8733330965042114C4.069716686534882,0.8733330965042114,4.736376686534881,1.1718100965042115,5.218946686534881,1.6543820965042113ZM4.322156686534882,2.645463096504211C3.5751966865348814,3.1405030965042116,2.9337666865348817,3.7820130965042114,2.4388166865348815,4.529043096504211Q2.4143666865348816,4.506653096504211,2.3905266865348818,4.482813096504211Q1.9999966865348815,4.092283096504211,1.9999966865348815,3.5400030965042113Q1.9999966865348815,2.9877130965042116,2.3905266865348818,2.5971930965042116Q2.7810466865348817,2.2066630965042116,3.3333366865348815,2.2066630965042116Q3.8856166865348816,2.2066630965042116,4.276146686534881,2.5971930965042116Q4.299836686534881,2.6208830965042114,4.322156686534882,2.645463096504211ZM13.561666686534881,4.5288530965042115C13.066766686534882,3.7818430965042116,12.425266686534881,3.1403430965042114,11.678266686534881,2.645323096504211Q11.70056668653488,2.6208230965042114,11.72416668653488,2.5971930965042116Q12.114666686534882,2.2066630965042116,12.666966686534881,2.2066630965042116Q13.219266686534882,2.2066630965042116,13.609766686534881,2.5971930965042116Q14.000366686534882,2.9877130965042116,14.000366686534882,3.5400030965042113Q14.000366686534882,4.092283096504211,13.609766686534881,4.482813096504211Q13.586066686534881,4.506563096504212,13.561666686534881,4.5288530965042115ZM11.771566686534882,4.435263096504212Q12.519066686534881,5.182793096504211,12.923566686534881,6.155623096504211L12.844466686534881,6.200853096504211C12.876066686534882,6.198773096504212,12.907566686534881,6.196143096504211,12.938966686534881,6.1929630965042115Q12.949166686534882,6.218023096504211,12.959166686534882,6.2433330965042115Q13.333666686534881,7.189203096504212,13.333666686534881,8.20650309650421Q13.333666686534881,9.223803096504211,12.959166686534882,10.169673096504212Q12.552566686534881,11.196733096504211,11.771566686534882,11.977733096504211Q10.990466686534882,12.758833096504212,9.963496686534882,13.165333096504211Q9.017626686534882,13.53983309650421,8.000326686534882,13.53983309650421Q6.983026686534882,13.53983309650421,6.037156686534882,13.165333096504211Q5.0101366865348815,12.758833096504212,4.229086686534881,11.977733096504211Q3.4480366865348815,11.196733096504211,3.0414566865348815,10.169673096504212Q2.6669966865348815,9.223803096504211,2.6669966865348815,8.20650309650421Q2.6669966865348815,7.189203096504212,3.0414566865348815,6.2433330965042115Q3.4480366865348815,5.216313096504211,4.229086686534881,4.435263096504212Q5.0101366865348815,3.6542230965042113,6.037156686534882,3.2476330965042113Q6.983026686534882,2.8731730965042113,8.000326686534882,2.8731730965042113Q9.017626686534882,2.8731730965042113,9.963496686534882,3.2476330965042113Q10.990466686534882,3.6542230965042113,11.771566686534882,4.435263096504212ZM7.333656686534882,8.206663096504212L7.333656686534882,5.540003096504211Q7.333656686534882,5.474343096504211,7.346466686534882,5.409943096504211Q7.359276686534882,5.345543096504211,7.384406686534882,5.284873096504211Q7.4095366865348815,5.2242130965042115,7.446006686534882,5.169623096504211Q7.482486686534882,5.115023096504212,7.528916686534882,5.068593096504212Q7.575346686534882,5.022163096504212,7.629946686534882,4.985683096504212Q7.684536686534882,4.9492030965042115,7.745206686534882,4.924083096504211Q7.805866686534881,4.898953096504211,7.870266686534881,4.886143096504211Q7.934666686534881,4.873333096504211,8.000326686534882,4.873333096504211Q8.065986686534881,4.873333096504211,8.130386686534882,4.886143096504211Q8.194786686534883,4.898953096504211,8.255446686534881,4.924083096504211Q8.316106686534882,4.9492030965042115,8.37070668653488,4.985683096504212Q8.425296686534882,5.022163096504212,8.471726686534883,5.068593096504212Q8.518156686534882,5.115023096504212,8.55463668653488,5.169623096504211Q8.591116686534882,5.2242130965042115,8.616246686534883,5.284873096504211Q8.641376686534882,5.345543096504211,8.654176686534882,5.409943096504211Q8.666996686534882,5.474343096504211,8.666996686534882,5.540003096504211L8.666996686534882,7.540003096504211L10.000326686534882,7.540003096504211Q10.065986686534881,7.540003096504211,10.130386686534882,7.552813096504211Q10.194786686534881,7.565623096504211,10.255446686534881,7.5907430965042115Q10.316106686534882,7.615873096504211,10.370706686534882,7.6523530965042115Q10.425296686534882,7.6888330965042115,10.47172668653488,7.7352630965042115Q10.518156686534882,7.7816930965042115,10.55463668653488,7.836283096504212Q10.591116686534882,7.890883096504211,10.61624668653488,7.951543096504212Q10.641366686534882,8.012203096504212,10.654176686534882,8.076603096504211Q10.666966686534881,8.14100309650421,10.666966686534881,8.206663096504212Q10.666966686534881,8.272323096504213,10.654176686534882,8.336723096504212Q10.641366686534882,8.401123096504211,10.61624668653488,8.461783096504211Q10.591116686534882,8.522453096504211,10.55463668653488,8.577043096504212Q10.518156686534882,8.631643096504211,10.47172668653488,8.67807309650421Q10.425296686534882,8.724503096504211,10.370706686534882,8.760983096504212Q10.316106686534882,8.797453096504212,10.255446686534881,8.82258309650421Q10.194786686534881,8.847713096504211,10.130386686534882,8.860523096504211Q10.065986686534881,8.873333096504211,10.000326686534882,8.873333096504211L8.000326686534882,8.873333096504211Q7.934666686534881,8.873333096504211,7.870266686534881,8.860523096504211Q7.805866686534881,8.847713096504211,7.745206686534882,8.82258309650421Q7.684536686534882,8.797453096504212,7.629946686534882,8.760983096504212Q7.575346686534882,8.724503096504211,7.528916686534882,8.67807309650421Q7.482486686534882,8.631643096504211,7.446016686534882,8.577043096504212Q7.4095366865348815,8.522453096504211,7.384406686534882,8.461793096504213Q7.359276686534882,8.401123096504211,7.346466686534882,8.336723096504212Q7.333656686534882,8.272323096504213,7.333656686534882,8.206663096504212Z" fill-rule="evenodd"></path></symbol>
</svg>