<svg xmlns="http://www.w3.org/2000/svg" xmlns:xlink="http://www.w3.org/1999/xlink" style="position: absolute; width: 0; height: 0" aria-hidden="true" id="__SVG_SPRITE_NODE__">
<symbol xmlns="http://www.w3.org/2000/svg" viewBox="0 0 240 240" id="timeline_no_data"><defs><filter x="-12.4%" y="-16%" width="124.7%" height="132%" filterUnits="objectBoundingBox" id="timeline_no_data_a"><feOffset dx="2" dy="-1" in="SourceAlpha" result="shadowOffsetOuter1"></feOffset><feGaussianBlur stdDeviation="2.5" in="shadowOffsetOuter1" result="shadowBlurOuter1"></feGaussianBlur><feColorMatrix values="0 0 0 0 0 0 0 0 0 0 0 0 0 0 0 0 0 0 0.0482336957 0" in="shadowBlurOuter1" result="shadowMatrixOuter1"></feColorMatrix><feMerge><feMergeNode in="shadowMatrixOuter1"></feMergeNode><feMergeNode in="SourceGraphic"></feMergeNode></feMerge></filter></defs><g fill-rule="evenodd"><path fill="none" d="M0 0H240V240H0z"></path><g transform="translate(31.2 33.6)"><circle fill-opacity=".04" fill="#000000" cx="87.6" cy="87.6" r="87.6"></circle><g filter="url(#timeline_no_data_a)" transform="translate(36 44.4)"><path d="M2.4,0 L41.9289644,0 C42.5654839,7.71251671e-16 43.1759333,0.252856417 43.6260206,0.702943725 L50.5278255,7.60474858 C50.9779128,8.05483589 51.5883622,8.30769231 52.2248818,8.30769231 L90.3692308,8.30769231 C91.6947142,8.30769231 92.7692308,9.38220891 92.7692308,10.7076923 L92.7692308,82.0615385 C92.7692308,83.3870219 91.6947142,84.4615385 90.3692308,84.4615385 L2.4,84.4615385 C1.0745166,84.4615385 5.93548463e-15,83.3870219 0,82.0615385 L0,2.4 C-1.623249e-16,1.0745166 1.0745166,-6.44691069e-16 2.4,0 Z"></path><path d="M9.6,13.2 L82.8,13.2 C84.7882251,13.2 86.4,14.8117749 86.4,16.8 L86.4,80.4 C86.4,82.3882251 84.7882251,84 82.8,84 L9.6,84 C7.6117749,84 6,82.3882251 6,80.4 L6,16.8 C6,14.8117749 7.6117749,13.2 9.6,13.2 Z" fill="#FFFFFF"></path><path d="M21.407244,22.1538462 L106.168982,22.1538462 C107.494465,22.1538462 108.568982,23.2283628 108.568982,24.5538462 C108.568982,24.7391235 108.547527,24.9237776 108.505047,25.1041192 L94.9587904,82.6118115 C94.7034863,83.6956497 93.7362268,84.4615385 92.6227254,84.4615385 L2.76923077,84.4615385 L2.76923077,84.4615385 C6.51718776,81.1479861 9.28752147,76.4812844 11.0802319,70.4614333 C13.7341343,55.0233672 16.3880367,39.5853012 19.0419391,24.1472351 C19.2399236,22.9955352 20.2386506,22.1538462 21.407244,22.1538462 Z"></path></g></g></g></symbol>
</svg>