<svg xmlns="http://www.w3.org/2000/svg" xmlns:xlink="http://www.w3.org/1999/xlink" style="position: absolute; width: 0; height: 0" aria-hidden="true" id="__SVG_SPRITE_NODE__">
<symbol xmlns="http://www.w3.org/2000/svg" viewBox="0 0 16 16" id="timecard_time"><path d="M7.999996686534882,15.333366686534882C12.050066686534882,15.333366686534882,15.333366686534882,12.050066686534882,15.333366686534882,7.999996686534882C15.333366686534882,3.9499066865348818,12.050066686534882,0.6666666865348816,7.999996686534882,0.6666666865348816C3.9499066865348818,0.6666666865348816,0.6666666865348816,3.9499066865348818,0.6666666865348816,7.999996686534882C0.6666666865348816,12.050066686534882,3.9499066865348818,15.333366686534882,7.999996686534882,15.333366686534882ZM13.578766686534882,5.791426686534882Q13.999966686534881,6.855536686534881,13.999966686534881,7.999996686534882Q13.999966686534881,9.144456686534882,13.578766686534882,10.208566686534882Q13.121366686534882,11.363966686534882,12.242666686534882,12.242666686534882Q11.363966686534882,13.121366686534882,10.208566686534882,13.578766686534882Q9.144456686534882,13.999966686534881,7.999996686534882,13.999966686534881Q6.855536686534881,13.999966686534881,5.791426686534882,13.578766686534882Q4.636036686534881,13.121366686534882,3.7573566865348815,12.242666686534882Q2.8786766865348814,11.363966686534882,2.4212666865348815,10.208566686534882Q1.9999966865348815,9.144456686534882,1.9999966865348815,7.999996686534882Q1.9999966865348815,6.855536686534881,2.4212666865348815,5.791426686534882Q2.8786766865348814,4.636036686534881,3.7573566865348815,3.7573566865348815Q4.636036686534881,2.8786766865348814,5.791426686534882,2.4212666865348815Q6.855536686534881,1.9999966865348815,7.999996686534882,1.9999966865348815Q9.144456686534882,1.9999966865348815,10.208566686534882,2.4212666865348815Q11.363966686534882,2.8786766865348814,12.242666686534882,3.7573566865348815Q13.121366686534882,4.636036686534881,13.578766686534882,5.791426686534882ZM7.333356686534882,8.66682668653488L7.333356686534882,4.666826686534882Q7.333356686534882,4.6011666865348815,7.346166686534882,4.5367666865348815Q7.358976686534882,4.4723666865348815,7.384096686534882,4.411706686534881Q7.409226686534882,4.351046686534882,7.445706686534882,4.296446686534882Q7.482186686534882,4.241856686534882,7.528616686534882,4.195426686534882Q7.575046686534882,4.148996686534882,7.629636686534882,4.112516686534882Q7.684236686534882,4.076036686534882,7.744896686534881,4.050906686534882Q7.8055566865348815,4.0257866865348815,7.869956686534882,4.0129766865348815Q7.934356686534882,4.0001666865348815,8.000016686534881,4.0001666865348815Q8.065676686534882,4.0001666865348815,8.130076686534881,4.0129766865348815Q8.19447668653488,4.0257866865348815,8.255136686534883,4.050906686534882Q8.31580668653488,4.076036686534882,8.370396686534882,4.112516686534882Q8.424996686534882,4.148996686534882,8.471426686534882,4.195426686534882Q8.51785668653488,4.241856686534882,8.554336686534882,4.296446686534882Q8.590806686534883,4.351046686534882,8.615936686534882,4.411706686534881Q8.64106668653488,4.4723666865348815,8.653876686534883,4.5367666865348815Q8.66668668653488,4.6011666865348815,8.66668668653488,4.666826686534882L8.66668668653488,7.999836686534882L10.000016686534881,7.999836686534882Q10.065676686534882,7.999836686534882,10.130076686534881,8.012646686534882Q10.194476686534882,8.02545668653488,10.25513668653488,8.050586686534881Q10.31580668653488,8.075706686534883,10.370396686534882,8.112186686534882Q10.424996686534882,8.148666686534881,10.471426686534882,8.195096686534882Q10.517856686534882,8.241526686534883,10.554336686534882,8.296126686534882Q10.59081668653488,8.35071668653488,10.615936686534882,8.411376686534883Q10.64106668653488,8.472046686534881,10.65387668653488,8.536446686534882Q10.666666686534882,8.600846686534881,10.666666686534882,8.66650668653488Q10.666666686534882,8.732166686534882,10.65387668653488,8.79656668653488Q10.64106668653488,8.860966686534882,10.615936686534882,8.921626686534882Q10.59081668653488,8.98228668653488,10.554336686534882,9.036886686534881Q10.517856686534882,9.091476686534882,10.471426686534882,9.137906686534881Q10.424996686534882,9.184336686534882,10.370396686534882,9.220816686534882Q10.31580668653488,9.257296686534882,10.255146686534882,9.282426686534881Q10.194476686534882,9.30754668653488,10.130076686534881,9.32035668653488Q10.065676686534882,9.33316668653488,10.000016686534881,9.33316668653488L8.02086668653488,9.33316668653488Q8.01044668653488,9.33349668653488,8.000016686534881,9.33349668653488Q7.934356686534882,9.33349668653488,7.869956686534882,9.32068668653488Q7.8055566865348815,9.30787668653488,7.744896686534881,9.282746686534882Q7.684236686534882,9.257616686534881,7.629636686534882,9.221146686534881Q7.575046686534882,9.184666686534882,7.528616686534882,9.138236686534881Q7.482186686534882,9.091806686534882,7.445706686534882,9.037206686534882Q7.409226686534882,8.982616686534882,7.384096686534882,8.921956686534882Q7.358976686534882,8.861286686534882,7.346166686534882,8.796886686534881Q7.333356686534882,8.732486686534882,7.333356686534882,8.66682668653488Z" fill-rule="evenodd"></path></symbol>
</svg>