<svg xmlns="http://www.w3.org/2000/svg" xmlns:xlink="http://www.w3.org/1999/xlink" style="position: absolute; width: 0; height: 0" aria-hidden="true" id="__SVG_SPRITE_NODE__">
<symbol xmlns="http://www.w3.org/2000/svg" viewBox="0 0 18 18" id="timezone"><path d="M15.8597,13.5833C16.7662,12.2267,17.25,10.63165,17.25,9C17.25,7.36045,16.7615,5.75809,15.8468,4.3974C15.5715,3.98787,15.26,3.60386,14.9161,3.25C13.6882,1.98661,12.088,1.149497,10.35,0.861204C10.33666,0.858992,10.32332,0.856813,10.30998,0.854666C10.05812,0.8141619,9.80453,0.7853601,9.55,0.768354C9.53575,0.7674016,9.52149,0.7664863,9.50724,0.7656081C9.33836,0.75520515,9.1692,0.75,9,0.75C8.81651,0.75,8.63308,0.75612127,8.45,0.7683536L8.446110000000001,0.7686146C8.179400000000001,0.7865618,7.91371,0.8174614,7.65,0.861204C5.91195,1.149498,4.31184,1.98662,3.08392,3.25C3.06159,3.27298,3.03939,3.29609,3.01733,3.31932C2.6943200000000003,3.6595,2.40091,4.026619999999999,2.1403,4.41667C1.233825,5.77335,0.75,7.36835,0.75,9C0.7499999999999993,10.63165,1.233824,12.2267,2.1402900000000002,13.5833C2.1402900000000002,13.5833,2.15321,13.6026,2.15321,13.6026C2.4285,14.0121,2.7399899999999997,14.3961,3.08392,14.75C4.31184,16.0134,5.91195,16.8505,7.65,17.1388C7.66333,17.141,7.67668,17.1432,7.69002,17.1453C7.94188,17.1858,8.19548,17.2146,8.45,17.2316C8.46426,17.2326,8.47851,17.2335,8.49276,17.2344C8.66164,17.2448,8.8308,17.25,9,17.25C9.18349,17.25,9.36692,17.2439,9.55,17.2316L9.55389,17.2314C9.8206,17.2134,10.08629,17.1825,10.35,17.1388C12.088,16.8505,13.6882,16.0134,14.9161,14.75C14.9384,14.727,14.9606,14.7039,14.9827,14.6807C15.3057,14.3405,15.5991,13.9734,15.8597,13.5833ZM14.6125,12.75C15.3541,11.64,15.75,10.33498,15.75,9C15.75,7.66502,15.3541,6.36001,14.6125,5.25C13.9382,5.63816,13.2254,5.95532,12.4857,6.19639C12.6615,7.12057,12.75,8.059239999999999,12.75,9C12.75,9.94076,12.6615,10.8794,12.4857,11.8036C13.2254,12.0447,13.9382,12.3618,14.6125,12.75ZM13.6248,13.9167C13.1457,13.6585,12.6459,13.441,12.1305,13.2662C11.9213,13.9716,11.6604,14.6606,11.35,15.3277C12.1949,15.0139,12.9683,14.5342,13.6248,13.9167ZM9.45,15.735C9.96608,14.8385,10.3774,13.8856,10.67587,12.8951C10.12247,12.7986,9.56176,12.75,9,12.75C8.43824,12.75,7.87753,12.7986,7.32413,12.8951C7.6226,13.8856,8.03392,14.8385,8.55,15.735C8.69979,15.745,8.84988,15.75,9,15.75C9.15012,15.75,9.30021,15.745,9.45,15.735ZM6.65,15.3277C6.33962,14.6606,6.07875,13.9716,5.86949,13.2662C5.35411,13.441,4.85426,13.6585,4.37519,13.9167C5.03166,14.5342,5.80513,15.0139,6.65,15.3277ZM3.38752,12.75C4.06182,12.3618,4.77458,12.0447,5.51434,11.8036C5.3385,10.8794,5.25,9.94076,5.25,9C5.25,8.059239999999999,5.3385,7.12057,5.51434,6.19638C4.77458,5.95532,4.06182,5.63816,3.38752,5.25C2.64586,6.36001,2.25,7.66502,2.25,9C2.25,10.33498,2.64586,11.64,3.38752,12.75ZM4.37519,4.08333C4.85426,4.34146,5.35411,4.55903,5.86948,4.73376C6.07875,4.02839,6.33962,3.33937,6.65,2.6722900000000003C5.80513,2.98605,5.03165,3.46584,4.37519,4.08333ZM8.55,2.26502C8.03392,3.16155,7.6226,4.1144300000000005,7.32413,5.10489C7.87753,5.20145,8.43824,5.25,9,5.25C9.56176,5.25,10.12247,5.20145,10.67587,5.10489C10.3774,4.1144300000000005,9.96608,3.16155,9.45,2.26502C9.30021,2.25501,9.15012,2.25,9,2.25C8.84988,2.25,8.69979,2.25501,8.55,2.26502ZM11.35,2.6722799999999998C11.6604,3.33937,11.9213,4.02839,12.1305,4.73376C12.6459,4.55903,13.1457,4.34146,13.6248,4.08333C12.9683,3.46583,12.1949,2.98605,11.35,2.6722799999999998ZM9,11.25C9.68041,11.25,10.35943,11.3117,11.0287,11.4344C11.1759,10.63131,11.25,9.8165,11.25,9C11.25,8.1835,11.1759,7.36869,11.0287,6.56557C10.35943,6.68827,9.68041,6.75,9,6.75C8.31958,6.75,7.64057,6.68827,6.97131,6.56557C6.82407,7.36869,6.75,8.1835,6.75,9C6.75,9.8165,6.82407,10.63131,6.97131,11.4344C7.64057,11.3117,8.31958,11.25,9,11.25Z" fill-rule="evenodd"></path></symbol>
</svg>