<svg xmlns="http://www.w3.org/2000/svg" xmlns:xlink="http://www.w3.org/1999/xlink" style="position: absolute; width: 0; height: 0" aria-hidden="true" id="__SVG_SPRITE_NODE__">
<symbol xmlns="http://www.w3.org/2000/svg" viewBox="0 0 16 16" id="timecard_repeat"><path d="M10.47172668653488,5.219836548805237L11.885966686534882,3.805616548805237C12.146266686534881,3.5452765488052367,12.146266686534881,3.123166548805237,11.885966686534882,2.862816548805237L10.47172668653488,1.4485985488052369C10.211376686534882,1.1882492488052367,9.789266686534882,1.1882492488052367,9.528916686534881,1.4485985488052369C9.268566686534882,1.7089485488052367,9.268566686534882,2.1310585488052367,9.528916686534881,2.3914065488052367L9.804426686534882,2.666906548805237L5.999996686534882,2.666906548805237C3.0544766865348816,2.666906548805237,0.6666666865348816,5.054726548805236,0.6666666865348816,8.000246548805237C0.6666666865348816,8.997016548805238,0.9401106865348816,9.929926548805236,1.4160776865348816,10.728036548805237C1.6215146865348817,11.072526548805238,2.0850666865348817,11.086786548805236,2.3686766865348816,10.803176548805236C2.6069666865348813,10.564886548805237,2.6233366865348815,10.186186548805237,2.4622266865348816,9.890196548805237Q1.9999966865348815,9.040956548805237,1.9999966865348815,8.000246548805237Q1.9999966865348815,6.343386548805237,3.171576686534882,5.1718165488052374Q4.343146686534881,4.000246548805237,5.999996686534882,4.000246548805237L9.805706686534881,4.000246548805237L9.528916686534881,4.277026548805237C9.268566686534882,4.537376548805237,9.268566686534882,4.959486548805237,9.528916686534881,5.219836548805237C9.789266686534882,5.480186548805237,10.211376686534882,5.480186548805237,10.47172668653488,5.219836548805237ZM13.537766686534882,6.110306548805236C13.376666686534882,5.814316548805237,13.393066686534882,5.435626548805237,13.631366686534882,5.197336548805237C13.914966686534882,4.913726548805236,14.378466686534882,4.927976548805237,14.58396668653488,5.2724665488052365C15.059866686534882,6.070576548805237,15.333366686534882,7.003476548805237,15.333366686534882,8.000246548805237C15.333366686534882,10.945766548805237,12.945566686534882,13.333536548805236,9.999996686534882,13.333536548805236L6.197016686534882,13.333536548805236L6.471886686534882,13.608436548805237C6.732236686534882,13.868836548805238,6.732236686534882,14.290936548805236,6.471886686534882,14.551236548805237C6.211536686534882,14.811636548805236,5.789426686534882,14.811636548805236,5.529076686534881,14.551236548805237L4.114856686534882,13.137036548805236C3.8545066865348816,12.876736548805237,3.8545066865348816,12.454536548805237,4.114856686534882,12.194236548805236L5.529076686534881,10.779996548805237C5.789426686534882,10.519646548805238,6.211536686534882,10.519646548805238,6.471886686534882,10.779996548805237C6.732236686534882,11.040346548805237,6.732236686534882,11.462436548805236,6.471886686534882,11.722836548805237L6.194456686534882,12.000236548805237L9.999996686534882,12.000236548805237Q11.656866686534881,12.000236548805237,12.828466686534881,10.828676548805237Q13.999966686534881,9.657096548805237,13.999966686534881,8.000246548805237Q13.999966686534881,6.959546548805236,13.537766686534882,6.110306548805236Z" fill-rule="evenodd"></path></symbol>
</svg>