<svg xmlns="http://www.w3.org/2000/svg" xmlns:xlink="http://www.w3.org/1999/xlink" style="position: absolute; width: 0; height: 0" aria-hidden="true" id="__SVG_SPRITE_NODE__">
<symbol xmlns="http://www.w3.org/2000/svg" viewBox="0 0 24 24" id="title-stopwatch"><defs><clipPath id="title-stopwatch_a"><rect x="1.263" width="20.923" height="24" rx="0"></rect></clipPath></defs><g style="mix-blend-mode:passthrough"><g clip-path="url(#title-stopwatch_a)"><path d="M16.032357844543455,1.23077C16.032357844543455,0.551034,15.481357844543457,0,14.801657844543458,0L8.647767844543457,0C7.968037844543457,0,7.417007844543457,0.551034,7.417007844543457,1.23077C7.417007844543457,1.9105,7.968037844543457,2.46154,8.647767844543457,2.46154L10.493927844543457,2.46154L10.494207844543457,3.14852C5.296327844543457,3.75754,1.263157844543457,8.177,1.263157844543457,13.5385C1.263157844543457,19.3162,5.946947844543457,24,11.724657844543456,24C17.502457844543457,24,22.18625784454346,19.3162,22.18625784454346,13.5385L22.184357844543456,13.3397C22.086157844543457,8.06831,18.088957844543458,3.75034,12.955757844543458,3.1486L12.955457844543457,2.46154L14.801657844543458,2.46154C15.481357844543457,2.46154,16.032357844543455,1.9105,16.032357844543455,1.23077ZM10.852937844543456,9.76394L10.852937844543456,14.646C10.852937844543456,15.2178,11.311757844543457,15.6825,11.881257844543457,15.692C11.895757844543457,15.6926,11.910257844543457,15.6929,11.924957844543457,15.6929L15.063457844543457,15.6928C15.641157844543457,15.6928,16.109557844543456,15.2245,16.109557844543456,14.6467C16.109557844543456,14.0689,15.641157844543457,13.6006,15.063457844543457,13.6006L12.945257844543457,13.6006L12.945257844543457,9.76394C12.945257844543457,9.18616,12.476857844543456,8.71777,11.899057844543456,8.71777C11.321357844543456,8.71777,10.852937844543456,9.18616,10.852937844543456,9.76394Z" fill-rule="evenodd"></path></g></g></symbol>
<symbol xmlns="http://www.w3.org/2000/svg" viewBox="0 0 24 24" id="title-tomato"><g style="mix-blend-mode:passthrough"><path d="M12.548877670574187,0.38546594203090667C12.519677670574188,0.3499309420309067,12.486977670574188,0.3173199420309067,12.451477670574189,0.2880909420309067C12.148477670574188,0.038808342030906676,11.700677670574189,0.08240434203090669,11.451377670574189,0.38546594203090667L10.101577670574189,2.026474942030907C9.980287670574189,2.1739249420309066,9.804757670574189,2.266364942030907,9.614547670574188,2.2829449420309067L7.192317670574188,2.494124942030907C6.991057670574188,2.511674942030907,6.810807670574188,2.6257549420309068,6.708817670574188,2.8001449420309066C6.535167670574189,3.0970549420309066,6.635087670574189,3.4785049420309067,6.931997670574188,3.6521549420309065L8.145357670574189,4.361794942030906C8.42546767057419,4.525614942030907,8.558997670574188,4.858404942030907,8.469807670574188,5.170414942030907L8.186897670574188,6.160104942030907C8.148607670574188,6.294044942030907,8.150537670574188,6.436284942030906,8.19244767057419,6.569134942030907C8.310497670574188,6.9433649420309065,8.709567670574188,7.151054942030907,9.083807670574188,7.033004942030907L11.358877670574188,6.315354942030907C11.776277670574189,6.183704942030906,12.223977670574188,6.183704942030906,12.641377670574188,6.315354942030907L14.916477670574189,7.033004942030907C15.049277670574188,7.074904942030907,15.191577670574189,7.0768349420309065,15.325477670574188,7.0385449420309065C15.702777670574187,6.9306949420309065,15.921177670574188,6.537404942030907,15.813377670574189,6.160104942030907L15.530477670574188,5.170414942030907C15.441277670574188,4.858404942030907,15.574777670574187,4.525614942030907,15.854877670574188,4.361794942030906L17.068277670574187,3.6521549420309065C17.24267767057419,3.5501649420309067,17.35677767057419,3.3699149420309067,17.374277670574187,3.1686549420309067C17.40417767057419,2.8259949420309067,17.150577670574187,2.5240049420309068,16.80797767057419,2.494124942030907L14.385677670574188,2.2829449420309067C14.195477670574189,2.266364942030907,14.019977670574189,2.1739249420309066,13.898677670574187,2.026474942030907L12.548877670574187,0.38546594203090667ZM23.368377670574187,12.507284942030907C23.368377670574187,8.996454942030907,21.943277670574187,5.857364942030907,19.49727767057419,3.7717949420309065C19.360677670574187,4.052594942030907,19.196177670574187,4.356924942030907,19.003877670574187,4.684764942030907C18.71947767057419,5.1695749420309065,18.58527767057419,5.727824942030907,18.618077670574188,6.288924942030906L18.62537767057419,6.584984942030907C18.619877670574187,7.067314942030906,18.527077670574187,7.494074942030907,18.346777670574188,7.865264942030906C17.58557767057419,9.432464942030906,15.780277670574188,10.284884942030907,14.062077670574189,9.742884942030907L13.656677670574188,9.628314942030906C13.112877670574187,9.492524942030906,12.556377670574188,9.424664942030907,11.999977670574188,9.424724942030906L11.583577670574188,9.437414942030907C11.166877670574188,9.462844942030907,10.751877670574189,9.526474942030907,10.343997670574188,9.628314942030906L9.703927670574188,9.808214942030906C8.058467670574188,10.205884942030906,6.380517670574188,9.361224942030907,5.6539276705741885,7.865264942030906C5.473647670574188,7.494074942030907,5.380787670574188,7.067314942030906,5.375367670574188,6.584984942030907L5.3864976705741885,6.048824942030906C5.374037670574189,5.569824942030906,5.240577670574188,5.100314942030907,4.996817670574188,4.684764942030907C4.805147670574188,4.358024942030907,4.641157670574188,4.054654942030907,4.505427670574188,3.7744349420309065C2.058927670574188,5.859814942030907,0.6315776705741882,8.997824942030906,0.6315776705741882,12.507284942030907C0.6315776705741882,18.785884942030908,5.721397670574188,23.875684942030908,11.999977670574188,23.875684942030908C18.278577670574187,23.875684942030908,23.368377670574187,18.785884942030908,23.368377670574187,12.507284942030907Z" fill-rule="evenodd"></path></g></symbol>
</svg>