<svg xmlns="http://www.w3.org/2000/svg" xmlns:xlink="http://www.w3.org/1999/xlink" style="position: absolute; width: 0; height: 0" aria-hidden="true" id="__SVG_SPRITE_NODE__">
<symbol xmlns="http://www.w3.org/2000/svg" viewBox="0 0 24 24" id="tomato-outline"><path d="M12.565899988079071,0.7732129999999999C12.53559998807907,0.7357549999999999,12.50189998807907,0.7013780000000001,12.465099988079071,0.670566C12.15129998807907,0.4077873,11.687799988079071,0.45374369999999997,11.42969998807907,0.7732129999999999L10.032379988079072,2.50306C9.906819988079071,2.6585,9.72510998807907,2.75594,9.528199988079072,2.77343L7.020639988079071,2.99604C6.812289988079071,3.01454,6.625699988079071,3.1348,6.520109988079071,3.31863C6.340349988079071,3.63161,6.443789988079071,4.033720000000001,6.751149988079071,4.21676L8.00724998807907,4.96483C8.29722998807907,5.13752,8.43545998807907,5.48833,8.34312998807907,5.81722L8.05025998807907,6.86049C8.010619988079071,7.00169,8.01261998807907,7.15163,8.055999988079071,7.29167C8.178209988079072,7.68617,8.59133998807907,7.90509,8.978759988079071,7.78065L11.333999988079071,7.02415C11.765999988079072,6.88537,12.229599988079071,6.88537,12.661599988079072,7.02415L15.016899988079071,7.78065C15.15439998807907,7.82483,15.30159998807907,7.82686,15.44029998807907,7.7865C15.830899988079072,7.67281,16.05699998807907,7.25822,15.945399988079071,6.86049L15.652499988079072,5.81722C15.560199988079072,5.48833,15.698399988079071,5.13752,15.98839998807907,4.96483L17.24449998807907,4.21676C17.424999988079072,4.109249999999999,17.54309998807907,3.91925,17.56129998807907,3.70709C17.59219998807907,3.34588,17.32969998807907,3.02753,16.97499998807907,2.99604L14.467399988079071,2.77343C14.27049998807907,2.75594,14.08879998807907,2.6585,13.96319998807907,2.50306L12.565899988079071,0.7732129999999999ZM19.39979998807907,5.27002Q21.254299988079072,6.70078,22.27009998807907,8.76153Q23.295499988079072,10.8419,23.295499988079072,13.2217Q23.295499988079072,15.3396,22.39219998807907,17.2721Q21.52519998807907,19.127,19.95029998807907,20.552Q18.38629998807907,21.9672,16.363599988079073,22.7413Q14.277699988079071,23.5397,11.997799988079072,23.5397Q9.717869988079071,23.5397,7.631979988079071,22.7413Q5.609199988079071,21.9672,4.045199988079071,20.552Q2.4703799880790713,19.127,1.6033339880790711,17.2721Q0.699999988079071,15.3396,0.699999988079071,13.2217Q0.699999988079071,10.8429,1.726739988079071,8.76254Q2.743249988079071,6.70287,4.59828998807907,5.2721C4.773269988079071,5.13714,4.988029988079071,5.06394,5.209019988079071,5.06394C5.761309988079071,5.06394,6.209019988079071,5.51165,6.209019988079071,6.06394C6.209019988079071,6.37395,6.065239988079071,6.66644,5.819079988079071,6.85629Q4.331459988079072,8.003910000000001,3.520209988079071,9.64767Q2.699999988079071,11.3096,2.699999988079071,13.2217Q2.699999988079071,14.8952,3.415159988079071,16.4252Q4.1113999880790715,17.9147,5.387099988079071,19.069Q6.673599988079071,20.2331,8.346849988079072,20.8735Q10.087519988079071,21.5397,11.997799988079072,21.5397Q13.907999988079071,21.5397,15.648699988079072,20.8735Q17.32189998807907,20.2331,18.60839998807907,19.069Q19.884099988079072,17.9147,20.580399988079073,16.4252Q21.295499988079072,14.8952,21.295499988079072,13.2217Q21.295499988079072,11.3081,20.47619998807907,9.64579Q19.66539998807907,8.001000000000001,18.178099988079072,6.85351C17.932699988079072,6.66417,17.78899998807907,6.37173,17.78899998807907,6.06177C17.78899998807907,5.50948,18.23669998807907,5.06177,18.78899998807907,5.06177C19.00999998807907,5.06177,19.22479998807907,5.135,19.39979998807907,5.27002Z" fill-rule="evenodd"></path></symbol>
<symbol xmlns="http://www.w3.org/2000/svg" viewBox="0 0 36 36" id="tomato"><path d="M25.9137761,8.77924628 C28.4956642,10.9806832 30,14.2941687 30,18 C30,24.627417 24.627417,30 18,30 C11.372583,30 6,24.627417 6,18 C6,14.2956143 7.50664197,10.9832684 10.0890642,8.78203945 C10.2323325,9.07781952 10.4054383,9.39805201 10.6077508,9.74294364 C10.8650527,10.1815784 11.0059247,10.6771643 11.0190838,11.1827851 L11.0073305,11.7487292 C11.0130597,12.2578553 11.1110742,12.7083215 11.3013741,13.100128 C12.0683303,14.6792057 13.8394977,15.5708135 15.5763663,15.1510212 L16.2519983,14.9611251 C16.6825487,14.8536303 17.1205678,14.7864632 17.5604517,14.7596238 L18,14.746227 C18.5873393,14.746166 19.1746842,14.8177987 19.7487514,14.9611251 L20.1766047,15.0820624 C21.9902923,15.6541696 23.8958976,14.7543999 24.6993755,13.100128 C24.8896754,12.7083215 24.98769,12.2578553 24.9934192,11.7487292 L24.9857813,11.4362145 C24.9511018,10.8439417 25.0928133,10.2546842 25.3929989,9.74294364 C25.595996,9.39688486 25.7695884,9.07565241 25.9137761,8.77924628 Z M18.476442,5.10140011 C18.5139506,5.13225273 18.5483736,5.16667575 18.5792262,5.20418428 L20.0040231,6.93635664 C20.1320506,7.09200381 20.3173325,7.18957569 20.5181076,7.20708029 L23.0749088,7.42999527 C23.4366007,7.46152942 23.7042465,7.78030214 23.6727123,8.14199408 C23.6541905,8.35443711 23.5337708,8.54469694 23.3496929,8.65235588 L22.068925,9.40141995 C21.7732512,9.57434643 21.6323041,9.92562173 21.7264473,10.2549599 L22.0250728,11.2996322 C22.1389181,11.6978936 21.9083533,12.1130381 21.5100919,12.2268833 C21.3687111,12.2672979 21.218569,12.2652611 21.0783365,12.2210263 L18.6768611,11.4635081 C18.2363192,11.3245442 17.7636808,11.3245442 17.3231389,11.4635081 L14.9216635,12.2210263 C14.5266369,12.345633 14.1053909,12.1264143 13.9807842,11.7313877 C13.9365494,11.5911551 13.9345127,11.4410131 13.9749272,11.2996322 L14.2735527,10.2549599 C14.3676959,9.92562173 14.2267488,9.57434643 13.931075,9.40141995 L12.6503071,8.65235588 C12.3369079,8.46906266 12.2314362,8.0664139 12.4147294,7.75301471 C12.5223883,7.56893685 12.7126482,7.44851714 12.9250912,7.42999527 L15.4818924,7.20708029 C15.6826675,7.18957569 15.8679494,7.09200381 15.9959769,6.93635664 L17.4207738,5.20418428 C17.6839055,4.88428649 18.1565442,4.83826845 18.476442,5.10140011 Z" fill-rule="evenodd"></path></symbol>
</svg>