<svg xmlns="http://www.w3.org/2000/svg" xmlns:xlink="http://www.w3.org/1999/xlink" style="position: absolute; width: 0; height: 0" aria-hidden="true" id="__SVG_SPRITE_NODE__">
<symbol xmlns="http://www.w3.org/2000/svg" viewBox="0 0 24 24" id="tomorrow-list"><path d="M12.9993,3.548939985694885L16.2473,6.796819985694885C16.4348,6.984359985694885,16.6892,7.089649985694885,16.9544,7.089649985694885C17.2196,7.089649985694885,17.474,6.984359985694885,17.6615,6.796819985694885C17.849,6.609289985694885,17.9543,6.354979985694885,17.9543,6.089759985694886C17.9543,5.824539985694885,17.849,5.570139985694885,17.6615,5.382609985694885L12.7185,0.43971898569488527L12.7118,0.43292198569488527C12.5968,0.3179029856948853,12.4554,0.23267878569488526,12.3,0.18463768569488526L12.2982,0.18406688569488525C12.2031,0.15485228569488527,12.1041,0.13999998569488525,12.0046,0.13999998569488525C11.7394,0.13999998569488525,11.485,0.24535598569488526,11.2975,0.43289298569488527L11.2883,0.44224898569488524L6.34782,5.3826499856948855C6.16029,5.570189985694885,6.05499,5.824499985694885,6.05499,6.089709985694885C6.05499,6.354929985694885,6.16029,6.6093299856948855,6.34782,6.796859985694885C6.53536,6.9843999856948855,6.7898,7.0897399856948855,7.05502,7.0897399856948855C7.32023,7.0897399856948855,7.5745,6.9843999856948855,7.76204,6.796869985694885L10.9993,3.5596099856948853L10.9993,8.726059985694885C10.9993,8.839749985694885,11.0183,8.948999985694885,11.0533,9.050839985694886Q8.59276,9.321339985694886,6.6802,11.027399985694885Q4.41746,13.045699985694885,4.05786,16.042599985694885Q4,16.512099985694885,4,16.990099985694886L4.00001,17.000499985694884L4,17.010099985694886Q4,17.487599985694885,4.05749,17.954099985694885Q4.32343,20.170399985694885,5.62791,21.850899985694884L3.25,21.850899985694884Q3.15151,21.850899985694884,3.05491,21.870199985694885Q2.95831,21.889399985694887,2.86732,21.927099985694884Q2.77632,21.964699985694885,2.69443,22.019499985694885Q2.61254,22.074199985694886,2.54289,22.143799985694884Q2.47325,22.213499985694884,2.41853,22.295399985694885Q2.36381,22.377299985694886,2.32612,22.468299985694884Q2.28843,22.559199985694885,2.26921,22.655799985694884Q2.25,22.752399985694886,2.25,22.850899985694884Q2.25,22.949399985694885,2.26921,23.045999985694884Q2.28843,23.142599985694886,2.32612,23.233599985694884Q2.36381,23.324599985694885,2.41853,23.406499985694886Q2.47325,23.488399985694887,2.54289,23.557999985694885Q2.61254,23.627699985694885,2.69443,23.682399985694886Q2.77632,23.737099985694886,2.86732,23.774799985694884Q2.95831,23.812499985694885,3.05491,23.831699985694886Q3.15151,23.850899985694884,3.25,23.850899985694884L20.75,23.850899985694884Q20.8485,23.850899985694884,20.9451,23.831699985694886Q21.0417,23.812499985694885,21.1327,23.774799985694884Q21.2237,23.737099985694886,21.3056,23.682399985694886Q21.3875,23.627699985694885,21.4571,23.557999985694885Q21.5267,23.488399985694887,21.5815,23.406499985694886Q21.6362,23.324599985694885,21.6739,23.233599985694884Q21.7116,23.142599985694886,21.7308,23.045999985694884Q21.75,22.949399985694885,21.75,22.850899985694884Q21.75,22.752399985694886,21.7308,22.655799985694884Q21.7116,22.559199985694885,21.6739,22.468299985694884Q21.6362,22.377299985694886,21.5815,22.295399985694885Q21.5267,22.213499985694884,21.4571,22.143799985694884Q21.3875,22.074199985694886,21.3056,22.019499985694885Q21.2237,21.964699985694885,21.1327,21.927099985694884Q21.0417,21.889399985694887,20.9451,21.870199985694885Q20.8485,21.850899985694884,20.75,21.850899985694884L18.3609,21.850899985694884Q18.5736,21.570399985694884,18.7648,21.267499985694887C18.7769,21.250699985694887,18.7885,21.233499985694884,18.7995,21.215899985694886Q20,19.298499985694885,20,17.009399985694884L20,17.000599985694887L20,16.989599985694884Q20,14.701199985694885,18.7995,12.783799985694886C18.7885,12.766199985694886,18.7769,12.748999985694885,18.7648,12.732199985694885Q17.6921,11.032899985694884,15.9436,10.039279985694884Q14.5294,9.235629985694885,12.9445,9.053339985694885C12.98,8.950799985694886,12.9993,8.840679985694885,12.9993,8.726059985694885L12.9993,3.548939985694885ZM15.5318,21.850899985694884Q16.4533,21.182599985694885,17.0735,20.199899985694884L17.1072,20.146699985694884L17.1224,20.125599985694887Q18,18.706699985694886,18,17.009399985694884L18,17.002299985694886L18,16.988199985694884Q18,15.292999985694886,17.1224,13.874099985694885L17.1072,13.853099985694886L17.0735,13.799799985694886Q16.2683,12.524199985694885,14.9555,11.778099985694885Q13.5859,10.999899985694885,12,10.999899985694885Q9.71554,10.999899985694885,8.01153,12.519899985694884Q6.31312,14.034899985694885,6.04361,16.280899985694884Q6,16.634799985694887,6,16.990099985694886L6.00001,16.999299985694886L6,17.011299985694887Q6,17.364899985694887,6.04247,17.709499985694887Q6.31312,19.964899985694885,8.01153,21.479899985694885Q8.23405,21.678399985694885,8.46648,21.850899985694884L15.5318,21.850899985694884ZM1.70711,10.347099985694886L2.41421,11.054199985694884Q2.55487,11.194899985694885,2.73864,11.270999985694885Q2.92241,11.347099985694886,3.12132,11.347099985694886Q3.32023,11.347099985694886,3.504,11.270999985694885Q3.68777,11.194899985694885,3.82843,11.054199985694884Q3.96908,10.913599985694885,4.0452,10.729799985694886Q4.12132,10.545999985694886,4.12132,10.347099985694886Q4.12132,10.148199985694886,4.0452,9.964419985694885Q3.96908,9.780649985694886,3.82843,9.639999985694885L3.12132,8.932889985694885Q3.05168,8.863249985694885,2.96978,8.808529985694886Q2.88789,8.753809985694886,2.7969,8.716119985694885Q2.7059,8.678429985694885,2.6093,8.659209985694885Q2.5127,8.639999985694885,2.41421,8.639999985694885Q2.31572,8.639999985694885,2.21912,8.659209985694885Q2.12252,8.678429985694885,2.03153,8.716119985694885Q1.94054,8.753809985694886,1.85864,8.808529985694886Q1.77675,8.863249985694885,1.70711,8.932889985694885Q1.56645,9.073549985694886,1.49033,9.257319985694885Q1.41421,9.441089985694886,1.41421,9.639999985694885Q1.41421,9.838909985694885,1.49033,10.022679985694886Q1.56645,10.206499985694885,1.70711,10.347099985694886ZM22.2929,10.347099985694886L21.5858,11.054199985694884Q21.4451,11.194899985694885,21.2614,11.270999985694885Q21.0776,11.347099985694886,20.8787,11.347099985694886Q20.6798,11.347099985694886,20.496,11.270999985694885Q20.3122,11.194899985694885,20.1716,11.054199985694884Q20.0309,10.913599985694885,19.9548,10.729799985694886Q19.8787,10.545999985694886,19.8787,10.347099985694886Q19.8787,10.148199985694886,19.9548,9.964419985694885Q20.0309,9.780649985694886,20.1716,9.639999985694885L20.8787,8.932889985694885Q20.9483,8.863249985694885,21.0302,8.808529985694886Q21.1121,8.753809985694886,21.2031,8.716119985694885Q21.2941,8.678429985694885,21.3907,8.659209985694885Q21.4873,8.639999985694885,21.5858,8.639999985694885Q21.6843,8.639999985694885,21.7809,8.659209985694885Q21.8775,8.678429985694885,21.9685,8.716119985694885Q22.0595,8.753809985694886,22.1414,8.808529985694886Q22.2232,8.863249985694885,22.2929,8.932889985694885Q22.4335,9.073549985694886,22.5097,9.257319985694885Q22.5858,9.441089985694886,22.5858,9.639999985694885Q22.5858,9.838909985694885,22.5097,10.022679985694886Q22.4335,10.206499985694885,22.2929,10.347099985694886ZM1,17.225899985694884L2,17.225899985694884Q2.09849,17.225899985694884,2.19509,17.206699985694886Q2.29169,17.187499985694885,2.38268,17.149799985694884Q2.47368,17.112099985694886,2.55557,17.057399985694886Q2.63746,17.002699985694885,2.70711,16.932999985694885Q2.77675,16.863399985694887,2.83147,16.781499985694886Q2.88619,16.699599985694885,2.92388,16.608599985694884Q2.96157,16.517599985694886,2.98078,16.420999985694884Q3,16.324399985694885,3,16.225899985694884Q3,16.127399985694886,2.98078,16.030799985694884Q2.96157,15.934199985694885,2.92388,15.843299985694886Q2.88619,15.752299985694885,2.83147,15.670399985694885Q2.77675,15.588499985694884,2.70711,15.518799985694885Q2.63746,15.449199985694886,2.55557,15.394499985694885Q2.47368,15.339699985694885,2.38268,15.302099985694886Q2.29169,15.264399985694885,2.19509,15.245199985694885Q2.09849,15.225899985694886,2,15.225899985694886L1,15.225899985694886Q0.901509,15.225899985694886,0.80491,15.245199985694885Q0.708311,15.264399985694885,0.617316,15.302099985694886Q0.526322,15.339699985694885,0.44443,15.394499985694885Q0.362537,15.449199985694886,0.292893,15.518799985694885Q0.223249,15.588499985694884,0.16853,15.670399985694885Q0.113811,15.752299985694885,0.0761205,15.843299985694886Q0.0384294,15.934199985694885,0.0192147,16.030799985694884Q0,16.127399985694886,0,16.225899985694884Q0,16.324399985694885,0.0192147,16.420999985694884Q0.0384294,16.517599985694886,0.0761205,16.608599985694884Q0.113811,16.699599985694885,0.16853,16.781499985694886Q0.223249,16.863399985694887,0.292893,16.932999985694885Q0.362537,17.002699985694885,0.44443,17.057399985694886Q0.526322,17.112099985694886,0.617316,17.149799985694884Q0.708311,17.187499985694885,0.80491,17.206699985694886Q0.901509,17.225899985694884,1,17.225899985694884ZM22,17.225899985694884L23,17.225899985694884Q23.0985,17.225899985694884,23.1951,17.206699985694886Q23.2917,17.187499985694885,23.3827,17.149799985694884Q23.4737,17.112099985694886,23.5556,17.057399985694886Q23.6375,17.002699985694885,23.7071,16.932999985694885Q23.7767,16.863399985694887,23.8315,16.781499985694886Q23.8862,16.699599985694885,23.9239,16.608599985694884Q23.9616,16.517599985694886,23.9808,16.420999985694884Q24,16.324399985694885,24,16.225899985694884Q24,16.127399985694886,23.9808,16.030799985694884Q23.9616,15.934199985694885,23.9239,15.843299985694886Q23.8862,15.752299985694885,23.8315,15.670399985694885Q23.7767,15.588499985694884,23.7071,15.518799985694885Q23.6375,15.449199985694886,23.5556,15.394499985694885Q23.4737,15.339699985694885,23.3827,15.302099985694886Q23.2917,15.264399985694885,23.1951,15.245199985694885Q23.0985,15.225899985694886,23,15.225899985694886L22,15.225899985694886Q21.9015,15.225899985694886,21.8049,15.245199985694885Q21.7083,15.264399985694885,21.6173,15.302099985694886Q21.5263,15.339699985694885,21.4444,15.394499985694885Q21.3625,15.449199985694886,21.2929,15.518799985694885Q21.2232,15.588499985694884,21.1685,15.670399985694885Q21.1138,15.752299985694885,21.0761,15.843299985694886Q21.0384,15.934199985694885,21.0192,16.030799985694884Q21,16.127399985694886,21,16.225899985694884Q21,16.324399985694885,21.0192,16.420999985694884Q21.0384,16.517599985694886,21.0761,16.608599985694884Q21.1138,16.699599985694885,21.1685,16.781499985694886Q21.2232,16.863399985694887,21.2929,16.932999985694885Q21.3625,17.002699985694885,21.4444,17.057399985694886Q21.5263,17.112099985694886,21.6173,17.149799985694884Q21.7083,17.187499985694885,21.8049,17.206699985694886Q21.9015,17.225899985694884,22,17.225899985694884Z" fill-rule="evenodd"></path></symbol>
</svg>