<svg xmlns="http://www.w3.org/2000/svg" xmlns:xlink="http://www.w3.org/1999/xlink" style="position: absolute; width: 0; height: 0" aria-hidden="true" id="__SVG_SPRITE_NODE__">
<symbol xmlns="http://www.w3.org/2000/svg" viewBox="0 0 30 30" id="travel-places"><g fill-rule="evenodd"><circle cx="15" cy="15" r="15" fill="none"></circle><path d="M17.9333394,7 L17.9330061,10.989 L23.6000061,10.9896667 L23.6000061,21.9896667 L22.6000061,21.989 L22.6000061,13 L22.5990061,13 L22.6000061,12 L17.9333394,12 L17.9330061,13 L16.9330061,13 L16.9333394,8 L11.9333394,8 L11.9240061,13.999 L8.6000061,14 L8.6000061,21.989 L7.6000061,21.9896667 L7.6000061,12.9896667 L10.9400061,12.989 L10.9333394,7 L17.9333394,7 Z M9.6000061,14.9896667 L10.6000061,14.9896667 L10.6000061,15.9896667 L9.6000061,15.9896667 L9.6000061,14.9896667 Z M14.9333394,11 L15.9333394,11 L15.9333394,12 L14.9333394,12 L14.9333394,11 Z M12.9333394,11 L13.9333394,11 L13.9333394,12 L12.9333394,12 L12.9333394,11 Z M20.6000061,12.9896667 L21.6000061,12.9896667 L21.6000061,13.9896667 L20.6000061,13.9896667 L20.6000061,12.9896667 Z M20.6000061,14.9896667 L21.6000061,14.9896667 L21.6000061,15.9896667 L20.6000061,15.9896667 L20.6000061,14.9896667 Z M12.9333394,8.98966667 L13.9333394,9 L13.9333394,10 L12.9333394,10 L12.9333394,8.98966667 L12.9333394,8.98966667 Z M14.9333394,9 L15.9333394,9 L15.9333394,10 L14.9333394,10 L14.9333394,9 Z M16.4750061,13.6666159 C18.1565068,13.6571552 19.5409055,14.986178 19.6000061,16.6666667 L19.6000061,17.6666667 L20.6000061,17.6666667 C20.9681959,17.6666667 21.2666728,17.9651435 21.2666728,18.3333333 L21.2666728,21 C21.2666728,21.3678517 20.9687439,21.6661184 20.6010202,21.6666659 L20.6000061,23 L18.6000061,23 L18.6000061,21.666 L12.6000061,21.666 L12.6000061,23 L10.6000061,23 L10.6000061,21.666 L10.6000061,21.6666667 C10.2318163,21.6666667 9.93333944,21.3681898 9.93333944,21 L9.93333944,18.3333333 C9.93333944,17.9651435 10.2318163,17.6666667 10.6000061,17.6666667 L11.6000061,17.6666667 L11.6000061,17.6666667 L11.6000061,16.6666667 C11.6591067,14.986178 13.0435054,13.6571552 14.7250061,13.6666159 L16.4750061,13.6666159 Z M20.6000061,20.9896667 L20.6000061,20.3333333 L18.1000061,20.333 L18.1000061,20.323 C18.1000061,20.1619169 17.9857454,20.0275209 17.8338511,19.9964388 L17.7666728,19.9896667 L13.4333394,19.9896667 C13.2492445,19.9896667 13.1000061,20.1389051 13.1000061,20.323 L13.1000061,20.323 L13.1000061,20.333 L10.6000061,20.3333333 L10.6000061,20.9896667 L20.6000061,20.9896667 Z M11.7460061,18.4063333 C11.3317925,18.4063333 10.9960061,18.7421198 10.9960061,19.1563333 C10.9960061,19.5705469 11.3317925,19.9063333 11.7460061,19.9063333 C12.1602197,19.9063333 12.4960061,19.5705469 12.4960061,19.1563333 C12.4960061,18.7421198 12.1602197,18.4063333 11.7460061,18.4063333 Z M19.4333394,18.4063333 C19.0192561,18.4065174 18.6836728,18.7422499 18.6836728,19.1563333 C18.6836728,19.5705469 19.0194592,19.9063333 19.4336728,19.9063333 C19.8478863,19.9063333 20.1836728,19.5705469 20.1836728,19.1563333 C20.1836728,18.7421198 19.8478863,18.4063333 19.4336728,18.4063333 Z M15.6000061,14.6666667 C12.7666728,14.6666667 12.6092654,15.9838169 12.6005205,17.4134551 L12.6000061,17.6666667 L18.6000061,17.6666667 C18.6000061,16.1416667 18.6000061,14.6666667 15.6000061,14.6666667 Z" fill-rule="nonzero"></path></g></symbol>
</svg>