<svg xmlns="http://www.w3.org/2000/svg" xmlns:xlink="http://www.w3.org/1999/xlink" style="position: absolute; width: 0; height: 0" aria-hidden="true" id="__SVG_SPRITE_NODE__">
<symbol xmlns="http://www.w3.org/2000/svg" viewBox="0 0 36 36" id="unarchive"><g fill-rule="evenodd"><path fill="none" d="M0 0H36V36H0z"></path><path d="M11.25,7.125 C11.6642136,7.125 12,7.46078644 12,7.875 L12,9.375 C12,9.78921356 11.6642136,10.125 11.25,10.125 L10.56825,10.125 L7.63875,18.75 L12,18.75 C12,19.9482607 12.93669,20.9277457 14.1177954,20.9961805 L14.25,21 L21.75,21 C22.9482607,21 23.9277457,20.06331 23.9961805,18.8822046 L24,18.75 L28.3605,18.75 L25.431,10.125 L24.75,10.125 C24.3357864,10.125 24,9.78921356 24,9.375 L24,7.875 C24,7.46078644 24.3357864,7.125 24.75,7.125 L26.0108286,7.125 C26.9905809,7.125 27.8520616,7.75796775 28.1509941,8.68049307 L31.5,18.9021813 L31.5,27.75 C31.5,28.9482607 30.56331,29.9277457 29.3822046,29.9961805 L29.25,30 L6.75,30 C5.50735931,30 4.5,28.9926407 4.5,27.75 L4.5,18.9021813 L7.81177094,8.80805451 C8.06986634,7.81681805 8.96488485,7.125 9.98917141,7.125 L11.25,7.125 Z M9.942,21.75 L7.5,21.75 L7.5,27 L28.5,27 L28.5,21.75 L26.058,21.75 L26.021443,21.8032909 C25.0999705,23.0900997 23.6127638,23.9398603 21.9309249,23.9969344 L21.75,24 L14.25,24 L14.0311586,23.9949292 L13.9442625,23.9911573 C12.3180777,23.896934 10.8975052,23.067159 10.0014239,21.8345763 L9.942,21.75 Z M18.7433961,19.1241798 C19.1539624,19.1241798 19.4867921,18.7883934 19.4867921,18.3741798 L19.4867417,11.433 L21.6795571,13.6443574 C21.9699476,13.9371218 22.4405893,13.9370922 22.7309435,13.6442911 L23.7822643,12.5836309 C24.0725786,12.2907377 24.0725786,11.815864 23.7822643,11.5229708 L18.5256604,6.21966991 C18.2353462,5.9267767 17.7646538,5.9267767 17.4743396,6.21966991 L12.2177357,11.5229708 C11.9274214,11.815864 11.9274214,12.2907377 12.2177357,12.5836309 L13.2690565,13.6442911 C13.5593707,13.9371843 14.030063,13.9371843 14.3203772,13.6442911 L16.5131575,11.4315 L16.5132079,18.3741798 C16.5132079,18.7883934 16.8460376,19.1241798 17.2566039,19.1241798 L18.7433961,19.1241798 Z" fill-rule="nonzero"></path></g></symbol>
</svg>