<svg xmlns="http://www.w3.org/2000/svg" xmlns:xlink="http://www.w3.org/1999/xlink" style="position: absolute; width: 0; height: 0" aria-hidden="true" id="__SVG_SPRITE_NODE__">
<symbol xmlns="http://www.w3.org/2000/svg" viewBox="0 0 24 24" id="unpin-task"><path d="M21.49998427772522 2.300000011920929L11.99998427772522 2.300000011920929 2.50000427772522 2.300000011920929 2.50000427772522 2.298680011920929C1.8648722777252198 2.298680011920929 1.3500000277252198 1.851560011920929 1.3500000277252198 1.300000011920929 1.3500000277252198.748442011920929 1.8648722777252198.30131580192092894 2.50000427772522.30131580192092894L2.50000427772522.30000001192092896 21.49998427772522.30000001192092896 21.49998427772522.30131580192092894C22.13508427772522.30131580192092894 22.64998427772522.748442011920929 22.64998427772522 1.300000011920929 22.64998427772522 1.851560011920929 22.13508427772522 2.298680011920929 21.49998427772522 2.298680011920929L21.49998427772522 2.300000011920929zM17.318199999999997 15.2698L21 15.2698C21.2413 15.2698 21.4744 15.1826 21.6564 15.0242 22.073 14.6617 22.1169 14.0301 21.7544 13.6134L18.0301 9.55208 16.6771 10.98962 18.8045 13.26978 16.318199999999997 13.26978C15.7659 13.26978 15.3182 13.7175 15.3182 14.2698L15.3182 21.5 8.68182 21.5 8.68182 19.4846 6.68431 21.607Q6.72002 22.3666 7.26761 22.9142 7.85339 23.5 8.68182 23.5L15.3182 23.5Q16.1466 23.5 16.7324 22.9142 17.318199999999997 22.3284 17.318199999999997 21.5L17.318199999999997 15.2698zM6.68182 18.691499999999998L8.68182 16.566499999999998 8.68182 14.2698C8.68182 13.7175 8.234110000000001 13.26978 7.68182 13.26978L5.36721 13.26978 12 5.9765 15.3099 9.52416 16.6747 8.07403 12.7953 3.843628C12.7771 3.822654 12.758 3.8024620000000002 12.738 3.783081 12.5479 3.5981882 12.2921 3.4964093 12.0269 3.50012207 11.76173 3.50383472 11.50887 3.612713 11.32397 3.8028560000000002L2.283064 13.5726C2.101551 13.7593 2 14.0094 2 14.2698 2 14.8221 2.447715 15.2698 3 15.2698L6.68182 15.2698 6.68182 18.691499999999998z" fill-rule="evenodd"></path><path d="M20,5C20,5.25473,19.9028,5.49987,19.7282,5.68536L3.72896,22.6846L3.72896,22.6846C3.5392200000000003,22.8862,3.2757300000000003,23,3,23C2.447715,23,2,22.5523,2,22C2,21.7453,2.0972139,21.5001,2.2718,21.3146L2.2718,21.3146L18.2717,4.314709C18.4608,4.113849,18.7243,4,19,4C19.5523,4,20,4.447715,20,5Z" fill-rule="evenodd"></path></symbol>
</svg>