<svg xmlns="http://www.w3.org/2000/svg" xmlns:xlink="http://www.w3.org/1999/xlink" style="position: absolute; width: 0; height: 0" aria-hidden="true" id="__SVG_SPRITE_NODE__">
<symbol xmlns="http://www.w3.org/2000/svg" viewBox="0 0 48 48" id="until"><path d="M22.0026048,29.8987643 L22.0026048,35.8345198 C22.6522008,35.9433539 23.3194852,36 24,36 L24.1996267,35.9979812 C24.6558465,38.2478779 25.8674066,40.2236 27.5581328,41.6489733 C26.4081602,41.8789821 25.2182127,42 24,42 C19.750442,42 15.8448328,40.5273796 12.7656487,38.0646149 L22.0026048,29.8987643 Z M34,26 C38.418278,26 42,29.581722 42,34 C42,38.418278 38.418278,42 34,42 C29.581722,42 26,38.418278 26,34 C26,29.581722 29.581722,26 34,26 Z M36.9497475,29.636039 L34,32.5849763 L31.0502525,29.636039 L29.636039,31.0502525 L32.5857864,33.9991898 L29.636039,36.9497475 L31.0502525,38.363961 L34,35.4134034 L36.9497475,38.363961 L38.363961,36.9497475 L35.4142136,33.9991898 L38.363961,31.0502525 L36.9497475,29.636039 Z M24,6 C28.2504684,6 32.1568405,7.4732514 35.2363301,9.93696803 L26.0109754,18 L26.010159,15.2525828 C26.0100986,15.1668934 26.0100347,15.0829891 26.0099676,15.0008701 L26.009,14.1011311 L26.0088564,14.0007138 L26.0088564,14.0007138 L26.0080627,13.5387943 C26.0077201,13.3674154 26.0073472,13.2121033 26.006944,13.072858 L26.0060974,12.8157897 C26.0044715,12.3837722 26.002439,12.1677635 26,12.1677635 C25.3461249,12.0574384 24.6852579,12 24,12 C17.372583,12 12,17.372583 12,24 C12,26.5917871 12.821662,28.9916647 14.2187082,30.9533553 L9.93696803,35.2363301 C7.4732514,32.1568405 6,28.2504684 6,24 C6,14.0588745 14.0588745,6 24,6 Z M38.0646149,12.7656487 C40.5273796,15.8448328 42,19.750442 42,24 C42,25.2182127 41.8789821,26.4081602 41.6483125,27.5584762 C40.2236,25.8674066 38.2478779,24.6558465 35.9979812,24.1996267 L36,24 C36,21.4082129 35.178338,19.0083353 33.7812918,17.0466447 L38.0646149,12.7656487 Z" fill="#A3A3A3" fill-rule="evenodd"></path></symbol>
</svg>