<svg xmlns="http://www.w3.org/2000/svg" xmlns:xlink="http://www.w3.org/1999/xlink" style="position: absolute; width: 0; height: 0" aria-hidden="true" id="__SVG_SPRITE_NODE__">
<symbol id="urgency" xmlns="http://www.w3.org/2000/svg" viewBox="0 0 1024 1024"><path d="M534.7555552 147.91111147c96.11946667 0 184.7296 31.90328853 256.5916448 85.15128853l62.16817813-62.16817813a45.4656 45.4656 0 1 1 64.3527104 64.35271146l-59.392 59.43751147A430.03448853 430.03448853 0 0 1 967.11111147 580.26666667c0 238.3872-193.9683552 432.3555552-432.35555627 432.3555552S102.4 818.65386667 102.4 580.26666667 296.3683552 147.91111147 534.7555552 147.91111147z m0 91.02222186C346.5216 238.93333333 193.42222187 392.03271147 193.42222187 580.26666667S346.5216 921.6 534.7555552 921.6s341.33333333-153.09937813 341.33333333-341.33333333S722.98951147 238.93333333 534.7555552 238.93333333zM512 375.46666667a45.51111147 45.51111147 0 0 1 45.51111147 45.51111146v157.696l116.28088853 77.50542187a45.55662187 45.55662187 0 0 1-50.51733333 75.73048853l-136.53333334-91.02222186A45.51111147 45.51111147 0 0 1 466.48888853 603.02222187v-182.04444374a45.51111147 45.51111147 0 0 1 45.51111147-45.51111146z m182.0444448-364.08888854a45.51111147 45.51111147 0 1 1 0 91.02222187H375.46666667a45.51111147 45.51111147 0 1 1 0-91.02222187z" p-id="1316"></path></symbol>
</svg>