<svg xmlns="http://www.w3.org/2000/svg" xmlns:xlink="http://www.w3.org/1999/xlink" style="position: absolute; width: 0; height: 0" aria-hidden="true" id="__SVG_SPRITE_NODE__">
<symbol xmlns="http://www.w3.org/2000/svg" viewBox="0 0 48 48" id="verify"><path d="M15.3913924,2.68275228 C16.9467006,0.041689734 20.2706976,-0.790923017 22.8157474,0.82305965 C23.5468023,1.28666941 24.1610773,1.92411812 24.6078331,2.68275228 L24.6078331,2.68275228 L39.2068617,27.4733031 C40.7621699,30.1143657 39.9598258,33.5637614 37.414776,35.177744 C36.5668416,35.7154748 35.5923745,36 34.5986414,36 L34.5986414,36 L5.40058415,36 C2.41792389,36 -4.26325641e-14,33.4908593 -4.26325641e-14,30.3956773 C-4.26325641e-14,29.3644553 0.274181639,28.3532262 0.792363804,27.4733031 L0.792363804,27.4733031 Z M21.279674,3.4314597 C20.1228331,2.69783122 18.6119254,3.07629156 17.9049671,4.27677454 L17.9049671,4.27677454 L3.30593854,29.0673254 C3.07040119,29.4672904 2.94577317,29.92694 2.94577317,30.3956773 C2.94577317,31.8025782 4.04482949,32.9430967 5.40058415,32.9430967 L5.40058415,32.9430967 L34.5986414,32.9430967 C35.0503383,32.9430967 35.4932778,32.8137671 35.8787026,32.569344 C37.0355434,31.8357155 37.4002453,30.2678084 36.693287,29.0673254 L36.693287,29.0673254 L22.0942584,4.27677454 C21.8911876,3.93194083 21.6119717,3.64219141 21.279674,3.4314597 Z M20.0201556,24.8200182 C21.1739168,24.8200182 22.106745,25.7880375 22.106745,26.9853247 C22.106745,28.1826118 21.1739168,29.1506312 20.0201556,29.1506312 C18.8663945,29.1506312 17.9335663,28.1826118 17.9335663,26.9853247 C17.9335663,25.7880375 18.8663945,24.8200182 20.0201556,24.8200182 Z M20.0201556,8.58021938 C21.1739168,8.58021938 22.106745,9.54823876 22.106745,10.7455259 L21.0634503,20.4894052 C21.0634503,21.6866923 20.5970362,22.6547117 20.0201556,22.6547117 C19.443275,22.6547117 18.976861,21.6866923 18.976861,20.4894052 L17.9335663,10.7455259 C17.9335663,9.54823876 18.8663945,8.58021938 20.0201556,8.58021938 Z" transform="translate(3.632 6.17)" fill="#FFB000" fill-rule="evenodd"></path></symbol>
</svg>