<svg xmlns="http://www.w3.org/2000/svg" xmlns:xlink="http://www.w3.org/1999/xlink" style="position: absolute; width: 0; height: 0" aria-hidden="true" id="__SVG_SPRITE_NODE__">
<symbol xmlns="http://www.w3.org/2000/svg" viewBox="0 0 24 24" id="version-history"><path d="M5.5009,4.171026914138794L5.50024,1.833103914138794C5.50011,1.372958914138794,5.1270500000000006,1.000006914138794,4.6669,1.000006914138794L4.33336,1.000006914138794C3.87311,1.000006914138794,3.50001,1.373117914138794,3.50002,1.8333639141387938L3.50009,4.170656914138794C2.334853,4.582476914138794,1.5,5.693756914138794,1.5,7.000006914138794C1.5,8.306256914138794,2.334853,9.417536914138793,3.50009,9.829356914138794L3.50009,14.170706914138794C2.334853,14.582506914138794,1.5,15.693706914138794,1.5,17.000006914138794C1.5,18.306306914138794,2.334853,19.417506914138794,3.50009,19.829306914138794L3.50002,22.166606914138793C3.50001,22.626906914138793,3.87311,23.000006914138794,4.33336,23.000006914138794L4.6669,23.000006914138794C5.1270500000000006,23.000006914138794,5.50011,22.627006914138793,5.50024,22.166906914138792L5.5009,19.829006914138795C6.66562,19.416906914138792,7.5,18.305906914138795,7.5,17.000006914138794C7.5,15.694106914138795,6.66562,14.583106914138794,5.5009,14.171006914138793L5.5009,9.828986914138794C6.66562,9.416896914138794,7.5,8.305886914138794,7.5,7.000006914138794C7.5,5.694126914138794,6.66562,4.5831169141387935,5.5009,4.171026914138794ZM5.5,7.000006914138794Q5.5,7.098496914138794,5.48078,7.195096914138794Q5.46157,7.291696914138794,5.4238800000000005,7.382686914138794Q5.38619,7.473686914138794,5.3314699999999995,7.555576914138794Q5.27675,7.637466914138794,5.20711,7.707116914138794Q5.13746,7.776756914138794,5.0555699999999995,7.831476914138794Q4.97368,7.886196914138794,4.882680000000001,7.9238869141387935Q4.79169,7.961576914138794,4.69509,7.980786914138794Q4.59849,8.000006914138794,4.5,8.000006914138794Q4.40151,8.000006914138794,4.30491,7.980786914138794Q4.20831,7.961576914138794,4.117319999999999,7.9238869141387935Q4.02632,7.886196914138794,3.94443,7.831476914138794Q3.86254,7.776756914138794,3.79289,7.707116914138794Q3.72325,7.637466914138794,3.66853,7.555576914138794Q3.61381,7.473686914138794,3.57612,7.382686914138794Q3.53843,7.291696914138794,3.51921,7.195096914138794Q3.5,7.098496914138794,3.5,7.000006914138794Q3.5,6.901516914138794,3.51921,6.8049169141387935Q3.53843,6.708316914138794,3.57612,6.617326914138794Q3.61381,6.526326914138794,3.66853,6.444436914138794Q3.72325,6.362546914138794,3.79289,6.292896914138794Q3.86254,6.223256914138794,3.94443,6.168536914138794Q4.02632,6.113816914138794,4.117319999999999,6.076126914138794Q4.20831,6.038436914138794,4.30491,6.019216914138794Q4.40151,6.000006914138794,4.5,6.000006914138794Q4.59849,6.000006914138794,4.69509,6.019216914138794Q4.79169,6.038436914138794,4.882680000000001,6.076126914138794Q4.97368,6.113816914138794,5.0555699999999995,6.168536914138794Q5.13746,6.223256914138794,5.20711,6.292896914138794Q5.27675,6.362546914138794,5.3314699999999995,6.444436914138794Q5.38619,6.526326914138794,5.4238800000000005,6.617326914138794Q5.46157,6.708316914138794,5.48078,6.8049169141387935Q5.5,6.901516914138794,5.5,7.000006914138794ZM5.5,17.000006914138794Q5.5,17.098506914138795,5.48078,17.195106914138794Q5.46157,17.291706914138793,5.4238800000000005,17.382706914138794Q5.38619,17.473706914138795,5.3314699999999995,17.555606914138792Q5.27675,17.637506914138793,5.20711,17.707106914138794Q5.13746,17.776706914138796,5.0555699999999995,17.831506914138792Q4.97368,17.886206914138793,4.882680000000001,17.923906914138794Q4.79169,17.961606914138795,4.69509,17.980806914138793Q4.59849,18.000006914138794,4.5,18.000006914138794Q4.40151,18.000006914138794,4.30491,17.980806914138793Q4.20831,17.961606914138795,4.117319999999999,17.923906914138794Q4.02632,17.886206914138793,3.94443,17.831506914138792Q3.86254,17.776706914138796,3.79289,17.707106914138794Q3.72325,17.637506914138793,3.66853,17.555606914138792Q3.61381,17.473706914138795,3.57612,17.382706914138794Q3.53843,17.291706914138793,3.51921,17.195106914138794Q3.5,17.098506914138795,3.5,17.000006914138794Q3.5,16.901506914138793,3.51921,16.804906914138794Q3.53843,16.708306914138795,3.57612,16.617306914138794Q3.61381,16.526306914138793,3.66853,16.444406914138796Q3.72325,16.362506914138795,3.79289,16.292906914138793Q3.86254,16.223206914138792,3.94443,16.168506914138796Q4.02632,16.11380691413879,4.117319999999999,16.076106914138794Q4.20831,16.038406914138793,4.30491,16.019206914138792Q4.40151,16.000006914138794,4.5,16.000006914138794Q4.59849,16.000006914138794,4.69509,16.019206914138792Q4.79169,16.038406914138793,4.882680000000001,16.076106914138794Q4.97368,16.11380691413879,5.0555699999999995,16.168506914138796Q5.13746,16.223206914138792,5.20711,16.292906914138793Q5.27675,16.362506914138795,5.3314699999999995,16.444406914138796Q5.38619,16.526306914138793,5.4238800000000005,16.617306914138794Q5.46157,16.708306914138795,5.48078,16.804906914138794Q5.5,16.901506914138793,5.5,17.000006914138794Z" fill-rule="evenodd"></path><path d="M9.5 19C9.5 19.55228 9.947715 20 10.5 20L21.5 20C22.052300000000002 20 22.5 19.55228 22.5 19 22.5 18.447715 22.052300000000002 18 21.5 18L10.5 18C9.947715 18 9.5 18.447715 9.5 19zM9.5 12C9.5 12.55228 9.947715 13 10.5 13L21.5 13C22.052300000000002 13 22.5 12.55228 22.5 12 22.5 11.447715 22.052300000000002 11 21.5 11L10.5 11C9.947715 11 9.5 11.447715 9.5 12zM9.5 5C9.5 5.55228 9.947715 6 10.5 6L21.5 6C22.052300000000002 6 22.5 5.55228 22.5 5 22.5 4.447715 22.052300000000002 4 21.5 4L10.5 4C9.947715 4 9.5 4.447715 9.5 5z"></path></symbol>
</svg>