<svg xmlns="http://www.w3.org/2000/svg" xmlns:xlink="http://www.w3.org/1999/xlink" style="position: absolute; width: 0; height: 0" aria-hidden="true" id="__SVG_SPRITE_NODE__">
<symbol xmlns="http://www.w3.org/2000/svg" fill="none" viewBox="0 0 12 12" id="vip-circle"><defs><linearGradient x1=".41" y1=".413" x2=".826" y2=".882" id="vip-circle_a"><stop offset="0%" stop-color="#FFFFFF"></stop><stop offset="100%" stop-color="#FFF0CD"></stop></linearGradient></defs><circle cx="6" cy="6" fill="#FFB000" r="6"></circle><path d="M6,2.6666259765625C6.36819,2.6666259765625004,6.66667,2.9651029765625,6.66667,3.3332929765625C6.66667,3.5074449765624998,6.59989,3.6660009765625,6.49054,3.7847559765625L6.94701,4.8260259765625C7.04921,5.0590559765625,7.30507,5.1838659765625,7.55163,5.120955976562501L8.687090000000001,4.8310359765625C8.67375,4.7784459765625,8.66667,4.7233659765625,8.66667,4.6666259765625C8.66667,4.2984359765625,8.96514,3.9999559765625,9.33333,3.9999559765625C9.70152,3.9999559765625,10,4.2984359765625,10,4.6666259765625C10,5.0348159765625,9.70152,5.3332959765625,9.33333,5.3332959765625C9.28632,5.3332959765625,9.24044,5.3284259765624995,9.19618,5.3191659765625L8.55351,8.4013259765625C8.52129,8.5558759765625,8.38506,8.6666259765625,8.22719,8.6666259765625L3.77273,8.6666259765625C3.61489,8.6666259765625,3.4786900000000003,8.5559259765625,3.4464300000000003,8.4014159765625L2.803162,5.3193059765625C2.759102,5.328475976562499,2.713447,5.3332959765625,2.666667,5.3332959765625C2.298477,5.3332959765625,2,5.0348159765625,2,4.6666259765625C2.0000000000000004,4.2984359765625,2.298477,3.9999559765625,2.666667,3.9999559765625C3.03486,3.9999559765625,3.33333,4.2984359765625,3.33333,4.6666259765625C3.33333,4.7233659765625,3.32625,4.7784459765625,3.31291,4.8310359765625L4.44897,5.1210359765625C4.695539999999999,5.1838959765625,4.95138,5.0590359765625,5.05353,4.8259859765624995L5.51006,3.7854059765625C5.40036,3.6665849765625,5.33333,3.5077659765625,5.33333,3.3332929765625C5.33333,2.9651029765625,5.63181,2.6666259765625,6,2.6666259765625Z" fill-rule="evenodd" fill="url(#vip-circle_a)"></path></symbol>
<symbol xmlns="http://www.w3.org/2000/svg" viewBox="0 0 32 32" id="vip"><g fill-rule="evenodd"><path fill="none" d="M0 0H32V32H0z"></path><path d="M16.1066667,6 C17.3437845,6 18.3466667,7.00288216 18.3466667,8.24 C18.3466667,8.82515243 18.1222961,9.35790031 17.7548944,9.75690435 L19.2886358,13.2555796 C19.6320187,14.0385671 20.491706,14.4579178 21.3201373,14.2465347 L25.1353001,13.2724216 C25.0904821,13.0957186 25.0666667,12.9106405 25.0666667,12.72 C25.0666667,11.4828822 26.0695488,10.48 27.3066667,10.48 C28.5437845,10.48 29.5466667,11.4828822 29.5466667,12.72 C29.5466667,13.9571178 28.5437845,14.96 27.3066667,14.96 C27.1487035,14.96 26.9945592,14.9436492 26.845834,14.9125477 L24.6864546,25.268599 C24.5781862,25.7878839 24.1204836,26.16 23.5900321,26.16 L8.62304348,26.16 C8.09270849,26.16 7.63507289,25.7880437 7.5266843,25.2689029 L5.36529015,14.9130085 C5.21724788,14.9438107 5.06384788,14.96 4.90666667,14.96 C3.66954883,14.96 2.66666667,13.9571178 2.66666667,12.72 C2.66666667,11.4828822 3.66954883,10.48 4.90666667,10.48 C6.14378451,10.48 7.14666667,11.4828822 7.14666667,12.72 C7.14666667,12.9106405 7.12285125,13.0957186 7.07803322,13.2724216 L10.8952131,14.2468081 C11.7236927,14.4580329 12.5833055,14.0385066 12.926531,13.2554417 L14.4604702,9.75910743 C14.0918644,9.35986237 13.8666667,8.82623006 13.8666667,8.24 C13.8666667,7.00288216 14.8695488,6 16.1066667,6 Z"></path></g></symbol>
</svg>