<svg xmlns="http://www.w3.org/2000/svg" xmlns:xlink="http://www.w3.org/1999/xlink" style="position: absolute; width: 0; height: 0" aria-hidden="true" id="__SVG_SPRITE_NODE__">
<symbol xmlns="http://www.w3.org/2000/svg" viewBox="0 0 48 48" id="warning-new"><g fill-rule="evenodd"><path fill="none" d="M0 0H48V48H0z"></path><path d="M25.4832105,5.74227826 C25.907861,5.99499559 26.2620616,6.3520789 26.5127388,6.78018552 L44.9276898,38.2292509 C45.7469716,39.6284209 45.286036,41.4322367 43.8981615,42.2581862 C43.4488016,42.5256086 42.9365338,42.6666667 42.4147206,42.6666667 L5.58481863,42.6666667 C3.9731678,42.6666667 2.66666667,41.3495324 2.66666667,39.724765 C2.66666667,39.198705 2.80658603,38.682268 3.07184945,38.2292509 L21.4868004,6.78018552 C22.3060822,5.38101558 24.0953359,4.91632867 25.4832105,5.74227826 Z"></path><path d="M24.0000212,30.8990598 C25.6116721,30.8990598 26.9181732,32.2161941 26.9181732,33.8409616 C26.9181732,35.465729 25.6116721,36.7828633 24.0000212,36.7828633 C22.3883704,36.7828633 21.0818693,35.465729 21.0818693,33.8409616 C21.0818693,32.2161941 22.3883704,30.8990598 24.0000212,30.8990598 Z M25.4590972,17.1701852 L25.5706148,17.1831348 C25.7854761,17.2339523 25.9454559,17.4283925 25.9454559,17.6605022 L25.9454559,17.6605022 L25.9454559,28.4474751 L25.9326108,28.5599003 C25.8822036,28.7765103 25.689333,28.937792 25.4590972,28.937792 L25.4590972,28.937792 L22.5409452,28.937792 L22.4294277,28.9248424 C22.2145663,28.874025 22.0545866,28.6795847 22.0545866,28.4474751 L22.0545866,28.4474751 L22.0545866,17.6605022 L22.0674317,17.548077 C22.1178389,17.331467 22.3107094,17.1701852 22.5409452,17.1701852 L22.5409452,17.1701852 L25.4590972,17.1701852 Z" fill="#FFFFFF"></path></g></symbol>
<symbol xmlns="http://www.w3.org/2000/svg" viewBox="-487 489 24 24" id="warning"><path d="M-466.2,506.9l-7.6-13.2c-0.2-0.4-0.7-0.7-1.2-0.7s-0.9,0.3-1.2,0.7l-7.6,13.2c-0.2,0.4-0.2,0.9,0,1.4 c0.2,0.4,0.7,0.7,1.2,0.7h15.3c0.5,0,0.9-0.3,1.2-0.7C-465.9,507.9-465.9,507.4-466.2,506.9z M-475.5,497.7l1,0v5l-1,0V497.7z M-475,504.2c0.4,0,0.8,0.3,0.8,0.8s-0.3,0.8-0.8,0.8c-0.5,0-0.8-0.3-0.8-0.8S-475.4,504.2-475,504.2z"></path></symbol>
</svg>