<svg xmlns="http://www.w3.org/2000/svg" xmlns:xlink="http://www.w3.org/1999/xlink" style="position: absolute; width: 0; height: 0" aria-hidden="true" id="__SVG_SPRITE_NODE__">
<symbol xmlns="http://www.w3.org/2000/svg" viewBox="0 0 22 22" id="wechat-pay"><path d="M8.6,13.3C7.4,14,7.2,13,7.2,13L5.7,9.6C5.2,7.9,6.2,8.8,6.2,8.8s0.9,0.7,1.6,1.1 C8.6,10.3,9.4,10,9.4,10l9.8-4.4C17.4,3.4,14.4,2,11,2C5.5,2,1,5.8,1,10.5c0,2.7,1.5,5.1,3.8,6.7l-0.4,2.3c0,0-0.2,0.7,0.5,0.4 c0.5-0.2,1.7-1,2.4-1.5c1.1,0.4,2.4,0.6,3.7,0.6c5.5,0,10-3.8,10-8.5c0-1.4-0.4-2.7-1-3.8C16.8,8.6,9.6,12.8,8.6,13.3z" fill-rule="evenodd" clip-rule="evenodd" fill="#fff"></path></symbol>
</svg>