<svg xmlns="http://www.w3.org/2000/svg" xmlns:xlink="http://www.w3.org/1999/xlink" style="position: absolute; width: 0; height: 0" aria-hidden="true" id="__SVG_SPRITE_NODE__">
<symbol xmlns="http://www.w3.org/2000/svg" viewBox="0 0 24 24" id="weeks"><path d="M0.9999889731407166,6.00756L0.9999914035607166,17.9924C0.9999914012907165,20.2016,2.7508589731407165,22,4.9599889731407165,22C9.653328973140717,22,14.346688973140717,22,19.039988973140716,22C21.249188973140715,22,22.999988973140717,20.2016,22.999988973140717,17.9924C22.999988973140717,14.8465,22.999988973140717,11.44211,22.999988973140717,8.200009999999999L22.999988973140717,6.20001L22.999988973140717,6.00755C22.999988973140717,3.79842,21.177188973140716,2,18.968088973140716,2L4.995128973140717,2C2.7859889731407166,2,0.9999889731407166,3.79842,0.9999889731407166,6.00756ZM20.999988973140717,6.20001L20.999988973140717,5.98951C20.999988973140717,4.88494,20.113288973140715,4,19.008688973140718,4L14.996088973140717,4.00001C11.661188973140716,4.00002,8.326188973140717,4.000030000000001,4.9912389731407165,4.00001C3.8866589731407166,4.00001,2.9999889731407166,4.884930000000001,2.9999889731407166,5.98951L2.9999889731407166,6.20001L20.999988973140717,6.20001ZM2.9999789731407165,8.200009999999999L2.9999689731407164,8.70745C2.999958973140717,11.79763,2.9999389731407167,15.1333,2.9999689731407164,18.0105C2.9999889731407166,19.115,3.8866989731407164,20,4.991258973140717,20L8.165028973140718,20C11.779588973140717,20,15.394188973140716,20,19.008788973140717,20C20.113288973140715,20,20.999988973140717,19.1151,20.999988973140717,18.0105C20.999988973140717,15.0265,20.999988973140717,11.54922,20.999988973140717,8.36419L20.999988973140717,8.200009999999999L2.9999789731407165,8.200009999999999ZM10.781238973140717,16.900399999999998C10.639638973140716,17.418,10.375968973140717,17.6475,9.912098973140717,17.6475C9.448228973140717,17.6475,9.194328973140717,17.4229,9.047838973140717,16.8955L7.578108973140717,11.56348C7.529288973140717,11.38281,7.4999889731407166,11.20703,7.4999889731407166,11.0752C7.4999889731407166,10.66504,7.7783089731407165,10.41113,8.227528973140718,10.41113C8.613268973140716,10.41113,8.847648973140718,10.62598,8.935538973140716,11.0459L9.990218973140717,15.6113L10.029288973140716,15.6113L11.215788973140716,11.07031C11.328088973140716,10.61133,11.562488973140717,10.41113,11.972688973140716,10.41113C12.372988973140716,10.41113,12.617188973140717,10.62598,12.724588973140717,11.06055L13.911088973140716,15.6113L13.950188973140717,15.6113L15.004888973140716,11.0459C15.097688973140716,10.62109,15.331988973140717,10.41113,15.717788973140717,10.41113C16.166988973140718,10.41113,16.445288973140716,10.66504,16.445288973140716,11.0752C16.445288973140716,11.20215,16.415988973140717,11.37793,16.367188973140717,11.56348L14.892588973140716,16.9053C14.746088973140717,17.4229,14.492188973140717,17.6475,14.038088973140717,17.6475C13.564488973140717,17.6475,13.305688973140716,17.4277,13.164088973140716,16.900399999999998L11.992188973140717,12.7402L11.948188973140716,12.7402L10.781238973140717,16.900399999999998Z" fill-rule="evenodd"></path></symbol>
</svg>