<svg xmlns="http://www.w3.org/2000/svg" xmlns:xlink="http://www.w3.org/1999/xlink" style="position: absolute; width: 0; height: 0" aria-hidden="true" id="__SVG_SPRITE_NODE__">
<symbol xmlns="http://www.w3.org/2000/svg" viewBox="-187 189 1024 1024" id="weibo"><path d="M535,690.7c-32.5-6.3-16.7-23.8-16.7-23.8s31.8-52.5-6.3-90.7c-47.3-47.3-162.2,6-162.2,6c-43.9,13.6-32.2-6.2-26-40 c0-39.8-13.6-107.1-130.5-67.3c-116.8,40-217,180-217,180c-69.7,93-60.5,164.9-60.5,164.9c17.4,158.7,186.1,202.3,317.3,212.6 c138,10.8,324.3-47.6,380.8-167.6C670.3,744.8,567.7,697.2,535,690.7z M243.3,987.8C106.3,994.2-4.5,925.5-4.5,834 c0-91.5,110.8-164.9,247.8-171.3c137.1-6.3,248.1,50.2,248.1,141.5C491.4,895.7,380.4,981.5,243.3,987.8z"></path><path d="M216 723.1C78.1 739.2 94.1 868.3 94.1 868.3S92.7 909.1 131 930c80.6 43.7 163.7 17.2 205.6-36.9C378.6 838.8 354 707 216 723.1zM181.2 904.2c-25.7 3-46.5-11.8-46.5-33.3 0-21.4 18.4-43.9 44.2-46.6 29.6-2.8 48.8 14.2 48.8 35.7C227.7 881.5 206.8 901.3 181.2 904.2zM262.4 835c-8.7 6.5-19.4 5.6-24-2.2-4.8-7.6-3-19.8 5.8-26.2 10.2-7.6 20.8-5.4 25.4 2.2C274.3 816.6 271 828.3 262.4 835zM602.2 634.8c11.1 0 20.5-8.2 22.1-18.9.2-.8.3-1.5.3-2.4 16.8-151.3-124-125.3-124-125.3-12.5 0-22.5 10.1-22.5 22.7 0 12.4 10 22.5 22.5 22.5 101.2-22.3 78.8 78.8 78.8 78.8C579.4 624.8 589.6 634.8 602.2 634.8z"></path><path d="M585.7,370.7c-48.7-11.4-98.8-1.6-112.8,1.1c-1.1,0.1-2.1,1.1-3.1,1.3c-0.5,0.1-0.8,0.6-0.8,0.6 c-13.8,3.9-23.9,16.7-23.9,31.8c0,18,14.6,32.9,32.8,32.9c0,0,17.7-2.4,29.7-7.1c11.9-4.8,112.8-3.6,162.9,80.5 c27.3,61.4,12,102.5,10.1,109.1c0,0-6.5,16-6.5,31.7c0,18.1,14.6,29.5,32.7,29.5c15.1,0,27.9-2.1,31.6-27.7h0.2 C792.4,475.2,672.9,391,585.7,370.7z"></path></symbol>
</svg>