<svg xmlns="http://www.w3.org/2000/svg" xmlns:xlink="http://www.w3.org/1999/xlink" style="position: absolute; width: 0; height: 0" aria-hidden="true" id="__SVG_SPRITE_NODE__">
<symbol xmlns="http://www.w3.org/2000/svg" viewBox="0 0 24 24" id="with-tags"><path d="M11.15533953125,21.05481929283142L10.65973953125,20.559219292831422L12.07391953125,19.14501929283142L12.56961953125,19.64061929283142Q13.15531953125,20.22641929283142,13.98371953125,20.22641929283142Q14.81221953125,20.22641929283142,15.39801953125,19.64061929283142L19.64061953125,15.397919292831421Q20.22641953125,14.81221929283142,20.22641953125,13.98371929283142Q20.22641953125,13.155319292831422,19.64061953125,12.56961929283142L11.80391953125,4.7328192928314206Q11.27251953125,4.2014492928314215,10.52270953125,4.1514592928314205L4.83669953125,3.772389292831421Q4.38393953125,3.7422092928314212,4.06306953125,4.063069292831421Q3.7422095312500003,4.3839292928314215,3.77238953125,4.836699292831421L4.15145953125,10.52270929283142Q4.201449531250001,11.27251929283142,4.73281953125,11.80391929283142L9.21894953125,16.29001929283142L7.80474953125,17.70421929283142L3.31860953125,13.218119292831421C2.63349553125,12.53301929283142,2.22034253125,11.622489292831421,2.15589253125,10.655749292831421L1.77682379125,4.969739292831421C1.65608653125,3.1586792928314207,3.15867953125,1.6560862928314208,4.96973953125,1.7768230128314209L10.65574953125,2.1558902928314208C11.62249953125,2.220339292831421,12.53301953125,2.633492292831421,13.21811953125,3.318599292831421L21.05491953125,11.155389292831421C22.61691953125,12.71751929283142,22.61691953125,15.250119292831421,21.05491953125,16.812219292831422L16.81221953125,21.05481929283142C15.25011953125,22.616919292831422,12.71741953125,22.616919292831422,11.15533953125,21.05481929283142ZM6.62369953125,8.745039292831422C6.03791953125,8.159249292831422,6.03791953125,7.209529292831421,6.62369953125,6.6237492928314206C7.20948953125,6.037959292831421,8.159219531249999,6.0379292928314205,8.74500953125,6.623719292831421C9.330799531250001,7.2094992928314205,9.330799531250001,8.15929929283142,8.74500953125,8.74508929283142C8.159219531249999,9.330869292831421,7.20948953125,9.330829292831421,6.62369953125,8.745039292831422ZM13.20701953125,16.707119292831422C13.39451953125,16.519619292831422,13.49991953125,16.26521929283142,13.49991953125,16.00001929283142C13.49991953125,15.44771929283142,13.05211953125,15.000019292831421,12.49991953125,15.000019292831421C12.23461953125,15.000019292831421,11.98031953125,15.105319292831421,11.79241953125,15.29321929283142L6.99986953125,20.08581929283142L4.7071295312500006,17.79291929283142C4.51958953125,17.60531929283142,4.26522953125,17.50001929283142,3.99999953125,17.50001929283142C3.4477195312499997,17.50001929283142,2.9999995312500003,17.947719292831422,2.9999995312500003,18.50001929283142C2.9999995312500003,18.76521929283142,3.10534953125,19.019519292831422,3.29310953125,19.20731929283142L6.29273953125,22.207119292831422C6.48027953125,22.394619292831422,6.73462953125,22.50001929283142,6.99984953125,22.50001929283142C7.26505953125,22.50001929283142,7.51941953125,22.394619292831422,7.70694953125,22.207119292831422L13.20701953125,16.707119292831422Z" fill-rule="evenodd"></path></symbol>
</svg>