<svg xmlns="http://www.w3.org/2000/svg" xmlns:xlink="http://www.w3.org/1999/xlink" style="position: absolute; width: 0; height: 0" aria-hidden="true" id="__SVG_SPRITE_NODE__">
<symbol xmlns="http://www.w3.org/2000/svg" viewBox="0 0 24 24" id="wont-do-filled"><path d="M1,4.5L1,19.5C1,21.433,2.567,23,4.5,23L19.5,23C21.433,23,23,21.433,23,19.5L23,4.5C23,2.567,21.433,1,19.5,1L4.5,1C2.567,1,1,2.567,1,4.5ZM16.9525,15.5384L13.4168,12.0027L16.9524,8.467120000000001C17.3429,8.07659,17.3429,7.44343,16.9524,7.0529C16.5619,6.66238,15.9287,6.66238,15.5382,7.0529L12.0026,10.58847L8.46725,7.05311C8.076730000000001,6.66259,7.44356,6.66259,7.05304,7.05311C6.66252,7.44364,6.66252,8.0768,7.05304,8.46733L10.5884,12.0027L7.0529,15.5382C6.66238,15.9287,6.66238,16.5619,7.0529,16.9524C7.44343,17.3429,8.07659,17.3429,8.467120000000001,16.9524L12.0026,13.4169L15.5383,16.9526C15.9288,17.3431,16.561999999999998,17.3431,16.9525,16.9526C17.3431,16.5621,17.3431,15.9289,16.9525,15.5384Z" fill-rule="evenodd"></path></symbol>
<symbol xmlns="http://www.w3.org/2000/svg" viewBox="0 0 48 48" id="wont-do-list"><path d="M37,8 C38.6568542,8 40,9.34314575 40,11 L40,37 C40,38.6568542 38.6568542,40 37,40 L11,40 C9.34314575,40 8,38.6568542 8,37 L8,11 C8,9.34314575 9.34314575,8 11,8 L37,8 Z M19.0502525,16.2218254 C18.6597282,15.8313011 18.0265633,15.8313011 17.636039,16.2218254 L17.636039,16.2218254 L16.2218254,17.636039 C15.8313011,18.0265633 15.8313011,18.6597282 16.2218254,19.0502525 L16.2218254,19.0502525 L21.1715729,24 L16.2218254,28.9497475 C15.8313011,29.3402718 15.8313011,29.9734367 16.2218254,30.363961 L16.2218254,30.363961 L17.636039,31.7781746 C18.0265633,32.1686989 18.6597282,32.1686989 19.0502525,31.7781746 L19.0502525,31.7781746 L24,26.8284271 L28.9497475,31.7781746 C29.3402718,32.1686989 29.9734367,32.1686989 30.363961,31.7781746 L30.363961,31.7781746 L31.7781746,30.363961 C32.1686989,29.9734367 32.1686989,29.3402718 31.7781746,28.9497475 L31.7781746,28.9497475 L26.8284271,24 L31.7781746,19.0502525 C32.1686989,18.6597282 32.1686989,18.0265633 31.7781746,17.636039 L31.7781746,17.636039 L30.363961,16.2218254 C29.9734367,15.8313011 29.3402718,15.8313011 28.9497475,16.2218254 L28.9497475,16.2218254 L24,21.1715729 Z" fill-rule="evenodd"></path></symbol>
<symbol xmlns="http://www.w3.org/2000/svg" viewBox="0 0 16 16" id="wont-do"><path d="M1,3.66667L1,12.3333C1,13.8061,2.19391,15,3.66667,15L12.3333,15C13.8061,15,15,13.8061,15,12.3333L15,3.66667C15,2.19391,13.8061,1,12.3333,1L3.66667,1C2.19391,1,1,2.19391,1,3.66667ZM2.7238800000000003,13.276Q2.33333,12.8856,2.33333,12.3333L2.33333,3.66667Q2.33333,3.11438,2.72386,2.72386Q3.11438,2.33333,3.66667,2.33333L12.3333,2.33333Q12.8856,2.33343,13.2761,2.72396Q13.6667,3.11438,13.6667,3.66667L13.6667,12.3333Q13.6666,12.8855,13.2761,13.276Q12.8856,13.6667,12.3333,13.6667L3.66667,13.6667Q3.1144,13.6666,2.7238800000000003,13.276ZM6.11827,5.16903C5.85792,4.90868,5.43581,4.90868,5.17547,5.16903C4.91512,5.42938,4.91512,5.85149,5.17547,6.11184L7.0612,7.99757L5.17548,9.88329C4.9151299999999996,10.14364,4.9151299999999996,10.56575,5.17548,10.8261C5.43583,11.0864,5.85794,11.0864,6.11829,10.8261L8.004010000000001,8.940380000000001L9.88951,10.82588C10.14986,11.0862,10.57197,11.0862,10.83232,10.82588C11.0927,10.56553,11.0927,10.14342,10.83232,9.88308L8.946819999999999,7.99757L10.83233,6.11206C11.0927,5.85171,11.0927,5.4296,10.83233,5.16925C10.57198,4.9089,10.14987,4.9089,9.88952,5.16925L8.004010000000001,7.05476L6.11827,5.16903Z" fill-rule="evenodd"></path></symbol>
</svg>