<svg xmlns="http://www.w3.org/2000/svg" xmlns:xlink="http://www.w3.org/1999/xlink" style="position: absolute; width: 0; height: 0" aria-hidden="true" id="__SVG_SPRITE_NODE__">
<symbol xmlns="http://www.w3.org/2000/svg" viewBox="0 0 24 24" id="zip"><path d="M4,3h16c0.6,0,1,0.4,1,1v16c0,0.6-0.4,1-1,1H4c-0.6,0-1-0.4-1-1V4C3,3.4,3.4,3,4,3z" fill-rule="evenodd" clip-rule="evenodd" fill="#7453ed"></path><path d="M12,16h2v2h-2V16z M10,14h2v2h-2V14z M12,12h2v2h-2V12z M12,8h2v2h-2V8z M10,10h2v2h-2V10z M10,6h2v2h-2V6z" fill-rule="evenodd" clip-rule="evenodd" fill="#fdfdfd"></path></symbol>
</svg>