<svg xmlns="http://www.w3.org/2000/svg" xmlns:xlink="http://www.w3.org/1999/xlink" style="position: absolute; width: 0; height: 0" aria-hidden="true" id="__SVG_SPRITE_NODE__">
<symbol xmlns="http://www.w3.org/2000/svg" viewBox="0 0 24 24" id="add_section_top"><path d="M3.5 35.5C2.395431 35.5 1.5 34.60457 1.5 33.5L1.5 28.5C1.5 27.395431 2.395431 26.5 3.5 26.5L20.5 26.5C21.6046 26.5 22.5 27.395431 22.5 28.5L22.5 33.5C22.5 34.60457 21.6046 35.5 20.5 35.5L3.5 35.5zM20.5 33.5L3.5 33.5 3.5 28.5 20.5 28.5 20.5 33.5zM3.5 46.5C2.39543 46.5 1.5 45.60457 1.5 44.5L1.5 39.5C1.5 38.39543 2.39543 37.5 3.5 37.5L10 37.5C11.10457 37.5 12 38.395431 12 39.5L12 44.5C12 45.60457 11.10457 46.5 10 46.5L3.5 46.5zM10 44.5L3.5 44.5 3.5 39.5 10 39.5 10 44.5zM19.20711 39.20711L19.20711 39.20711 17.41421 41 22 41C22.55228 41 23 41.44772 23 42 23 42.552279999999996 22.55228 43 22 43L17.41421 43 19.20659 44.79238 19.20659 44.79238C19.39464 44.98043 19.5 45.23478 19.5 45.5 19.5 45.76522 19.39464 46.01957 19.20711 46.20711 19.03222 46.38199 18.79873 46.48586 18.55174 46.49866 18.53451 46.49955 18.51726 46.5 18.5 46.5 18.23478 46.5 17.98043 46.39464 17.79289 46.20711L14.293268 42.707480000000004 14.293268 42.707480000000004C14.105357 42.51957 14.0000000596046 42.26522 14 42 14 41.73478 14.105357 41.48043 14.292893 41.29289L17.79289 37.792893C17.97907 37.606712 18.23117 37.50147146 18.49447 37.5000152588L18.5 37.5C18.76073 37.5 19.01116 37.601835 19.1979 37.7838L19.1979 37.7838C19.19847 37.784365 19.20653 37.792321 19.20653 37.792321L19.20653 37.792321C19.39464 37.98043 19.5 38.234783 19.5 38.5 19.5 38.76522 19.39464 39.01957 19.20711 39.20711z" fill-rule="evenodd" transform="matrix(1 0 0 -1 0 48)"></path></symbol>
</svg>