<svg xmlns="http://www.w3.org/2000/svg" xmlns:xlink="http://www.w3.org/1999/xlink" style="position: absolute; width: 0; height: 0" aria-hidden="true" id="__SVG_SPRITE_NODE__">
<symbol xmlns="http://www.w3.org/2000/svg" fill="none" viewBox="0 0 72 72" id="apply-success"><g style="mix-blend-mode:passthrough"><path d="M71.2475,43.3698C71.0411,43.984,71.0411,44.8031,70.8347,45.4173C70.2198,47.4651,69.6028,49.3085,68.7816,50.9465C68.5752,51.561,68.371,51.97,68.1646,52.5844C64.6732,59.3418,59.1246,64.8708,52.3461,68.1472C51.5248,68.5569,50.7015,68.9663,50.0866,69.1711C49.4696,69.3758,48.6484,69.7853,48.0314,69.99C42.0742,72.0377,35.5,72.6523,28.7202,71.2188C9.20337,67.1233,-3.32868,48.0801,0.780091,28.6268C4.88907,9.17346,23.9951,-3.3179,43.5124,0.777574C50.4972,2.21111,56.6608,5.69178,61.7968,10.6062C70.0135,19.0019,73.7112,31.493,71.2475,43.3698Z" fill-rule="evenodd" fill="#0CCE9C"></path><path d="M18.000127792038086,50.46936368713379L18.000127792038086,54.723863687133786C18.000127792038086,55.05526368713379,18.268756639038084,55.32386368713379,18.600127639038085,55.32386368713379L50.127395639038085,55.32386368713379C50.45879563903809,55.32386368713379,50.727395639038086,55.05526368713379,50.727395639038086,54.723863687133786L50.727395639038086,50.46936368713379C50.727395639038086,50.13796368713379,50.45879563903809,49.86936368713379,50.127395639038085,49.86936368713379L23.454675639038086,49.86936368713379L23.454675639038086,37.81700768713379Q23.454675639038086,37.75052568713379,23.441705639038087,37.685321687133786Q23.428735639038088,37.62011768713379,23.403295639038085,37.55869668713379Q23.377845639038085,37.49727568713379,23.340915639038087,37.44199768713379Q23.303975639038086,37.38672068713379,23.256965639038086,37.33971068713379Q23.209955639038085,37.29270068713379,23.154685639038085,37.25576568713379Q23.099405639038086,37.21883058713379,23.037985639038084,37.19338908713379Q22.976565639038085,37.16794768713379,22.911355639038085,37.15497778713379Q22.846155639038088,37.14200782813379,22.779675639038086,37.14200782813379L18.675127639038084,37.14200782813379Q18.608645639038087,37.14200782813379,18.543441639038086,37.15497778713379Q18.478237639038085,37.16794768713379,18.416816639038085,37.19338908713379Q18.355395639038086,37.21883058713379,18.300117639038085,37.25576568713379Q18.244840639038085,37.29270068713379,18.197830639038084,37.33971068713379Q18.150820639038084,37.38672068713379,18.113885639038084,37.44199768713379Q18.076950539038087,37.49727568713379,18.051509139038085,37.55869668713379Q18.026067639038086,37.62011768713379,18.013097739038084,37.685321687133786Q18.000127792038086,37.75052568713379,18.000127792038086,37.81700768713379L18.000127792038086,50.46936368713379Z" fill-rule="evenodd" fill="#FFFFFF" transform="rotate(-45 18 37.142)"></path></g></symbol>
</svg>