<svg xmlns="http://www.w3.org/2000/svg" xmlns:xlink="http://www.w3.org/1999/xlink" style="position: absolute; width: 0; height: 0" aria-hidden="true" id="__SVG_SPRITE_NODE__">
<symbol xmlns="http://www.w3.org/2000/svg" viewBox="0 0 24 24" id="archive"><path d="M1,17.304299999999998C1,19.4174,2.713,21.1304,4.826090000000001,21.1304L19.1739,21.1304C21.287,21.1304,23,19.4174,23,17.304299999999998L23,13.6464C23,13.2185,22.9282,12.7936,22.7876,12.3895L20.0675,4.56914C19.5325,3.03094,18.0824,2,16.4538,2L15.8261,2C15.2978,2,14.8696,2.428249,14.8696,2.956522C14.8696,3.4847900000000003,15.2978,3.91304,15.8261,3.91304L16.4538,3.91304Q17.0645,3.91304,17.5623,4.26692Q18.06,4.6207899999999995,18.2607,5.19761L20.6418,12.0435L16.25,12.0435Q15.4124,12.0435,14.7611,12.57Q14.1098,13.0965,13.9343,13.9155Q13.796,14.5611,13.2825,14.9762Q12.769,15.3913,12.1088,15.3913L11.8913,15.3913Q11.231,15.3913,10.71755,14.9762Q10.20409,14.5611,10.06574,13.9155Q9.89025,13.0965,9.23892,12.57Q8.587589999999999,12.0435,7.75005,12.0435L3.35817,12.0435L5.73934,5.19761Q5.93997,4.6207899999999995,6.43773,4.26692Q6.93548,3.91304,7.5462,3.91304L8.17391,3.91304C8.70219,3.91304,9.13043,3.4847900000000003,9.13043,2.956522C9.13043,2.428249,8.70219,2,8.17391,2L7.5462,2C5.9176,2,4.467499999999999,3.03094,3.93247,4.56914L1.2123599999999999,12.3895C1.0717826,12.7936,1,13.2185,1,13.6464L1,17.304299999999998ZM11.2929,12.2071L7.29327,8.20748C7.10536,8.01957,7,7.76522,7,7.5C7,7.23478,7.10536,6.98043,7.29289,6.79289C7.48043,6.60536,7.73478,6.5,8,6.5C8.26522,6.5,8.51957,6.60536,8.70711,6.79289L11,9.08579L11,3C11,2.447715,11.4477,2,12,2C12.5523,2,13,2.447715,13,3L13,9.08579L15.2929,6.79289C15.4804,6.60536,15.7348,6.5,16,6.5C16.2652,6.5,16.5196,6.60536,16.7071,6.79289C16.8946,6.98043,17,7.23478,17,7.5C17,7.76522,16.8946,8.01957,16.7071,8.20711L12.7071,12.2071C12.5196,12.3946,12.2652,12.5,12,12.5C11.7348,12.5,11.4804,12.3946,11.2929,12.2071ZM16.25,13.9565L21.087,13.9565L21.087,17.304299999999998Q21.087,18.0968,20.5266,18.6571Q19.9663,19.2174,19.1739,19.2174L4.826090000000001,19.2174Q4.03368,19.2174,3.47336,18.6571Q2.91304,18.0968,2.91304,17.304299999999998L2.91304,13.9565L7.75005,13.9565Q8.11806,13.9565,8.195170000000001,14.3163Q8.47527,15.6235,9.51486,16.463900000000002Q10.55446,17.304299999999998,11.8913,17.304299999999998L12.1088,17.304299999999998Q13.4456,17.304299999999998,14.4852,16.463900000000002Q15.5248,15.6235,15.8049,14.3163Q15.882,13.9565,16.25,13.9565Z" fill-rule="evenodd"></path></symbol>
</svg>