<svg xmlns="http://www.w3.org/2000/svg" xmlns:xlink="http://www.w3.org/1999/xlink" style="position: absolute; width: 0; height: 0" aria-hidden="true" id="__SVG_SPRITE_NODE__">
<symbol xmlns="http://www.w3.org/2000/svg" viewBox="0 0 36 36" id="bold_add"><path d="M18.75,6 C19.1642136,6 19.5,6.33578644 19.5,6.75 L19.5,16.4985 L29.25,16.5 C29.6642136,16.5 30,16.8357864 30,17.25 L30,18.75 C30,19.1642136 29.6642136,19.5 29.25,19.5 L19.5,19.4985 L19.5,29.25 C19.5,29.6642136 19.1642136,30 18.75,30 L17.25,30 C16.8357864,30 16.5,29.6642136 16.5,29.25 L16.5,19.4985 L6.75,19.5 C6.33578644,19.5 6,19.1642136 6,18.75 L6,17.25 C6,16.8357864 6.33578644,16.5 6.75,16.5 L16.5,16.4985 L16.5,6.75 C16.5,6.33578644 16.8357864,6 17.25,6 L18.75,6 Z" fill-rule="evenodd"></path></symbol>
</svg>