<svg xmlns="http://www.w3.org/2000/svg" xmlns:xlink="http://www.w3.org/1999/xlink" style="position: absolute; width: 0; height: 0" aria-hidden="true" id="__SVG_SPRITE_NODE__">
<symbol xmlns="http://www.w3.org/2000/svg" fill="none" viewBox="0 0 24 24" id="chatmind"><defs><linearGradient x1="1" y1="-.1" x2="0" y2="1" id="chatmind_c"><stop offset="0%" stop-color="#4B0079"></stop><stop offset="100%" stop-color="#08043A"></stop></linearGradient><linearGradient x1="1.092" y1=".24" x2=".245" y2=".558" id="chatmind_e"><stop offset="0%" stop-color="#005DE9"></stop><stop offset="100%" stop-color="#061635"></stop></linearGradient><linearGradient x1="-.076" y1=".84" x2="1.049" y2=".14" id="chatmind_f"><stop offset="0%" stop-color="#779EFF"></stop><stop offset="100%" stop-color="#9F02FF"></stop></linearGradient><linearGradient x1=".929" y1="1.04" x2="-.007" y2=".092" id="chatmind_g"><stop offset="0%" stop-color="#006AE9"></stop><stop offset="100%" stop-color="#152E7C"></stop></linearGradient><filter id="chatmind_b" filterUnits="objectBoundingBox" color-interpolation-filters="sRGB" x="0" y="0" width="22" height="22"><feFlood flood-opacity="0" result="BackgroundImageFix"></feFlood><feBlend in="SourceGraphic" in2="BackgroundImageFix" result="shape"></feBlend><feColorMatrix in="SourceAlpha" result="hardAlpha" values="0 0 0 0 0 0 0 0 0 0 0 0 0 0 0 0 0 0 127 0"></feColorMatrix><feOffset></feOffset><feGaussianBlur stdDeviation=".22"></feGaussianBlur><feComposite in2="hardAlpha" operator="arithmetic" k2="-1" k3="1"></feComposite><feColorMatrix values="0 0 0 0 1 0 0 0 0 1 0 0 0 0 1 0 0 0 0.25 0"></feColorMatrix><feBlend in2="shape" result="effect1_innerShadow"></feBlend></filter><filter id="chatmind_d" filterUnits="objectBoundingBox" color-interpolation-filters="sRGB" x="-5.28" y="-3.52" width="20.179" height="22.287"><feFlood flood-opacity="0" result="BackgroundImageFix"></feFlood><feColorMatrix in="SourceAlpha" values="0 0 0 0 0 0 0 0 0 0 0 0 0 0 0 0 0 0 127 0"></feColorMatrix><feOffset dy=".88"></feOffset><feGaussianBlur stdDeviation=".44"></feGaussianBlur><feColorMatrix values="0 0 0 0 0 0 0 0 0 0 0 0 0 0 0 0 0 0 0.15000000596046448 0"></feColorMatrix><feBlend in2="BackgroundImageFix" result="effect1_dropShadow"></feBlend><feColorMatrix in="SourceAlpha" values="0 0 0 0 0 0 0 0 0 0 0 0 0 0 0 0 0 0 127 0"></feColorMatrix><feOffset dy=".88"></feOffset><feGaussianBlur stdDeviation=".88"></feGaussianBlur><feColorMatrix values="0 0 0 0 0 0 0 0 0 0 0 0 0 0 0 0 0 0 0.05000000074505806 0"></feColorMatrix><feBlend in2="effect1_dropShadow" result="effect2_dropShadow"></feBlend><feBlend in="SourceGraphic" in2="effect2_dropShadow" result="shape"></feBlend></filter><clipPath id="chatmind_a"><rect width="24" height="24" rx="0"></rect></clipPath></defs><g clip-path="url(#chatmind_a)"><g filter="url(#chatmind_b)"><rect x="1" y="1" width="22" height="22" rx="5.28" fill="url(#chatmind_c)"></rect></g><g filter="url(#chatmind_d)"><path d="M15.976041712722779,15.558223880615234C15.942311712722779,15.570873880615235,15.908571712722779,15.581693880615234,15.87402171272278,15.592503880615235C15.839371712722778,15.604243880615234,15.804721712722777,15.615153880615235,15.769241712722778,15.625053880615233C15.76282171272278,15.627713880615234,15.756501712722779,15.629543880615234,15.750081712722778,15.630453880615235C15.669051712722778,15.654843880615234,15.586091712722778,15.676473880615234,15.503221712722778,15.697193880615234C15.381121712722777,15.726983880615235,15.25719171272278,15.752283880615234,15.131521712722778,15.773003880615235C15.095031712722779,15.779323880615234,15.059561712722779,15.784733880615235,15.023071712722778,15.790143880615235C14.992091712722779,15.794633880615233,14.962021712722779,15.799213880615234,14.931961712722778,15.802793880615233C14.892821712722778,15.808203880615235,14.85459171272278,15.812693880615235,14.816271712722777,15.816353880615235C14.778971712722779,15.820853880615235,14.741571712722777,15.824423880615235,14.70426171272278,15.827173880615234C14.663191712722778,15.830753880615234,14.622221712722778,15.834323880615234,14.581241712722779,15.836163880615235C14.55026171272278,15.837993880615235,14.518361712722779,15.839733880615235,14.487371712722778,15.841563880615235C14.452821712722779,15.843403880615234,14.417251712722777,15.844313880615234,14.382601712722778,15.845233880615234C14.336221712722779,15.846053880615234,14.288821712722779,15.846973880615234,14.242351712722778,15.846973880615234C12.472171712722778,15.846973880615234,10.898900712722778,14.986223880615235,9.936831712722778,13.666133880615234C9.972361012722779,13.711233980615235,10.007891212722779,13.755508780615234,10.047060712722779,13.797858880615234C10.07803471272278,13.833974880615234,10.109925712722779,13.869174880615235,10.142723712722779,13.901625880615235C10.174642712722779,13.935083880615235,10.208283712722778,13.968449880615234,10.242016712722778,13.999983880615234C10.259341712722778,14.016208880615235,10.276666712722779,14.032525880615234,10.293991712722779,14.047833880615235C10.345875712722778,14.095682880615234,10.400508712722779,14.140782880615234,10.456150712722778,14.183133880615234C10.469808712722779,14.194041880615234,10.484383712722778,14.204858880615234,10.498958712722779,14.216591880615235C10.529942712722779,14.240058880615234,10.561750712722779,14.262608880615234,10.593650712722779,14.284242880615235C10.62279971272278,14.304957880615234,10.652867712722779,14.323933880615234,10.682933712722779,14.342907880615234C10.683850712722778,14.343733880615234,10.685683712722778,14.344650880615234,10.686599712722778,14.345566880615234C10.725742712722779,14.370866880615235,10.764975712722778,14.394333880615234,10.804117712722778,14.415966880615235C10.832350712722778,14.433108880615235,10.860583712722779,14.448416880615234,10.889733712722778,14.462899880615234C10.909809712722778,14.473716880615234,10.929883712722779,14.484532880615234,10.950781712722778,14.494433880615235C11.000011712722777,14.518816880615235,11.050061712722778,14.542283880615233,11.100201712722779,14.563916880615235C11.109271712722778,14.568408880615234,11.118441712722777,14.572074880615235,11.127521712722778,14.575650880615234C11.168491712722778,14.592791880615234,11.209561712722778,14.609016880615235,11.251451712722778,14.624416880615234C11.256951712722778,14.626157880615235,11.261441712722778,14.627992880615235,11.266941712722778,14.629825880615234C11.30608171272278,14.644216880615234,11.346231712722778,14.656866880615235,11.386291712722779,14.669513880615234C11.398121712722778,14.673093880615234,11.409021712722778,14.676763880615233,11.420851712722778,14.680333880615235C11.447341712722778,14.688493880615233,11.473741712722779,14.695643880615235,11.501061712722779,14.702883880615234C11.517471712722779,14.707373880615235,11.533871712722778,14.711953880615233,11.550281712722779,14.716453880615234C11.569351712722778,14.720943880615234,11.588511712722779,14.725433880615235,11.608581712722778,14.729923880615235C11.632231712722778,14.735333880615235,11.655971712722778,14.740743880615234,11.679621712722778,14.745323880615235C11.727021712722777,14.755223880615235,11.776151712722779,14.763383880615235,11.824461712722778,14.771453880615235C11.833621712722778,14.772363880615234,11.841781712722778,14.774203880615234,11.850861712722779,14.775113880615235C11.903751712722778,14.782263880615234,11.956551712722778,14.788593880615235,12.00944171272278,14.793083880615235C12.038591712722779,14.795833880615234,12.067741712722778,14.797663880615234,12.096891712722778,14.799403880615234C12.116871712722778,14.801243880615235,12.136951712722778,14.802153880615235,12.157021712722779,14.802153880615235C12.194331712722779,14.803993880615234,12.232651712722777,14.804813880615235,12.270871712722778,14.804813880615235L12.272711712722778,14.804813880615235C12.303691712722777,14.804813880615235,12.334671712722779,14.803993880615234,12.364741712722779,14.803073880615234C12.379321712722778,14.803073880615234,12.393891712722779,14.802153880615235,12.408471712722779,14.802153880615235C12.414791712722778,14.802153880615235,12.42029171272278,14.802153880615235,12.425791712722779,14.802153880615235C12.453111712722778,14.800323880615235,12.479511712722779,14.798493880615235,12.505911712722778,14.796753880615235C12.58245171272278,14.791343880615234,12.658071712722778,14.782263880615234,12.733701712722779,14.770533880615234C12.773761712722779,14.764203880615234,12.812901712722779,14.757053880615235,12.852131712722779,14.748903880615234C12.976891712722779,14.724513880615234,13.098991712722778,14.692063880615235,13.217421712722778,14.652375880615235C13.257481712722779,14.638808880615235,13.297631712722778,14.624416880615234,13.335861712722778,14.609933880615234C13.372341712722779,14.595541880615235,13.408731712722778,14.581057880615234,13.444301712722778,14.565749880615234C13.447051712722779,14.564833880615234,13.449711712722777,14.562999880615234,13.452461712722778,14.562175880615234C13.485271712722778,14.548608880615234,13.516261712722779,14.534124880615234,13.548161712722779,14.518816880615235C13.579141712722778,14.503508880615234,13.609211712722779,14.489024880615235,13.638361712722778,14.473716880615234C13.641931712722778,14.471883880615234,13.646521712722778,14.469224880615235,13.650181712722778,14.467391880615235C13.672001712722778,14.455658880615234,13.692991712722778,14.443924880615235,13.713981712722777,14.432191880615234C13.750371712722778,14.412391880615234,13.786861712722779,14.391583880615235,13.822331712722779,14.369033880615234C13.828751712722777,14.365457880615235,13.834161712722779,14.361791880615234,13.839661712722778,14.358216880615235C13.872471712722778,14.337500880615234,13.905291712722779,14.316691880615235,13.936271712722778,14.295058880615235C13.972671712722779,14.270675880615235,14.008231712722779,14.245466880615234,14.042791712722778,14.219249880615234C14.077441712722777,14.194041880615234,14.11117171272278,14.166908880615235,14.144821712722777,14.139866880615234C14.181301712722778,14.110074880615235,14.216871712722778,14.079366880615234,14.251421712722777,14.048749880615235C14.286071712722778,14.017124880615235,14.319811712722778,13.985591880615235,14.35253171272278,13.952224880615235L14.353451712722778,13.952224880615235L15.97696171272278,15.559143880615235L15.976041712722779,15.558223880615234Z" fill="url(#chatmind_e)"></path><path d="M17.716970196914673,6.50386638671875L17.67047019691467,6.5507963867187495L14.356200196914672,9.83331638671875C13.856980196914673,9.33706638671875,13.177370196914673,9.01765638671875,12.423040196914673,8.979756386718751C12.372900196914673,8.97704638671875,12.322760196914672,8.97614638671875,12.271790196914672,8.97614638671875C12.220730196914673,8.97614638671875,12.167020196914674,8.97795638671875,12.115130196914674,8.979756386718751C10.916130196914672,9.01133638671875,9.817480196914673,9.44172638671875,8.944710196914674,10.135596386718749C7.731230196914673,11.10285638671875,6.955940196914673,12.58171638671875,6.955940196914673,14.24280638671875C6.955940196914673,17.06339638671875,9.188870196914673,19.36419638671875,11.996700196914674,19.50589638671875C7.771320196914672,19.36069638671875,4.413263196914673,15.83629638671875,4.584542596914673,11.58108638671875C4.746701196914673,7.55864638671875,8.096550196914674,4.32484168671875,12.161520196914672,4.26709169171875C14.335300196914673,4.23641088671875,16.303070196914675,5.09539138671875,17.716970196914673,6.50386638671875L17.716970196914673,6.50386638671875Z" fill="url(#chatmind_f)"></path><path d="M17.712367767333987,17.27981669631958C16.384047767333982,18.59899669631958,14.566577767333985,19.43815669631958,12.549537767333984,19.50575669631958C12.460257767333985,19.50945669631958,12.366487767333984,19.51295669631958,12.273537767333984,19.51295669631958C12.180587767333984,19.51295669631958,12.086807767333983,19.50945669631958,11.996607767333984,19.50575669631958C9.188797767333984,19.36415669631958,6.955867767333984,17.063296696319583,6.955867767333984,14.24271669631958C6.955867767333984,12.58162669631958,7.731156767333984,11.10276669631958,8.944637767333985,10.13548669631958C9.817407767333984,9.44162969631958,10.916137767333984,9.01123549631958,12.115037767333984,8.97965669631958C12.107707767333984,8.98055537531958,12.100467767333985,8.98055537531958,12.093137767333985,8.98146279631958C12.065817767333986,8.98146279631958,12.039417767333983,8.98416670631958,12.013017767333984,8.986870606319581C11.978367767333985,8.99048279631958,11.944637767333983,8.99318669631958,11.910987767333985,8.99769669631958C11.878177767333984,9.00130799631958,11.845357767333985,9.00581809631958,11.813457767333984,9.01123549631958C11.783387767333984,9.01574549631958,11.754237767333985,9.02025549631958,11.725087767333985,9.026571596319581C11.689527767333985,9.03288769631958,11.654047767333985,9.04011119631958,11.618487767333985,9.04823259631958C11.587497767333986,9.05544649631958,11.557437767333983,9.06266999631958,11.527367767333985,9.06988389631958C11.495557767333985,9.07800609631958,11.463657767333984,9.08702569631958,11.431757767333984,9.09605469631958C11.396187767333984,9.10688069631958,11.362547767333984,9.11770669631958,11.327897767333983,9.12943069631958C11.305077767333984,9.13665469631958,11.283257767333986,9.14386869631958,11.260437767333984,9.15289669631958C11.234947767333985,9.16191669631958,11.210387767333984,9.17093769631958,11.185727767333985,9.18086469631958C11.165737767333983,9.18898669631958,11.145667767333984,9.19710769631958,11.126507767333983,9.20523069631958C11.055467767333983,9.23500269631958,10.987177767333986,9.26658269631958,10.919707767333984,9.30087469631958C10.903387767333985,9.30989469631958,10.886987767333984,9.31801669631958,10.871487767333985,9.32703669631958C10.840507767333985,9.34327969631958,10.810437767333983,9.36042169631958,10.780377767333984,9.37756369631958C10.748477767333984,9.39561269631958,10.716577767333984,9.41545869631958,10.685587767333985,9.43531269631958C10.674687767333985,9.44252669631958,10.662857767333984,9.44975069631958,10.651947767333985,9.45696469631958C10.623627767333984,9.47501369631958,10.596307767333984,9.49396169631958,10.568987767333985,9.51290869631958C10.530767767333984,9.53997869631958,10.492447767333985,9.56885369631958,10.455137767333984,9.59772869631958C10.441487767333985,9.60764669631958,10.427827767333984,9.61847269631958,10.415087767333985,9.62930769631958C10.388587767333984,9.65095969631958,10.362187767333985,9.67261069631958,10.336707767333984,9.69427169631958C10.303887767333984,9.72223869631958,10.271987767333984,9.75111369631958,10.241007767333985,9.78088769631958C10.239177767333985,9.78269269631958,10.237437767333985,9.78449869631958,10.235597767333985,9.78630469631958C10.203697767333985,9.81607869631958,10.172717767333985,9.84765769631958,10.141737767333984,9.87923669631958C10.108937767333984,9.91352969631958,10.077057767333985,9.94781169631958,10.046067767333984,9.98300669631958C10.016917767333984,10.01728669631958,9.987767767333985,10.05157669631958,9.960437767333985,10.08675669631958C9.958617767333983,10.08856669631958,9.957707767333984,10.08947669631958,9.956797767333985,10.09127669631958C9.933107767333984,10.12014669631958,9.910327767333985,10.14992669631958,9.888467767333985,10.18059669631958C9.882087767333985,10.18875669631958,9.875717767333985,10.19774669631958,9.869337767333985,10.20672669631958C9.846557767333984,10.23926669631958,9.823787767333984,10.27263669631958,9.801917767333984,10.30599669631958C9.798277767333985,10.31049669631958,9.795547767333984,10.31507669631958,9.792817767333984,10.31956669631958C9.770937767333985,10.35384669631958,9.749077767333985,10.388136696319581,9.729037767333985,10.42333669631958C9.705357767333984,10.46210669631958,9.683477767333985,10.502716696319581,9.662537767333983,10.54240669631958C9.640667767333984,10.58301669631958,9.620627767333984,10.62362669631958,9.601497767333985,10.66514669631958C9.581447767333984,10.70667669631958,9.563237767333984,10.74902669631958,9.545917767333984,10.79146669631958C9.528607767333984,10.83381669631958,9.512207767333985,10.87717669631958,9.496717767333983,10.92043669631958C9.481237767333985,10.96379669631958,9.466667767333984,11.00798669631958,9.452997767333985,11.05225669631958C9.442057767333985,11.08828669631958,9.432037767333984,11.12531669631958,9.422017767333983,11.16225669631958C9.406527767333984,11.22000669631958,9.393777767333985,11.27867669631958,9.381937767333984,11.33733669631958C9.374647767333984,11.37886669631958,9.367357767333985,11.42038669631958,9.360977767333985,11.46274669631958C9.354597767333985,11.50518669631958,9.349137767333984,11.54936669631958,9.344577767333984,11.59272669631958C9.343677767333984,11.59629669631958,9.343677767333984,11.59987669631958,9.343677767333984,11.60353669631958C9.339117767333985,11.64955669631958,9.335467767333984,11.69465669631958,9.332737767333985,11.74067669631958L9.332737767333985,11.74699669631958C9.330007767333985,11.794756696319581,9.329097767333984,11.84260669631958,9.329097767333984,11.89045669631958C9.329097767333984,11.929236696319581,9.330007767333985,11.96718669631958,9.331827767333984,12.00503669631958C9.332737767333985,12.035746696319581,9.333657767333985,12.06636669631958,9.336387767333985,12.09707669631958C9.338207767333984,12.12778669631958,9.340937767333983,12.15839669631958,9.344577767333984,12.18819669631958C9.347317767333983,12.21440669631958,9.350057767333984,12.24053669631958,9.353697767333983,12.266656696319579C9.355517767333984,12.28929669631958,9.359157767333985,12.31093669631958,9.362807767333985,12.33348669631958C9.366447767333984,12.35786669631958,9.370997767333984,12.38215669631958,9.374647767333984,12.40653669631958C9.382847767333985,12.454386696319581,9.392867767333984,12.50132669631958,9.404717767333985,12.54825669631958C9.409267767333985,12.57163669631958,9.414737767333985,12.59509669631958,9.422017767333983,12.61856669631958C9.433867767333984,12.665496696319579,9.446617767333985,12.711516696319581,9.461187767333985,12.756616696319579C9.467567767333984,12.78008669631958,9.474857767333985,12.80263669631958,9.483967767333985,12.82518669631958C9.490347767333985,12.84773669631958,9.498547767333985,12.87037669631958,9.507657767333985,12.89200669631958C9.531347767333985,12.95965669631958,9.558677767333984,13.02556669631958,9.588737767333985,13.08954669631958C9.608787767333984,13.13290669631958,9.628817767333985,13.175346696319579,9.650697767333984,13.21678669631958C9.661617767333984,13.238506696319579,9.672557767333984,13.25922669631958,9.684397767333984,13.27902669631958C9.694417767333984,13.29891669631958,9.705357767333984,13.31788669631958,9.716277767333985,13.33677669631958C9.717197767333985,13.33768669631958,9.718107767333985,13.33952669631958,9.719017767333984,13.341356696319579C9.730857767333983,13.36207669631958,9.743617767333983,13.382786696319581,9.756367767333984,13.40359669631958C9.757287767333985,13.40625669631958,9.759097767333984,13.40900669631958,9.760927767333985,13.41166669631958C9.781877767333985,13.45144669631958,9.804647767333984,13.487476696319579,9.831977767333985,13.52450669631958C9.863877767333985,13.570526696319579,9.896667767333984,13.620116696319581,9.935837767333984,13.66613669631958C10.897887767333984,14.98622669631958,12.471257767333984,15.84697669631958,14.241337767333984,15.84697669631958C14.287817767333983,15.84697669631958,14.335207767333983,15.846056696319579,14.381687767333984,15.84513669631958C14.416237767333985,15.84513669631958,14.451807767333985,15.84339669631958,14.486457767333984,15.84156669631958C14.517347767333984,15.83973669631958,14.549247767333984,15.837986696319579,14.580237767333983,15.83615669631958C14.621207767333985,15.834326696319579,14.662277767333984,15.83074669631958,14.703247767333984,15.82717669631958C14.740557767333986,15.82442669631958,14.777957767333984,15.820846696319581,14.815267767333985,15.81626669631958C14.853587767333984,15.812686696319581,14.891807767333985,15.80819669631958,14.931037767333985,15.802786696319579C14.961107767333985,15.799126696319579,14.991087767333985,15.79463669631958,15.022067767333985,15.79014669631958C15.058547767333984,15.78473669631958,15.094117767333984,15.779326696319579,15.130507767333985,15.77299669631958C15.256277767333984,15.75228669631958,15.380117767333985,15.72698669631958,15.502217767333985,15.69719669631958C15.585087767333984,15.67738669631958,15.668037767333985,15.654836696319581,15.749077767333985,15.63045669631958C15.755497767333985,15.62954669631958,15.761817767333984,15.62770669631958,15.768237767333984,15.625046696319579C15.803797767333984,15.61505669631958,15.838357767333985,15.60423669631958,15.873007767333984,15.59250669631958C15.907657767333985,15.58168669631958,15.941297767333984,15.57087669631958,15.975037767333985,15.55913669631958L17.026367767333983,16.600386696319582L17.711467767333986,17.27981669631958L17.712367767333987,17.27981669631958Z" fill="url(#chatmind_g)"></path></g></g></symbol>
</svg>