<svg xmlns="http://www.w3.org/2000/svg" xmlns:xlink="http://www.w3.org/1999/xlink" style="position: absolute; width: 0; height: 0" aria-hidden="true" id="__SVG_SPRITE_NODE__">
<symbol xmlns="http://www.w3.org/2000/svg" viewBox="0 0 24 24" id="checkbox-caldav"><path d="M6.5,2.5L6.5,3.5L3.98021,3.5C2.5994900000000003,3.5,1.5,4.61304,1.5,5.99375L1.50000227397,20.0062C1.50000218878,21.3869,2.59992,22.5,3.98063,22.5C9.32688,22.5,14.6731,22.5,20.0194,22.5C21.4001,22.5,22.5,21.3869,22.5,20.0062C22.5,16.7367,22.5,13.4671,22.5,10.19749L22.5,5.99375C22.5,4.61303,21.3827,3.5,20.002,3.5L17.5,3.5L17.5,2.5Q17.5,2.401509,17.480800000000002,2.30491Q17.4616,2.208311,17.4239,2.1173159999999998Q17.386200000000002,2.026322,17.3315,1.94443Q17.276699999999998,1.862537,17.2071,1.792893Q17.1375,1.723249,17.0556,1.66853Q16.9737,1.613811,16.8827,1.5761205Q16.7917,1.5384294,16.6951,1.5192147Q16.5985,1.5,16.5,1.5Q16.4015,1.5,16.3049,1.5192147Q16.2083,1.5384294,16.1173,1.5761205Q16.0263,1.613811,15.9444,1.66853Q15.8625,1.723249,15.7929,1.792893Q15.7232,1.862537,15.6685,1.94443Q15.6138,2.026322,15.5761,2.1173159999999998Q15.5384,2.208311,15.5192,2.30491Q15.5,2.401509,15.5,2.5L15.5,3.5L8.5,3.5L8.5,2.5Q8.5,2.401509,8.48078,2.30491Q8.46157,2.208311,8.42388,2.1173159999999998Q8.38619,2.026322,8.33147,1.94443Q8.27675,1.862537,8.20711,1.792893Q8.13746,1.723249,8.05557,1.66853Q7.97368,1.613811,7.88268,1.5761205Q7.79169,1.5384294,7.69509,1.5192147Q7.59849,1.5,7.5,1.5Q7.40151,1.5,7.30491,1.5192147Q7.20831,1.5384294,7.11732,1.5761205Q7.02632,1.613811,6.94443,1.66853Q6.86254,1.723249,6.79289,1.792893Q6.72325,1.862537,6.66853,1.94443Q6.61381,2.026322,6.57612,2.1173159999999998Q6.53843,2.208311,6.51921,2.30491Q6.5,2.401509,6.5,2.5ZM3.64192,20.3618Q3.5,20.2189,3.5,20.0062L3.5,13L3.5,5.99375Q3.5,5.78092,3.64187,5.63798Q3.77881,5.5,3.98021,5.5L20.002,5.5Q20.2109,5.5,20.3562,5.64498Q20.5,5.78842,20.5,5.99374L20.5,13.2122L20.5,20.0062Q20.5,20.2189,20.3581,20.3618Q20.2209,20.5,20.0194,20.5L12,20.5L3.98063,20.5Q3.77907,20.5,3.64192,20.3618ZM12.2424,17.6C9.60323,17.6,8,15.8735,8,13.0001C8,10.13275,9.63405,8.40002,12.193,8.40002C13.8579,8.40002,15.1467,9.139980000000001,15.7571,10.42256C15.8805,10.65687,15.9421,10.89736,15.9421,11.11935C15.9421,11.6065,15.6153,11.921,15.122,11.921C14.7027,11.921,14.4376,11.736,14.2341,11.30433C13.8271,10.39789,13.0995,9.9416,12.2115,9.9416C10.80564,9.9416,9.89921,11.11935,9.89921,12.9939C9.89921,14.8931,10.79332,16.064700000000002,12.2177,16.064700000000002C13.155,16.064700000000002,13.8579,15.6392,14.2587,14.7451C14.4499,14.3258,14.6842,14.1593,15.0789,14.1593C15.603,14.1593,15.9483,14.4923,15.9483,14.9856C15.9483,15.1952,15.899,15.3926,15.8065,15.6084C15.2515,16.8416,13.9258,17.6,12.2424,17.6Z" fill-rule="evenodd"></path></symbol>
<symbol xmlns="http://www.w3.org/2000/svg" viewBox="0 0 36 36" id="checkbox-detail"><path d="M27.75,6 C28.9926407,6 30,7.00735931 30,8.25 L30,27.75 C30,28.9926407 28.9926407,30 27.75,30 L8.25,30 C7.00735931,30 6,28.9926407 6,27.75 L6,8.25 C6,7.00735931 7.00735931,6 8.25,6 L27.75,6 Z M27.75,7.5 L8.25,7.5 C7.88181017,7.5 7.57558744,7.76531274 7.5120835,8.11518655 L7.5,8.25 L7.5,27.75 C7.5,28.1181898 7.76531274,28.4244126 8.11518655,28.4879165 L8.25,28.5 L27.75,28.5 C28.1181898,28.5 28.4244126,28.2346873 28.4879165,27.8848134 L28.5,27.75 L28.5,8.25 C28.5,7.88181017 28.2346873,7.57558744 27.8848134,7.5120835 L27.75,7.5 Z" fill-rule="evenodd"></path></symbol>
<symbol xmlns="http://www.w3.org/2000/svg" viewBox="0 0 24 24" id="checkbox-exchange"><path d="M6.5,2.5L6.5,3.5L3.98021,3.5C2.5994900000000003,3.5,1.5,4.61304,1.5,5.99375L1.50000227397,20.0062C1.50000218878,21.3869,2.59992,22.5,3.98063,22.5C9.32688,22.5,14.6731,22.5,20.0194,22.5C21.4001,22.5,22.5,21.3869,22.5,20.0062C22.5,16.7367,22.5,13.4671,22.5,10.19749L22.5,5.99375C22.5,4.61303,21.3827,3.5,20.002,3.5L17.5,3.5L17.5,2.5Q17.5,2.401509,17.480800000000002,2.30491Q17.4616,2.208311,17.4239,2.1173159999999998Q17.386200000000002,2.026322,17.3315,1.94443Q17.276699999999998,1.862537,17.2071,1.792893Q17.1375,1.723249,17.0556,1.66853Q16.9737,1.613811,16.8827,1.5761205Q16.7917,1.5384294,16.6951,1.5192147Q16.5985,1.5,16.5,1.5Q16.4015,1.5,16.3049,1.5192147Q16.2083,1.5384294,16.1173,1.5761205Q16.0263,1.613811,15.9444,1.66853Q15.8625,1.723249,15.7929,1.792893Q15.7232,1.862537,15.6685,1.94443Q15.6138,2.026322,15.5761,2.1173159999999998Q15.5384,2.208311,15.5192,2.30491Q15.5,2.401509,15.5,2.5L15.5,3.5L8.5,3.5L8.5,2.5Q8.5,2.401509,8.48078,2.30491Q8.46157,2.208311,8.42388,2.1173159999999998Q8.38619,2.026322,8.33147,1.94443Q8.27675,1.862537,8.20711,1.792893Q8.13746,1.723249,8.05557,1.66853Q7.97368,1.613811,7.88268,1.5761205Q7.79169,1.5384294,7.69509,1.5192147Q7.59849,1.5,7.5,1.5Q7.40151,1.5,7.30491,1.5192147Q7.20831,1.5384294,7.11732,1.5761205Q7.02632,1.613811,6.94443,1.66853Q6.86254,1.723249,6.79289,1.792893Q6.72325,1.862537,6.66853,1.94443Q6.61381,2.026322,6.57612,2.1173159999999998Q6.53843,2.208311,6.51921,2.30491Q6.5,2.401509,6.5,2.5ZM3.64192,20.3618Q3.5,20.2189,3.5,20.0062L3.5,13L3.5,5.99375Q3.5,5.78092,3.64187,5.63798Q3.77881,5.5,3.98021,5.5L20.002,5.5Q20.2109,5.5,20.3562,5.64498Q20.5,5.78842,20.5,5.99374L20.5,13.2122L20.5,20.0062Q20.5,20.2189,20.3581,20.3618Q20.2209,20.5,20.0194,20.5L12,20.5L3.98063,20.5Q3.77907,20.5,3.64192,20.3618Z" fill-rule="evenodd"></path><path d="M8.950048640365138,8.919970809265136L8.950048640365138,17.074269809265136Q8.950048625465136,17.800049809265136,9.634813809265136,17.800049809265136L14.250049809265136,17.800049809265136Q14.581419809265137,17.800049809265136,14.815729809265136,17.565729809265136Q15.050049809265136,17.331419809265135,15.050049809265136,17.000049809265136Q15.050049809265136,16.668679809265136,14.815729809265136,16.43435980926514Q14.581419809265137,16.20004980926514,14.250049809265136,16.20004980926514L10.550049809265136,16.20004980926514L10.550049809265136,13.800049809265136L14.249069809265137,13.800049809265136Q14.580849809265136,13.800049809265136,14.815449809265136,13.565449809265136Q15.050049809265136,13.330849809265136,15.050049809265136,12.999069809265137Q15.050049809265136,12.667299809265137,14.815449809265136,12.432699809265138Q14.580849809265136,12.198099809265138,14.249069809265137,12.198099809265138L10.550049809265136,12.198099809265138L10.550049809265136,9.800049809265136L14.250049809265136,9.800049809265136Q14.581419809265137,9.800049809265136,14.815729809265136,9.565729809265136Q15.050049809265136,9.331419809265137,15.050049809265136,9.000048809265136Q15.050049809265136,8.668677809265137,14.815729809265136,8.434362809265137Q14.581419809265137,8.200048536065136,14.250049809265136,8.200048521165137L9.634813809265136,8.200048640365138Q8.950048685065136,8.200048655265137,8.950048640365138,8.919970809265136Z" fill-rule="evenodd"></path></symbol>
<symbol xmlns="http://www.w3.org/2000/svg" viewBox="0 0 24 24" id="checkbox-google"><path d="M6.5,2.5L6.5,3.5L3.98021,3.5C2.5994900000000003,3.5,1.5,4.61304,1.5,5.99375L1.50000227397,20.0062C1.50000218878,21.3869,2.59992,22.5,3.98063,22.5C9.32688,22.5,14.6731,22.5,20.0194,22.5C21.4001,22.5,22.5,21.3869,22.5,20.0062C22.5,16.7367,22.5,13.4671,22.5,10.19749L22.5,5.99375C22.5,4.61303,21.3827,3.5,20.002,3.5L17.5,3.5L17.5,2.5Q17.5,2.401509,17.480800000000002,2.30491Q17.4616,2.208311,17.4239,2.1173159999999998Q17.386200000000002,2.026322,17.3315,1.94443Q17.276699999999998,1.862537,17.2071,1.792893Q17.1375,1.723249,17.0556,1.66853Q16.9737,1.613811,16.8827,1.5761205Q16.7917,1.5384294,16.6951,1.5192147Q16.5985,1.5,16.5,1.5Q16.4015,1.5,16.3049,1.5192147Q16.2083,1.5384294,16.1173,1.5761205Q16.0263,1.613811,15.9444,1.66853Q15.8625,1.723249,15.7929,1.792893Q15.7232,1.862537,15.6685,1.94443Q15.6138,2.026322,15.5761,2.1173159999999998Q15.5384,2.208311,15.5192,2.30491Q15.5,2.401509,15.5,2.5L15.5,3.5L8.5,3.5L8.5,2.5Q8.5,2.401509,8.48078,2.30491Q8.46157,2.208311,8.42388,2.1173159999999998Q8.38619,2.026322,8.33147,1.94443Q8.27675,1.862537,8.20711,1.792893Q8.13746,1.723249,8.05557,1.66853Q7.97368,1.613811,7.88268,1.5761205Q7.79169,1.5384294,7.69509,1.5192147Q7.59849,1.5,7.5,1.5Q7.40151,1.5,7.30491,1.5192147Q7.20831,1.5384294,7.11732,1.5761205Q7.02632,1.613811,6.94443,1.66853Q6.86254,1.723249,6.79289,1.792893Q6.72325,1.862537,6.66853,1.94443Q6.61381,2.026322,6.57612,2.1173159999999998Q6.53843,2.208311,6.51921,2.30491Q6.5,2.401509,6.5,2.5ZM3.5,20.0062Q3.5,20.2189,3.64192,20.3618Q3.77907,20.5,3.98063,20.5L12,20.5L20.0194,20.5Q20.2209,20.5,20.3581,20.3618Q20.5,20.2189,20.5,20.0062L20.5,13.2122L20.5,5.99374Q20.5,5.78842,20.3562,5.64498Q20.2109,5.5,20.002,5.5L3.98021,5.5Q3.77881,5.5,3.64187,5.63798Q3.5,5.78092,3.5,5.99375L3.5,13L3.5,20.0062ZM8.820260000000001,9.37204Q10.03244,8.070730000000001,12.1381,8.070730000000001Q13.4816,8.070730000000001,14.5235,8.64564Q15.5172,9.19392,15.9236,10.08201L15.9241,10.08305L15.9246,10.08408Q16.0628,10.36876,16.0628,10.66736Q16.0628,11.01591,15.8473,11.22913Q15.6303,11.44377,15.2729,11.44377Q14.7057,11.44376,14.3752,10.9004Q13.6343,9.55613,12.1449,9.55613Q10.89071,9.55613,10.18017,10.46328Q9.47631,11.36191,9.47631,12.946Q9.47631,14.5577,10.21217,15.4978Q10.95259,16.4438,12.219,16.4438Q13.2527,16.4438,13.9141,15.86Q14.5793,15.2729,14.611,14.3256L14.6223,14.0662L13.1022,14.0662Q12.3864,14.0662,12.3864,13.4247Q12.3864,12.7831,13.1022,12.7831L15.4819,12.7831Q16.399900000000002,12.7831,16.399900000000002,13.7415L16.399900000000002,13.8898Q16.399900000000002,15.7326,15.3013,16.8161Q14.1728,17.9291,12.1853,17.9291Q10.04521,17.9291,8.82621,16.6186Q7.5999,15.3003,7.5999,12.973Q7.5999,10.68214,8.820260000000001,9.37204Z" fill-rule="evenodd"></path></symbol>
<symbol xmlns="http://www.w3.org/2000/svg" viewBox="0 0 24 24" id="checkbox-icloud"><path d="M6.5,3.5L6.5,2.5Q6.5,2.401509,6.51921,2.30491Q6.53843,2.208311,6.57612,2.1173159999999998Q6.61381,2.026322,6.66853,1.94443Q6.72325,1.862537,6.79289,1.792893Q6.86254,1.723249,6.94443,1.66853Q7.02632,1.613811,7.11732,1.5761205Q7.20831,1.5384294,7.30491,1.5192147Q7.40151,1.5,7.5,1.5Q7.59849,1.5,7.69509,1.5192147Q7.79169,1.5384294,7.88268,1.5761205Q7.97368,1.613811,8.05557,1.66853Q8.13746,1.723249,8.20711,1.792893Q8.27675,1.862537,8.33147,1.94443Q8.38619,2.026322,8.42388,2.1173159999999998Q8.46157,2.208311,8.48078,2.30491Q8.5,2.401509,8.5,2.5L8.5,3.5L15.5,3.5L15.5,2.5Q15.5,2.401509,15.5192,2.30491Q15.5384,2.208311,15.5761,2.1173159999999998Q15.6138,2.026322,15.6685,1.94443Q15.7232,1.862537,15.7929,1.792893Q15.8625,1.723249,15.9444,1.66853Q16.0263,1.613811,16.1173,1.5761205Q16.2083,1.5384294,16.3049,1.5192147Q16.4015,1.5,16.5,1.5Q16.5985,1.5,16.6951,1.5192147Q16.7917,1.5384294,16.8827,1.5761205Q16.9737,1.613811,17.0556,1.66853Q17.1375,1.723249,17.2071,1.792893Q17.276699999999998,1.862537,17.3315,1.94443Q17.386200000000002,2.026322,17.4239,2.1173159999999998Q17.4616,2.208311,17.480800000000002,2.30491Q17.5,2.401509,17.5,2.5L17.5,3.5L20.002,3.5C21.3827,3.5,22.5,4.61303,22.5,5.99375L22.5,10.19749C22.5,13.4671,22.5,16.7367,22.5,20.0062C22.5,21.3869,21.4001,22.5,20.0194,22.5C14.6731,22.5,9.32688,22.5,3.98063,22.5C2.59992,22.5,1.50000218878,21.3869,1.50000227397,20.0062L1.5,5.99375C1.5,4.61304,2.5994900000000003,3.5,3.98021,3.5L6.5,3.5ZM3.5,20.0062Q3.5,20.2189,3.64192,20.3618Q3.77907,20.5,3.98063,20.5L12,20.5L20.0194,20.5Q20.2209,20.5,20.3581,20.3618Q20.5,20.2189,20.5,20.0062L20.5,13.2122L20.5,5.99374Q20.5,5.78842,20.3562,5.64498Q20.2109,5.5,20.002,5.5L3.98021,5.5Q3.77881,5.5,3.64187,5.63798Q3.5,5.78092,3.5,5.99375L3.5,13L3.5,20.0062ZM12,10Q11.9015,10,11.8049,9.98078Q11.7083,9.96157,11.6173,9.92388Q11.5263,9.88619,11.44443,9.83147Q11.36253,9.77675,11.29289,9.70711Q11.22325,9.63746,11.16853,9.55557Q11.11381,9.47368,11.07612,9.38268Q11.03843,9.29169,11.01921,9.19509Q11,9.09849,11,9Q11,8.90151,11.01921,8.80491Q11.03843,8.70831,11.07612,8.61732Q11.11381,8.52632,11.16853,8.44443Q11.22325,8.36254,11.29289,8.29289Q11.36253,8.22325,11.44443,8.16853Q11.5263,8.11381,11.6173,8.07612Q11.7083,8.03843,11.8049,8.019210000000001Q11.9015,8,12,8Q12.0985,8,12.1951,8.019210000000001Q12.2917,8.03843,12.3827,8.07612Q12.4737,8.11381,12.5556,8.16853Q12.6375,8.22325,12.7071,8.29289Q12.7768,8.36254,12.8315,8.44443Q12.8862,8.52632,12.9239,8.61732Q12.9616,8.70831,12.9808,8.80491Q13,8.90151,13,9Q13,9.09849,12.9808,9.19509Q12.9616,9.29169,12.9239,9.38268Q12.8862,9.47368,12.8315,9.55557Q12.7768,9.63746,12.7071,9.70711Q12.6375,9.77675,12.5556,9.83147Q12.4737,9.88619,12.3827,9.92388Q12.2917,9.96157,12.1951,9.98078Q12.0985,10,12,10ZM12,18C11.44771,18,11,17.5523,11,17L11,12C11,11.44772,11.44771,11,12,11C12.5523,11,13,11.44772,13,12L13,17C13,17.5523,12.5523,18,12,18Z" fill-rule="evenodd"></path></symbol>
<symbol xmlns="http://www.w3.org/2000/svg" viewBox="0 0 24 24" id="checkbox-outlook"><path d="M6.5,2.5L6.5,3.5L3.98021,3.5C2.5994900000000003,3.5,1.5,4.61304,1.5,5.99375L1.50000227397,20.0062C1.50000218878,21.3869,2.59992,22.5,3.98063,22.5C9.32688,22.5,14.6731,22.5,20.0194,22.5C21.4001,22.5,22.5,21.3869,22.5,20.0062C22.5,16.7367,22.5,13.4671,22.5,10.19749L22.5,5.99375C22.5,4.61303,21.3827,3.5,20.002,3.5L17.5,3.5L17.5,2.5Q17.5,2.401509,17.480800000000002,2.30491Q17.4616,2.208311,17.4239,2.1173159999999998Q17.386200000000002,2.026322,17.3315,1.94443Q17.276699999999998,1.862537,17.2071,1.792893Q17.1375,1.723249,17.0556,1.66853Q16.9737,1.613811,16.8827,1.5761205Q16.7917,1.5384294,16.6951,1.5192147Q16.5985,1.5,16.5,1.5Q16.4015,1.5,16.3049,1.5192147Q16.2083,1.5384294,16.1173,1.5761205Q16.0263,1.613811,15.9444,1.66853Q15.8625,1.723249,15.7929,1.792893Q15.7232,1.862537,15.6685,1.94443Q15.6138,2.026322,15.5761,2.1173159999999998Q15.5384,2.208311,15.5192,2.30491Q15.5,2.401509,15.5,2.5L15.5,3.5L8.5,3.5L8.5,2.5Q8.5,2.401509,8.48078,2.30491Q8.46157,2.208311,8.42388,2.1173159999999998Q8.38619,2.026322,8.33147,1.94443Q8.27675,1.862537,8.20711,1.792893Q8.13746,1.723249,8.05557,1.66853Q7.97368,1.613811,7.88268,1.5761205Q7.79169,1.5384294,7.69509,1.5192147Q7.59849,1.5,7.5,1.5Q7.40151,1.5,7.30491,1.5192147Q7.20831,1.5384294,7.11732,1.5761205Q7.02632,1.613811,6.94443,1.66853Q6.86254,1.723249,6.79289,1.792893Q6.72325,1.862537,6.66853,1.94443Q6.61381,2.026322,6.57612,2.1173159999999998Q6.53843,2.208311,6.51921,2.30491Q6.5,2.401509,6.5,2.5ZM3.64192,20.3618Q3.5,20.2189,3.5,20.0062L3.5,13L3.5,5.99375Q3.5,5.78092,3.64187,5.63798Q3.77881,5.5,3.98021,5.5L20.002,5.5Q20.2109,5.5,20.3562,5.64498Q20.5,5.78842,20.5,5.99374L20.5,13.2122L20.5,20.0062Q20.5,20.2189,20.3581,20.3618Q20.2209,20.5,20.0194,20.5L12,20.5L3.98063,20.5Q3.77907,20.5,3.64192,20.3618ZM16.2934,13.0062C16.2934,15.8365,14.6347,17.6,12.0017,17.6C9.36252,17.6,7.70996,15.8365,7.70996,13.0062C7.70996,10.16974,9.36252,8.40002,12.0017,8.40002C14.6347,8.40002,16.2934,10.16974,16.2934,13.0062ZM9.60916,13.0062C9.60916,14.8684,10.54027,16.0462,12.0017,16.0462C13.4569,16.0462,14.388,14.8684,14.388,13.0062C14.388,11.13784,13.4569,9.95392,12.0017,9.95392C10.54644,9.95392,9.60916,11.13784,9.60916,13.0062Z" fill-rule="evenodd"></path></symbol>
<symbol xmlns="http://www.w3.org/2000/svg" viewBox="0 0 24 24" id="checkbox-timetable"><path d="M2.69376,20.8358Q6.62326,20.665,8.84031,20.9133Q10.8125,21.1342,10.9754,21.9137C10.9829,21.9526,10.9925,21.9908,11.0041,22.0282C11.0964,22.3252,11.3135,22.5564,11.5845,22.6744C11.7134,22.7304,11.8544,22.7609,12,22.7607C12.1456,22.7609,12.2866,22.7304,12.4155,22.6744C12.6865,22.5564,12.9036,22.3252,12.9959,22.0282C13.0075,21.9908,13.0171,21.9526,13.0246,21.9137Q13.1875,21.1342,15.1597,20.9133Q17.3767,20.665,21.3062,20.8358Q22.3929,20.8831,23.1894,20.1398Q24,19.3833,24,18.2851L24,4.1100200000000005Q24,3.09579,23.295,2.359848Q22.5912,1.625292,21.5791,1.5792964Q17.3579,1.387475,14.9275,1.659679Q13.0027,1.875251,12,2.66341Q10.9973,1.875251,9.07251,1.659679Q6.64212,1.387475,2.42094,1.5792964Q1.40877,1.625292,0.705046,2.359848Q0,3.09579,0,4.1100200000000005L0,18.2851Q0,19.3833,0.810644,20.1398Q1.60707,20.8831,2.69376,20.8358ZM10.9569,19.2678Q10.1625,18.9621,9.07251,18.84Q6.69449,18.5737,2.60315,18.7515Q2.39071,18.7608,2.23405,18.6146Q2.08626,18.4767,2.08626,18.2851L2.08626,4.1100200000000005Q2.08626,3.93386,2.21154,3.8031Q2.33761,3.67149,2.51565,3.6634Q6.57295,3.47903,8.84031,3.73297Q10.7227,3.94381,10.9569,4.66358L10.9569,19.2678ZM13.0431,19.2678Q13.8375,18.9621,14.9275,18.84Q17.3055,18.5737,21.3968,18.7515Q21.6093,18.7608,21.7659,18.6146Q21.9137,18.4767,21.9137,18.2851L21.9137,4.1100200000000005Q21.9137,3.93386,21.7885,3.8031Q21.6624,3.67149,21.4844,3.6634Q17.427,3.47903,15.1597,3.73297Q13.2773,3.94381,13.0431,4.66358L13.0431,19.2678ZM4.14925,8.64813C4.12844,8.649370000000001,4.10759,8.65,4.08675,8.65C3.50961,8.65,3.04175,8.18214,3.04175,7.605C3.04175,7.02786,3.50961,6.56,4.08675,6.56C4.10759,6.56,4.12844,6.56062,4.14925,6.56187L8.89396,6.56187C8.91477,6.56062,8.93561,6.56,8.95646,6.56C9.5336,6.56,10.0015,7.02786,10.0015,7.605C10.0015,8.18214,9.5336,8.65,8.95646,8.65C8.93561,8.65,8.91477,8.649370000000001,8.89396,8.64813L4.14925,8.64813ZM15.106,8.64813C15.0852,8.649370000000001,15.0644,8.65,15.0435,8.65C14.4664,8.65,13.9985,8.18214,13.9985,7.605C13.9985,7.02786,14.4664,6.56,15.0435,6.56C15.0644,6.56,15.0852,6.56062,15.106,6.56187L19.8507,6.56187C19.8716,6.56062,19.8924,6.56,19.9132,6.56C20.4904,6.56,20.9582,7.02786,20.9582,7.605C20.9582,8.18214,20.4904,8.65,19.9132,8.65C19.8924,8.65,19.8716,8.649370000000001,19.8507,8.64813L15.106,8.64813ZM4.14925,13.5568C4.12844,13.558,4.10759,13.5586,4.08675,13.5586C3.50961,13.5586,3.04175,13.0908,3.04175,12.5136C3.04175,11.9365,3.50961,11.46863,4.08675,11.46863C4.10759,11.46863,4.12844,11.46925,4.14925,11.4705L8.89396,11.4705C8.91477,11.46925,8.93561,11.46863,8.95646,11.46863C9.5336,11.46863,10.0015,11.9365,10.0015,12.5136C10.0015,13.0908,9.5336,13.5586,8.95646,13.5586C8.93561,13.5586,8.91477,13.558,8.89396,13.5568L4.14925,13.5568Z" fill-rule="evenodd"></path></symbol>
<symbol xmlns="http://www.w3.org/2000/svg" viewBox="0 0 24 24" id="checkbox"><path d="M1,19.5L1,4.5C1,2.567,2.567,1,4.5,1L19.5,1C21.433,1,23,2.567,23,4.5L23,19.5C23,21.433,21.433,23,19.5,23L4.5,23C2.567,23,1,21.433,1,19.5ZM3,19.5Q3,20.1213,3.43934,20.5607Q3.87868,21,4.5,21L19.5,21Q20.1213,21,20.5607,20.5607Q21,20.1213,21,19.5L21,4.5Q21,3.87868,20.5607,3.43934Q20.1213,3,19.5,3L4.5,3Q3.87868,3,3.43934,3.43934Q3,3.87868,3,4.5L3,19.5Z" fill-rule="evenodd"></path></symbol>
</svg>