<svg xmlns="http://www.w3.org/2000/svg" xmlns:xlink="http://www.w3.org/1999/xlink" style="position: absolute; width: 0; height: 0" aria-hidden="true" id="__SVG_SPRITE_NODE__">
<symbol xmlns="http://www.w3.org/2000/svg" viewBox="0 0 48 48" id="clear-input"><g fill-rule="evenodd"><path fill="none" d="M0 0H48V48H0z"></path><path d="M24,8 C32.836556,8 40,15.163444 40,24 C40,32.836556 32.836556,40 24,40 C15.163444,40 8,32.836556 8,24 C8,15.163444 15.163444,8 24,8 Z M28.9497475,17.636039 L24,22.5857864 L19.0502525,17.636039 L17.636039,19.0502525 L22.5857864,24 L17.636039,28.9497475 L19.0502525,30.363961 L24,25.4142136 L28.9497475,30.363961 L30.363961,28.9497475 L25.4142136,24 L30.363961,19.0502525 L28.9497475,17.636039 Z"></path></g></symbol>
<symbol xmlns="http://www.w3.org/2000/svg" viewBox="0 0 48 48" id="clear-trash"><path d="M28.7282552,6 C29.2753648,6 29.7188847,6.44771525 29.7188847,7 L29.7188847,18 L40.6158091,18 C41.1629187,18 41.6064386,18.4477153 41.6064386,19 L41.6064386,41 C41.6064386,41.5522847 41.1629187,42 40.6158091,42 L6.93440644,42 C6.38729688,42 5.94377695,41.5522847 5.94377695,41 L5.94377695,19 C5.94377695,18.4477153 6.38729688,18 6.93440644,18 L17.8313308,18 L17.8313308,7 C17.8313308,6.44771525 18.2748508,6 18.8219603,6 L28.7282552,6 Z M37.6439207,22 L9.90629491,22 L9.90629491,38 L13.8688129,38 L13.8688129,31 C13.8688129,30.4477153 14.3123328,30 14.8594424,30 L16.8407014,30 C17.3878109,30 17.8313308,30.4477153 17.8313308,31 L17.8313308,38 L21.7938488,38 L21.7938488,31 C21.7938488,30.4477153 22.2373687,30 22.7844783,30 L24.7657373,30 C25.3128468,30 25.7563668,30.4477153 25.7563668,31 L25.7563668,38 L29.7188847,38 L29.7188847,31 C29.7188847,30.4477153 30.1624047,30 30.7095142,30 L32.6907732,30 C33.2378828,30 33.6814027,30.4477153 33.6814027,31 L33.6814027,38 L37.6439207,38 L37.6439207,22 Z M25.7563668,10 L21.7938488,10 L21.7938488,18 L25.7563668,18 L25.7563668,10 Z" fill-rule="evenodd"></path></symbol>
</svg>