<svg xmlns="http://www.w3.org/2000/svg" xmlns:xlink="http://www.w3.org/1999/xlink" style="position: absolute; width: 0; height: 0" aria-hidden="true" id="__SVG_SPRITE_NODE__">
<symbol xmlns="http://www.w3.org/2000/svg" viewBox="0 0 36 36" id="comment-delete"><path d="M23.6396,8.37368C23.5201,6.49,21.9889,5,20.1176,5L15.88235,5L15.65029,5.00768109C13.80923,5.129944,12.35294,6.69652,12.35294,8.61111L12.35294,9.33333L7.705872,9.33337C7.316023,9.33337,7,9.65667,7,10.05554L7,11.5C7,11.898869999999999,7.316023,12.22217,7.705872,12.22217L8.41174,12.22217L8.41174,27.3889L8.41925,27.6263C8.53875,29.51,10.069890000000001,31,11.94116,31L24.0588,31L24.2909,30.9923C26.132,30.87,27.5883,29.3035,27.5883,27.3889L27.5883,12.22217L28.2941,12.22217C28.684,12.22217,29,11.898869999999999,29,11.5L29,10.05554C29,9.65667,28.684,9.33337,28.2941,9.33337L23.6471,9.33333L23.6471,8.61111L23.6396,8.37368ZM15.88233,7.888920000000001L20.1176,7.888920000000001L20.244500000000002,7.90055L20.3639,7.9341C20.6323,8.03636,20.8235,8.3009,20.8235,8.611139999999999L20.8235,9.333359999999999L15.17645,9.333359999999999L15.17645,8.611139999999999L15.18783,8.48132C15.24759,8.144400000000001,15.5358,7.888920000000001,15.88233,7.888920000000001ZM11.235289999999999,12.22223L24.7647,12.22223L24.7647,27.3889L24.7534,27.5187C24.6936,27.8557,24.4054,28.1111,24.0588,28.1111L11.94116,28.1111L11.81427,28.0994L11.694890000000001,28.066C11.426490000000001,27.9637,11.235289999999999,27.6991,11.235289999999999,27.3889L11.235289999999999,12.22223ZM18.7059,14.38892C19.0958,14.38892,19.4118,14.71227,19.4118,15.1111L19.4118,25.2222C19.4118,25.6211,19.0958,25.9445,18.7059,25.9445L17.2941,25.9445C16.90429,25.9445,16.58826,25.6211,16.58826,25.2222L16.58826,15.1111C16.58826,14.71227,16.90429,14.38892,17.2941,14.38892L18.7059,14.38892Z" fill-rule="evenodd"></path></symbol>
<symbol xmlns="http://www.w3.org/2000/svg" viewBox="0 0 16 16" id="comment"><path d="M6.1,3.5h3.9c0.9,0,1.2,0.1,1.5,0.3s0.6,0.4,0.8,0.8s0.3,0.6,0.3,1.5V9c0,0.8-0.1,1.2-0.3,1.5s-0.4,0.6-0.8,0.8 s-0.7,0.3-1.5,0.3H7.5c-0.4,0-0.6,0-0.7,0s-0.3,0.1-0.4,0.1C6.2,11.7,6,11.8,5.7,12L4.3,13c-0.2,0.2-0.5,0.1-0.7-0.1 c-0.1-0.1-0.1-0.2-0.1-0.3V6.1c0-0.9,0.1-1.2,0.3-1.5s0.4-0.6,0.8-0.8S5.2,3.5,6.1,3.5z M6,6C5.7,6,5.5,6.2,5.5,6.5S5.7,7,6,7h4 c0.3,0,0.5-0.2,0.5-0.5S10.3,6,10,6H6z M6,8C5.7,8,5.5,8.2,5.5,8.5S5.7,9,6,9h2c0.3,0,0.5-0.2,0.5-0.5S8.3,8,8,8H6z" fill-rule="evenodd" clip-rule="evenodd"></path></symbol>
</svg>