<svg xmlns="http://www.w3.org/2000/svg" xmlns:xlink="http://www.w3.org/1999/xlink" style="position: absolute; width: 0; height: 0" aria-hidden="true" id="__SVG_SPRITE_NODE__">
<symbol xmlns="http://www.w3.org/2000/svg" viewBox="0 0 29 12" id="connect-arrow"><path d="M1.25,5.5L0.5,5.5C0.223858,5.5,0,5.723858,0,6C0,6.276142,0.223858,6.5,0.5,6.5L1.25,6.5L1.25,5.5ZM4.25,6.5L2.75,6.5L2.75,5.5L4.25,5.5L4.25,6.5ZM6.5,6.5L5.75,6.5L5.75,5.5L6.5,5.5C6.77614,5.5,7,5.723858,7,6C7,6.276142,6.77614,6.5,6.5,6.5Z" fill-rule="evenodd"></path><path d="M24.75,6.5L26.25,6.5L26.25,5.5L24.75,5.5L24.75,6.5ZM22,6C22,6.276142,22.223858,6.5,22.5,6.5L23.25,6.5L23.25,5.5L22.5,5.5C22.223858,5.5,22,5.723858,22,6ZM27.75,6.5L28.5,6.5C28.776139999999998,6.5,29,6.276142,29,6C29,5.723858,28.776139999999998,5.5,28.5,5.5L27.75,5.5L27.75,6.5Z"></path><path d="M9.075891 9.57558L9.075736 9.57574Q8.991345 9.660129999999999 8.945672 9.770389999999999 8.9 9.88065 8.9 10 8.9 10.01442 8.900693 10.02882 8.906066 10.14056 8.951349 10.24286 8.996631 10.34516 9.075736 10.42426 9.160127 10.50866 9.27039 10.55433 9.380653 10.6 9.5 10.6 9.619347 10.6 9.72961 10.55433 9.839873 10.50866 9.924264 10.42426L9.924673 10.42386 13.92426 6.42426Q13.96605 6.38248 13.99888 6.33334 14.03171 6.28421 14.05433 6.22961 14.07694 6.17501 14.088470000000001 6.11705 14.1 6.05909 14.1 6 14.1 5.9409 14.088470000000001 5.88295 14.07694 5.82499 14.05433 5.77039 14.03171 5.71579 13.99888 5.66666 13.96605 5.61752 13.92426 5.57574L9.92436 1.5758320000000001 9.924264 1.575736Q9.839873 1.491345 9.72961 1.445672 9.619347 1.4 9.5 1.4 9.380653 1.4 9.27039 1.445672 9.160127 1.491345 9.075736 1.575736 8.991345 1.6601270000000001 8.945672 1.77039 8.9 1.880653 8.9 2 8.9 2.119347 8.945672 2.22961 8.991345 2.339873 9.075736 2.424264L9.075832 2.42436 12.65147 6 9.075891 9.57558zM15.075891 9.57558L15.075736 9.57574Q14.991345 9.660129999999999 14.945672 9.770389999999999 14.9 9.88065 14.9 10 14.9 10.01442 14.900693 10.02882 14.906066 10.14056 14.951349 10.24286 14.996631 10.34516 15.075736 10.42426 15.160127 10.50866 15.27039 10.55433 15.380653 10.6 15.5 10.6 15.619347 10.6 15.72961 10.55433 15.839873 10.50866 15.924264 10.42426L15.924673 10.42386 19.92426 6.42426Q19.96605 6.38248 19.99888 6.33334 20.03171 6.28421 20.05433 6.22961 20.07694 6.17501 20.08847 6.11705 20.1 6.05909 20.1 6 20.1 5.9409 20.08847 5.88295 20.07694 5.82499 20.05433 5.77039 20.03171 5.71579 19.99888 5.66666 19.96605 5.61752 19.92426 5.57574L15.92436 1.5758320000000001 15.924264 1.575736Q15.839873 1.491345 15.72961 1.445672 15.619347 1.4 15.5 1.4 15.380653 1.4 15.27039 1.445672 15.160127 1.491345 15.075736 1.575736 14.991345 1.6601270000000001 14.945672 1.77039 14.9 1.880653 14.9 2 14.9 2.119347 14.945672 2.22961 14.991345 2.339873 15.075736 2.424264L15.075832 2.42436 18.65147 6 15.075891 9.57558z" fill-rule="evenodd"></path></symbol>
<symbol xmlns="http://www.w3.org/2000/svg" viewBox="0 0 8 8" id="connect-change"><path d="M4,8C6.20914,8,8,6.20914,8,4C8,1.79086,6.20914,0,4,0C1.79086,0,0,1.79086,0,4C0,6.20914,1.79086,8,4,8ZM2,3.50005C1.72386,3.50005,1.5,3.27619,1.5,3.00005C1.5,2.7239,1.72386,2.50005,2,2.50005L5,2.50005L5.00051,1.98222C5.00068,1.80414,5.216,1.71507,5.34193,1.841L6.65956,3.15862C6.78555,3.28462,6.69631,3.50005,6.51813,3.50005L2,3.50005ZM2.65905,6.1591L1.34142,4.84147C1.21543,4.71547,1.30466,4.50005,1.48284,4.50005L6,4.50005C6.27614,4.50005,6.5,4.7239,6.5,5.00005C6.5,5.27619,6.27614,5.50005,6,5.50005L3.00098,5.50005L3.00047,6.01787C3.0003,6.19596,2.78498,6.28502,2.65905,6.1591" fill-rule="evenodd"></path></symbol>
<symbol xmlns="http://www.w3.org/2000/svg" fill="none" viewBox="0 0 20 20" id="connect-google"><defs><clipPath id="connect-google_a"><rect x="1.667" y="1.667" width="16.667" height="16.667" rx="0"></rect></clipPath></defs><g clip-path="url(#connect-google_a)"><path d="M5.151667140808105,10.00023342010498C5.151667140808105,9.471063420104981,5.241947140808105,8.96343342010498,5.401667140808105,8.48773342010498L2.5975021408081056,6.3905134201049805C2.0341001408081056,7.51028342010498,1.7415244208081055,8.74671342010498,1.7433355152581054,10.00023342010498C1.7433355152581054,11.29744342010498,2.0502851408081053,12.52106342010498,2.5961191408081055,13.60716342010498L5.398907140808106,11.506483420104981C5.2354671408081055,11.02109342010498,5.151967140808106,10.512393420104981,5.151667140808105,10.00023342010498Z" fill="#FBBC05"></path><path d="M10.076511047058105,5.185543859558106C11.250131047058105,5.185543859558106,12.310551047058105,5.592493859558106,13.143831047058105,6.259163859558106L15.568231047058106,3.8890138595581054C14.091031047058106,2.6300128595581054,12.197331047058105,1.8522138595581055,10.076501047058105,1.8522138595581055C6.783451047058105,1.8522138595581055,3.9529010470581056,3.6959638595581055,2.5973310470581055,6.390413859558105L5.402901047058105,8.487633859558105C6.048731047058105,6.566793859558105,7.890401047058106,5.185543859558106,10.076511047058105,5.185543859558106Z" fill="#EA4335"></path><path d="M10.076501047058105,14.81466373260498C7.8897010470581055,14.81466373260498,6.048031047058105,13.433413732604981,5.4015010470581055,11.51258373260498L2.5973310470581055,13.60980373260498C3.9522010470581055,16.30425373260498,6.782751047058105,18.14800373260498,10.076501047058105,18.14800373260498C12.108451047058105,18.14800373260498,14.048731047058105,17.44175373260498,15.505631047058106,16.11745373260498L12.843131047058105,14.10216373260498C12.092481047058106,14.56536373260498,11.146651047058105,14.81466373260498,10.076501047058105,14.81466373260498Z" fill="#34A853"></path><path d="M18.030696672058106,10.00005931854248C18.030696672058106,9.51880931854248,17.954316672058106,9.00005931854248,17.841116672058106,8.51880931854248L10.075846672058105,8.51880931854248L10.075846672058105,11.66672931854248L14.545276672058105,11.66672931854248C14.322366672058106,12.74033931854248,13.714026672058106,13.565329318542481,12.843896672058106,14.10214931854248L15.505696672058106,16.11742931854248C17.035566672058106,14.72714931854248,18.030696672058106,12.65630931854248,18.030696672058106,10.00005931854248Z" fill="#4285F4"></path></g></symbol>
<symbol xmlns="http://www.w3.org/2000/svg" fill="none" viewBox="0 0 24 24" id="connect-logo"><path d="M9.08616712677002,9.644401312942506L7.4715471267700195,11.609861312942506L11.29550712677002,14.745631312942505C11.52414712677002,14.933431312942504,11.80964712677002,15.034731312942505,12.102847126770019,15.034731312942505C12.146687126770018,15.034731312942505,12.190787126770019,15.032531312942504,12.23472712677002,15.027931312942505C12.57303712677002,14.992631312942505,12.882977126770019,14.823331312942505,13.09558712677002,14.557931312942506L19.95464712677002,5.993561312942505L17.969147126770018,4.403531312942505L11.91515712677002,11.962641312942505L9.08616712677002,9.644401312942506Z" fill-rule="evenodd" fill="#FFB000"></path><path d="M12.0000025,19.5017125C7.8635325,19.5017125,4.4982425,16.136512500000002,4.4982425,12.0000025C4.4982425,7.8635325,7.8635325,4.4982425,12.0000025,4.4982425L12.0000025,2.3203125C6.6626225,2.3203125,2.3203125,6.6626225,2.3203125,12.0000025C2.3203125,17.3374125,6.6626225,21.6797125,12.0000025,21.6797125C17.3374125,21.6797125,21.6797125,17.3374125,21.6797125,12.0000025L19.5017125,12.0000025C19.5017125,16.136512500000002,16.136512500000002,19.5017125,12.0000025,19.5017125Z" fill-rule="evenodd" fill="#4772FA"></path></symbol>
<symbol xmlns="http://www.w3.org/2000/svg" viewBox="0 0 24 24" id="connect"><path d="M22.7071,8.29289L18.2071,3.792893Q18.0665,3.652241,17.8827,3.57612Q17.698900000000002,3.5,17.5,3.5Q17.4741,3.5,17.4483,3.5013389999999998Q17.262999999999998,3.510937,17.0935,3.586334Q16.9241,3.66173,16.7929,3.792893Q16.6522,3.933545,16.5761,4.117317Q16.5,4.301088,16.5,4.5Q16.5,4.698912,16.5761,4.882683Q16.6522,5.066455,16.7929,5.207107L16.793300000000002,5.207482L19.5858,8L2,8Q1.9015086,8,1.80491,8.019210000000001Q1.7083110000000001,8.03843,1.617317,8.07612Q1.526322,8.11381,1.44443,8.16853Q1.362537,8.22325,1.2928929999999998,8.29289Q1.223249,8.36254,1.16853,8.44443Q1.113812,8.52632,1.076121,8.61732Q1.03843,8.70831,1.019215,8.80491Q1,8.90151,1,9Q1,9.09849,1.019215,9.19509Q1.03843,9.29169,1.076121,9.38268Q1.113812,9.47368,1.16853,9.55557Q1.223249,9.63746,1.2928929999999998,9.70711Q1.362537,9.77675,1.44443,9.83147Q1.526322,9.88619,1.617317,9.92388Q1.7083110000000001,9.96157,1.80491,9.98078Q1.9015086,10,2,10L22,10Q22.1989,10,22.3827,9.92388Q22.5665,9.847760000000001,22.7071,9.70711Q22.7768,9.63746,22.8315,9.55557Q22.8862,9.47368,22.9239,9.38268Q22.9616,9.29169,22.9808,9.19509Q23,9.09849,23,9Q23,8.90151,22.9808,8.80491Q22.9616,8.70831,22.9239,8.61732Q22.8862,8.52632,22.8315,8.44443Q22.7768,8.36254,22.7071,8.29289Z" fill-rule="evenodd"></path><path d="M42.7071,23.29289L38.2071,18.792893Q38.066500000000005,18.652241,37.8827,18.57612Q37.6989,18.5,37.5,18.5Q37.4741,18.5,37.4483,18.501339Q37.263,18.510937,37.0935,18.586334Q36.924099999999996,18.66173,36.7929,18.792893Q36.6522,18.933545,36.5761,19.117317Q36.5,19.301088,36.5,19.5Q36.5,19.698912,36.5761,19.882683Q36.6522,20.066455,36.7929,20.207107L36.7933,20.207482L39.5858,23L22,23Q21.9015086,23,21.80491,23.01921Q21.708311,23.038429999999998,21.617317,23.07612Q21.526322,23.11381,21.44443,23.16853Q21.362537,23.22325,21.292893,23.29289Q21.223249,23.36254,21.16853,23.44443Q21.113812,23.52632,21.076121,23.61732Q21.038429999999998,23.70831,21.019215,23.80491Q21,23.901510000000002,21,24Q21,24.098489999999998,21.019215,24.19509Q21.038429999999998,24.29169,21.076121,24.38268Q21.113812,24.47368,21.16853,24.55557Q21.223249,24.63746,21.292893,24.70711Q21.362537,24.77675,21.44443,24.83147Q21.526322,24.88619,21.617317,24.92388Q21.708311,24.961570000000002,21.80491,24.98078Q21.9015086,25,22,25L42,25Q42.198899999999995,25,42.3827,24.92388Q42.566500000000005,24.84776,42.7071,24.70711Q42.7768,24.63746,42.8315,24.55557Q42.8862,24.47368,42.9239,24.38268Q42.961600000000004,24.29169,42.9808,24.19509Q43,24.098489999999998,43,24Q43,23.901510000000002,42.9808,23.80491Q42.961600000000004,23.70831,42.9239,23.61732Q42.8862,23.52632,42.8315,23.44443Q42.7768,23.36254,42.7071,23.29289Z" fill-rule="evenodd" transform="rotate(180 22 19.5)"></path></symbol>
</svg>