<svg xmlns="http://www.w3.org/2000/svg" xmlns:xlink="http://www.w3.org/1999/xlink" style="position: absolute; width: 0; height: 0" aria-hidden="true" id="__SVG_SPRITE_NODE__">
<symbol xmlns="http://www.w3.org/2000/svg" viewBox="0 0 24 24" id="convert-task"><path d="M2.0000152587890625,18.681711308288573L2.0000152587890625,5.318091308288574C2.0000152587890625,3.209371308288574,3.7908752587890624,1.4999113082885742,6.0000152587890625,1.4999113082885742L18.000015258789062,1.4999113082885742C20.209115258789062,1.4999113082885742,22.000015258789062,3.209371308288574,22.000015258789062,5.318091308288574L22.000015258789062,13.390111308288574Q21.544415258789062,13.093611308288574,21.039515258789063,12.892011308288573Q20.534615258789064,12.690411308288574,20.000015258789062,12.591611308288574L20.000015258789062,5.318091308288574Q20.000015258789062,4.527321308288574,19.414215258789064,3.968161308288574Q18.82841525878906,3.409001308288574,18.000015258789062,3.409001308288574L14.000015258789062,3.409001308288574L14.000015258789062,11.045361308288575C14.000015258789062,11.831911308288575,13.059215258789063,12.280911308288575,12.400015258789063,11.809011308288575L10.060015258789063,10.133771308288575C10.024455258789063,10.108321308288573,9.975575258789062,10.108321308288573,9.940015258789064,10.133771308288575L7.600015258789062,11.809011308288575C6.9407752587890625,12.280911308288575,6.0000152587890625,11.831911308288575,6.0000152587890625,11.045361308288575L6.0000152587890625,3.409001308288574Q5.1715852587890625,3.409001308288574,4.585805258789062,3.968161308288574Q4.0000152587890625,4.527321308288574,4.0000152587890625,5.318091308288574L4.0000152587890625,18.681711308288573Q4.0000152587890625,19.472511308288574,4.585805258789062,20.031611308288575Q5.1715852587890625,20.590811308288576,6.0000152587890625,20.590811308288576L14.148515258789063,20.590811308288576Q14.452815258789062,21.160711308288572,14.881015258789063,21.644611308288574Q15.309115258789063,22.128411308288573,15.837715258789062,22.499911308288574L6.0000152587890625,22.499911308288574C3.7908752587890624,22.499911308288574,2.0000152587890625,20.790411308288576,2.0000152587890625,18.681711308288573ZM8.000015258789062,3.409001308288574L12.000015258789062,3.409001308288574L12.000015258789062,9.136271308288574L11.260015258789062,8.606501308288575Q10.700015258789062,8.205591308288575,10.000015258789062,8.205591308288575Q9.300015258789063,8.205591308288575,8.740015258789063,8.606501308288575L8.000015258789062,9.136271308288574L8.000015258789062,3.409001308288574Z" fill-rule="evenodd"></path><path d="M19,22Q19.19651,22,19.39207,21.98074Q19.58763,21.96148,19.78036,21.92314Q19.97309,21.8848,20.16114,21.827759999999998Q20.34918,21.77072,20.53073,21.695520000000002Q20.71228,21.62032,20.88559,21.52768Q21.058889999999998,21.43505,21.222279999999998,21.325879999999998Q21.38567,21.2167,21.53757,21.09204Q21.68948,20.96738,21.82843,20.82843Q21.96738,20.68948,22.09204,20.53757Q22.2167,20.38567,22.325879999999998,20.222279999999998Q22.43505,20.058889999999998,22.52768,19.88559Q22.62032,19.71228,22.695520000000002,19.53073Q22.77072,19.34918,22.827759999999998,19.16114Q22.8848,18.97309,22.92314,18.78036Q22.96148,18.58763,22.98074,18.39207Q23,18.19651,23,18Q23,17.80349,22.98074,17.60793Q22.96148,17.41237,22.92314,17.21964Q22.8848,17.02691,22.827759999999998,16.83886Q22.77072,16.65082,22.695520000000002,16.46927Q22.62032,16.28772,22.52768,16.11441Q22.43505,15.94111,22.325879999999998,15.77772Q22.2167,15.61433,22.09204,15.46243Q21.96738,15.31052,21.82843,15.17157Q21.68948,15.03262,21.53757,14.907958Q21.38567,14.783295,21.222279999999998,14.674121Q21.058889999999998,14.564948,20.88559,14.472315Q20.71228,14.379682,20.53073,14.304482Q20.34918,14.229282,20.16114,14.172239Q19.97309,14.115196,19.78036,14.0768589Q19.58763,14.0385222,19.39207,14.0192611Q19.19651,14,19,14Q18.80349,14,18.60793,14.0192611Q18.41237,14.0385222,18.21964,14.0768589Q18.02691,14.115196,17.83886,14.172239Q17.65082,14.229282,17.46927,14.304482Q17.28772,14.379682,17.11441,14.472315Q16.94111,14.564948,16.77772,14.674121Q16.61433,14.783295,16.46243,14.907958Q16.31052,15.03262,16.17157,15.17157Q16.03262,15.31052,15.907958,15.46243Q15.783295,15.61433,15.674121,15.77772Q15.564948,15.94111,15.472315,16.11441Q15.379682,16.28772,15.304482,16.46927Q15.229282,16.65082,15.172239,16.83886Q15.115196,17.02691,15.0768589,17.21964Q15.0385222,17.41237,15.0192611,17.60793Q15,17.80349,15,18Q15,18.19651,15.0192611,18.39207Q15.0385222,18.58763,15.0768589,18.78036Q15.115196,18.97309,15.172239,19.16114Q15.229282,19.34918,15.304482,19.53073Q15.379682,19.71228,15.472315,19.88559Q15.564948,20.058889999999998,15.674121,20.222279999999998Q15.783295,20.38567,15.907958,20.53757Q16.03262,20.68948,16.17157,20.82843Q16.31052,20.96738,16.46243,21.09204Q16.61433,21.2167,16.77772,21.325879999999998Q16.94111,21.43505,17.11441,21.52768Q17.28772,21.62032,17.46927,21.695520000000002Q17.65082,21.77072,17.83886,21.827759999999998Q18.02691,21.8848,18.21964,21.92314Q18.41237,21.96148,18.60793,21.98074Q18.80349,22,19,22ZM17,17.5C16.72386,17.5,16.5,17.276139999999998,16.5,17C16.5,16.723860000000002,16.72386,16.5,17,16.5L19.49899,16.5L19.5,15.5L21.5,17.5L17,17.5ZM18.5,20.5L16.5,18.5L21,18.5C21.276139999999998,18.5,21.5,18.723860000000002,21.5,19C21.5,19.276139999999998,21.276139999999998,19.5,21,19.5L18.50101,19.5L18.5,20.5Z" fill-rule="evenodd"></path></symbol>
</svg>