<svg xmlns="http://www.w3.org/2000/svg" xmlns:xlink="http://www.w3.org/1999/xlink" style="position: absolute; width: 0; height: 0" aria-hidden="true" id="__SVG_SPRITE_NODE__">
<symbol xmlns="http://www.w3.org/2000/svg" viewBox="0 0 24 24" id="copy_to_text"><path d="M12.000004768371582,1L10.017964768371582,1C8.36424476837158,1,7.005144768371582,2.34743,7.000014768371582,4L8.999994768371582,4C8.999994768371582,3.44772,9.447704768371581,3,9.999994768371582,3L12.000004768371582,3L12.000004768371582,1ZM12.000004768371582,1L18.000004768371582,1L19.984004768371584,1.0000151778C21.64200476837158,1.00000881499,22.998304768371582,2.35954,22.998404768371582,4.01751Q22.998504768371582,5.20145,23.000004768371582,6L23.000004768371582,12L23.000004768371582,13.984C23.000004768371582,15.6349,21.648704768371584,16.9902,20.000004768371582,16.9999L20.000004768371582,15C20.55230476837158,15,21.000004768371582,14.5523,21.000004768371582,14L21.000004768371582,12L21.000004768371582,4.00002C21.000004768371582,3.44774,20.55230476837158,3.00002,20.000004768371582,3.00002L18.000004768371582,3L12.000004768371582,3L12.000004768371582,1ZM18.000004768371582,13L18.000004768371582,20C17.99610476837158,21.6536,16.66070476837158,23,15.006204768371582,23L4.0359147683715815,23C2.379064768371582,23,1.000009180101582,21.6569,1.000009493791582,20L1.000011576451582,9.00001C1.000011890141582,7.34315,2.343154768371582,6.00001,4.000014768371582,6.00001L15.000004768371582,6.00001C16.656904768371582,6.00001,18.000004768371582,7.36749,18.000004768371582,9.02434L18.000004768371582,13ZM4.000004768371582,8L15.000004768371582,8C15.552304768371583,8,16.000004768371582,8.44772,16.000004768371582,9L16.000004768371582,20C16.000004768371582,20.5523,15.552304768371583,21,15.000004768371582,21L4.000004768371582,21C3.447714768371582,21,3.000004768371582,20.5523,3.000004768371582,20L3.000004768371582,9C3.000004768371582,8.44772,3.447714768371582,8,4.000004768371582,8Z" fill-rule="evenodd"></path><path d="M13.999993515014648,12.12500034375Q13.999993515014648,11.72114134375,13.714423515014648,11.43554734375Q13.428853515014648,11.14997601505,13.024993515014648,11.14990234375L6.024993515014648,11.14990234375Q5.6211355150146485,11.14990234375,5.3355645150146485,11.43554734375Q5.049993515027388,11.72111634375,5.049993515027388,12.12500034375Q5.049991607674649,12.52886234375,5.3355645150146485,12.81445234375Q5.621137515014649,13.10002234375,6.024993515014648,13.09985234375L13.024993515014648,13.09985234375Q13.428853515014648,13.09985234375,13.714423515014648,12.81445234375Q13.999993515014648,12.52888234375,13.999993515014648,12.12500034375ZM13.999993515014648,16.50000234375Q13.999993515014648,16.09614234375,13.714423515014648,15.81054234375Q13.428853515014648,15.524972343750001,13.024993515014648,15.52490234375L6.024993515014648,15.52490234375Q5.6211355150146485,15.52490234375,5.3355645150146485,15.81054234375Q5.049993515027388,16.09611234375,5.049993515027388,16.50000234375Q5.049993515027388,16.90386234375,5.3355645150146485,17.18945234375Q5.621137515014649,17.47502234375,6.024993515014648,17.47485234375L13.024993515014648,17.47485234375Q13.428853515014648,17.47485234375,13.714423515014648,17.18945234375Q13.999993515014648,16.90388234375,13.999993515014648,16.50000234375Z" fill-rule="evenodd"></path></symbol>
</svg>