<svg xmlns="http://www.w3.org/2000/svg" xmlns:xlink="http://www.w3.org/1999/xlink" style="position: absolute; width: 0; height: 0" aria-hidden="true" id="__SVG_SPRITE_NODE__">
<symbol xmlns="http://www.w3.org/2000/svg" viewBox="0 0 64 64" id="csv"><g fill="none" fill-rule="evenodd"><path d="M8,9.3420016 C8,7.12807525 9.81214523,5.33333333 11.9881206,5.33333333 L40,5.33333333 L56,21.3333333 L56,54.671346 C56,56.8779007 54.2347281,58.6666667 51.9901068,58.6666667 L12.0098932,58.6666667 C9.79529033,58.6666667 8,56.8921712 8,54.6579984 L8,9.3420016 Z" fill="#45B058"></path><path d="M32.1546667,48.288 C35.3226667,48.288 37.9946667,47.136 40.1706667,44.832 L40.1706667,44.832 L36.8106667,41.616 C36.0426667,42.448 35.3146667,43.04 34.6266667,43.392 C33.9386667,43.744 33.1146667,43.92 32.1546667,43.92 C30.2346667,43.92 28.7306667,43.2 27.6426667,41.76 C26.6826667,40.544 26.2026667,38.56 26.2026667,35.808 C26.2026667,33.088 26.6826667,31.12 27.6426667,29.904 C28.7306667,28.464 30.2346667,27.744 32.1546667,27.744 C33.1146667,27.744 33.9386667,27.92 34.6266667,28.272 C35.3146667,28.624 36.0426667,29.216 36.8106667,30.048 L36.8106667,30.048 L40.1706667,26.784 C38.0266667,24.512 35.3546667,23.376 32.1546667,23.376 C30.7146667,23.376 29.3706667,23.6 28.1226667,24.048 C26.8746667,24.496 25.7306667,25.192 24.6906667,26.136 C23.6506667,27.08 22.8266667,28.376 22.2186667,30.024 C21.6106667,31.672 21.3066667,33.6 21.3066667,35.808 C21.3066667,38.016 21.6106667,39.944 22.2186667,41.592 C22.8266667,43.24 23.6506667,44.536 24.6906667,45.48 C25.7306667,46.424 26.8746667,47.128 28.1226667,47.592 C29.3706667,48.056 30.7146667,48.288 32.1546667,48.288 Z" fill="#FFFFFF" fill-rule="nonzero"></path><path d="M40,5.33333333 L56,21.3333333 L43.9962027,21.3333333 C41.7891609,21.3333333 40,19.544503 40,17.3371306 L40,5.33333333 Z" fill="#000000" opacity=".3"></path></g></symbol>
</svg>