<svg xmlns="http://www.w3.org/2000/svg" xmlns:xlink="http://www.w3.org/1999/xlink" style="position: absolute; width: 0; height: 0" aria-hidden="true" id="__SVG_SPRITE_NODE__">
<symbol xmlns="http://www.w3.org/2000/svg" viewBox="0 0 16 16" id="current-streak"><defs><clipPath id="current-streak_a"><rect width="16" height="16" rx="0"></rect></clipPath></defs><g clip-path="url(#current-streak_a)"><path d="M11.302500019073486,4.68L10.254500019073486,5.76Q10.254500019073486,1.44,6.760900019073486,0Q6.411300019073487,3.96,4.664900019073486,5.4C2.916098019073486,6.84,-0.5774999809265138,11.16,6.410500019073487,14.4Q2.916098019073486,10.44,7.458500019073487,7.56Q7.109700019073486,9,8.856900019073485,10.44Q10.603300019073487,11.88,8.856900019073485,14.4Q17.242500019073486,12.24,11.302500019073486,4.68Z"></path></g></symbol>
<symbol xmlns="http://www.w3.org/2000/svg" viewBox="0 0 16 16" id="current-timezone"><path d="M7.99768,0.25C10.84895,0.25,13.1604,2.56141,13.1604,5.41268C13.1604,6.61396,12.7501,7.71941,12.062,8.59655Q11.46936,9.35199,8.88283,11.8842C8.38466,12.3719,7.61069,12.3719,7.11253,11.8842Q4.526,9.35199,3.93338,8.59655C3.24529,7.71941,2.835,6.61396,2.835,5.41268C2.835,2.56141,5.1464099999999995,0.25,7.99768,0.25ZM7.99768,1.25Q6.27344,1.25,5.05422,2.46922Q3.835,3.68844,3.835,5.41268Q3.835,6.85097,4.7201699999999995,7.97933Q5.27236,8.68323,7.8121,11.1697Q7.99768,11.3513,8.18326,11.1697Q10.72299,8.68324,11.27518,7.97933Q12.1604,6.85097,12.1604,5.41268Q12.1604,3.68844,10.94114,2.46922Q9.72192,1.25,7.99768,1.25ZM10.00004,5.25C10.00004,6.35457,9.104610000000001,7.25,8.00004,7.25C6.89547,7.25,6.00004,6.35457,6.00004,5.25C6.00004,4.14543,6.89547,3.25,8.00004,3.25C9.104610000000001,3.25,10.00004,4.14543,10.00004,5.25ZM9.00004,5.25Q9.00004,4.83579,8.70715,4.54289Q8.41425,4.25,8.00004,4.25Q7.58582,4.25,7.29293,4.54289Q7.00004,4.83579,7.00004,5.25Q7.00004,5.66421,7.29293,5.95711Q7.58582,6.25,8.00004,6.25Q8.41425,6.25,8.70715,5.95711Q9.00004,5.66421,9.00004,5.25ZM4.25736,10.9822Q4.25736,11.0562,4.2359100000000005,11.1271Q4.214449999999999,11.1979,4.17338,11.2595Q4.13232,11.3211,4.07516,11.3682Q4.01801,11.4152,3.94967,11.4437Q3.20875,11.7524,2.8224,12.133Q2.5,12.4506,2.5,12.7499Q2.5,13.0493,2.8224,13.3669Q3.20875,13.7475,3.94967,14.0562Q5.61472,14.7499,8,14.7499Q10.38528,14.7499,12.0503,14.0562Q12.7913,13.7475,13.1776,13.3669Q13.5,13.0493,13.5,12.7499Q13.5,12.4506,13.1776,12.133Q12.7913,11.7524,12.0503,11.4437Q11.982,11.4152,11.9248,11.3682Q11.8677,11.3211,11.8266,11.2595Q11.7856,11.1979,11.7641,11.1271Q11.7426,11.0562,11.7426,10.9822Q11.7426,10.9329,11.7522,10.8846Q11.7619,10.8363,11.7807,10.7908Q11.7995,10.7453,11.8269,10.7044Q11.8543,10.6634,11.8891,10.6286Q11.9239,10.5938,11.9649,10.5664Q12.0058,10.5391,12.0513,10.5202Q12.0968,10.5014,12.1451,10.4918Q12.1934,10.4822,12.2426,10.4822Q12.3426,10.4822,12.4349,10.5206L12.4356,10.5209Q14.5,11.3813,14.5,12.7499Q14.5,14.1188,12.4349,14.9792Q10.58528,15.7499,8,15.7499Q5.41472,15.7499,3.56505,14.9792Q1.5,14.1188,1.5,12.7499Q1.5,11.3812,3.56479,10.5208L3.56503,10.5206Q3.65735,10.4822,3.75736,10.4822Q3.80661,10.4822,3.8549,10.4918Q3.9032,10.5014,3.9487,10.5202Q3.9942,10.5391,4.03514,10.5664Q4.076090000000001,10.5938,4.1109100000000005,10.6286Q4.14573,10.6634,4.17309,10.7044Q4.20045,10.7453,4.2193000000000005,10.7908Q4.23814,10.8363,4.24775,10.8846Q4.25736,10.9329,4.25736,10.9822Z" fill-rule="evenodd"></path></symbol>
</svg>