<svg xmlns="http://www.w3.org/2000/svg" xmlns:xlink="http://www.w3.org/1999/xlink" style="position: absolute; width: 0; height: 0" aria-hidden="true" id="__SVG_SPRITE_NODE__">
<symbol xmlns="http://www.w3.org/2000/svg" viewBox="0 0 16 16" id="default-checkbox"><path d="M1,12.3333L1,3.66667C1,2.19391,2.19391,1,3.66667,1L12.3333,1C13.8061,1,15,2.19391,15,3.66667L15,12.3333C15,13.8061,13.8061,15,12.3333,15L3.66667,15C2.19391,15,1,13.8061,1,12.3333ZM2.33333,12.3333Q2.33333,12.8856,2.7238800000000003,13.2762Q3.1144,13.6667,3.66667,13.6667L12.3333,13.6667Q12.8856,13.6667,13.2761,13.2762Q13.6666,12.8857,13.6667,12.3333L13.6667,3.66667Q13.6667,3.11438,13.2761,2.7237999999999998Q12.8856,2.3332699999999997,12.3333,2.33333L3.66667,2.33333Q3.11438,2.33333,2.72386,2.72386Q2.33333,3.11438,2.33333,3.66667L2.33333,12.3333Z" fill-rule="evenodd"></path></symbol>
</svg>