<svg xmlns="http://www.w3.org/2000/svg" xmlns:xlink="http://www.w3.org/1999/xlink" style="position: absolute; width: 0; height: 0" aria-hidden="true" id="__SVG_SPRITE_NODE__">
<symbol xmlns="http://www.w3.org/2000/svg" viewBox="0 0 32 32" id="device_iphone"><path d="M14,24 C14.5522847,24 15,23.5522847 15,23 C15,22.4477153 14.5522847,22 14,22 L14,24 Z M5,22 C4.44771525,22 4,22.4477153 4,23 C4,23.5522847 4.44771525,24 5,24 L5,22 Z M14.034375,1 L14.034375,2 L14.034375,1 Z M5.034375,1 L5.034375,4.4408921e-16 L5.034375,1 Z M1,23.034375 L2,23.034375 L1,23.034375 Z M1,5.034375 L0,5.034375 L1,5.034375 Z M14.034375,27 L14.034375,26 L14.034375,27 Z M5.034375,27 L5.034375,28 L5.034375,27 Z M18,23.034375 L19,23.034375 L18,23.034375 Z M18,5.034375 L17,5.034375 L18,5.034375 Z M14,4.4408921e-16 L5,4.4408921e-16 L5,2 L14,2 L14,4.4408921e-16 Z M5.90039062,2 L13.3333333,2 C13.3333333,2.73637967 12.7363797,3.33333333 12,3.33333333 L7.23372396,3.33333333 C6.49734429,3.33333333 5.90039062,2.73637967 5.90039062,2 L5.90039062,2 L5.90039062,2 Z M2,23 L2,5 L0,5 L0,23 L2,23 Z M14,26 L5,26 L5,28 L14,28 L14,26 Z M19,23 L19,5 L17,5 L17,23 L19,23 Z M14,28 C16.7614237,28 19,25.7614237 19,23 L17,23 C17,24.6568542 15.6568542,26 14,26 L14,28 L14,28 Z M14,2 C15.6568542,2 17,3.34314575 17,5 L19,5 C19,2.23857625 16.7614237,0 14,0 L14,2 Z M5,4.4408921e-16 C2.23857625,4.4408921e-16 8.8817842e-16,2.23857625 8.8817842e-16,5 L2,5 C2,3.34314575 3.34314575,2 5,2 L5,4.4408921e-16 Z M0,23 C0,25.7614237 2.23857625,28 5,28 L5,26 C3.34314575,26 2,24.6568542 2,23 L0,23 L0,23 Z M5,24 L14,24 L14,22 L5,22 L5,24 Z" transform="translate(6.667 2)" fill-rule="nonzero"></path></symbol>
</svg>