<svg xmlns="http://www.w3.org/2000/svg" xmlns:xlink="http://www.w3.org/1999/xlink" style="position: absolute; width: 0; height: 0" aria-hidden="true" id="__SVG_SPRITE_NODE__">
<symbol xmlns="http://www.w3.org/2000/svg" fill="none" viewBox="0 0 30 28" id="edit-avatar"><path d="M6.472479019165039,4.54054L7.291479019165039,1.86654C7.631379019165039,0.756798,8.648259019165039,3.46416e-7,9.79947901916504,0L20.20047901916504,0C21.35167901916504,-0.0000221706,22.36857901916504,0.756776,22.70847901916504,1.86654L23.52747901916504,4.54054L25.87497901916504,4.54054C28.153079019165038,4.54054,29.99997901916504,6.40405,29.99997901916504,8.7027L29.99997901916504,23.8378C29.99997901916504,26.1365,28.153079019165038,28,25.87497901916504,28L4.124979019165039,28C1.846849019165039,28,-0.0000209808349609375,26.1365,-0.0000209808349609375,23.8378L-0.0000209808349609375,8.7027C-0.0000209808349609375,6.40405,1.846849019165039,4.54054,4.124979019165039,4.54054L6.472479019165039,4.54054ZM7.302349019165039,6.81081L4.124979019165039,6.81081C3.089449019165039,6.81081,2.249979019165039,7.65784,2.249979019165039,8.7027L2.249979019165039,23.8378C2.249979019165039,24.8827,3.089439019165039,25.7297,4.124979019165039,25.7297L25.87497901916504,25.7297C26.910479019165038,25.7297,27.74997901916504,24.8827,27.74997901916504,23.8378L27.74997901916504,8.7027C27.74997901916504,7.65784,26.910479019165038,6.81081,25.87497901916504,6.81081L22.69757901916504,6.81081C22.20427901916504,6.81078,21.76857901916504,6.48647,21.62287901916504,6.01092L20.558579019165037,2.53703C20.51007901916504,2.3785,20.364879019165038,2.27035,20.20047901916504,2.27027L9.79947901916504,2.27027C9.63504901916504,2.27035,9.489859019165038,2.3785,9.441349019165038,2.53703L8.377099019165039,6.01054C8.23143901916504,6.48633,7.795659019165039,6.81081,7.302349019165039,6.81081ZM14.999979019165039,21.1892C11.893479019165039,21.1892,9.374979019165039,18.648,9.374979019165039,15.5135C9.374979019165039,12.379,11.893479019165039,9.83784,14.999979019165039,9.83784C18.10647901916504,9.83784,20.62497901916504,12.379,20.62497901916504,15.5135C20.62497901916504,18.648,18.10647901916504,21.1892,14.999979019165039,21.1892ZM14.999979019165039,18.9189C16.86397901916504,18.9189,18.37497901916504,17.3943,18.37497901916504,15.5135C18.37497901916504,13.6328,16.86397901916504,12.1081,14.999979019165039,12.1081C13.135979019165038,12.1081,11.624979019165039,13.6328,11.624979019165039,15.5135C11.624979019165039,17.3943,13.135979019165038,18.9189,14.999979019165039,18.9189Z" fill="#FFFFFF"></path></symbol>
<symbol xmlns="http://www.w3.org/2000/svg" viewBox="0 0 36 36" id="edit-subscribe-cal"><path d="M30.75,30 C31.1642136,30 31.5,30.3357864 31.5,30.75 L31.5,32.25 C31.5,32.6642136 31.1642136,33 30.75,33 L5.25,33 C4.83578644,33 4.5,32.6642136 4.5,32.25 L4.5,30.75 C4.5,30.3357864 4.83578644,30 5.25,30 L30.75,30 Z M22.5334234,3.56407942 L22.7262324,3.66350448 L26.6233468,5.91350448 C27.6362017,6.49827657 28.0223977,7.75162328 27.546329,8.79425265 L27.4469039,8.98706164 L17.8448222,25.6183551 L13.0938599,27.9674517 C12.1655974,28.4264279 11.0410182,28.0459961 10.582042,27.1177336 C10.4997519,26.9513047 10.4427898,26.7738901 10.4127306,26.5913664 L10.3916973,26.4073574 L10.0505936,21.1183551 L19.6526753,4.48706164 C20.2374474,3.47420667 21.4907941,3.08801074 22.5334234,3.56407942 Z M18.8855936,11.8141859 L13.1030015,21.8314294 L13.2777896,24.5286875 L15.7018277,23.3301304 L21.4836126,13.3141529 L18.8855936,11.8141859 Z M21.8765015,6.63528166 L20.3840936,9.21618595 L22.9835936,10.7161859 L24.4745777,8.13528166 L21.8765015,6.63528166 Z" fill="#000000" fill-rule="evenodd"></path></symbol>
<symbol xmlns="http://www.w3.org/2000/svg" viewBox="0 0 36 36" id="edit-timeline"><path d="M30.75,30 C31.1642136,30 31.5,30.3357864 31.5,30.75 L31.5,32.25 C31.5,32.6642136 31.1642136,33 30.75,33 L5.25,33 C4.83578644,33 4.5,32.6642136 4.5,32.25 L4.5,30.75 C4.5,30.3357864 4.83578644,30 5.25,30 L30.75,30 Z M22.5334234,3.56407942 L22.7262324,3.66350448 L26.6233468,5.91350448 C27.6362017,6.49827657 28.0223977,7.75162328 27.546329,8.79425265 L27.4469039,8.98706164 L17.8448222,25.6183551 L13.0938599,27.9674517 C12.1655974,28.4264279 11.0410182,28.0459961 10.582042,27.1177336 C10.4997519,26.9513047 10.4427898,26.7738901 10.4127306,26.5913664 L10.3916973,26.4073574 L10.0505936,21.1183551 L19.6526753,4.48706164 C20.2374474,3.47420667 21.4907941,3.08801074 22.5334234,3.56407942 Z M18.8855936,11.8141859 L13.1030015,21.8314294 L13.2777896,24.5286875 L15.7018277,23.3301304 L21.4836126,13.3141529 L18.8855936,11.8141859 Z M21.8765015,6.63528166 L20.3840936,9.21618595 L22.9835936,10.7161859 L24.4745777,8.13528166 L21.8765015,6.63528166 Z" fill-rule="evenodd"></path></symbol>
<symbol xmlns="http://www.w3.org/2000/svg" viewBox="0 0 24 24" id="edit"><path d="M5.26805,16.537575426101682C5.14338,15.840775426101684,5.26914,15.122275426101684,5.62308,14.509275426101684L12.5,2.598085426101685C13.3284,1.1632048261016845,15.1632,0.6715794261016845,16.598100000000002,1.5000064261016846L17.4641,2.0000064261016846C18.899,2.8284354261016844,19.3906,4.663205426101685,18.5622,6.098085426101685L11.6853,18.009275426101684C11.3313,18.622275426101684,10.77199,19.090475426101683,10.10618,19.330875426101684L8.26152,19.997075426101684C7.09579,20.418075426101684,5.83173,19.688275426101683,5.61345,18.468175426101684L5.26805,16.537575426101682ZM15.8301,6.830125426101684L13.2321,5.330125426101684L14.232,3.5980854261016844Q14.4392,3.2393654261016844,14.8393,3.1321554261016846Q15.2394,3.024955426101685,15.5981,3.2320554261016845L16.464100000000002,3.7320554261016845Q16.8228,3.9391654261016846,16.93,4.339265426101685Q17.0372,4.739365426101685,16.8301,5.098085426101685L15.8301,6.830125426101684ZM7.23679,16.185375426101686Q7.17244,15.825675426101684,7.35513,15.509275426101684L12.2321,7.062185426101685L14.8301,8.562185426101685L9.95321,17.009275426101684Q9.77051,17.325675426101686,9.42685,17.449775426101684L7.58219,18.115975426101684L7.23679,16.185375426101686ZM2,20.999975426101685Q1.901509,20.999975426101685,1.80491,21.019175426101686Q1.7083110000000001,21.038475426101684,1.617316,21.076075426101685Q1.526322,21.113775426101686,1.44443,21.168575426101686Q1.362537,21.223275426101683,1.292893,21.292875426101684Q1.223249,21.362575426101685,1.16853,21.444475426101686Q1.113811,21.526275426101684,1.0761205,21.617275426101685Q1.0384294,21.708275426101686,1.0192147,21.804875426101685Q1,21.901475426101683,1,21.999975426101685Q1,22.098475426101686,1.0192147,22.195075426101685Q1.0384294,22.291675426101683,1.0761205,22.382675426101684Q1.113811,22.473675426101686,1.16853,22.555575426101683Q1.223249,22.637475426101684,1.292893,22.707075426101685Q1.362537,22.776775426101686,1.44443,22.831475426101683Q1.526322,22.886175426101683,1.617316,22.923875426101684Q1.7083110000000001,22.961575426101685,1.80491,22.980775426101683Q1.901509,22.999975426101685,2,22.999975426101685L22,22.999975426101685Q22.0985,22.999975426101685,22.1951,22.980775426101683Q22.2917,22.961575426101685,22.3827,22.923875426101684Q22.4737,22.886175426101683,22.5556,22.831475426101683Q22.6375,22.776775426101686,22.7071,22.707075426101685Q22.7767,22.637475426101684,22.8315,22.555575426101683Q22.8862,22.473675426101686,22.9239,22.382675426101684Q22.9616,22.291675426101683,22.9808,22.195075426101685Q23,22.098475426101686,23,21.999975426101685Q23,21.901475426101683,22.9808,21.804875426101685Q22.9616,21.708275426101686,22.9239,21.617275426101685Q22.8862,21.526275426101684,22.8315,21.444475426101686Q22.7767,21.362575426101685,22.7071,21.292875426101684Q22.6375,21.223275426101683,22.5556,21.168575426101686Q22.4737,21.113775426101686,22.3827,21.076075426101685Q22.2917,21.038475426101684,22.1951,21.019175426101686Q22.0985,20.999975426101685,22,20.999975426101685L2,20.999975426101685Z" fill-rule="evenodd"></path></symbol>
</svg>