<svg xmlns="http://www.w3.org/2000/svg" xmlns:xlink="http://www.w3.org/1999/xlink" style="position: absolute; width: 0; height: 0" aria-hidden="true" id="__SVG_SPRITE_NODE__">
<symbol xmlns="http://www.w3.org/2000/svg" viewBox="0 0 24 24" id="folder-open"><path d="M22.49739999523163,11.5L22.49739999523163,8.5C22.49739999523163,6.29086,20.706499995231628,4.5,18.49739999523163,4.5L10.757799995231629,4.5C10.267939995231629,4.5,9.795139995231628,4.32024,9.429039995231628,3.99482L8.599859995231629,3.257772C8.050709995231628,2.769636,7.341519995231629,2.5,6.606769995231629,2.5L4.497369995231629,2.5C2.8405199952316282,2.5,1.4973709952316283,3.84315,1.4973709952316283,5.5L1.4973709952316283,11.5C1.4973709952316283,12.05229,1.9450899952316285,12.5,2.4973699952316286,12.5C3.0496599952316283,12.5,3.4973699952316286,12.05229,3.4973699952316286,11.5L3.4973699952316286,5.5Q3.4973699952316286,5.085789999999999,3.7902599952316285,4.79289Q4.083159995231629,4.5,4.497369995231629,4.5L6.606769995231629,4.5Q6.986969995231628,4.5,7.2711399952316285,4.75259L8.100309995231628,5.48964Q9.236969995231629,6.5,10.757799995231629,6.5L18.49739999523163,6.5Q19.325799995231627,6.50003,19.91159999523163,7.08582Q20.49739999523163,7.67157,20.49739999523163,8.5L20.49739999523163,11.5C20.49739999523163,12.05229,20.94509999523163,12.5,21.49739999523163,12.5C22.049699995231627,12.5,22.49739999523163,12.05229,22.49739999523163,11.5M1.6301499952316285,13.5C1.0286549952316284,13.5,0.5632682952316284,14.0272,0.6378749652316285,14.624L1.0593879952316283,17.9961C1.3096019952316285,19.9979,3.0112099952316282,21.5,5.028499995231629,21.5L18.96619999523163,21.5C20.98349999523163,21.5,22.685099995231628,19.9979,22.935399995231627,17.9961L23.35689999523163,14.624C23.43149999523163,14.0272,22.966099995231627,13.5,22.36459999523163,13.5L1.6301499952316285,13.5ZM3.0439399952316286,17.7481L2.7629399952316285,15.5L21.23179999523163,15.5L20.950799995231627,17.7481Q20.85699999523163,18.4987,20.28979999523163,18.9994Q19.72269999523163,19.5,18.96619999523163,19.5L5.028499995231629,19.5Q4.272009995231628,19.5,3.7048899952316283,18.9994Q3.1377699952316283,18.4987,3.0439399952316286,17.7481Z" fill-rule="evenodd"></path></symbol>
<symbol xmlns="http://www.w3.org/2000/svg" viewBox="0 0 24 24" id="folder"><path d="M1,17.5C1,19.7091,2.79086,21.5,5,21.5L19,21.5C21.2091,21.5,23,19.7091,23,17.5L23,8.5C23,6.29086,21.2091,4.5,19,4.5L10.2604,4.5C9.77057,4.5,9.29777,4.32024,8.93167,3.99482L8.10249,3.257772C7.55334,2.769636,6.23474,2.5,5.5,2.5L4.5,2.5C2,2.5,1,4.34315,1,6L1,17.5ZM3,17.5Q3,18.328400000000002,3.58578,18.9142Q4.17157,19.5,5,19.5L19,19.5Q19.8284,19.5,20.4142,18.9142Q21,18.328400000000002,21,17.5L21,11.5L3,11.5L3,17.5ZM3,6L3,9.5L12,9.5L21,9.5L21,8.5Q21,7.67157,20.4142,7.08582Q19.8284,6.50003,19,6.5L10.2604,6.5Q8.7396,6.5,7.60294,5.48964L6.77377,4.75259Q6.4896,4.5,5.5,4.5L4.5,4.5C3.43502,4.5,3,4.97068,3,6Z" fill-rule="evenodd"></path></symbol>
</svg>