<svg xmlns="http://www.w3.org/2000/svg" xmlns:xlink="http://www.w3.org/1999/xlink" style="position: absolute; width: 0; height: 0" aria-hidden="true" id="__SVG_SPRITE_NODE__">
<symbol xmlns="http://www.w3.org/2000/svg" viewBox="-187 189 1024 1024" id="forum"><path d="M427.4,496.2v-75.1c0-29.1-23.8-52.9-52.9-52.9H-6.1c-29.1,0-52.9,23.8-52.9,52.9v303.9c0,29.1,23.8,52.9,52.9,52.9h23.9 v128l128-128H197v-205c0-42.1,34.5-76.6,76.6-76.6H427.4z M17.8,445h153.6v25.6H17.8V445z M120.2,598.6v25.6H17.8v-25.6H120.2z M17.8,547.4v-25.6h102.4v25.6H17.8z"></path><path d="M656.1,521.8H275.5c-29.1,0-52.9,23.8-52.9,52.9v303.9c0,29.1,23.8,52.9,52.9,52.9h203.1l128,128v-128h49.5 c29.1,0,52.9-23.8,52.9-52.9V574.7C709,545.6,685.2,521.8,656.1,521.8z M299.4,598.6H581v25.6H299.4V598.6z M299.4,675.4H453V701 H299.4V675.4z M299.4,752.2H453v25.6H299.4V752.2z"></path></symbol>
</svg>