<svg xmlns="http://www.w3.org/2000/svg" xmlns:xlink="http://www.w3.org/1999/xlink" style="position: absolute; width: 0; height: 0" aria-hidden="true" id="__SVG_SPRITE_NODE__">
<symbol xmlns="http://www.w3.org/2000/svg" viewBox="0 0 24 24" id="group-by-assignee"><path d="M5.5 23C3.29086 23 1.5 21.2091 1.5 19 1.5 14.58172 5.08172 11 9.5 11L14.5 11C18.9183 11 22.5 14.58172 22.5 19 22.5 21.2091 20.7091 23 18.5 23L5.5 23zM4.085789999999999 20.41421Q3.5 19.82843 3.5 19 3.5 16.51472 5.25736 14.75736 7.01472 13 9.5 13L14.5 13Q16.985300000000002 13 18.7426 14.75736 20.5 16.51472 20.5 19 20.5 19.82843 19.9142 20.41421 19.3284 21 18.5 21L5.5 21Q4.67157 21 4.085789999999999 20.41421zM16.499998092651367 5.5C16.499998092651367 7.98528 14.485278092651367 10 11.999998092651367 10 9.514718092651368 10 7.499998092651367 7.98528 7.499998092651367 5.5 7.499998092651367 3.01472 9.514718092651368 1 11.999998092651367 1 14.485278092651367 1 16.499998092651367 3.01472 16.499998092651367 5.5zM14.499998092651367 5.5Q14.499998092651367 4.46447 13.767768092651366 3.73223 13.035528092651367 3 11.999998092651367 3 10.964468092651368 3 10.232228092651367 3.73223 9.499998092651367 4.46447 9.499998092651367 5.5 9.499998092651367 6.53553 10.232228092651367 7.26777 10.964468092651368 8 11.999998092651367 8 13.035528092651367 8 13.767768092651366 7.26777 14.499998092651367 6.53553 14.499998092651367 5.5z" fill-rule="evenodd"></path></symbol>
<symbol xmlns="http://www.w3.org/2000/svg" viewBox="0 0 24 24" id="group-by-custom"><path d="M1.5,12.5C1.5,14.433,3.067,16,5,16L19,16C20.933,16,22.5,14.433,22.5,12.5L22.5,7C22.5,5.067,20.933,3.5,19,3.5L5,3.5C3.067,3.5,1.5,5.067,1.5,7L1.5,12.5ZM3.5,12.5Q3.5,13.12132,3.93934,13.5607Q4.37868,14,5,14L19,14Q19.6213,14,20.0607,13.5607Q20.5,13.12132,20.5,12.5L20.5,7Q20.5,6.37868,20.0607,5.93934Q19.6213,5.5,19,5.5L5,5.5Q4.37868,5.5,3.93934,5.93934Q3.5,6.37868,3.5,7L3.5,12.5ZM1.83637,20.2071Q1.5,19.9142,1.5,19.5Q1.5,19.0858,1.83637,18.7929Q2.172736,18.5,2.64844,18.5L21.3516,18.5Q21.8273,18.5,22.1636,18.7929Q22.5,19.0858,22.5,19.5Q22.5,19.9142,22.1636,20.2071Q21.8273,20.5,21.3516,20.5L2.64844,20.5Q2.172737,20.5,1.83637,20.2071Z" fill-rule="evenodd"></path></symbol>
<symbol xmlns="http://www.w3.org/2000/svg" viewBox="0 0 24 24" id="group-by-dueDate"><path d="M12,22C17.5228,22,22,17.5228,22,12C22,6.47715,17.5228,2,12,2C6.47715,2,2,6.47715,2,12C2,17.5228,6.47715,22,12,22ZM19.6074,8.98832Q20.1818,10.43938,20.1818,12Q20.1818,13.5606,19.6074,15.0117Q18.9836,16.5872,17.7854,17.7854Q16.5872,18.9836,15.0117,19.6074Q13.5606,20.1818,12,20.1818Q10.43937,20.1818,8.98832,19.6074Q7.41278,18.9836,6.21458,17.7854Q5.01638,16.5872,4.39264,15.0117Q3.81818,13.5606,3.81818,12Q3.81818,10.43937,4.39264,8.98832Q5.01638,7.41278,6.21458,6.21458Q7.41278,5.01638,8.98832,4.39264Q10.43937,3.81818,12,3.81818Q13.5606,3.81818,15.0117,4.39264Q16.5872,5.01638,17.7854,6.21458Q18.9836,7.41278,19.6074,8.98832ZM11.09091,12.9091L11.09091,7.45453Q11.09091,7.36499,11.10838,7.27718Q11.12584,7.18936,11.16011,7.10664Q11.19437,7.02391,11.24411,6.94947Q11.29386,6.87502,11.35717,6.81171Q11.42049,6.74839,11.49493,6.69865Q11.56938,6.6489,11.6521,6.61464Q11.73483,6.58038,11.82264,6.56291Q11.91046,6.54544,12,6.54544Q12.0895,6.54544,12.1774,6.56291Q12.2652,6.58038,12.3479,6.61464Q12.4306,6.6489,12.5051,6.69865Q12.5795,6.74839,12.6428,6.81171Q12.7061,6.87502,12.7559,6.94947Q12.8056,7.02392,12.8399,7.10664Q12.8742,7.18936,12.8916,7.27718Q12.9091,7.36499,12.9091,7.45453L12.9091,11.99999L14.7273,11.99999Q14.8168,11.99999,14.9046,12.0175Q14.9924,12.0349,15.0752,12.0692Q15.1579,12.1035,15.2323,12.1532Q15.3068,12.2029,15.3701,12.2663Q15.4334,12.3296,15.4831,12.404Q15.5329,12.4785,15.5672,12.5612Q15.6014,12.6439,15.6189,12.7317Q15.6364,12.8195,15.6364,12.9091Q15.6364,12.9986,15.6189,13.0864Q15.6014,13.1743,15.5672,13.257Q15.5329,13.3397,15.4832,13.4141Q15.4334,13.4886,15.3701,13.5519Q15.3068,13.6152,15.2323,13.665Q15.1579,13.7147,15.0752,13.749Q14.9924,13.7832,14.9046,13.8007Q14.8168,13.8182,14.7273,13.8182L12,13.8182Q11.91673,13.8182,11.83486,13.803Q11.76739,13.7906,11.70257,13.7681Q11.63774,13.7457,11.57701,13.7138Q11.51629,13.6818,11.46104,13.6412Q11.40579,13.6005,11.35727,13.552Q11.30876,13.5035,11.26807,13.4483Q11.22738,13.393,11.19544,13.3323Q11.1635,13.2716,11.14103,13.2068Q11.11857,13.142,11.10608,13.0745Q11.09091,12.9925,11.09091,12.9091Z" fill-rule="evenodd"></path></symbol>
<symbol xmlns="http://www.w3.org/2000/svg" viewBox="0 0 24 24" id="group-by-list"><path d="M2.0000038147,19L2.0000038147,19Q2.0000038147,18.9015,2.0192185,18.8049Q2.0384332,18.7083,2.0761243,18.6173Q2.1138149999999998,18.5263,2.168534,18.4444Q2.223253,18.3625,2.292897,18.2929Q2.3625410000000002,18.2232,2.444434,18.1685Q2.526326,18.113799999999998,2.61732,18.0761Q2.708314,18.0384,2.804914,18.019199999999998Q2.901512,18,3,18L21,18Q21.0985,18,21.1951,18.019199999999998Q21.2917,18.0384,21.3827,18.0761Q21.4737,18.113799999999998,21.5556,18.1685Q21.6375,18.2232,21.7071,18.2929Q21.7768,18.3625,21.8315,18.4444Q21.8862,18.5263,21.9239,18.6173Q21.9616,18.7083,21.9808,18.8049Q22,18.9015,22,19L22,19Q22,19.0985,21.9808,19.1951Q21.9616,19.2917,21.9239,19.3827Q21.8862,19.4737,21.8315,19.5556Q21.7768,19.6375,21.7071,19.7071Q21.6375,19.776699999999998,21.5556,19.8315Q21.4737,19.886200000000002,21.3827,19.9239Q21.2917,19.9616,21.1951,19.980800000000002Q21.0985,20,21,20L3,20Q2.901512,20,2.804913,19.980800000000002Q2.708315,19.9616,2.61732,19.9239Q2.526326,19.886200000000002,2.444434,19.8315Q2.3625410000000002,19.776699999999998,2.292897,19.7071Q2.223253,19.6375,2.168534,19.5556Q2.1138149999999998,19.4737,2.0761243,19.3827Q2.0384332,19.2917,2.0192185,19.1951Q2.0000038147,19.0985,2.0000038147,19ZM2.0000038147,12L2.0000038147,12Q2.0000038147,11.90151,2.0192185,11.80491Q2.0384332,11.70831,2.0761243,11.61732Q2.1138149999999998,11.52632,2.168534,11.44443Q2.223253,11.36254,2.292897,11.29289Q2.3625410000000002,11.22325,2.444434,11.16853Q2.526326,11.11381,2.61732,11.07612Q2.708314,11.03843,2.804914,11.019210000000001Q2.901512,11,3,11L21,11Q21.0985,11,21.1951,11.01922Q21.2917,11.03843,21.3827,11.07612Q21.4737,11.11381,21.5556,11.16853Q21.6375,11.22325,21.7071,11.29289Q21.7768,11.36254,21.8315,11.44443Q21.8862,11.52632,21.9239,11.61732Q21.9616,11.70831,21.9808,11.80491Q22,11.90151,22,12L22,12Q22,12.09849,21.9808,12.19509Q21.9616,12.29169,21.9239,12.38268Q21.8862,12.47368,21.8315,12.55557Q21.7768,12.63746,21.7071,12.70711Q21.6375,12.77675,21.5556,12.83147Q21.4737,12.88619,21.3827,12.92388Q21.2917,12.96157,21.1951,12.98078Q21.0985,13,21,13L3,13Q2.901512,13,2.804913,12.98078Q2.708315,12.96157,2.61732,12.92388Q2.526326,12.88619,2.444434,12.83147Q2.3625410000000002,12.77675,2.292897,12.70711Q2.223253,12.63746,2.168534,12.55557Q2.1138149999999998,12.47368,2.0761243,12.38268Q2.0384332,12.29169,2.0192185,12.19509Q2.0000038147,12.09849,2.0000038147,12ZM2.0000133514,5L2.0000133514,5Q2.0000133514,4.901509,2.0192281,4.80491Q2.0384428,4.708311,2.0761338,4.617316Q2.113825,4.526322,2.168544,4.44443Q2.223263,4.362537,2.292907,4.292893Q2.36255,4.223249,2.444443,4.16853Q2.526336,4.113811,2.61733,4.0761205Q2.708324,4.0384294,2.804923,4.0192147Q2.901522,4,3.00001,4L21,4Q21.0985,4,21.1951,4.0192147Q21.2917,4.0384294,21.3827,4.0761205Q21.4737,4.113811,21.5556,4.16853Q21.6375,4.223249,21.7071,4.292893Q21.7768,4.362537,21.8315,4.44443Q21.8862,4.526322,21.9239,4.617316Q21.9616,4.708311,21.9808,4.80491Q22,4.901509,22,5L22,5Q22,5.09849,21.9808,5.19509Q21.9616,5.29169,21.9239,5.38268Q21.8862,5.47368,21.8315,5.5555699999999995Q21.7768,5.63746,21.7071,5.70711Q21.6375,5.77675,21.5556,5.8314699999999995Q21.4737,5.88619,21.3827,5.9238800000000005Q21.2917,5.96157,21.1951,5.98079Q21.0985,6,21,6L3.00001,6Q2.901522,6,2.804923,5.98079Q2.708324,5.96157,2.61733,5.9238800000000005Q2.526336,5.88619,2.444443,5.8314699999999995Q2.36255,5.77675,2.292907,5.70711Q2.223263,5.63746,2.168544,5.5555699999999995Q2.113825,5.47368,2.0761338,5.38268Q2.0384428,5.29169,2.0192281,5.19509Q2.0000133514,5.09849,2.0000133514,5Z"></path></symbol>
<symbol xmlns="http://www.w3.org/2000/svg" viewBox="0 0 24 24" id="group-by-none"><path d="M12,22C17.5228,22,22,17.5228,22,12C22,6.47715,17.5228,2,12,2C6.47715,2,2,6.47715,2,12C2,17.5228,6.47715,22,12,22ZM19.6074,8.98832Q20.1818,10.43938,20.1818,12Q20.1818,13.5606,19.6074,15.0117Q18.9836,16.5872,17.7854,17.7854Q16.5872,18.9836,15.0117,19.6074Q13.5606,20.1818,12,20.1818Q10.43937,20.1818,8.98832,19.6074Q7.67013,19.0855,6.61608,18.1615Q6.63647,18.1434,6.65574,18.1242L18.1242,6.65576Q18.1434,6.63648,18.1615,6.61608Q19.0855,7.67013,19.6074,8.98832ZM16.8211,5.3875Q15.989,4.77955,15.0117,4.39264Q13.5606,3.81818,12,3.81818Q10.43937,3.81818,8.98832,4.39264Q7.41278,5.01638,6.21458,6.21458Q5.01638,7.41278,4.39264,8.98832Q3.81818,10.43937,3.81818,12Q3.81818,13.5606,4.39264,15.0117Q4.77955,15.989,5.3875,16.8211L16.8211,5.3875Z" fill-rule="evenodd"></path></symbol>
<symbol xmlns="http://www.w3.org/2000/svg" viewBox="0 0 24 24" id="group-by-priority"><path d="M3.2800096273497705,2.909088C3.2800112379897706,2.407012,3.6870239713897703,2,4.18910097138977,2C4.69117997138977,2,5.09818997138977,2.407012,5.09818997138977,2.909088L5.09818997138977,4.72727L18.20809997138977,4.72727L15.958899971389771,8.788219999999999C15.791999971389771,9.089649999999999,15.791999971389771,9.4558,15.958899971389771,9.75723L18.20809997138977,13.8182L5.09817997138977,13.8182L5.09818997138977,2.909088L19.83489997138977,2.909088C20.546099971389772,2.909088,20.98189997138977,3.68894,20.60919997138977,4.294639999999999L17.96189997138977,9.028690000000001C17.877099971389768,9.18033,17.877099971389768,9.365120000000001,17.96189997138977,9.51676L20.60919997138977,14.2508C20.981999971389772,14.8565,20.52699997138977,15.6364,19.81579997138977,15.6364Q12.00727997138977,15.6364,5.09817997138977,15.6364L5.09818997138977,21.0909C5.09818997138977,21.593,4.69117997138977,22,4.18910097138977,22C3.6870229713897706,22,3.2800096273397705,21.593,3.2800096273397705,21.0909L3.2800096273397705,15.6364L3.2799999713897705,2.909088L3.2800096273497705,2.909088Z" fill-rule="evenodd"></path></symbol>
<symbol xmlns="http://www.w3.org/2000/svg" viewBox="0 0 24 24" id="group-by-tag"><path d="M16.81221941204071,21.05481929283142C15.25011941204071,22.616919292831422,12.71741941204071,22.616919292831422,11.155329412040711,21.05481929283142L3.3185994120407107,13.218119292831421C2.6334944120407107,12.53301929283142,2.2203414120407103,11.622489292831421,2.1558914120407104,10.655749292831421L1.7768234020407105,4.969739292831421C1.6560864120407104,3.1586792928314207,3.1586794120407102,1.6560862928314208,4.969739412040711,1.776823282831421L10.655749412040711,2.1558902928314208C11.62249941204071,2.220340292831421,12.53301941204071,2.633493292831421,13.21811941204071,3.318599292831421L21.05491941204071,11.15539929283142C22.616919412040712,12.71751929283142,22.616919412040712,15.250119292831421,21.05491941204071,16.812219292831422L16.81221941204071,21.05481929283142ZM15.39801941204071,19.64061929283142L19.64061941204071,15.398019292831421Q20.22641941204071,14.81221929283142,20.22641941204071,13.983819292831422Q20.22641941204071,13.155419292831422,19.64061941204071,12.56961929283142L11.80391941204071,4.7328192928314206Q11.27251941204071,4.2014492928314215,10.52270941204071,4.1514592928314205L4.83669941204071,3.772389292831421Q4.383929412040711,3.7422092928314212,4.0630694120407105,4.063069292831421Q3.742209412040711,4.383939292831421,3.7723894120407104,4.836699292831421L4.15145941204071,10.52270929283142Q4.201449412040711,11.27251929283142,4.73281941204071,11.80391929283142L12.56951941204071,19.64061929283142Q13.155319412040711,20.22641929283142,13.98371941204071,20.22641929283142Q14.81221941204071,20.22641929283142,15.39801941204071,19.64061929283142ZM6.623729412040711,8.745099292831421C6.037939412040711,8.15930929283142,6.037939412040711,7.209589292831421,6.623729412040711,6.623799292831421C7.209509412040711,6.038019292831421,8.159249412040712,6.037989292831421,8.745029412040711,6.623769292831421C9.33081941204071,7.209559292831421,9.33081941204071,8.159349292831422,8.745029412040711,8.745139292831421C8.159249412040712,9.33092929283142,7.209509412040711,9.33087929283142,6.623729412040711,8.745099292831421Z" fill-rule="evenodd"></path></symbol>
</svg>