<svg xmlns="http://www.w3.org/2000/svg" xmlns:xlink="http://www.w3.org/1999/xlink" style="position: absolute; width: 0; height: 0" aria-hidden="true" id="__SVG_SPRITE_NODE__">
<symbol xmlns="http://www.w3.org/2000/svg" fill="none" viewBox="0 0 16 16" id="habit_total_checkins"><g style="mix-blend-mode:passthrough"><path d="M4,1Q3.95075,1,3.90245,1.00960736Q3.85415,1.0192147,3.80866,1.0380602Q3.76316,1.0569057,3.72221,1.0842652Q3.68127,1.111625,3.64645,1.146447Q3.61162,1.181269,3.58426,1.222215Q3.55691,1.263161,3.53806,1.3086579999999999Q3.51921,1.354155,3.50961,1.402455Q3.5,1.4507539999999999,3.5,1.5L3.5,3.5Q3.5,3.54925,3.50961,3.59754Q3.51921,3.64584,3.53806,3.69134Q3.55691,3.73684,3.58426,3.77778Q3.61162,3.81873,3.64645,3.85355Q3.68127,3.88837,3.72221,3.91573Q3.76316,3.94309,3.80866,3.96194Q3.85415,3.98078,3.90245,3.99039Q3.95075,4,4,4L5,4Q5.04925,4,5.09755,3.99039Q5.14584,3.98078,5.19134,3.96194Q5.23684,3.94309,5.27778,3.91573Q5.31873,3.88837,5.35355,3.85355Q5.38837,3.81873,5.41573,3.77778Q5.44309,3.73684,5.46194,3.69134Q5.48078,3.64584,5.49039,3.59754Q5.5,3.54925,5.5,3.5L5.5,1.5Q5.5,1.4507539999999999,5.49039,1.402455Q5.48078,1.354155,5.46194,1.3086579999999999Q5.44309,1.263161,5.41573,1.222215Q5.38837,1.181269,5.35355,1.146447Q5.31873,1.111625,5.27778,1.0842652Q5.23684,1.0569057,5.19134,1.0380602Q5.14584,1.0192147,5.09755,1.00960736Q5.04925,1,5,1L4,1ZM11,1Q10.95075,1,10.90245,1.00960736Q10.85415,1.0192147,10.80866,1.0380602Q10.76316,1.0569057,10.72221,1.0842652Q10.68127,1.111625,10.64645,1.146447Q10.61162,1.181269,10.58426,1.222215Q10.5569,1.263161,10.53806,1.3086579999999999Q10.51921,1.354155,10.50961,1.402455Q10.5,1.4507539999999999,10.5,1.5L10.5,3.5Q10.5,3.54925,10.50961,3.59754Q10.51921,3.64584,10.53806,3.69134Q10.5569,3.73684,10.58426,3.77778Q10.61162,3.81873,10.64645,3.85355Q10.68127,3.88837,10.72221,3.91573Q10.76316,3.94309,10.80866,3.96194Q10.85415,3.98078,10.90245,3.99039Q10.95075,4,11,4L12,4Q12.0492,4,12.0975,3.99039Q12.1458,3.98078,12.1913,3.96194Q12.2368,3.94309,12.2778,3.91573Q12.3187,3.88837,12.3536,3.85355Q12.3884,3.81873,12.4157,3.77778Q12.4431,3.73684,12.4619,3.69134Q12.4808,3.64584,12.4904,3.59754Q12.5,3.54925,12.5,3.5L12.5,1.5Q12.5,1.4507539999999999,12.4904,1.402455Q12.4808,1.354155,12.4619,1.3086579999999999Q12.4431,1.263161,12.4157,1.222215Q12.3884,1.181269,12.3536,1.146447Q12.3187,1.111625,12.2778,1.0842652Q12.2368,1.0569057,12.1913,1.0380602Q12.1458,1.0192147,12.0975,1.00960736Q12.0492,1,12,1L11,1ZM10,3.5L10,2.5L6,2.5L6,3.5Q6,3.59849,5.98078,3.69509Q5.96157,3.79169,5.92388,3.88268Q5.88619,3.97368,5.83147,4.0555699999999995Q5.77675,4.13746,5.70711,4.20711Q5.63746,4.27675,5.55557,4.3314699999999995Q5.47368,4.38619,5.38268,4.4238800000000005Q5.29169,4.46157,5.19509,4.48078Q5.09849,4.5,5,4.5L4,4.5Q3.90151,4.5,3.80491,4.48078Q3.70831,4.46157,3.61732,4.4238800000000005Q3.52632,4.38619,3.44443,4.3314699999999995Q3.36254,4.27675,3.29289,4.20711Q3.22325,4.13746,3.16853,4.0555699999999995Q3.11381,3.97368,3.07612,3.88268Q3.03843,3.79169,3.01921,3.69509Q3,3.59849,3,3.5L3,2.5Q2.90175,2.5,2.80397,2.50963Q2.7061900000000003,2.51926,2.60982,2.53843Q2.5134499999999997,2.5576,2.41943,2.58612Q2.3254099999999998,2.61464,2.23463,2.65224Q2.14386,2.6898400000000002,2.05721,2.73616Q1.970554,2.78247,1.888859,2.83706Q1.807164,2.8916500000000003,1.731213,2.95398Q1.655262,3.01631,1.5857860000000001,3.08579Q1.516311,3.15526,1.453979,3.23121Q1.391648,3.30716,1.337061,3.38886Q1.2824740000000001,3.47055,1.236157,3.55721Q1.189841,3.64386,1.152241,3.73463Q1.114641,3.82541,1.0861193,3.91943Q1.0575978,4.013450000000001,1.0384294,4.10982Q1.0192611,4.206189999999999,1.00963055,4.30397Q1,4.40175,1,4.5L1,13Q1,13.0983,1.00963055,13.196Q1.0192611,13.2938,1.0384294,13.3902Q1.0575978,13.4865,1.0861193,13.5806Q1.114641,13.6746,1.152241,13.7654Q1.189841,13.8561,1.236157,13.9428Q1.2824740000000001,14.0294,1.337061,14.1111Q1.391648,14.1928,1.453979,14.2688Q1.516311,14.3447,1.5857860000000001,14.4142Q1.655262,14.4837,1.731213,14.546Q1.807164,14.6084,1.888859,14.6629Q1.970554,14.7175,2.05721,14.7638Q2.14386,14.8102,2.23463,14.8478Q2.3254099999999998,14.8854,2.41943,14.9139Q2.5134499999999997,14.9424,2.60982,14.9616Q2.7061900000000003,14.9807,2.80397,14.9904Q2.90175,15,3,15L13,15Q13.0983,15,13.196,14.9904Q13.2938,14.9807,13.3902,14.9616Q13.4865,14.9424,13.5806,14.9139Q13.6746,14.8854,13.7654,14.8478Q13.8561,14.8102,13.9428,14.7638Q14.0294,14.7175,14.1111,14.6629Q14.1928,14.6084,14.2688,14.546Q14.3447,14.4837,14.4142,14.4142Q14.4837,14.3447,14.546,14.2688Q14.6084,14.1928,14.6629,14.1111Q14.7175,14.0294,14.7638,13.9428Q14.8102,13.8561,14.8478,13.7654Q14.8854,13.6746,14.9139,13.5806Q14.9424,13.4865,14.9616,13.3902Q14.9807,13.2938,14.9904,13.196Q15,13.0983,15,13L15,4.5Q15,4.40175,14.9904,4.30397Q14.9807,4.206189999999999,14.9616,4.10982Q14.9424,4.013450000000001,14.9139,3.91943Q14.8854,3.82541,14.8478,3.73463Q14.8102,3.64386,14.7638,3.55721Q14.7175,3.47055,14.6629,3.38886Q14.6084,3.30716,14.546,3.23121Q14.4837,3.15526,14.4142,3.08579Q14.3447,3.01631,14.2688,2.95398Q14.1928,2.8916500000000003,14.1111,2.83706Q14.0294,2.78247,13.9428,2.73616Q13.8561,2.6898400000000002,13.7654,2.65224Q13.6746,2.61464,13.5806,2.58612Q13.4865,2.5576,13.3902,2.53843Q13.2938,2.51926,13.196,2.50963Q13.0983,2.5,13,2.5L13,3.5Q13,3.59849,12.9808,3.69509Q12.9616,3.79169,12.9239,3.88268Q12.8862,3.97368,12.8315,4.0555699999999995Q12.7767,4.13746,12.7071,4.20711Q12.6375,4.27675,12.5556,4.3314699999999995Q12.4737,4.38619,12.3827,4.4238800000000005Q12.2917,4.46157,12.1951,4.48078Q12.0985,4.5,12,4.5L11,4.5Q10.90151,4.5,10.80491,4.48078Q10.70831,4.46157,10.61732,4.4238800000000005Q10.52632,4.38619,10.44443,4.3314699999999995Q10.36254,4.27675,10.29289,4.20711Q10.22325,4.13746,10.16853,4.0555699999999995Q10.11381,3.97368,10.07612,3.88268Q10.03843,3.79169,10.01921,3.69509Q10,3.59849,10,3.5Z" fill-rule="evenodd" fill="#0CCE9C" opacity=".8"></path><path d="M4.49676539003125,9.84793421484375L4.49676623103125,12.34181521484375Q4.49676625503125,12.41571521484375,4.51118380703125,12.48819521484375Q4.52560140703125,12.56067521484375,4.55388250703125,12.62895521484375Q4.58216360703125,12.69723521484375,4.62322120703125,12.75867521484375Q4.66427920703125,12.820125214843749,4.71653520703125,12.87238521484375Q4.76879220703125,12.92464521484375,4.83023920703125,12.96569521484375Q4.89168720703125,13.00675521484375,4.95996320703125,13.03503521484375Q5.02824020703125,13.063315214843751,5.10072220703125,13.07773521484375Q5.17320420703125,13.09215521484375,5.2471062070312495,13.09215521484375Q5.25905920703125,13.09215521484375,5.27100620703125,13.09177521484375L10.24749720703125,13.09177521484375Q10.39667720703125,13.09177521484375,10.53450720703125,13.03468521484375Q10.67233720703125,12.977595214843749,10.777827207031251,12.87210521484375Q10.88331720703125,12.76661521484375,10.94040720703125,12.62878521484375Q10.99749720703125,12.49095521484375,10.99749720703125,12.34177521484375Q10.99749720703125,12.26790521484375,10.98308720703125,12.19545521484375Q10.96867720703125,12.12300521484375,10.94040720703125,12.05475521484375Q10.91213720703125,11.98651521484375,10.87109720703125,11.92509521484375Q10.830057207031249,11.86367521484375,10.777827207031251,11.81144521484375Q10.72559720703125,11.75920521484375,10.664177207031251,11.71816521484375Q10.60275720703125,11.67712521484375,10.53450720703125,11.64886521484375Q10.466267207031251,11.62059521484375,10.393817207031251,11.60618521484375Q10.321367207031251,11.59177521484375,10.24749720703125,11.59177521484375L5.99744720703125,11.59177521484375L5.99744720703125,9.84793421484375Q5.99744720703125,9.77403221484375,5.98302720703125,9.70155021484375Q5.9686072070312495,9.62906821484375,5.94032720703125,9.56079221484375Q5.91204720703125,9.49251521484375,5.87098720703125,9.43106821484375Q5.8299272070312504,9.36962121484375,5.77767720703125,9.31736421484375Q5.72541720703125,9.26510821484375,5.66396720703125,9.22405021484375Q5.60252720703125,9.18299241484375,5.53424720703125,9.15471131484375Q5.46597020703125,9.12643031484375,5.39348820703125,9.11201271484375Q5.32100620703125,9.09759521484375,5.24710420703125,9.09759521484375Q5.09785220703125,9.09759521484375,4.95996220703125,9.15471141484375Q4.82207120703125,9.21182721484375,4.71653420703125,9.31736421484375Q4.61099720703125,9.42290121484375,4.55388150703125,9.56079221484375Q4.49676533903125,9.69868321484375,4.49676539003125,9.84793421484375Z" fill-rule="evenodd" fill="#FFFFFF" transform="rotate(-45 4.497 9.098)"></path></g></symbol>
</svg>