<svg xmlns="http://www.w3.org/2000/svg" xmlns:xlink="http://www.w3.org/1999/xlink" style="position: absolute; width: 0; height: 0" aria-hidden="true" id="__SVG_SPRITE_NODE__">
<symbol xmlns="http://www.w3.org/2000/svg" viewBox="0 0 24 24" id="home-sidebar"><path d="M21.25820190734863,11.999999952316283C21.25820190734863,17.080999952316283,17.139101907348632,21.199999952316283,12.058101907348632,21.199999952316283C9.803351907348633,21.199999952316283,7.738081907348633,20.388899952316283,6.138091907348633,19.042599952316284Q6.089831907348633,19.052199952316283,6.041461907348633,19.061599952316286Q1.5806319073486328,19.926099952316285,0.3480429073486328,17.888899952316287Q-0.4263320926513672,16.60899995231628,0.5222409073486328,14.785399952316284Q1.2345819073486328,13.415999952316284,2.8590419073486326,11.857159952316284C2.9353719073486326,6.8420099523162845,7.024681907348633,2.799999952316284,12.058101907348632,2.799999952316284C13.826601907348632,2.799999952316284,15.478601907348633,3.299023952316284,16.881001907348633,4.163949952316284Q18.925501907348632,3.657267952316284,20.445201907348633,3.7165729523162843Q22.700001907348632,3.804559952316284,23.503101907348633,5.131969952316284Q24.735701907348634,7.169189952316284,21.720701907348634,10.423379952316285Q21.469301907348633,10.694659952316284,21.20040190734863,10.962989952316285C21.238601907348635,11.303379952316284,21.25820190734863,11.649399952316283,21.25820190734863,11.999999952316283ZM19.227501907348632,12.706289952316284Q19.004001907348634,15.236499952316285,17.149301907348633,17.091199952316284Q15.040501907348633,19.199999952316283,12.058101907348632,19.199999952316283Q10.194101907348633,19.199999952316283,8.671401907348633,18.376299952316284Q11.440101907348632,17.479799952316284,14.512901907348633,15.786899952316285Q17.20630190734863,14.302999952316284,19.227501907348632,12.706289952316284ZM19.052001907348632,10.220539952316283Q16.838401907348633,12.224119952316284,13.477601907348634,14.075699952316285Q9.865371907348633,16.065799952316283,6.7563919073486325,16.872899952316285Q4.857951907348633,14.829599952316284,4.857951907348633,11.999999952316283Q4.857951907348633,9.017669952316284,6.9668119073486325,6.908839952316284Q9.075671907348633,4.799999952316284,12.058101907348632,4.799999952316284Q15.040501907348633,4.799999952316284,17.149301907348633,6.908839952316284Q18.598801907348633,8.358349952316285,19.052001907348632,10.220539952316283ZM20.616201907348632,8.616959952316284Q21.350001907348634,7.741819952316284,21.646501907348632,7.027969952316284Q21.91840190734863,6.373219952316284,21.751301907348633,6.097069952316284Q21.525201907348634,5.723279952316284,20.404201907348632,5.679529952316284Q19.70650190734863,5.652309952316284,18.838301907348633,5.781489952316284C19.592401907348634,6.603159952316284,20.199001907348634,7.562289952316284,20.616201907348632,8.616959952316284ZM4.536101907348633,17.298599952316284C3.934661907348633,16.446399952316284,3.474401907348633,15.487399952316284,3.189341907348633,14.455699952316284Q2.6485119073486327,15.110599952316285,2.344381907348633,15.695299952316285Q1.8877019073486327,16.573299952316283,2.099781907348633,16.923799952316283Q2.2668719073486328,17.199899952316287,2.9970619073486326,17.302599952316285Q3.645501907348633,17.393699952316283,4.536101907348633,17.298599952316284ZM6.274031907348633,11.839529952316283Q6.274031907348633,9.750279952316284,7.605821907348632,8.258099952316284Q8.981901907348632,6.716319952316284,10.954101907348633,6.716319952316284C11.506401907348632,6.716319952316284,11.954101907348633,7.164039952316284,11.954101907348633,7.716319952316284C11.954101907348633,8.268609952316284,11.506401907348632,8.716319952316283,10.954101907348633,8.716319952316283Q9.877601907348632,8.716319952316283,9.097951907348634,9.589859952316285Q8.274031907348633,10.512999952316285,8.274031907348633,11.839529952316283C8.274031907348633,12.391809952316285,7.826311907348633,12.839499952316284,7.274031907348633,12.839499952316284C6.721741907348632,12.839499952316284,6.274031907348633,12.391809952316285,6.274031907348633,11.839529952316283Z" fill-rule="evenodd"></path></symbol>
</svg>