<svg xmlns="http://www.w3.org/2000/svg" xmlns:xlink="http://www.w3.org/1999/xlink" style="position: absolute; width: 0; height: 0" aria-hidden="true" id="__SVG_SPRITE_NODE__">
<symbol xmlns="http://www.w3.org/2000/svg" viewBox="0 0 100 80" id="image-failed"><path d="M57.1579468,8.44070774 L94.7419393,12.3909445 C95.7086357,12.4925484 96.4099316,13.3585768 96.3083278,14.3252732 L90.7892249,66.8360292 C90.687621,67.8027256 89.8215926,68.5040216 88.8548963,68.4024177 L54.5251324,64.7937077 L54.6625591,65.057036 L12.8336359,70.9357078 C11.8710744,71.070987 10.9810987,70.4003422 10.8458195,69.4377806 L3.49747973,17.1516266 C3.36220053,16.1890651 4.03284536,15.2990894 4.99540688,15.1638102 L45.4276073,9.48143496 L47.3116487,12.0711767 L41.1295122,27.5545 L39.0139866,25.1826226 L43.1297516,15.118055 L10.958727,19.6566739 C10.0448249,19.7864946 9.39435865,20.5959838 9.44675155,21.5016877 L9.46092911,21.645408 L14.315426,56.1869485 L29.4179955,41.2295275 C29.9294942,40.7229047 30.6979736,40.5788815 31.3582121,40.8659053 L45.2154393,46.8900208 L44.7888772,46.0535116 L45.651997,32.626783 L47.8572444,35.2382079 L47.1280647,48.1070263 L51.1311324,56.4097077 L50.844778,54.9887972 L48.7510162,44.7837697 L52.6794356,30.8014767 L48.4980583,23.0153443 L57.1579468,8.44070774 Z M57.3295671,13.3737094 L51.5660876,23.0141605 L55.7474649,30.800293 L51.8190455,44.7825859 L51.8252526,46.3107454 L53.5267864,46.7296489 L71.4169035,31.4676034 C72.1563924,30.8367459 73.2672778,30.9248092 73.8981353,31.6642981 C73.940715,31.71421 73.9804706,31.7664636 74.017216,31.8208143 L87.1230099,51.205178 L90.5074764,19.0041296 C90.6029394,18.0958603 89.9893541,17.2749569 89.1103792,17.095876 L88.9615022,17.0720671 L57.3295671,13.3737094 Z M26.3102624,27.7195472 C26.7499198,30.8478721 24.5703242,33.7402933 21.4419992,34.1799507 C18.3136743,34.6196081 15.4212531,32.4400124 14.9815957,29.3116875 C14.5419383,26.1833625 16.721534,23.2909414 19.849859,22.851284 C22.9781839,22.4116266 25.870605,24.5912223 26.3102624,27.7195472 Z" fill-rule="evenodd"></path></symbol>
<symbol xmlns="http://www.w3.org/2000/svg" viewBox="0 0 160 128" id="image-loading"><g fill-rule="evenodd"><path fill="none" d="M0 0H160V128H0z"></path><path d="M146,16 C148.209139,16 150,17.790861 150,20 L150,108 C150,110.209139 148.209139,112 146,112 L14,112 C11.790861,112 10,110.209139 10,108 L10,20 C10,17.790861 11.790861,16 14,16 L146,16 Z M138,24 L22,24 C19.8578046,24 18.1089211,25.6839685 18.0048953,27.8003597 L18,28 L18,86.104 L48.5306928,60.7961093 L78.9075438,75.5772036 L115.755872,46 L142,78.264 L142,28 C142,25.790861 140.209139,24 138,24 Z M33,30 C37.9705627,30 42,34.0294373 42,39 C42,43.9705627 37.9705627,48 33,48 C28.0294373,48 24,43.9705627 24,39 C24,34.0294373 28.0294373,30 33,30 Z"></path></g></symbol>
</svg>