<svg xmlns="http://www.w3.org/2000/svg" xmlns:xlink="http://www.w3.org/1999/xlink" style="position: absolute; width: 0; height: 0" aria-hidden="true" id="__SVG_SPRITE_NODE__">
<symbol xmlns="http://www.w3.org/2000/svg" viewBox="0 0 24 24" id="inbox-list"><path d="M0.5,12.2590655859375L0.5,17.1454755859375C0.5,19.3545755859375,2.29086,21.1454755859375,4.5,21.1454755859375L19.5,21.1454755859375C21.7091,21.1454755859375,23.5,19.3545755859375,23.5,17.1454755859375L23.5,12.3607955859375C23.5,11.6111155859375,23.2893,10.8765255859375,22.892,10.240805585937501L19.4477,4.7299755859375C18.7168,3.5604545859375,17.4349,2.8499755859375,16.0557,2.8499755859375L7.94426,2.8499755859375C6.5651,2.8499755859375,5.28322,3.5604545859375,4.55227,4.7299755859375L1.05409,10.3270655859375C0.691995,10.9064155859375,0.5,11.5758655859375,0.5,12.2590655859375ZM2.5,13.2590755859375L2.5,17.1454755859375Q2.5,17.9738755859375,3.08579,18.559675585937498Q3.67157,19.1454755859375,4.5,19.1454755859375L19.5,19.1454755859375Q20.3284,19.1454755859375,20.9142,18.559675585937498Q21.5,17.9738755859375,21.5,17.1454755859375L21.5,13.2590755859375L16.0718,13.2590755859375Q15.8657,14.3960755859375,15.0014,15.2604755859375Q13.8664,16.3953755859375,12.2613,16.3953755859375Q10.6563,16.3953755859375,9.5213,15.2604755859375Q8.65694,14.3960755859375,8.450859999999999,13.2590755859375L2.5,13.2590755859375ZM2.83011,11.2590355859375L9.38634,11.2590355859375C9.93863,11.2590355859375,10.38634,11.7067455859375,10.38634,12.2590355859375L10.38634,12.5203955859375Q10.38634,13.2970755859375,10.9355,13.8461755859375Q11.4847,14.3953755859375,12.2613,14.3953755859375Q13.038,14.3953755859375,13.5872,13.8461755859375Q14.1363,13.2970755859375,14.1363,12.5203955859375L14.1363,12.2590355859375C14.1363,11.7067455859375,14.5841,11.2590355859375,15.1363,11.2590355859375L21.1699,11.2590355859375L17.7517,5.7899755859374995Q17.1642,4.8499755859375,16.0557,4.8499755859375L7.94426,4.8499755859375Q6.83577,4.8499755859375,6.24827,5.7899755859374995L2.83011,11.2590355859375Z" fill-rule="evenodd"></path></symbol>
</svg>