<svg xmlns="http://www.w3.org/2000/svg" xmlns:xlink="http://www.w3.org/1999/xlink" style="position: absolute; width: 0; height: 0" aria-hidden="true" id="__SVG_SPRITE_NODE__">
<symbol xmlns="http://www.w3.org/2000/svg" viewBox="0 0 24 24" id="lessons"><path d="M12,23C18.0751,23,23,18.0751,23,12C23,5.92487,18.0751,1,12,1C5.92487,1,1,5.92487,1,12C1,18.0751,5.92487,23,12,23ZM20.3681,8.687149999999999Q21,10.28331,21,12Q21,13.7167,20.3681,15.3129Q19.682,17.0459,18.364,18.364Q17.0459,19.682,15.3129,20.3681Q13.7167,21,12,21Q10.28331,21,8.687149999999999,20.3681Q6.95406,19.682,5.63604,18.364Q4.318020000000001,17.0459,3.63191,15.3129Q3,13.7167,3,12Q3,10.28331,3.63191,8.687149999999999Q4.318020000000001,6.95406,5.63604,5.63604Q6.95406,4.318020000000001,8.687149999999999,3.63191Q10.28331,3,12,3Q13.7167,3,15.3129,3.63191Q17.0459,4.318020000000001,18.364,5.63604Q19.682,6.95406,20.3681,8.687149999999999ZM11,13L11,7Q11,6.90151,11.0192,6.80491Q11.0384,6.70831,11.0761,6.61732Q11.1138,6.52632,11.1685,6.44443Q11.2232,6.36254,11.2929,6.29289Q11.3625,6.22325,11.4444,6.16853Q11.5263,6.11381,11.6173,6.07612Q11.7083,6.03843,11.8049,6.01921Q11.9015,6,12,6Q12.0985,6,12.1951,6.01921Q12.2917,6.03843,12.3827,6.07612Q12.4737,6.11381,12.5556,6.16853Q12.6375,6.22325,12.7071,6.29289Q12.7767,6.36254,12.8315,6.44443Q12.8862,6.52632,12.9239,6.61732Q12.9616,6.70831,12.9808,6.80491Q13,6.90151,13,7L13,12L15,12Q15.0985,12,15.1951,12.0192Q15.2917,12.0384,15.3827,12.0761Q15.4737,12.1138,15.5556,12.1685Q15.6375,12.2232,15.7071,12.2929Q15.7767,12.3625,15.8315,12.4444Q15.8862,12.5263,15.9239,12.6173Q15.9616,12.7083,15.9808,12.8049Q16,12.9015,16,13Q16,13.0985,15.9808,13.1951Q15.9616,13.2917,15.9239,13.3827Q15.8862,13.4737,15.8315,13.5556Q15.7767,13.6375,15.7071,13.7071Q15.6375,13.7767,15.5556,13.8315Q15.4737,13.8862,15.3827,13.9239Q15.2917,13.9616,15.1951,13.9808Q15.0985,14,15,14L12,14Q11.9015,14,11.8049,13.9808Q11.7083,13.9616,11.6173,13.9239Q11.5263,13.8862,11.4444,13.8315Q11.3625,13.7767,11.2929,13.7071Q11.2232,13.6375,11.1685,13.5556Q11.1138,13.4737,11.0761,13.3827Q11.0384,13.2917,11.0192,13.1951Q11,13.0985,11,13Z" fill-rule="evenodd"></path></symbol>
</svg>