<svg xmlns="http://www.w3.org/2000/svg" xmlns:xlink="http://www.w3.org/1999/xlink" style="position: absolute; width: 0; height: 0" aria-hidden="true" id="__SVG_SPRITE_NODE__">
<symbol xmlns="http://www.w3.org/2000/svg" viewBox="0 0 24 24" id="list-activities"><path d="M2,12.2496L2,6Q2,4.34315,3.17157,3.17157Q4.34315,2,6,2L18,2Q19.6569,2,20.8284,3.17157Q22,4.34315,22,6L22,18Q22,19.6569,20.8284,20.8284Q19.6569,22,18,22L6,22Q4.34315,22,3.17157,20.8284Q2.104137,19.761,2.00925632,18.2907L4,16.3L4,18Q4,18.8284,4.585789999999999,19.4142Q5.1715800000000005,20,6,20L18,20Q18.8284,20,19.4142,19.4142Q20,18.8284,20,18L20,6Q20,5.17157,19.4142,4.585789999999999Q18.8284,4,18,4L6,4Q5.17157,4,4.585789999999999,4.585789999999999Q4,5.17157,4,6L4,10.24961L2,12.2496Z" fill-rule="evenodd"></path><path d="M17.6219,7.22532959025L17.6219,10.54174765625Q17.6219,10.635317656249999,17.6037,10.72708765625Q17.5854,10.81884765625,17.5496,10.90529765625Q17.5138,10.99173765625,17.4618,11.06953765625Q17.4098,11.14733765625,17.3437,11.21349765625Q17.2775,11.27965765625,17.1997,11.33164765625Q17.1219,11.383627656249999,17.0355,11.41943765625Q16.948999999999998,11.455237656249999,16.857300000000002,11.47349765625Q16.7655,11.49174765625,16.6719,11.49174765625Q16.578400000000002,11.49174765625,16.4866,11.47349765625Q16.3948,11.455237656249999,16.3084,11.41942765625Q16.221899999999998,11.383627656249999,16.1441,11.33164765625Q16.0663,11.27965765625,16.0002,11.21349765625Q15.934,11.14733765625,15.882,11.06953765625Q15.8301,10.99173765625,15.7942,10.90529765625Q15.7584,10.81884765625,15.7402,10.72708765625Q15.7219,10.635317656249999,15.7219,10.54174765625L15.7219,9.62942765625L9.90057,15.84512765625Q9.7714,15.98304765625,9.59927,16.06103765625Q9.427150000000001,16.13902765625,9.23829,16.14521765625Q9.04942,16.15140765625,8.87257,16.08484765625Q8.69571,16.01828765625,8.55779,15.88910765625Q8.534320000000001,15.86713765625,8.51239,15.84361765625L5.66728,12.79255765625L2.82754,15.63229765625L2.171751,16.28808765625Q2.038132,16.42170765625,1.863549,16.494027656249997Q1.6889669999999999,16.56633765625,1.5,16.56633765625Q1.3110330000000001,16.56633765625,1.136451,16.494027656249997Q0.961868,16.42170765625,0.828248,16.28808765625Q0.702998,16.162837656249998,0.631302,16.00086765625Q0.559605,15.83889765625,0.551097,15.66196765625Q0.55,15.63916765625,0.55,15.61633765625Q0.55,15.42736765625,0.622315,15.25278765625Q0.694629,15.078207656250001,0.828249,14.94458765625L0.828406,14.94442765625L1.4840407,14.28879765625L5.0194,10.75342765625Q5.03113,10.74170765625,5.04326,10.73038765625Q5.18147,10.60151765625,5.3584700000000005,10.53533765625Q5.53547,10.46916765625,5.72432,10.47575765625Q5.91317,10.48235765625,6.08512,10.56072765625Q6.25707,10.63908765625,6.38595,10.77728765625L9.20869,13.804367656250001L14.4806,8.17532965625L13.4419,8.17532965625Q13.3484,8.17532965625,13.2566,8.15707565625Q13.1648,8.13882165625,13.0784,8.10301465625Q12.9919,8.06720865625,12.9141,8.01522565625Q12.8363,7.96324265625,12.7702,7.89708065625Q12.704,7.83091965625,12.652,7.75312165625Q12.6001,7.67532365625,12.5642,7.58887865625Q12.5284,7.50243465625,12.5102,7.41066565625Q12.4919,7.31889635625,12.4919,7.22532957825Q12.4919,7.13176275625,12.5102,7.03999365625Q12.5284,6.94822465625,12.5642,6.86178065625Q12.6001,6.77533565625,12.652,6.69753765625Q12.704,6.61973965625,12.7702,6.55357865625Q12.8363,6.48741665625,12.9141,6.43543365625Q12.9919,6.38345065625,13.0784,6.34764365625Q13.1648,6.31183765625,13.2566,6.29358365625Q13.3484,6.27532965625,13.4419,6.27532965625L16.6719,6.27532965625Q16.852800000000002,6.27532965625,17.0211,6.34180965625Q17.1893,6.40828865625,17.3213,6.53194365625Q17.4593,6.66111665625,17.5372,6.83323865625Q17.6152,7.0053596562500005,17.6214,7.19422535625Q17.6219,7.20846115625,17.6219,7.22270460625L17.6219,7.22532959025Z" fill-rule="evenodd"></path></symbol>
<symbol xmlns="http://www.w3.org/2000/svg" viewBox="0 0 36 36" id="list-add"><g fill-rule="evenodd"><path fill="none" d="M0 0H36V36H0z"></path><path d="M19.5,6 L19.5,16.499 L30,16.5 L30,19.5 L19.5,19.499 L19.5,30 L16.5,30 L16.5,19.499 L6,19.5 L6,16.5 L16.5,16.499 L16.5,6 L19.5,6 Z"></path></g></symbol>
<symbol xmlns="http://www.w3.org/2000/svg" viewBox="0 0 24 24" id="list-mode"><path d="M2.496665840652466,22C1.946215840652466,22,1.4999878406524658,21.5538,1.4999878406524658,21.0033L1.4999878406524658,2.996678C1.4999878406524658,2.446228,1.946215840652466,2,2.496665840652466,2C3.047117840652466,2,3.493347840652466,2.446228,3.493347840652466,2.996678L3.493347840652466,21.0033C3.493347840652466,21.5538,3.047117840652466,22,2.496665840652466,22ZM20.821187840652467,2.50293C21.621887840652466,2.50293,22.279787840652467,3.19818,22.354387840652464,4.08691L22.361487840652465,4.25562L22.361487840652465,6.25024C22.361487840652465,7.16122,21.750587840652464,7.90995,20.969487840652466,7.99487L20.821187840652467,8.00293L6.958227840652466,8.00293C6.157577840652466,8.00293,5.499707840652466,7.30767,5.425077840652466,6.41895L5.417957840652466,6.25024L5.417957840652466,4.25562C5.417957840652466,3.34464,6.028827840652466,2.59591,6.809927840652466,2.510986L6.958227840652466,2.50293L20.821187840652467,2.50293ZM20.307687840652466,4.50586L7.471717840652466,4.50586L7.471717840652466,6L20.307687840652466,6L20.307687840652466,4.50586ZM20.953987840652466,9.2577C21.757587840652466,9.2577,22.417987840652465,9.92003,22.492887840652465,10.7669L22.499987840652466,10.92765L22.499987840652466,13.0801C22.499987840652466,13.9481,21.886887840652467,14.6614,21.102887840652468,14.7423L20.953987840652466,14.75L7.032687840652466,14.7423C6.2290678406524655,14.7423,5.568727840652466,14.08,5.493817840652466,13.2331L5.486697840652466,13.0724L5.486697840652466,10.91995C5.486697840652466,10.05187,6.099827840652466,9.338619999999999,6.8838178406524655,9.2577L7.032687840652466,9.25L20.953987840652466,9.2577ZM20.438587840652467,11.16631L7.548057840652466,11.15861L7.548057840652466,12.8337L20.438587840652467,12.8414L20.438587840652467,11.16631ZM20.888387840652467,16C21.689787840652468,16,22.348487840652467,16.6941,22.423187840652467,17.5815L22.430187840652465,17.75L22.430187840652465,19.75C22.430187840652465,20.6596,21.818787840652465,21.4071,21.036887840652465,21.4919L20.888387840652467,21.5L7.028557840652466,21.5C6.227087840652466,21.5,5.568527840652465,20.8059,5.493817840652466,19.9185L5.486697840652466,19.75L5.486697840652466,17.75C5.486697840652466,16.840400000000002,6.098177840652466,16.0929,6.880067840652466,16.0081L7.028557840652466,16L20.888387840652467,16ZM20.374387840652467,18L7.542527840652466,18L7.542527840652466,19.5L20.374387840652467,19.5L20.374387840652467,18Z" fill-rule="evenodd"></path></symbol>
<symbol xmlns="http://www.w3.org/2000/svg" viewBox="0 0 20 20" id="list-sidebar"><path d="M1.25,4.58333L1.25,15.4167C1.25,17.2576,2.74238,18.75,4.58333,18.75L15.4167,18.75C17.2576,18.75,18.75,17.2576,18.75,15.4167L18.75,4.58333C18.75,2.74238,17.2576,1.25,15.4167,1.25L4.58333,1.25C2.74238,1.25,1.25,2.74238,1.25,4.58333ZM14.5606,8.22825L9.55196,13.2369C9.14514,13.6437,8.48559,13.6437,8.078800000000001,13.2369L8.07362,13.2317L5.42717,10.58525C5.02037,10.17846,5.02037,9.51891,5.42717,9.112110000000001C5.83396,8.70532,6.49351,8.70532,6.90031,9.112110000000001L8.81539,11.02719L13.0875,6.75511C13.4943,6.34831,14.1538,6.34831,14.5606,6.75511C14.9674,7.16191,14.9674,7.82145,14.5606,8.22825Z" fill-rule="evenodd"></path></symbol>
</svg>