<svg xmlns="http://www.w3.org/2000/svg" xmlns:xlink="http://www.w3.org/1999/xlink" style="position: absolute; width: 0; height: 0" aria-hidden="true" id="__SVG_SPRITE_NODE__">
<symbol xmlns="http://www.w3.org/2000/svg" viewBox="0 0 24 24" id="location-at"><path d="M11.8,19.7L7,14.8c-2.7-2.8-2.6-7,0.2-9.7c2.9-2.7,7.7-2.7,10.6,0c2.8,2.7,2.9,6.9,0.2,9.7l-4.8,4.9 C12.8,20.1,12.2,20.1,11.8,19.7C11.8,19.7,11.8,19.7,11.8,19.7z M12.5,12.8c1.6,0,2.8-1.2,2.8-2.7s-1.3-2.7-2.8-2.7 s-2.8,1.2-2.8,2.7S10.9,12.8,12.5,12.8z M4.3,19.1H8v1.2H4.5l0.6,0.6l-0.9,0.9L2.4,20c-0.3-0.2-0.3-0.6,0-0.9l1.8-1.8l0.9,0.9 L4.3,19.1z M19.7,19.1l-0.8-0.8l0.9-0.9l1.8,1.8c0.3,0.2,0.3,0.6,0,0.9l-1.8,1.8l-0.9-0.9l0.6-0.6H16v-1.2H19.7z" fill-rule="evenodd" clip-rule="evenodd"></path></symbol>
</svg>