<svg xmlns="http://www.w3.org/2000/svg" xmlns:xlink="http://www.w3.org/1999/xlink" style="position: absolute; width: 0; height: 0" aria-hidden="true" id="__SVG_SPRITE_NODE__">
<symbol xmlns="http://www.w3.org/2000/svg" viewBox="0 0 24 24" id="lock"><path clip-rule="evenodd" fill="none" d="M0 0H24V24H0z"></path><path d="M10,10h4V9c0-1.1-0.9-2-2-2s-2,0.9-2,2V10z M15,10h1c0.6,0,1,0.4,1,1v6c0,0.6-0.4,1-1,1H8 c-0.6,0-1-0.4-1-1v-6c0-0.6,0.4-1,1-1h1V9c0-1.7,1.3-3,3-3s3,1.3,3,3V10z"></path></symbol>
</svg>