<svg xmlns="http://www.w3.org/2000/svg" xmlns:xlink="http://www.w3.org/1999/xlink" style="position: absolute; width: 0; height: 0" aria-hidden="true" id="__SVG_SPRITE_NODE__">
<symbol xmlns="http://www.w3.org/2000/svg" viewBox="0 0 20 20" id="matrix-sidebar"><path d="M1.25,5.20833C1.25,7.39446,3.0222100000000003,9.16667,5.20833,9.16667L9.16667,9.16667L9.16667,5.20833C9.16667,3.0222100000000003,7.39446,1.25,5.20833,1.25C3.0222100000000003,1.25,1.25,3.0222100000000003,1.25,5.20833ZM1.25,14.7916C1.25,16.977800000000002,3.0222100000000003,18.75,5.20833,18.75C7.39446,18.75,9.16667,16.977800000000002,9.16667,14.7916L9.16667,10.83331L5.20833,10.83331C3.0222100000000003,10.83331,1.25,12.6055,1.25,14.7916ZM10.83337,9.16667L14.7917,9.16667C16.977800000000002,9.16667,18.75,7.39446,18.75,5.20833C18.75,3.0222100000000003,16.977800000000002,1.25,14.7917,1.25C12.6056,1.25,10.83337,3.0222100000000003,10.83337,5.20833L10.83337,9.16667ZM10.83337,14.7916C10.83337,16.977800000000002,12.6056,18.75,14.7917,18.75C16.977800000000002,18.75,18.75,16.977800000000002,18.75,14.7916C18.75,12.6055,17.017400000000002,10.83331,14.8313,10.83331L14.7917,10.83331L10.83337,10.83331L10.83337,14.7916Z"></path></symbol>
</svg>