<svg xmlns="http://www.w3.org/2000/svg" xmlns:xlink="http://www.w3.org/1999/xlink" style="position: absolute; width: 0; height: 0" aria-hidden="true" id="__SVG_SPRITE_NODE__">
<symbol xmlns="http://www.w3.org/2000/svg" viewBox="0 0 16 16" id="move-list"><path d="M13.999966686534881,2.4999967461395265L1.9999166865348816,2.4999967461395265L1.9999166865348816,2.1666667461395264C1.9999166865348816,1.6143817461395265,2.4476366865348815,1.1666667461395264,2.9999166865348816,1.1666667461395264L12.999966686534881,1.1666667461395264C13.552166686534882,1.1666667461395264,13.999966686534881,1.6143817461395265,13.999966686534881,2.1666667461395264L13.999966686534881,2.4999967461395265ZM0.6666666865348816,12.833466746139527L0.6666666865348816,5.500166746139526C0.6666666865348816,4.3955967461395264,1.5620976865348815,3.5001667461395263,2.6666666865348816,3.5001667461395263L13.333366686534882,3.5001667461395263C14.437866686534882,3.5001667461395263,15.333366686534882,4.3955967461395264,15.333366686534882,5.500166746139526L15.333366686534882,12.833466746139527C15.333366686534882,13.938066746139526,14.437866686534882,14.833466746139527,13.333366686534882,14.833466746139527L2.6666666865348816,14.833466746139527C1.5620976865348815,14.833466746139527,0.6666666865348816,13.938066746139526,0.6666666865348816,12.833466746139527ZM1.9999966865348815,12.833466746139527L1.9999966865348815,5.500166746139526Q1.9999966865348815,5.224016746139526,2.1952666865348816,5.028756746139527Q2.3905266865348818,4.833496746139526,2.6666666865348816,4.833496746139526L13.333366686534882,4.833496746139526Q13.609466686534882,4.833496746139526,13.804766686534881,5.028756746139527Q13.999966686534881,5.224016746139526,13.999966686534881,5.500166746139526L13.999966686534881,12.833466746139527Q13.999966686534881,13.109666746139526,13.804766686534881,13.304866746139526Q13.609466686534882,13.500166746139527,13.333366686534882,13.500166746139527L2.6666666865348816,13.500166746139527Q2.3905266865348818,13.500166746139527,2.1952666865348816,13.304866746139526Q1.9999966865348815,13.109666746139526,1.9999966865348815,12.833466746139527ZM10.079116686534881,7.011876746139526L12.000266686534882,8.735746746139526Q12.095766686534882,8.821466746139526,12.147466686534882,8.933466746139526Q12.199166686534882,9.045476746139526,12.199166686534882,9.166706746139527Q12.199166686534882,9.287936746139527,12.147466686534882,9.399946746139527Q12.095766686534882,9.511946746139527,12.000266686534882,9.597676746139527L12.00006668653488,9.597836746139526L10.078936686534881,11.321666746139526Q10.031626686534882,11.364166746139526,9.976006686534882,11.397466746139527Q9.920376686534881,11.430866746139527,9.858576686534882,11.453866746139527Q9.796766686534882,11.476766746139527,9.73115668653488,11.488466746139526Q9.665546686534881,11.500166746139527,9.598646686534881,11.500166746139527Q9.531746686534882,11.500166746139527,9.466136686534881,11.488466746139526Q9.400526686534882,11.476766746139527,9.338716686534882,11.453766746139527Q9.276916686534882,11.430866746139527,9.221296686534881,11.397466746139527Q9.165666686534882,11.364166746139526,9.118366686534882,11.321666746139526Q9.02282668653488,11.235966746139527,8.971126686534882,11.123976746139526Q8.919426686534882,11.011966746139526,8.919426686534882,10.890736746139526Q8.919426686534882,10.769506746139527,8.971126686534882,10.657496746139527Q9.02282668653488,10.545496746139527,9.118366686534882,10.459766746139527L9.875216686534882,9.780636746139526L4.609396686534882,9.780636746139526Q4.549366686534881,9.780636746139526,4.490496686534882,9.768926746139526Q4.431616686534881,9.757216746139527,4.376156686534882,9.734246746139526Q4.320696686534882,9.711276746139527,4.270786686534882,9.677926746139526Q4.220876686534881,9.644576746139526,4.178426686534882,9.602126746139527Q4.135986686534881,9.559676746139527,4.102636686534882,9.509766746139526Q4.069286686534882,9.459856746139526,4.046306686534882,9.404396746139527Q4.023336686534881,9.348936746139527,4.011626686534882,9.290066746139527Q3.9999166865348816,9.231186746139526,3.9999166865348816,9.171166746139527Q3.9999166865348816,9.111136746139525,4.011626686534882,9.052256746139527Q4.023336686534881,8.993386746139526,4.046306686534882,8.937926746139526Q4.069286686534882,8.882466746139526,4.102636686534882,8.832556746139527Q4.135986686534881,8.782646746139527,4.178426686534882,8.740196746139526Q4.220876686534881,8.697746746139526,4.270786686534882,8.664396746139527Q4.320696686534882,8.631046746139527,4.376156686534882,8.608076746139528Q4.431616686534881,8.585106746139527,4.490496686534882,8.573396746139526Q4.549366686534881,8.561686746139525,4.609396686534882,8.561686746139525L9.885146686534881,8.561686746139525L9.11854668653488,7.873806746139526Q9.023016686534882,7.788086746139526,8.971316686534882,7.676086746139527Q8.919606686534882,7.564076746139526,8.919606686534882,7.4428467461395265Q8.919606686534882,7.321616746139527,8.971316686534882,7.209606746139526Q9.023016686534882,7.097606746139526,9.11854668653488,7.011876746139526Q9.165856686534882,6.969436746139526,9.221476686534881,6.936086746139527Q9.27709668653488,6.902736746139526,9.338906686534882,6.879766746139526Q9.400716686534881,6.856786746139527,9.466326686534881,6.845076746139527Q9.531936686534882,6.833366746139526,9.59883668653488,6.833366746139526Q9.665726686534882,6.833366746139526,9.73134668653488,6.845076746139527Q9.796956686534882,6.856786746139527,9.858756686534882,6.879766746139526Q9.920566686534881,6.902736746139526,9.97618668653488,6.936086746139527Q10.031816686534881,6.969436746139526,10.079116686534881,7.011876746139526Z" fill-rule="evenodd"></path></symbol>
</svg>