<svg xmlns="http://www.w3.org/2000/svg" xmlns:xlink="http://www.w3.org/1999/xlink" style="position: absolute; width: 0; height: 0" aria-hidden="true" id="__SVG_SPRITE_NODE__">
<symbol xmlns="http://www.w3.org/2000/svg" viewBox="0 0 16 16" id="normal-list"><path d="M1.3333333730697632,12.666866746139526L1.3333333730697632,12.666866746139526Q1.3333333730697632,12.601166746139526,1.3461431730697633,12.536766746139527Q1.3589529730697631,12.472366746139526,1.3840803730697633,12.411706746139526Q1.4092076730697631,12.351046746139527,1.4456873730697632,12.296446746139527Q1.4821663730697632,12.241856746139526,1.5285953730697632,12.195426746139526Q1.575024373069763,12.148996746139526,1.6296193730697632,12.112516746139526Q1.684215373069763,12.076036746139525,1.7448773730697633,12.050906746139527Q1.8055403730697632,12.025786746139527,1.869939373069763,12.012976746139527Q1.9343393730697631,12.000166746139527,2.000000373069763,12.000166746139527L14.000033373069764,12.000166746139527Q14.065633373069764,12.000166746139527,14.130033373069763,12.012976746139527Q14.194433373069764,12.025786746139527,14.255133373069762,12.050906746139527Q14.315833373069763,12.076036746139525,14.370333373069764,12.112516746139526Q14.424933373069763,12.148996746139526,14.471433373069763,12.195426746139526Q14.517833373069763,12.241856746139526,14.554333373069763,12.296446746139527Q14.590833373069763,12.351046746139527,14.615933373069764,12.411706746139526Q14.641033373069764,12.472366746139526,14.653833373069762,12.536766746139527Q14.666633373069763,12.601166746139526,14.666633373069763,12.666866746139526L14.666633373069763,12.666866746139526Q14.666633373069763,12.732466746139526,14.653833373069762,12.796866746139527Q14.641033373069764,12.861266746139526,14.615933373069764,12.921966746139526Q14.590833373069763,12.982566746139526,14.554333373069763,13.037166746139526Q14.517833373069763,13.091766746139527,14.471433373069763,13.138266746139527Q14.424933373069763,13.184666746139527,14.370333373069764,13.221166746139527Q14.315833373069763,13.257666746139526,14.255133373069762,13.282766746139526Q14.194433373069764,13.307866746139526,14.130033373069763,13.320666746139526Q14.065633373069764,13.333466746139527,14.000033373069764,13.333466746139527L2.000000373069763,13.333466746139527Q1.9343393730697631,13.333466746139527,1.869939373069763,13.320666746139526Q1.8055403730697632,13.307866746139526,1.7448773730697633,13.282766746139526Q1.684215373069763,13.257666746139526,1.6296203730697632,13.221166746139527Q1.575024373069763,13.184666746139527,1.5285953730697632,13.138266746139527Q1.4821663730697632,13.091766746139527,1.4456873730697632,13.037166746139526Q1.4092076730697631,12.982566746139526,1.3840803730697633,12.921966746139526Q1.3589529730697631,12.861266746139526,1.3461431730697633,12.796866746139527Q1.3333333730697632,12.732466746139526,1.3333333730697632,12.666866746139526ZM1.3333333730697632,7.999836746139526L1.3333333730697632,7.999836746139526Q1.3333333730697632,7.934176746139526,1.3461431730697633,7.869776746139526Q1.3589529730697631,7.805376746139526,1.3840803730697633,7.7447167461395265Q1.4092076730697631,7.684056746139526,1.4456873730697632,7.629456746139526Q1.4821663730697632,7.574866746139526,1.5285953730697632,7.528436746139526Q1.575024373069763,7.482006746139526,1.6296193730697632,7.445526746139526Q1.684215373069763,7.409046746139526,1.7448773730697633,7.383916746139526Q1.8055403730697632,7.358786746139526,1.869939373069763,7.3459767461395264Q1.9343393730697631,7.3331667461395265,2.000000373069763,7.3331667461395265L14.000033373069764,7.3331667461395265Q14.065633373069764,7.3331667461395265,14.130033373069763,7.3459767461395264Q14.194433373069764,7.358786746139526,14.255133373069762,7.383916746139526Q14.315833373069763,7.409046746139526,14.370333373069764,7.445526746139526Q14.424933373069763,7.482006746139526,14.471433373069763,7.528436746139526Q14.517833373069763,7.574866746139526,14.554333373069763,7.629456746139526Q14.590833373069763,7.684056746139526,14.615933373069764,7.7447167461395265Q14.641033373069764,7.805376746139526,14.653833373069762,7.869776746139526Q14.666633373069763,7.934176746139526,14.666633373069763,7.999836746139526L14.666633373069763,7.999836746139526Q14.666633373069763,8.065496746139527,14.653833373069762,8.129896746139526Q14.641033373069764,8.194296746139527,14.615933373069764,8.254956746139527Q14.590833373069763,8.315616746139526,14.554333373069763,8.370216746139526Q14.517833373069763,8.424816746139527,14.471433373069763,8.471236746139526Q14.424933373069763,8.517666746139525,14.370333373069764,8.554146746139526Q14.315833373069763,8.590626746139527,14.255133373069762,8.615756746139526Q14.194433373069764,8.640886746139525,14.130033373069763,8.653696746139527Q14.065633373069764,8.666506746139525,14.000033373069764,8.666506746139525L2.000000373069763,8.666506746139525Q1.9343393730697631,8.666506746139525,1.869939373069763,8.653696746139527Q1.8055403730697632,8.640886746139525,1.7448773730697633,8.615756746139526Q1.684215373069763,8.590626746139527,1.6296203730697632,8.554146746139526Q1.575024373069763,8.517666746139525,1.5285953730697632,8.471236746139526Q1.4821663730697632,8.424806746139527,1.4456873730697632,8.370216746139526Q1.4092076730697631,8.315616746139526,1.3840803730697633,8.254956746139527Q1.3589529730697631,8.194296746139527,1.3461431730697633,8.129896746139526Q1.3333333730697632,8.065496746139527,1.3333333730697632,7.999836746139526ZM1.3333333730697632,3.3333337461395263L1.3333333730697632,3.3333337461395263Q1.3333333730697632,3.2676727461395263,1.3461431730697633,3.2032727461395263Q1.3589529730697631,3.1388737461395264,1.3840803730697633,3.0782107461395265Q1.4092076730697631,3.0175487461395263,1.4456873730697632,2.9629537461395263Q1.4821663730697632,2.9083577461395262,1.5285953730697632,2.8619287461395264Q1.575024373069763,2.815499746139526,1.6296193730697632,2.779020746139526Q1.684215373069763,2.7425410461395265,1.7448773730697633,2.7174137461395262Q1.8055403730697632,2.6922863461395266,1.869939373069763,2.6794765461395262Q1.9343393730697631,2.6666667461395264,2.000000373069763,2.6666667461395264L14.000033373069764,2.6666667461395264Q14.065633373069764,2.6666667461395264,14.130033373069763,2.6794765461395262Q14.194433373069764,2.6922863461395266,14.255133373069762,2.7174137461395262Q14.315833373069763,2.7425410461395265,14.370333373069764,2.779020746139526Q14.424933373069763,2.815499746139526,14.471433373069763,2.8619287461395264Q14.517833373069763,2.9083577461395262,14.554333373069763,2.962952746139526Q14.590833373069763,3.0175487461395263,14.615933373069764,3.0782107461395265Q14.641033373069764,3.1388737461395264,14.653833373069762,3.2032727461395263Q14.666633373069763,3.2676727461395263,14.666633373069763,3.3333337461395263L14.666633373069763,3.3333337461395263Q14.666633373069763,3.3989947461395262,14.653833373069762,3.463393746139526Q14.641033373069764,3.5277927461395264,14.615933373069764,3.5884557461395263Q14.590833373069763,3.6491187461395262,14.554333373069763,3.703716746139526Q14.517833373069763,3.7583067461395263,14.471433373069763,3.8047367461395263Q14.424933373069763,3.8511667461395263,14.370333373069764,3.8876467461395263Q14.315833373069763,3.9241267461395264,14.255133373069762,3.9492567461395263Q14.194433373069764,3.9743767461395265,14.130033373069763,3.9871867461395265Q14.065633373069764,3.9999967461395265,14.000033373069764,3.9999967461395265L2.000000373069763,3.9999967461395265Q1.9343393730697631,3.9999967461395265,1.869939373069763,3.9871867461395265Q1.8055403730697632,3.9743767461395265,1.7448773730697633,3.9492567461395263Q1.684215373069763,3.9241267461395264,1.6296203730697632,3.8876467461395263Q1.575024373069763,3.8511667461395263,1.5285953730697632,3.8047367461395263Q1.4821663730697632,3.7583067461395263,1.4456873730697632,3.703716746139526Q1.4092076730697631,3.6491187461395262,1.3840803730697633,3.5884557461395263Q1.3589529730697631,3.5277927461395264,1.3461431730697633,3.463393746139526Q1.3333333730697632,3.3989947461395262,1.3333333730697632,3.3333337461395263Z"></path></symbol>
<symbol xmlns="http://www.w3.org/2000/svg" viewBox="0 0 36 36" id="normal-mode"><path clip-rule="evenodd" fill="none" d="M0 0H36V36H0z"></path><path d="M4.5,7C4.2,7,4,7.2,4,7.5v21C4,28.8,4.2,29,4.5,29h5c0.3,0,0.5-0.2,0.5-0.5v-21C10,7.2,9.8,7,9.5,7H4.5 z M4.5,6h5C10.3,6,11,6.7,11,7.5v21c0,0.8-0.7,1.5-1.5,1.5h-5C3.7,30,3,29.3,3,28.5v-21C3,6.7,3.7,6,4.5,6z M15.5,7 C15.2,7,15,7.2,15,7.5v13c0,0.3,0.2,0.5,0.5,0.5h5c0.3,0,0.5-0.2,0.5-0.5v-13C21,7.2,20.8,7,20.5,7H15.5z M15.5,6h5 C21.3,6,22,6.7,22,7.5v13c0,0.8-0.7,1.5-1.5,1.5h-5c-0.8,0-1.5-0.7-1.5-1.5v-13C14,6.7,14.7,6,15.5,6z M26.5,7C26.2,7,26,7.2,26,7.5 v17c0,0.3,0.2,0.5,0.5,0.5h5c0.3,0,0.5-0.2,0.5-0.5v-17C32,7.2,31.8,7,31.5,7H26.5z M26.5,6h5C32.3,6,33,6.7,33,7.5v17 c0,0.8-0.7,1.5-1.5,1.5h-5c-0.8,0-1.5-0.7-1.5-1.5v-17C25,6.7,25.7,6,26.5,6z"></path></symbol>
</svg>