<svg xmlns="http://www.w3.org/2000/svg" xmlns:xlink="http://www.w3.org/1999/xlink" style="position: absolute; width: 0; height: 0" aria-hidden="true" id="__SVG_SPRITE_NODE__">
<symbol xmlns="http://www.w3.org/2000/svg" viewBox="0 0 48 48" id="past-from-today"><g fill-rule="evenodd"><path fill="none" d="M0 0H48V48H0z"></path><path d="M17,8 C17.5522847,8 18,8.44771525 18,9 L18,9 L18,12 L30,12 L30,9 C30,8.44771525 30.4477153,8 31,8 L31,8 L33,8 C33.5522847,8 34,8.44771525 34,9 L34,9 L34,12 L37,12 C38.6568542,12 40,13.3431458 40,15 L40,15 L40,37 C40,38.6568542 38.6568542,40 37,40 L37,40 L11,40 C9.34314575,40 8,38.6568542 8,37 L8,37 L8,15 C8,13.3431458 9.34314575,12 11,12 L11,12 L14,12 L14,9 C14,8.44771525 14.4477153,8 15,8 L15,8 Z M28.78625,20.7265625 L26.8175,20.7265625 L26.8175,32 L29.0753125,32 L29.0753125,24.6171875 L29.145625,24.6171875 L34.4190625,32 L36.3721875,32 L36.3721875,20.7265625 L34.114375,20.7265625 L34.114375,28.0703125 L34.051875,28.0703125 L28.78625,20.7265625 Z M15.048,24.432 C13.896,24.432 12.76,25.216 11.64,26.816 L12.824,27.808 C13.704,26.608 14.44,26.016 15.048,26.016 C15.64,26.016 16.264,26.192 16.904,26.544 C17.448,26.864 18.008,27.2 18.552,27.536 C19.24,27.888 19.96,28.064 20.728,28.064 C21.864,28.064 23,27.264 24.136,25.68 L22.952,24.688 C22.056,25.872 21.32,26.48 20.728,26.48 C20.152,26.48 19.528,26.304 18.888,25.952 C18.328,25.616 17.768,25.28 17.208,24.96 C16.504,24.608 15.784,24.432 15.048,24.432 Z"></path></g></symbol>
</svg>