<svg xmlns="http://www.w3.org/2000/svg" xmlns:xlink="http://www.w3.org/1999/xlink" style="position: absolute; width: 0; height: 0" aria-hidden="true" id="__SVG_SPRITE_NODE__">
<symbol xmlns="http://www.w3.org/2000/svg" viewBox="0 0 64 64" id="pdf"><g fill="none" fill-rule="evenodd"><path d="M8,9.3420016 C8,7.12807525 9.81214523,5.33333333 11.9881206,5.33333333 L40,5.33333333 L56,21.3333333 L56,54.671346 C56,56.8779007 54.2347281,58.6666667 51.9901068,58.6666667 L12.0098932,58.6666667 C9.79529033,58.6666667 8,56.8921712 8,54.6579984 L8,9.3420016 Z" fill="#E66E72"></path><path d="M40,5.33333333 L56,21.3333333 L41.5052412,21.3333333 C40.6739194,21.3333333 40,20.6662036 40,19.8280922 L40,5.33333333 Z" fill="#000000" opacity=".3"></path><path d="M31.1550063,17.3363469 C33.4955488,17.445774 34.9530914,19.7500151 34.4254633,24.5415095 C34.1534049,27.0058799 33.7316023,29.2251027 33.1557402,31.2746246 L32.9337445,32.0134885 C33.6697357,33.4434931 34.5375877,34.7297641 35.5008751,35.8046392 L35.6222975,35.9297614 C39.8038269,35.3142499 43.5612875,35.549728 46.230273,36.6999177 C48.3266622,37.6033491 49.3352949,38.2300528 49.6423861,39.2617241 C50.1778316,41.06055 48.7385139,41.7662338 45.9063805,42.2042486 C41.539882,42.8795666 37.6928026,41.5727004 34.5622639,38.6538642 L34.7169364,38.7855302 C33.1492328,39.0815437 31.5619279,39.497603 30.0185393,40.0172626 L28.9573333,40.392 L28.3914722,41.2387162 L27.7771288,42.1188105 L26.6751947,43.6412791 L25.5485982,45.1837215 L24.6132184,46.5027953 L24.0732258,47.2996105 C22.1618134,50.1788826 19.8651129,51.8779548 17.8470441,52.0307144 C15.3694961,52.2182547 14.1350454,50.0489269 15.2823187,47.6960507 C17.1756369,43.8131545 21.5418509,40.4806163 27.1907679,38.2176016 C28.1978966,36.598057 29.0123178,35.0065713 29.6820196,33.2807696 L30.0668582,32.2278716 C27.131118,25.7970487 26.9509978,18.3467431 30.683525,17.3579763 L30.8906475,17.337619 L31.1550063,17.3363469 Z M24.056,42.7013333 L23.7591113,42.8762017 C21.1055661,44.4825879 19.0766396,46.3674428 17.943649,48.363546 L17.473872,49.2680652 C17.435629,49.3456755 17.428673,49.3753523 17.4562422,49.3837369 L17.6457641,49.3716549 C18.7196027,49.2903697 20.3531091,48.0819207 21.8514818,45.8248344 L22.415864,44.9918687 L23.0372067,44.1086459 L24.056,42.7013333 Z M39.0266777,38.2827633 L38.5173333,38.3066667 L38.9221625,38.5386221 C40.5034629,39.3751127 42.2393614,39.7774963 44.1276442,39.7031383 L44.842889,39.6528235 L45.4988024,39.5689134 L45.9333333,39.4933333 L45.4885766,39.2873012 L45.1749099,39.1488603 C43.8006169,38.5566137 41.9602339,38.2593489 39.836151,38.2660039 L39.0266777,38.2827633 Z M31.816,35.3706667 L31.7203486,35.6629994 L31.6426667,35.4986667 L31.3860069,36.0774894 L31.088,36.6853333 L31.4024954,36.5636634 L31.2026667,36.872 L32.0074,36.6542917 L32.408,36.56 L32.2972643,36.4519367 L32.5546667,36.4106667 L32.2601813,36.0175621 L31.816,35.3706667 Z M31.0900541,27.023565 L31.2586667,27.68 L31.2875497,27.5524899 C31.3749772,27.0882208 31.4556526,26.6132959 31.5295514,26.1270501 L31.6353142,25.3891074 L31.7748592,24.2492614 C32.0003484,22.2015495 31.8189742,20.9356143 31.4238393,20.3109424 C31.3001406,20.115386 31.1985342,20.0373332 31.1324453,20.0118375 C30.3386368,20.5024648 30.2415238,23.5367404 31.0900541,27.023565 Z" fill="#FFF2F3" fill-rule="nonzero"></path></g></symbol>
</svg>