<svg xmlns="http://www.w3.org/2000/svg" xmlns:xlink="http://www.w3.org/1999/xlink" style="position: absolute; width: 0; height: 0" aria-hidden="true" id="__SVG_SPRITE_NODE__">
<symbol xmlns="http://www.w3.org/2000/svg" viewBox="0 0 48 48" id="phone-call"><g fill-rule="evenodd"><path fill="none" d="M0 0H48V48H0z"></path><path d="M27.8422594,31.1114867 C27.9510008,31.1114867 28.603204,30.5666033 28.8205816,30.4576266 C29.2554421,30.2396732 29.5815612,30.0217199 29.9076452,29.9127432 C32.190514,28.9319883 34.1471584,29.5858132 36.756111,32.7461368 C38.3867065,34.7076818 38.8214969,36.342332 38.2780002,37.8680054 C37.8431747,38.9577722 36.8648174,39.8295504 35.3429634,40.7013638 C35.234222,40.8103757 34.3646061,41.3552239 34.038487,41.4642006 C30.3425057,43.7527108 21.7547381,38.5218655 15.5585455,29.367895 C9.36228283,20.3228661 7.73172245,10.6240122 11.5364101,8.22656049 L12.0799419,7.89963045 L12.6234738,7.57270045 C14.5801883,6.373957 15.7759232,5.82907363 17.1891059,6.04702696 C18.6022886,6.26498033 19.906765,7.35474708 20.8851223,9.31632727 C23.0592496,13.4573706 22.624389,15.4189508 19.7980586,17.2715543 C19.5806459,17.380531 18.8197014,17.8164377 18.8197014,17.9254143 C18.1674632,18.361321 19.2545268,21.3036561 22.0808923,25.2267813 C24.7985163,29.367895 27.0813149,31.65637 27.8422594,31.1114867 L27.8422594,31.1114867 Z" fill-rule="nonzero"></path></g></symbol>
</svg>