<svg xmlns="http://www.w3.org/2000/svg" xmlns:xlink="http://www.w3.org/1999/xlink" style="position: absolute; width: 0; height: 0" aria-hidden="true" id="__SVG_SPRITE_NODE__">
<symbol xmlns="http://www.w3.org/2000/svg" viewBox="0 0 20 20" id="profile-account"><path d="M13.749998331069946,4.583333313465118C13.749998331069946,6.654403313465118,12.071098331069946,8.333333313465118,9.999998331069946,8.333333313465118C7.9289283310699465,8.333333313465118,6.249998331069946,6.654403313465118,6.249998331069946,4.583333313465118C6.249998331069946,2.5122633134651187,7.9289283310699465,0.8333333134651184,9.999998331069946,0.8333333134651184C12.071098331069946,0.8333333134651184,13.749998331069946,2.5122633134651187,13.749998331069946,4.583333313465118ZM12.083298331069946,4.583333313465118Q12.083298331069946,3.7203933134651184,11.473098331069947,3.1101933134651185Q10.862938331069946,2.5000033134651183,9.999998331069946,2.5000033134651183Q9.137058331069946,2.5000033134651183,8.526858331069946,3.1101933134651185Q7.916668331069946,3.7203833134651183,7.916668331069946,4.583333313465118Q7.916668331069946,5.4462733134651184,8.526858331069946,6.056473313465118Q9.137058331069946,6.6666633134651185,9.999998331069946,6.6666633134651185Q10.862938331069946,6.6666633134651185,11.473098331069947,6.056473313465118Q12.083298331069946,5.4462733134651184,12.083298331069946,4.583333313465118ZM4.583328331069946,19.16663331346512C2.742378331069946,19.16663331346512,1.2499983310699463,17.67423331346512,1.2499983310699463,15.833333313465118C1.2499983310699463,12.151433313465118,4.234768331069946,9.166663313465119,7.916668331069946,9.166663313465119L12.083298331069946,9.166663313465119C15.765198331069946,9.166663313465119,18.749998331069946,12.151433313465118,18.749998331069946,15.833333313465118C18.749998331069946,17.67423331346512,17.257598331069946,19.16663331346512,15.416698331069947,19.16663331346512L4.583328331069946,19.16663331346512ZM3.4048183310699462,17.011833313465118Q2.916668331069946,16.52373331346512,2.916668331069946,15.833333313465118Q2.916668331069946,13.762233313465119,4.381128331069947,12.297833313465118Q5.845598331069946,10.833333313465118,7.916668331069946,10.833333313465118L12.083298331069946,10.833333313465118Q14.154398331069947,10.833333313465118,15.618898331069946,12.297833313465118Q17.083298331069948,13.762233313465119,17.083298331069948,15.833333313465118Q17.083298331069948,16.52373331346512,16.595198331069945,17.011833313465118Q16.106998331069946,17.500033313465117,15.416698331069947,17.500033313465117L4.583328331069946,17.500033313465117Q3.8929783310699464,17.500033313465117,3.4048183310699462,17.011833313465118Z" fill-rule="evenodd"></path></symbol>
<symbol xmlns="http://www.w3.org/2000/svg" viewBox="0 0 20 20" id="profile-backup"><path d="M10.000009989185333,0.8333206176757812L8.821519989185333,0.8333206176757812C7.164679989185333,0.8333206176757812,5.833339989185333,2.1761706176757816,5.833339989185333,3.8330106176757814L5.833339989185333,4.165820617675781L7.500009989185333,4.165820617675781L7.500009989185333,3.499990617675781C7.500009989185333,2.9477006176757814,7.947719989185333,2.499990617675781,8.500009989185333,2.499990617675781L10.000009989185333,2.499990617675781L10.000009989185333,0.8333206176757812ZM13.333339989185333,0.8333206176757812L13.333339989185333,2.499990617675781L11.666639989185333,2.499990617675781L11.666639989185333,0.8333206176757812L13.333339989185333,0.8333206176757812ZM17.500039989185332,5.000000617675782L19.166639989185335,5.000000617675782Q19.165739989185333,4.500900617675781,19.165439989185334,3.8211506176757815C19.16483998918533,2.1631906176757814,17.837939989185333,0.8333297292957812,16.18003998918533,0.8333349224757812L15.000039989185334,0.8333370523757813L15.000039989185334,2.500000617675781L16.500039989185332,2.500000617675781C17.052239989185335,2.500000617675781,17.500039989185332,2.947720617675781,17.500039989185332,3.500000617675781L17.500039989185332,5.000000617675782ZM15.000039989185334,14.16662061767578L16.17853998918533,14.16662061767578C17.835339989185332,14.16662061767578,19.166639989185335,12.836820617675782,19.166639989185335,11.179920617675782L19.166639989185335,9.99995061767578L17.500039989185332,9.99995061767578L17.500039989185332,11.499920617675782C17.500039989185332,12.052220617675781,17.052339989185334,12.499920617675782,16.500039989185332,12.499920617675782L15.000039989185334,12.499920617675782L15.000039989185334,8.030540617675781C15.000039989185334,6.373680617675781,13.656839989185332,4.999950617675781,12.000039989185334,4.999950617675781L3.8333499891853333,4.999950617675781C2.1764899891853333,4.999950617675781,0.8333458816153333,6.343100617675781,0.8333455679153332,7.999950617675781L0.8333440217053333,16.166620617675783C0.8333437080053333,17.823420617675783,2.164589989185333,19.166620617675783,3.821449989185333,19.166620617675783L12.015539989185333,19.166620617675783C13.672339989185334,19.166620617675783,15.000039989185334,17.80742061767578,15.000039989185334,16.15062061767578L15.000039989185334,14.16662061767578ZM3.499999989185333,6.666690617675782L12.333339989185333,6.666690617675782C12.885639989185334,6.666690617675782,13.333339989185333,7.114410617675781,13.333339989185333,7.666690617675782L13.333339989185333,16.50002061767578C13.333339989185333,17.052320617675782,12.885639989185334,17.50002061767578,12.333339989185333,17.50002061767578L3.499999989185333,17.50002061767578C2.9477099891853333,17.50002061767578,2.4999999891853335,17.052320617675782,2.4999999891853335,16.50002061767578L2.4999999891853335,7.666690617675782C2.4999999891853335,7.114410617675781,2.9477099891853333,6.666690617675782,3.499999989185333,6.666690617675782ZM19.166639989185335,6.666690617675782L19.166639989185335,8.333360617675782L17.500039989185332,8.333360617675782L17.500039989185332,6.666690617675782L19.166639989185335,6.666690617675782Z" fill-rule="evenodd"></path></symbol>
<symbol xmlns="http://www.w3.org/2000/svg" viewBox="0 0 20 20" id="profile-mail"><path d="M0.8333333730697632,5.698186746139527L0.8333353891897631,14.301866746139526C0.8333354492397632,16.510966746139527,2.611703373069763,18.333366746139525,4.820833373069763,18.333366746139525C8.273613373069763,18.333366746139525,11.726433373069764,18.333366746139525,15.179133373069764,18.333366746139525C17.388333373069763,18.333366746139525,19.166633373069764,16.510966746139527,19.166633373069764,14.301866746139526C19.166633373069764,12.057366746139527,19.166633373069764,9.681066746139527,19.166633373069764,7.384346746139526L19.166633373069764,5.698176746139526C19.166633373069764,3.4890367461395266,17.352433373069765,1.6666667461395264,15.143233373069764,1.6666667461395264L4.830993373069763,1.6666667461395264C2.6218533730697633,1.6666667461395264,0.8333333730697632,3.4890467461395263,0.8333333730697632,5.698186746139527ZM2.499983373069763,7.786066746139526C2.4999733730697633,10.087166746139527,2.4999633730697632,12.517166746139527,2.499983373069763,14.669366746139527C2.4999933730697634,15.773966746139527,3.4204633730697633,16.666666746139526,4.525013373069763,16.666666746139526L6.8383933730697635,16.666666746139526C9.717263373069763,16.666666746139526,12.596133373069764,16.666666746139526,15.475033373069763,16.666666746139526C16.579533373069765,16.666666746139526,17.500033373069762,15.773966746139527,17.500033373069762,14.669366746139527C17.500033373069762,12.517166746139527,17.500033373069762,10.087166746139527,17.500033373069762,7.786066746139526L12.140433373069763,10.324816746139525Q11.124333373069764,10.806126746139526,9.999993373069763,10.806126746139526Q8.875653373069763,10.806126746139526,7.8595533730697635,10.324816746139525L2.499983373069763,7.786066746139526ZM2.4999933730697634,5.941886746139526L8.573033373069762,8.818586746139527Q9.999993373069763,9.494516746139526,11.426933373069764,8.818586746139527L17.500033373069762,5.941876746139527L17.500033373069762,5.330616746139526C17.500033373069762,4.226046746139526,16.579533373069765,3.3333367461395262,15.475033373069763,3.3333367461395262L12.499833373069762,3.3333367461395262C9.841523373069764,3.3333467461395263,7.183263373069763,3.3333567461395264,4.525003373069763,3.3333467461395263C3.420423373069763,3.3333367461395262,2.500003373069763,4.226036746139526,2.4999933730697634,5.330616746139526L2.4999933730697634,5.941886746139526Z" fill-rule="evenodd"></path></symbol>
<symbol xmlns="http://www.w3.org/2000/svg" viewBox="0 0 20 20" id="profile-password"><path d="M5.357136136512756,8.333336656732559L15.833356136512757,8.333336656732559Q16.178456136512757,8.333336656732559,16.422556136512757,8.57740665673256Q16.666656136512756,8.82148665673256,16.666656136512756,9.16666665673256L16.666656136512756,17.083366656732558Q16.666656136512756,17.42856665673256,16.422556136512757,17.67266665673256Q16.178456136512757,17.91666665673256,15.833356136512757,17.91666665673256L4.166656136512756,17.91666665673256Q3.8214761365127563,17.91666665673256,3.5773961365127565,17.67266665673256Q3.333326136512756,17.42856665673256,3.333326136512756,17.083366656732558L3.333326136512756,9.16666665673256Q3.333326136512756,8.82148665673256,3.5773961365127565,8.57740665673256Q3.8214761365127563,8.333336656732559,4.166656136512756,8.333336656732559L5.357136136512756,8.333336656732559ZM5.357136136512756,6.666666656732559L5.357136136512756,5.059526656732559Q5.357136136512756,3.1363866567325593,6.716996136512757,1.7765266567325593Q8.076856136512756,0.4166666567325592,9.999986136512756,0.4166666567325592Q11.923156136512757,0.4166666567325592,13.282956136512757,1.7765266567325593Q14.642856136512757,3.1363866567325593,14.642856136512757,5.059526656732559L14.642856136512757,6.666666656732559L15.833356136512757,6.666666656732559Q16.868856136512754,6.666666656732559,17.601056136512756,7.39889665673256Q18.333356136512755,8.13113665673256,18.333356136512755,9.16666665673256L18.333356136512755,17.083366656732558Q18.333356136512755,18.11886665673256,17.601056136512756,18.85116665673256Q16.868856136512754,19.583366656732558,15.833356136512757,19.583366656732558L4.166656136512756,19.583366656732558Q3.1311261365127563,19.583366656732558,2.3988891365127563,18.85116665673256Q1.6666561365127563,18.11886665673256,1.6666561365127563,17.083366656732558L1.6666561365127563,9.16666665673256Q1.6666561365127563,8.13113665673256,2.3988891365127563,7.39889665673256Q3.1311261365127563,6.666666656732559,4.166656136512756,6.666666656732559L5.357136136512756,6.666666656732559ZM7.023796136512757,6.666666656732559L12.976156136512756,6.666666656732559L12.976156136512756,5.059526656732559Q12.976156136512756,3.826746656732559,12.104456136512756,2.955036656732559Q11.232766136512756,2.083336656732559,9.999986136512756,2.083336656732559Q8.767216136512756,2.083336656732559,7.895506136512757,2.955036656732559Q7.023796136512757,3.826746656732559,7.023796136512757,5.059526656732559L7.023796136512757,6.666666656732559ZM9.999986136512756,11.49116665673256C9.539756136512757,11.49116665673256,9.166656136512756,11.864266656732559,9.166656136512756,12.324566656732559L9.166656136512756,14.16666665673256C9.166656136512756,14.62686665673256,9.539756136512757,14.999966656732559,9.999986136512756,14.999966656732559C10.460226136512757,14.999966656732559,10.833326136512756,14.62686665673256,10.833326136512756,14.16666665673256L10.833326136512756,12.324566656732559C10.833326136512756,11.864266656732559,10.460226136512757,11.49116665673256,9.999986136512756,11.49116665673256Z" fill-rule="evenodd"></path></symbol>
<symbol xmlns="http://www.w3.org/2000/svg" viewBox="0 0 20 20" id="profile-phone"><path d="M16.7172,13.574533313465118L16.719099999999997,13.576833313465118Q18.1458,15.294533313465118,17.5899,16.855033313465118C17.586199999999998,16.86533331346512,17.5823,16.87553331346512,17.5783,16.885633313465117Q17.1905,17.85743331346512,15.8627,18.632733313465117Q15.7434,18.72163331346512,15.555,18.83493331346512Q15.3155,18.97893331346512,15.1451,19.05253331346512Q14.2151,19.58633331346512,12.8743,19.292433313465118Q11.7015,19.03543331346512,10.34951,18.16993331346512Q7.53878,16.37063331346512,5.27566,13.027233313465118Q2.991654,9.693133313465118,2.406183,6.498903313465118Q2.11997,4.937363313465118,2.358256,3.7785233134651186Q2.6436669999999998,2.3905033134651186,3.64019,1.7627833134651185L3.8978,1.6078333134651184L4.14933,1.4565793134651184Q4.97537,0.9505213134651185,5.489050000000001,0.7659093134651184Q6.20803,0.5075197134651184,6.90371,0.6148144134651184Q8.41174,0.8473963134651183,9.29681,2.6223633134651183Q10.19121,4.325903313465119,10.01811,5.453793313465118Q9.83491,6.647523313465118,8.486550000000001,7.531343313465118C8.45835,7.549833313465118,8.42911,7.5666733134651185,8.398959999999999,7.5817833134651185Q8.394960000000001,7.583793313465119,8.39084,7.585893313465118Q8.4329,7.712463313465118,8.50318,7.878033313465118Q8.89804,8.808243313465118,9.79879,10.058523313465118C9.80621,10.068823313465119,9.813410000000001,10.079293313465119,9.82038,10.089913313465118Q10.73183,11.478733313465119,11.42555,12.18363331346512Q11.56018,12.320433313465118,11.66487,12.410033313465119L11.79696,12.321733313465119C11.82718,12.301533313465118,11.85862,12.283233313465118,11.89111,12.266933313465119Q11.9492,12.237833313465119,12.06352,12.174933313465118Q12.3135,12.037533313465119,12.4791,11.975933313465118Q13.6257,11.493133313465119,14.6856,11.912833313465118Q15.6651,12.300833313465118,16.7172,13.574533313465118ZM15.3695,14.690933313465118Q14.603,13.762433313465118,14.0412,13.539933313465118Q13.6408,13.381333313465118,13.1438,13.594933313465118C13.1215,13.604433313465119,13.0988,13.613133313465118,13.0757,13.620833313465118Q13.051,13.629133313465118,12.9068,13.708433313465118Q12.8022,13.76593331346512,12.7271,13.804933313465119L12.3143,14.080833313465119Q11.4375,14.690533313465119,10.17831,13.411233313465118Q9.3677,12.58753331346512,8.367740000000001,11.065933313465118Q7.36108,9.666183313465119,6.8923,8.56181331346512Q6.21909,6.975853313465119,7.02956,6.400833313465118Q7.23742,6.212773313465118,7.56482,6.042803313465118Q8.22522,5.599793313465119,8.28836,5.188323313465118Q8.37411,4.629583313465118,7.74738,3.4358433134651185Q7.24993,2.4389033134651186,6.63697,2.3443633134651183Q6.3811,2.3049033134651182,6.08092,2.4127833134651184Q5.736330000000001,2.5366233134651184,5.06351,2.948813313465118L4.79981,3.1074633134651184L4.542199999999999,3.2624133134651183Q4.20759,3.4734833134651186,4.07239,4.130993313465119Q3.90264,4.956543313465119,4.12751,6.183403313465118Q4.64584,9.01133331346512,6.71938,12.038233313465119Q8.78592,15.091133313465118,11.293,16.69603331346512Q12.3816,17.392933313465118,13.249,17.58303331346512Q13.9491,17.736533313465117,14.2956,17.52193331346512C14.3532,17.486233313465117,14.4147,17.457433313465117,14.4789,17.435933313465117Q14.494,17.43093331346512,14.653,17.335233313465118Q14.7317,17.287933313465118,14.7917,17.24783331346512Q14.8038,17.23973331346512,14.812,17.23403331346512C14.8518,17.20063331346512,14.8945,17.170833313465117,14.9396,17.145033313465117Q15.7688,16.67003331346512,15.9468,16.251933313465116Q16.153,15.633433313465119,15.3714,14.693233313465118L15.3695,14.690933313465118ZM8.41817,7.109453313465118Q8.41817,7.306723313465119,8.35338,7.459493313465118Q8.3518,7.453273313465118,8.35034,7.447243313465118C8.395109999999999,7.3402533134651184,8.41817,7.2254333134651185,8.41817,7.109453313465118Z" fill-rule="evenodd"></path></symbol>
</svg>