<svg xmlns="http://www.w3.org/2000/svg" xmlns:xlink="http://www.w3.org/1999/xlink" style="position: absolute; width: 0; height: 0" aria-hidden="true" id="__SVG_SPRITE_NODE__">
<symbol xmlns="http://www.w3.org/2000/svg" viewBox="0 0 32 32" id="quadrant4-icon"><path d="M16,0 C24.836556,0 32,7.163444 32,16 C32,24.836556 24.836556,32 16,32 C7.163444,32 0,24.836556 0,16 C0,7.163444 7.163444,0 16,0 Z M18.0117188,7.8984375 L12.421875,7.8984375 L12.421875,8.859375 L13.9570312,9.140625 L19.59375,24.1171875 L21.2578125,24.1171875 L26.7773438,9.140625 L28.265625,8.859375 L28.265625,7.8984375 L23.484375,7.8984375 L23.484375,8.859375 L24.9726562,9 L25.2070312,9.33984375 L20.8710938,21.4335938 L16.359375,9.33984375 L16.6171875,9 L18.0117188,8.859375 L18.0117188,7.8984375 Z M12.1289062,7.8984375 L6.03515625,7.8984375 L6.03515625,8.859375 L7.5703125,9 L7.98046875,9.33984375 L7.98046875,22.5585938 L7.5703125,22.8984375 L6.03515625,23.015625 L6.03515625,24 L12.1289062,24 L12.1289062,23.015625 L10.59375,22.8984375 L10.1835938,22.5585938 L10.1835938,9.33984375 L10.59375,9 L12.1289062,8.859375 L12.1289062,7.8984375 Z"></path></symbol>
</svg>