<svg xmlns="http://www.w3.org/2000/svg" xmlns:xlink="http://www.w3.org/1999/xlink" style="position: absolute; width: 0; height: 0" aria-hidden="true" id="__SVG_SPRITE_NODE__">
<symbol xmlns="http://www.w3.org/2000/svg" viewBox="0 0 30 30" id="recent"><g fill-rule="evenodd"><circle cx="15" cy="15" r="15" fill="none"></circle><path d="M15,7 C19.418278,7 23,10.581722 23,15 C23,19.418278 19.418278,23 15,23 C10.581722,23 7,19.418278 7,15 C7,10.581722 10.581722,7 15,7 Z M15,8 C11.1340068,8 8,11.1340068 8,15 C8,18.8659932 11.1340068,22 15,22 C18.8659932,22 22,18.8659932 22,15 C22,11.1340068 18.8659932,8 15,8 Z M11,14.6563333 L15.6666667,14.6563333 L15.6666667,15.6563333 L11,15.6563333 L11,14.6563333 Z M14.6666667,9 L15.6666667,9 L15.6666667,15.3126667 L14.6666667,15.3126667 L14.6666667,9 Z" fill-rule="nonzero"></path></g></symbol>
</svg>