<svg xmlns="http://www.w3.org/2000/svg" xmlns:xlink="http://www.w3.org/1999/xlink" style="position: absolute; width: 0; height: 0" aria-hidden="true" id="__SVG_SPRITE_NODE__">
<symbol xmlns="http://www.w3.org/2000/svg" viewBox="206 -116 1024 1024" id="repeat"><path d="M529.7 531.8C488.7 500.6 462 451.2 462 396v0c0-93.9 76.8-170.7 170.7-170.7h192.1l0 0c5.4 0 10.9-2.1 15-6.2h0c8.3-8.3 8.3-21.9 0-30.2l-128-128c-8.3-8.3-21.9-8.3-30.2 0l0 0c-8.3 8.3-8.3 21.9 0 30.2l91.6 91.6H632.7c-117.3 0-213.3 96-213.3 213.3v0c0 69.4 33.6 131.4 85.3 170.4 6.6 5 23.9 7.8 30.8-4.3C544.6 546 533.3 534.5 529.7 531.8zM931.4 225.6c-6.6-5-23.9-7.8-30.8 4.3-9.1 16 2.2 27.5 5.8 30.2 41.1 31.2 67.7 80.6 67.7 135.9v0c0 93.9-76.8 170.7-170.7 170.7H611.3l0 0c-5.4 0-10.9 2.1-15 6.2h0c-8.3 8.3-8.3 21.9 0 30.2l128 128c8.3 8.3 21.9 8.3 30.2 0l0 0c8.3-8.3 8.3-21.9 0-30.2l-91.6-91.6h140.5c117.3 0 213.3-96 213.3-213.3v0C1016.7 326.5 983.1 264.6 931.4 225.6z"></path></symbol>
</svg>