<svg xmlns="http://www.w3.org/2000/svg" xmlns:xlink="http://www.w3.org/1999/xlink" style="position: absolute; width: 0; height: 0" aria-hidden="true" id="__SVG_SPRITE_NODE__">
<symbol xmlns="http://www.w3.org/2000/svg" viewBox="0 0 24 24" id="rss-subscribe"><g fill-rule="evenodd"><path d="M11.664166464843749,12.335489375Q9.928286464843751,10.599609375,7.47337646484375,10.599609375C7.08677746484375,10.599609375,6.77337646484375,10.913010375,6.77337646484375,11.299609375C6.77337646484375,11.686209375,7.08677746484375,11.999609375,7.47337646484375,11.999609375Q9.348386464843749,11.999609375,10.67421646484375,13.325439375Q12.00004646484375,14.651269375,12.00004646484375,16.526279375C12.00004646484375,16.912879375,12.31344646484375,17.226279375,12.70004646484375,17.226279375C13.08664646484375,17.226279375,13.40004646484375,16.912879375,13.40004646484375,16.526279375Q13.40004646484375,14.071369375,11.664166464843749,12.335489375Z"></path><path d="M13.26572646484375,17.091959375000002Q13.50004646484375,16.857649375,13.50004646484375,16.526279375Q13.50002646484375,14.029949375000001,11.734876464843751,12.264779375Q9.96970646484375,10.499610875,7.47337646484375,10.499609375Q7.14200546484375,10.499609375,6.90769146484375,10.733924375Q6.67337646484375,10.968238375,6.67337646484375,11.299609375Q6.67337646484375,11.630979374999999,6.90769146484375,11.865299375Q7.14200546484375,12.099609375,7.47337646484375,12.099609375Q9.30695646484375,12.099609375,10.60350646484375,13.396149375Q11.900036464843751,14.692689375,11.90004646484375,16.526279375Q11.90004646484375,16.857649375,12.13435646484375,17.091959375000002Q12.36867646484375,17.326279375,12.70004646484375,17.326279375Q13.031416464843751,17.326279375,13.26572646484375,17.091959375000002ZM11.59345646484375,12.406199375Q13.30004646484375,14.112789375,13.30004646484375,16.526279375Q13.30004646484375,16.774799375,13.12430646484375,16.950539374999998Q12.94856646484375,17.126279375,12.70004646484375,17.126279375Q12.451516464843749,17.126279375,12.27577646484375,16.950539374999998Q12.10004646484375,16.774799375,12.10004646484375,16.526279375Q12.10004646484375,14.609839375,10.74492646484375,13.254729375Q9.38979646484375,11.899609375,7.47337646484375,11.899609375Q7.22484846484375,11.899609375,7.04911246484375,11.723869375Q6.87337646484375,11.548137375,6.87337646484375,11.299609375Q6.87337636484375,11.051081375,7.04911246484375,10.875345375Q7.22484846484375,10.699609375,7.47337646484375,10.699609375Q9.88686646484375,10.699607875,11.59345646484375,12.406199375Z"></path></g><g fill-rule="evenodd"><path d="M11.670453505859374,6.40082934375Q9.599533505859375,5.52490234375,7.333343505859375,5.52490234375C6.850094505859375,5.52490234375,6.458343505859375,5.91665334375,6.458343505859375,6.39990234375C6.458343505859375,6.88315234375,6.850094505859375,7.27490234375,7.333343505859375,7.27490234375Q11.223503505859375,7.27490234375,13.974253505859375,10.02566234375Q16.725043505859375,12.77641234375,16.725043505859375,16.66660234375C16.725043505859375,17.14980234375,17.116743505859375,17.54160234375,17.600043505859375,17.54160234375C18.083243505859375,17.54160234375,18.475043505859375,17.14980234375,18.475043505859375,16.66660234375Q18.475043505859375,14.40038234375,17.599043505859377,12.32946234375Q16.753343505859377,10.32984234375,15.211693505859374,8.78822234375Q13.670063505859375,7.24659234375,11.670453505859374,6.40082934375Z"></path><path d="M17.691143505859372,12.29050234375Q16.837843505859375,10.27293234375,15.282403505859374,8.71751234375Q13.726963505859375,7.16208234375,11.709403505859374,6.30872834375Q9.619803505859375,5.42490234375,7.333343505859375,5.42490234375Q6.929485505859375,5.42490234375,6.643914505859375,5.71047334375Q6.358343505859375,5.99604434375,6.358343505859375,6.39990234375Q6.358343505859375,6.80376234375,6.643914505859375,7.08933234375Q6.929485505859375,7.37490234375,7.333343505859375,7.37490234375Q11.182083505859374,7.37490234375,13.903543505859375,10.09637234375Q16.625043505859374,12.817822343749999,16.625043505859374,16.66660234375Q16.625043505859374,17.07040234375,16.910543505859373,17.35600234375Q17.196143505859375,17.64160234375,17.600043505859375,17.64160234375Q18.003843505859376,17.64160234375,18.289443505859374,17.35600234375Q18.575043505859377,17.07040234375,18.575043505859377,16.66660234375Q18.575043505859377,14.38014234375,17.691143505859372,12.29050234375ZM11.631493505859375,6.49292934375Q13.613113505859374,7.3310823437499995,15.140983505859374,8.85893234375Q16.668843505859375,10.38676234375,17.506943505859375,12.36841234375Q18.375043505859374,14.42068234375,18.375043505859374,16.66660234375Q18.375043505859374,16.987602343749998,18.148043505859377,17.214602343750002Q17.921043505859373,17.44160234375,17.600043505859375,17.44160234375Q17.279043505859377,17.44160234375,17.052043505859373,17.214602343750002Q16.825043505859377,16.987602343749998,16.825043505859377,16.66660234375Q16.824943505859373,12.73500234375,14.044963505859375,9.95494234375Q11.264923505859375,7.17490234375,7.333343505859375,7.17490234375Q7.012328505859375,7.17490234375,6.785335505859375,6.94791234375Q6.558343505859375,6.72092234375,6.558343405859375,6.39990234375Q6.558343405859375,6.07888634375,6.785335505859375,5.85189434375Q7.012327505859375,5.62490234375,7.333343505859375,5.62490234375Q9.579243505859374,5.62490084375,11.631493505859375,6.49292934375Z"></path></g><circle cx="7.917" cy="16.083" r="1.167"></circle><path d="M22.35,18.5L22.35,5.5Q22.35,3.9052800000000003,21.2224,2.777639Q20.0947,1.65,18.5,1.65L5.5,1.65Q3.9052800000000003,1.65,2.777639,2.777639Q1.65,3.9052800000000003,1.65,5.5L1.65,18.5Q1.65,20.0947,2.777639,21.2224Q3.9052800000000003,22.35,5.5,22.35L18.5,22.35Q20.0947,22.35,21.2224,21.2224Q22.35,20.0947,22.35,18.5ZM20.65,10L20.65,18.5Q20.65,19.3906,20.0203,20.0203Q19.3906,20.65,18.5,20.65L5.5,20.65Q4.60944,20.65,3.97972,20.0203Q3.35,19.3906,3.35,18.5L3.35,5.5Q3.35,4.60944,3.97972,3.97972Q4.60944,3.35,5.5,3.35L18.5,3.35Q19.3906,3.35,20.0203,3.97972Q20.65,4.60944,20.65,5.5L20.65,10Z" fill-rule="evenodd"></path></symbol>
<symbol xmlns="http://www.w3.org/2000/svg" viewBox="0 0 24 24" id="rss"><path fill="none" d="M0 0H24V24H0z"></path><path d="M7.5 14C6.1 14 5 15.1 5 16.5S6.1 19 7.5 19s2.5-1.1 2.5-2.5S8.9 14 7.5 14zM7.5 18C6.7 18 6 17.3 6 16.5S6.7 15 7.5 15 9 15.7 9 16.5 8.3 18 7.5 18zM6.5 10v1c3.6 0 6.5 2.9 6.5 6.5h1C14 13.4 10.6 10 6.5 10z"></path><path d="M6.5,5v1C12.8,6,18,11.2,18,17.5h1C19,10.6,13.4,5,6.5,5z"></path></symbol>
</svg>