<svg xmlns="http://www.w3.org/2000/svg" xmlns:xlink="http://www.w3.org/1999/xlink" style="position: absolute; width: 0; height: 0" aria-hidden="true" id="__SVG_SPRITE_NODE__">
<symbol xmlns="http://www.w3.org/2000/svg" fill="none" viewBox="0 0 80 80" id="scan_complete"><path d="M73.33352434082032,39.999941235351564Q73.33352434082032,40.818241235351564,73.2933243408203,41.63554123535156Q73.2531243408203,42.45284123535156,73.17292434082032,43.26724123535156Q73.09272434082031,44.081541235351565,72.9727243408203,44.89094123535156Q72.85262434082031,45.70044123535156,72.69302434082032,46.502941235351564Q72.53332434082031,47.30554123535156,72.33452434082031,48.09934123535156Q72.13572434082032,48.89304123535156,71.89812434082032,49.676141235351565Q71.6606243408203,50.45914123535156,71.38492434082032,51.229641235351565Q71.10932434082031,52.00004123535156,70.79612434082031,52.75604123535156Q70.48302434082032,53.51204123535156,70.1331243408203,54.25184123535156Q69.78322434082031,54.99154123535156,69.39752434082031,55.71324123535156Q69.01182434082031,56.43484123535156,68.59112434082031,57.136741235351565Q68.17042434082032,57.83864123535156,67.71582434082032,58.51894123535156Q67.26122434082032,59.19934123535156,66.77372434082031,59.85664123535156Q66.28632434082031,60.51384123535156,65.76712434082032,61.14644123535156Q65.24802434082031,61.77894123535156,64.69852434082031,62.385241235351565Q64.14902434082032,62.99154123535156,63.57042434082031,63.570141235351564Q62.99172434082031,64.14884123535157,62.385424340820315,64.69834123535156Q61.77912434082031,65.24784123535156,61.14662434082031,65.76694123535157Q60.51402434082031,66.28614123535156,59.85682434082031,66.77354123535156Q59.19952434082031,67.26104123535157,58.51912434082031,67.71564123535157Q57.83882434082031,68.17024123535157,57.136924340820315,68.59094123535156Q56.43502434082031,69.01164123535156,55.71342434082031,69.39734123535156Q54.99172434082031,69.78304123535156,54.25202434082031,70.13294123535155Q53.51222434082031,70.48284123535157,52.75622434082031,70.79594123535156Q52.00022434082031,71.10914123535156,51.229824340820315,71.38474123535157Q50.45932434082031,71.66044123535156,49.676324340820315,71.89794123535157Q48.89322434082031,72.13554123535157,48.09952434082031,72.33434123535156Q47.30572434082031,72.53314123535156,46.503124340820314,72.69284123535157Q45.70062434082031,72.85244123535156,44.89112434082031,72.97254123535156Q44.081724340820315,73.09254123535156,43.26742434082031,73.17274123535157Q42.45302434082031,73.25294123535156,41.63572434082031,73.29314123535156Q40.818424340820314,73.33334123535157,40.000124340820314,73.33334123535157Q39.18182434082031,73.33334123535157,38.36452434082031,73.29314123535156Q37.547224340820314,73.25294123535156,36.73292434082031,73.17274123535157Q35.91852434082031,73.09254123535156,35.109124340820316,72.97254123535156Q34.29972434082031,72.85244123535156,33.497124340820314,72.69284123535157Q32.69462434082031,72.53314123535156,31.900824340820314,72.33434123535156Q31.107024340820313,72.13554123535157,30.324024340820312,71.89794123535157Q29.54092434082031,71.66044123535156,28.770524340820312,71.38474123535157Q28.000024340820314,71.10914123535156,27.244024340820314,70.79594123535156Q26.488024340820314,70.48284123535157,25.74832434082031,70.13294123535155Q25.00862434082031,69.78304123535156,24.286924340820313,69.39734123535156Q23.56522434082031,69.01164123535156,22.863424340820313,68.59094123535156Q22.161524340820314,68.17024123535157,21.481124340820312,67.71564123535157Q20.800724340820313,67.26104123535157,20.143524340820314,66.77354123535156Q19.486224340820314,66.28614123535156,18.853724340820314,65.76694123535157Q18.22112434082031,65.24784123535156,17.614824340820313,64.69834123535156Q17.008524340820312,64.14884123535157,16.42993434082031,63.57024123535156Q15.851314340820313,62.99154123535156,15.301784340820312,62.385241235351565Q14.752254340820313,61.77894123535156,14.233144340820314,61.14644123535156Q13.714024340820313,60.51384123535156,13.226574340820314,59.85664123535156Q12.739114340820311,59.19934123535156,12.284504340820313,58.51894123535156Q11.829884340820312,57.83864123535156,11.409204340820313,57.136741235351565Q10.988524340820312,56.43484123535156,10.602784340820312,55.71324123535156Q10.217044340820312,54.99154123535156,9.867184340820312,54.25184123535156Q9.517314340820313,53.51204123535156,9.204174340820312,52.75604123535156Q8.891024340820312,52.00004123535156,8.615354340820312,51.229641235351565Q8.339684340820313,50.45914123535156,8.102144340820313,49.676141235351565Q7.864614340820312,48.89304123535156,7.6657823408203125,48.09934123535156Q7.466954340820313,47.30554123535156,7.307315340820312,46.502941235351564Q7.147675340820313,45.70044123535156,7.027607340820312,44.89094123535156Q6.907539340820312,44.081541235351565,6.827333340820313,43.26724123535156Q6.747127240820313,42.45284123535156,6.706975840820313,41.63554123535156Q6.6668243408203125,40.818241235351564,6.6668243408203125,39.999941235351564Q6.6668243408203125,39.18164123535156,6.706975840820313,38.36434123535156Q6.747127240820313,37.547041235351564,6.827333340820313,36.73274123535156Q6.907539340820312,35.91834123535156,7.027607340820312,35.108941235351566Q7.147675340820313,34.29954123535156,7.307315340820312,33.496941235351564Q7.466954340820313,32.69444123535156,7.6657823408203125,31.900641235351564Q7.864614340820312,31.106841235351563,8.102144340820313,30.323841235351562Q8.339684340820313,29.54074123535156,8.615354340820312,28.770341235351562Q8.891024340820312,27.999841235351564,9.204174340820312,27.243841235351564Q9.517314340820313,26.487841235351564,9.867184340820312,25.74814123535156Q10.217044340820312,25.00844123535156,10.602784340820312,24.286741235351563Q10.988524340820312,23.56504123535156,11.409204340820313,22.863241235351563Q11.829884340820312,22.161341235351564,12.284504340820313,21.480941235351562Q12.739114340820311,20.800541235351563,13.226574340820314,20.143341235351564Q13.714024340820313,19.486041235351564,14.233144340820314,18.853541235351564Q14.752254340820313,18.22094123535156,15.301784340820312,17.614641235351563Q15.851314340820313,17.008341235351562,16.42993434082031,16.42975123535156Q17.008524340820312,15.851131235351563,17.614824340820313,15.301601235351562Q18.22112434082031,14.752071235351563,18.853724340820314,14.232961235351564Q19.486224340820314,13.713841235351563,20.143524340820314,13.226391235351564Q20.800724340820313,12.738931235351561,21.481124340820312,12.284321235351563Q22.161524340820314,11.829701235351562,22.863424340820313,11.409021235351563Q23.56522434082031,10.988341235351562,24.286924340820313,10.602601235351562Q25.00862434082031,10.216861235351562,25.74832434082031,9.867001235351562Q26.488024340820314,9.517131235351563,27.244024340820314,9.203991235351562Q28.000024340820314,8.890841235351562,28.770524340820312,8.615171235351562Q29.54092434082031,8.339501235351563,30.324024340820312,8.101961235351563Q31.107024340820313,7.864431235351562,31.900824340820314,7.6655992353515625Q32.69462434082031,7.466771235351563,33.497124340820314,7.307132235351562Q34.29972434082031,7.147492235351563,35.109124340820316,7.027424235351562Q35.91852434082031,6.907356235351562,36.73292434082031,6.827150235351563Q37.547224340820314,6.746944135351563,38.36452434082031,6.706792735351563Q39.18182434082031,6.6666412353515625,40.000124340820314,6.6666412353515625Q40.818424340820314,6.6666412353515625,41.63572434082031,6.706792735351563Q42.45302434082031,6.746944135351563,43.26742434082031,6.827150235351563Q44.081724340820315,6.907356235351562,44.89112434082031,7.027424235351562Q45.70062434082031,7.147492235351563,46.503124340820314,7.307132235351562Q47.30572434082031,7.466771235351563,48.09952434082031,7.6655992353515625Q48.89322434082031,7.864431235351562,49.676324340820315,8.101961235351563Q50.45932434082031,8.339501235351563,51.229824340820315,8.615171235351562Q52.00022434082031,8.890841235351562,52.75622434082031,9.203991235351562Q53.51222434082031,9.517131235351563,54.25202434082031,9.867001235351562Q54.99172434082031,10.216861235351562,55.71342434082031,10.602601235351562Q56.43502434082031,10.988341235351562,57.136924340820315,11.409021235351563Q57.83882434082031,11.829701235351562,58.51912434082031,12.284321235351563Q59.19952434082031,12.738931235351561,59.85682434082031,13.226391235351564Q60.51402434082031,13.713841235351563,61.14662434082031,14.232961235351564Q61.77912434082031,14.752071235351563,62.385424340820315,15.301601235351562Q62.99172434082031,15.851131235351563,63.570324340820314,16.42975123535156Q64.14902434082032,17.008341235351562,64.69852434082031,17.614641235351563Q65.24802434082031,18.22094123535156,65.76712434082032,18.853541235351564Q66.28632434082031,19.486041235351564,66.77372434082031,20.143341235351564Q67.26122434082032,20.800541235351563,67.71582434082032,21.480941235351562Q68.17042434082032,22.161341235351564,68.59112434082031,22.863241235351563Q69.01182434082031,23.56504123535156,69.39752434082031,24.286741235351563Q69.78322434082031,25.00844123535156,70.1331243408203,25.74814123535156Q70.48302434082032,26.487841235351564,70.79612434082031,27.243841235351564Q71.10932434082031,27.999841235351564,71.38492434082032,28.770341235351562Q71.6606243408203,29.54074123535156,71.89812434082032,30.323841235351562Q72.13572434082032,31.106841235351563,72.33452434082031,31.900641235351564Q72.53332434082031,32.69444123535156,72.69302434082032,33.496941235351564Q72.85262434082031,34.29954123535156,72.9727243408203,35.108941235351566Q73.09272434082031,35.91834123535156,73.17292434082032,36.73274123535156Q73.2531243408203,37.547041235351564,73.2933243408203,38.36434123535156Q73.33352434082032,39.18164123535156,73.33352434082032,39.999941235351564Z" fill="#0CCE9C"></path><path d="M56.8916,32.22272Q57.100300000000004,31.99821,57.2635,31.73878Q57.4267,31.47935,57.538799999999995,31.19408Q57.6509,30.908808,57.708,30.607657Q57.765,30.306506,57.765,30Q57.765,29.839601,57.749300000000005,29.679974Q57.733599999999996,29.520347,57.7023,29.36303Q57.671,29.205713,57.6244,29.052221Q57.577799999999996,28.89873,57.5165,28.75054Q57.4551,28.60235,57.3795,28.46089Q57.3039,28.31943,57.2147,28.18606Q57.1256,28.0527,57.0239,27.92871Q56.9221,27.80472,56.8087,27.6913Q56.6953,27.57788,56.5713,27.47612Q56.4473,27.37437,56.313900000000004,27.28525Q56.1806,27.19614,56.039100000000005,27.12053Q55.8976,27.04492,55.7495,26.983530000000002Q55.601299999999995,26.92215,55.4478,26.87559Q55.2943,26.82903,55.137,26.79774Q54.9797,26.76644,54.82,26.75072Q54.660399999999996,26.735,54.5,26.735Q54.322,26.735,54.144999999999996,26.75436Q53.968,26.77372,53.794200000000004,26.8122Q53.620400000000004,26.85069,53.4518,26.90784Q53.2832,26.965,53.1218,27.04015Q52.9604,27.1153,52.808099999999996,27.20756Q52.6558,27.29981,52.5145,27.408079999999998Q52.3732,27.51634,52.2445,27.63933Q52.115700000000004,27.76232,52.0012,27.89857L36.6342,45.278L28.82997,37.71276Q28.60203,37.48056,28.33274,37.29791Q28.06345,37.11526,27.76341,36.98935Q27.463367,36.86344,27.144378,36.79922Q26.825389,36.735,26.5,36.735Q26.339601,36.735,26.179974,36.75072Q26.020347,36.76644,25.86303,36.79774Q25.705713,36.82903,25.552221,36.87559Q25.39873,36.92215,25.25054,36.98353Q25.10235,37.04491,24.96089,37.12053Q24.81943,37.19614,24.68606,37.28525Q24.5527,37.37436,24.42871,37.47612Q24.30472,37.57788,24.1913,37.6913Q24.07788,37.80471,23.97612,37.92871Q23.87437,38.05269,23.78525,38.18606Q23.69614,38.31943,23.62053,38.46089Q23.54492,38.60235,23.483530000000002,38.75054Q23.42215,38.89873,23.37559,39.05222Q23.32903,39.205709999999996,23.29774,39.36303Q23.26644,39.52035,23.25072,39.67997Q23.235,39.839600000000004,23.235,40Q23.235,40.3382,23.30432,40.669200000000004Q23.37365,41.000299999999996,23.50936,41.3101Q23.64506,41.6199,23.84139,41.8953Q24.03771,42.1707,24.28632,42.4L34.54409,52.343599999999995Q34.5978,52.395700000000005,34.65384,52.4452Q34.77397,52.5514,34.90393,52.645399999999995Q35.03389,52.7393,35.17243,52.82Q35.31097,52.900800000000004,35.45675,52.9675Q35.60254,53.0343,35.75417,53.0865Q35.9058,53.1386,36.06181,53.1757Q36.21782,53.2127,36.37671,53.234300000000005Q36.5356,53.2559,36.6958,53.2618Q36.8561,53.267700000000005,37.0161,53.2578Q37.1762,53.248000000000005,37.3345,53.2225Q37.4928,53.1971,37.6479,53.1562Q37.8029,53.115300000000005,37.9532,53.0595Q38.1035,53.0036,38.2476,52.9332Q38.3917,52.862899999999996,38.5282,52.778800000000004Q38.664699999999996,52.6947,38.7924,52.5976Q38.92,52.5005,39.0374,52.3913Q39.1549,52.2822,39.2611,52.162099999999995L56.8916,32.22272Z" fill-rule="evenodd" fill="#FFFFFF"></path></symbol>
</svg>