<svg xmlns="http://www.w3.org/2000/svg" xmlns:xlink="http://www.w3.org/1999/xlink" style="position: absolute; width: 0; height: 0" aria-hidden="true" id="__SVG_SPRITE_NODE__">
<symbol xmlns="http://www.w3.org/2000/svg" viewBox="0 0 24 24" id="schedule-hide-hierarchy"><path d="M3.25 5.5C2.559644 5.5 2 4.94036 2 4.25 2 3.559644 2.559644 3 3.25 3L21.25 3C21.9404 3 22.5 3.559644 22.5 4.25 22.5 4.94036 21.9404 5.5 21.25 5.5L3.25 5.5zM5.25 13C4.55964 13 4 12.44036 4 11.75 4 11.05964 4.55964 10.5 5.25 10.5L21.25 10.5C21.9404 10.5 22.5 11.05964 22.5 11.75 22.5 12.44036 21.9404 13 21.25 13L5.25 13zM12.6001 20.5C12.2196 19.9113 12 19.3455 12 18.9 12 18.6247 12.0839 18.3187 12.2378 18L7.25 18C6.55964 18 6 18.5596 6 19.25 6 19.9404 6.55964 20.5 7.25 20.5L12.6001 20.5zM14.995406948547362 16.706699237060548Q15.358476948547363 17.121586237060548 15.896146948547363 17.419006237060547 16.515156948547364 17.761419237060547 17.261896948547363 17.891909237060545 17.681276948547364 17.96520923706055 18.11648694854736 17.96520923706055 18.551696948547363 17.96520923706055 18.971076948547363 17.891909237060545 19.717816948547362 17.761419237060547 20.336816948547362 17.419006237060547 20.874496948547364 17.121587237060545 21.237556948547365 16.706699237060548C21.381656948547363 16.54204123706055 21.58525694854736 16.441366837060546 21.803576948547363 16.426824217060545 21.82182694854736 16.425608396060547 21.84011694854736 16.425000011920545 21.858406948547362 16.424999952316547 22.058256948547363 16.425000786780547 22.251316948547363 16.497544737060547 22.401706948547364 16.629154237060547 22.566366948547362 16.773246237060548 22.667036948547363 16.976847237060547 22.681576948547363 17.195167237060545 22.682786948547363 17.213329237060545 22.68339694854736 17.231526237060546 22.683406948547365 17.249727237060547L22.683406948547365 17.249727237060547C22.683406948547365 17.449849237060548 22.610856948547365 17.642909237060547 22.479246948547363 17.79329923706055L22.479246948547363 17.79329923706055 22.478266948547365 17.794429237060548Q22.266196948547364 18.036599237060546 22.019326948547363 18.250149237060548L22.580016948547364 18.805069237060547 22.580016948547364 18.805069237060547C22.73577694854736 18.959239237060547 22.823786948547365 19.168619237060547 22.82491694854736 19.387429237060548L22.824926948547365 19.391689237060547C22.824926948547365 19.609019237060547 22.739176948547364 19.817569237060546 22.586296948547364 19.972029237060546 22.43238694854736 20.127549237060546 22.22299694854736 20.215549237060547 22.004196948547364 20.216679237060546L21.999926948547362 20.216689237060546C21.78260694854736 20.216689237060546 21.574056948547366 20.130939237060545 21.419586948547362 19.978059237060545L20.569406948547364 19.136629237060546Q20.353136948547363 19.227039237060545 20.127966948547364 19.300669237060546L20.347266948547365 20.11516923706055 20.347266948547365 20.11516923706055C20.364816948547364 20.180329237060548 20.374286948547365 20.247029237060545 20.375576948547362 20.314139237060548 20.375576948547362 20.314139237060548 20.375736948547363 20.329999237060548 20.375736948547363 20.329999237060548 20.375736948547363 20.474479237060546 20.337786948547365 20.616429237060547 20.26570694854736 20.741629237060547 20.156526948547363 20.931259237060548 19.976506948547364 21.069739237060546 19.765226948547365 21.12662923706055 19.700406948547364 21.144079237060545 19.633706948547363 21.15355923706055 19.566586948547364 21.154849237060546 19.566586948547364 21.154849237060546 19.550736948547364 21.154999237060547 19.550736948547364 21.154999237060547 19.406256948547362 21.154999237060547 19.264306948547365 21.117059237060545 19.139096948547362 21.04496923706055 18.949476948547364 20.935799237060547 18.810986948547363 20.755769237060548 18.754106948547363 20.544489237060546L18.754106948547363 20.544489237060546 18.500956948547362 19.604269237060546Q18.309726948547365 19.615209237060547 18.11648694854736 19.615209237060547 17.928396948547363 19.615209237060547 17.742206948547363 19.60484923706055L17.506146948547364 20.533129237060546C17.415356948547362 20.890169237060547 17.099126948547365 21.143689237060546 16.73107694854736 21.154639237060547 16.73107694854736 21.154639237060547 16.706546948547363 21.154999237060547 16.706546948547363 21.154999237060547 16.63797694854736 21.154999237060547 16.569676948547365 21.146449237060548 16.503226948547365 21.129549237060548 16.146376948547363 21.038809237060548 15.892856948547363 20.722579237060547 15.881906948547364 20.354529237060547 15.881906948547364 20.354529237060547 15.881546948547363 20.329999237060548 15.881546948547363 20.329999237060548 15.881546948547363 20.261429237060547 15.890096948547363 20.193129237060546 15.906996948547363 20.126679237060547L16.116116948547365 19.304299237060548Q15.893476948547363 19.231969237060547 15.679516948547363 19.143279237060547L14.895986948547364 19.962079237060546C14.744716948547364 20.120159237060548 14.536836948547363 20.211679237060547 14.318082948547364 20.216489237060546 14.318082948547364 20.216489237060546 14.300783948547362 20.216689237060546 14.300783948547362 20.216689237060546L14.300783948547362 20.216689237060546C14.087408948547363 20.216689237060546 13.883087948547363 20.134679237060546 13.729542948547364 19.987749237060548 13.571458448547363 19.836479237060548 13.479942028547363 19.62859923706055 13.475126683547364 19.40984923706055 13.475126683547364 19.40984923706055 13.474926948547363 19.391689237060547 13.474926948547363 19.391689237060547 13.474926948547363 19.179169237060545 13.556937048547363 18.974849237060546 13.703866948547363 18.821309237060547L14.233817948547363 18.267499237060548Q13.974832948547363 18.045969237060547 13.753718948547363 17.79329923706055C13.627713948547363 17.649309237060546 13.555676248547364 17.465999237060547 13.549936748547363 17.274746237060548 13.549936748547363 17.274746237060548 13.549565548547363 17.249999237060546 13.549565548547363 17.249999237060546 13.549565548547363 17.231706237060546 13.550173948547362 17.213418237060548 13.551389848547363 17.195166237060548 13.565932548547364 16.976846237060546 13.666606948547363 16.773245237060546 13.831265948547363 16.629153237060546 13.975255948547364 16.503148037060548 14.158565948547363 16.431110027060548 14.349817948547363 16.425370574060548 14.349817948547363 16.425370574060548 14.374565948547364 16.424999237060547 14.374565948547364 16.424999237060547 14.392858948547364 16.424999237060547 14.411146948547364 16.425607681060548 14.429398948547362 16.426823557060548 14.647716948547362 16.441366337060547 14.851316948547364 16.542040237060547 14.995406948547362 16.706699237060548z" fill-rule="evenodd"></path></symbol>
<symbol xmlns="http://www.w3.org/2000/svg" viewBox="0 0 24 24" id="schedule-hide-note"><path d="M2.4546051025390625,18.6818L2.4546051025390625,5.31818C2.4546051025390625,3.20946,4.1640651025390625,1.50000283472,6.272785102539062,1.5L17.727305102539063,1.5C19.836005102539062,1.5,21.545505102539064,3.20946,21.545505102539064,5.31818L21.545505102539064,14.7932C21.00100510253906,15.1799,20.341905102539062,15.6459,19.63640510253906,16.0422L19.63640510253906,5.31818Q19.63640510253906,4.52741,19.07730510253906,3.96825Q18.518105102539064,3.40909,17.727305102539063,3.40909L13.909105102539062,3.40909L13.909105102539062,11.04545C13.909105102539062,11.832,13.011105102539062,12.281,12.381875102539063,11.8091L10.148235102539061,10.13386C10.114295102539064,10.10841,10.067625102539061,10.10841,10.033695102539063,10.13386L7.800055102539062,11.8091C7.170785102539062,12.281,6.272785102539062,11.832,6.272785102539062,11.04545L6.272785102539062,3.40909Q5.482015102539062,3.40909,4.922855102539062,3.96825Q4.3636951025390625,4.52741,4.3636951025390625,5.31818L4.3636951025390625,18.6818Q4.3636951025390625,19.4726,4.922855102539062,20.0317Q5.482015102539062,20.5909,6.272785102539062,20.5909L13.133305102539062,20.5909C13.795805102539063,21.2786,14.708305102539063,21.9653,15.761505102539063,22.5L6.272785102539062,22.5C4.1640651025390625,22.5,2.4546051025390625,20.7905,2.4546051025390625,18.6818ZM8.181875102539063,3.40909L12.000055102539063,3.40909L12.000055102539063,9.13636L11.293695102539063,8.60659Q10.759145102539062,8.205680000000001,10.090965102539062,8.205680000000001Q9.422785102539063,8.205680000000001,8.888235102539063,8.60659L8.181875102539063,9.13636L8.181875102539063,3.40909Z" fill-rule="evenodd"></path><path d="M15.995529018859862,16.756503924560548Q16.358599018859863,17.171390924560548,16.89626901885986,17.468810924560547Q17.515279018859864,17.811223924560547,18.262019018859863,17.941713924560545Q18.681399018859864,18.01501392456055,19.11660901885986,18.01501392456055Q19.551819018859863,18.01501392456055,19.971199018859863,17.941713924560545Q20.717939018859862,17.811223924560547,21.336939018859862,17.468810924560547Q21.874619018859864,17.171391924560545,22.237679018859865,16.756503924560548C22.381779018859863,16.59184592456055,22.58537901885986,16.491171524560546,22.803699018859863,16.476628904560545C22.82194901885986,16.475413083560547,22.84023901885986,16.474804699420545,22.858529018859862,16.474804639816547C23.058379018859863,16.474805474280547,23.251439018859863,16.547349424560547,23.401829018859864,16.678958924560547C23.566489018859862,16.823050924560548,23.667159018859863,17.026651924560547,23.681699018859863,17.244971924560545C23.682909018859863,17.263133924560545,23.68351901885986,17.281330924560546,23.683529018859865,17.299531924560547L23.683529018859865,17.299531924560547C23.683529018859865,17.499653924560548,23.610979018859865,17.692713924560547,23.479369018859863,17.84310392456055L23.479369018859863,17.84310392456055L23.478389018859865,17.844233924560548Q23.266319018859864,18.086403924560546,23.019449018859863,18.299953924560548L23.580139018859864,18.854873924560547L23.580139018859864,18.854873924560547C23.73589901885986,19.009043924560547,23.823909018859865,19.218423924560547,23.82503901885986,19.437233924560548L23.825049018859865,19.441493924560547C23.825049018859865,19.658823924560547,23.739299018859864,19.867373924560546,23.586419018859864,20.021833924560546C23.43250901885986,20.177353924560546,23.22311901885986,20.265353924560547,23.004319018859864,20.266483924560546L23.000049018859862,20.266493924560546C22.78272901885986,20.266493924560546,22.574179018859866,20.180743924560545,22.419709018859862,20.027863924560545L21.569529018859864,19.186433924560546Q21.353259018859863,19.276843924560545,21.128089018859864,19.350473924560546L21.347389018859865,20.16497392456055L21.347389018859865,20.16497392456055C21.364939018859864,20.230133924560548,21.374409018859865,20.296833924560545,21.375699018859862,20.363943924560548C21.375699018859862,20.363943924560548,21.375859018859863,20.379803924560548,21.375859018859863,20.379803924560548C21.375859018859863,20.524283924560546,21.337909018859865,20.666233924560547,21.26582901885986,20.791433924560547C21.156649018859863,20.981063924560548,20.976629018859864,21.119543924560546,20.765349018859865,21.17643392456055C20.700529018859864,21.193883924560545,20.633829018859863,21.20336392456055,20.566709018859864,21.204653924560546C20.566709018859864,21.204653924560546,20.550859018859864,21.204803924560547,20.550859018859864,21.204803924560547C20.406379018859862,21.204803924560547,20.264429018859865,21.166863924560545,20.139219018859862,21.09477392456055C19.949599018859864,20.985603924560547,19.811109018859863,20.805573924560548,19.754229018859863,20.594293924560546L19.754229018859863,20.594293924560546L19.501079018859862,19.654073924560546Q19.309849018859865,19.665013924560547,19.11660901885986,19.665013924560547Q18.928519018859863,19.665013924560547,18.742329018859863,19.65465392456055L18.506269018859864,20.582933924560546C18.415479018859862,20.939973924560547,18.099249018859865,21.193493924560546,17.73119901885986,21.204443924560547C17.73119901885986,21.204443924560547,17.706669018859863,21.204803924560547,17.706669018859863,21.204803924560547C17.63809901885986,21.204803924560547,17.569799018859865,21.196253924560548,17.503349018859865,21.179353924560548C17.146499018859863,21.088613924560548,16.89297901885986,20.772383924560547,16.882029018859864,20.404333924560547C16.882029018859864,20.404333924560547,16.881669018859863,20.379803924560548,16.881669018859863,20.379803924560548C16.881669018859863,20.311233924560547,16.890219018859863,20.242933924560546,16.907119018859863,20.176483924560547L17.116239018859865,19.354103924560548Q16.893599018859863,19.281773924560547,16.679639018859863,19.193083924560547L15.896109018859864,20.011883924560546C15.744839018859864,20.169963924560548,15.536959018859863,20.261483924560547,15.318205018859864,20.266293924560546C15.318205018859864,20.266293924560546,15.300906018859862,20.266493924560546,15.300906018859862,20.266493924560546L15.300906018859862,20.266493924560546C15.087531018859863,20.266493924560546,14.883210018859863,20.184483924560546,14.729665018859864,20.037553924560548C14.571580518859863,19.886283924560548,14.480064098859863,19.67840392456055,14.475248753859864,19.45965392456055C14.475248753859864,19.45965392456055,14.475049018859863,19.441493924560547,14.475049018859863,19.441493924560547C14.475049018859863,19.228973924560545,14.557059118859863,19.024653924560546,14.703989018859863,18.871113924560547L15.233940018859863,18.317303924560548Q14.974955018859863,18.095773924560547,14.753841018859863,17.84310392456055C14.627836018859863,17.699113924560546,14.555798318859864,17.515803924560547,14.550058818859863,17.324550924560548C14.550058818859863,17.324550924560548,14.549687618859863,17.299803924560546,14.549687618859863,17.299803924560546C14.549687618859863,17.281510924560546,14.550296018859862,17.263222924560548,14.551511918859863,17.244970924560548C14.566054618859864,17.026650924560546,14.666729018859863,16.823049924560546,14.831388018859863,16.678957924560546C14.975378018859864,16.552952724560548,15.158688018859863,16.480914714560548,15.349940018859863,16.475175261560548C15.349940018859863,16.475175261560548,15.374688018859864,16.474803924560547,15.374688018859864,16.474803924560547C15.392981018859864,16.474803924560547,15.411269018859864,16.475412368560548,15.429521018859862,16.476628244560548C15.647839018859862,16.491171024560547,15.851439018859864,16.591844924560547,15.995529018859862,16.756503924560548Z" fill-rule="evenodd"></path></symbol>
<symbol xmlns="http://www.w3.org/2000/svg" viewBox="0 0 24 24" id="schedule-nodate"><path d="M0.9999889731407166,6.00756L0.9999914035607166,17.9924C0.9999914012907165,20.2016,2.7508589731407165,22,4.9599889731407165,22C9.653328973140717,22,14.346688973140717,22,19.039988973140716,22C21.249188973140715,22,22.999988973140717,20.2016,22.999988973140717,17.9924C22.999988973140717,14.8465,22.999988973140717,11.44211,22.999988973140717,8.200009999999999L22.999988973140717,6.20001L22.999988973140717,6.00755C22.999988973140717,3.79842,21.177188973140716,2,18.968088973140716,2L4.995128973140717,2C2.7859889731407166,2,0.9999889731407166,3.79842,0.9999889731407166,6.00756ZM20.999988973140717,6.20001L20.999988973140717,5.98951C20.999988973140717,4.88494,20.113288973140715,4,19.008688973140718,4L14.996088973140717,4.00001C11.661188973140716,4.00002,8.326188973140717,4.000030000000001,4.9912389731407165,4.00001C3.8866589731407166,4.00001,2.9999889731407166,4.884930000000001,2.9999889731407166,5.98951L2.9999889731407166,6.20001L20.999988973140717,6.20001ZM2.9999789731407165,8.200009999999999L2.9999689731407164,8.70745C2.999958973140717,11.79763,2.9999389731407167,15.1333,2.9999689731407164,18.0105C2.9999889731407166,19.115,3.8866989731407164,20,4.991258973140717,20L8.165028973140718,20C11.779588973140717,20,15.394188973140716,20,19.008788973140717,20C20.113288973140715,20,20.999988973140717,19.1151,20.999988973140717,18.0105C20.999988973140717,15.0265,20.999988973140717,11.54922,20.999988973140717,8.36419L20.999988973140717,8.200009999999999L2.9999789731407165,8.200009999999999Z" fill-rule="evenodd"></path><path d="M6.5,13.5C6.5,14.05228,6.947715,14.5,7.5,14.5L16.5,14.5C17.052300000000002,14.5,17.5,14.05228,17.5,13.5C17.5,12.947715,17.052300000000002,12.5,16.5,12.5L7.5,12.5C6.947715,12.5,6.5,12.947715,6.5,13.5Z"></path></symbol>
<symbol xmlns="http://www.w3.org/2000/svg" viewBox="0 0 24 24" id="schedule-overdue"><path d="M0.9999914035607166,17.9924L0.9999889731407166,6.00756C0.9999889731407166,3.79842,2.7859889731407166,2,4.995128973140717,2L18.968088973140716,2C21.177188973140716,2,22.999988973140717,3.79842,22.999988973140717,6.00755L22.999988973140717,8.200009999999999C22.999988973140717,11.44211,22.999988973140717,14.8465,22.999988973140717,17.9924C22.999988973140717,20.2016,21.249188973140715,22,19.039988973140716,22C14.346688973140717,22,9.653328973140717,22,4.9599889731407165,22C2.7508589731407165,22,0.9999914012907165,20.2016,0.9999914035607166,17.9924ZM20.999988973140717,6.20001L20.999988973140717,5.98951C20.999988973140717,4.88494,20.113288973140715,4,19.008688973140718,4L14.996088973140717,4.00001C11.661188973140716,4.00002,8.326188973140717,4.000030000000001,4.9912389731407165,4.00001C3.8866589731407166,4.00001,2.9999889731407166,4.884930000000001,2.9999889731407166,5.98951L2.9999889731407166,6.20001L20.999988973140717,6.20001ZM2.9999789731407165,8.200009999999999L20.999988973140717,8.200009999999999L20.999988973140717,8.36419C20.999988973140717,11.54922,20.999988973140717,15.0265,20.999988973140717,18.0105C20.999988973140717,19.1151,20.113288973140715,20,19.008788973140717,20C15.394188973140716,20,11.779588973140717,20,8.165028973140718,20L4.991258973140717,20C3.8866989731407164,20,2.9999889731407166,19.115,2.9999689731407164,18.0105C2.9999389731407167,15.1333,2.999958973140717,11.79763,2.9999689731407164,8.70745L2.9999789731407165,8.200009999999999ZM9.030148973140717,10.76772L6.153208973140717,13.3492L6.148448973140717,13.3535Q5.960858973140716,13.5218,5.888588973140717,13.7509Q5.864578973140716,13.8269,5.855488973140717,13.9055Q5.843748973140716,14.007,5.857208973140716,14.1083Q5.870678973140716,14.2095,5.908688973140716,14.3057Q5.946698973140717,14.4018,6.007388973140716,14.488Q6.068068973140717,14.5743,6.148448973140717,14.6464L6.154188973140717,14.6515L9.030158973140717,17.2322Q9.101108973140716,17.2958,9.184548973140716,17.3459Q9.267978973140716,17.395899999999997,9.360688973140716,17.430300000000003Q9.453398973140716,17.4648,9.551818973140717,17.4824Q9.650228973140717,17.4999,9.750578973140717,17.4999Q9.850928973140716,17.4999,9.949348973140717,17.4824Q10.047758973140716,17.4648,10.140468973140717,17.430300000000003Q10.233178973140717,17.395899999999997,10.316618973140717,17.3459Q10.400048973140716,17.2958,10.471008973140716,17.2322Q10.614308973140716,17.1036,10.691858973140716,16.9356Q10.769418973140716,16.7676,10.769418973140716,16.5857Q10.769418973140716,16.4039,10.691858973140716,16.2359Q10.614308973140716,16.0679,10.471008973140716,15.9393L9.336168973140717,14.921L17.234288973140718,14.921Q17.324288973140717,14.921,17.412588973140718,14.9034Q17.500888973140718,14.8858,17.584088973140716,14.8514Q17.667288973140717,14.8169,17.742188973140717,14.7669Q17.816988973140717,14.7169,17.880688973140717,14.6532Q17.94438897314072,14.5895,17.994388973140715,14.5147Q18.044388973140716,14.4398,18.078888973140717,14.3566Q18.113288973140715,14.2734,18.130888973140717,14.1851Q18.148488973140715,14.0968,18.148488973140715,14.0067Q18.148488973140715,13.9167,18.130888973140717,13.8284Q18.113288973140715,13.7401,18.078888973140717,13.6569Q18.044388973140716,13.5737,17.994388973140715,13.4988Q17.94438897314072,13.424,17.880688973140717,13.3603Q17.816988973140717,13.2966,17.742188973140717,13.2466Q17.667288973140717,13.1966,17.584088973140716,13.1621Q17.500888973140718,13.1277,17.412588973140718,13.1101Q17.324288973140717,13.0925,17.234288973140718,13.0925L9.320998973140716,13.0925L10.470998973140716,12.0606Q10.614298973140716,11.93203,10.691858973140716,11.76402Q10.769408973140717,11.59602,10.769408973140717,11.41417Q10.769408973140717,11.23232,10.691858973140716,11.06431Q10.614298973140716,10.89631,10.470998973140716,10.76772Q10.400038973140717,10.70405,10.316608973140717,10.65403Q10.233168973140717,10.604,10.140468973140717,10.56954Q10.047758973140716,10.53509,9.949338973140717,10.51752Q9.850918973140717,10.49995,9.750568973140716,10.49995Q9.650228973140717,10.49995,9.551808973140716,10.51752Q9.453388973140717,10.53509,9.360678973140717,10.56954Q9.267968973140716,10.604,9.184538973140716,10.65403Q9.101108973140716,10.70405,9.030148973140717,10.76772Z" fill-rule="evenodd"></path></symbol>
<symbol xmlns="http://www.w3.org/2000/svg" viewBox="0 0 24 24" id="schedule-show-hierarchy"><path d="M3.25,5.5C2.559644,5.5,2,4.94036,2,4.25C2,3.559644,2.559644,3,3.25,3L21.25,3C21.9404,3,22.5,3.559644,22.5,4.25C22.5,4.94036,21.9404,5.5,21.25,5.5L3.25,5.5ZM5.25,13C4.55964,13,4,12.44036,4,11.75C4,11.05964,4.55964,10.5,5.25,10.5L21.25,10.5C21.9404,10.5,22.5,11.05964,22.5,11.75C22.5,12.44036,21.9404,13,21.25,13L5.25,13ZM11.60007,20.5C11.21963,19.9113,11,19.3455,11,18.9C11,18.6247,11.08388,18.3187,11.23776,18L7.25,18C6.55964,18,6,18.5596,6,19.25C6,19.9404,6.55964,20.5,7.25,20.5L11.60007,20.5Z" fill-rule="evenodd"></path><path d="M17.8951994140625,15.318359375C15.3591194140625,15.318359375,13.2906494140625,18.197939375,13.2906494140625,18.899899375C13.2906494140625,19.601869375,15.3591194140625,22.480959375,17.8951994140625,22.480959375C20.4314794140625,22.480959375,22.4999994140625,19.601869375,22.4999994140625,18.899899375C22.4999994140625,18.197939375,20.4312894140625,15.318359375,17.8951994140625,15.318359375ZM17.8951994140625,20.527829375C16.9884394140625,20.527829375,16.2506694140625,19.797519375,16.2506694140625,18.899899375C16.2506694140625,18.002289375,16.9884394140625,17.271969375,17.8951994140625,17.271969375C18.8019594140625,17.271969375,19.5397994140625,18.002289375,19.5397994140625,18.899899375C19.5397994140625,19.797519375,18.8019594140625,20.527829375,17.8951994140625,20.527829375Z"></path></symbol>
<symbol xmlns="http://www.w3.org/2000/svg" viewBox="0 0 24 24" id="schedule-show-note"><path d="M2.454602003097534,5.318082367591858L2.454602003097534,18.681702367591857C2.454602003097534,20.79040236759186,4.164062003097534,22.499902367591858,6.272782003097534,22.499902367591858L13.079902003097533,22.499902367591858C12.484302003097534,21.943902367591857,11.984442003097534,21.298802367591858,11.667542003097534,20.59080236759186L6.272782003097534,20.59080236759186Q5.482012003097534,20.59080236759186,4.922852003097534,20.03160236759186Q4.363692003097534,19.472502367591858,4.363692003097534,18.681702367591857L4.363692003097534,5.318082367591858Q4.363692003097534,4.527312367591858,4.922852003097534,3.9681523675918577Q5.482012003097534,3.408992367591858,6.272782003097534,3.408992367591858L6.272782003097534,11.045352367591859C6.272782003097534,11.831902367591859,7.170782003097534,12.280902367591858,7.800052003097534,11.809002367591859L10.033692003097535,10.133762367591858C10.067622003097533,10.108312367591857,10.114292003097535,10.108312367591857,10.148232003097533,10.133762367591858L12.381872003097534,11.809002367591859C13.011102003097534,12.280902367591858,13.909102003097534,11.831902367591859,13.909102003097534,11.045352367591859L13.909102003097534,3.408992367591858L17.727302003097535,3.408992367591858Q18.518102003097535,3.408992367591858,19.077302003097532,3.9681523675918577Q19.636402003097533,4.527312367591858,19.636402003097533,5.318082367591858L19.636402003097533,14.410302367591857C20.333702003097535,14.599602367591858,20.977702003097534,14.883802367591858,21.545502003097535,15.234702367591858L21.545502003097535,5.318082367591858C21.545502003097535,3.209362367591858,19.836002003097533,1.499902367591858,17.727302003097535,1.499902367591858L6.272782003097534,1.499902367591858C4.164062003097534,1.499905202311858,2.454602003097534,3.209362367591858,2.454602003097534,5.318082367591858ZM12.000052003097535,3.408992367591858L8.181872003097535,3.408992367591858L8.181872003097535,9.136262367591858L8.888232003097535,8.606492367591859Q9.422782003097534,8.205582367591859,10.090962003097534,8.205582367591859Q10.759142003097534,8.205582367591859,11.293692003097535,8.606492367591859L12.000052003097535,9.136262367591858L12.000052003097535,3.408992367591858ZM12.988502003097533,19.230602367591857C12.988502003097533,18.49350236759186,15.160402003097534,15.470102367591858,17.823302003097535,15.470102367591858C20.486202003097535,15.470102367591858,22.658302003097536,18.49350236759186,22.658302003097536,19.230602367591857C22.658302003097536,19.96760236759186,20.486402003097535,22.991102367591857,17.823302003097535,22.991102367591857C15.160402003097534,22.991102367591857,12.988502003097533,19.96760236759186,12.988502003097533,19.230602367591857ZM16.096502003097534,19.230602367591857C16.096502003097534,20.17300236759186,16.871202003097537,20.93990236759186,17.823302003097535,20.93990236759186C18.775402003097533,20.93990236759186,19.550002003097536,20.17300236759186,19.550002003097536,19.230602367591857C19.550002003097536,18.288102367591858,18.775402003097533,17.521302367591858,17.823302003097535,17.521302367591858C16.871202003097537,17.521302367591858,16.096502003097534,18.288102367591858,16.096502003097534,19.230602367591857Z" fill-rule="evenodd"></path></symbol>
<symbol xmlns="http://www.w3.org/2000/svg" viewBox="0 0 20 20" id="schedule-tasks"><path d="M17.599,5.535c-0.261-0.489-0.645-0.873-1.134-1.134c-0.147-0.079-0.294-0.146-0.464-0.202L16,3 c0-0.552-0.448-1-1-1l-0.117,0.007C14.386,2.065,14,2.487,14,3v1L6,3.999V3c0-0.552-0.448-1-1-1S4,2.448,4,3l0,1.198 c-0.17,0.056-0.317,0.124-0.465,0.203C3.046,4.662,2.662,5.046,2.401,5.535S2,6.509,2,7.846v6.308c0,1.337,0.139,1.822,0.401,2.311 s0.645,0.873,1.134,1.134S4.509,18,5.846,18h8.308c1.337,0,1.822-0.139,2.311-0.401s0.873-0.645,1.134-1.134S18,15.491,18,14.154 V7.846C18,6.509,17.861,6.024,17.599,5.535z M13.419,9.056l-5.004,4.879c-0.1,0.098-0.217,0.178-0.344,0.238l-1.365,0.638 c-0.146,0.068-0.314,0.011-0.375-0.127c-0.032-0.072-0.029-0.157,0.008-0.232l0.654-1.331c0.061-0.124,0.144-0.238,0.244-0.335 l5.004-4.878c0.347-0.338,0.892-0.355,1.217-0.038C13.783,8.187,13.766,8.718,13.419,9.056z" fill-rule="evenodd" clip-rule="evenodd"></path></symbol>
<symbol xmlns="http://www.w3.org/2000/svg" viewBox="0 0 24 24" id="schedule"><path d="M1,4.5L1,19.5C1,21.433,2.567,23,4.5,23L19.5,23C21.433,23,23,21.433,23,19.5L23,4.5C23,2.567,21.433,1,19.5,1L4.5,1C2.567,1,1,2.567,1,4.5ZM3.43934,20.5607Q3,20.1213,3,19.5L3,11L21,11L21,19.5Q21,20.1213,20.5607,20.5607Q20.1213,21,19.5,21L4.5,21Q3.87868,21,3.43934,20.5607ZM21,9L21,4.5Q21,3.87868,20.5607,3.43934Q20.1213,3,19.5,3L4.5,3Q3.87868,3,3.43934,3.43934Q3,3.87868,3,4.5L3,9L21,9ZM8,6Q8,6.09849,7.98078,6.19509Q7.96157,6.29169,7.92388,6.38268Q7.88619,6.47368,7.83147,6.55557Q7.77675,6.63746,7.70711,6.70711Q7.63746,6.77675,7.55557,6.83147Q7.47368,6.88619,7.38268,6.92388Q7.29169,6.96157,7.19509,6.98078Q7.09849,7,7,7Q6.90151,7,6.80491,6.98078Q6.70831,6.96157,6.61732,6.92388Q6.52632,6.88619,6.44443,6.83147Q6.36254,6.77675,6.29289,6.70711Q6.22325,6.63746,6.16853,6.55557Q6.11381,6.47368,6.07612,6.38268Q6.03843,6.29169,6.01921,6.19509Q6,6.09849,6,6Q6,5.90151,6.01921,5.80491Q6.03843,5.70831,6.07612,5.61732Q6.11381,5.52632,6.16853,5.44443Q6.22325,5.36254,6.29289,5.29289Q6.36254,5.22325,6.44443,5.16853Q6.52632,5.11381,6.61732,5.07612Q6.70831,5.03843,6.80491,5.01921Q6.90151,5,7,5Q7.09849,5,7.19509,5.01921Q7.29169,5.03843,7.38268,5.07612Q7.47368,5.11381,7.55557,5.16853Q7.63746,5.22325,7.70711,5.29289Q7.77675,5.36254,7.83147,5.44443Q7.88619,5.52632,7.92388,5.61732Q7.96157,5.70831,7.98078,5.80491Q8,5.90151,8,6ZM18,6Q18,6.09849,17.9808,6.19509Q17.9616,6.29169,17.9239,6.38268Q17.8862,6.47368,17.8315,6.55557Q17.7767,6.63746,17.7071,6.70711Q17.6375,6.77675,17.5556,6.83147Q17.4737,6.88619,17.3827,6.92388Q17.2917,6.96157,17.1951,6.98078Q17.0985,7,17,7Q16.9015,7,16.8049,6.98078Q16.7083,6.96157,16.6173,6.92388Q16.5263,6.88619,16.4444,6.83147Q16.3625,6.77675,16.2929,6.70711Q16.2232,6.63746,16.1685,6.55557Q16.113799999999998,6.47368,16.0761,6.38268Q16.0384,6.29169,16.019199999999998,6.19509Q16,6.09849,16,6Q16,5.90151,16.019199999999998,5.80491Q16.0384,5.70831,16.0761,5.61732Q16.113799999999998,5.52632,16.1685,5.44443Q16.2232,5.36254,16.2929,5.29289Q16.3625,5.22325,16.4444,5.16853Q16.5263,5.11381,16.6173,5.07612Q16.7083,5.03843,16.8049,5.01921Q16.9015,5,17,5Q17.0985,5,17.1951,5.01921Q17.2917,5.03843,17.3827,5.07612Q17.4737,5.11381,17.5556,5.16853Q17.6375,5.22325,17.7071,5.29289Q17.7767,5.36254,17.8315,5.44443Q17.8862,5.52632,17.9239,5.61732Q17.9616,5.70831,17.9808,5.80491Q18,5.90151,18,6Z" fill-rule="evenodd"></path></symbol>
</svg>