<svg xmlns="http://www.w3.org/2000/svg" xmlns:xlink="http://www.w3.org/1999/xlink" style="position: absolute; width: 0; height: 0" aria-hidden="true" id="__SVG_SPRITE_NODE__">
<symbol xmlns="http://www.w3.org/2000/svg" viewBox="0 0 24 24" id="setting-about"><path d="M6.419754064483643,6.419754064483643Q4.108334064483643,8.731164064483643,4.108334064483643,12.000004064483644Q4.108334064483643,15.268834064483643,6.419754064483643,17.58023406448364Q8.731144064483644,19.891634064483643,12.000004064483644,19.891634064483643Q15.268834064483643,19.891634064483643,17.58023406448364,17.58023406448364Q19.891634064483643,15.268834064483643,19.891634064483643,12.000004064483644Q19.891634064483643,8.731164064483643,17.58023406448364,6.419754064483643Q15.268834064483643,4.108334064483643,12.000004064483644,4.108334064483643Q8.731164064483643,4.108334064483643,6.419754064483643,6.419754064483643ZM14.309834064483642,6.165574064483643Q15.518134064483643,6.643954064483642,16.437134064483644,7.562904064483643Q17.356034064483644,8.481854064483642,17.834434064483645,9.690204064483643Q18.27503406448364,10.803094064483641,18.27503406448364,12.000004064483644Q18.27503406448364,13.196904064483643,17.834434064483645,14.309834064483642Q17.356034064483644,15.518134064483643,16.437134064483644,16.437134064483644Q15.518134064483643,17.356034064483644,14.309834064483642,17.834434064483645Q13.196904064483643,18.27503406448364,12.000004064483644,18.27503406448364Q10.803094064483641,18.27503406448364,9.690204064483643,17.834434064483645Q8.481854064483642,17.356034064483644,7.562904064483643,16.437134064483644Q6.643954064483642,15.518134064483643,6.165574064483643,14.309834064483642Q5.725004064483643,13.196924064483643,5.725004064483643,12.000004064483644Q5.725004064483643,10.803084064483642,6.165574064483643,9.690204064483643Q6.643954064483642,8.481854064483642,7.562904064483643,7.562904064483643Q8.481854064483642,6.643954064483642,9.690204064483643,6.165574064483643Q10.803084064483642,5.725004064483643,12.000004064483644,5.725004064483643Q13.196924064483643,5.725004064483643,14.309834064483642,6.165574064483643ZM11.301864064483642,8.115704064483642Q11.013244064483644,8.404324064483642,11.013244064483644,8.812504064483644Q11.013244064483644,9.220674064483642,11.301864064483642,9.509294064483644Q11.590484064483643,9.797914064483642,11.998654064483642,9.797914064483642Q12.406834064483643,9.797914064483642,12.695454064483643,9.509294064483644Q12.984074064483643,9.220674064483642,12.984074064483643,8.812504064483644Q12.984074064483643,8.404324064483642,12.695454064483643,8.115704064483642Q12.406824064483642,7.827084064483643,11.998654064483642,7.827084064483643Q11.590484064483643,7.827084064483643,11.301864064483642,8.115704064483642ZM12.571614064483642,10.542964064483643Q12.334864064483643,10.306214064483642,12.000044064483642,10.306214064483642Q11.665214064483642,10.306214064483642,11.428464064483641,10.542964064483643Q11.191704064483643,10.779724064483641,11.191704064483643,11.114544064483642L11.191704064483643,15.364534064483642Q11.191704064483643,15.699334064483642,11.428464064483641,15.936134064483642Q11.665224064483642,16.172834064483645,12.000044064483642,16.172834064483645Q12.334864064483643,16.172834064483645,12.571614064483642,15.936134064483642Q12.808374064483642,15.699334064483642,12.808374064483642,15.364534064483642L12.808374064483642,11.114544064483642Q12.808374064483642,10.779724064483641,12.571614064483642,10.542964064483643Z" fill-rule="evenodd"></path></symbol>
<symbol xmlns="http://www.w3.org/2000/svg" viewBox="0 0 24 24" id="setting-appearance"><path d="M4.900000095367432,5.953280095367432L4.900000095367432,8.853120095367432Q4.900000095367432,9.700000095367432,5.490227095367431,10.300660095367432Q6.0854400953674315,10.906380095367432,6.9296100953674316,10.906400095367431L16.353800095367433,10.90660009536743Q17.198000095367433,10.90660009536743,17.793200095367432,10.300780095367433Q18.38330009536743,9.700110095367432,18.38330009536743,8.853240095367433L18.38330009536743,5.953240095367432Q18.38330009536743,5.106360095367432,17.793200095367432,4.505732095367431Q17.198000095367433,3.9000000953674316,16.353800095367433,3.9000000953674316L6.929200095367431,3.9000000953674316Q6.0849700953674315,3.9000000953674316,5.489909095367432,4.505843095367432Q4.900000095367432,5.106440095367431,4.900000095367432,5.953280095367432ZM16.983300095367433,8.853240095367433Q16.983300095367433,9.127460095367432,16.794500095367432,9.319630095367431Q16.610900095367434,9.506600095367432,16.353800095367433,9.506600095367432L6.929640095367432,9.506400095367432Q6.672540095367432,9.506390095367433,6.488810095367432,9.31941009536743Q6.300000095367432,9.127270095367432,6.300000095367432,8.853120095367432L6.300000095367432,5.953280095367432Q6.300000095367432,5.678990095367432,6.488700095367432,5.486870095367432Q6.672250095367431,5.300000095367432,6.929200095367431,5.300000095367432L16.353800095367433,5.300000095367432Q16.610900095367434,5.300000095367432,16.794600095367432,5.486940095367432Q16.983300095367433,5.679060095367432,16.983300095367433,5.953240095367432L16.983300095367433,8.853240095367433ZM20.111700095367432,7.005050095367432Q19.906700095367434,6.800020095367431,19.61670009536743,6.800020095367431Q19.32680009536743,6.800020095367431,19.12170009536743,7.005050095367432Q18.916700095367432,7.210070095367431,18.916700095367432,7.500020095367432L18.916700095367432,9.833360095367432Q18.916700095367432,10.578950095367432,18.38950009536743,11.106150095367433Q17.86230009536743,11.633350095367431,17.11670009536743,11.633360095367433L13.366720095367432,11.633360095367433Q12.662560095367432,11.633360095367433,12.164640095367432,12.131280095367432Q11.666720095367431,12.629200095367432,11.666720095367431,13.333360095367432L11.666720095367431,13.583040095367432Q11.283870095367432,13.663680095367432,10.991940095367433,13.961000095367432Q10.596790095367432,14.363400095367432,10.596790095367432,14.929900095367431L10.596790095367432,17.369000095367433Q10.596790095367432,18.56710009536743,11.042070095367432,19.17630009536743Q11.498040095367433,19.80000009536743,12.400830095367432,19.80000009536743Q14.275500095367432,19.80000009536743,14.275500095367432,17.369000095367433L14.275500095367432,14.929900095367431Q14.275500095367432,14.363400095367432,13.880210095367431,13.960900095367432Q13.535970095367432,13.610430095367432,13.066720095367431,13.561230095367431L13.066720095367431,13.333360095367432Q13.066730095367431,13.033360095367431,13.366720095367432,13.033360095367431L17.11670009536743,13.033360095367431Q18.442200095367433,13.033360095367431,19.379500095367433,12.096100095367431Q20.31670009536743,11.158830095367431,20.31670009536743,9.833360095367432L20.31670009536743,7.500020095367432Q20.31670009536743,7.210080095367432,20.111700095367432,7.005050095367432ZM7.4702000953674315,11.839090095367432Q7.319640095367431,11.839090095367432,7.213510095367432,11.949580095367432Q5.499973095367432,13.733610095367432,5.4999760953674315,14.772200095367431Q5.499975095367431,15.601800095367432,6.076410095367431,16.18870009536743Q6.653580095367431,16.776300095367432,7.4702000953674315,16.776300095367432Q8.286820095367432,16.776300095367432,8.86399009536743,16.18870009536743Q9.440420095367433,15.601800095367432,9.440420095367433,14.772200095367431Q9.440430095367432,13.733610095367432,7.726890095367432,11.949580095367432Q7.620760095367432,11.839090095367432,7.4702000953674315,11.839090095367432ZM6.8999800953674315,14.772200095367431Q6.8999800953674315,14.639400095367431,7.1301100953674315,14.263500095367432Q7.268530095367431,14.037400095367431,7.4702000953674315,13.778030095367432Q7.6718700953674315,14.037400095367431,7.8102900953674315,14.263500095367432Q8.040420095367432,14.639400095367431,8.040420095367432,14.772200095367431Q8.040420095367432,15.029300095367432,7.865200095367431,15.207700095367432Q7.699550095367432,15.376300095367432,7.4702000953674315,15.376300095367432Q7.240850095367431,15.376300095367432,7.075200095367432,15.207700095367432Q6.8999800953674315,15.029300095367432,6.8999800953674315,14.772200095367431ZM12.400830095367432,18.40000009536743Q12.183590095367432,18.40000009536743,12.121170095367432,18.27670009536743Q11.996790095367432,18.03110009536743,11.996790095367432,17.369000095367433L11.996790095367432,14.953200095367432L12.875500095367432,14.953200095367432L12.875500095367432,17.369000095367433Q12.875500095367432,17.99160009536743,12.73026009536743,18.24970009536743Q12.645660095367433,18.40000009536743,12.400830095367432,18.40000009536743Z" fill-rule="evenodd"></path></symbol>
<symbol xmlns="http://www.w3.org/2000/svg" viewBox="0 0 24 24" id="setting-collaborate"><path d="M8.246370095367432,5.598760095367432Q7.547600095367432,6.297520095367432,7.547610095367432,7.285710095367431Q7.547610095367432,8.273910095367432,8.246370095367432,8.97267009536743Q8.945130095367432,9.67143009536743,9.933320095367431,9.67143009536743Q10.92152009536743,9.67143009536743,11.62028009536743,8.97267009536743Q12.319030095367431,8.273910095367432,12.319040095367432,7.285710095367431Q12.319030095367431,6.297520095367432,11.62028009536743,5.598760095367432Q10.92152009536743,4.900000095367432,9.933320095367431,4.900000095367432Q8.945130095367432,4.900000095367432,8.246370095367432,5.598760095367432ZM9.236320095367432,6.588710095367432Q9.52503009536743,6.300000095367432,9.933320095367431,6.300000095367432Q10.341620095367432,6.300000095367432,10.630330095367432,6.588710095367432Q10.919040095367432,6.877420095367432,10.919040095367432,7.285710095367431Q10.919040095367432,7.694010095367432,10.630330095367432,7.982720095367432Q10.341620095367432,8.271430095367432,9.933320095367431,8.271430095367432Q9.52503009536743,8.271430095367432,9.236320095367432,7.982720095367432Q8.94761009536743,7.694010095367432,8.94761009536743,7.285710095367431Q8.94761009536743,6.877420095367432,9.236320095367432,6.588710095367432ZM12.913110095367431,8.265390095367431Q12.214360095367432,8.964140095367432,12.21435009536743,9.952340095367433Q12.214360095367432,10.940540095367432,12.913110095367431,11.639300095367432Q13.611880095367432,12.338050095367432,14.600100095367432,12.338050095367432Q15.588300095367432,12.338060095367432,16.287000095367432,11.639300095367432Q16.98580009536743,10.940540095367432,16.98580009536743,9.952340095367433Q16.98580009536743,8.964140095367432,16.287000095367432,8.265390095367431Q15.588300095367432,7.566630095367431,14.600100095367432,7.566630095367431Q13.611880095367432,7.566630095367431,12.913110095367431,8.265390095367431ZM13.903100095367432,9.255330095367432Q14.191800095367432,8.966630095367432,14.600100095367432,8.966630095367432Q15.008400095367431,8.966630095367432,15.297100095367432,9.255340095367432Q15.585800095367432,9.544040095367432,15.585800095367432,9.952340095367433Q15.585800095367432,10.360640095367431,15.297100095367432,10.649350095367431Q15.008400095367431,10.938050095367432,14.600100095367432,10.938050095367432Q14.191800095367432,10.938050095367432,13.903100095367432,10.649350095367431Q13.61436009536743,10.360630095367432,13.61436009536743,9.952340095367433Q13.61436009536743,9.544040095367432,13.903100095367432,9.255330095367432ZM5.300000095367432,14.600000095367431Q5.300000095367432,13.371170095367432,6.168910095367432,12.502260095367433Q7.037820095367431,11.633350095367431,8.266650095367432,11.633350095367431L10.314550095367432,11.633350095367431Q10.604500095367431,11.633350095367431,10.809520095367432,11.428320095367432Q11.014550095367433,11.223300095367431,11.014550095367433,10.933350095367432Q11.014550095367433,10.643400095367433,10.809520095367432,10.438370095367432Q10.604500095367431,10.233350095367431,10.314550095367432,10.233350095367431L8.266650095367432,10.233350095367431Q6.457920095367432,10.233350095367431,5.178960095367431,11.512310095367432Q3.9000000953674316,12.79127009536743,3.9000000953674316,14.600000095367431Q3.9000000953674316,15.649400095367431,4.642295095367432,16.39140009536743Q5.3844500953674315,17.13330009536743,6.433770095367432,17.13330009536743L7.664800095367432,17.13330009536743Q7.954740095367431,17.13330009536743,8.159770095367431,16.928300095367433Q8.364800095367432,16.72330009536743,8.364800095367432,16.433300095367432Q8.364800095367432,16.143400095367433,8.159770095367431,15.938400095367431Q7.954750095367432,15.733300095367431,7.664800095367432,15.733300095367431L6.433770095367432,15.733300095367431Q5.964220095367432,15.733300095367431,5.6320800953674315,15.401300095367432Q5.300000095367432,15.069300095367431,5.300000095367432,14.600000095367431ZM15.869900095367433,12.645970095367431L13.330240095367431,12.645970095367431Q11.605660095367432,12.645970095367431,10.386210095367431,13.865430095367431Q9.166750095367432,15.084900095367432,9.166750095367432,16.809500095367433Q9.166750095367432,17.692500095367432,9.791120095367432,18.316800095367434Q10.415490095367431,18.94120009536743,11.29849009536743,18.94120009536743L17.90170009536743,18.94120009536743Q18.784700095367434,18.94120009536743,19.409000095367432,18.316800095367434Q20.033400095367433,17.692500095367432,20.033400095367433,16.809500095367433Q20.033400095367433,15.084900095367432,18.814000095367433,13.865430095367431Q17.59450009536743,12.645980095367431,15.869900095367433,12.645970095367431ZM10.566750095367432,16.809500095367433Q10.566740095367432,15.664800095367431,11.376160095367432,14.855380095367432Q12.185560095367432,14.045980095367431,13.330240095367431,14.045970095367432L15.869900095367433,14.045970095367432Q17.01460009536743,14.045970095367432,17.82400009536743,14.855380095367432Q18.63340009536743,15.664800095367431,18.63340009536743,16.809500095367433Q18.63340009536743,17.112600095367434,18.419100095367433,17.32690009536743Q18.204800095367432,17.54120009536743,17.90170009536743,17.54120009536743L11.29849009536743,17.54120009536743Q10.995400095367431,17.54120009536743,10.781070095367433,17.32690009536743Q10.566750095367432,17.112600095367434,10.566750095367432,16.809500095367433Z" fill-rule="evenodd"></path></symbol>
<symbol xmlns="http://www.w3.org/2000/svg" viewBox="0 0 24 24" id="setting-date"><path d="M12.097025190734863,4.0657713413238525Q8.770305190734863,4.0657713413238525,6.417965190734863,6.418151341323853Q4.065625190734863,8.770511341323854,4.065625190734863,12.097241341323853Q4.065627098084863,15.423971341323853,6.417965190734863,17.776271341323852Q8.770315190734863,20.128571341323852,12.097035190734863,20.128571341323852Q15.423725190734864,20.128571341323852,17.776125190734863,17.776271341323852Q20.128425190734863,15.423971341323853,20.128525190734862,12.097241341323853Q20.128525190734862,8.770501341323852,17.776125190734863,6.418141341323853Q15.423725190734864,4.0657713413238525,12.097025190734863,4.0657713413238525ZM12.097025190734863,5.465771341323853Q14.843825190734863,5.465771341323853,16.78622519073486,7.4080913413238525Q18.728525190734864,9.350401341323852,18.728525190734864,12.097241341323853Q18.728525190734864,14.844071341323852,16.78622519073486,16.78637134132385Q14.843925190734863,18.728571341323853,12.097035190734863,18.728571341323853Q9.350185190734862,18.728571341323853,7.4079151907348635,16.78637134132385Q5.465625190734864,14.844071341323852,5.465625190734864,12.097241341323853Q5.465625190734864,9.350411341323852,7.4079151907348635,7.4080913413238525Q9.350215190734863,5.465771341323853,12.097025190734863,5.465771341323853ZM11.042785190734863,8.199961341323853Q11.042785190734863,7.868601341323853,11.277085190734862,7.6343013413238525Q11.511395190734863,7.400001341323852,11.842745190734863,7.400001341323852Q12.174095190734864,7.400001341323852,12.408395190734863,7.634291341323852Q12.642695190734864,7.868591341323853,12.642705190734864,8.199941341323854L12.642775190734863,11.499971341323853L14.800025190734864,11.499971341323853Q15.131325190734863,11.499971341323853,15.365625190734864,11.734281341323854Q15.599925190734863,11.968581341323851,15.599925190734863,12.299931341323852Q15.599925190734863,12.631281341323852,15.365625190734864,12.865581341323853Q15.131425190734863,13.099881341323853,14.800025190734864,13.099891341323852L11.850905190734863,13.099961341323853L11.842795190734863,13.100001341323853Q11.601665190734863,13.100001341323853,11.401415190734863,12.967311341323853Q11.042735190734863,12.729701341323853,11.042735190734863,12.299361341323852L11.042785190734863,12.291311341323853L11.042785190734863,8.199961341323853Z" fill-rule="evenodd"></path></symbol>
<symbol xmlns="http://www.w3.org/2000/svg" viewBox="0 0 24 24" id="setting-feature"><path d="M16.739600095367432,11.757944358215333Q16.89400009536743,11.665614358215333,17.02260009536743,11.536994358215331L19.57090009536743,8.988324358215332Q19.983300095367433,8.575944358215331,19.99390009536743,8.002854358215332Q20.00460009536743,7.427544358215332,19.60460009536743,7.027514358215332L17.148300095367432,4.571375358215332Q16.74820009536743,4.171332258215332,16.172600095367432,4.181854002215332Q15.599100095367431,4.192337058215332,15.186800095367431,4.604694358215332L12.638540095367432,7.152934358215332Q12.29483009536743,7.496634358215331,12.228800095367433,7.9708243582153315Q12.201800095367432,8.164734358215332,12.228820095367432,8.356734358215332Q12.291230095367432,8.800094358215333,12.605040095367432,9.113904358215333L15.061400095367432,11.570744358215332Q15.168000095367432,11.677384358215331,15.294900095367431,11.756874358215331Q16.00160009536743,12.199354358215333,16.739600095367432,11.757944358215333ZM10.789870095367432,5.186784358215332Q10.351900095367432,4.748809358215332,9.73251009536743,4.748809358215332L5.895340095367431,4.748809358215332Q5.275947095367432,4.748809358215332,4.837973095367432,5.186784358215332Q4.400000095367432,5.624764358215332,4.400000095367432,6.244154358215332L4.400000095367432,10.081364358215332Q4.400000095367432,10.700754358215331,4.837973095367432,11.138734358215332Q5.2759460953674315,11.576714358215332,5.895340095367431,11.576704358215332L9.73251009536743,11.576704358215332Q10.351900095367432,11.576704358215332,10.789870095367432,11.138734358215332Q11.227840095367432,10.700754358215331,11.227840095367432,10.081364358215332L11.227840095367432,6.244154358215332Q11.227840095367432,5.624764358215332,10.789870095367432,5.186784358215332ZM13.621610095367432,8.150584358215331L16.024700095367432,10.554144358215332Q16.02840009536743,10.551294358215333,16.03260009536743,10.547104358215332L18.58100009536743,7.998384358215333Q18.58490009536743,7.994414358215332,18.588200095367434,7.991024358215332L16.18460009536743,5.5876343582153325Q16.180900095367434,5.590464358215332,16.17670009536743,5.594644358215332L13.628490095367432,8.142884358215332Q13.624410095367432,8.146964358215332,13.621610095367432,8.150584358215331ZM5.800000095367432,10.081364358215332L5.800000095367432,6.244154358215332Q5.800000095367432,6.148804358215332,5.895340095367431,6.148804358215332L9.73251009536743,6.148804358215332Q9.827840095367431,6.148804358215332,9.827840095367431,6.244154358215332L9.827840095367431,10.081364358215332Q9.827840095367431,10.176714358215332,9.73251009536743,10.176714358215332L5.895340095367431,10.176714358215332Q5.800000095367432,10.176714358215332,5.800000095367432,10.081364358215332ZM4.837973095367432,19.16208435821533Q5.275947095367432,19.59998435821533,5.895340095367431,19.59998435821533L9.73251009536743,19.59998435821533Q10.351900095367432,19.59998435821533,10.789870095367432,19.16208435821533Q11.227840095367432,18.724084358215332,11.227840095367432,18.10468435821533L11.227840095367432,14.267484358215333Q11.227840095367432,13.648084358215332,10.789870095367432,13.210104358215332Q10.351900095367432,12.772124358215333,9.73251009536743,12.772124358215333L5.895340095367431,12.772124358215333Q5.275947095367432,12.772124358215333,4.837973095367432,13.210104358215332Q4.400000095367432,13.648084358215332,4.400000095367432,14.267484358215333L4.400000095367432,18.10468435821533Q4.400000095367432,18.724084358215332,4.837973095367432,19.16208435821533ZM12.86117009536743,13.210104358215332Q12.42320009536743,13.648084358215332,12.423190095367431,14.267484358215333L12.423190095367431,18.10468435821533Q12.42320009536743,18.724084358215332,12.86117009536743,19.16208435821533Q13.29914009536743,19.59998435821533,13.918530095367432,19.59998435821533L17.75570009536743,19.59998435821533Q18.37510009536743,19.59998435821533,18.81310009536743,19.16208435821533Q19.25100009536743,18.724084358215332,19.25100009536743,18.10468435821533L19.25100009536743,14.267484358215333Q19.25100009536743,13.648084358215332,18.81310009536743,13.210104358215332Q18.37510009536743,12.772124358215333,17.75570009536743,12.772124358215333L13.918530095367432,12.772124358215333Q13.29914009536743,12.772124358215333,12.86117009536743,13.210104358215332ZM5.800000095367432,18.10468435821533L5.800000095367432,14.267484358215333Q5.800000095367432,14.172124358215331,5.895340095367431,14.172124358215331L9.73251009536743,14.172124358215331Q9.772000095367432,14.172124358215331,9.799920095367431,14.200084358215332Q9.827840095367431,14.227984358215332,9.827840095367431,14.267484358215333L9.827840095367431,18.10468435821533Q9.827840095367431,18.199984358215332,9.73251009536743,18.199984358215332L5.895340095367431,18.199984358215332Q5.800000095367432,18.199984358215332,5.800000095367432,18.10468435821533ZM13.823190095367432,18.10468435821533L13.823190095367432,14.267484358215333Q13.823190095367432,14.172124358215331,13.918530095367432,14.172124358215331L17.75570009536743,14.172124358215331Q17.851000095367432,14.172124358215331,17.851000095367432,14.267484358215333L17.851000095367432,18.10468435821533Q17.851000095367432,18.199984358215332,17.75570009536743,18.199984358215332L13.918530095367432,18.199984358215332Q13.823190095367432,18.199984358215332,13.823190095367432,18.10468435821533Z" fill-rule="evenodd"></path></symbol>
<symbol xmlns="http://www.w3.org/2000/svg" viewBox="0 0 24 24" id="setting-integrations"><path d="M5.035107612609863,13.613770190734863L5.035107612609863,16.567600190734865Q5.035107612609863,17.766400190734863,5.674587612609863,18.45790019073486Q6.336427612609864,19.173600190734863,7.499997612609864,19.173600190734863L15.430407612609864,19.173600190734863Q16.597307612609864,19.173600190734863,17.263407612609864,18.470800190734863Q17.914807612609863,17.783400190734863,17.914807612609863,16.588700190734862L17.914807612609863,14.654270190734863Q18.364107612609864,14.829900190734863,18.823507612609863,14.829900190734863Q19.950107612609862,14.829900190734863,20.705307612609865,14.001980190734864Q21.435107612609862,13.201910190734864,21.435107612609862,12.034180190734864Q21.435107612609862,10.863100190734864,20.704907612609865,10.064010190734862Q19.950607612609865,9.238600190734864,18.823507612609863,9.238600190734864Q18.360907612609864,9.238600190734864,17.914807612609863,9.411550190734864L17.914807612609863,7.385010190734864Q17.914807612609863,6.190350190734863,17.263407612609864,5.5029361907348635Q16.597307612609864,4.800000190734863,15.430407612609864,4.800000190734863L7.499997612609864,4.800000190734863Q6.336427612609864,4.800000190734863,5.674586612609863,5.515720190734863Q5.035107612609863,6.207260190734863,5.035107612609863,7.406010190734863L5.035107612609863,10.375610190734864Q5.035107612609863,10.969730190734865,5.420179612609863,11.373840190734864Q5.813325612609863,11.786420190734862,6.3901376126098635,11.786430190734864Q6.985057612609864,11.786420190734862,7.470497612609863,11.303870190734862Q7.933667612609863,10.844040190734862,8.350827612609862,10.844040190734862Q8.760137612609864,10.844040190734862,9.035877612609863,11.147010190734864Q9.337597612609862,11.478530190734864,9.337597612609862,11.997440190734864Q9.337597612609862,12.515000190734863,9.036827612609862,12.844130190734862Q8.761467612609863,13.145460190734862,8.350827612609862,13.145460190734862Q7.933767612609863,13.145460190734862,7.470277612609863,12.685290190734865Q6.9851076126098635,12.203070190734863,6.3901376126098635,12.203080190734862Q5.813362612609863,12.203080190734862,5.4202376126098635,12.615540190734864Q5.035107612609863,13.019610190734863,5.035107612609863,13.613770190734863ZM6.435107612609864,13.632750190734864L6.435107612609864,16.567600190734865Q6.435107612609864,17.218300190734865,6.702467612609864,17.507400190734863Q6.9486476126098635,17.77360019073486,7.499997612609864,17.77360019073486L15.430407612609864,17.77360019073486Q15.978807612609863,17.77360019073486,16.245207612609864,17.484600190734863Q16.514807612609864,17.192100190734863,16.514807612609864,16.588700190734862L16.514807612609864,13.682250190734864Q16.514807612609864,13.137230190734863,16.96890761260986,12.906710190734863Q17.453607612609865,12.660700190734863,17.904107612609863,13.036350190734863Q18.39570761260986,13.429880190734863,18.823507612609863,13.429880190734863Q19.332207612609864,13.429880190734863,19.671007612609863,13.058500190734863Q20.035107612609863,12.659310190734864,20.035107612609863,12.034180190734864Q20.035107612609863,11.406420190734863,19.671407612609862,11.008420190734864Q19.333507612609864,10.638600190734863,18.823507612609863,10.638600190734863Q18.384507612609863,10.638600190734863,17.903007612609862,11.032970190734863Q17.442707612609865,11.404730190734863,16.961607612609864,11.153390190734864Q16.514807612609864,10.919940190734863,16.514807612609864,10.380980190734864L16.514807612609864,7.385010190734864Q16.514807612609864,6.200000190734864,15.430407612609864,6.200000190734864L7.499997612609864,6.200000190734864Q6.9486476126098635,6.200000190734864,6.702467612609864,6.466220190734863Q6.435107612609864,6.755350190734863,6.435107612609864,7.406010190734863L6.435107612609864,10.356680190734863Q6.455277612609863,10.339030190734864,6.4835576126098635,10.310920190734862Q7.356727612609863,9.444040190734864,8.350827612609862,9.444040190734864Q9.378977612609862,9.444040190734864,10.071257612609863,10.204680190734862Q10.737597612609864,10.936820190734863,10.737597612609864,11.997440190734864Q10.737597612609864,13.058340190734864,10.070307612609863,13.788550190734863Q9.378617612609863,14.545460190734863,8.350827612609862,14.545460190734863Q7.356807612609863,14.545460190734863,6.483857612609864,13.678760190734863Q6.455387612609863,13.650460190734863,6.435107612609864,13.632750190734864Z" fill-rule="evenodd"></path></symbol>
<symbol xmlns="http://www.w3.org/2000/svg" viewBox="0 0 24 24" id="setting-more"><path d="M7.766657697601318,12.133167493896483L16.23328769760132,12.133167493896483Q17.627887697601317,12.133177493896484,18.61388769760132,11.147097493896485Q19.599987697601318,10.161027493896484,19.599987697601318,8.766507493896484Q19.599987697601318,7.371977493896484,18.61388769760132,6.385911493896485Q17.627887697601317,5.399837493896484,16.23328769760132,5.399837493896484L7.766657697601318,5.399837493896484Q6.372137697601318,5.399837493896484,5.386060697601319,6.385911493896485Q4.399987697601318,7.3719874938964844,4.399987697601318,8.766507493896484Q4.399987697601318,10.161027493896484,5.386060697601319,11.147097493896485Q6.372137697601318,12.133177493896484,7.766657697601318,12.133167493896483ZM16.23328769760132,10.833167493896484L7.766657697601318,10.833167493896484Q6.910607697601318,10.833167493896484,6.305297697601318,10.227857493896485Q5.699987697601318,9.622547493896484,5.699987697601318,8.766507493896484Q5.699987697601318,7.910467493896484,6.305297697601318,7.305147493896484Q6.910607697601318,6.699837493896484,7.766657697601318,6.699837493896484L16.23328769760132,6.699837493896484Q17.089387697601317,6.699837493896484,17.694687697601317,7.305147493896484Q18.299987697601317,7.910457493896484,18.299987697601317,8.766507493896484Q18.299987697601317,9.622547493896484,17.694687697601317,10.227857493896485Q17.089387697601317,10.833177493896486,16.23328769760132,10.833167493896484ZM8.015617697601318,10.399897493896486C8.921707697601319,10.399897493896486,9.65624769760132,9.668637493896483,9.65624769760132,8.766567493896485C9.65624769760132,7.864507493896484,8.921707697601319,7.133237493896484,8.015617697601318,7.133237493896484C7.109527697601319,7.133237493896484,6.3749976976013185,7.864507493896484,6.3749976976013185,8.766567493896485C6.3749976976013185,9.668637493896483,7.109527697601319,10.399897493896486,8.015617697601318,10.399897493896486ZM7.766667697601319,19.599737493896484L16.23328769760132,19.599737493896484Q17.627887697601317,19.599737493896484,18.61388769760132,18.613637493896483Q19.599987697601318,17.627537493896483,19.599987697601318,16.233037493896482Q19.599987697601318,14.838537493896485,18.61388769760132,13.852467493896484Q17.627887697601317,12.866387493896484,16.23328769760132,12.866387493896484L7.766667697601319,12.866387493896484Q6.372147697601318,12.866387493896484,5.386073697601319,13.852467493896484Q4.400009632101319,14.838527493896484,4.400000095401318,16.233037493896482Q4.400009632101319,17.627537493896483,5.386073697601319,18.613637493896483Q6.372147697601318,19.599737493896484,7.766667697601319,19.599737493896484ZM16.23328769760132,18.299737493896487L7.766667697601319,18.299737493896487Q6.910627697601319,18.299737493896487,6.3053176976013185,17.694437493896487Q5.699997697601319,17.089137493896484,5.699997697601319,16.233037493896482Q5.700007697601318,15.377007493896484,6.3053176976013185,14.771707493896484Q6.910627697601319,14.166387493896485,7.766667697601319,14.166387493896485L16.23328769760132,14.166387493896485Q17.089387697601317,14.166387493896485,17.694687697601317,14.771707493896484Q18.299987697601317,15.377017493896485,18.299987697601317,16.233037493896482Q18.299987697601317,17.089137493896484,17.694687697601317,17.694437493896487Q17.089387697601317,18.299737493896487,16.23328769760132,18.299737493896487ZM15.984387697601319,17.866437493896484C15.078287697601318,17.866437493896484,14.343747697601318,17.135137493896487,14.343747697601318,16.233137493896486C14.343747697601318,15.331057493896484,15.078287697601318,14.599787493896484,15.984387697601319,14.599787493896484C16.89048769760132,14.599787493896484,17.62498769760132,15.331057493896484,17.62498769760132,16.233137493896486C17.62498769760132,17.135137493896487,16.89048769760132,17.866437493896484,15.984387697601319,17.866437493896484Z" fill-rule="evenodd"></path></symbol>
<symbol xmlns="http://www.w3.org/2000/svg" viewBox="0 0 24 24" id="setting-notification"><path d="M12.833040095367432,5.821280190734863L13.704590095367431,4.856702190734863L13.771630095367431,4.782504190734864L13.697430095367432,4.715462190734863Q12.960950095367432,4.050000190734863,11.961130095367432,4.050000190734863Q10.961330095367432,4.050000190734863,10.224840095367432,4.715462190734863Q9.687240095367432,5.201220190734864,9.427670095367432,5.918160190734863Q6.825850095367432,7.084750190734863,6.6630000953674315,11.430110190734863L6.650790095367432,11.566930190734864Q6.483570095367432,13.447260190734863,6.131220095367432,13.837800190734864L5.9474900953674315,14.031580190734863Q5.359466095367432,14.649100190734863,5.120873095367432,14.993900190734863Q4.650000095367432,15.674400190734863,4.650000095367432,16.32990019073486Q4.650000095367432,17.00070019073486,5.1357850953674316,17.420100190734864Q5.579681095367432,17.803400190734862,6.2599900953674315,17.803400190734862L9.276550095367432,17.803400190734862Q9.487710095367433,18.46540019073486,9.999770095367431,19.002600190734864Q10.826810095367431,19.870300190734863,11.961110095367431,19.870300190734863Q13.09489009536743,19.870300190734863,13.920840095367431,19.002100190734865Q14.431000095367432,18.465900190734864,14.643730095367431,17.803400190734862L17.65680009536743,17.803400190734862Q18.339900095367433,17.803400190734862,18.78460009536743,17.42110019073486Q19.27220009536743,17.001900190734865,19.27220009536743,16.32990019073486Q19.27220009536743,15.680400190734863,18.80770009536743,15.005700190734863Q18.57260009536743,14.664200190734864,17.99370009536743,14.053100190734863Q17.85350009536743,13.905070190734863,17.786900095367432,13.833300190734864Q17.43890009536743,13.449270190734863,17.27150009536743,11.567380190734863L17.25930009536743,11.430110190734863Q17.214900095367433,10.243460190734863,17.00070009536743,9.315570190734864L16.978200095367434,9.218140190734864L15.614100095367432,9.533030190734863L15.636600095367431,9.630470190734863Q15.822400095367431,10.435320190734863,15.860900095367432,11.499690190734864L15.861600095367432,11.518520190734863L15.863200095367432,11.537190190734863L15.877000095367432,11.691470190734863Q15.972100095367432,12.760080190734863,16.08040009536743,13.275470190734863Q16.288300095367433,14.264400190734863,16.76000009536743,14.784900190734863Q16.83230009536743,14.862700190734863,16.977300095367433,15.015900190734863Q17.872200095367432,15.960600190734864,17.872200095367432,16.32990019073486Q17.872200095367432,16.403400190734864,17.65680009536743,16.403400190734864L6.2599900953674315,16.403400190734864Q6.050000095367432,16.403400190734864,6.050000095367432,16.32990019073486Q6.050000095367432,15.954000190734863,6.9613300953674315,14.997000190734862Q7.0939100953674314,14.857800190734864,7.167910095367432,14.778700190734863Q7.6340500953674315,14.264300190734863,7.841910095367432,13.275210190734864Q7.950240095367432,12.759690190734863,8.045280095367431,11.690980190734862L8.059010095367432,11.537250190734863L8.060700095367432,11.518500190734862L8.061390095367432,11.499690190734864Q8.194730095367431,7.815770190734863,10.229570095367432,7.104590190734863L10.586180095367432,6.979960190734863L10.677750095367433,6.613460190734863Q10.813390095367431,6.070520190734863,11.163430095367431,5.754230190734863Q11.500140095367431,5.450000190734864,11.961130095367432,5.450000190734864Q12.422140095367432,5.450000190734864,12.758840095367432,5.754230190734863L12.833040095367432,5.821280190734863ZM12.906550095367432,18.03710019073486Q12.494460095367431,18.47030019073486,11.961110095367431,18.47030019073486Q11.426470095367431,18.47030019073486,11.013170095367432,18.036700190734862Q10.915080095367433,17.933800190734864,10.83697009536743,17.82370019073486L13.082810095367432,17.82370019073486Q13.004570095367432,17.934100190734863,12.906550095367432,18.03710019073486Z" fill-rule="evenodd"></path><path d="M15.52094298690796,8.807054579257965C16.631772986907958,8.807054579257965,17.55513298690796,7.903834579257965,17.55513298690796,6.807054579257965C17.55513298690796,5.705673579257965,16.631772986907958,4.807054579257965,15.52094298690796,4.807054579257965C14.400738986907959,4.807054579257965,13.486752986907959,5.705673579257965,13.486752986907959,6.807054579257965C13.486752986907959,7.903834579257965,14.400738986907959,8.807054579257965,15.52094298690796,8.807054579257965Z"></path></symbol>
<symbol xmlns="http://www.w3.org/2000/svg" viewBox="0 0 24 24" id="setting-premium"><path d="M12.000000190734863,5.050000190734863Q11.088730190734864,5.050000190734863,10.444360190734862,5.694365190734863Q9.800000190734863,6.338730190734863,9.800000190734863,7.2500001907348635Q9.800000190734863,8.100330190734864,10.361060190734865,8.718260190734863L9.182140190734863,10.827000190734864Q9.166180190734863,10.855550190734863,9.152950190734863,10.885470190734864Q9.038740190734863,11.143710190734863,8.796860190734863,11.134690190734863L7.529360190734863,10.117200190734863Q7.700000190734864,9.718940190734862,7.700000190734864,9.250000190734863Q7.700000190734864,8.338730190734864,7.055630190734863,7.694360190734863Q6.4112701907348635,7.050000190734863,5.5000001907348635,7.050000190734863Q4.588730190734863,7.050000190734863,3.9443651907348634,7.694360190734863Q3.3000001907348633,8.338730190734864,3.3000001907348633,9.250000190734863Q3.3000001907348633,10.161270190734864,3.9443651907348634,10.805630190734863Q4.308570190734863,11.169840190734863,4.758050190734863,11.328190190734864L5.594810190734863,15.482400190734863L6.064030190734863,17.811800190734864Q6.168290190734863,18.306900190734865,6.559090190734864,18.621700190734863Q6.947810190734863,18.934900190734865,7.447570190734863,18.934900190734865L11.982000190734864,18.949900190734866L12.583850190734863,18.949900190734866L16.554500190734863,18.934900190734865Q17.05230019073486,18.934900190734865,17.44100019073486,18.621700190734863Q17.831800190734864,18.306900190734865,17.93520019073486,17.816100190734865L18.405300190734863,15.482400190734863L19.242000190734863,11.328180190734862Q19.691400190734864,11.169820190734864,20.055600190734864,10.805630190734863Q20.700000190734862,10.161270190734864,20.700000190734862,9.250000190734863Q20.700000190734862,8.338730190734864,20.055600190734864,7.694370190734864Q19.411300190734863,7.050000190734863,18.500000190734863,7.050000190734863Q17.588700190734862,7.050000190734863,16.94440019073486,7.694370190734864Q16.300000190734863,8.338730190734864,16.300000190734863,9.250000190734863Q16.300000190734863,9.718950190734862,16.470600190734864,10.117210190734863L15.203200190734863,11.134690190734863Q14.961300190734864,11.143710190734863,14.847100190734864,10.885470190734864Q14.832900190734863,10.853540190734863,14.815700190734864,10.823200190734863L13.628300190734864,8.729930190734864Q14.200000190734864,8.108380190734863,14.200000190734864,7.2500001907348635Q14.200000190734864,6.338730190734863,13.555600190734863,5.694365190734863Q12.911270190734863,5.050000190734863,12.000000190734863,5.050000190734863ZM17.403600190734863,11.163590190734864L15.938200190734863,12.339900190734863Q15.819300190734863,12.435340190734863,15.671500190734863,12.472700190734862Q15.029000190734862,12.635050190734862,14.432800190734863,12.346720190734864Q13.852100190734863,12.065870190734863,13.582600190734864,11.486870190734862L12.407580190734864,9.415470190734863Q12.210940190734863,9.450000190734864,12.000000190734863,9.450000190734864Q11.780660190734864,9.450000190734864,11.576780190734864,9.412670190734863L10.418400190734864,11.484660190734864Q10.149000190734863,12.065330190734862,9.567190190734863,12.346720190734864Q8.971020190734864,12.635050190734862,8.328510190734864,12.472700190734862Q8.180700190734864,12.435340190734863,8.061810190734864,12.339900190734863L6.596450190734863,11.163590190734864Q6.402420190734864,11.277250190734863,6.189720190734864,11.345810190734863L6.854090190734864,14.644130190734863L17.146000190734863,14.644150190734864L17.810300190734864,11.345820190734862Q17.597600190734862,11.277270190734864,17.403600190734863,11.163590190734864ZM12.000000190734863,6.450000190734864Q12.331370190734864,6.450000190734864,12.565690190734863,6.684310190734863Q12.800000190734863,6.918630190734863,12.800000190734863,7.2500001907348635Q12.800000190734863,7.581370190734863,12.565690190734863,7.8156901907348635Q12.331370190734864,8.050000190734863,12.000000190734863,8.050000190734863Q11.668630190734863,8.050000190734863,11.434310190734863,7.8156901907348635Q11.200000190734864,7.581370190734863,11.200000190734864,7.2500001907348635Q11.200000190734864,6.918630190734863,11.434310190734863,6.684310190734863Q11.668630190734863,6.450000190734864,12.000000190734863,6.450000190734864ZM6.0656901907348635,9.815690190734863Q5.831370190734863,10.050000190734863,5.5000001907348635,10.050000190734863Q5.168630190734863,10.050000190734863,4.934310190734863,9.815690190734863Q4.700000190734864,9.581370190734862,4.700000190734864,9.250000190734863Q4.700000190734864,8.918630190734863,4.934310190734863,8.684310190734863Q5.168630190734863,8.450000190734864,5.5000001907348635,8.450000190734864Q5.831370190734863,8.450000190734864,6.0656901907348635,8.684310190734863Q6.300000190734863,8.918630190734863,6.300000190734863,9.250000190734863Q6.300000190734863,9.581370190734862,6.0656901907348635,9.815690190734863ZM19.065700190734866,8.684310190734863Q18.83140019073486,8.450000190734864,18.500000190734863,8.450000190734864Q18.168600190734864,8.450000190734864,17.934300190734863,8.684310190734863Q17.700000190734862,8.918630190734863,17.700000190734862,9.250000190734863Q17.700000190734862,9.581370190734862,17.934300190734863,9.815690190734863Q18.168600190734864,10.050000190734863,18.500000190734863,10.050000190734863Q18.83140019073486,10.050000190734863,19.065700190734866,9.815690190734863Q19.300000190734863,9.581370190734862,19.300000190734863,9.250000190734863Q19.300000190734863,8.918630190734863,19.065700190734866,8.684310190734863ZM7.448240190734864,17.534900190734863L11.985950190734863,17.549900190734864L12.582950190734863,17.549900190734864L16.550000190734863,17.534900190734863Q16.563700190734863,17.534900190734863,16.564900190734864,17.529300190734865L16.864000190734863,16.044100190734863L7.136090190734864,16.044100190734863L7.436100190734863,17.533600190734862Q7.436380190734863,17.534900190734863,7.448240190734864,17.534900190734863Z" fill-rule="evenodd"></path></symbol>
<symbol xmlns="http://www.w3.org/2000/svg" viewBox="0 0 24 24" id="setting-profile"><path d="M17.77450009536743,17.680299141693116Q15.394000095367431,20.099999141693115,12.000050095367431,20.099999141693115Q8.605380095367432,20.099999141693115,6.224760095367431,17.679499141693114Q3.8999939933374317,15.315799141693116,3.9000000953674316,11.999999141693115Q3.9000000953674316,8.644869141693114,6.272430095367431,6.272439141693115Q8.64487009536743,3.899993993343115,12.000000095367431,3.8999991416931152Q15.355100095367431,3.8999991416931152,17.727600095367432,6.272439141693115Q20.10000009536743,8.644849141693115,20.10000009536743,11.999999141693115Q20.10000009536743,15.316399141693115,17.77450009536743,17.680299141693116ZM18.700000095367432,11.999999141693115Q18.700000095367432,13.768359141693114,17.904300095367432,15.205299141693116Q17.717900095367433,14.983699141693116,17.50700009536743,14.782299141693116Q15.915900095367432,13.263539141693116,13.666670095367431,13.263529141693116L10.333330095367431,13.263529141693116Q9.030910095367432,13.263529141693116,7.877590095367432,13.822749141693116Q6.828850095367432,14.331299141693115,6.095640095367432,15.205199141693114Q5.300000095367432,13.768299141693115,5.300000095367432,11.999999141693115Q5.300000095367432,9.224759141693117,7.262380095367432,7.262389141693115Q9.224770095367433,5.299999141693116,12.000000095367431,5.299999141693116Q14.775200095367431,5.299999141693116,16.737600095367434,7.262389141693115Q18.700000095367432,9.224759141693117,18.700000095367432,11.999999141693115ZM12.000000095367431,12.827269141693115Q10.717300095367431,12.827269141693115,9.809630095367432,11.960869141693115Q8.900000095367432,11.092589141693114,8.900000095367432,9.863639141693115Q8.899990095367432,8.634689141693116,9.809630095367432,7.766409141693115Q10.717290095367431,6.899999141693115,12.000000095367431,6.899999141693115Q13.282720095367432,6.899999141693115,14.190400095367432,7.766409141693115Q15.100000095367431,8.634689141693116,15.100000095367431,9.863639141693115Q15.100000095367431,11.092579141693115,14.190400095367432,11.960869141693115Q13.282710095367431,12.827269141693115,12.000000095367431,12.827269141693115ZM13.223700095367432,8.779099141693116Q12.721790095367432,8.299999141693116,12.000000095367431,8.299999141693116Q11.27822009536743,8.299999141693116,10.776300095367432,8.779099141693116Q10.300000095367432,9.233749141693115,10.300000095367432,9.863639141693115Q10.300000095367432,10.493519141693115,10.776300095367432,10.948169141693114Q11.27822009536743,11.427269141693115,12.000000095367431,11.427269141693115Q12.721790095367432,11.427269141693115,13.223700095367432,10.948169141693114Q13.700000095367432,10.493519141693115,13.700000095367432,9.863639141693115Q13.700000095367432,9.233749141693115,13.223700095367432,8.779099141693116ZM16.54030009536743,15.794999141693115Q16.834100095367432,16.075499141693115,17.05660009536743,16.398699141693115Q16.904200095367433,16.570999141693115,16.737600095367434,16.737599141693117Q14.775200095367431,18.699999141693116,12.000000095367431,18.699999141693116Q9.224780095367432,18.699999141693116,7.262380095367432,16.737599141693117Q7.095840095367432,16.571099141693114,6.943470095367432,16.398799141693114Q7.437430095367432,15.675699141693116,8.231000095367431,15.218799141693115Q9.195190095367431,14.663499141693116,10.333330095367431,14.663499141693116L13.666670095367431,14.663499141693116Q15.355000095367432,14.663499141693116,16.54030009536743,15.794999141693115Z" fill-rule="evenodd"></path></symbol>
<symbol xmlns="http://www.w3.org/2000/svg" viewBox="0 0 24 24" id="setting-shortcuts"><path d="M6.324999904632568,6.200000286102295Q5.4033699046325685,6.200000286102295,4.751687904632568,6.851688286102295Q4.099999904632568,7.503380286102295,4.099999904632568,8.425000286102295L4.099999904632568,15.508330286102295Q4.099999904632568,16.430000286102295,4.751687904632568,17.081600286102294Q5.4033699046325685,17.733300286102295,6.324999904632568,17.733300286102295L17.658299904632567,17.733300286102295Q18.57999990463257,17.733300286102295,19.231599904632567,17.081600286102294Q19.88329990463257,16.430000286102295,19.88329990463257,15.508330286102295L19.88329990463257,8.425000286102295Q19.88329990463257,7.503370286102295,19.231599904632567,6.851687286102295Q18.57999990463257,6.200000286102295,17.658299904632567,6.200000286102295L6.324999904632568,6.200000286102295ZM17.658299904632567,16.333300286102293L6.324999904632568,16.333300286102293Q5.983269904632568,16.333300286102293,5.741639904632568,16.091700286102295Q5.499999904632569,15.850060286102295,5.499999904632569,15.508330286102295L5.499999904632569,8.425000286102295Q5.499999904632569,8.083270286102294,5.741639904632568,7.841640286102295Q5.983269904632568,7.600000286102295,6.324999904632568,7.600000286102295L17.658299904632567,7.600000286102295Q18.00009990463257,7.600000286102295,18.24169990463257,7.841640286102295Q18.483299904632567,8.083270286102294,18.483299904632567,8.425000286102295L18.483299904632567,15.508330286102295Q18.483299904632567,15.850060286102295,18.24169990463257,16.091700286102295Q18.00009990463257,16.333300286102293,17.658299904632567,16.333300286102293ZM8.31327990463257,9.978380286102295Q8.076529904632569,9.741630286102295,7.741709904632568,9.741630286102295Q7.406879904632568,9.741630286102295,7.170129904632568,9.978380286102295Q6.933369904632569,10.215140286102294,6.933369904632569,10.549960286102294Q6.933369904632569,10.884780286102295,7.170129904632568,11.121540286102295Q7.4068899046325685,11.358290286102296,7.741709904632568,11.358290286102296Q8.076529904632569,11.358290286102296,8.31327990463257,11.121540286102295Q8.55003990463257,10.884780286102295,8.55003990463257,10.549960286102294Q8.55003990463257,10.215140286102294,8.31327990463257,9.978380286102295ZM11.146539904632569,9.978380286102295Q10.909779904632568,9.741630286102295,10.574959904632568,9.741630286102295Q10.240139904632567,9.741630286102295,10.003379904632569,9.978380286102295Q9.766629904632568,10.215140286102294,9.766629904632568,10.549960286102294Q9.766629904632568,10.884780286102295,10.003379904632569,11.121540286102295Q10.240139904632567,11.358290286102296,10.574959904632568,11.358290286102296Q10.909779904632568,11.358290286102296,11.146539904632569,11.121540286102295Q11.38328990463257,10.884780286102295,11.38328990463257,10.549960286102294Q11.38328990463257,10.215140286102294,11.146539904632569,9.978380286102295ZM13.979909904632569,9.978380286102295Q13.743159904632568,9.741630286102295,13.408329904632568,9.741630286102295Q13.073509904632568,9.741630286102295,12.836759904632569,9.978380286102295Q12.599999904632568,10.215140286102294,12.599999904632568,10.549960286102294Q12.599999904632568,10.884780286102295,12.836759904632569,11.121540286102295Q13.073509904632568,11.358290286102296,13.408329904632568,11.358290286102296Q13.743159904632568,11.358290286102296,13.979909904632569,11.121540286102295Q14.216699904632568,10.884780286102295,14.216699904632568,10.549960286102294Q14.216699904632568,10.215140286102294,13.979909904632569,9.978380286102295ZM16.81329990463257,9.978380286102295Q16.57649990463257,9.741630286102295,16.24169990463257,9.741630286102295Q15.906899904632569,9.741630286102295,15.670099904632568,9.978380286102295Q15.433399904632568,10.215140286102294,15.433399904632568,10.549960286102294Q15.433399904632568,10.884780286102295,15.670099904632568,11.121540286102295Q15.906899904632569,11.358290286102296,16.24169990463257,11.358290286102296Q16.57649990463257,11.358290286102296,16.81329990463257,11.121540286102295Q17.049999904632568,10.884780286102295,17.049999904632568,10.549960286102294Q17.049999904632568,10.215140286102294,16.81329990463257,9.978380286102295ZM8.31327990463257,12.811760286102295Q8.076529904632569,12.575000286102295,7.741709904632568,12.575000286102295Q7.406879904632568,12.575000286102295,7.170129904632568,12.811760286102295Q6.933369904632569,13.048510286102296,6.933369904632569,13.383330286102295Q6.933369904632569,13.718160286102295,7.170129904632568,13.954910286102294Q7.4068899046325685,14.191670286102294,7.741709904632568,14.191670286102294Q8.076529904632569,14.191670286102294,8.31327990463257,13.954910286102294Q8.55003990463257,13.718160286102295,8.55003990463257,13.383330286102295Q8.55003990463257,13.048510286102296,8.31327990463257,12.811760286102295ZM13.408289904632568,12.575000286102295L10.574959904632568,12.575000286102295Q10.240139904632567,12.575000286102295,10.003379904632569,12.811760286102295Q9.766629904632568,13.048510286102296,9.766629904632568,13.383330286102295Q9.766629904632568,13.718160286102295,10.003379904632569,13.954910286102294Q10.240139904632567,14.191670286102294,10.574959904632568,14.191670286102294L13.408289904632568,14.191670286102294Q13.743109904632568,14.191670286102294,13.979869904632569,13.954910286102294Q14.216599904632568,13.718160286102295,14.216599904632568,13.383330286102295Q14.216599904632568,13.048510286102296,13.979869904632569,12.811760286102295Q13.743109904632568,12.575000286102295,13.408289904632568,12.575000286102295ZM16.81329990463257,12.811760286102295Q16.57649990463257,12.575000286102295,16.24169990463257,12.575000286102295Q15.906899904632569,12.575000286102295,15.670099904632568,12.811760286102295Q15.433399904632568,13.048510286102296,15.433399904632568,13.383330286102295Q15.433399904632568,13.718160286102295,15.670099904632568,13.954910286102294Q15.906899904632569,14.191670286102294,16.24169990463257,14.191670286102294Q16.57649990463257,14.191670286102294,16.81329990463257,13.954910286102294Q17.049999904632568,13.718160286102295,17.049999904632568,13.383330286102295Q17.049999904632568,13.048510286102296,16.81329990463257,12.811760286102295Z" fill-rule="evenodd"></path></symbol>
<symbol xmlns="http://www.w3.org/2000/svg" viewBox="0 0 24 24" id="setting-sidebar"><path d="M22.392266015625,8.608273203125C22.392266015625,7.153123203125,21.602066015625,5.812773203125,20.328766015625,5.108293203125L13.936466015625,1.571465203125C12.731566015625,0.904777203125,11.268396015625,0.904777203125,10.063446015625,1.571465203125L3.671146015625,5.108293203125C2.397898015625,5.812773203125,1.607666015625,7.153123203125,1.607666015625,8.608273203125L1.607666015625,15.391733203125C1.607666015625,16.846833203125,2.3978990156249997,18.187233203125,3.671146015625,18.891733203125L10.063446015625,22.428533203125C11.268396015625,23.095233203125,12.731566015625,23.095233203125,13.936466015625,22.428533203125L20.328766015625,18.891733203125C21.602066015625,18.187233203125,22.392266015625,16.846833203125,22.392266015625,15.391733203125L22.392266015625,8.608273203125ZM12.968266015625,3.321453203125L19.360566015625,6.858283203125Q20.392266015625,7.429133203125,20.392266015625,8.608273203125L20.392266015625,15.391733203125Q20.392266015625,16.570833203124998,19.360566015625,17.141733203125L12.968266015625,20.678533203125Q11.999966015625,21.214233203125,11.031706015625,20.678533203125L4.639406015625,17.141733203125Q3.607666015625,16.570833203124998,3.607666015625,15.391733203125L3.607666015625,8.608273203125Q3.607666015625,7.429133203125,4.639406015625,6.858283203125L11.031706015625,3.321453203125Q11.999966015625,2.7857232031250003,12.968266015625,3.321453203125ZM11.999966015625,16.000033203125C14.209166015625,16.000033203125,15.999966015625,14.209133203125,15.999966015625,12.000033203125C15.999966015625,9.790863203125,14.209166015625,8.000003203125,11.999966015625,8.000003203125C9.790866015625,8.000003203125,7.999996015625,9.790863203125,7.999996015625,12.000033203125C7.999996015625,14.209133203125,9.790866015625,16.000033203125,11.999966015625,16.000033203125ZM13.414166015625,10.585783203125Q13.999966015625,11.171533203125,13.999966015625,12.000033203125Q13.999966015625,12.828433203125,13.414166015625,13.414233203125Q12.828466015625,14.000033203125,11.999966015625,14.000033203125Q11.171576015625,14.000033203125,10.585786015625,13.414233203125Q9.999996015625,12.828433203125,9.999996015625,12.000033203125Q9.999996015625,11.171533203125,10.585786015625,10.585783203125Q11.171576015625,10.000003203125,11.999966015625,10.000003203125Q12.828466015625,10.000003203125,13.414166015625,10.585783203125Z" fill-rule="evenodd"></path></symbol>
<symbol xmlns="http://www.w3.org/2000/svg" viewBox="0 0 24 24" id="setting-smart"><path d="M5.648531657592773,8.575660785675048L5.658908657592773,8.58434078567505L5.699294657592773,8.61743078567505L9.369699657592774,11.26010078567505L9.369699657592774,16.44326078567505Q9.369699657592774,17.583560785675047,10.339599657592775,18.50826078567505Q11.477789657592773,19.59356078567505,12.430079657592774,19.87686078567505Q13.308829657592774,20.138260785675048,13.887619657592774,19.64676078567505Q14.464289657592774,19.15716078567505,14.464289657592774,18.05156078567505L14.464289657592774,11.268120785675048L18.250939657592774,8.62281078567505L18.302739657592774,8.580610785675049L18.309239657592773,8.575000785675048Q18.97603965759277,8.005290785675049,19.170539657592773,7.168240785675049Q19.349039657592773,6.400750785675049,19.075039657592775,5.651550785675049Q18.800539657592772,4.900798785675049,18.167839657592772,4.430494785675049Q17.476639657592774,3.916660785675049,16.597439657592773,3.916660785675049L7.359539657592773,3.916660785675049Q6.480389657592774,3.916660785675049,5.789159657592774,4.430481785675049Q5.156447657592773,4.900795785675049,4.881947657592773,5.651510785675049Q4.6079866575927735,6.400750785675049,4.786412157592774,7.168210785675049Q4.981026657592773,8.00531078567505,5.648531657592773,8.575660785675048ZM11.374689657592773,17.42266078567505Q10.869699657592774,16.94116078567505,10.869699657592774,16.44326078567505L10.869699657592774,10.491750785675048L6.614719657592773,7.428190785675049Q6.329309657592773,7.180640785675049,6.247449657592774,6.828540785675049Q6.170199657592773,6.496250785675048,6.290719657592773,6.166640785675049Q6.411219657592773,5.837100785675049,6.684009657592774,5.634320785675049Q6.9768296575927735,5.416660785675049,7.359539657592773,5.416660785675049L16.597439657592773,5.416660785675049Q16.980139657592773,5.416660785675049,17.272939657592772,5.634310785675049Q17.545839657592772,5.837110785675049,17.666239657592776,6.166600785675049Q17.786839657592772,6.496250785675048,17.70953965759277,6.828500785675049Q17.628039657592772,7.179370785675049,17.344539657592776,7.426250785675049L12.964289657592774,10.486240785675049L12.964289657592774,18.05156078567505Q12.964289657592774,18.349860785675048,12.934359657592774,18.45846078567505Q12.901509657592774,18.452060785675048,12.857769657592774,18.439060785675046Q12.251569657592773,18.25876078567505,11.374689657592773,17.42266078567505Z" fill-rule="evenodd"></path></symbol>
<symbol xmlns="http://www.w3.org/2000/svg" viewBox="0 0 24 24" id="setting-team-orders"><path d="M5.078927397727966,11.658844123287201L5.078947424927966,7.738464123287201C5.078927397727966,6.156924123287201,6.422097397727966,4.8748441232872,8.078967397727967,4.8748441232872L8.453947397727966,4.8748441232872C8.453927397727966,4.046419123287201,9.125537397727967,3.374924123287201,9.953927397727966,3.374924123287201L14.453927397727966,3.374924123287201C15.282427397727966,3.374924123287201,15.953927397727966,4.046419123287201,15.953927397727966,4.8748441232872L16.328927397727966,4.8748441232872C16.950227397727964,4.8748441232872,17.527427397727966,5.055134123287201,18.00622739772797,5.363904123287201C18.611027397727966,5.753884123287201,19.058827397727967,6.3488041232872,19.240227397727967,7.044274123287201C19.298227397727967,7.266534123287201,19.328927397727966,7.499074123287201,19.328927397727966,7.738464123287201L19.328927397727966,11.658844123287201L19.328927397727966,17.011124123287203C19.328927397727966,18.5927241232872,17.985827397727967,19.8747241232872,16.328927397727966,19.8747241232872L12.128907397727966,19.8747241232872L12.128987397727967,19.8747241232872L8.078967397727967,19.8747241232872C6.422117397727966,19.8747241232872,5.078947424927966,18.5927241232872,5.078947424927966,17.011124123287203L5.078947424927966,11.658834123287201L5.078927397727966,11.658844123287201ZM14.453927397727966,4.8748441232872L14.453927397727966,6.3750041232872015L9.953927397727966,6.3750041232872015L9.953927397727966,4.8748441232872L14.453927397727966,4.8748441232872ZM15.953927397727966,6.306774123287201L15.953927397727966,6.3750041232872015C15.953927397727966,7.203424123287201,15.282327397727967,7.874924123287201,14.453927397727966,7.874924123287201L9.953927397727966,7.874924123287201C9.850377397727966,7.874924123287201,9.749277397727965,7.864434123287201,9.651637397727967,7.844454123287201C9.222907397727965,7.756734123287201,8.860807397727967,7.486124123287201,8.650427397727967,7.1176841232872015C8.525397397727966,6.8987241232872005,8.453947397727966,6.645214123287201,8.453947397727966,6.3750041232872015L8.453947397727966,6.306774123287201L8.078967397727967,6.306774123287201Q7.457627397727967,6.306774123287201,7.018327397727966,6.7261041232872Q6.578967397727967,7.145474123287201,6.578927397727966,7.738464123287201L6.578967397727967,10.874774123287201L6.578927397727966,10.8747941232872L6.578927397727966,17.011124123287203Q6.578987397727966,17.604424123287203,7.018327397727966,18.023724123287202Q7.457647397727966,18.4431241232872,8.078967397727967,18.4431241232872L10.148967397727965,18.4431241232872L10.148957397727965,18.443024123287202L16.328927397727966,18.4431241232872Q16.950227397727964,18.4431241232872,17.389527397727967,18.023724123287202Q17.828927397727966,17.604424123287203,17.828927397727966,17.011124123287203L17.828927397727966,10.874774123287201L17.828927397727966,7.738464123287201Q17.828927397727966,7.701404123287201,17.827227397727967,7.665004123287201Q17.802627397727967,7.144244123287201,17.426527397727966,6.762424123287201Q17.408427397727966,6.744094123287201,17.389627397727967,6.7261041232872Q17.279727397727967,6.621264123287201,17.158527397727966,6.5426341232872005Q16.848727397727966,6.341694123287201,16.464727397727966,6.311944123287201Q16.39792739772797,6.306774123287201,16.328927397727966,6.306774123287201L15.953927397727966,6.306774123287201ZM15.203927397727966,10.0001641232872L9.203947397727966,10.0001641232872C8.789737397727967,10.0001641232872,8.453947397727966,10.335954123287202,8.453947397727966,10.7501641232872C8.453947397727966,11.164384123287201,8.789737397727967,11.499924123287201,9.203947397727966,11.499924123287201L15.203927397727966,11.499924123287201C15.618127397727966,11.499924123287201,15.953927397727966,11.164384123287201,15.953927397727966,10.7501641232872C15.953927397727966,10.335954123287202,15.618127397727966,10.0001641232872,15.203927397727966,10.0001641232872ZM9.203947397727966,14.499724123287201C8.789737397727967,14.499724123287201,8.453947397727966,14.1641241232872,8.453947397727966,13.749924123287201C8.453947397727966,13.3357141232872,8.789737397727967,12.999924123287201,9.203947397727966,12.999924123287201L13.250027397727965,12.999924123287201C13.664247397727966,12.999924123287201,14.000027397727965,13.3357141232872,14.000027397727965,13.749924123287201C14.000027397727965,14.1641241232872,13.664247397727966,14.499724123287201,13.250027397727965,14.499724123287201L9.203947397727966,14.499724123287201Z" fill-rule="evenodd"></path></symbol>
<symbol xmlns="http://www.w3.org/2000/svg" viewBox="0 0 24 24" id="setting-team"><path d="M13.952761835269929,5.089004911769867Q12.997201835269928,4.133440911769867,11.645821835269928,4.133440911769867Q10.294451835269928,4.133440911769867,9.338881835269927,5.089004911769867Q8.383321835269928,6.044570911769867,8.383321835269928,7.395940911769867Q8.383321835269928,8.747310911769867,9.338881835269927,9.702880911769867Q10.294461835269928,10.658440911769867,11.645821835269928,10.658440911769867Q12.997181835269927,10.658440911769867,13.952761835269929,9.702880911769867Q14.908331835269928,8.747310911769867,14.908331835269928,7.395940911769867Q14.908331835269928,6.044570911769867,13.952761835269929,5.089004911769867ZM13.341651835269928,7.395940911769867Q13.341651835269928,8.098380911769867,12.844961835269928,8.595070911769866Q12.348261835269929,9.091770911769867,11.645821835269928,9.091770911769867Q10.943381835269928,9.091770911769867,10.446691835269927,8.595070911769866Q9.949991835269927,8.098380911769867,9.949991835269927,7.395940911769867Q9.949991835269927,6.693510911769867,10.446691835269927,6.196800911769866Q10.943381835269928,5.700110911769867,11.645821835269928,5.700110911769867Q12.348261835269929,5.700110911769867,12.844961835269928,6.196800911769866Q13.341651835269928,6.693510911769867,13.341651835269928,7.395940911769867ZM4.985162835269928,19.014840911769866Q5.836991835269928,19.866640911769867,7.041661835269927,19.866740911769867L12.728761835269928,19.866740911769867L12.512781835269928,19.72854091176987Q12.110411835269929,19.47104091176987,12.110411835269929,18.993340911769867L12.110411835269929,18.30004091176987L7.041661835269927,18.30004091176987Q6.485931835269928,18.30004091176987,6.092961835269928,17.90704091176987Q5.700001835269928,17.514140911769864,5.700001835269928,16.958340911769866Q5.699991835269928,15.229040911769866,6.922831835269928,14.006190911769867Q8.145661835269928,12.783360911769867,9.875001835269927,12.783360911769867L12.122961835269928,12.783360911769867L12.131271835269928,12.717790911769868Q12.247891835269929,11.798240911769867,13.022371835269928,11.356850911769868L13.268311835269929,11.216690911769867L9.875001835269927,11.216690911769867Q7.496721835269928,11.216690911769867,5.815031835269928,12.898390911769868Q4.133331835269928,14.580040911769867,4.133331835269928,16.958340911769866Q4.133331835269928,18.16304091176987,4.985162835269928,19.014840911769866ZM13.139091835269928,12.187040911769866Q12.908781835269927,12.417250911769868,12.908781835269927,12.742830911769866Q12.908781835269927,13.068400911769867,13.139091835269928,13.298610911769867Q13.369391835269928,13.528810911769867,13.695071835269928,13.528810911769867L19.38533183526993,13.528810911769867Q19.711031835269928,13.528810911769867,19.941331835269928,13.298610911769867Q20.171631835269928,13.068400911769867,20.171631835269928,12.742830911769866Q20.171631835269928,12.417250911769868,19.941331835269928,12.187040911769866Q19.711031835269928,11.956840911769866,19.38533183526993,11.956840911769866L13.695071835269928,11.956840911769866Q13.369391835269928,11.956840911769866,13.139091835269928,12.187040911769866ZM13.139091835269928,15.030940911769868Q12.908781835269927,15.261240911769868,12.908781835269927,15.586740911769867Q12.908781835269927,15.912340911769867,13.139091835269928,16.142540911769867Q13.369391835269928,16.372740911769867,13.695071835269928,16.372740911769867L19.38533183526993,16.372740911769867Q19.711031835269928,16.372740911769867,19.941331835269928,16.142540911769867Q20.171631835269928,15.912340911769867,20.171631835269928,15.586740911769867Q20.171631835269928,15.261240911769868,19.941331835269928,15.030940911769868Q19.711031835269928,14.800740911769866,19.38533183526993,14.800740911769866L13.695071835269928,14.800740911769866Q13.369391835269928,14.800740911769866,13.139091835269928,15.030940911769868ZM13.139091835269928,17.87494091176987Q12.908781835269927,18.105140911769865,12.908781835269927,18.430740911769867Q12.908781835269927,18.75634091176987,13.139091835269928,18.986540911769865Q13.369391835269928,19.216740911769868,13.695071835269928,19.216740911769868L18.199831835269926,19.216740911769868Q18.52553183526993,19.216740911769868,18.75583183526993,18.986540911769865Q18.98613183526993,18.75634091176987,18.98613183526993,18.430740911769867Q18.98613183526993,18.105140911769865,18.75583183526993,17.87494091176987Q18.52553183526993,17.644740911769865,18.199831835269926,17.644740911769865L13.695071835269928,17.644740911769865Q13.369381835269929,17.644740911769865,13.139091835269928,17.87494091176987Z" fill-rule="evenodd"></path></symbol>
<symbol xmlns="http://www.w3.org/2000/svg" viewBox="0 0 24 24" id="setting"><path opacity=".54" fill="none" d="M0 0H24V24H0z"></path><path d="M12.5,20.5h-1c-1.1,0-2-0.9-2-2c0-0.7-0.6-1.3-1.3-1.3c-0.2,0-0.4,0.1-0.6,0.2c-1,0.6-2.2,0.2-2.8-0.7l-0.5-0.9 c-0.3-0.5-0.3-1-0.2-1.5c0.1-0.5,0.5-1,0.9-1.2c0.6-0.3,0.8-1.1,0.5-1.7C5.4,11.2,5.2,11,5,10.9c-0.5-0.3-0.8-0.7-0.9-1.2 C3.9,9.2,4,8.6,4.3,8.2l0.5-0.9c0.6-1,1.8-1.3,2.8-0.7c0.3,0.2,0.7,0.2,1,0.1c0.3-0.1,0.6-0.3,0.8-0.6c0.1-0.2,0.2-0.4,0.2-0.6 c0-1.1,0.9-2,2-2h1c1.1,0,2,0.9,2,2c0,0.7,0.6,1.3,1.3,1.3c0.2,0,0.4-0.1,0.6-0.2c1-0.6,2.2-0.2,2.8,0.7l0.5,0.9 c0.3,0.5,0.3,1,0.2,1.5c-0.1,0.5-0.5,1-0.9,1.2c-0.3,0.2-0.5,0.4-0.6,0.8c-0.1,0.3,0,0.7,0.1,0.9c0.1,0.2,0.3,0.4,0.5,0.5 c0.5,0.3,0.8,0.7,0.9,1.2c0.1,0.5,0.1,1.1-0.2,1.5l-0.5,0.9c-0.6,1-1.8,1.3-2.8,0.7c-0.6-0.4-1.4-0.1-1.7,0.5 c-0.1,0.2-0.2,0.4-0.2,0.6C14.5,19.6,13.6,20.5,12.5,20.5z M8.2,16.2c1.2,0,2.3,1,2.3,2.3c0,0.6,0.5,1,1,1h1c0.6,0,1-0.4,1-1 c0-0.4,0.1-0.8,0.3-1.1c0.6-1.1,2-1.5,3.1-0.8c0.5,0.3,1.2,0.1,1.4-0.4l0.5-0.9c0.1-0.2,0.2-0.5,0.1-0.7c-0.1-0.3-0.2-0.5-0.5-0.6 c-0.4-0.2-0.6-0.5-0.8-0.8c-0.3-0.5-0.4-1.1-0.2-1.7s0.5-1.1,1.1-1.4c0.2-0.1,0.4-0.4,0.5-0.6c0.1-0.3,0-0.5-0.1-0.7l-0.5-0.9 c-0.3-0.5-0.9-0.6-1.4-0.4c-0.4,0.2-0.7,0.3-1.1,0.3c-1.2,0-2.3-1-2.3-2.3c0-0.6-0.5-1-1-1h-1c-0.6,0-1,0.4-1,1 c0,0.4-0.1,0.8-0.3,1.1C9.9,7.1,9.4,7.5,8.8,7.7C8.2,7.8,7.6,7.8,7.1,7.5C6.6,7.2,5.9,7.3,5.6,7.8L5.1,8.7C5,8.9,5,9.2,5,9.4 C5.1,9.7,5.3,9.9,5.5,10c0.4,0.2,0.6,0.5,0.8,0.8C7,12,6.6,13.3,5.5,14c-0.2,0.1-0.4,0.4-0.5,0.6c-0.1,0.3,0,0.5,0.1,0.7l0.5,0.9 c0.3,0.5,0.9,0.7,1.4,0.4C7.4,16.3,7.8,16.2,8.2,16.2z"></path><path d="M12,15c-1.7,0-3-1.3-3-3s1.3-3,3-3s3,1.3,3,3S13.7,15,12,15z M12,10c-1.1,0-2,0.9-2,2c0,1.1,0.9,2,2,2c1.1,0,2-0.9,2-2 C14,10.9,13.1,10,12,10z"></path></symbol>
</svg>