<svg xmlns="http://www.w3.org/2000/svg" xmlns:xlink="http://www.w3.org/1999/xlink" style="position: absolute; width: 0; height: 0" aria-hidden="true" id="__SVG_SPRITE_NODE__">
<symbol xmlns="http://www.w3.org/2000/svg" viewBox="0 0 24 24" id="share-content"><path d="M19.9961,1.997131109237671L14.9961,1.997131109237671C14.4438,1.997131109237671,13.9961,2.4448571092376707,13.9961,2.997151109237671C13.9961,3.549461109237671,14.4439,3.997181109237671,14.9962,3.997181109237671L18.5819,3.997131109237671L9.65715,12.921531109237671C9.26661,13.31203110923767,9.2666,13.945231109237671,9.65713,14.33573110923767C10.04765,14.726231109237672,10.68081,14.726231109237672,11.07133,14.33573110923767L19.9962,5.41128110923767L19.9961,8.997111109237672C19.9961,9.54941110923767,20.4439,9.997131109237671,20.9962,9.997131109237671C21.5485,9.997131109237671,21.9962,9.549401109237671,21.9962,8.997101109237672L21.9961,3.9971111092376708C21.9961,2.892548109237671,21.1007,1.997131109237671,19.9961,1.997131109237671ZM6,3.0000011092376706L9,3.0000011092376706C9.55228,3.0000011092376706,10,3.447711109237671,10,4.000001109237671C10,4.55228110923767,9.55228,5.000001109237671,9,5.000001109237671L6,5.000001109237671Q5.17157,5.000001109237671,4.58578,5.58578110923767Q4,6.171571109237671,4,7.000001109237671L4,18.00003110923767Q4,18.82843110923767,4.58578,19.414231109237672Q5.17157,20.00003110923767,6,20.00003110923767L17,20.00003110923767Q17.828400000000002,19.99993110923767,18.4142,19.414231109237672Q19,18.82843110923767,19,18.00003110923767L19,15.000031109237671C19,14.44773110923767,19.4477,14.000031109237671,20,14.000031109237671C20.5523,14.000031109237671,21,14.44773110923767,21,15.000031109237671L21,18.00003110923767C21,20.20913110923767,19.2091,22.00003110923767,17,22.00003110923767L6,22.00003110923767C3.79086,22.00003110923767,2,20.20913110923767,2,18.00003110923767L2,7.000001109237671C2,4.790861109237671,3.79086,3.0000011092376706,6,3.0000011092376706Z" fill-rule="evenodd"></path></symbol>
<symbol xmlns="http://www.w3.org/2000/svg" viewBox="0 0 24 24" id="share-list"><path d="M3,4Q2.901509,4,2.80491,4.0192147Q2.708311,4.0384294,2.6173159999999998,4.0761205Q2.526322,4.113811,2.44443,4.16853Q2.362537,4.223249,2.292893,4.292893Q2.223249,4.362537,2.16853,4.44443Q2.113811,4.526322,2.0761205,4.617316Q2.0384294,4.708311,2.0192147,4.80491Q2,4.901509,2,5Q2,5.09849,2.0192147,5.19509Q2.0384294,5.29169,2.0761205,5.38268Q2.113811,5.47368,2.16853,5.5555699999999995Q2.223249,5.63746,2.292893,5.70711Q2.362537,5.77675,2.44443,5.8314699999999995Q2.526322,5.88619,2.6173159999999998,5.9238800000000005Q2.708311,5.96157,2.80491,5.98079Q2.901509,6,3,6L21,6Q21.0985,6,21.1951,5.98079Q21.2917,5.96157,21.3827,5.9238800000000005Q21.4737,5.88619,21.5556,5.8314699999999995Q21.6375,5.77675,21.7071,5.70711Q21.7767,5.63746,21.8315,5.5555699999999995Q21.8862,5.47368,21.9239,5.38268Q21.9616,5.29169,21.9808,5.19509Q22,5.09849,22,5Q22,4.901509,21.9808,4.80491Q21.9616,4.708311,21.9239,4.617316Q21.8862,4.526322,21.8315,4.44443Q21.7767,4.362537,21.7071,4.292893Q21.6375,4.223249,21.5556,4.16853Q21.4737,4.113811,21.3827,4.0761205Q21.2917,4.0384294,21.1951,4.0192147Q21.0985,4,21,4L3,4ZM19.75,12.22222Q19.75,12.33139,19.7392,12.44004Q19.7283,12.54868,19.7068,12.65576Q19.6852,12.76283,19.6531,12.8673Q19.621,12.97177,19.5787,13.07263Q19.5364,13.17349,19.4843,13.26977Q19.4322,13.36605,19.3708,13.45682Q19.3094,13.54759,19.2393,13.63198Q19.1692,13.71638,19.091,13.79357Q19.0128,13.87077,18.9274,13.94002Q18.8419,14.0093,18.75,14.0699Q18.6581,14.1306,18.5606,14.182Q18.4632,14.2335,18.361,14.2753Q18.2589,14.3171,18.1531,14.3488Q18.0474,14.3804,17.939,14.4017Q17.8305,14.423,17.7205,14.4337Q17.610500000000002,14.4444,17.5,14.4444Q17.389499999999998,14.4444,17.2795,14.4337Q17.1695,14.423,17.061,14.4017Q16.9526,14.3804,16.846899999999998,14.3488Q16.7411,14.3171,16.639,14.2753Q16.5368,14.2335,16.4394,14.182Q16.341900000000003,14.1306,16.25,14.0699Q16.158099999999997,14.0093,16.0726,13.94002Q15.9872,13.87077,15.909,13.79357Q15.8308,13.71638,15.7607,13.63198Q15.6906,13.54759,15.6292,13.45682Q15.5678,13.36605,15.5157,13.26977Q15.4636,13.17349,15.4213,13.07263Q15.379,12.97177,15.3469,12.8673Q15.3148,12.76283,15.2932,12.65576Q15.2717,12.54868,15.2608,12.44004Q15.25,12.33139,15.25,12.22222Q15.25,12.11305,15.2608,12.00441Q15.2717,11.89576,15.2932,11.788689999999999Q15.3148,11.68161,15.3469,11.57715Q15.379,11.47268,15.4213,11.37181Q15.4636,11.27095,15.5157,11.174669999999999Q15.5678,11.078389999999999,15.6292,10.98762Q15.6906,10.89685,15.7607,10.81246Q15.8308,10.728069999999999,15.909,10.650870000000001Q15.9872,10.57368,16.0726,10.50442Q16.158099999999997,10.43516,16.25,10.37451Q16.341900000000003,10.31386,16.4394,10.2624Q16.5368,10.210930000000001,16.639,10.16916Q16.7411,10.127379999999999,16.846899999999998,10.095690000000001Q16.9526,10.064,17.061,10.0427Q17.1695,10.0214,17.2795,10.0107Q17.389499999999998,10,17.5,10Q17.610500000000002,10,17.7205,10.0107Q17.8305,10.0214,17.939,10.0427Q18.0474,10.064,18.1531,10.095690000000001Q18.2589,10.127379999999999,18.361,10.16916Q18.4632,10.210930000000001,18.5606,10.2624Q18.6581,10.31386,18.75,10.37451Q18.8419,10.43516,18.9274,10.50442Q19.0128,10.57368,19.091,10.650870000000001Q19.1692,10.728069999999999,19.2393,10.81246Q19.3094,10.89685,19.3708,10.98762Q19.4322,11.078389999999999,19.4843,11.174669999999999Q19.5364,11.27095,19.5787,11.37181Q19.621,11.47268,19.6531,11.57714Q19.6852,11.68161,19.7068,11.788689999999999Q19.7283,11.89576,19.7392,12.00441Q19.75,12.11305,19.75,12.22222ZM3,13C2.447715,13,2,12.55228,2,12C2,11.44772,2.447715,11,3,11L12,11C12.5523,11,13,11.44772,13,12C13,12.55228,12.5523,13,12,13L3,13ZM22,19.3724C22,19.7188,21.7556,20,21.4545,20L13.5455,20C13.2444,20,13,19.7188,13,19.3724L13,18.3366C13,17.781100000000002,13.1964,17.2439,13.5727,16.8962C14.2136,16.3037,15.3253,15.5555,17.5,15.5555C19.6747,15.5555,20.7318,16.3037,21.3727,16.8962C21.7491,17.2439,22,17.781100000000002,22,18.3366L22,19.3724ZM3,20C2.447715,20,2,19.552300000000002,2,19C2,18.447699999999998,2.447715,18,3,18L10,18C10.55229,18,11,18.447699999999998,11,19C11,19.552300000000002,10.55229,20,10,20L3,20Z" fill-rule="evenodd"></path></symbol>
<symbol xmlns="http://www.w3.org/2000/svg" viewBox="0 0 24 24" id="share-note-list"><path d="M6,22.5C3.79086,22.5,2,20.7905,2,18.6818L2,5.31818C2,3.20946,3.79086,1.5,6,1.5L18,1.5C20.2091,1.5,22,3.20946,22,5.31818L22,11.5C22,12.0523,21.5523,12.5,21,12.5C20.4477,12.5,20,12.0523,20,11.5L20,5.31818Q20,4.52741,19.4142,3.96825Q18.8284,3.40909,18,3.40909L14,3.40909L14,11.04545C14,11.832,13.0592,12.281,12.4,11.8091L10.06,10.13386C10.02444,10.10841,9.97556,10.10841,9.940000000000001,10.13386L7.6,11.8091C6.94076,12.281,6,11.832,6,11.04545L6,3.40909Q5.17157,3.40909,4.585789999999999,3.96825Q4,4.52741,4,5.31818L4,18.6818Q4,19.4726,4.585789999999999,20.0317Q5.17157,20.5909,6,20.5909L12.0455,20.5909C12.5726,20.5909,13,21.0183,13,21.5455C13,22.0726,12.5726,22.5,12.0455,22.5L6,22.5ZM8,3.40909L8,9.13636L8.74,8.60659Q9.3,8.205680000000001,10,8.205680000000001Q10.7,8.205680000000001,11.26,8.60659L12,9.13636L12,3.40909L8,3.40909Z" fill-rule="evenodd"></path><path d="M18.5,17.44444C19.74264,17.44444,20.75,16.44952,20.75,15.22222C20.75,13.994923,19.74264,13,18.5,13C17.25736,13,16.25,13.994923,16.25,15.22222C16.25,16.44952,17.25736,17.44444,18.5,17.44444ZM14.545455,23.0001L22.454549999999998,23.0001C22.75564,23.0001,23,22.71893,23,22.37247L23,21.33671C23,20.78125,22.749090000000002,20.244,22.37273,19.89629C21.73182,19.3038,20.67473,18.55566,18.5,18.55566C16.32527,18.55566,15.21363,19.3038,14.572721,19.89629C14.196357,20.244,14,20.78125,14,21.33671L14,22.37247C14,22.71893,14.244364,23.0001,14.545455,23.0001Z" fill-rule="evenodd"></path></symbol>
<symbol xmlns="http://www.w3.org/2000/svg" fill="none" viewBox="0 0 148 148" id="share-project-dark-default"><g style="mix-blend-mode:passthrough"><circle cx="74" cy="74" fill="#FFFFFF" fill-opacity=".1" r="53"></circle><g style="mix-blend-mode:passthrough"><g style="mix-blend-mode:passthrough"><g style="mix-blend-mode:passthrough"><path d="M78.78585086800292,81.80430065307617L109.18292682800293,93.13710065307617L139.50802682800293,81.85300065307618L139.50602682800292,77.10550065307618C139.50572682800293,76.28260065307617,139.00142682800293,75.54350065307617,138.23522682800294,75.24290065307618L109.86942682800293,64.11372165307617C109.40012682800293,63.929594853076175,108.87882682800293,63.92937605307617,108.40962682800293,64.11310965307617L80.05319682800292,75.21850065307618C79.28721282800294,75.51840065307617,78.78353292700292,76.25710065307618,78.78387676920293,77.08000065307617L78.78585086800292,81.80430065307617Z" fill-rule="evenodd" fill="#000000" transform="rotate(5.254 12.441 43.128)"></path><g style="mix-blend-mode:passthrough"><path d="M136.01959563903807,46.417883147192384L86.06285667423809,46.396913528192385L86.07878743903808,84.52162524719239L108.90089563903808,93.03032524719238L109.46489563903809,93.03052524719237L136.03499563903807,83.14372524719238L136.01959563903807,46.417883147192384Z" fill-rule="evenodd" fill="#4B4A4A" transform="rotate(5.254 12.423 43.128)"></path><path d="M132.13403655700682,50.302648753442384L82.17729759220684,50.28167915344238L82.19100025700683,83.07417915344237L109.18133655700683,93.13697915344238L132.14843655700685,84.59077915344238L132.13403655700682,50.302648753442384Z" fill-rule="evenodd" fill="#808181" transform="rotate(5.254 12.44 43.146)"></path></g><rect x="65.498" y="43.128" width="22.2" height="53.28" rx="2" fill="#4B4A4A" transform="rotate(90 62.957 45.446)"></rect><g style="mix-blend-mode:passthrough"><rect x="69.008" y="51.42" width="22.2" height="53.28" rx="2" fill="#808181" transform="rotate(90 68.488 51.166)"></rect><path d="M43.10761284828186,57.33950233459473L62.347612848281855,57.33950233459473L62.347612848281855,61.03950233459473L43.10761284828186,61.03950233459473L43.10761284828186,57.33950233459473ZM43.10761284828186,63.999662334594724L57.90761284828186,63.999662334594724L57.90761284828186,67.69970233459473L43.10761284828186,67.69970233459473L43.10761284828186,63.999662334594724Z" fill="#4B4A4A" transform="matrix(1 0 0 1 -.773 .266)"></path></g></g></g><g style="mix-blend-mode:passthrough"><g style="mix-blend-mode:passthrough"><g style="mix-blend-mode:passthrough"><path d="M109.29402910583497,67.84578003921509C109.29402910583497,67.2062890392151,108.77561910583496,66.68788003921509,108.13612910583495,66.68788003921509C107.49663910583496,66.68788003921509,106.97822910583496,67.2062890392151,106.97822910583496,67.84578003921509L106.97822910583496,71.91249003921509L102.92877910583496,71.91249003921509C102.28750110583496,71.91249003921509,101.76764678953496,72.43234003921509,101.76764678953496,73.07362003921509C101.76764678953496,73.71489003921509,102.28750110583496,74.23475003921509,102.92877910583496,74.23475003921509L106.97822910583496,74.23475003921509L106.97822910583496,78.30238003921508C106.97822910583496,78.94188003921509,107.49663910583496,79.46028003921509,108.13612910583495,79.46028003921509C108.77561910583496,79.46028003921509,109.29402910583497,78.94188003921509,109.29402910583497,78.30238003921508L109.29402910583497,74.23475003921509L113.34339910583496,74.23475003921509C113.98469910583496,74.23475003921509,114.50449910583497,73.71489003921509,114.50449910583497,73.07362003921509C114.50449910583497,72.43234003921509,113.98469910583496,71.91249003921509,113.34339910583496,71.91249003921509L109.29402910583497,71.91249003921509L109.29402910583497,67.84578003921509Z" fill-rule="evenodd" fill="#273E86" transform="rotate(5.278 25.217 23.722) skewX(.048)"></path><g style="mix-blend-mode:passthrough"><path d="M58.57987406188965 85.293045831604L59.79585406188965 87.515685831604C59.87592406188965 87.662045831604 59.822144061889645 87.84557583160401 59.675744061889645 87.92562583160401 59.58540406188965 87.975015831604 59.47612406188965 87.975015831604 59.38578406188965 87.92562583160401L57.16246406188965 86.710025831604C56.98179406188965 86.611235831604 56.76322406188965 86.611235831604 56.582554061889645 86.710025831604L54.35923106188965 87.92562583160401C54.21282906188965 88.005665831604 54.029237061889646 87.951915831604 53.949166961889645 87.80555583160401 53.89975886188965 87.71524583160401 53.89975886188965 87.605995831604 53.949166961889645 87.515685831604L55.16514406188965 85.293045831604C55.26395406188965 85.112425831604 55.26395406188965 84.89392583160401 55.16514406188965 84.713305831604L53.949166961889645 82.490666831604C53.86909686188965 82.34430883160401 53.92286976188965 82.160772831604 54.06927206188965 82.08072733160401 54.15961106188965 82.03133443160401 54.26889206188965 82.03133443160401 54.35923106188965 82.08072733160401L56.582554061889645 83.29632583160401C56.76322406188965 83.395115831604 56.98179406188965 83.395115831604 57.16246406188965 83.29632583160401L59.38578406188965 82.08072733160401C59.53218406188965 82.000681731604 59.71578406188965 82.05443823160401 59.79585406188965 82.200795831604 59.84525406188965 82.291106831604 59.84525406188965 82.400354831604 59.79585406188965 82.490666831604L58.57987406188965 84.713305831604C58.48106406188965 84.89392583160401 58.48106406188965 85.112425831604 58.57987406188965 85.293045831604L58.57987406188965 85.293045831604zM84.79713274108887 43.04717456085205L85.70911274108887 44.71414456085205C85.76916274108886 44.82391456085205 85.72883274108887 44.961564560852054 85.61903274108887 45.021604560852055 85.55127274108887 45.05864456085205 85.46931274108887 45.05864456085205 85.40156274108887 45.021604560852055L83.73407274108887 44.10990456085205C83.59856274108887 44.03581456085205 83.43464274108887 44.03581456085205 83.29913274108887 44.10990456085205L81.63164574108886 45.021604560852055C81.52184374108887 45.08163456085205 81.38414994108886 45.04132456085205 81.32409734108887 44.93155456085205 81.28704137108886 44.86381456085205 81.28704137108886 44.78188456085205 81.32409734108887 44.71414456085205L82.23607674108887 43.04717456085205C82.31019274108887 42.91170456085205 82.31019274108887 42.74783456085205 82.23607674108887 42.61236456085205L81.32409734108887 40.94538556085205C81.26404484108886 40.83561656085205 81.30437449108886 40.69796486085205 81.41417574108887 40.63793066085205 81.48193074108887 40.60088601085205 81.56389174108887 40.60088601085205 81.63164574108886 40.63793066085205L83.29913274108887 41.54963156085205C83.43464274108887 41.623724560852054 83.59856274108887 41.623724560852054 83.73407274108887 41.54963156085205L85.40156274108887 40.63793066085205C85.51136274108887 40.57789646085205 85.64906274108887 40.61821383085205 85.70911274108887 40.72798156085205 85.74616274108887 40.79571556085205 85.74616274108887 40.87765156085205 85.70911274108887 40.94538556085205L84.79713274108887 42.61236456085205C84.72302274108887 42.74783456085205 84.72302274108887 42.91170456085205 84.79713274108887 43.04717456085205zM40.19061138366699 33.64585565460205L42.01457138366699 36.97981565460205C42.13467138366699 37.19934565460205 42.05401138366699 37.47465565460205 41.83441138366699 37.59472565460205 41.69890138366699 37.66881565460205 41.53498138366699 37.66881565460205 41.39947138366699 37.59472565460205L38.06449138366699 35.77132565460205C37.79347138366699 35.62314565460205 37.465631383666995 35.62314565460205 37.194611383666995 35.77132565460205L33.85963738366699 37.59472565460205C33.64003438366699 37.71479565460205 33.36464538366699 37.634155654602054 33.24454068366699 37.41462565460205 33.17042868366699 37.27915565460205 33.17042868366699 37.11528565460205 33.24454068366699 36.97981565460205L35.06850138366699 33.64585565460205C35.21672138366699 33.37492565460205 35.21672138366699 33.04717565460205 35.06850138366699 32.77624565460205L33.24454068366699 29.44228665460205C33.12443548366699 29.222750654602052 33.205094883666995 28.94744665460205 33.42469838366699 28.82737795460205 33.560206383666994 28.75328855460205 33.72412938366699 28.75328855460205 33.85963738366699 28.82737795460205L37.194611383666995 30.65077565460205C37.465631383666995 30.79895565460205 37.79347138366699 30.79895565460205 38.06449138366699 30.65077565460205L41.39947138366699 28.82737795460205C41.61907138366699 28.70730945460205 41.89446138366699 28.78794415460205 42.01457138366699 29.007480654602052 42.088681383666994 29.14294765460205 42.088681383666994 29.30681965460205 42.01457138366699 29.44228665460205L40.19061138366699 32.77624565460205C40.04238138366699 33.04717565460205 40.04238138366699 33.37492565460205 40.19061138366699 33.64585565460205z" fill-rule="evenodd" fill="#273E86" transform="matrix(1 0 0 1 -.474 .714)"></path></g></g><path d="M80.52892303466797,111.40787265930176C80.52892303466797,113.61707265930175,82.31978303466796,115.40787265930176,84.52892303466797,115.40787265930176L137.31862303466798,115.40787265930176C139.52772303466799,115.40787265930176,141.31862303466798,113.61707265930175,141.31862303466798,111.40787265930176L141.31862303466798,82.89627265930176L110.92372303466797,94.21727265930176L80.52892303466797,82.89627265930176L80.52892303466797,111.40787265930176Z" fill="#273E86" transform="rotate(5.278 25.444 23.465) skewX(.048)"></path><path d="M31.26320364501953,56.381486450161134C29.700553645019532,56.47336774016113,28.413663645019533,57.74658054016113,28.30860364501953,59.30856054016113C28.190423645019532,61.14619054016113,29.63489364501953,62.68192054016113,31.44704364501953,62.68192054016113C33.19353364501953,62.68192054016113,34.59860364501953,61.26432054016113,34.59860364501953,59.53170054016113C34.61174364501953,57.720330540161136,33.08848364501953,56.27647924016113,31.26320364501953,56.381486450161134ZM31.46017364501953,63.70574054016113C29.359133645019533,63.70574054016113,25.17017364501953,64.75581054016114,25.17017364501953,66.85600054016113L25.17017364501953,68.43110054016114C25.17017364501953,68.71980054016113,25.406540645019533,68.95610054016113,25.69543464501953,68.95610054016113L37.22487364501953,68.95610054016113C37.51377364501953,68.95610054016113,37.75017364501953,68.71980054016113,37.75017364501953,68.43110054016114L37.75017364501953,66.84280054016114C37.75017364501953,64.75581054016114,33.561213645019535,63.70574054016113,31.46017364501953,63.70574054016113Z" fill="#273E86" transform="matrix(1 0 0 1 -2.97 -.136)"></path></g></g></g></g></symbol>
<symbol xmlns="http://www.w3.org/2000/svg" viewBox="0 0 148 148" id="share-project-default"><g style="mix-blend-mode:passthrough"><circle cx="73.63" cy="74.37" fill="#000000" fill-opacity=".04" r="53.65"></circle><g style="mix-blend-mode:passthrough"><g style="mix-blend-mode:passthrough"><path d="M80.56733894348145,94.96067645568847L141.35703894348146,94.96067645568847L141.35703894348146,77.16677645568848C141.35703894348146,76.34367645568848,140.85273894348146,75.60457645568847,140.08623894348145,75.30447645568847L111.69143894348144,64.18601445568848C111.22253894348145,64.00244145568848,110.70173894348144,64.00244145568848,110.23293894348144,64.18601445568848L81.83811894348145,75.30447645568847C81.07165194348144,75.60457645568847,80.56733894348145,76.34367645568848,80.56733894348145,77.16677645568848L80.56733894348145,94.96067645568847Z" fill="#000000" transform="rotate(5.278 14.618 22.558) skewX(.048)"></path><g style="mix-blend-mode:passthrough"><rect x="87.909" y="46.461" width="49.957" height="46.624" rx="0" fill="#DBDBDB" transform="rotate(5.278 14.394 22.734) skewX(.048)"></rect><rect x="84.024" y="50.347" width="49.957" height="46.624" rx="0" fill="#FFFFFF" transform="rotate(5.278 14.394 22.734) skewX(.048)"></rect><path d="M109.33983321105957,66.84606232681274C109.33983321105957,66.20657132681275,108.82142321105957,65.68816232681274,108.18193321105957,65.68816232681274C107.54244321105958,65.68816232681274,107.02403321105957,66.20657132681275,107.02403321105957,66.84606232681274L107.02403321105957,70.91326232681274L102.97464321105957,70.91326232681274C102.33336521105957,70.91326232681274,101.81351089475957,71.43311232681275,101.81351089475957,72.07439232681274C101.81351089475957,72.71566232681275,102.33336521105957,73.23552232681274,102.97464321105957,73.23552232681274L107.02403321105957,73.23552232681274L107.02403321105957,77.30266232681274C107.02403321105957,77.94216232681275,107.54244321105958,78.46056232681275,108.18193321105957,78.46056232681275C108.82142321105957,78.46056232681275,109.33983321105957,77.94216232681275,109.33983321105957,77.30266232681274L109.33983321105957,73.23552232681274L113.38926321105957,73.23552232681274C114.03056321105957,73.23552232681274,114.55036321105958,72.71566232681275,114.55036321105958,72.07439232681274C114.55036321105958,71.43311232681275,114.03056321105957,70.91326232681274,113.38926321105957,70.91326232681274L109.33983321105957,70.91326232681274L109.33983321105957,66.84606232681274Z" fill-rule="evenodd" transform="rotate(5.278 14.394 22.734) skewX(.048)"></path><g style="mix-blend-mode:passthrough"><path d="M58.62573816711426 84.29332811920166L59.84171816711426 86.51596811920166C59.92178816711426 86.66232811920166 59.868008167114255 86.84585811920167 59.721608167114255 86.92590811920167 59.63126816711426 86.97529811920165 59.52198816711426 86.97529811920165 59.43164816711426 86.92590811920167L57.20832816711426 85.71030811920166C57.02765816711426 85.61151811920166 56.80908816711426 85.61151811920166 56.628418167114255 85.71030811920166L54.40509516711426 86.92590811920167C54.25869316711426 87.00594811920166 54.075101167114255 86.95219811920165 53.995031067114255 86.80583811920167 53.94562296711426 86.71552811920166 53.94562296711426 86.60627811920166 53.995031067114255 86.51596811920166L55.21100816711426 84.29332811920166C55.30981816711426 84.11270811920166 55.30981816711426 83.89420811920166 55.21100816711426 83.71358811920166L53.995031067114255 81.49094911920166C53.91496096711426 81.34459111920167 53.96873386711426 81.16105511920166 54.11513616711426 81.08100961920167 54.20547516711426 81.03161671920166 54.31475616711426 81.03161671920166 54.40509516711426 81.08100961920167L56.628418167114255 82.29660811920166C56.80908816711426 82.39539811920166 57.02765816711426 82.39539811920166 57.20832816711426 82.29660811920166L59.43164816711426 81.08100961920167C59.57804816711426 81.00096401920166 59.76164816711426 81.05472051920167 59.84171816711426 81.20107811920165 59.89111816711426 81.29138911920165 59.89111816711426 81.40063711920166 59.84171816711426 81.49094911920166L58.62573816711426 83.71358811920166C58.52692816711426 83.89420811920166 58.52692816711426 84.11270811920166 58.62573816711426 84.29332811920166L58.62573816711426 84.29332811920166zM84.84299684631348 42.047456848449706L85.75497684631348 43.714426848449705C85.81502684631347 43.82419684844971 85.77469684631347 43.96184684844971 85.66489684631348 44.02188684844971 85.59713684631348 44.05892684844971 85.51517684631348 44.05892684844971 85.44742684631348 44.02188684844971L83.77993684631348 43.11018684844971C83.64442684631348 43.03609684844971 83.48050684631347 43.03609684844971 83.34499684631348 43.11018684844971L81.67750984631347 44.02188684844971C81.56770784631348 44.08191684844971 81.43001404631347 44.0416068484497 81.36996144631348 43.931836848449706 81.33290547631347 43.864096848449705 81.33290547631347 43.782166848449705 81.36996144631348 43.714426848449705L82.28194084631347 42.047456848449706C82.35605684631348 41.91198684844971 82.35605684631348 41.748116848449705 82.28194084631347 41.61264684844971L81.36996144631348 39.94566784844971C81.30990894631347 39.83589884844971 81.35023859631347 39.69824714844971 81.46003984631348 39.638212948449706 81.52779484631348 39.60116829844971 81.60975584631348 39.60116829844971 81.67750984631347 39.638212948449706L83.34499684631348 40.549913848449705C83.48050684631347 40.62400684844971 83.64442684631348 40.62400684844971 83.77993684631348 40.549913848449705L85.44742684631348 39.638212948449706C85.55722684631348 39.57817874844971 85.69492684631348 39.618496118449706 85.75497684631348 39.72826384844971 85.79202684631348 39.79599784844971 85.79202684631348 39.87793384844971 85.75497684631348 39.94566784844971L84.84299684631348 41.61264684844971C84.76888684631348 41.748116848449705 84.76888684631348 41.91198684844971 84.84299684631348 42.047456848449706zM40.2364754888916 32.64613794219971L42.0604354888916 35.980097942199706C42.1805354888916 36.199627942199704 42.0998754888916 36.47493794219971 41.8802754888916 36.59500794219971 41.7447654888916 36.669097942199706 41.5808454888916 36.669097942199706 41.4453354888916 36.59500794219971L38.1103554888916 34.77160794219971C37.8393354888916 34.623427942199704 37.511495488891605 34.623427942199704 37.240475488891605 34.77160794219971L33.9055014888916 36.59500794219971C33.6858984888916 36.715077942199706 33.4105094888916 36.63443794219971 33.2904047888916 36.414907942199704 33.2162927888916 36.279437942199706 33.2162927888916 36.115567942199704 33.2904047888916 35.980097942199706L35.1143654888916 32.64613794219971C35.2625854888916 32.37520794219971 35.2625854888916 32.047457942199706 35.1143654888916 31.776527942199706L33.2904047888916 28.442568942199706C33.1702995888916 28.22303294219971 33.250958988891604 27.947728942199706 33.4705624888916 27.827660242199705 33.6060704888916 27.753570842199707 33.7699934888916 27.753570842199707 33.9055014888916 27.827660242199705L37.240475488891605 29.651057942199706C37.511495488891605 29.799237942199706 37.8393354888916 29.799237942199706 38.1103554888916 29.651057942199706L41.4453354888916 27.827660242199705C41.6649354888916 27.707591742199707 41.9403254888916 27.788226442199708 42.0604354888916 28.007762942199708 42.134545488891604 28.143229942199707 42.134545488891604 28.307101942199708 42.0604354888916 28.442568942199706L40.2364754888916 31.776527942199706C40.0882454888916 32.047457942199706 40.0882454888916 32.37520794219971 40.2364754888916 32.64613794219971z" fill-rule="evenodd" transform="matrix(1 0 0 1 -.52 1.714)"></path></g></g><path d="M80.57478523254395,110.40815494689942C80.57478523254395,112.61735494689941,82.36564523254394,114.40815494689942,84.57478523254395,114.40815494689942L137.36448523254396,114.40815494689942C139.57358523254396,114.40815494689942,141.36448523254396,112.61735494689941,141.36448523254396,110.40815494689942L141.36448523254396,81.89655494689941L110.96958523254395,93.21755494689941L80.57478523254395,81.89655494689941L80.57478523254395,110.40815494689942Z" transform="rotate(5.278 14.621 22.477) skewX(.048)"></path><rect x="67.354" y="43.213" width="22.2" height="53.28" rx="2" fill="#DBDBDB" transform="rotate(90 63.928 44.56)"></rect><g style="mix-blend-mode:passthrough"><rect x="70.864" y="51.505" width="22.2" height="53.28" rx="2" fill="#FFFFFF" transform="rotate(90 69.459 50.28)"></rect><path d="M30.922506594924926,56.064315353359376C29.359856594924928,56.15619664335937,28.072966594924928,57.429409443359376,27.967906594924926,58.991389443359374C27.849726594924928,60.82901944335937,29.294196594924927,62.36474944335937,31.106346594924926,62.36474944335937C32.85283659492492,62.36474944335937,34.257906594924926,60.94714944335937,34.257906594924926,59.214529443359375C34.271046594924925,57.40315944335938,32.747786594924925,55.95930814335937,30.922506594924926,56.064315353359376ZM31.119476594924926,63.38856944335937C29.01843659492493,63.38856944335937,24.829476594924927,64.43863944335938,24.829476594924927,66.53882944335938L24.829476594924927,68.11392944335938C24.829476594924927,68.40262944335937,25.065843594924928,68.63892944335937,25.354737594924927,68.63892944335937L36.884176594924924,68.63892944335937C37.17307659492493,68.63892944335937,37.409476594924925,68.40262944335937,37.409476594924925,68.11392944335938L37.409476594924925,66.52562944335938C37.409476594924925,64.43863944335938,33.22051659492493,63.38856944335937,31.119476594924926,63.38856944335937Z" transform="matrix(1 0 0 1 -2.63 .18)"></path><rect x="44.964" y="57.425" width="19.24" height="3.7" rx="0" fill="#DBDBDB" transform="matrix(1 0 0 1 -2.63 .18)"></rect><rect x="44.964" y="64.085" width="14.8" height="3.7" rx="0" fill="#DBDBDB" transform="matrix(1 0 0 1 -2.63 .18)"></rect></g></g></g></g></symbol>
<symbol xmlns="http://www.w3.org/2000/svg" viewBox="0 0 24 24" id="share-project-delete"><path d="M21.339999997615813,7.5L21.339999997615813,19.6226C21.339999997615813,22.0526,19.396999997615815,24,16.966999997615815,24L7.182639997615814,24C4.703779997615814,24,2.697779997615814,22.0016,2.7072499976158144,19.5227C2.7155599976158142,17.348399999999998,2.6950499976158144,15.1724,2.6745599976158143,12.9973C2.6572699976158143,11.16371,2.6399999976158144,9.33078,2.6399999976158144,7.5L0.9899999976158143,7.5C0.6862429976158142,7.5,0.4399999976158142,7.25376,0.4399999976158142,6.95L0.4399999976158142,5.85C0.4399999976158142,5.54624,0.6862429976158142,5.3,0.9899999976158143,5.3L6.489999997615814,5.3L6.489999997615814,4.75C6.489999997615814,3.29197,7.6246299976158145,2.0989491,9.059129997615814,2.00584106L9.239999997615815,2L14.739999997615815,2C16.197999997615813,2,17.390999997615815,3.1347,17.484099997615814,4.5692L17.489999997615815,4.75L17.489999997615815,5.3L22.989999997615815,5.3C23.293799997615814,5.3,23.539999997615816,5.54624,23.539999997615816,5.85L23.539999997615816,6.95C23.539999997615816,7.25376,23.293799997615814,7.5,22.989999997615815,7.5L21.339999997615813,7.5ZM9.239999997615815,4.199949999999999L14.739999997615815,4.199949999999999L14.838799997615814,4.20881L14.931899997615814,4.234389999999999C15.140999997615815,4.31227,15.289999997615814,4.5137,15.289999997615814,4.74995L15.289999997615814,5.29995L8.689999997615814,5.29995L8.689999997615814,4.74995L8.698859997615815,4.65106C8.745429997615814,4.39448,8.969989997615814,4.199949999999999,9.239999997615815,4.199949999999999ZM19.139999997615813,7.5L19.139999997615813,19.5985C19.139999997615813,20.8135,18.169199997615813,21.8,16.954199997615813,21.8L7.052169997615814,21.8C5.8371399976158145,21.8,4.839959997615814,20.8293,4.839969997615814,19.6143L4.839969997615814,7.5L19.139999997615813,7.5ZM10.340009997615814,11.2813C10.340009997615814,11.01551,10.093769997615814,10.80005,9.790009997615813,10.80005L8.690009997615814,10.80005C8.386259997615813,10.80005,8.140009997615813,11.01551,8.140009997615813,11.2813L8.140009997615813,18.0188C8.140009997615813,18.2846,8.386259997615813,18.5,8.690009997615814,18.5L9.790009997615813,18.5C10.093769997615814,18.5,10.340009997615814,18.2846,10.340009997615814,18.0188L10.340009997615814,11.2813ZM15.839999997615815,11.2813C15.839999997615815,11.01551,15.593799997615815,10.80005,15.289999997615814,10.80005L14.189999997615814,10.80005C13.886299997615815,10.80005,13.639999997615813,11.01551,13.639999997615813,11.2813L13.639999997615813,18.0188C13.639999997615813,18.2846,13.886299997615815,18.5,14.189999997615814,18.5L15.289999997615814,18.5C15.593799997615815,18.5,15.839999997615815,18.2846,15.839999997615815,18.0188L15.839999997615815,11.2813Z" fill-rule="evenodd"></path></symbol>
<symbol xmlns="http://www.w3.org/2000/svg" viewBox="0 0 18 18" id="share-project-exit"><g style="mix-blend-mode:passthrough"><g style="mix-blend-mode:passthrough"><path d="M5.5,16L11.2,16C11.36569,16,11.5,15.8657,11.5,15.7L11.5,14.3C11.5,14.1343,11.36569,14,11.2,14L5.5,14Q5.29289,14,5.14645,13.8536Q5,13.7071,5,13.5L5,5.5Q5,5.29289,5.14645,5.14645Q5.29289,5,5.5,5L11.2,5C11.36569,5,11.5,4.86569,11.5,4.7L11.5,3.3C11.5,3.134315,11.36569,3,11.2,3L5.5,3Q4.46447,3,3.732233,3.732233Q3,4.46447,3,5.5L3.000000119209,13.5Q3.0000000596046,14.5355,3.732233,15.2678Q4.46447,16,5.5,16Z" fill-rule="evenodd"></path><path d="M12.00013,5.963498027435302C12.00013,5.788132027435303,12.20976,5.6976795274353025,12.33735,5.817991927435303L15.83813,9.119222027435303C15.96001,9.234162027435303,15.96415,9.426642027435303,15.84731,9.546712027435303L12.34339,13.147292027435302C12.2182,13.275932027435303,12.00005,13.187302027435303,12.000060000000001,13.007802027435304L12.000070000000001,11.500022027435303L6.8,11.500022027435303C6.634315,11.500022027435303,6.5,11.365702027435303,6.5,11.200022027435303L6.5,7.800022027435302C6.5,7.634332027435303,6.634315,7.500022027435302,6.8,7.500022027435302L12.000119999999999,7.500022027435302L12.00013,5.963498027435302Z" fill-rule="evenodd"></path></g></g></symbol>
<symbol xmlns="http://www.w3.org/2000/svg" viewBox="0 0 24 24" id="share-project-link"><path d="M12.5,5C8.4,5,5,8.4,5,12.5c0,4.1,3.4,7.5,7.5,7.5c4.1,0,7.5-3.4,7.5-7.5C20,8.4,16.6,5,12.5,5z M13.4,14.2 l-1.7,1.7c-0.7,0.7-1.9,0.7-2.7,0l0,0c-0.7-0.7-0.7-1.9,0-2.7l1.2-1.2c0,0.4,0.1,0.7,0.2,1l-0.8,0.8c-0.4,0.4-0.4,1,0,1.4l0,0 c0.4,0.4,1,0.4,1.4,0l1.7-1.7c0.4-0.4,0.4-1,0-1.4l0,0c-0.1-0.1-0.1-0.1-0.2-0.2l0.6-0.6c0.1,0.1,0.1,0.1,0.2,0.2h0l0,0 C14.2,12.3,14.2,13.5,13.4,14.2z M15.9,11.8l-1.2,1.2c0-0.4-0.1-0.7-0.2-1l0.8-0.8c0.4-0.4,0.4-1,0-1.4l0,0c-0.4-0.4-1-0.4-1.4,0 l-1.7,1.7c-0.4,0.4-0.4,1,0,1.4l0,0c0.1,0.1,0.1,0.1,0.2,0.2l-0.6,0.6c-0.1-0.1-0.1-0.1-0.2-0.2l0,0c-0.7-0.7-0.7-1.9,0-2.7 L13.2,9c0.7-0.7,1.9-0.7,2.7,0l0,0v0C16.7,9.8,16.7,11,15.9,11.8z"></path></symbol>
<symbol xmlns="http://www.w3.org/2000/svg" viewBox="0 0 24 24" id="share-project-lock"><path d="M18.4,10.6h-1.3v-3C17.1,5,14.9,3,12.3,3S7.5,5,7.5,7.6v3H6.2c-0.6,0-1.2,0.5-1.2,1.1v8.2 C5,20.5,5.5,21,6.2,21h12.2c0.6,0,1.2-0.5,1.2-1.1v-8.2C19.6,11,19,10.6,18.4,10.6z M12.9,16v1.8c0,0.1-0.1,0.1-0.2,0.1h-1 c-0.1,0-0.2-0.1-0.2-0.1V16c-0.5-0.2-0.8-0.7-0.8-1.3c0-0.8,0.6-1.4,1.5-1.4c0.8,0,1.5,0.6,1.5,1.4C13.8,15.3,13.4,15.8,12.9,16 z M15.2,10.6H9.4V7.7c0-1.6,1.3-2.8,2.9-2.8c1.6,0,2.9,1.3,2.9,2.8V10.6z"></path></symbol>
<symbol xmlns="http://www.w3.org/2000/svg" viewBox="0 0 73 73" id="share-project-recent-empty"><path d="M37,72C17.1,72,1,55.9,1,36S17.1,0,37,0s36,16.1,36,36S56.9,72,37,72z M37,15.2c-5.9,0-11.1,3.9-12.8,9.5 s0.6,11.7,5.5,15c-3.1,0.7-6,2-8.6,3.7c-2,1.4-3.7,3.1-5,5.2c-1.2,2-1.9,4.2-1.9,6.6c0,0.6,0.3,1.1,0.8,1.4 c0.5,0.3,1.1,0.3,1.6,0s0.8-0.8,0.8-1.4c0.2-3.8,2.3-7.2,5.5-9.1c4.1-2.7,9-4.1,14-4.1c3,0,5.9,0.5,8.7,1.4c0.8,0.3,1.8-0.2,2-1 c0.3-0.8-0.2-1.8-1-2c-0.8-0.3-1.6-0.5-2.4-0.7c4.9-3.2,7.2-9.3,5.5-15C48.1,19.1,42.9,15.2,37,15.2z M58.1,46.8h-5.2v-5.2 c0-0.9-0.7-1.5-1.6-1.5c-0.9,0-1.6,0.7-1.6,1.5v5.2h-5.2c-0.9,0-1.6,0.7-1.6,1.6c0,0.9,0.7,1.6,1.6,1.6h5.2v5.2 c0,0.6,0.3,1.1,0.8,1.4s1.1,0.3,1.6,0s0.8-0.8,0.8-1.4V50H58c0.9,0,1.6-0.7,1.6-1.6C59.7,47.5,58.9,46.8,58.1,46.8L58.1,46.8z M37,38.7c-4.1,0-7.8-2.5-9.4-6.3c-1.6-3.8-0.7-8.1,2.2-11s7.3-3.8,11-2.2s6.2,5.3,6.2,9.4C47.2,34.1,42.6,38.7,37,38.7z" transform="translate(-.137 .999)"></path></symbol>
<symbol xmlns="http://www.w3.org/2000/svg" viewBox="0 0 24 24" id="share"><path d="M14.676899976158142,2.0271625435256957Q13.568599976158142,0.9189225435256958,12.001299976158142,0.9189225435256958Q10.434049976158143,0.9189225435256958,9.325809976158142,2.0271625435256957Q8.334359976158142,3.018602543525696,8.229879976158141,4.377432543525696Q5.775019976158142,5.395412543525696,4.160109976158142,7.590022543525696Q2.2716399761581423,10.156402543525695,2.2716399761581423,13.351422543525695Q2.2716399761581423,13.938122543525695,2.340609976158142,14.515522543525696Q2.035099976158142,14.723222543525695,1.758239976158142,15.000022543525695Q0.6499999761581421,16.108322543525695,0.6499999761581421,17.675622543525694Q0.6499999761581421,19.242922543525697,1.758239976158142,20.351122543525697Q2.866479976158142,21.459322543525698,4.433769976158143,21.459322543525698Q5.342659976158142,21.459322543525698,6.097169976158142,21.086622543525696Q8.684839976158143,23.081122543525694,12.001299976158142,23.081122543525694Q15.318599976158142,23.081122543525694,17.905499976158143,21.086722543525696Q18.659999976158144,21.459322543525698,19.568799976158143,21.459322543525698Q21.136099976158143,21.459322543525698,22.244399976158142,20.351122543525697Q23.352599976158142,19.242922543525697,23.352599976158142,17.675622543525694Q23.352599976158142,16.108322543525695,22.244399976158142,15.000022543525695Q21.96749997615814,14.723222543525695,21.662099976158142,14.515522543525696Q21.73099997615814,13.938122543525695,21.73099997615814,13.351422543525695Q21.73099997615814,10.156402543525695,19.84259997615814,7.590022543525696Q18.227699976158142,5.395402543525695,15.772799976158142,4.377432543525696Q15.668299976158142,3.018602543525696,14.676899976158142,2.0271625435256957ZM15.318799976158141,6.542832543525696Q15.066199976158142,6.988862543525696,14.676899976158142,7.378222543525696Q13.568599976158142,8.486462543525697,12.001299976158142,8.486462543525697Q10.434049976158143,8.486462543525697,9.325809976158142,7.378222543525696Q8.936449976158142,6.988862543525696,8.683879976158142,6.542842543525696Q7.030169976158142,7.337792543525696,5.901589976158142,8.871492543525695Q4.4337999761581415,10.866182543525696,4.4337999761581415,13.351422543525695Q4.4337999761581415,13.623022543525696,4.4527099761581415,13.891822543525695Q6.007759976158142,13.898522543525695,7.109299976158142,15.000022543525695Q8.217539976158143,16.108322543525695,8.217539976158143,17.675622543525694Q8.217539976158143,18.737222543525696,7.709089976158142,19.588222543525696Q9.611629976158142,20.918922543525696,12.001299976158142,20.918922543525696Q14.391499976158142,20.918922543525696,16.29359997615814,19.588322543525695Q15.785099976158142,18.737222543525696,15.785099976158142,17.675622543525694Q15.785099976158142,16.108322543525695,16.893299976158143,15.000022543525695Q17.99489997615814,13.898522543525695,19.54999997615814,13.891822543525695Q19.568899976158143,13.623022543525696,19.568899976158143,13.351422543525695Q19.568899976158143,10.866182543525696,18.101099976158142,8.871492543525695Q16.972499976158144,7.337782543525695,15.318799976158141,6.542832543525696ZM10.854699976158143,3.5560425435256957Q11.329599976158143,3.081072543525696,12.001299976158142,3.081072543525696Q12.672999976158142,3.081072543525696,13.147999976158141,3.5560425435256957Q13.622999976158143,4.031002543525696,13.622999976158143,4.702692543525696Q13.622999976158143,5.374392543525696,13.147999976158141,5.849352543525696Q12.672999976158142,6.3243125435256955,12.001299976158142,6.3243125435256955Q11.329599976158143,6.3243125435256955,10.854699976158143,5.849352543525696Q10.379719976158142,5.374392543525696,10.379719976158142,4.702692543525696Q10.379719976158142,4.031002543525696,10.854699976158143,3.5560425435256957ZM3.287119976158142,16.528922543525695Q3.7620799761581423,16.054022543525697,4.433769976158143,16.054022543525697Q5.105469976158142,16.054022543525697,5.580429976158142,16.528922543525695Q6.055389976158142,17.003922543525697,6.055389976158142,17.675622543525694Q6.055389976158142,18.347322543525696,5.580429976158142,18.822222543525697Q5.105469976158142,19.297222543525695,4.433769976158143,19.297222543525695Q3.7620799761581423,19.297222543525695,3.287119976158142,18.822222543525697Q2.812149976158142,18.347322543525696,2.812149976158142,17.675622543525694Q2.812149976158142,17.003922543525697,3.287119976158142,16.528922543525695ZM19.568799976158143,16.054022543525697Q18.89709997615814,16.054022543525697,18.422199976158144,16.528922543525695Q17.947199976158142,17.003922543525697,17.947199976158142,17.675622543525694Q17.947199976158142,18.347322543525696,18.422199976158144,18.822222543525697Q18.89709997615814,19.297222543525695,19.568799976158143,19.297222543525695Q20.24049997615814,19.297222543525695,20.715499976158142,18.822222543525697Q21.190499976158144,18.347322543525696,21.190499976158144,17.675622543525694Q21.190499976158144,17.003922543525697,20.715499976158142,16.528922543525695Q20.24049997615814,16.054022543525697,19.568799976158143,16.054022543525697Z" fill-rule="evenodd"></path></symbol>
</svg>