<svg xmlns="http://www.w3.org/2000/svg" xmlns:xlink="http://www.w3.org/1999/xlink" style="position: absolute; width: 0; height: 0" aria-hidden="true" id="__SVG_SPRITE_NODE__">
<symbol xmlns="http://www.w3.org/2000/svg" viewBox="0 0 17 17" id="summary-clear"><path d="M8,8 L8,5 C8,4.72385763 8.22385763,4.5 8.5,4.5 C8.77614237,4.5 9,4.72385763 9,5 L9,8 L12,8 C12.2761424,8 12.5,8.22385763 12.5,8.5 C12.5,8.77614237 12.2761424,9 12,9 L9,9 L9,12 C9,12.2761424 8.77614237,12.5 8.5,12.5 C8.22385763,12.5 8,12.2761424 8,12 L8,9 L5,9 C4.72385763,9 4.5,8.77614237 4.5,8.5 C4.5,8.22385763 4.72385763,8 5,8 L8,8 Z" fill-rule="nonzero" transform="rotate(45 8.5 8.5)"></path></symbol>
<symbol xmlns="http://www.w3.org/2000/svg" viewBox="0 0 24 24" id="summary-detail-control"><path d="M2,6L2,18Q2,19.6569,3.17157,20.8284Q4.34315,22,6,22L13.8666,22C13.2485,21.2618,12.8201,20.5146,12.623,20L6,20Q5.1715800000000005,20,4.585789999999999,19.4142Q4,18.8284,4,18L4,6Q4,5.17157,4.585789999999999,4.585789999999999Q5.17157,4,6,4L18,4Q18.8284,4,19.4142,4.585789999999999Q20,5.17157,20,6L20,14.7628C20.7199,15.0121,21.3941,15.4198,22,15.9023L22,6Q22,4.34315,20.8284,3.17157Q19.6569,2,18,2L6,2Q4.34315,2,3.17157,3.17157Q2,4.34315,2,6ZM14,19.2558C14,18.6177,15.8804,16,18.186,16C20.4915,16,22.3721,18.6177,22.3721,19.2558C22.3721,19.894,20.4917,22.5116,18.186,22.5116C15.8804,22.5116,14,19.894,14,19.2558ZM16.6909,19.2558C16.6909,20.0718,17.3616,20.7358,18.186,20.7358C19.0103,20.7358,19.681,20.0718,19.681,19.2558C19.681,18.4398,19.0103,17.7759,18.186,17.7759C17.3616,17.7759,16.6909,18.4398,16.6909,19.2558Z" fill-rule="evenodd"></path><path d="M7.75 8L16.25 8Q16.348489999999998 8 16.44509 8.019214999999999 16.54169 8.03843 16.63268 8.076121 16.72368 8.113812 16.80557 8.16853 16.88746 8.223249 16.95711 8.292893 17.02675 8.362537 17.08147 8.44443 17.13619 8.526322 17.17388 8.617317 17.211570000000002 8.708311 17.23078 8.80491 17.25 8.9015086 17.25 9 17.25 9.0984914 17.23078 9.19509 17.211570000000002 9.291689 17.17388 9.382683 17.13619 9.473678 17.08147 9.55557 17.02675 9.637463 16.95711 9.707107 16.88746 9.776751 16.80557 9.83147 16.72368 9.886188 16.63268 9.923879 16.54169 9.96157 16.44509 9.980785000000001 16.348489999999998 10 16.25 10L7.75 10Q7.6515086 10 7.55491 9.980785000000001 7.458311 9.96157 7.367317 9.923879 7.276322 9.886188 7.19443 9.83147 7.112537 9.776751 7.042893 9.707107 6.973249 9.637463 6.91853 9.55557 6.863812 9.473678 6.826121 9.382683 6.78843 9.291689 6.769215 9.19509 6.75 9.0984914 6.75 9 6.75 8.9015086 6.769215 8.80491 6.78843 8.708311 6.826121 8.617317 6.863812 8.526322 6.91853 8.44443 6.973249 8.362537 7.042893 8.292893 7.112537 8.223249 7.19443 8.16853 7.276322 8.113812 7.367317 8.076121 7.458311 8.03843 7.55491 8.019214999999999 7.6515086 8 7.75 8zM7.75 13L16.25 13Q16.348489999999998 13 16.44509 13.019214999999999 16.54169 13.03843 16.63268 13.076121 16.72368 13.113812 16.80557 13.16853 16.88746 13.223249 16.95711 13.292893 17.02675 13.362537 17.08147 13.44443 17.13619 13.526322 17.17388 13.617317 17.211570000000002 13.708311 17.23078 13.80491 17.25 13.9015086 17.25 14 17.25 14.0984914 17.23078 14.19509 17.211570000000002 14.291689 17.17388 14.382683 17.13619 14.473678 17.08147 14.55557 17.02675 14.637463 16.95711 14.707107 16.88746 14.776751 16.80557 14.83147 16.72368 14.886188 16.63268 14.923879 16.54169 14.96157 16.44509 14.980785000000001 16.348489999999998 15 16.25 15L7.75 15Q7.6515086 15 7.55491 14.980785000000001 7.458311 14.96157 7.367317 14.923879 7.276322 14.886188 7.19443 14.83147 7.112537 14.776751 7.042893 14.707107 6.973249 14.637463 6.91853 14.55557 6.863812 14.473678 6.826121 14.382683 6.78843 14.291689 6.769215 14.19509 6.75 14.0984914 6.75 14 6.75 13.9015086 6.769215 13.80491 6.78843 13.708311 6.826121 13.617317 6.863812 13.526322 6.91853 13.44443 6.973249 13.362537 7.042893 13.292893 7.112537 13.223249 7.19443 13.16853 7.276322 13.113812 7.367317 13.076121 7.458311 13.03843 7.55491 13.019214999999999 7.6515086 13 7.75 13z" fill-rule="evenodd"></path></symbol>
<symbol xmlns="http://www.w3.org/2000/svg" fill="none" viewBox="0 0 18 18" id="summary-email"><path d="M11.97232671875,8.90404953125L15.99373671875,12.16039953125L15.99373671875,5.64770721125L11.97232671875,8.90404953125ZM10.37271671875,10.19934953125C9.97671671875,10.52009953125,9.49110671875,10.680459531250001,9.00555671875,10.680459531250001C8.51993671875,10.680459531250001,8.03438671875,10.520079531250001,7.63816671875,10.19926953125L6.79788671875,9.51870953125L2.02883991875,13.38117953125C2.07485551875,13.72817953125,2.24494971875,14.03621953125,2.49368371875,14.25918953125C2.61230871875,14.36551953125,2.7490117187500003,14.45167953125,2.89787071875,14.51432953125C3.06733671875,14.58567953125,3.25274671875,14.62626953125,3.4479767187499997,14.62626953125L14.56083671875,14.62626953125C14.80803671875,14.62626953125,15.03953671875,14.56159953125,15.24233671875,14.45063953125C15.38483671875,14.37267953125,15.51363671875,14.27252953125,15.62193671875,14.15288953125C15.81283671875,13.94191953125,15.94143671875,13.67432953125,15.98023671875,13.37860953125L11.21337671875,9.51860953125L10.37271671875,10.19934953125ZM2.01513671875,5.64501953125L2.01513671875,12.163099531250001L6.03902671875,8.90407953125L2.01513671875,5.64501953125Z" fill="#4772FA"></path><path d="M7.55674509765625,8.9039928125L8.23936509765625,9.4568528125C8.68324509765625,9.8163028125,9.32767509765625,9.8163028125,9.77156509765625,9.4568528125L10.45436509765625,8.9039428125L11.21333509765625,8.2893628125L15.95362509765625,4.4508628125000005C15.80382509765625,3.8199448125,15.23692509765625,3.3486328125,14.56082509765625,3.3486328125L3.44795509765625,3.3486328125C2.77266209765625,3.3486328125,2.20639709765625,3.8188358125,2.05572509765625,4.4486328125L6.79786509765625,8.2893628125L7.55674509765625,8.9039928125Z" fill="#4772FA"></path></symbol>
<symbol xmlns="http://www.w3.org/2000/svg" viewBox="0 0 24 24" id="summary-list"><path d="M5.4837,1.50048828125C3.28355,1.50048828125,1.5,3.29134828125,1.5,5.50048828125L1.5,18.50048828125C1.5,20.70958828125,3.28357,22.50048828125,5.48372,22.50048828125L15.6994,22.50048828125C16.227600000000002,22.50048828125,16.734299999999998,22.28958828125,17.1079,21.91458828125L21.9166,17.086388281250002C22.2901,16.711388281250002,22.5,16.20228828125,22.5,15.67188828125L22.5,5.50048828125C22.5,3.29134828125,20.7164,1.50048828125,18.5163,1.50048828125L5.4837,1.50048828125ZM4.07532,4.08642828125Q3.49188,4.67205828125,3.49188,5.50048828125L3.49186,18.50048828125Q3.4918899999999997,19.32878828125,4.07529,19.91458828125Q4.658659999999999,20.50048828125,5.48372,20.50048828125L15.6994,20.50048828125L20.5081,15.67188828125L20.5081,5.50048828125Q20.5081,4.6722082812500005,19.9247,4.08642828125Q19.3414,3.50048828125,18.5163,3.50048828125L5.4837,3.50048828125Q4.658720000000001,3.50063828125,4.07532,4.08642828125ZM8,9.00048828125C7.44772,9.00048828125,7,8.55276828125,7,8.00048828125C7,7.44820828125,7.44772,7.00048828125,8,7.00048828125L16,7.00048828125C16.552300000000002,7.00048828125,17,7.44820828125,17,8.00048828125C17,8.55276828125,16.552300000000002,9.00048828125,16,9.00048828125L8,9.00048828125ZM8,14.00048828125C7.44772,14.00048828125,7,13.55278828125,7,13.00048828125C7,12.44818828125,7.44772,12.00048828125,8,12.00048828125L13,12.00048828125C13.5523,12.00048828125,14,12.44818828125,14,13.00048828125C14,13.55278828125,13.5523,14.00048828125,13,14.00048828125L8,14.00048828125Z" fill-rule="evenodd"></path></symbol>
<symbol xmlns="http://www.w3.org/2000/svg" viewBox="0 0 20 20" id="summary-markdown"><g fill="none" fill-rule="evenodd"><path fill="none" d="M0 0H20V20H0z"></path><g fill-rule="nonzero"><path d="M0,1.07692308 C0,0.482154885 0.485024854,0 1.08333333,0 L8.66666667,0 L13,4.30769231 L13,12.9230769 C13,13.5178451 12.5149751,14 11.9166667,14 L1.08333333,14 C0.485024854,14 0,13.5178451 0,12.9230769 L0,1.07692308 Z" fill="#483ECC" transform="translate(3 3)"></path><path d="M5.504,10 L5.528,6.994 L5.51,6.994 L4.406,10 L3.686,10 L2.612,6.994 L2.594,6.994 L2.618,10 L1.652,10 L1.652,5.752 L3.11,5.752 L4.076,8.476 L4.1,8.476 L5.024,5.752 L6.506,5.752 L6.506,10 L5.504,10 Z M11.348,7.864 C11.348,8.23600186 11.2790007,8.55699865 11.141,8.827 C11.0029993,9.09700135 10.8210011,9.31899913 10.595,9.493 C10.3689989,9.66700087 10.1140014,9.79499959 9.83,9.877 C9.54599858,9.95900041 9.25800146,10 8.966,10 L7.382,10 L7.382,5.752 L8.918,5.752 C9.2180015,5.752 9.51399854,5.78699965 9.806,5.857 C10.0980015,5.92700035 10.3579989,6.04299919 10.586,6.205 C10.8140011,6.36700081 10.9979993,6.58399864 11.138,6.856 C11.2780007,7.12800136 11.348,7.463998 11.348,7.864 Z M10.28,7.864 C10.28,7.6239988 10.2410004,7.42500079 10.163,7.267 C10.0849996,7.10899921 9.98100065,6.98300047 9.851,6.889 C9.72099935,6.79499953 9.57300083,6.7280002 9.407,6.688 C9.24099917,6.6479998 9.07000088,6.628 8.894,6.628 L8.384,6.628 L8.384,9.112 L8.87,9.112 C9.05400092,9.112 9.23099915,9.09100021 9.401,9.049 C9.57100085,9.00699979 9.72099935,8.93800048 9.851,8.842 C9.98100065,8.74599952 10.0849996,8.6180008 10.163,8.458 C10.2410004,8.2979992 10.28,8.10000118 10.28,7.864 Z" fill="#FFFFFF" transform="translate(3 3)"></path><path d="M8.66852163,0 L13,4.33147837 L9.75139123,4.33147837 C9.15333886,4.33147837 8.66852163,3.84666114 8.66852163,3.24860877 L8.66852163,0 Z" fill="#231AAD" transform="translate(3 3)"></path></g></g></symbol>
<symbol xmlns="http://www.w3.org/2000/svg" fill="none" viewBox="0 0 18 18" id="summary-pdf"><path d="M16,5.54375L16,15.875C16,16.2202,15.7151,16.5,15.3636,16.5L2.6363630000000002,16.5C2.284909,16.5,2,16.2202,2,15.875L2,2.125C1.9999999271741,1.779822,2.284909,1.5,2.6363630000000002,1.5L11.88271,1.5L16,5.54375Z" fill="#FC5A5A"></path><path d="M4,8.5L4,12.5L4.627622,12.5L4.627622,10.96603L5.57867,10.96603C6.51224,10.96603,6.98077,10.55016,6.98077,9.72754C6.98077,8.908573,6.51224,8.5,5.58916,8.5L4,8.5ZM4.627622,9.059963L5.54021,9.059963C5.81469,9.059963,6.01923,9.111035,6.146850000000001,9.216826C6.27622,9.317145,6.34615,9.486776,6.34615,9.72754C6.34615,9.96831,6.2814700000000006,10.14159,6.15385,10.24738C6.0244800000000005,10.34952,5.81993,10.40424,5.54021,10.40424L4.627622,10.40424L4.627622,9.059963ZM7.4685299999999994,8.5L7.4685299999999994,12.5L8.86888,12.5C9.49301,12.5,9.95979,12.32125,10.281469999999999,11.963750000000001C10.58916,11.62084,10.74476,11.13384,10.74476,10.500910000000001C10.74476,9.86069,10.58916,9.373689,10.281469999999999,9.038076C9.95979,8.67875,9.49301,8.5,8.86888,8.5L7.4685299999999994,8.5ZM8.09615,9.059963L8.751750000000001,9.059963C9.22902,9.059963,9.578669999999999,9.173051,9.79895,9.402873C10.01399,9.625399999999999,10.12063,9.99567,10.12063,10.500910000000001C10.12063,10.99339,10.01399,11.35819,9.79895,11.59348C9.578669999999999,11.8233,9.22902,11.94004,8.751750000000001,11.94004L8.09615,11.94004L8.09615,9.059963ZM11.38462,8.5L11.38462,12.5L12.01224,12.5L12.01224,10.73073L13.88636,10.73073L13.88636,10.16895L12.01224,10.16895L12.01224,9.059963L14,9.059963L14,8.5L11.38462,8.5Z" fill="#FFFFFF"></path><path d="M11.882732391357422,4.91875L11.882732391357422,1.5L16.000002391357423,5.54375L12.519094391357422,5.54375C12.167641391357423,5.54375,11.882732391357422,5.26393,11.882732391357422,4.91875Z" fill="#C33232"></path></symbol>
<symbol xmlns="http://www.w3.org/2000/svg" viewBox="0 0 20 20" id="summary-plainText"><g fill="none" fill-rule="evenodd"><path d="M0 0H20V20H0z"></path><path d="M0,1.07692308 C0,0.482154885 0.485024854,0 1.08333333,0 L8.66666667,0 L13,4.30769231 L13,12.9230769 C13,13.5178451 12.5149751,14 11.9166667,14 L1.08333333,14 C0.485024854,14 0,13.5178451 0,12.9230769 L0,1.07692308 Z" fill="#3ECCB2" fill-rule="nonzero" transform="translate(3 3)"></path><text font-family="AvenirNext-Bold, Avenir Next" font-size="9" font-weight="bold" fill="#FFFFFF" transform="translate(3 3)"><tspan x="4" y="13">T</tspan></text><path d="M8.66852163,0 L13,4.33147837 L9.75139123,4.33147837 C9.15333886,4.33147837 8.66852163,3.84666114 8.66852163,3.24860877 L8.66852163,0 Z" fill="#1AAD93" fill-rule="nonzero" transform="translate(3 3)"></path></g></symbol>
<symbol xmlns="http://www.w3.org/2000/svg" fill="none" viewBox="0 0 18 18" id="summary-png"><path d="M16,5.54375L16,15.875C16,16.2202,15.7151,16.5,15.3636,16.5L2.6363630000000002,16.5C2.284909,16.5,2,16.2202,2,15.875L2,2.125C1.9999999271741,1.779822,2.284909,1.5,2.6363630000000002,1.5L11.88271,1.5L16,5.54375Z" fill="#FFC64D"></path><path d="M11.882732391357422,4.91875L11.882732391357422,1.5L16.000002391357423,5.54375L12.519094391357422,5.54375C12.167641391357423,5.54375,11.882732391357422,5.26393,11.882732391357422,4.91875Z" fill="#EEB02C"></path><path d="M4,8.0754384L4,11.92281L4.5840250000000005,11.92281L4.5840250000000005,10.44737L5.46901,10.44737C6.3377300000000005,10.44737,6.7737099999999995,10.04737,6.7737099999999995,9.25614C6.7737099999999995,8.468421,6.3377300000000005,8.0754384,5.47877,8.0754384L4,8.0754384ZM4.5840250000000005,8.614035L5.43322,8.614035C5.68863,8.614035,5.87897,8.663158,5.99772,8.764912C6.11811,8.861403,6.18318,9.02456,6.18318,9.25614C6.18318,9.48772,6.12299,9.65439,6.00423,9.75614C5.88385,9.85439,5.69351,9.90702,5.43322,9.90702L4.5840250000000005,9.90702L4.5840250000000005,8.614035ZM7.22759,8.0754384L7.22759,11.92281L7.81162,11.92281L7.81162,9.11053L7.8311399999999995,9.11053L9.61575,11.92281L10.185130000000001,11.92281L10.185130000000001,8.0754384L9.59623,8.0754384L9.59623,10.85088L9.576699999999999,10.85088L7.81162,8.0754384L7.22759,8.0754384ZM12.42037,8C11.89003,8,11.47031,8.192982,11.16122,8.592982C10.86514,8.964912,10.72035,9.438600000000001,10.72035,10.015789999999999C10.72035,10.587720000000001,10.86514,11.05614,11.16122,11.417539999999999C11.47519,11.80526,11.91606,12,12.48544,12C12.80592,12,13.09061,11.95614,13.34928,11.87018C13.59492,11.78421,13.80966,11.664909999999999,14,11.50351L14,9.87544L12.4708,9.87544L12.4708,10.41403L13.41435,10.41403L13.41435,11.20702C13.29559,11.28246,13.17033,11.34211,13.03042,11.38421C12.88076,11.42807,12.7197,11.44912,12.55051,11.44912C12.11616,11.44912,11.795670000000001,11.3193,11.5907,11.061399999999999C11.40036,10.8193,11.306000000000001,10.46842,11.306000000000001,10.015789999999999C11.306000000000001,9.542110000000001,11.41012,9.1807,11.62486,8.921053C11.82008,8.673684,12.08525,8.554386000000001,12.42037,8.554386000000001C12.69042,8.554386000000001,12.91004,8.614035,13.07435,8.738596C13.2354,8.861403,13.3444,9.04561,13.39483,9.29298L13.98536,9.29298C13.92029,8.861403,13.75923,8.543859,13.50545,8.32807C13.24028,8.107017,12.88076,8,12.42037,8Z" fill="#FFFFFF"></path></symbol>
<symbol xmlns="http://www.w3.org/2000/svg" viewBox="0 0 20 20" id="summary-richText"><g fill="none" fill-rule="evenodd"><path d="M0 0H20V20H0z"></path><g fill-rule="nonzero"><path d="M0,1.07692308 C0,0.482154885 0.485024854,0 1.08333333,0 L8.66666667,0 L13,4.30769231 L13,12.9230769 C13,13.5178451 12.5149751,14 11.9166667,14 L1.08333333,14 C0.485024854,14 0,13.5178451 0,12.9230769 L0,1.07692308 Z" fill="#CC3E3E" transform="translate(3 3)"></path><path fill="#FFFFFF" d="M5.6325 5.942L5.6325 11 4.0935 11 4.0935 5.942 2.2935 5.942 2.2935 4.628 7.4325 4.628 7.4325 5.942zM9.5665 11L9.2365 10.166 7.5925 10.166 7.2805 11 6.1645 11 7.9465 6.752 8.9425 6.752 10.7065 11 9.5665 11zM8.4265 7.886L7.8865 9.344 8.9545 9.344 8.4265 7.886z" transform="translate(3 3)"></path><path d="M8.66852163,0 L13,4.33147837 L9.75139123,4.33147837 C9.15333886,4.33147837 8.66852163,3.84666114 8.66852163,3.24860877 L8.66852163,0 Z" fill="#AD1A1A" transform="translate(3 3)"></path></g></g></symbol>
<symbol xmlns="http://www.w3.org/2000/svg" fill="none" viewBox="0 0 18 18" id="summary-template"><path d="M4.4705915451049805,3.5L13.83822154510498,3.5Q13.90340154510498,3.5,13.967331545104981,3.51272Q14.03125154510498,3.52543,14.09147154510498,3.55037Q14.151691545104981,3.57532,14.205881545104981,3.61153Q14.26007154510498,3.6477399999999998,14.306161545104981,3.69383Q14.35225154510498,3.73991,14.388461545104981,3.79411Q14.42467154510498,3.8483,14.44961154510498,3.90852Q14.47459154510498,3.96873,14.48729154510498,4.03266Q14.499991545104981,4.09659,14.499991545104981,4.16176L14.499991545104981,13.5294L15.33819154510498,13.5294Q15.40339154510498,13.5294,15.467291545104981,13.5167Q15.531291545104981,13.504,15.591491545104981,13.479Q15.651691545104981,13.4541,15.705891545104981,13.4179Q15.76009154510498,13.3816,15.80619154510498,13.3356Q15.85229154510498,13.2895,15.88849154510498,13.2353Q15.92469154510498,13.1811,15.94959154510498,13.1209Q15.97459154510498,13.0606,15.98729154510498,12.9967Q15.999991545104981,12.9328,15.999991545104981,12.8676L15.999991545104981,2.661765Q15.999991545104981,2.596587,15.98729154510498,2.532661Q15.97459154510498,2.468735,15.94959154510498,2.408518Q15.92469154510498,2.348302,15.88849154510498,2.294108Q15.85229154510498,2.239914,15.80619154510498,2.193826Q15.76009154510498,2.147739,15.705891545104981,2.111527Q15.651691545104981,2.0753164,15.591491545104981,2.0503738Q15.531291545104981,2.0254312,15.467291545104981,2.0127156Q15.40339154510498,2,15.33819154510498,2L5.13235654510498,2Q5.06717854510498,2,5.0032525451049805,2.0127156Q4.93932654510498,2.0254312,4.87910954510498,2.0503738Q4.818893545104981,2.0753164,4.76469954510498,2.111527Q4.71050554510498,2.147739,4.66441754510498,2.193826Q4.61833054510498,2.239914,4.58211854510498,2.294108Q4.545907945104981,2.348302,4.5209653451049805,2.408518Q4.49602274510498,2.468735,4.48330714510498,2.532661Q4.4705915451049805,2.596587,4.4705915451049805,2.661765L4.4705915451049805,3.5Z" fill-rule="evenodd" fill="#4772FA"></path><path d="M2,15.338215863800048L2,5.132349863800049Q2,5.0671718638000485,2.0127156,5.003245863800049Q2.0254312,4.939320863800049,2.0503738,4.879103863800049Q2.0753164,4.818886863800049,2.111527,4.7646928638000485Q2.147739,4.710499863800049,2.193826,4.664411863800049Q2.239914,4.618323863800049,2.294108,4.582112863800049Q2.348302,4.545901763800049,2.408518,4.520959163800049Q2.468735,4.496016563800048,2.532661,4.4833009638000485Q2.596587,4.470585346200049,2.661765,4.470585346200049L12.8676,4.470585346200049Q12.9328,4.470585346200049,12.9967,4.4833009638000485Q13.0607,4.496016563800048,13.1209,4.520959163800049Q13.1811,4.545901763800049,13.2353,4.582112863800049Q13.2895,4.618323863800049,13.3356,4.664411863800049Q13.3817,4.710499863800049,13.4179,4.7646928638000485Q13.4541,4.818886863800049,13.479,4.879103863800049Q13.504,4.939320863800049,13.5167,5.003245863800049Q13.5294,5.0671718638000485,13.5294,5.132349863800049L13.5294,15.338215863800048Q13.5294,15.40341586380005,13.5167,15.46731586380005Q13.504,15.53121586380005,13.479,15.591415863800048Q13.4541,15.651615863800048,13.4179,15.70581586380005Q13.3817,15.76001586380005,13.3356,15.806115863800049Q13.2895,15.85221586380005,13.2353,15.888415863800049Q13.1811,15.92461586380005,13.1209,15.949615863800048Q13.0607,15.974515863800049,12.9967,15.98721586380005Q12.9328,16.00001586380005,12.8676,16.00001586380005L2.661765,16.00001586380005Q2.596587,16.00001586380005,2.532661,15.98721586380005Q2.468735,15.974515863800049,2.408518,15.949615863800048Q2.348302,15.92461586380005,2.294108,15.888415863800049Q2.239914,15.85221586380005,2.193826,15.806115863800049Q2.147739,15.76001586380005,2.111527,15.70581586380005Q2.0753164,15.651615863800048,2.0503738,15.591415863800048Q2.0254312,15.53121586380005,2.0127156,15.46731586380005Q2,15.40341586380005,2,15.338215863800048ZM4.47058,8.588485863800049Q4.47058,8.50737586380005,4.4864,8.427825863800049Q4.50223,8.348265863800048,4.53327,8.27333586380005Q4.56431,8.198395863800048,4.60937,8.130955863800049Q4.65443,8.063515863800049,4.711790000000001,8.00616586380005Q4.76914,7.9488058638000485,4.83658,7.903745863800049Q4.90402,7.858685863800049,4.97896,7.827645863800049Q5.05389,7.796605863800049,5.13345,7.780785863800048Q5.213,7.764955863800049,5.29411,7.764955863800049L10.23528,7.764955863800049Q10.31639,7.764955863800049,10.39594,7.780785863800048Q10.47549,7.796605863800049,10.55043,7.827645863800049Q10.62537,7.858685863800049,10.69281,7.903745863800049Q10.76025,7.9488058638000485,10.8176,8.00616586380005Q10.87496,8.063515863800049,10.92002,8.130955863800049Q10.96508,8.198395863800048,10.99612,8.27333586380005Q11.02716,8.348265863800048,11.04298,8.427825863800049Q11.05881,8.50737586380005,11.05881,8.588485863800049Q11.05881,8.669595863800048,11.04298,8.749145863800049Q11.02716,8.82869586380005,10.99612,8.903635863800048Q10.96508,8.97857586380005,10.92002,9.046015863800049Q10.87496,9.113455863800048,10.8176,9.170805863800048Q10.76025,9.228155863800048,10.69281,9.273225863800048Q10.62537,9.31828586380005,10.55043,9.349325863800049Q10.47549,9.380365863800048,10.39594,9.39618586380005Q10.31639,9.412015863800049,10.23528,9.412015863800049L5.29411,9.412015863800049Q5.213,9.412015863800049,5.13345,9.39618586380005Q5.05389,9.380365863800048,4.97896,9.349325863800049Q4.90402,9.31828586380005,4.83658,9.273225863800048Q4.76914,9.228155863800048,4.711790000000001,9.170805863800048Q4.65443,9.113455863800048,4.60937,9.046015863800049Q4.56431,8.97857586380005,4.53327,8.903635863800048Q4.50223,8.82869586380005,4.4864,8.749145863800049Q4.47058,8.669595863800048,4.47058,8.588485863800049ZM5.29411,11.05879586380005Q5.213,11.05879586380005,5.13345,11.074615863800048Q5.05389,11.09044586380005,4.97896,11.12148586380005Q4.90402,11.152525863800049,4.83658,11.197585863800049Q4.76914,11.24264586380005,4.711790000000001,11.300005863800049Q4.65443,11.357355863800048,4.60937,11.42479586380005Q4.56431,11.49223586380005,4.53327,11.567175863800049Q4.50223,11.64210586380005,4.4864,11.721665863800048Q4.47058,11.80121586380005,4.47058,11.882325863800048Q4.47058,11.963435863800049,4.4864,12.042985863800048Q4.50223,12.12253586380005,4.53327,12.197475863800049Q4.56431,12.27240586380005,4.60937,12.339845863800049Q4.65443,12.407295863800048,4.711790000000001,12.46464586380005Q4.76914,12.521995863800049,4.83658,12.56706586380005Q4.90402,12.612125863800049,4.97896,12.643165863800048Q5.05389,12.674205863800049,5.13345,12.690025863800049Q5.213,12.705855863800048,5.29411,12.705855863800048L7.7647,12.705855863800048Q7.84581,12.705855863800048,7.92536,12.690025863800049Q8.004909999999999,12.674205863800049,8.07985,12.643165863800048Q8.154779999999999,12.612125863800049,8.22222,12.56706586380005Q8.28966,12.521995863800049,8.34702,12.46464586380005Q8.40437,12.407295863800048,8.44943,12.339845863800049Q8.4945,12.27240586380005,8.52554,12.197475863800049Q8.55658,12.12253586380005,8.5724,12.042985863800048Q8.58822,11.963435863800049,8.58822,11.882325863800048Q8.58822,11.80121586380005,8.5724,11.721665863800048Q8.55658,11.64210586380005,8.52554,11.567175863800049Q8.4945,11.49223586380005,8.44943,11.42479586380005Q8.40437,11.357355863800048,8.34702,11.300005863800049Q8.28966,11.24264586380005,8.22222,11.197585863800049Q8.154779999999999,11.152525863800049,8.07985,11.12148586380005Q8.004909999999999,11.09044586380005,7.92536,11.074615863800048Q7.84581,11.05879586380005,7.7647,11.05879586380005L5.29411,11.05879586380005Z" fill-rule="evenodd" fill="#4772FA"></path></symbol>
</svg>