<svg xmlns="http://www.w3.org/2000/svg" xmlns:xlink="http://www.w3.org/1999/xlink" style="position: absolute; width: 0; height: 0" aria-hidden="true" id="__SVG_SPRITE_NODE__">
<symbol xmlns="http://www.w3.org/2000/svg" viewBox="0 0 12 12" id="tag-close"><path d="M6,12c-3.3,0-6-2.7-6-6s2.7-6,6-6s6,2.7,6,6S9.3,12,6,12z M6.8,6.1L9,4L8.1,3.2L6,5.3L3.9,3.2L3,4l2.1,2.1 L3,8.3l0.8,0.8L6,7l2.1,2.1L9,8.3L6.8,6.1z" fill-rule="evenodd" clip-rule="evenodd"></path></symbol>
<symbol xmlns="http://www.w3.org/2000/svg" viewBox="0 0 24 24" id="tag-create"><path d="M12.1,19.2c0.3-0.6,0.4-1.2,0.4-1.9c0-2.6-2.1-4.6-4.6-4.6c-0.7,0-1.3,0.1-1.9,0.4l-0.8-0.8 c-0.3-0.3-0.5-0.8-0.5-1.3l0.2-5.6c0-0.7,0.6-1.2,1.2-1.2L11.6,4c0.5,0,0.9,0.2,1.3,0.5l7.2,7.2c0.7,0.7,0.7,1.7,0,2.4l-5.4,5.4 c-0.7,0.7-1.7,0.7-2.4,0L12.1,19.2z M10.9,10.2c0.7-0.7,0.7-1.7,0-2.4c-0.7-0.7-1.7-0.7-2.4,0s-0.7,1.7,0,2.4 C9.2,10.9,10.2,10.9,10.9,10.2z M7.1,16.7H6c-0.3,0-0.6,0.3-0.6,0.6c0,0.3,0.3,0.6,0.6,0.6h1.1V19c0,0.3,0.3,0.6,0.6,0.6 c0.3,0,0.6-0.3,0.6-0.6v-1.1h1.1c0.3,0,0.6-0.3,0.6-0.6c0-0.3-0.3-0.6-0.6-0.6H8.3v-1.1C8.3,15.2,8,15,7.7,15 c-0.3,0-0.6,0.3-0.6,0.6V16.7z M5.3,19.7c-1.3-1.3-1.3-3.5,0-4.8c1.3-1.3,3.5-1.3,4.8,0c1.3,1.3,1.3,3.5,0,4.8 C8.8,21,6.6,21,5.3,19.7z" fill-rule="evenodd" clip-rule="evenodd"></path></symbol>
<symbol xmlns="http://www.w3.org/2000/svg" viewBox="0 0 24 24" id="tag-item"><g data-name="图层 2"><g data-name="图层 1"><path fill="none" d="M0 0H24V24H0z"></path><path d="M19.9,11.9,12.3,4.3a1.49,1.49,0,0,0-.8-.3h-6A1.54,1.54,0,0,0,4,5.5v6a1.49,1.49,0,0,0,.4.9L12,20a1.45,1.45,0,0,0,2.1,0L20,14.1A1.68,1.68,0,0,0,19.9,11.9Zm-.7,1.5-5.9,5.9a.48.48,0,0,1-.7,0L5.1,11.6,5,11.5v-6A.47.47,0,0,1,5.5,5h6l.1.1,7.6,7.6C19.4,12.8,19.4,13.2,19.2,13.4Z"></path><path d="M9,7a2,2,0,1,0,2,2A2,2,0,0,0,9,7Zm0,3A.94.94,0,0,1,8,9,.94.94,0,0,1,9,8a.94.94,0,0,1,1,1A.94.94,0,0,1,9,10Z"></path></g></g></symbol>
<symbol xmlns="http://www.w3.org/2000/svg" viewBox="0 0 24 24" id="tag"><path d="M16.812199980926515,21.054799980926514C15.250099980926514,22.616899980926515,12.717399980926514,22.616899980926515,11.155309980926514,21.054799980926514L3.318579980926514,13.218099980926514C2.633474980926514,12.532999980926514,2.2203219809265136,11.622469980926514,2.1558719809265137,10.655729980926514L1.7768039709265138,4.969719980926514C1.6560669809265136,3.1586599809265135,3.1586599809265135,1.6560669809265136,4.969719980926514,1.7768039709265138L10.655729980926514,2.1558709809265135C11.622479980926514,2.220320980926514,12.532999980926514,2.6334739809265137,13.218099980926514,3.318579980926514L21.054899980926514,11.155379980926513C22.616899980926515,12.717499980926513,22.616899980926515,15.250099980926514,21.054899980926514,16.812199980926515L16.812199980926515,21.054799980926514ZM13.983699980926513,20.226399980926512Q13.155299980926515,20.226399980926512,12.569599980926514,19.640599980926513L4.732799980926513,11.803899980926513Q4.201429980926514,11.272499980926513,4.151439980926513,10.522689980926513L3.7723699809265137,4.8366799809265135Q3.742189980926514,4.383909980926514,4.063049980926514,4.063049980926514Q4.383919980926514,3.742189980926514,4.8366799809265135,3.7723699809265137L10.522689980926513,4.151439980926513Q11.272499980926513,4.201429980926514,11.803899980926513,4.732799980926513L19.640599980926513,12.569599980926514Q20.226399980926512,13.155299980926515,20.226399980926512,13.983699980926513Q20.226399980926512,14.812199980926513,19.640599980926513,15.397899980926514L15.397999980926514,19.640599980926513Q14.812199980926513,20.226399980926512,13.983699980926513,20.226399980926512ZM6.6236799809265134,8.745019980926514C6.037899980926514,8.159229980926515,6.037899980926514,7.209519980926514,6.6236799809265134,6.623729980926513C7.209469980926514,6.037939980926514,8.159199980926513,6.037909980926513,8.744989980926514,6.623699980926514C9.330779980926515,7.209489980926514,9.330779980926515,8.159279980926513,8.744989980926514,8.745069980926512C8.159199980926513,9.330849980926514,7.209469980926514,9.330809980926514,6.6236799809265134,8.745019980926514Z" fill-rule="evenodd"></path></symbol>
</svg>