<svg xmlns="http://www.w3.org/2000/svg" xmlns:xlink="http://www.w3.org/1999/xlink" style="position: absolute; width: 0; height: 0" aria-hidden="true" id="__SVG_SPRITE_NODE__">
<symbol xmlns="http://www.w3.org/2000/svg" viewBox="0 0 24 24" id="taskStatistics"><path d="M215.154172,18 C216.49145,18 216.97638,18.1392384 217.465269,18.4006991 C217.954157,18.6621597 218.33784,19.0458426 218.599301,19.5347314 C218.860762,20.0236203 219,20.5085497 219,21.8458278 L219,32.1541722 C219,33.4914503 218.860762,33.9763797 218.599301,34.4652686 C218.33784,34.9541574 217.954157,35.3378403 217.465269,35.5993009 C216.97638,35.8607616 216.49145,36 215.154172,36 L204.845828,36 C203.50855,36 203.02362,35.8607616 202.534731,35.5993009 C202.045843,35.3378403 201.66216,34.9541574 201.400699,34.4652686 C201.139238,33.9763797 201,33.4914503 201,32.1541722 L201,21.8458278 C201,20.5085497 201.139238,20.0236203 201.400699,19.5347314 C201.66216,19.0458426 202.045843,18.6621597 202.534731,18.4006991 C203.02362,18.1392384 203.50855,18 204.845828,18 L215.154172,18 Z M215.682722,22.9056661 C215.315032,22.6075069 214.775254,22.6638731 214.477095,23.0315635 L214.477095,23.0315635 L208.851684,29.1116861 L206.34984,26.346956 C206.032208,25.9959493 205.490171,25.968893 205.139164,26.2865241 C204.788157,26.6041551 204.761101,27.1461931 205.078732,27.4971998 L205.078732,27.4971998 L208.251809,31.0036933 C208.604588,31.3935417 209.221972,31.3768147 209.553125,30.9684365 L209.553125,30.9684365 L215.80862,24.1112936 C216.106779,23.7436032 216.050413,23.2038254 215.682722,22.9056661 Z" transform="translate(-198 -15)" fill-rule="evenodd"></path></symbol>
</svg>