<svg xmlns="http://www.w3.org/2000/svg" xmlns:xlink="http://www.w3.org/1999/xlink" style="position: absolute; width: 0; height: 0" aria-hidden="true" id="__SVG_SPRITE_NODE__">
<symbol xmlns="http://www.w3.org/2000/svg" viewBox="0 0 18 18" id="team-create"><g style="mix-blend-mode:passthrough"><g style="mix-blend-mode:passthrough"><path d="M20.78941584350586,15.499979921875C21.25450584350586,15.499979921875,21.63152584350586,15.122959921875001,21.63152584350586,14.657879921875L21.63152584350586,12.661219921875L23.94509584350586,12.661219921875C24.37267584350586,12.661219921875,24.71929584350586,12.314609921875,24.71929584350586,11.887029921875C24.71929584350586,11.459449921875,24.37267584350586,11.112839921875,23.94509584350586,11.112839921875L21.63152584350586,11.112839921875L21.63152584350586,9.116274921875C21.63152584350586,8.651192921875,21.25450584350586,8.274169921875,20.78941584350586,8.274169921875C20.32433584350586,8.274169921875,19.94731584350586,8.651192921875,19.94731584350586,9.116274921875L19.94731584350586,11.112839921875L17.63383984350586,11.112839921875C17.20626484350586,11.112839921875,16.85964584350586,11.459449921875,16.85964584350586,11.887029921875C16.85964584350586,12.314609921875,17.20626484350586,12.661219921875,17.63383984350586,12.661219921875L19.94731584350586,12.661219921875L19.94731584350586,14.657879921875C19.94731584350586,15.122959921875001,20.32433584350586,15.499979921875,20.78941584350586,15.499979921875Z" fill-rule="evenodd" fill="#A3A3A3" transform="matrix(-1 0 0 1 33.72 0)"></path><path d="M28.9692921786499,5.1C28.9692921786499,3.6641500000000002,27.7379821786499,2.5,26.2192921786499,2.5C24.700602178649902,2.5,23.4692921786499,3.6641500000000002,23.4692921786499,5.1C23.4692921786499,6.53585,24.700602178649902,7.69999,26.2192921786499,7.69999C27.7379821786499,7.69999,28.9692921786499,6.53585,28.9692921786499,5.1ZM25.3026321786499,5.1C25.3026321786499,4.621449999999999,25.713132178649904,4.23334,26.219302178649905,4.23334C26.725462178649902,4.23334,27.1359721786499,4.621449999999999,27.1359721786499,5.1C27.1359721786499,5.5785599999999995,26.725462178649902,5.966670000000001,26.219302178649905,5.966670000000001C25.713132178649904,5.966670000000001,25.3026321786499,5.5785599999999995,25.3026321786499,5.1ZM22.551804178649903,15.5L31.0526221786499,15.5C31.4206221786499,15.5,31.719322178649904,15.1493,31.719322178649904,14.7172L31.719322178649904,12.03521C31.719322178649904,11.34244,31.4126321786499,10.67237,30.9526321786499,10.2387L30.776672178649903,10.07779L30.583272178649903,9.9134C29.772272178649903,9.252189999999999,28.497572178649904,8.56665,26.2192921786499,8.56665C24.660042178649903,8.56665,23.547922178649902,8.88775,22.736792178649903,9.302399999999999L22.736792178649903,10.00755L23.945102178649904,10.00755Q24.581102178649903,10.00755,25.0649221786499,10.37496C25.409572178649903,10.32537,25.791512178649903,10.299990000000001,26.219302178649905,10.299990000000001C27.932472178649903,10.299990000000001,28.836172178649903,10.69072,29.6577221786499,11.46572L29.710282178649905,11.52352C29.811422178649902,11.65153,29.8859721786499,11.84939,29.8859721786499,12.03522L29.8859721786499,13.7667L22.736792178649903,13.7667L22.736792178649903,14.6579Q22.736792178649903,15.1172,22.551804178649903,15.5ZM23.1382221786499,11.11281L21.6315279006999,11.11281L21.6315279006999,10.04711L21.631519317629902,10.04712L21.631519317629902,11.11284L23.138192178649902,11.11284L23.1382221786499,11.11281ZM21.6315279006999,12.6612L21.6315279006999,14.6579L21.6315279004199,14.6579L21.6315279006999,12.6612Z" fill-rule="evenodd" transform="matrix(-1 0 0 1 33.72 0)"></path></g></g></symbol>
<symbol xmlns="http://www.w3.org/2000/svg" viewBox="0 0 24 24" id="team-disband"><path d="M12,10.33333C14.5774,10.33333,16.6667,8.244,16.6667,5.66667C16.6667,3.08934,14.5774,1,12,1C9.42271,1,7.33337,3.08934,7.33337,5.66667C7.33337,8.244,9.42271,10.33333,12,10.33333ZM13.8857,3.78105Q14.6667,4.5621,14.6667,5.66667Q14.6667,6.77124,13.8857,7.55229Q13.1046,8.33333,12,8.33333Q10.89547,8.33333,10.11442,7.55229Q9.33337,6.77124,9.33337,5.66667Q9.33337,4.5621,10.11442,3.78105Q10.89547,3,12,3Q13.1046,3,13.8857,3.78105ZM9.5,13.6667L14.5071,13.6667C14.7302,13.6667,14.9537,13.7028,15.1754,13.7622C15.8941,13.9547,16.6693,13.5273,16.6715,12.7833C16.672800000000002,12.3278,16.365299999999998,11.9227,15.919,11.8314Q15.1134,11.6667,14.5071,11.6667L9.5,11.6667C5.08172,11.6667,1.5,14.5818,1.5,19.0001C1.5,21.2092,3.29086,23.0001,5.5,23.0001L12.5,23C13.0523,23,13.5,22.5523,13.5,22C13.5,21.4477,13.0523,21,12.5,21L5.5,21.0001Q4.67157,21.0001,4.085789999999999,20.4143Q3.5,19.8285,3.5,19.0001C3.5,15.929,6.57195,13.6669,9.5,13.6667ZM18.3986,19.9143L20.6914,22.207C20.8789,22.3946,21.1333,22.5,21.3986,22.5C21.6638,22.5,21.9182,22.3946,22.1057,22.207C22.2932,22.0195,22.3986,21.7652,22.3986,21.5C22.3986,21.2348,22.2932,20.9805,22.1051,20.7925L19.8127,18.5L22.1057,16.207C22.2932,16.0195,22.3986,15.7652,22.3986,15.5C22.3986,15.2348,22.2932,14.9803,22.1051,14.7922Q22.097,14.7843,22.0964,14.7837C21.9097,14.6017,21.6593,14.5,21.3986,14.5C21.3686,14.5,21.3386,14.5015,21.3087,14.5042C21.0755,14.5252,20.857,14.6273,20.691,14.7932L18.3986,17.0857L16.1057,14.793C15.9182,14.6054,15.6638,14.5,15.3986,14.5C15.1333,14.5,14.8789,14.6054,14.6914,14.793C14.5039,14.9805,14.3986,15.2348,14.3986,15.5C14.3986,15.7652,14.5039,16.0195,14.6914,16.207L16.9844,18.5L14.6914,20.793C14.5039,20.9805,14.3986,21.2348,14.3986,21.5C14.3986,21.516,14.3989,21.5321,14.3997,21.5481C14.4116,21.7964,14.5156,22.0312,14.6914,22.207C14.8789,22.3946,15.1333,22.5,15.3986,22.5C15.6638,22.5,15.9182,22.3947,16.106099999999998,22.2068L18.3986,19.9143Z" fill-rule="evenodd"></path></symbol>
<symbol xmlns="http://www.w3.org/2000/svg" viewBox="0 0 18 18" id="team-exit"><g style="mix-blend-mode:passthrough"><g style="mix-blend-mode:passthrough"><path d="M26.362559282073974,11.0482953L29.163819282073973,13.3763C29.343439282073973,13.5267,29.433499282073974,13.76419,29.422139282073974,14C29.433499282073974,14.23581,29.343439282073973,14.4733,29.163819282073973,14.6237L26.362559282073974,16.9517C26.265749282073976,17.03216,26.122909282073977,17.00954,26.053919282073974,16.90284L25.535809282073973,16.10152C25.474839282073976,16.00722,25.493939282073974,15.88045,25.579769282073975,15.809709999999999L26.847989282073975,14.76459L22.923097282073975,14.76465C22.806263882073974,14.76465,22.711549282073975,14.66672,22.711549282073975,14.54614L22.711549282073975,13.45386C22.711549282073975,13.33328,22.806263882073974,13.23535,22.923097282073975,13.23535L26.847989282073975,13.23541L25.579769282073975,12.190290000000001C25.493939282073974,12.11955,25.474839282073976,11.992781,25.535809282073973,11.898482L26.053919282073974,11.0971604C26.122909282073977,10.99045509,26.265749282073976,10.967841,26.362559282073974,11.0482953Z" fill-rule="evenodd" transform="translate(-13.423)"></path><path d="M27.250035044784546,5.1Q27.250035044784546,5.22773,27.236785044784547,5.354839999999999Q27.223545044784544,5.48196,27.197185044784547,5.6072299999999995Q27.170835044784546,5.7325099999999996,27.131615044784546,5.85474Q27.092395044784546,5.97697,27.040695044784545,6.09497Q26.988995044784545,6.21298,26.925315044784547,6.32563Q26.861625044784546,6.43827,26.786575044784545,6.54448Q26.711515044784548,6.65068,26.625805044784546,6.74942Q26.540105044784546,6.84815,26.444575044784546,6.93847Q26.349045044784546,7.02879,26.244615044784545,7.10982Q26.140175044784545,7.19085,26.027845044784545,7.26182Q25.915515044784545,7.33278,25.796375044784547,7.39299Q25.677225044784546,7.4532,25.552405044784546,7.50208Q25.427595044784546,7.55096,25.298315044784545,7.58804Q25.169035044784547,7.62512,25.036525044784547,7.65004Q24.904025044784547,7.67496,24.769575044784546,7.68747Q24.635125044784544,7.69999,24.500035044784546,7.69999Q24.364935044784545,7.69999,24.230485044784544,7.68747Q24.096035044784546,7.67496,23.963535044784546,7.65004Q23.831025044784546,7.62512,23.701745044784545,7.58804Q23.572465044784547,7.55096,23.447655044784547,7.50208Q23.322835044784547,7.4532,23.203685044784546,7.39299Q23.084545044784544,7.33278,22.972215044784544,7.26182Q22.859885044784548,7.19085,22.755445044784544,7.10982Q22.651015044784547,7.02879,22.555485044784547,6.93847Q22.459955044784547,6.84815,22.374255044784547,6.74942Q22.288545044784545,6.65068,22.213485044784544,6.54448Q22.138435044784547,6.43828,22.074745044784546,6.32563Q22.011065044784544,6.21298,21.959365044784548,6.09497Q21.907665044784547,5.97697,21.868445044784547,5.85474Q21.829225044784547,5.7325099999999996,21.802875044784546,5.6072299999999995Q21.776515044784546,5.48196,21.763275044784546,5.354839999999999Q21.750035044784546,5.22773,21.750035044784546,5.1Q21.750035044784546,4.97227,21.763275044784546,4.84515Q21.776515044784546,4.71804,21.802875044784546,4.59276Q21.829225044784547,4.46749,21.868445044784547,4.34526Q21.907665044784547,4.22303,21.959365044784548,4.10502Q22.011065044784544,3.9870099999999997,22.074745044784546,3.87437Q22.138435044784547,3.76172,22.213485044784544,3.65552Q22.288545044784545,3.54931,22.374255044784547,3.450576Q22.459955044784547,3.35184,22.555485044784547,3.2615220000000003Q22.651015044784547,3.171203,22.755445044784544,3.090172Q22.859885044784548,3.009141,22.972215044784544,2.938178Q23.084545044784544,2.867216,23.203685044784546,2.807004Q23.322835044784547,2.746793,23.447655044784547,2.697913Q23.572465044784547,2.649033,23.701745044784545,2.611955Q23.831025044784546,2.574877,23.963535044784546,2.5499582Q24.096035044784546,2.5250394,24.230485044784544,2.5125197Q24.364935044784545,2.5,24.500035044784546,2.5Q24.635125044784544,2.5,24.769575044784546,2.5125197Q24.904025044784547,2.5250394,25.036525044784547,2.5499582Q25.169035044784547,2.574877,25.298315044784545,2.611955Q25.427595044784546,2.649033,25.552405044784546,2.697913Q25.677225044784546,2.746793,25.796375044784547,2.807004Q25.915515044784545,2.867216,26.027845044784545,2.938179Q26.140175044784545,3.009141,26.244615044784545,3.090172Q26.349045044784546,3.171203,26.444575044784546,3.2615220000000003Q26.540105044784546,3.35184,26.625805044784546,3.450576Q26.711515044784548,3.54931,26.786575044784545,3.65552Q26.861625044784546,3.76172,26.925315044784547,3.87437Q26.988995044784545,3.9870099999999997,27.040695044784545,4.10502Q27.092395044784546,4.22303,27.131615044784546,4.34526Q27.170835044784546,4.46749,27.197185044784547,4.59276Q27.223545044784544,4.71804,27.236785044784547,4.84515Q27.250035044784546,4.97227,27.250035044784546,5.1ZM25.416615044784546,5.09994Q25.416615044784546,5.1853,25.399005044784545,5.269019999999999Q25.381385044784544,5.35274,25.346835044784548,5.4315999999999995Q25.312285044784545,5.51046,25.262125044784547,5.581440000000001Q25.211965044784545,5.65241,25.148125044784546,5.71277Q25.084285044784547,5.7731200000000005,25.009225044784547,5.82055Q24.934155044784546,5.86797,24.850745044784546,5.90064Q24.767325044784545,5.9333,24.678785044784547,5.949949999999999Q24.590235044784546,5.96661,24.499945044784546,5.96661Q24.409665044784546,5.96661,24.321115044784545,5.949949999999999Q24.232565044784547,5.9333,24.149155044784546,5.90064Q24.065745044784546,5.86797,23.990675044784545,5.82055Q23.915605044784545,5.7731200000000005,23.851765044784546,5.71277Q23.787925044784547,5.65241,23.737765044784545,5.581440000000001Q23.687605044784547,5.51046,23.653055044784544,5.4315999999999995Q23.618505044784545,5.35274,23.600895044784547,5.269019999999999Q23.583285044784546,5.1853,23.583285044784546,5.09994Q23.583285044784546,5.0145800000000005,23.600895044784547,4.93086Q23.618505044784545,4.84714,23.653055044784544,4.76828Q23.687605044784547,4.68942,23.737765044784545,4.61845Q23.787925044784547,4.547470000000001,23.851765044784546,4.48712Q23.915605044784545,4.42676,23.990675044784545,4.37934Q24.065745044784546,4.33191,24.149155044784546,4.29925Q24.232565044784547,4.26658,24.321115044784545,4.24993Q24.409665044784546,4.23328,24.499945044784546,4.23328Q24.590235044784546,4.23328,24.678785044784547,4.24993Q24.767325044784545,4.26658,24.850745044784546,4.29925Q24.934155044784546,4.33191,25.009225044784547,4.37934Q25.084285044784547,4.42676,25.148125044784546,4.48712Q25.211965044784545,4.547470000000001,25.262125044784547,4.61845Q25.312285044784545,4.68942,25.346835044784548,4.76828Q25.381385044784544,4.84714,25.399005044784545,4.93086Q25.416615044784546,5.0145800000000005,25.416615044784546,5.09994ZM24.500025044784547,8.56665C26.778315044784545,8.56665,28.053015044784544,9.252189999999999,28.864015044784544,9.9134L29.05741504478455,10.07779L29.23336504478455,10.2387C29.693365044784546,10.67237,30.000065044784545,11.34244,30.000065044784545,12.03521L30.000065044784545,14.7172C30.000065044784545,15.1493,29.701365044784545,15.5,29.333365044784546,15.5L23.620935044784545,15.5Q24.000035044784546,15.0733,24.000035044784546,14.4865L24.000035044784546,13.7666L28.166615044784546,13.7666L28.166615044784546,12.03516C28.166615044784546,11.84933,28.092065044784547,11.65147,27.990935044784546,11.52346L27.938365044784547,11.46566C27.116825044784548,10.69065,26.213125044784547,10.29993,24.499945044784546,10.29993C22.787725044784544,10.29993,21.810075044784547,10.70652,21.017455044784548,11.44448Q20.996645044784547,11.41819,20.975865044784545,11.39233L20.508887044784547,10.67864Q20.463308044784547,10.60899,20.413280044784546,10.54644Q20.175848044784544,10.24963,19.838222596784547,10.113199999999999L19.883861144784547,10.07175C20.691770044784548,9.36663,22.038915044784545,8.56665,24.500025044784547,8.56665ZM22.509305044784547,14.681C22.574305044784545,14.681,22.631705044784546,14.6478,22.666125044784547,14.5971C22.631715044784546,14.6478,22.574315044784544,14.6809,22.509305044784547,14.681Z" fill-rule="evenodd" transform="matrix(-1 0 0 1 32 0)"></path></g></g></symbol>
<symbol xmlns="http://www.w3.org/2000/svg" fill="none" viewBox="0 0 200 200" id="team-no-order-dark"><defs><mask id="team-no-order-dark_a"><rect width="200" height="200" rx="0" fill="#FFFFFF"></rect></mask><mask id="team-no-order-dark_b"><ellipse cx="156.03" cy="90.162" rx="28.035" ry="27.815" fill="#FFFFFF" transform="scale(-1 1) rotate(45 0 -246.66)"></ellipse></mask></defs><g style="mix-blend-mode:passthrough"><circle cx="99.5" cy="100.5" fill="#FFFFFF" fill-opacity=".1" r="72.5"></circle><g style="mix-blend-mode:passthrough" mask="url(#team-no-order-dark_a)"><g style="mix-blend-mode:passthrough"><path d="M38,61.6162L90.9593,61.6162L90.9593,47L46,47C41.58172,47,38,50.58172,38,55L38,61.6162Z" fill="#4B4A4A"></path><path d="M51.86336949707031,55L51.86336949707031,143.0241C51.87639949707031,147.43099999999998,55.45315949707032,151,59.86335949707031,151L125.75315949707031,151L125.8278594970703,125L125.8278594970703,55C125.8278594970703,50.58172,122.2460594970703,47,117.8278594970703,47L44.54035949707031,47L44.54850716707031,47.0289281C48.64605949707031,47.376473,51.86336949707031,50.81252,51.86336949707031,55Z" fill-rule="evenodd" fill="#808181"></path><path d="M60.11354087762953,150.63566236572265C63.36236302001953,149.61816236572267,65.71961302001954,146.58438236572266,65.71961302001954,143.00003236572266L65.71961302001954,138.81989574432265L139.00003302001954,138.81989574432265L139.00003302001954,143.00003236572266C139.00003302001954,147.41831236572267,135.41823302001953,151.00006236572267,131.00003302001954,151.00006236572267L60.11354064940953,151.00006236572267L60.11354087762953,150.63566236572265Z" fill-rule="evenodd" fill="#4B4A4A"></path><g style="mix-blend-mode:passthrough"><rect x="65.921" y="68.897" width="46.835" height="6.316" rx="0" fill="#4B4A4A"></rect><rect x="65.921" y="93.257" width="46.835" height="6.316" rx="0" fill="#4B4A4A"></rect><rect x="66.03" y="117.27" width="36.439" height="6.559" rx="0" fill="#4B4A4A"></rect></g></g><g style="mix-blend-mode:passthrough"><g style="mix-blend-mode:passthrough"><g style="mix-blend-mode:passthrough"><ellipse cx="297.981" cy="87.811" rx="30.681" ry="30.647" stroke="#000000" stroke-width="6.327" transform="scale(-1 1) rotate(45 68.137 -419.186)"></ellipse><ellipse cx="297.981" cy="87.811" rx="28.035" ry="27.815" fill="#273E86" transform="scale(-1 1) rotate(45 68.137 -419.186)"></ellipse><path d="M296.2890625,120.77604675292969L299.6734825,120.77604675292969L299.6734825,129.2287067529297L296.2890625,129.2287067529297L296.2890625,120.77604675292969Z" fill-rule="evenodd" fill="#000000" transform="scale(-1 1) rotate(45 68.137 -419.186)"></path><path d="M292.90464210510254,129.22869873046875L303.05794210510254,129.22869873046875L303.05794210510254,145.28369873046876C303.05794210510254,148.08749873046875,300.78502210510254,150.36039873046875,297.98127210510256,150.36039873046875C295.1775221051025,150.36039873046875,292.90464210510254,148.08749873046875,292.90464210510254,145.28369873046876L292.90464210510254,129.22869873046875Z" fill-rule="evenodd" fill="#273E86" transform="scale(-1 1) rotate(45 68.137 -419.186)"></path></g></g><g style="mix-blend-mode:passthrough" mask="url(#team-no-order-dark_b)"><rect x="142.602" y="52.957" width="31.301" height="97.033" rx="0" fill="#3B3B3B"></rect><rect x="89.347" y="97.347" width="11.477" height="40.691" rx="0" fill="#808181" transform="rotate(-90 89.347 97.347)"></rect><rect x="92.565" y="122.456" width="11.477" height="25.041" rx="0" fill="#808181" transform="rotate(-90 92.565 122.456)"></rect></g></g></g></g></symbol>
<symbol xmlns="http://www.w3.org/2000/svg" viewBox="0 0 200 200" id="team-no-order"><defs><mask id="team-no-order_a"><rect width="200" height="200" rx="0" fill="#FFFFFF"></rect></mask><mask id="team-no-order_b"><ellipse cx="156.03" cy="90.162" rx="28.035" ry="27.815" fill="#FFFFFF" transform="scale(-1 1) rotate(45 0 -246.66)"></ellipse></mask></defs><g style="mix-blend-mode:passthrough"><circle cx="99.5" cy="100.5" fill="#000000" fill-opacity=".04" r="72.5"></circle><g style="mix-blend-mode:passthrough" mask="url(#team-no-order_a)"><g style="mix-blend-mode:passthrough"><path d="M38,61.6162L90.9593,61.6162L90.9593,47L46,47C41.58172,47,38,50.58172,38,55L38,61.6162Z" fill="#DEDEDE"></path><path d="M51.86336949707031,55L51.86336949707031,143.0241C51.87639949707031,147.43099999999998,55.45315949707032,151,59.86335949707031,151L125.75315949707031,151L125.8278594970703,125L125.8278594970703,55C125.8278594970703,50.58172,122.2460594970703,47,117.8278594970703,47L44.54035949707031,47L44.54850716707031,47.0289281C48.64605949707031,47.376473,51.86336949707031,50.81252,51.86336949707031,55Z" fill-rule="evenodd" fill="#FFFFFF"></path><path d="M60.11354087762953,150.63566236572265C63.36236302001953,149.61816236572267,65.71961302001954,146.58438236572266,65.71961302001954,143.00003236572266L65.71961302001954,138.81989574432265L139.00003302001954,138.81989574432265L139.00003302001954,143.00003236572266C139.00003302001954,147.41831236572267,135.41823302001953,151.00006236572267,131.00003302001954,151.00006236572267L60.11354064940953,151.00006236572267L60.11354087762953,150.63566236572265Z" fill-rule="evenodd" fill="#DEDEDE"></path><g style="mix-blend-mode:passthrough"><rect x="65.921" y="68.897" width="46.835" height="6.316" rx="0" fill="#E5E5E5"></rect><rect x="65.921" y="93.257" width="46.835" height="6.316" rx="0" fill="#E5E5E5"></rect><rect x="66.03" y="117.27" width="36.439" height="6.559" rx="0" fill="#E5E5E5"></rect></g></g><g style="mix-blend-mode:passthrough"><g style="mix-blend-mode:passthrough"><g style="mix-blend-mode:passthrough"><ellipse cx="297.981" cy="87.811" rx="30.681" ry="30.647" stroke="#000000" fill="none" stroke-width="6.327" transform="scale(-1 1) rotate(45 68.137 -419.186)"></ellipse><ellipse cx="297.981" cy="87.811" rx="28.035" ry="27.815" transform="scale(-1 1) rotate(45 68.137 -419.186)"></ellipse><path d="M296.2890625,120.77604675292969L299.6734825,120.77604675292969L299.6734825,129.2287067529297L296.2890625,129.2287067529297L296.2890625,120.77604675292969Z" fill-rule="evenodd" fill="#000000" transform="scale(-1 1) rotate(45 68.137 -419.186)"></path><path d="M292.90464210510254,129.22869873046875L303.05794210510254,129.22869873046875L303.05794210510254,145.28369873046876C303.05794210510254,148.08749873046875,300.78502210510254,150.36039873046875,297.98127210510256,150.36039873046875C295.1775221051025,150.36039873046875,292.90464210510254,148.08749873046875,292.90464210510254,145.28369873046876L292.90464210510254,129.22869873046875Z" fill-rule="evenodd" transform="scale(-1 1) rotate(45 68.137 -419.186)"></path></g></g><g style="mix-blend-mode:passthrough" mask="url(#team-no-order_b)"><rect x="142.602" y="52.957" width="31.301" height="97.033" rx="0" fill="#DBDBDB"></rect><rect x="89.347" y="97.347" width="11.477" height="40.691" rx="0" fill="#FFFFFF" transform="rotate(-90 89.347 97.347)"></rect><rect x="92.565" y="122.456" width="11.477" height="25.041" rx="0" fill="#FFFFFF" transform="rotate(-90 92.565 122.456)"></rect></g></g></g></g></symbol>
<symbol xmlns="http://www.w3.org/2000/svg" viewBox="0 0 24.1 24.09" id="team-setting"><path d="M11.4375 13L9 13Q6.51472 13 4.75736 14.75736 3 16.51472 3 19 3 19.82843 3.58579 20.41421 4.17157 21 5 21L11.0205 21C11.2466 21.759900000000002 11.7682 22.4097 12.4843 22.791600000000003L12.875 23 5 23C2.79086 23 1 21.2091 1 19 1 14.58172 4.58172 11 9 11L14 11C14.3585 11 14.7115 11.0235845 15.0576 11.0692867L11.4375 13zM15.999998092651367 5.5C15.999998092651367 7.98528 13.985278092651367 10 11.499998092651367 10 9.014718092651368 10 6.999998092651367 7.98528 6.999998092651367 5.5 6.999998092651367 3.01472 9.014718092651368 1 11.499998092651367 1 13.985278092651367 1 15.999998092651367 3.01472 15.999998092651367 5.5zM13.999998092651367 5.5Q13.999998092651367 4.46447 13.267768092651366 3.73223 12.535528092651367 3 11.499998092651367 3 10.464468092651368 3 9.732228092651367 3.73223 8.999998092651367 4.46447 8.999998092651367 5.5 8.999998092651367 6.53553 9.732228092651367 7.26777 10.464468092651368 8 11.499998092651367 8 12.535528092651367 8 13.267768092651366 7.26777 13.999998092651367 6.53553 13.999998092651367 5.5z" fill-rule="evenodd"></path><g><path d="M23.686462394714354,20.844876768493652Q24.099962394714353,20.128716768493653,24.099962394714353,19.301646768493654L24.099962394714353,15.898256768493653Q24.099962394714353,15.071156768493653,23.686462394714354,14.354896768493653Q23.272962394714355,13.638736768493652,22.556662394714355,13.225196768493653L19.609312394714355,11.523503768493653Q18.893052394714356,11.109976768493652,18.065982394714354,11.109976768493652Q17.238902394714355,11.109969235953653,16.522642394714357,11.523504768493652L13.575302394714356,13.225196768493653Q12.859036394714355,13.638626768493651,12.445497394714355,14.354896768493653Q12.031962394714355,15.071186768493652,12.031962394714355,15.898256768493653L12.031962394714355,19.301646768493654Q12.031962394714355,20.128606768493654,12.445497394714355,20.844866768493652Q12.859034394714355,21.561176768493652,13.575292394714356,21.97467676849365L16.522642394714357,23.676376768493654Q17.238912394714355,24.089876768493653,18.065982394714354,24.089876768493653Q18.893052394714356,24.089976768493653,19.609312394714355,23.676376768493654L22.556662394714355,21.97467676849365Q23.272962394714355,21.561176768493652,23.686462394714354,20.844876768493652ZM18.655982394714357,22.02517676849365Q18.065982394714354,22.365876768493653,17.475982394714357,22.02517676849365L14.528622394714356,20.32350676849365Q13.938632394714356,19.982906768493653,13.938632394714356,19.301646768493654L13.938632394714356,15.898256768493653Q13.938622394714356,15.217036768493653,14.528622394714356,14.876396768493652L17.475982394714357,13.174706768493653Q18.065982394714354,12.834066768493653,18.655972394714354,13.174706768493653L21.603332394714357,14.876396768493652Q22.193362394714356,15.216986768493651,22.193362394714356,15.898256768493653L22.193362394714356,19.301646768493654Q22.193362394714356,19.98286676849365,21.603322394714354,20.32350676849365L18.655982394714357,22.02517676849365ZM16.147372394714356,19.518576768493652Q16.942082394714355,20.31329676849365,18.065972394714358,20.31336676849365Q19.189882394714356,20.31336676849365,19.984602394714354,19.518576768493652Q20.779322394714356,18.723856768493654,20.779322394714356,17.599946768493652Q20.779312394714356,16.476056768493653,19.984602394714354,15.681326768493651Q19.189872394714357,14.886606768493653,18.065972394714358,14.886666768493653Q16.942082394714355,14.886666768493653,16.147372394714356,15.681316768493652Q15.352652394714355,16.476036768493653,15.352652394714355,17.599946768493652Q15.352652394714355,18.72384676849365,16.147372394714356,19.518576768493652ZM17.495572394714355,17.029656768493652Q17.731852394714355,16.79337676849365,18.065982394714354,16.79330676849365Q18.400112394714355,16.793316768493654,18.636372394714357,17.029636768493653Q18.872652394714358,17.265916768493653,18.872652394714358,17.599946768493652Q18.872652394714358,17.934086768493653,18.636382394714357,18.170386768493653Q18.400102394714356,18.40666676849365,18.065962394714354,18.40672676849365Q17.731852394714355,18.406716768493652,17.495592394714357,18.170396768493653Q17.259312394714357,17.934116768493652,17.259312394714357,17.599946768493652Q17.259312394714357,17.265826768493653,17.495572394714355,17.029656768493652Z" fill-rule="evenodd"></path></g></symbol>
<symbol xmlns="http://www.w3.org/2000/svg" viewBox="0 0 14 14" id="team-sort"><path d="M3.8682266280670166,8.52284722190857L6.642849628067017,10.65189722190857C6.798999628067016,10.771707221908569,7.005019628067016,10.804707221908568,7.190779628067016,10.739657221908569C7.250329628067016,10.71917722190857,7.306179628067017,10.689177221908569,7.356149628067016,10.650837221908569L10.131629628067017,8.52113722190857C10.387219628067017,8.32500722190857,10.435429628067016,7.958827221908569,10.239309628067016,7.703237221908569C10.043179628067016,7.447637221908569,9.676999628067016,7.39943722190857,9.421399628067016,7.595557221908569L6.998819628067016,9.454467221908569L4.578456628067016,7.59725722190857C4.322862628067017,7.401137221908569,3.9566716280670167,7.449347221908569,3.7605476280670165,7.704937221908569C3.6663648280670165,7.827687221908569,3.6247985280670165,7.982807221908569,3.6449924780670164,8.136197221908569C3.6651863280670165,8.289587221908569,3.7454866280670167,8.428667221908569,3.8682266280670166,8.52284722190857ZM3.8682266280670166,5.46964722190857L6.642849628067017,3.3406062219085695C6.798999628067016,3.220794915908569,7.005019628067016,3.1877949219085693,7.190779628067016,3.2528455219085695C7.250329628067016,3.2733316219085693,7.306179628067017,3.3033280219085692,7.356149628067016,3.3416692219085693L10.131629628067017,5.471367221908569C10.387219628067017,5.667497221908569,10.435429628067016,6.033677221908569,10.239309628067016,6.2892672219085695C10.043179628067016,6.54486722190857,9.676999628067016,6.593067221908569,9.421399628067016,6.396947221908569L6.998819628067016,4.538037221908569L5.788639628067017,5.466637221908569L4.578456628067016,6.39523722190857C4.322862628067017,6.59136722190857,3.9566716280670167,6.543157221908569,3.7605476280670165,6.287557221908569C3.6663648280670165,6.164817221908569,3.6247985280670165,6.009697221908569,3.6449924780670164,5.856307221908569C3.6651863280670165,5.702917221908569,3.7454866280670167,5.563837221908569,3.8682266280670166,5.46964722190857Z" fill-rule="evenodd"></path></symbol>
<symbol xmlns="http://www.w3.org/2000/svg" viewBox="0 0 24 24" id="team-transfer"><path d="M10.5,9C12.9853,9,15,6.98528,15,4.5C15,2.01472,12.9853,0,10.5,0C8.01472,0,6,2.01472,6,4.5C6,6.98528,8.01472,9,10.5,9ZM12.2678,2.73223Q13,3.46447,13,4.5Q13,5.53553,12.2678,6.26777Q11.5355,7,10.5,7Q9.46447,7,8.73223,6.26777Q8,5.53553,8,4.5Q8,3.46447,8.73223,2.73223Q9.46447,2,10.5,2Q11.5355,2,12.2678,2.73223ZM4,22C1.79086,22,0,20.2091,0,18C0,13.5817,3.58172,10,8,10L13,10C15,10,16.8285,10.7339,18.2311,11.9471C18.7723,12.4152,18.5525,13.2495,17.8852,13.5082C17.4947,13.6596,17.0526,13.5558,16.727,13.2922Q15.1311,12,13,12L8,12Q5.51472,12,3.75736,13.7574Q2,15.5147,2,18Q2,18.8284,2.58579,19.4142Q3.17157,20,4,20L11,20C11.5523,20,12,20.4477,12,21C12,21.5523,11.5523,22,11,22L4,22ZM17.399,15.9509C17.2396,15.7915,17.15,15.5755,17.15,15.3501C17.15,14.8807,17.5306,14.5,18,14.5C18.2254,14.5,18.4417,14.5896,18.6011,14.749L20.6011,16.749C20.933,17.081,20.933,17.619,20.6011,17.9509C20.4417,18.1103,20.2254,18.2,20,18.2L14,18.2C13.5306,18.2,13.15,17.8195,13.15,17.3501C13.15,16.8807,13.5306,16.5,14,16.5L17.9479,16.5L17.399,15.9509ZM16.601,21.2493C16.7604,21.4087,16.85,21.6247,16.85,21.8501C16.85,22.3195,16.4694,22.7002,15.9999,22.7002C15.7745,22.7002,15.5583,22.6106,15.3989,22.4512L13.3989,20.4512C13.067,20.1192,13.067,19.5812,13.3989,19.2493C13.5583,19.0899,13.7745,19.0002,13.9999,19.0002L19.9999,19.0002C20.4694,19.0002,20.85,19.3807,20.85,19.8501C20.85,20.3195,20.4694,20.7002,19.9999,20.7002L16.0521,20.7002L16.601,21.2493Z" fill-rule="evenodd"></path></symbol>
</svg>