<svg xmlns="http://www.w3.org/2000/svg" xmlns:xlink="http://www.w3.org/1999/xlink" style="position: absolute; width: 0; height: 0" aria-hidden="true" id="__SVG_SPRITE_NODE__">
<symbol xmlns="http://www.w3.org/2000/svg" viewBox="0 0 16 16" id="timecard_repeat_until"><g><path d="M11.885966686534882,3.8055352480697633L10.47172668653488,5.219755248069763C10.211376686534882,5.480105248069763,9.789266686534882,5.480105248069763,9.528916686534881,5.219755248069763C9.268566686534882,4.959405248069763,9.268566686534882,4.537295248069763,9.528916686534881,4.276945248069763L9.805706686534881,4.000165248069763L5.999996686534882,4.000165248069763Q4.343146686534881,4.000165248069763,3.171576686534882,5.171735248069764Q1.9999966865348815,6.343305248069763,1.9999966865348815,8.000165248069763Q1.9999966865348815,9.040875248069764,2.4622266865348816,9.890115248069764C2.6233366865348815,10.186105248069763,2.6069666865348813,10.564805248069764,2.3686766865348816,10.803095248069763C2.0850666865348817,11.086705248069762,1.6215146865348817,11.072445248069764,1.4160776865348816,10.727955248069764C0.9401106865348816,9.929845248069762,0.6666666865348816,8.996935248069764,0.6666666865348816,8.000165248069763C0.6666666865348816,5.054645248069763,3.0544766865348816,2.666825248069763,5.999996686534882,2.666825248069763L9.804426686534882,2.666825248069763L9.528916686534881,2.391325248069763C9.268566686534882,2.130977248069763,9.268566686534882,1.708867248069763,9.528916686534881,1.4485172480697632C9.789266686534882,1.1881679480697631,10.211376686534882,1.1881679480697631,10.47172668653488,1.4485172480697632L11.885966686534882,2.862735248069763C12.146266686534881,3.1230852480697635,12.146266686534881,3.545195248069763,11.885966686534882,3.8055352480697633ZM13.631366686534882,5.197255248069763C13.393066686534882,5.435545248069763,13.376666686534882,5.814235248069763,13.537766686534882,6.110225248069763Q13.999966686534881,6.959465248069763,13.999966686534881,8.000165248069763Q13.999966686534881,8.641655248069764,13.824366686534882,9.210405248069764Q14.131666686534881,9.411385248069763,14.387966686534881,9.674455248069764Q14.64416668653488,9.937525248069763,14.83696668653488,10.250055248069764C15.155466686534881,9.566445248069764,15.333366686534882,8.804075248069763,15.333366686534882,8.000165248069763C15.333366686534882,7.003395248069763,15.059866686534882,6.070495248069763,14.58396668653488,5.272385248069763C14.378466686534882,4.927895248069763,13.914966686534882,4.913645248069763,13.631366686534882,5.197255248069763ZM9.333656686534882,11.999955248069764Q9.333656686534882,11.868955248069764,9.346496686534882,11.738655248069763Q9.359336686534881,11.608255248069764,9.384896686534882,11.479755248069763Q9.410456686534882,11.351255248069764,9.448486686534881,11.225905248069763Q9.486516686534882,11.100545248069762,9.536646686534882,10.979515248069763Q9.586776686534881,10.858475248069762,9.648536686534882,10.742945248069763Q9.710286686534882,10.627405248069763,9.783076686534882,10.518475248069763Q9.855856686534882,10.409555248069763,9.938966686534881,10.308285248069764Q10.02207668653488,10.207015248069764,10.114706686534882,10.114385248069762Q10.207346686534882,10.021745248069763,10.308606686534882,9.938635248069764Q10.409876686534881,9.855525248069764,10.518806686534882,9.782745248069762Q10.627726686534881,9.709965248069762,10.74326668653488,9.648205248069763Q10.858766686534882,9.586455248069763,10.979866686534882,9.536325248069764Q11.100866686534882,9.486185248069763,11.226266686534881,9.448155248069764Q11.351566686534882,9.410125248069763,11.480066686534881,9.384575248069764Q11.608566686534882,9.359015248069763,11.738966686534882,9.346175248069763Q11.869366686534882,9.333335248069764,12.000366686534882,9.333335248069764Q12.131366686534882,9.333335248069764,12.261666686534882,9.346175248069763Q12.392066686534882,9.359015248069763,12.520566686534881,9.384575248069764Q12.649066686534882,9.410125248069763,12.774366686534881,9.448155248069764Q12.899766686534882,9.486185248069763,13.020766686534882,9.536325248069764Q13.14186668653488,9.586455248069763,13.257366686534882,9.648205248069763Q13.372966686534882,9.709965248069762,13.481866686534882,9.782745248069762Q13.59076668653488,9.855525248069764,13.692066686534881,9.938635248069764Q13.793266686534881,10.021745248069763,13.885966686534882,10.114385248069762Q13.978566686534881,10.207015248069764,14.061666686534881,10.308285248069764Q14.144766686534881,10.409555248069763,14.217566686534882,10.518475248069763Q14.290366686534881,10.627405248069763,14.352066686534881,10.742945248069763Q14.413866686534881,10.858475248069762,14.463966686534881,10.979515248069763Q14.514166686534882,11.100545248069762,14.552166686534882,11.225905248069763Q14.590166686534882,11.351255248069764,14.615766686534881,11.479755248069763Q14.641266686534882,11.608255248069764,14.654166686534882,11.738655248069763Q14.666966686534881,11.868955248069764,14.666966686534881,11.999955248069764Q14.666966686534881,12.131055248069764,14.654166686534882,12.261355248069764Q14.641266686534882,12.391755248069764,14.615766686534881,12.520255248069763Q14.590166686534882,12.648755248069763,14.552166686534882,12.774055248069763Q14.514166686534882,12.899455248069764,14.463966686534881,13.020455248069764Q14.413866686534881,13.141555248069762,14.352066686534881,13.257055248069763Q14.290366686534881,13.372555248069764,14.217566686534882,13.481555248069764Q14.144766686534881,13.590455248069762,14.061666686534881,13.691755248069763Q13.978566686534881,13.792955248069763,13.885966686534882,13.885655248069764Q13.793266686534881,13.978255248069763,13.692066686534881,14.061355248069763Q13.59076668653488,14.144455248069763,13.481866686534882,14.217255248069764Q13.372966686534882,14.290055248069763,13.257366686534882,14.351755248069763Q13.14186668653488,14.413555248069763,13.020766686534882,14.463655248069763Q12.899766686534882,14.513855248069763,12.774366686534881,14.551855248069764Q12.649066686534882,14.589855248069764,12.520566686534881,14.615455248069763Q12.392066686534882,14.640955248069764,12.261666686534882,14.653855248069764Q12.131366686534882,14.666655248069763,12.000366686534882,14.666655248069763Q11.869366686534882,14.666655248069763,11.738966686534882,14.653855248069764Q11.608566686534882,14.640955248069764,11.480066686534881,14.615455248069763Q11.351566686534882,14.589855248069764,11.226266686534881,14.551855248069764Q11.100866686534882,14.513855248069763,10.979866686534882,14.463655248069763Q10.858766686534882,14.413555248069763,10.74326668653488,14.351755248069763Q10.627726686534881,14.290055248069763,10.518806686534882,14.217255248069764Q10.409876686534881,14.144455248069763,10.308606686534882,14.061355248069763Q10.207346686534882,13.978255248069763,10.114706686534882,13.885655248069764Q10.02207668653488,13.792955248069763,9.938966686534881,13.691755248069763Q9.855856686534882,13.590455248069762,9.783076686534882,13.481555248069764Q9.710286686534882,13.372555248069764,9.648536686534882,13.257055248069763Q9.586776686534881,13.141555248069762,9.536646686534882,13.020455248069764Q9.486516686534882,12.899455248069764,9.448486686534881,12.774055248069763Q9.410456686534882,12.648755248069763,9.384896686534882,12.520255248069763Q9.359336686534881,12.391755248069764,9.346496686534882,12.261355248069764Q9.333656686534882,12.131055248069764,9.333656686534882,11.999955248069764ZM8.944946686534882,13.333455248069763Q8.666666686534882,12.695855248069764,8.666666686534882,12.000155248069763L6.194456686534882,12.000155248069763L6.471886686534882,11.722755248069763C6.732236686534882,11.462355248069763,6.732236686534882,11.040265248069764,6.471886686534882,10.779915248069763C6.211536686534882,10.519565248069764,5.789426686534882,10.519565248069764,5.529076686534881,10.779915248069763L4.114856686534882,12.194155248069762C3.8545066865348816,12.454455248069763,3.8545066865348816,12.876655248069763,4.114856686534882,13.136955248069762L5.529076686534881,14.551155248069763C5.789426686534882,14.811555248069762,6.211536686534882,14.811555248069762,6.471886686534882,14.551155248069763C6.732236686534882,14.290855248069763,6.732236686534882,13.868755248069764,6.471886686534882,13.608355248069763L6.197016686534882,13.333455248069763L8.944946686534882,13.333455248069763ZM11.684766686534882,12.000155248069763L10.74166668653488,12.943355248069762Q10.710366686534881,12.974655248069762,10.693466686534881,13.015455248069763Q10.676566686534882,13.056255248069764,10.676566686534882,13.100455248069764Q10.676566686534882,13.144655248069764,10.693466686534881,13.185555248069763Q10.710366686534881,13.226355248069764,10.74166668653488,13.257655248069764Q10.806766686534882,13.322755248069763,10.898766686534882,13.322755248069763Q10.990866686534881,13.322755248069763,11.055866686534882,13.257655248069764L11.999066686534881,12.314455248069763L12.941766686534882,13.257155248069763Q13.006866686534881,13.322255248069764,13.098966686534881,13.322255248069764Q13.190966686534882,13.322255248069764,13.256066686534881,13.257155248069763Q13.287366686534881,13.225955248069763,13.304266686534882,13.185055248069764Q13.321166686534882,13.144255248069763,13.321166686534882,13.100055248069763Q13.321166686534882,13.055855248069763,13.304266686534882,13.015055248069762Q13.287366686534881,12.974155248069764,13.256066686534881,12.942955248069763L12.31336668653488,12.000155248069763L13.255766686534882,11.057735248069763Q13.320866686534881,10.992645248069763,13.320866686534881,10.900595248069763Q13.320866686534881,10.808555248069764,13.255766686534882,10.743465248069763Q13.224566686534882,10.712205248069763,13.183666686534881,10.695295248069764Q13.142866686534882,10.678375248069763,13.098666686534882,10.678375248069763Q13.054466686534882,10.678375248069763,13.013666686534881,10.695295248069764Q12.972766686534882,10.712205248069763,12.941566686534882,10.743465248069763L11.999066686534881,11.685955248069764L11.056166686534882,10.743045248069762Q11.024966686534881,10.711785248069763,10.98406668653488,10.694865248069764Q10.943266686534882,10.677955248069763,10.899066686534882,10.677955248069763Q10.854866686534882,10.677955248069763,10.813966686534881,10.694865248069764Q10.773166686534882,10.711785248069763,10.741866686534882,10.743045248069762Q10.710666686534882,10.774295248069762,10.693766686534882,10.815135248069764Q10.676766686534881,10.855975248069763,10.676766686534881,10.900175248069763Q10.676766686534881,10.944375248069763,10.693766686534882,10.985215248069764Q10.710666686534882,11.026055248069763,10.741866686534882,11.057315248069763L11.684766686534882,12.000155248069763Z" fill-rule="evenodd"></path></g></symbol>
</svg>