<svg xmlns="http://www.w3.org/2000/svg" xmlns:xlink="http://www.w3.org/1999/xlink" style="position: absolute; width: 0; height: 0" aria-hidden="true" id="__SVG_SPRITE_NODE__">
<symbol xmlns="http://www.w3.org/2000/svg" viewBox="0 0 36 36" id="timeline-item-wont-do"><path d="M11.7570312,9.33448397 L18.375,15.9528186 L24.9929688,9.33448397 C25.4046414,8.92281139 26.0524191,8.89114427 26.5004156,9.2394826 L26.6080003,9.33448397 L27.415516,10.1419997 C27.8271886,10.5536723 27.8588557,11.20145 27.5105174,11.6494464 L27.415516,11.7570312 L20.7971814,18.375 L27.415516,24.9929688 C27.8614947,25.4389475 27.8614947,26.1620217 27.415516,26.6080003 L26.6080003,27.415516 C26.1620217,27.8614947 25.4389475,27.8614947 24.9929688,27.415516 L18.375,20.7971814 L11.7570312,27.415516 C11.3453586,27.8271886 10.6975809,27.8588557 10.2495844,27.5105174 L10.1419997,27.415516 L9.33448397,26.6080003 C8.92281139,26.1963277 8.89114427,25.54855 9.2394826,25.1005536 L9.33448397,24.9929688 L15.9528186,18.375 L9.33448397,11.7570312 C8.88850534,11.3110525 8.88850534,10.5879783 9.33448397,10.1419997 L10.1419997,9.33448397 C10.5879783,8.88850534 11.3110525,8.88850534 11.7570312,9.33448397 Z" fill-rule="evenodd"></path></symbol>
<symbol xmlns="http://www.w3.org/2000/svg" viewBox="0 0 24 24" id="timeline-mode"><path d="M21.42,3.66761C21.3411,2.73196,20.6463,2,19.8008,2L10.99893,2L10.8423,2.00848198C10.017420000000001,2.0978887,9.372309999999999,2.886142,9.372309999999999,3.8452200000000003L9.372309999999999,5.94515L9.37986,6.12276C9.458680000000001,7.05841,10.153400000000001,7.79037,10.99893,7.79037L19.8008,7.79037L19.9574,7.78188C20.7823,7.69248,21.4274,6.90422,21.4274,5.94515L21.4274,3.8452200000000003L21.42,3.66761ZM11.5412,4.10867L19.2585,4.10867L19.2585,5.68169L11.5412,5.68169L11.5412,4.10867ZM17.4925,10.7002C17.4134,9.80861,16.716,9.11157,15.8673,9.11157L4.13268,9.10327L3.9754,9.1115C3.14747,9.19669,2.5,9.94744,2.5,10.86135L2.5,13.1273L2.50754138,13.2967C2.5866552,14.1883,3.284015,14.8854,4.13268,14.8854L15.8673,14.8936L16.0245,14.8855C16.8525,14.8003,17.5,14.0494,17.5,13.1355L17.5,10.86963L17.4925,10.7002ZM4.676880000000001,11.11273L15.3231,11.12061L15.3231,12.8843L4.676880000000001,12.8762L4.676880000000001,11.11273ZM21.4925,17.8746C21.4136,16.9404,20.7181,16.209600000000002,19.8717,16.209600000000002L7.83026,16.209600000000002L7.67344,16.2181C6.84772,16.3074,6.20197,17.0943,6.20197,18.052L6.20197,20.1576L6.20951,20.3349C6.28841,21.2692,6.98387,22,7.83026,22L19.8717,22L20.0285,21.9915C20.8542,21.9022,21.5,21.1152,21.5,20.1576L21.5,18.052L21.4925,17.8746ZM8.37304,18.3152L19.3289,18.3152L19.3289,19.8944L8.37304,19.8944L8.37304,18.3152Z" fill-rule="evenodd"></path></symbol>
<symbol xmlns="http://www.w3.org/2000/svg" viewBox="0 0 54 54" id="timeline"><path d="M14.125,6.75 C14.4011424,6.75 14.625,6.97385763 14.625,7.25 L14.6244581,11.6338963 L14.5438814,11.606 C17.207851,12.5093403 19.125,15.0307831 19.125,18 C19.125,20.9692169 17.207851,23.4906597 14.5438814,24.394 L14.6244581,24.3661037 L14.6244581,24.3661037 L14.6244581,30.7588963 L14.5438814,30.731 C17.207851,31.6343403 19.125,34.1557831 19.125,37.125 C19.125,40.0942169 17.207851,42.6156597 14.5438814,43.519 L14.6244581,43.4911037 L14.6244581,43.4911037 L14.625,46.75 C14.625,47.0261424 14.4011424,47.25 14.125,47.25 L10.625,47.25 C10.3488576,47.25 10.125,47.0261424 10.125,46.75 L10.1236048,43.4904189 L10.1971429,43.5159493 C7.53784373,42.6099937 5.625,40.0908811 5.625,37.125 C5.625,34.1591189 7.53784373,31.6400063 10.1971429,30.7340507 L10.1236048,30.7595811 L10.1236048,30.7595811 L10.1236048,24.3654189 L10.1971429,24.3909493 C7.53784373,23.4849937 5.625,20.9658811 5.625,18 C5.625,15.0341189 7.53784373,12.5150063 10.1971429,11.6090507 L10.1236048,11.6345811 L10.1236048,11.6345811 L10.125,7.25 C10.125,6.97385763 10.3488576,6.75 10.625,6.75 L14.125,6.75 Z M46.125,30.375 C47.3676407,30.375 48.375,31.3823593 48.375,32.625 L48.375,41.625 C48.375,42.8676407 47.3676407,43.875 46.125,43.875 L23.625,43.875 C22.3823593,43.875 21.375,42.8676407 21.375,41.625 L21.375,32.625 C21.375,31.3823593 22.3823593,30.375 23.625,30.375 L46.125,30.375 Z M43.875,34.875 L25.875,34.875 L25.875,39.375 L43.875,39.375 L43.875,34.875 Z M12.375,34.875 C11.1323593,34.875 10.125,35.8823593 10.125,37.125 C10.125,38.3676407 11.1323593,39.375 12.375,39.375 C13.6176407,39.375 14.625,38.3676407 14.625,37.125 C14.625,35.8823593 13.6176407,34.875 12.375,34.875 Z M46.125,11.25 C47.3676407,11.25 48.375,12.2573593 48.375,13.5 L48.375,22.5 C48.375,23.7426407 47.3676407,24.75 46.125,24.75 L23.625,24.75 C22.3823593,24.75 21.375,23.7426407 21.375,22.5 L21.375,13.5 C21.375,12.2573593 22.3823593,11.25 23.625,11.25 L46.125,11.25 Z M43.875,15.75 L25.875,15.75 L25.875,20.25 L43.875,20.25 L43.875,15.75 Z M12.375,15.75 C11.1323593,15.75 10.125,16.7573593 10.125,18 C10.125,19.2426407 11.1323593,20.25 12.375,20.25 C13.6176407,20.25 14.625,19.2426407 14.625,18 C14.625,16.7573593 13.6176407,15.75 12.375,15.75 Z" fill-rule="evenodd"></path></symbol>
</svg>