<svg xmlns="http://www.w3.org/2000/svg" xmlns:xlink="http://www.w3.org/1999/xlink" style="position: absolute; width: 0; height: 0" aria-hidden="true" id="__SVG_SPRITE_NODE__">
<symbol xmlns="http://www.w3.org/2000/svg" viewBox="0 0 16 17" id="tips"><path d="M7.99980767,5.68434189e-14 C10.2225545,5.68434189e-14 12.0623388,0.732568962 13.660736,2.33094787 C15.2590783,3.92930846 16,5.76900118 16,7.99183959 C16,10.2228292 15.2590783,12.0626136 13.660736,13.6609741 C12.0623388,15.2593531 10.2225545,15.9919586 7.99980767,15.9919586 C5.7774272,15.9919586 3.93731318,15.2593531 2.33891595,13.6609741 C0.740903393,12.0626136 0,10.2228109 0,7.99183959 C0,5.7690195 0.740903393,3.92930846 2.33891595,2.33094787 C3.93729486,0.732568962 5.7774272,5.68434189e-14 7.99980767,5.68434189e-14 Z M7.99283243,10.669233 C7.4164846,10.669233 6.94935416,11.1363634 6.94935416,11.7127112 C6.94935416,12.2890591 7.4164846,12.7561895 7.99283243,12.7561895 C8.56918026,12.7561895 9.0363107,12.2890591 9.0363107,11.7127112 C9.0363107,11.1363634 8.56918026,10.669233 7.99283243,10.669233 Z M7.99283243,3.3209895 C7.2244846,3.3209895 6.60152809,3.94394603 6.60152809,4.71229386 C6.60152809,4.77177211 6.61196287,4.82881559 6.61926721,4.8862069 L6.61926721,4.8862069 L6.60883243,4.8862069 L7.13683243,9.14707646 L7.13857157,9.14707646 L7.16512395,9.25567164 C7.27585075,9.6085152 7.60358342,9.86464168 7.99283243,9.86464168 C8.42100635,9.86464168 8.7750933,9.55472864 8.84883243,9.14707646 L8.84883243,9.14707646 L9.37335416,4.8862069 L9.36674548,4.8862069 L9.37804982,4.80003298 L9.37804982,4.80003298 L9.38413677,4.71229386 C9.38413677,3.94394603 8.76118026,3.3209895 7.99283243,3.3209895 Z" transform="translate(0 .5)" fill="#FF9E00" fill-rule="nonzero"></path></symbol>
</svg>