<svg xmlns="http://www.w3.org/2000/svg" xmlns:xlink="http://www.w3.org/1999/xlink" style="position: absolute; width: 0; height: 0" aria-hidden="true" id="__SVG_SPRITE_NODE__">
<symbol xmlns="http://www.w3.org/2000/svg" viewBox="0 0 36 36" id="trend-down"><defs><linearGradient x1="50%" y1="0%" x2="50%" y2="100%" id="trend-down_a"><stop stop-color="#FE6160" stop-opacity="0" offset="0%"></stop><stop stop-color="#FE6160" offset="100%"></stop></linearGradient></defs><g fill="none" fill-rule="evenodd"><path d="M0 0H36V36H0z"></path><path d="M22,4 L21.9992915,20 L29.3137085,20 L18,31.3137085 L6.6862915,20 L13.9992915,20 L14,4 L22,4 Z" fill="url(#trend-down_a)"></path></g></symbol>
<symbol xmlns="http://www.w3.org/2000/svg" viewBox="0 0 36 36" id="trend-up"><defs><linearGradient x1="50%" y1="0%" x2="50%" y2="100%" id="trend-up_a"><stop stop-color="#05D28A" stop-opacity="0" offset="0%"></stop><stop stop-color="#05D28A" offset="100%"></stop></linearGradient></defs><g fill="none" fill-rule="evenodd"><path d="M0 0H36V36H0z"></path><path d="M22,4 L21.9992915,20 L29.3137085,20 L18,31.3137085 L6.6862915,20 L13.9992915,20 L14,4 L22,4 Z" fill="url(#trend-up_a)" transform="rotate(-180 18 17.657)"></path></g></symbol>
<symbol xmlns="http://www.w3.org/2000/svg" viewBox="0 0 12 12" id="trend"><path d="M6,0 C9.3137085,0 12,2.6862915 12,6 C12,9.3137085 9.3137085,12 6,12 C2.6862915,12 0,9.3137085 0,6 C0,2.6862915 2.6862915,0 6,0 Z M6.02509387,3.01970491 L2.66966991,6.37512887 L3.73033009,7.43578904 L5.27466991,5.89070491 L5.27509387,9.55 L6.77509387,9.55 L6.77466991,5.89070491 L8.31985766,7.43578904 L9.38051783,6.37512887 L6.02509387,3.01970491 Z" fill-rule="evenodd"></path></symbol>
</svg>