<svg xmlns="http://www.w3.org/2000/svg" xmlns:xlink="http://www.w3.org/1999/xlink" style="position: absolute; width: 0; height: 0" aria-hidden="true" id="__SVG_SPRITE_NODE__">
<symbol xmlns="http://www.w3.org/2000/svg" viewBox="0 0 36 36" id="workflow-mode"><path fill="none" d="M0 0H36V36H0z"></path><path d="M16.5,21.5c0.2-2.6,2.3-4.7,5-5v-4.6c-0.2-0.1-0.3-0.2-0.5-0.3L16.4,7c-0.5-0.5-0.5-1.4,0-2L21,0.4 c0.5-0.5,1.4-0.5,2,0L27.6,5c0.5,0.5,0.5,1.4,0,2L23,11.6c-0.1,0.1-0.3,0.2-0.5,0.3v4.6c2.8,0.3,5,2.6,5,5.5c0,3-2.5,5.5-5.5,5.5 c-2.9,0-5.2-2.2-5.5-5H11v3c0,0.8-0.7,1.5-1.5,1.5h-7C1.7,27,1,26.3,1,25.5v-7C1,17.7,1.7,17,2.5,17h7c0.8,0,1.5,0.7,1.5,1.5v3 H16.5z M10,22.5v-1v-3c0-0.3-0.2-0.5-0.5-0.5h-7C2.2,18,2,18.2,2,18.5v7C2,25.8,2.2,26,2.5,26h7c0.3,0,0.5-0.2,0.5-0.5V22.5z M11.5,5.5h5.2v1h-5.2c-0.3,2.8-2.6,5-5.5,5C3,11.5,0.5,9,0.5,6S3,0.5,6,0.5C8.9,0.5,11.2,2.7,11.5,5.5z M22.3,1.1 c-0.2-0.2-0.4-0.2-0.6,0l-4.6,4.6c-0.2,0.2-0.2,0.4,0,0.6l4.6,4.6c0.2,0.2,0.4,0.2,0.6,0l4.6-4.6c0.2-0.2,0.2-0.4,0-0.6L22.3,1.1z M6,10.5c2.5,0,4.5-2,4.5-4.5S8.5,1.5,6,1.5S1.5,3.5,1.5,6S3.5,10.5,6,10.5z M22,26.5c2.5,0,4.5-2,4.5-4.5s-2-4.5-4.5-4.5 s-4.5,2-4.5,4.5S19.5,26.5,22,26.5z" transform="translate(4 4)"></path></symbol>
</svg>