<svg xmlns="http://www.w3.org/2000/svg" xmlns:xlink="http://www.w3.org/1999/xlink" style="position: absolute; width: 0; height: 0" aria-hidden="true" id="__SVG_SPRITE_NODE__">
<symbol xmlns="http://www.w3.org/2000/svg" viewBox="0 0 48 48" id="ac-add-file"><path d="M17,26 C17.4909198,26 17.8992167,26.3537503 17.9838887,26.8202487 L18,27 L18,34 L18.0101854,34.3525456 C18.1926782,37.5021601 20.8046382,40 24,40 C27.1953618,40 29.8073218,37.5021601 29.9898146,34.3525456 L30,34 L30,27 C30,26.5090802 30.3537503,26.1007833 30.8202487,26.0161113 L31,26 L33,26 C33.4909198,26 33.8992167,26.3537503 33.9838887,26.8202487 L34,27 L34,34 L33.990761,34.4337792 C33.7636362,39.7553866 29.3775094,44 24,44 C18.6224906,44 14.2363638,39.7553866 14.009239,34.4337792 L14,34 L14,27 C14,26.5090802 14.3537503,26.1007833 14.8202487,26.0161113 L15,26 L17,26 Z M25,18 C25.5522847,18 26,18.4477153 26,19 L26,29 C26,29.5522847 25.5522847,30 25,30 L23,30 C22.4477153,30 22,29.5522847 22,29 L22,19 C22,18.4477153 22.4477153,18 23,18 L25,18 Z M24,4 C29.3775094,4 33.7636362,8.24461342 33.990761,13.5662208 L34,14 L34,21 C34,21.5522847 33.5522847,22 33,22 L31,22 C30.4477153,22 30,21.5522847 30,21 L30,14 C30,10.6862915 27.3137085,8 24,8 C20.8046382,8 18.1926782,10.4978399 18.0101854,13.6474544 L18,14 L18,21 C18,21.5522847 17.5522847,22 17,22 L15,22 C14.4477153,22 14,21.5522847 14,21 L14,14 C14,8.4771525 18.4771525,4 24,4 Z" transform="rotate(-45 24 24)" fill-rule="evenodd"></path></symbol>
<symbol xmlns="http://www.w3.org/2000/svg" viewBox="0 0 48 48" id="ac-assign"><g fill-rule="evenodd"><path d="M0 0H48V48H0z"></path><path d="M24,23 C29.6322038,23 33.2800957,24.3734171 35.7974504,25.9828184 L36.2180815,26.2608151 C36.4230191,26.4007572 36.6200091,26.5419554 36.8095892,26.6836936 L37.3701084,27.1207423 L37.9057103,27.5726196 L38.3986399,28.0180039 L38.6303156,28.2366452 C40.0521338,29.5948387 41,31.6934194 41,33.8630968 L41,39.5483871 C41,40.9016774 40.0768485,42 38.9393939,42 L9.06060606,42 C7.92315152,42 7,40.9016774 7,39.5483871 L7,33.8630968 C7,31.6934194 7.74179303,29.5948387 9.16361121,28.2366452 L9.39587808,28.0180039 L9.8933105,27.5726196 L10.4373394,27.1207423 L11.0091363,26.6836936 C11.1415728,26.5867786 11.2776623,26.490116 11.4175499,26.3939349 L11.8487521,26.1070647 C14.4322581,24.4447518 18.2233807,23 24,23 Z M24,27 C19.3594847,27 16.1120074,27.9987327 13.6862417,29.6848199 L13.4382082,29.8616819 L12.934,30.246 L12.496,30.61 L12.1375838,30.9305714 L11.9265821,31.1290476 C11.4189835,31.6139318 11.0517463,32.5327105 11.0050374,33.6261983 L11,33.8630968 L11,38 L22.688,38 L22.52372,37.8366983 C22.2565721,37.5705113 22.2565237,37.1391263 22.5236119,36.8728799 L24.5396734,34.8628928 L19.1844598,34.8628928 C18.8064431,34.8628928 18.5,34.5577988 18.5,34.1814464 L18.5,32.8185536 C18.5,32.4422012 18.8064431,32.1371072 19.1844598,32.1371072 L24.5424112,32.1371072 L22.52372,30.1270125 C22.2564218,29.8608911 22.2564218,29.4294231 22.52372,29.1633017 L23.4916923,28.199591 C23.7589905,27.9334697 24.1923665,27.9334697 24.4596646,28.199591 L29.2995264,33.0181446 C29.5668245,33.284266 29.5668245,33.715734 29.2995264,33.9818554 L25.262,38 L37,38 L37,33.8630968 C37,32.9153905 36.603517,31.9244728 36.0222338,31.2865015 L35.8849074,31.145723 L35.7169723,30.9859424 L35.274,30.586 L34.843,30.223 L34.414425,29.8873148 C32.0321002,28.1061869 28.9842858,27.0705377 24.4720406,27.0034734 L24,27 Z M24,5.5 C28.418,5.5 32,9.082 32,13.5 C32,17.918 28.418,21.5 24,21.5 C19.582,21.5 16,17.918 16,13.5 C16,9.082 19.582,5.5 24,5.5 Z M24,9.5 C21.791139,9.5 20,11.291139 20,13.5 C20,15.708861 21.791139,17.5 24,17.5 C26.208861,17.5 28,15.708861 28,13.5 C28,11.291139 26.208861,9.5 24,9.5 Z" fill-rule="nonzero"></path></g></symbol>
<symbol xmlns="http://www.w3.org/2000/svg" viewBox="152 -152 1024 1024" id="ac-attachment"><path d="M864.5,212.1c-17-17-39.8-26.4-64.1-26.4c-24.3,0-47.1,9.4-64.1,26.4l-85.1,85l-53.1,53.2l-31.9,31.9c-2.8,2.8-5,6-6.6,9.9 l-0.1,0.3c-1.5,3.7-2.2,7.5-2.2,11.3s0.7,7.6,2.2,11.3c1.5,3.8,3.8,7.2,6.7,10.2c5.7,5.7,13.4,8.9,21.6,8.9c8.1,0,15.7-3.1,21.5-8.8 l32-32l53.1-53.2l85-85.1c5.6-5.6,13.1-8.7,21-8.7c8.1,0,15.4,3,21,8.7c2.9,2.9,5.1,6.1,6.4,9.6l0.1,0.1c1.4,3.5,2.2,7.3,2.2,11.2 s-0.7,7.6-2.2,11.2c-1.5,3.7-3.7,7-6.5,9.8L651.5,467.1c-17,17-39.6,26.3-63.6,26.3c-23.9,0-46.5-9.4-63.6-26.3 c-17-17-26.3-39.6-26.3-63.6c0-23.9,9.4-46.5,26.3-63.6L770.1,94.2c5.7-5.7,8.9-13.4,8.9-21.6c0-8.1-3.1-15.7-8.8-21.5l-0.1-0.1 c-5.7-5.7-13.4-8.9-21.6-8.9c-8.1,0-15.7,3.1-21.5,8.8L513.1,265l-31.9,31.9c-14.5,14.5-25.6,31.3-33,49.8 c-7.3,18.1-11.1,37.2-11.1,56.7c0,19.6,3.7,38.7,11.1,56.7c7.6,18.6,18.7,35.4,33.1,49.8c14.5,14.5,31.3,25.6,49.9,33 c18.1,7.3,37.2,11.1,56.7,11.1c19.6,0,38.7-3.7,56.7-11.1c18.6-7.6,35.4-18.7,49.8-33.1l31.9-31.9l138.2-137.6l0,0 c17-17,26.4-39.8,26.4-64.1C890.9,251.9,881.5,229.1,864.5,212.1z"></path></symbol>
<symbol xmlns="http://www.w3.org/2000/svg" viewBox="0 0 36 36" id="ac-cancel"><g fill-rule="evenodd"><path fill="none" d="M0 0H36V36H0z"></path><path d="M28.75,5 C29.9926407,5 31,6.00735931 31,7.25 L31,28.75 C31,29.9926407 29.9926407,31 28.75,31 L7.25,31 C6.00735931,31 5,30.4926407 5,29.25 L5,7.25 C5,6.00735931 6.00735931,5 7.25,5 L28.75,5 Z M28,8 L8,8 L8,28 L28,28 L28,8 Z M14.1109127,11.9895924 L17.9996991,15.8776991 L21.8890873,11.9895924 C22.2495713,11.6291084 22.8168023,11.6013789 23.2090935,11.9064038 L23.3033009,11.9895924 L24.0104076,12.6966991 C24.3708916,13.0571831 24.3986211,13.6244142 24.0935962,14.0167054 L24.0104076,14.1109127 L20.1206991,17.9996991 L24.0104076,21.8890873 C24.4009319,22.2796116 24.4009319,22.9127766 24.0104076,23.3033009 L23.3033009,24.0104076 C22.9127766,24.4009319 22.2796116,24.4009319 21.8890873,24.0104076 L17.9996991,20.1206991 L14.1109127,24.0104076 C13.7504287,24.3708916 13.1831977,24.3986211 12.7909065,24.0935962 L12.6966991,24.0104076 L11.9895924,23.3033009 C11.6291084,22.9428169 11.6013789,22.3755858 11.9064038,21.9832946 L11.9895924,21.8890873 L15.8776991,17.9996991 L11.9895924,14.1109127 C11.5990681,13.7203884 11.5990681,13.0872234 11.9895924,12.6966991 L12.6966991,11.9895924 C13.0872234,11.5990681 13.7203884,11.5990681 14.1109127,11.9895924 Z"></path></g></symbol>
<symbol xmlns="http://www.w3.org/2000/svg" viewBox="0 0 15 15" id="ac-change-kind"><path d="M12.8119,6.30847244140625C13.008,6.30847244140625,13.167,6.151322441406251,13.167,5.95746244140625L13.167,5.25543244140625C13.167,5.06157244140625,13.008,4.9044224414062505,12.8119,4.9044224414062505L5.22283,4.90441244140625L5.22283,3.86551644140625C5.22283,3.82566344140625,5.209099999999999,3.78699764140625,5.1839200000000005,3.75587784140625C5.12265,3.68018803140625,5.01091,3.66791624140625,4.93432,3.72846814140625L2.0666361,5.99592244140625C2.0245132,6.02922244140625,1.99999237061,6.07965244140625,1.99999237061,6.132962441406249C1.99999237061,6.229902441406249,2.0794945,6.30847244140625,2.177567,6.30847244140625L12.8119,6.30847244140625ZM2.355103,8.690062441406251C2.158959,8.690062441406251,2,8.84721244140625,2,9.04107244140625L2,9.74310244140625C2,9.93696244140625,2.158959,10.09411244140625,2.355103,10.09411244140625L9.94416,10.094122441406249L9.94416,11.13302244140625C9.94416,11.17287244140625,9.957889999999999,11.21153244140625,9.983080000000001,11.24265244140625C10.04434,11.31834244140625,10.15609,11.33062244140625,10.23267,11.27006244140625L13.1004,9.00261244140625C13.1425,8.969312441406249,13.167,8.91888244140625,13.167,8.86557244140625C13.167,8.76864244140625,13.0875,8.690062441406251,12.9894,8.690062441406251L2.355103,8.690062441406251Z" fill-rule="evenodd"></path></symbol>
<symbol xmlns="http://www.w3.org/2000/svg" viewBox="0 0 21 20" id="ac-changed-subtask"><path d="M9,0 C14,0 18,4 18,9 C18,14 14,18 9,18 C4,18 0,14 0,9 C0,4 4,0 9,0 Z M10.8314129,7.47893643 C10.6430902,5.89291177 9.28981798,4.65812824 7.65343412,4.65812824 C5.88859973,4.65812824 4.45235526,6.0943727 4.45235526,7.85849431 C4.45235526,8.70655613 4.78373408,9.47847482 5.32373396,10.0517296 L4.82891085,10.9087884 C4.7249279,11.0888922 4.786636,11.31919 4.96673976,11.4231729 C5.14684352,11.5271559 5.3771413,11.4654478 5.48112425,11.285344 L5.91016732,10.5422196 C6.33308309,10.8178519 6.82484549,10.9962923 7.35349226,11.0456402 L10.8314129,7.47893643 Z M11.2114596,7.08918799 L11.6147623,6.67559 C11.7313352,6.40305925 11.795868,6.10296334 11.795868,5.78779499 C11.795868,4.53999955 10.7843299,3.52846148 9.5365345,3.52846148 C9.01120728,3.52846148 8.52775541,3.70775115 8.1440309,4.00847845 C8.14387647,4.00859948 8.14372191,4.00872068 8.14356722,4.00884206 L8.14352985,4.00879443 C8.0655078,4.07001375 8.05188649,4.18289118 8.11310581,4.26091323 C8.140969,4.29642397 8.18118372,4.32013888 8.2257434,4.32733644 C9.63692049,4.55527839 10.7745907,5.61179522 11.1216917,6.97949201 C11.1343797,7.02948709 11.1683458,7.06845895 11.2114596,7.08918799 Z M8.02963331,7.67057291 L8.78274448,7.67057291 C8.99071039,7.67057291 9.15930007,7.83916259 9.15930007,8.04712849 C9.15930007,8.2550944 8.99071039,8.42368408 8.78274448,8.42368408 L7.27652215,8.42368408 L7.27652215,6.16435057 C7.27652215,5.95638467 7.44511182,5.78779499 7.65307773,5.78779499 C7.86104364,5.78779499 8.02963331,5.95638467 8.02963331,6.16435057 L8.02963331,7.67057291 Z M3.87240901,7.01409642 C3.8761375,7.01985499 3.88006608,7.02579463 3.88420486,7.03190852 C3.90719469,7.06599083 3.94192591,7.09041801 3.98177396,7.10053085 C4.0713566,7.12326559 4.16240783,7.06907466 4.18514257,6.97949201 C4.53224365,5.61179522 5.66991382,4.55527839 7.08109091,4.32733644 C7.12565059,4.32013888 7.16586531,4.29642397 7.1937285,4.26091323 C7.25494782,4.18289118 7.24132651,4.07001375 7.16330446,4.00879443 L7.16326709,4.00884206 C7.1631124,4.00872068 7.16295785,4.00859948 7.16280342,4.00847845 C6.7790789,3.70775115 6.29562703,3.52846148 5.77029981,3.52846148 C4.52250437,3.52846148 3.5109663,4.53999955 3.5109663,5.78779499 C3.5109663,6.23986109 3.64373611,6.66091715 3.87240901,7.01409642 Z M13.1066435,7.89542473 L13.1065341,7.89553413 C12.9113147,7.70031471 12.5948166,7.70026574 12.3995367,7.89542476 L8.30330177,11.988907 C7.28092247,13.7749776 6.86519423,14.7634743 7.05611704,14.9543971 C7.24703986,15.1453199 8.22163943,14.7156946 9.97991575,13.665521 L14.0761507,9.5720387 C14.0761872,9.57200225 14.0762236,9.57196579 14.0762601,9.57192933 C14.2715222,9.37666719 14.2715222,9.0600847 14.0762601,8.86482255 L13.1066435,7.89542473 Z M15.3463827,8.29387213 L15.8206008,7.74061774 C15.9786735,7.58254506 15.9786735,7.34543604 15.8206008,7.18736336 L14.714092,6.08085458 C14.5560193,5.9227819 14.3189103,5.9227819 14.1608376,6.08085458 L13.6075832,6.63410897 C13.4495106,6.79218165 13.4495106,7.02929067 13.6075832,7.18736336 L14.714092,8.29387213 C14.7931284,8.37290847 14.951201,8.37290847 15.0302374,8.37290847 C15.1092737,8.37290847 15.2673464,8.37290847 15.3463827,8.29387213 Z" transform="translate(1.5 1)" fill="#FFB119" fill-rule="nonzero"></path></symbol>
<symbol xmlns="http://www.w3.org/2000/svg" viewBox="0 0 21 20" id="ac-completed-subtask"><path d="M9,0 C14,0 18,4 18,9 C18,14 14,18 9,18 C4,18 0,14 0,9 C0,4 4,0 9,0 Z M4.22025459,3.67922154 C3.89416465,3.67922154 3.62981653,3.94356966 3.62981653,4.2696596 L3.62981653,4.28878348 C3.62981653,4.61487341 3.89416465,4.87922154 4.22025459,4.87922154 L11.098723,4.87922154 C11.4248129,4.87922154 11.6891611,4.61487341 11.6891611,4.28878348 L11.6891611,4.2696596 C11.6891611,3.94356966 11.4248129,3.67922154 11.098723,3.67922154 L4.22025459,3.67922154 Z M4.22025459,6.42824969 C3.89416465,6.42824969 3.62981653,6.69259781 3.62981653,7.01868775 L3.62981653,7.03781163 C3.62981653,7.36390156 3.89416465,7.62824969 4.22025459,7.62824969 L9.19694787,7.62824969 C9.52303781,7.62824969 9.78738593,7.36390156 9.78738593,7.03781163 L9.78738593,7.01868775 C9.78738593,6.69259781 9.52303781,6.42824969 9.19694787,6.42824969 L4.22025459,6.42824969 Z M7.62497983,12.1577289 L5.11016632,9.76070466 C4.77035808,9.43681241 4.23232253,9.44971488 3.90843028,9.78952311 C3.58453804,10.1293314 3.5974405,10.6673669 3.93724874,10.9912591 L7.04172324,13.9503258 C7.37136096,14.2645239 7.89005543,14.2631131 8.21797911,13.9471265 L15.0930743,7.32229845 C15.4311156,6.99656251 15.4410911,6.45846474 15.1153552,6.12042343 C14.7896192,5.78238212 14.2515215,5.77240664 13.9134801,6.09814257 L7.62497983,12.1577289 Z" transform="translate(1.5 1)" fill="#81BF2C" fill-rule="nonzero"></path></symbol>
<symbol xmlns="http://www.w3.org/2000/svg" viewBox="0 0 24 24" id="ac-create"><defs><clipPath id="ac-create_a"><rect width="24" height="24" rx="0"></rect></clipPath></defs><g clip-path="url(#ac-create_a)"><path d="M12.939936618804932,6.000546970367432Q12.939936618804932,5.7768709703674315,12.781776618804932,5.618709970367432Q12.623616618804931,5.460546970367432,12.399936618804933,5.460546970367432L11.599936618804932,5.460546970367432Q11.376266618804932,5.460546970367432,11.218096618804932,5.6187089703674316Q11.059936618804931,5.776873970367432,11.059936618804931,6.000546970367432L11.059936618804931,11.05976697036743L5.999921618804931,11.060546970367431Q5.776263618804932,11.060546970367431,5.618099618804932,11.218706970367432Q5.459936618804932,11.376876970367432,5.459936618804932,11.600546970367432L5.459936618804932,12.400546970367433Q5.459936618804932,12.624226970367431,5.6180986188049316,12.782386970367432Q5.7762606188049315,12.940546970367432,5.999942618804932,12.940546970367432L11.059936618804931,12.939766970367431L11.059936618804931,18.00054697036743Q11.059936618804931,18.22424697036743,11.218096618804932,18.38234697036743Q11.376266618804932,18.54054697036743,11.599936618804932,18.54054697036743L12.399936618804933,18.54054697036743Q12.623616618804931,18.54054697036743,12.781776618804932,18.38234697036743Q12.939936618804932,18.22424697036743,12.939936618804932,18.00054697036743L12.939936618804932,12.939766970367431L17.99993661880493,12.940546970367432Q18.22363661880493,12.940546970367432,18.38173661880493,12.782386970367432Q18.53993661880493,12.624226970367431,18.53993661880493,12.400546970367433L18.53993661880493,11.600546970367432Q18.53993661880493,11.37686697036743,18.38173661880493,11.218706970367432Q18.22363661880493,11.060546970367431,17.99993661880493,11.060546970367431L12.939936618804932,11.05976697036743L12.939936618804932,6.000546970367432Z" fill-rule="evenodd"></path></g></symbol>
<symbol xmlns="http://www.w3.org/2000/svg" viewBox="0 0 21 20" id="ac-created-subtask"><path d="M9,0 C14,0 18,4 18,9 C18,14 14,18 9,18 C4,18 0,14 0,9 C0,4 4,0 9,0 Z M10.4991714,9.78027901 L7.9694991,9.78027901 C7.55528554,9.78027901 7.2194991,10.1160654 7.2194991,10.530279 C7.2194991,10.9444926 7.55528554,11.280279 7.9694991,11.280279 L10.4991714,11.280279 L10.4991714,13.8099513 C10.4991714,14.2241648 10.8349578,14.5599513 11.2491714,14.5599513 C11.6633849,14.5599513 11.9991714,14.2241648 11.9991714,13.8099513 L11.9991714,11.280279 L14.5288436,11.280279 C14.9430572,11.280279 15.2788436,10.9444926 15.2788436,10.530279 C15.2788436,10.1160654 14.9430572,9.78027901 14.5288436,9.78027901 L11.9991714,9.78027901 L11.9991714,7.25060674 C11.9991714,6.83639318 11.6633849,6.50060674 11.2491714,6.50060674 C10.8349578,6.50060674 10.4991714,6.83639318 10.4991714,7.25060674 L10.4991714,9.78027901 Z M3.78026489,3.64875232 C3.45417496,3.64875232 3.18982683,3.91310045 3.18982683,4.23919038 L3.18982683,4.25831426 C3.18982683,4.5844042 3.45417496,4.84875232 3.78026489,4.84875232 L10.6587333,4.84875232 C10.9848232,4.84875232 11.2491714,4.5844042 11.2491714,4.25831426 L11.2491714,4.23919038 C11.2491714,3.91310045 10.9848232,3.64875232 10.6587333,3.64875232 L3.78026489,3.64875232 Z M3.78026489,6.39778047 C3.45417496,6.39778047 3.18982683,6.6621286 3.18982683,6.98821853 L3.18982683,7.00734241 C3.18982683,7.33343235 3.45417496,7.59778047 3.78026489,7.59778047 L8.75938877,7.59778047 C9.08547871,7.59778047 9.34982683,7.33343235 9.34982683,7.00734241 L9.34982683,6.98821853 C9.34982683,6.6621286 9.08547871,6.39778047 8.75938877,6.39778047 L3.78026489,6.39778047 Z" transform="translate(1.5 1)" fill="#617FDE" fill-rule="nonzero"></path></symbol>
<symbol xmlns="http://www.w3.org/2000/svg" viewBox="0 0 36 36" id="ac-del-file"><path d="M15.75,0 C17.7382251,0 19.365058,1.5473039 19.4920235,3.50343647 L19.5,3.75 L19.5,4.5 L26.25,4.5 C26.6642136,4.5 27,4.83578644 27,5.25 L27,6.75 C27,7.16421356 26.6642136,7.5 26.25,7.5 L25.5,7.5 L25.5,24.75 C25.5,26.7382251 23.9526961,28.365058 21.9965635,28.4920235 L21.75,28.5 L5.25,28.5 C3.2617749,28.5 1.63494199,26.9526961 1.50797652,24.9965635 L1.5,24.75 L1.5,7.5 L0.75,7.5 C0.335786438,7.5 0,7.16421356 0,6.75 L0,5.25 C0,4.83578644 0.335786438,4.5 0.75,4.5 L7.5,4.5 L7.5,3.75 C7.5,1.7617749 9.0473039,0.134941992 11.0034365,0.00797651952 L11.25,0 L15.75,0 Z M22.5,7.5 L4.5,7.5 L4.5,24.75 C4.5,25.0721661 4.70313007,25.3468886 4.9883007,25.4530781 L5.11518655,25.4879165 L5.25,25.5 L21.75,25.5 C22.1181898,25.5 22.4244126,25.2346873 22.4879165,24.8848134 L22.5,24.75 L22.5,7.5 Z M14.25,10.5 C14.6642136,10.5 15,10.8357864 15,11.25 L15,21.75 C15,22.1642136 14.6642136,22.5 14.25,22.5 L12.75,22.5 C12.3357864,22.5 12,22.1642136 12,21.75 L12,11.25 C12,10.8357864 12.3357864,10.5 12.75,10.5 L14.25,10.5 Z M15.75,3 L11.25,3 C10.8818102,3 10.5755874,3.26531274 10.5120835,3.61518655 L10.5,3.75 L10.5,4.5 L16.5,4.5 L16.5,3.75 C16.5,3.4278339 16.2968699,3.15311136 16.0116993,3.04692189 L15.8848134,3.0120835 L15.75,3 Z" transform="translate(4.5 3)" fill-rule="evenodd"></path></symbol>
<symbol xmlns="http://www.w3.org/2000/svg" viewBox="0 0 48 48" id="ac-delete-file"><g fill="none" fill-rule="evenodd"><circle fill="#E03131" cx="24" cy="24" r="24"></circle><path d="M23.8264382,28.0569664 C22.4802441,30.388643 19.4987409,31.1875343 17.1670644,29.8413403 C14.9157905,28.5415667 14.093415,25.7173194 15.2510559,23.4253987 L15.3826905,23.1819664 L20.3826905,14.5217124 C20.5207617,14.2825661 20.8265569,14.2006285 21.0657032,14.3386997 L23.4472731,15.7136997 C23.6864194,15.8517709 23.768357,16.1575661 23.6302858,16.3967124 L18.6302858,25.0569664 L18.6302858,25.0569664 C18.3196256,25.5950456 18.5039852,26.2830848 19.0420644,26.593745 C19.5353036,26.8785168 20.154551,26.7473346 20.493621,26.3090353 L20.578843,26.1819664 L26.016343,16.7639402 L26.1479776,16.5205079 C27.3056185,14.2285872 26.483243,11.4043399 24.2319691,10.1045663 C21.9806952,8.80479273 19.1236376,9.5047183 17.7175965,11.6532251 L17.5725953,11.8889402 L8.44759526,27.6939038 C8.30952408,27.9330501 8.00372887,28.0149877 7.76458256,27.8769165 L5.3830127,26.5019165 C5.14386639,26.3638453 5.06192881,26.0580501 5.2,25.8189038 L14.325,10.0139402 L14.325,10.0139402 L14.4958105,9.73054396 C16.9514535,5.82497821 22.0776318,4.53063209 26.1069691,6.85697105 C30.1363064,9.18331001 31.5784589,14.2698837 29.4239613,18.3493158 L29.2639382,18.6389402 L23.8264382,28.0569664 Z" transform="translate(6 6)" fill="#FFFFFF"></path></g></symbol>
<symbol xmlns="http://www.w3.org/2000/svg" viewBox="0 0 36 36" id="ac-delete"><path d="M15.75,0 C17.7382251,0 19.365058,1.5473039 19.4920235,3.50343647 L19.5,3.75 L19.5,4.5 L26.25,4.5 C26.6642136,4.5 27,4.83578644 27,5.25 L27,6.75 C27,7.16421356 26.6642136,7.5 26.25,7.5 L25.5,7.5 L25.5,24.75 C25.5,26.7382251 23.9526961,28.365058 21.9965635,28.4920235 L21.75,28.5 L5.25,28.5 C3.2617749,28.5 1.63494199,26.9526961 1.50797652,24.9965635 L1.5,24.75 L1.5,7.5 L0.75,7.5 C0.335786438,7.5 0,7.16421356 0,6.75 L0,5.25 C0,4.83578644 0.335786438,4.5 0.75,4.5 L7.5,4.5 L7.5,3.75 C7.5,1.7617749 9.0473039,0.134941992 11.0034365,0.00797651952 L11.25,0 L15.75,0 Z M22.5,7.5 L4.5,7.5 L4.5,24.75 C4.5,25.0721661 4.70313007,25.3468886 4.9883007,25.4530781 L5.11518655,25.4879165 L5.25,25.5 L21.75,25.5 C22.1181898,25.5 22.4244126,25.2346873 22.4879165,24.8848134 L22.5,24.75 L22.5,7.5 Z M14.25,10.5 C14.6642136,10.5 15,10.8357864 15,11.25 L15,21.75 C15,22.1642136 14.6642136,22.5 14.25,22.5 L12.75,22.5 C12.3357864,22.5 12,22.1642136 12,21.75 L12,11.25 C12,10.8357864 12.3357864,10.5 12.75,10.5 L14.25,10.5 Z M15.75,3 L11.25,3 C10.8818102,3 10.5755874,3.26531274 10.5120835,3.61518655 L10.5,3.75 L10.5,4.5 L16.5,4.5 L16.5,3.75 C16.5,3.4278339 16.2968699,3.15311136 16.0116993,3.04692189 L15.8848134,3.0120835 L15.75,3 Z" transform="translate(4.5 3)" fill-rule="evenodd"></path></symbol>
<symbol xmlns="http://www.w3.org/2000/svg" viewBox="0 0 21 20" id="ac-deleted-subtask"><path d="M9,0 C14,0 18,4 18,9 C18,14 14,18 9,18 C4,18 0,14 0,9 C0,4 4,0 9,0 Z M3.78026489,3.64875232 C3.45417496,3.64875232 3.18982683,3.91310045 3.18982683,4.23919038 L3.18982683,4.25831426 C3.18982683,4.5844042 3.45417496,4.84875232 3.78026489,4.84875232 L10.6587333,4.84875232 C10.9848232,4.84875232 11.2491714,4.5844042 11.2491714,4.25831426 L11.2491714,4.23919038 C11.2491714,3.91310045 10.9848232,3.64875232 10.6587333,3.64875232 L3.78026489,3.64875232 Z M3.78026489,6.39778047 C3.45417496,6.39778047 3.18982683,6.6621286 3.18982683,6.98821853 L3.18982683,7.00734241 C3.18982683,7.33343235 3.45417496,7.59778047 3.78026489,7.59778047 L6.06988355,7.59778047 C6.39597349,7.59778047 6.66032161,7.33343235 6.66032161,7.00734241 L6.66032161,6.98821853 C6.66032161,6.6621286 6.39597349,6.39778047 6.06988355,6.39778047 L3.78026489,6.39778047 Z M3.78026489,9.14680862 C3.45417496,9.14680862 3.18982683,9.41115674 3.18982683,9.73724668 L3.18982683,9.75637056 C3.18982683,10.0824605 3.45417496,10.3468086 3.78026489,10.3468086 L6.06988355,10.3468086 C6.39597349,10.3468086 6.66032161,10.0824605 6.66032161,9.75637056 L6.66032161,9.73724668 C6.66032161,9.41115674 6.39597349,9.14680862 6.06988355,9.14680862 L3.78026489,9.14680862 Z M9.73233098,6.71338369 L9.03971691,6.71338369 C8.48743216,6.71338369 8.03971691,7.16109894 8.03971691,7.71338369 L8.03971691,7.88843968 L14.8101732,7.88843968 L14.8101732,7.71338369 C14.8101732,7.16109894 14.3624579,6.71338369 13.8101732,6.71338369 L13.1175591,6.71338369 L12.8485078,6.43321027 C12.6599421,6.23684951 12.3994695,6.12585569 12.1272296,6.12585569 L10.7226605,6.12585569 C10.4504206,6.12585569 10.189948,6.23684951 10.0013822,6.43321027 L9.73233098,6.71338369 Z M9.6019608,8.76973168 C9.160133,8.76973168 8.8019608,9.12790388 8.8019608,9.56973168 L8.8019608,13.1512477 C8.8019608,13.8139894 9.3392191,14.3512477 10.0019608,14.3512477 L12.8479293,14.3512477 C13.510671,14.3512477 14.0479293,13.8139894 14.0479293,13.1512477 L14.0479293,9.56973168 C14.0479293,9.12790388 13.6897571,8.76973168 13.2479293,8.76973168 L9.6019608,8.76973168 Z" transform="translate(1.5 1)" fill="#FF5B81" fill-rule="nonzero"></path></symbol>
<symbol xmlns="http://www.w3.org/2000/svg" viewBox="0 0 24 24" id="ac-done"><defs><clipPath id="ac-done_a"><rect width="24" height="24" rx="0"></rect></clipPath></defs><g clip-path="url(#ac-done_a)"><path d="M18.788600000000002,9.1503928125Q18.923299999999998,9.0156628125,18.923299999999998,8.8251928125Q18.923299999999998,8.6346628125,18.788600000000002,8.4999998125L18.0532,7.7646488125Q17.9185,7.6299344599,17.727899999999998,7.6298828125Q17.537300000000002,7.6298828125,17.4027,7.7646488125L10.52871,14.6382728125Q10.47598,14.691002812499999,10.40145,14.6910128125Q10.326889999999999,14.6910128125,10.27411,14.638262812499999L6.52061,10.8851428125Q6.38589,10.7504228125,6.19543,10.7503928125Q6.00487,10.7503928125,5.870112,10.8851428125L5.134768,11.6202928125Q5.0000346377,11.7550228125,5,11.9456828125Q5,12.1362128125,5.134724,12.2710628125L10.07616,17.2125128125Q10.21089,17.3472328125,10.40145,17.3472628125Q10.592030000000001,17.3472628125,10.726700000000001,17.2124828125L18.788600000000002,9.1503928125Z" fill-rule="evenodd"></path></g></symbol>
<symbol xmlns="http://www.w3.org/2000/svg" viewBox="0 0 36 36" id="ac-edit"><path d="M30.75,30 C31.1642136,30 31.5,30.3357864 31.5,30.75 L31.5,32.25 C31.5,32.6642136 31.1642136,33 30.75,33 L5.25,33 C4.83578644,33 4.5,32.6642136 4.5,32.25 L4.5,30.75 C4.5,30.3357864 4.83578644,30 5.25,30 L30.75,30 Z M22.5334234,3.56407942 L22.7262324,3.66350448 L26.6233468,5.91350448 C27.6362017,6.49827657 28.0223977,7.75162328 27.546329,8.79425265 L27.4469039,8.98706164 L17.8448222,25.6183551 L13.0938599,27.9674517 C12.1655974,28.4264279 11.0410182,28.0459961 10.582042,27.1177336 C10.4997519,26.9513047 10.4427898,26.7738901 10.4127306,26.5913664 L10.3916973,26.4073574 L10.0505936,21.1183551 L19.6526753,4.48706164 C20.2374474,3.47420667 21.4907941,3.08801074 22.5334234,3.56407942 Z M18.8855936,11.8141859 L13.1030015,21.8314294 L13.2777896,24.5286875 L15.7018277,23.3301304 L21.4836126,13.3141529 L18.8855936,11.8141859 Z M21.8765015,6.63528166 L20.3840936,9.21618595 L22.9835936,10.7161859 L24.4745777,8.13528166 L21.8765015,6.63528166 Z" fill-rule="evenodd"></path></symbol>
<symbol xmlns="http://www.w3.org/2000/svg" viewBox="0 0 21 20" id="ac-edited-subtask"><path d="M9,0 C14,0 18,4 18,9 C18,14 14,18 9,18 C4,18 0,14 0,9 C0,4 4,0 9,0 Z M12.1866188,7.37899363 L12.1865094,7.37910304 C11.99129,7.18388361 11.6747919,7.18383465 11.479512,7.37899367 L7.38327706,11.4724759 C6.36089776,13.2585465 5.94516952,14.2470432 6.13609234,14.437966 C6.32701515,14.6288888 7.30161472,14.1992635 9.05989104,13.1490899 L13.156126,9.05560761 C13.1561625,9.05557116 13.1561989,9.0555347 13.1562354,9.05549824 C13.3514975,8.86023609 13.3514975,8.5436536 13.1562354,8.34839145 L12.1866188,7.37899363 Z M14.426358,7.77744103 L14.9005761,7.22418665 C15.0586488,7.06611396 15.0586488,6.82900494 14.9005761,6.67093226 L13.7940673,5.56442349 C13.6359946,5.40635081 13.3988856,5.40635081 13.2408129,5.56442349 L12.6875585,6.11767787 C12.5294858,6.27575056 12.5294858,6.51285958 12.6875585,6.67093226 L13.7940673,7.77744103 C13.8731036,7.85647737 14.0311763,7.85647737 14.1102127,7.85647737 C14.189249,7.85647737 14.3473217,7.85647737 14.426358,7.77744103 Z M3.78026489,3.64875232 C3.45417496,3.64875232 3.18982683,3.91310045 3.18982683,4.23919038 L3.18982683,4.25831426 C3.18982683,4.5844042 3.45417496,4.84875232 3.78026489,4.84875232 L10.6587333,4.84875232 C10.9848232,4.84875232 11.2491714,4.5844042 11.2491714,4.25831426 L11.2491714,4.23919038 C11.2491714,3.91310045 10.9848232,3.64875232 10.6587333,3.64875232 L3.78026489,3.64875232 Z M3.78026489,6.39778047 C3.45417496,6.39778047 3.18982683,6.6621286 3.18982683,6.98821853 L3.18982683,7.00734241 C3.18982683,7.33343235 3.45417496,7.59778047 3.78026489,7.59778047 L6.06988355,7.59778047 C6.39597349,7.59778047 6.66032161,7.33343235 6.66032161,7.00734241 L6.66032161,6.98821853 C6.66032161,6.6621286 6.39597349,6.39778047 6.06988355,6.39778047 L3.78026489,6.39778047 Z M3.78026489,9.14680862 C3.45417496,9.14680862 3.18982683,9.41115674 3.18982683,9.73724668 L3.18982683,9.75637056 C3.18982683,10.0824605 3.45417496,10.3468086 3.78026489,10.3468086 L6.06988355,10.3468086 C6.39597349,10.3468086 6.66032161,10.0824605 6.66032161,9.75637056 L6.66032161,9.73724668 C6.66032161,9.41115674 6.39597349,9.14680862 6.06988355,9.14680862 L3.78026489,9.14680862 Z" transform="translate(1.5 1)" fill="#FFB119" fill-rule="nonzero"></path></symbol>
<symbol xmlns="http://www.w3.org/2000/svg" viewBox="0 0 24 24" id="ac-in"><path d="M13.0048282,14.4 L13.0048282,18.251065 L13.0048282,18.251065 L14.326394,16.9686982 C14.4849864,16.8149742 14.73816,16.8187481 14.8921,16.9771307 L15.7378346,17.848203 C15.8917253,18.0066978 15.8879878,18.2599363 15.7294899,18.4138238 C15.7294889,18.4138248 15.7294878,18.4138258 15.7294837,18.4138237 L12.0357853,22 L12.0357853,22 L8.2732695,18.4189119 C8.11325533,18.2666051 8.1069983,18.0134198 8.25929375,17.8533948 L9.09713908,16.9730749 C9.24946356,16.8131015 9.50262433,16.8068271 9.66268648,16.9590584 L10.9894916,18.221528 L10.9894916,18.221528 L10.9894916,14.4 C10.9894916,14.1790861 11.1685777,14 11.3894916,14 L12.6048282,14 C12.8257421,14 13.0048282,14.1790861 13.0048282,14.4 Z M18.4138237,8.27051634 L22,11.9642147 L22,11.9642147 L18.4189119,15.7267305 C18.2666051,15.8867447 18.0134198,15.8930017 17.8533948,15.7407063 L16.9730749,14.9028609 C16.8131015,14.7505364 16.8068271,14.4973757 16.9590584,14.3373135 L18.221528,13.0105084 L18.221528,13.0105084 L14.4,13.0105084 C14.1790861,13.0105084 14,12.8314223 14,12.6105084 L14,11.3951718 C14,11.1742579 14.1790861,10.9951718 14.4,10.9951718 L18.251065,10.9951718 L18.251065,10.9951718 L16.9686982,9.67360597 C16.8149742,9.51501355 16.8187481,9.26184004 16.9771307,9.10789995 L17.848203,8.2621654 C18.0066978,8.1082747 18.2599363,8.11201217 18.4138238,8.27051007 C18.4138248,8.27051113 18.4138258,8.27051219 18.4138237,8.27051634 Z M6.15179697,8.2621654 L7.02286931,9.10789995 C7.18125193,9.26184004 7.18502579,9.51501355 7.03130184,9.67360597 L5.74893496,10.9951718 L5.74893496,10.9951718 L9.6,10.9951718 C9.8209139,10.9951718 10,11.1742579 10,11.3951718 L10,12.6105084 C10,12.8314223 9.8209139,13.0105084 9.6,13.0105084 L5.77847204,13.0105084 L5.77847204,13.0105084 L7.04094157,14.3373135 C7.19317286,14.4973757 7.18689855,14.7505364 7.02692508,14.9028609 L6.14660517,15.7407063 C5.98658021,15.8930017 5.73339487,15.8867447 5.58108808,15.7267305 L2,11.9642147 L2,11.9642147 L5.58617633,8.27051634 C5.7400589,8.11201364 5.99329727,8.10827337 6.15179688,8.26215912 C6.15179794,8.26216015 6.151799,8.26216118 6.15179697,8.2621654 Z M12.0357853,2 L15.7294837,5.58617633 C15.8879864,5.7400589 15.8917266,5.99329727 15.7378409,6.15179688 C15.7378398,6.15179794 15.7378388,6.151799 15.7378346,6.15179697 L14.8921,7.02286931 C14.73816,7.18125193 14.4849864,7.18502579 14.326394,7.03130184 L13.0048282,5.74893496 L13.0048282,5.74893496 L13.0048282,9.6 C13.0048282,9.8209139 12.8257421,10 12.6048282,10 L11.3894916,10 C11.1685777,10 10.9894916,9.8209139 10.9894916,9.6 L10.9894916,5.77847204 L10.9894916,5.77847204 L9.66268648,7.04094157 C9.50262433,7.19317286 9.24946356,7.18689855 9.09713908,7.02692508 L8.25929375,6.14660517 C8.1069983,5.98658021 8.11325533,5.73339487 8.2732695,5.58108808 L12.0357853,2 L12.0357853,2 Z" fill-rule="nonzero"></path></symbol>
<symbol xmlns="http://www.w3.org/2000/svg" viewBox="0 0 24 24" id="ac-out"><g fill-rule="evenodd"><path d="M12,2 C17.5228475,2 22,6.4771525 22,12 C22,17.5228475 17.5228475,22 12,22 C6.4771525,22 2,17.5228475 2,12 C2,6.4771525 6.4771525,2 12,2 Z M12,4 C7.581722,4 4,7.581722 4,12 C4,16.418278 7.581722,20 12,20 C16.418278,20 20,16.418278 20,12 C20,7.581722 16.418278,4 12,4 Z" fill-rule="nonzero"></path><rect x="8" y="11" width="8" height="2" rx=".4"></rect></g></symbol>
<symbol xmlns="http://www.w3.org/2000/svg" viewBox="0 0 36 36" id="ac-reopen"><path d="M14.2655811,17.5230012 C14.5359876,17.7933206 14.5568113,18.2187405 14.3280596,18.5129719 L14.2656115,18.5836309 L13.2049513,19.6442911 C12.9120581,19.9371843 12.4371843,19.9371843 12.1442911,19.6442911 L5.78033009,13.2803301 C5.48743687,12.9874369 5.48743687,12.5125631 5.78033009,12.2196699 L12.1442911,5.85570888 C12.4371843,5.56281566 12.9120581,5.56281566 13.2049513,5.85570888 L14.2656115,6.91636906 C14.5585047,7.20926227 14.5585047,7.68413601 14.2656115,7.97702923 L10.9921602,11.249789 L20.4,11.25 C25.6772456,11.25 30,15.2525504 30,20.25 C30,25.1728608 25.8053201,29.1302993 20.6356455,29.2473351 L20.4,29.25 L9,29.25 C8.58578644,29.25 8.25,28.9142136 8.25,28.5 L8.25,27 C8.25,26.5857864 8.58578644,26.25 9,26.25 L20.4,26.25 C24.0697674,26.25 27,23.5368216 27,20.25 C27,17.0229388 24.1753526,14.3488507 20.5994225,14.2526779 L20.4,14.25 L10.9921602,14.249789 L14.2655811,17.5230012 Z" fill-rule="evenodd"></path></symbol>
<symbol xmlns="http://www.w3.org/2000/svg" viewBox="0 0 24 24" id="ac-share-delete"><path d="M2.44826087,12.9967559 C2.72532677,12.9967559 2.94993311,13.2206135 2.94993311,13.4967559 L2.94993311,14.9967559 L14.9900669,14.9967559 L14.9900669,13.4967559 C14.9900669,13.2206135 15.2146732,12.9967559 15.4917391,12.9967559 L16.4950836,12.9967559 C16.7721495,12.9967559 16.9967559,13.2206135 16.9967559,13.4967559 L16.9967559,16.4967559 C16.9967559,16.7728982 16.7721495,16.9967559 16.4950836,16.9967559 L1.44491639,16.9967559 C1.16785048,16.9967559 0.943244147,16.7728982 0.943244147,16.4967559 L0.943244147,13.4967559 C0.943244147,13.2206135 1.16785048,12.9967559 1.44491639,12.9967559 L2.44826087,12.9967559 Z M9.22266211,-0.854652987 L9.29214161,-0.796797537 L14.7903337,4.6100567 C14.9644806,4.78362305 14.9838302,5.05304745 14.8483827,5.2479156 L14.7903337,5.3171635 L14.0808621,6.02427025 C13.9067152,6.1978366 13.6363897,6.21712175 13.4408698,6.0821257 L13.3713904,6.02427025 L9.94059873,2.6793394 L9.94075023,11.4917847 C9.94075023,11.7679271 9.71614395,11.9917847 9.43907799,11.9917847 L8.43573351,11.9917847 C8.15866761,11.9917847 7.93406127,11.7679271 7.93406127,11.4917847 L7.93279385,2.6793394 L4.50874731,6.02427025 C4.33460047,6.1978366 4.06427498,6.21712175 3.8687551,6.0821257 L3.79927565,6.02427025 L3.08980395,5.3171635 C2.91565711,5.14359715 2.89630746,4.87417275 3.031755,4.6793046 L3.08980395,4.6100567 L8.58266995,-0.796797537 C8.75681679,-0.970363887 9.02714227,-0.989649042 9.22266211,-0.854652987 Z" transform="rotate(90 8.498 11.528)" fill-rule="nonzero"></path></symbol>
<symbol xmlns="http://www.w3.org/2000/svg" viewBox="0 0 24 24" id="ac-share-join"><path d="M15.5192536,3.02924143 C15.2421877,3.02924143 15.0175813,2.80538378 15.0175813,2.52924143 L15.0175813,1.02924143 L2.97744754,1.02924143 L2.97744754,2.52924143 C2.97744754,2.80538378 2.7528412,3.02924143 2.47577529,3.02924143 L1.47243081,3.02924143 C1.19536491,3.02924143 0.970758572,2.80538378 0.970758572,2.52924143 L0.970758572,-0.470758572 C0.970758572,-0.746900922 1.19536491,-0.970758572 1.47243081,-0.970758572 L16.522598,-0.970758572 C16.7996639,-0.970758572 17.0242703,-0.746900922 17.0242703,-0.470758572 L17.0242703,2.52924143 C17.0242703,2.80538378 16.7996639,3.02924143 16.522598,3.02924143 L15.5192536,3.02924143 Z M9.25017653,4.17783259 L9.31965603,4.23568804 L14.8178481,9.64254228 C14.991995,9.81610863 15.0113446,10.085533 14.8758971,10.2804012 L14.8178481,10.3496491 L14.1083765,11.0567558 C13.9342296,11.2303222 13.6639042,11.2496073 13.4683843,11.1146113 L13.3989048,11.0567558 L9.96811315,7.71182498 L9.96826466,16.5242703 C9.96826466,16.8004126 9.74365837,17.0242703 9.46659242,17.0242703 L8.46324794,17.0242703 C8.18618203,17.0242703 7.9615757,16.8004126 7.9615757,16.5242703 L7.96030827,7.71182498 L4.53626173,11.0567558 C4.36211489,11.2303222 4.09178941,11.2496073 3.89626953,11.1146113 L3.82679008,11.0567558 L3.11731837,10.3496491 C2.94317153,10.1760827 2.92382188,9.90665833 3.05926942,9.71179018 L3.11731837,9.64254228 L8.61018437,4.23568804 C8.78433121,4.06212169 9.0546567,4.04283653 9.25017653,4.17783259 Z" transform="rotate(90 8.51 11.513)" fill-rule="nonzero"></path></symbol>
<symbol xmlns="http://www.w3.org/2000/svg" viewBox="0 0 21 20" id="ac-switched-subtask"><path d="M9,0 C14,0 18,4 18,9 C18,14 14,18 9,18 C4,18 0,14 0,9 C0,4 4,0 9,0 Z M4.77948594,4.12655427 C4.36527238,4.12655427 4.02948594,4.46234071 4.02948594,4.87655427 C4.02948594,5.29076783 4.36527238,5.62655427 4.77948594,5.62655427 L13.2205141,5.62655427 C13.6347276,5.62655427 13.9705141,5.29076783 13.9705141,4.87655427 C13.9705141,4.46234071 13.6347276,4.12655427 13.2205141,4.12655427 L4.77948594,4.12655427 Z M7.62306737,8.125 C7.20885381,8.125 6.87306737,8.46078644 6.87306737,8.875 C6.87306737,9.28921356 7.20885381,9.625 7.62306737,9.625 L13.2205141,9.625 C13.6347276,9.625 13.9705141,9.28921356 13.9705141,8.875 C13.9705141,8.46078644 13.6347276,8.125 13.2205141,8.125 L7.62306737,8.125 Z M7.62306737,12.1234457 C7.20885381,12.1234457 6.87306737,12.4592322 6.87306737,12.8734457 C6.87306737,13.2876593 7.20885381,13.6234457 7.62306737,13.6234457 L13.2205141,13.6234457 C13.6347276,13.6234457 13.9705141,13.2876593 13.9705141,12.8734457 C13.9705141,12.4592322 13.6347276,12.1234457 13.2205141,12.1234457 L7.62306737,12.1234457 Z M4.77948594,8.125 C4.36527238,8.125 4.02948594,8.46078644 4.02948594,8.875 C4.02948594,9.28921356 4.36527238,9.625 4.77948594,9.625 C5.1936995,9.625 5.52948594,9.28921356 5.52948594,8.875 C5.52948594,8.46078644 5.1936995,8.125 4.77948594,8.125 Z M4.77948594,12.1234457 C4.36527238,12.1234457 4.02948594,12.4592322 4.02948594,12.8734457 C4.02948594,13.2876593 4.36527238,13.6234457 4.77948594,13.6234457 C5.1936995,13.6234457 5.52948594,13.2876593 5.52948594,12.8734457 C5.52948594,12.4592322 5.1936995,12.1234457 4.77948594,12.1234457 Z" transform="translate(1.5 1)" fill="#617FDE" fill-rule="nonzero"></path></symbol>
<symbol xmlns="http://www.w3.org/2000/svg" viewBox="0 0 21 20" id="ac-switched-text"><path d="M9,0 C14,0 18,4 18,9 C18,14 14,18 9,18 C4,18 0,14 0,9 C0,4 4,0 9,0 Z M4.77948594,4.12655427 C4.36527238,4.12655427 4.02948594,4.46234071 4.02948594,4.87655427 C4.02948594,5.29076783 4.36527238,5.62655427 4.77948594,5.62655427 L13.2205141,5.62655427 C13.6347276,5.62655427 13.9705141,5.29076783 13.9705141,4.87655427 C13.9705141,4.46234071 13.6347276,4.12655427 13.2205141,4.12655427 L4.77948594,4.12655427 Z M4.77948594,8.11173914 C4.36527238,8.11173914 4.02948594,8.44752558 4.02948594,8.86173914 C4.02948594,9.2759527 4.36527238,9.61173914 4.77948594,9.61173914 L13.2205141,9.61173914 C13.6347276,9.61173914 13.9705141,9.2759527 13.9705141,8.86173914 C13.9705141,8.44752558 13.6347276,8.11173914 13.2205141,8.11173914 L4.77948594,8.11173914 Z M4.77948594,12.096924 C4.36527238,12.096924 4.02948594,12.4327104 4.02948594,12.846924 C4.02948594,13.2611376 4.36527238,13.596924 4.77948594,13.596924 L8.96007344,13.596924 C9.374287,13.596924 9.71007344,13.2611376 9.71007344,12.846924 C9.71007344,12.4327104 9.374287,12.096924 8.96007344,12.096924 L4.77948594,12.096924 Z" transform="translate(1.5 1)" fill="#617FDE" fill-rule="nonzero"></path></symbol>
<symbol xmlns="http://www.w3.org/2000/svg" viewBox="0 0 21 20" id="ac-undone-subtask"><path d="M9,0 C14,0 18,4 18,9 C18,14 14,18 9,18 C4,18 0,14 0,9 C0,4 4,0 9,0 Z M8.22363973,9.78886824 C8.48563041,8.65804462 9.42166916,7.85885164 10.5965158,7.85885164 C12.023093,7.85885164 13.1795624,9.015321 13.1795624,10.4418983 C13.1795624,11.8684755 12.023093,13.0249449 10.5965158,13.0249449 C10.1823022,13.0249449 9.84651577,13.3607313 9.84651577,13.7749449 C9.84651577,14.1891584 10.1823022,14.5249449 10.5965158,14.5249449 C12.8515201,14.5249449 14.6795624,12.6969026 14.6795624,10.4418983 C14.6795624,8.18689388 12.8515201,6.35885164 10.5965158,6.35885164 C8.6627358,6.35885164 7.12558421,7.70887863 6.74240811,9.54144114 L6.56196747,9.31048765 C6.34095419,9.02760355 5.93246463,8.97744733 5.64958052,9.19846062 C5.36669642,9.41947391 5.31654021,9.82796346 5.53755349,10.1108476 L6.79965745,11.726267 C7.02067074,12.0091511 7.42916029,12.0593073 7.7120444,11.838294 L9.3274638,10.57619 C9.61034791,10.3551768 9.66050412,9.94668721 9.43949083,9.6638031 C9.21847754,9.38091899 8.80998799,9.33076278 8.52710388,9.55177607 L8.22363973,9.78886824 Z M3.91087568,3.63290359 C3.58478575,3.63290359 3.32043762,3.89725171 3.32043762,4.22334165 L3.32043762,4.24246553 C3.32043762,4.56855547 3.58478575,4.83290359 3.91087568,4.83290359 L10.7893441,4.83290359 C11.115434,4.83290359 11.3797822,4.56855547 11.3797822,4.24246553 L11.3797822,4.22334165 C11.3797822,3.89725171 11.115434,3.63290359 10.7893441,3.63290359 L3.91087568,3.63290359 Z M3.91087568,6.38193174 C3.58478575,6.38193174 3.32043762,6.64627986 3.32043762,6.9723698 L3.32043762,6.99149368 C3.32043762,7.31758361 3.58478575,7.58193174 3.91087568,7.58193174 L6.19999956,7.58193174 C6.5260895,7.58193174 6.79043762,7.31758361 6.79043762,6.99149368 L6.79043762,6.9723698 C6.79043762,6.64627986 6.5260895,6.38193174 6.19999956,6.38193174 L3.91087568,6.38193174 Z" transform="translate(1.5 1)" fill="#B8B9BC" fill-rule="nonzero"></path></symbol>
<symbol xmlns="http://www.w3.org/2000/svg" viewBox="0 0 36 36" id="ac-undone"><g fill-rule="evenodd"><path fill="none" d="M0 0H36V36H0z"></path><path d="M14.2655811,17.5230012 C14.5359876,17.7933206 14.5568113,18.2187405 14.3280596,18.5129719 L14.2656115,18.5836309 L13.2049513,19.6442911 C12.9120581,19.9371843 12.4371843,19.9371843 12.1442911,19.6442911 L5.78033009,13.2803301 C5.48743687,12.9874369 5.48743687,12.5125631 5.78033009,12.2196699 L12.1442911,5.85570888 C12.4371843,5.56281566 12.9120581,5.56281566 13.2049513,5.85570888 L14.2656115,6.91636906 C14.5585047,7.20926227 14.5585047,7.68413601 14.2656115,7.97702923 L10.9921602,11.249789 L20.4,11.25 C25.6772456,11.25 30,15.2525504 30,20.25 C30,25.1728608 25.8053201,29.1302993 20.6356455,29.2473351 L20.4,29.25 L9,29.25 C8.58578644,29.25 8.25,28.9142136 8.25,28.5 L8.25,27 C8.25,26.5857864 8.58578644,26.25 9,26.25 L20.4,26.25 C24.0697674,26.25 27,23.5368216 27,20.25 C27,17.0229388 24.1753526,14.3488507 20.5994225,14.2526779 L20.4,14.25 L10.9921602,14.249789 L14.2655811,17.5230012 Z"></path></g></symbol>
<symbol xmlns="http://www.w3.org/2000/svg" fill="none" viewBox="0 0 24 24" id="ac-archive"><defs><clipPath id="ac-archive_a"><rect width="24" height="24" rx="0"></rect></clipPath></defs><g clip-path="url(#ac-archive_a)"><path d="M12.48842078125,4.3671875C12.75808078125,4.3671875,12.97665078125,4.5615585,12.97665078125,4.8020195L12.97665078125,8.8321275L14.41680078125,7.5477975C14.60750078125,7.3778375,14.91660078125,7.3778175,15.10730078125,7.5477975L15.79790078125,8.1640475C15.98860078125,8.3340775,15.98860078125,8.610267499999999,15.79790078125,8.7802975L12.34542078125,11.858677499999999C12.15474078125,12.0287075,11.84564078125,12.0287075,11.65496078125,11.858677499999999L8.20248078125,8.7802975C8.011800781249999,8.610267499999999,8.011800781249999,8.3340775,8.20248078125,8.1640475L8.892750781250001,7.5477975C9.08343078125,7.3777675,9.39272078125,7.3777675,9.583400781249999,7.5477975L11.02373078125,8.833567500000001L11.02373078125,4.8020195C11.02373078125,4.5615585,11.24230078125,4.3671875,11.51196078125,4.3671875L12.00019078125,4.3671875L12.48842078125,4.3671875ZM7.56656078125,5.0208745C7.83861078125,5.0208745,8.059290781249999,5.2152465,8.059290781249999,5.4557075L8.059290781249999,6.3268075C8.059290781249999,6.5672675,7.83861078125,6.7616375,7.56656078125,6.7616375L7.11900078125,6.7616375L5.19493078125,11.7694075L8.059290781249999,11.7694075C8.059290781249999,12.4650275,8.67440078125,13.0327375,9.45014078125,13.0724575L9.53692078125,13.0753375L14.46310078125,13.0753375C15.25010078125,13.0753375,15.89310078125,12.5313775,15.93810078125,11.8457175L15.94070078125,11.7694075L18.80470078125,11.7694075L16.88060078125,6.7616375L16.43330078125,6.7616375C16.161200781250002,6.7616375,15.94070078125,6.5672675,15.94070078125,6.3268075L15.94070078125,5.4557075C15.94070078125,5.2152465,16.161200781250002,5.0208745,16.43330078125,5.0208745L17.26150078125,5.0208745C17.90500078125,5.0208745,18.47080078125,5.3866675,18.66710078125,5.9222175L20.86670078125,11.8572375L20.86670078125,16.9945875C20.86670078125,17.6901875,20.25140078125,18.257887500000002,19.47570078125,18.297687500000002L19.38890078125,18.3004875L4.6109307812499996,18.3004875C3.79477378125,18.3004875,3.13330078125,17.7159875,3.13330078125,16.9945875L3.13330078125,11.8572375L5.30851078125,5.9970875C5.478020781250001,5.4216475,6.06579078125,5.0208745,6.738530781250001,5.0208745L7.56656078125,5.0208745ZM5.1036607812499994,13.5101675L6.707420781250001,13.5101675L6.74640078125,13.5591275C7.33494078125,14.2746675,8.268130781250001,14.7570875,9.33619078125,14.8117875L9.39335078125,14.8146875L9.53692078125,14.8175875L14.46290078125,14.8175875L14.58170078125,14.8160875C15.68630078125,14.7829875,16.66300078125,14.2874275,17.268200781250002,13.5404075L17.29220078125,13.5101675L18.896200781250002,13.5101675L18.896200781250002,16.5582875L5.1036607812499994,16.5582875L5.1036607812499994,13.5101675Z" fill-rule="evenodd" fill="#FFFFFF"></path></g></symbol>
<symbol xmlns="http://www.w3.org/2000/svg" fill="none" viewBox="0 0 24 24" id="ac-unarchive"><defs><clipPath id="ac-unarchive_a"><rect width="24" height="24" rx="0"></rect></clipPath></defs><g clip-path="url(#ac-unarchive_a)"><path d="M9.215988179779053,8.136655000000001Q9.039708179779053,8.136655000000001,8.915858179779054,8.021615L8.220058179779052,7.374675Q8.098368179779053,7.261675,8.098368179779053,7.102535Q8.098368179779053,6.943655,8.220058179779052,6.831645L11.699838179779054,3.599414Q11.823738179779053,3.4843607306,11.999958179779053,3.484375Q12.176158179779053,3.484375,12.300078179779053,3.599414L15.780038179779053,6.831645Q15.901638179779052,6.944615000000001,15.901738179779052,7.102535Q15.901738179779052,7.261425,15.780038179779053,7.374675L15.083938179779052,8.021615Q14.960038179779053,8.136605,14.783738179779053,8.136655000000001Q14.607638179779054,8.136655000000001,14.483638179779053,8.021615L12.913928179779052,6.563215L12.913928179779052,10.954495Q12.913928179779052,11.113025,12.792248179779053,11.226625Q12.668408179779053,11.341425000000001,12.492118179779053,11.341664999999999L11.507948179779053,11.341664999999999Q11.331638179779052,11.341664999999999,11.207828179779053,11.226625Q11.086218179779053,11.113895,11.086138179779052,10.954495L11.086138179779052,6.561975L9.516108179779053,8.021615Q9.392238179779053,8.136645,9.215988179779053,8.136655000000001ZM5.8265081797790526,4.753515Q6.210418179779053,4.480694,6.696568179779053,4.480143L7.531218179779053,4.480143Q7.709548179779053,4.480143,7.834738179779053,4.595185Q7.9574681797790525,4.707905,7.957508179779053,4.866085L7.957508179779053,5.7802050000000005Q7.957508179779053,5.938525,7.834738179779053,6.051105Q7.709508179779053,6.166125,7.531218179779053,6.166145L7.0310181797790525,6.166145L5.039788179779053,11.563085L7.959208179779052,11.563085Q7.984018179779053,12.094185,8.386588179779054,12.485875Q8.811548179779052,12.898565,9.425958179779052,12.931185L9.515948179779052,12.933655L14.482438179779052,12.933655Q15.102038179779052,12.933665,15.552538179779052,12.541535Q16.003538179779053,12.148335,16.039438179779054,11.576695L16.03973817977905,11.563085L18.959338179779053,11.563085L16.968138179779054,6.166145L16.468238179779053,6.166145Q16.289938179779053,6.166145,16.16473817977905,6.051105Q16.042038179779052,5.9384049999999995,16.04213817977905,5.7802050000000005L16.04213817977905,4.866085Q16.04213817977905,4.707735,16.16473817977905,4.595185Q16.289838179779053,4.480175,16.468238179779053,4.480143L17.30303817977905,4.480143Q17.767338179779053,4.480144,18.14123817977905,4.730015Q18.512538179779053,4.978505,18.653538179779055,5.3794249999999995L20.866438179779053,11.597725L20.866438179779053,16.977375000000002Q20.866438179779053,17.493575,20.480038179779054,17.869175Q20.092838179779054,18.245175,19.531038179779053,18.274974999999998L19.44613817977905,18.277375L4.552108179779053,18.277375Q3.9625681797790526,18.277375,3.546598179779053,17.895175000000002Q3.1331186784790526,17.514675,3.1331382175286526,16.977375000000002L3.1331382175286526,11.597725L5.322278179779053,5.4561150000000005L5.322898179779052,5.453645Q5.444268179779053,5.024615,5.8265081797790526,4.753515ZM4.978398179779052,13.250325L4.978398179779052,16.590175000000002L19.021038179779055,16.590175000000002L19.021038179779055,13.250325L17.299138179779053,13.250325L17.254338179779054,13.308465Q16.79873817977905,13.894075,16.113038179779053,14.239875Q15.406438179779053,14.595775,14.601138179779053,14.620875L14.482238179779053,14.622175L9.518738179779053,14.622175L9.375088179779052,14.619675L9.318648179779053,14.615975Q8.539278179779053,14.574375,7.860568179779053,14.226275Q7.203118179779053,13.889075,6.760428179779053,13.329495L6.699968179779052,13.250325L4.978398179779052,13.250325Z" fill-rule="evenodd" fill="#FFFFFF"></path></g></symbol>
</svg>