<svg xmlns="http://www.w3.org/2000/svg" xmlns:xlink="http://www.w3.org/1999/xlink" style="position: absolute; width: 0; height: 0" aria-hidden="true" id="__SVG_SPRITE_NODE__">
<symbol xmlns="http://www.w3.org/2000/svg" viewBox="0 0 24 24" id="add_from_template"><path d="M6.363085218048096,23C3.9534152180480957,23,1.9999852180480957,21.0466,1.9999852180480957,18.637L1.9999852180480957,5.36304C1.9999852180480957,2.95337,3.9534152180480957,1,6.363085218048096,1L14.551685218048096,1C15.130285218048096,1,15.685185218048096,1.23004,16.094285218048096,1.63916L21.360985218048096,6.36035C21.770085218048095,6.76947,21.999985218048096,7.32425,21.999985218048096,7.90283L21.999985218048096,18.637C21.999985218048096,21.0466,20.046585218048097,23,17.636885218048096,23L6.363085218048096,23ZM4.820485218048096,20.1794Q4.181505218048096,19.5406,4.181505218048096,18.637L4.181505218048096,5.36304Q4.181525218048096,4.4595199999999995,4.820485218048096,3.82056Q5.459455218048095,3.18164,6.363085218048096,3.18164L14.551685218048096,3.18164L19.818385218048096,7.90283L19.818385218048096,18.637Q19.818385218048096,19.5405,19.179385218048097,20.1794Q18.540485218048097,20.8184,17.636885218048096,20.8184L6.363085218048096,20.8184Q5.459445218048096,20.8184,4.820485218048096,20.1794ZM7.093855218048096,8.4626Q7.093855218048096,8.40901,7.099105218048096,8.35569Q7.104365218048096,8.30236,7.114815218048096,8.2498Q7.125265218048096,8.19724,7.140825218048096,8.14597Q7.156375218048096,8.09469,7.1768852180480955,8.04518Q7.197395218048095,7.99567,7.222655218048096,7.94841Q7.247915218048096,7.90115,7.277685218048096,7.8566Q7.307455218048096,7.81204,7.341455218048096,7.77062Q7.375445218048096,7.7292,7.413335218048096,7.69131Q7.451225218048096,7.65342,7.492655218048096,7.61942Q7.534075218048096,7.58543,7.578625218048096,7.55565Q7.6231852180480955,7.52588,7.670445218048096,7.50062Q7.717705218048096,7.47536,7.767205218048096,7.45486Q7.816715218048095,7.43435,7.867995218048096,7.4188Q7.919275218048096,7.40324,7.971835218048096,7.39279Q8.024385218048096,7.38233,8.077715218048095,7.37708Q8.131045218048095,7.37183,8.184635218048097,7.37183L15.820085218048096,7.37183Q15.873685218048095,7.37183,15.926985218048095,7.37708Q15.980285218048095,7.38233,16.032885218048094,7.39279Q16.085385218048096,7.40324,16.136685218048093,7.4188Q16.187985218048098,7.43435,16.237485218048096,7.45486Q16.286985218048095,7.47536,16.334285218048095,7.50062Q16.3814852180481,7.52588,16.426085218048094,7.55565Q16.470585218048093,7.58543,16.511985218048096,7.61942Q16.553485218048095,7.65342,16.591385218048096,7.69131Q16.629285218048096,7.7292,16.663185218048095,7.77062Q16.697185218048098,7.81204,16.726985218048096,7.8566Q16.756785218048094,7.90115,16.781985218048096,7.94841Q16.807285218048094,7.99567,16.827785218048096,8.04518Q16.848285218048098,8.09469,16.863885218048097,8.14597Q16.879385218048096,8.19724,16.889885218048097,8.2498Q16.900285218048097,8.30236,16.905585218048095,8.35569Q16.910785218048098,8.40901,16.910785218048098,8.4626Q16.910785218048098,8.51619,16.905585218048095,8.569510000000001Q16.900285218048097,8.62284,16.889885218048097,8.6754Q16.879385218048096,8.72796,16.863885218048097,8.77923Q16.848285218048098,8.83051,16.827785218048096,8.88002Q16.807285218048094,8.92953,16.781985218048096,8.976790000000001Q16.756785218048094,9.02405,16.726985218048096,9.0686Q16.697185218048098,9.11316,16.663185218048095,9.15458Q16.629285218048096,9.196,16.591385218048096,9.23389Q16.553485218048095,9.27179,16.511985218048096,9.30578Q16.470585218048093,9.33978,16.426085218048094,9.36954Q16.3814852180481,9.39932,16.334285218048095,9.42458Q16.286985218048095,9.44984,16.237485218048096,9.47034Q16.187985218048098,9.49085,16.136685218048093,9.50641Q16.085385218048096,9.52196,16.032885218048094,9.53242Q15.980285218048095,9.54287,15.926985218048095,9.54812Q15.873685218048095,9.55338,15.820085218048096,9.55338L13.093085218048095,9.55338L13.093085218048095,17.1888Q13.093085218048095,17.2424,13.087885218048095,17.2957Q13.082585218048095,17.349,13.072185218048096,17.4016Q13.061685218048096,17.4542,13.046185218048096,17.5054Q13.030585218048095,17.5567,13.010085218048095,17.6062Q12.989585218048095,17.6557,12.964285218048095,17.703Q12.939085218048096,17.7502,12.909285218048096,17.7948Q12.879485218048096,17.8394,12.845485218048095,17.8808Q12.811485218048096,17.9222,12.773685218048096,17.9601Q12.735785218048095,17.998,12.694285218048096,18.032Q12.652885218048096,18.066,12.608385218048095,18.0957Q12.563785218048096,18.1255,12.516585218048096,18.1508Q12.469285218048096,18.176,12.419785218048096,18.1965Q12.370285218048096,18.217,12.318985218048097,18.2326Q12.267685218048095,18.2482,12.215185218048095,18.2586Q12.162585218048095,18.2691,12.109285218048095,18.2743Q12.055985218048095,18.2796,12.002385218048095,18.2796Q11.948765218048095,18.2796,11.895435218048096,18.2743Q11.842105218048095,18.2691,11.789545218048096,18.2586Q11.736995218048095,18.2482,11.685715218048095,18.2326Q11.634435218048095,18.217,11.584925218048095,18.1965Q11.535425218048095,18.176,11.488165218048096,18.1508Q11.440905218048096,18.1255,11.396345218048095,18.0957Q11.351795218048096,18.066,11.310375218048096,18.032Q11.268945218048096,17.998,11.231055218048096,17.9601Q11.193165218048096,17.9222,11.159165218048095,17.8808Q11.125175218048096,17.8393,11.095405218048096,17.7948Q11.065635218048095,17.7502,11.040375218048096,17.703Q11.015115218048095,17.6557,10.994605218048095,17.6062Q10.974095218048095,17.5567,10.958545218048096,17.5054Q10.942985218048095,17.4542,10.932535218048097,17.4016Q10.922085218048096,17.349,10.916825218048096,17.2957Q10.911575218048096,17.2424,10.911575218048096,17.1888L10.911575218048096,9.55338L8.184635218048097,9.55338Q8.131045218048095,9.55338,8.077715218048095,9.54812Q8.024385218048096,9.54287,7.971835218048096,9.53242Q7.919275218048096,9.52196,7.867995218048096,9.50641Q7.816715218048095,9.49085,7.767215218048095,9.47034Q7.717705218048096,9.44984,7.670445218048096,9.42458Q7.6231852180480955,9.39932,7.578625218048096,9.36954Q7.534075218048096,9.33978,7.492655218048096,9.30578Q7.451225218048096,9.27179,7.413335218048096,9.23389Q7.375445218048096,9.196,7.341455218048096,9.15458Q7.307455218048096,9.11316,7.277685218048096,9.0686Q7.247915218048096,9.02405,7.222655218048096,8.976790000000001Q7.197395218048095,8.92953,7.1768852180480955,8.88002Q7.156375218048096,8.83051,7.140825218048096,8.77924Q7.125265218048096,8.72796,7.114815218048096,8.6754Q7.104365218048096,8.62284,7.099105218048096,8.56952Q7.093855218048096,8.51619,7.093855218048096,8.4626Z" fill-rule="evenodd"></path></symbol>
</svg>