<svg xmlns="http://www.w3.org/2000/svg" xmlns:xlink="http://www.w3.org/1999/xlink" style="position: absolute; width: 0; height: 0" aria-hidden="true" id="__SVG_SPRITE_NODE__">
<symbol xmlns="http://www.w3.org/2000/svg" viewBox="0 0 24 24" id="add_section_bottom"><path d="M3.5 11.5C2.395431 11.5 1.5 10.60457 1.5 9.5L1.5 4.5C1.5 3.395431 2.395431 2.5 3.5 2.5L20.5 2.5C21.6046 2.5 22.5 3.395431 22.5 4.5L22.5 9.5C22.5 10.60457 21.6046 11.5 20.5 11.5L3.5 11.5zM20.5 9.5L3.5 9.5 3.5 4.5 20.5 4.5 20.5 9.5zM1.5 20.5L1.5 15.5C1.5 14.395431 2.395431 13.5 3.5 13.5L10 13.5C11.10457 13.5 12 14.395431 12 15.5L12 20.5C12 21.604570000000002 11.10457 22.5 10 22.5L3.5 22.5C2.395431 22.5 1.5 21.604570000000002 1.5 20.5zM3.5 20.5L3.5 15.5 10 15.5 10 20.5 3.5 20.5zM19.20711 15.20711L19.20711 15.20711 17.41421 17 22 17C22.55228 17 23 17.44772 23 18 23 18.55228 22.55228 19 22 19L17.41421 19 19.20659 20.79238 19.20659 20.79238C19.39464 20.98043 19.5 21.23478 19.5 21.5 19.5 21.76522 19.39464 22.01957 19.20711 22.20711 19.03222 22.381990000000002 18.79873 22.485860000000002 18.55174 22.49866 18.53451 22.49955 18.51726 22.5 18.5 22.5 18.23478 22.5 17.98043 22.394640000000003 17.79289 22.20711L14.293268 18.70748 14.293268 18.70748C14.105357 18.51957 14.0000000596046 18.26522 14 18 14 17.73478 14.105357 17.48043 14.292893 17.29289L17.79289 13.792893C17.97907 13.606712 18.23117 13.50147146 18.49447 13.5000152588L18.5 13.5C18.76073 13.5 19.01116 13.601835 19.1979 13.7838L19.1979 13.7838C19.19847 13.784365 19.20653 13.792321 19.20653 13.792321L19.20653 13.792321C19.39464 13.98043 19.5 14.234783 19.5 14.5 19.5 14.76522 19.39464 15.01957 19.20711 15.20711z" fill-rule="evenodd"></path></symbol>
</svg>