<svg xmlns="http://www.w3.org/2000/svg" xmlns:xlink="http://www.w3.org/1999/xlink" style="position: absolute; width: 0; height: 0" aria-hidden="true" id="__SVG_SPRITE_NODE__">
<symbol xmlns="http://www.w3.org/2000/svg" viewBox="0 0 12 12" id="agenda-caldav"><path d="M4,1.625L8,1.625L8,0.875Q8,0.825754,8.00961,0.777455Q8.019210000000001,0.729155,8.03806,0.683658Q8.056899999999999,0.638161,8.08426,0.597215Q8.11162,0.556269,8.14645,0.521447Q8.18127,0.486625,8.22221,0.4592652Q8.26316,0.4319057,8.30866,0.4130602Q8.35415,0.39421470000000003,8.40245,0.38460736Q8.45075,0.375,8.5,0.375Q8.54924,0.375,8.59754,0.38460736Q8.64584,0.39421470000000003,8.69134,0.4130602Q8.73684,0.4319057,8.77778,0.4592652Q8.81873,0.486625,8.85355,0.521447Q8.88837,0.556269,8.91573,0.597215Q8.94309,0.638161,8.96194,0.683658Q8.98078,0.729155,8.99039,0.777455Q9,0.825754,9,0.875L9,1.625L10.02574,1.625C10.8542,1.625,11.5,2.28902,11.5,3.11745L11.5,4.40869C11.5,6.30731,11.5,8.274899999999999,11.5,10.13255C11.5,10.961,10.8434,11.625,10.015,11.625L1.985,11.625C1.1565750000000001,11.625,0.5,10.961,0.5,10.13255L0.5,3.11745C0.5,2.28902,1.163668,1.625,1.9921,1.625L3,1.625L3,0.875Q3,0.825754,3.00961,0.777455Q3.01921,0.729155,3.03806,0.683658Q3.05691,0.638161,3.08426,0.597215Q3.11162,0.556269,3.14645,0.521447Q3.18127,0.486625,3.22221,0.4592652Q3.26316,0.4319057,3.30866,0.4130602Q3.35415,0.39421470000000003,3.40245,0.38460736Q3.45075,0.375,3.5,0.375Q3.54925,0.375,3.59754,0.38460736Q3.64584,0.39421470000000003,3.69134,0.4130602Q3.73684,0.4319057,3.77778,0.4592652Q3.81873,0.486625,3.85355,0.521447Q3.88837,0.556269,3.91573,0.597215Q3.94309,0.638161,3.96194,0.683658Q3.98078,0.729155,3.99039,0.777455Q4,0.825754,4,0.875L4,1.625ZM1.6414,10.4848Q1.5,10.34241,1.5,10.13255L1.5,6.625L1.5,3.11745Q1.5,2.91021,1.64261,2.76755Q1.78512,2.625,1.9921,2.625L10.02574,2.625Q10.5,2.625,10.5,3.11745L10.49999,6.625L10.49999,10.13255Q10.49999,10.34241,10.3586,10.4848Q10.21936,10.625,10.015,10.625L4.66167,10.625L1.985,10.625Q1.78064,10.625,1.6414,10.4848ZM6.1312,8.79995C4.81162,8.79995,4.010009999999999,7.9367,4.010009999999999,6.49997C4.010009999999999,5.06631,4.82704,4.199949999999999,6.10653,4.199949999999999C6.93898,4.199949999999999,7.58335,4.56993,7.88858,5.21122C7.95024,5.32837,7.98107,5.44862,7.98107,5.55961C7.98107,5.80318,7.81767,5.96042,7.57102,5.96042C7.36137,5.96042,7.2288,5.86792,7.12705,5.65211C6.92356,5.19889,6.55975,4.97074,6.11578,4.97074C5.41283,4.97074,4.95961,5.55961,4.95961,6.49688C4.95961,7.44648,5.40667,8.03228,6.11887,8.03228C6.58751,8.03228,6.93898,7.81954,7.13938,7.37249C7.23496,7.16284,7.35212,7.07959,7.54944,7.07959C7.81151,7.07959,7.98416,7.24608,7.98416,7.49273C7.98416,7.59756,7.9595,7.69622,7.91325,7.80413C7.63576,8.42073,6.9729,8.79995,6.1312,8.79995Z" fill-rule="evenodd"></path></symbol>
<symbol xmlns="http://www.w3.org/2000/svg" viewBox="0 0 12 12" id="agenda-checkbox"><path d="M11.5,6C11.5,9.03757,9.03757,11.5,6,11.5C2.96243,11.5,0.5,9.03757,0.5,6C0.5,2.96243,2.96243,0.5,6,0.5C9.03757,0.5,11.5,2.96243,11.5,6ZM10.5,6Q10.5,4.1360399999999995,9.18198,2.81802Q7.86396,1.5,6,1.5Q4.1360399999999995,1.5,2.81802,2.81802Q1.5,4.1360399999999995,1.5,6Q1.5,7.86396,2.81802,9.18198Q4.1360399999999995,10.5,6,10.5Q7.86396,10.5,9.18198,9.18198Q10.5,7.86396,10.5,6Z" fill-rule="evenodd"></path></symbol>
<symbol xmlns="http://www.w3.org/2000/svg" viewBox="0 0 12 12" id="agenda-complete"><path d="M6,11.5Q6.13502,11.5,6.26987,11.4934Q6.40473,11.4867,6.53909,11.4735Q6.67346,11.4603,6.80702,11.4405Q6.94057,11.4207,7.073,11.3943Q7.20542,11.368,7.33639,11.3352Q7.46736,11.3024,7.59657,11.2632Q7.72577,11.224,7.85289,11.1785Q7.98002,11.133,8.104759999999999,11.0813Q8.2295,11.0297,8.35155,10.9719Q8.47361,10.9142,8.59268,10.8506Q8.71176,10.7869,8.82756,10.7175Q8.94337,10.6481,9.05564,10.5731Q9.1679,10.49807,9.27635,10.41764Q9.38479,10.33721,9.48916,10.25156Q9.59353,10.1659,9.69357,10.07523Q9.79361,9.98456,9.88909,9.88909Q9.98456,9.79361,10.07523,9.69357Q10.1659,9.59353,10.25156,9.48916Q10.33721,9.38479,10.41764,9.27635Q10.49807,9.1679,10.5731,9.05564Q10.6481,8.94337,10.7175,8.82756Q10.7869,8.71176,10.8506,8.59268Q10.9142,8.47361,10.9719,8.35155Q11.0297,8.2295,11.0813,8.104759999999999Q11.133,7.98002,11.1785,7.85289Q11.224,7.72577,11.2632,7.59657Q11.3024,7.46736,11.3352,7.33639Q11.368,7.20542,11.3943,7.073Q11.4207,6.94057,11.4405,6.80702Q11.4603,6.67346,11.4735,6.53909Q11.4867,6.40473,11.4934,6.26987Q11.5,6.13502,11.5,6Q11.5,5.86498,11.4934,5.73013Q11.4867,5.59527,11.4735,5.46091Q11.4603,5.32654,11.4405,5.19298Q11.4207,5.05943,11.3943,4.927Q11.368,4.79458,11.3352,4.66361Q11.3024,4.53264,11.2632,4.40343Q11.224,4.27423,11.1785,4.14711Q11.133,4.01998,11.0813,3.89524Q11.0297,3.7705,10.9719,3.64845Q10.9142,3.52639,10.8506,3.40732Q10.7869,3.28824,10.7175,3.17243Q10.6481,3.05663,10.5731,2.94436Q10.49807,2.8321,10.41764,2.72365Q10.33721,2.61521,10.25156,2.51084Q10.1659,2.40647,10.07523,2.3064299999999998Q9.98456,2.2063800000000002,9.88909,2.11091Q9.79361,2.01544,9.69357,1.92477Q9.59353,1.8341,9.48916,1.74844Q9.38479,1.66279,9.27635,1.58236Q9.1679,1.50193,9.05564,1.426917Q8.94337,1.351905,8.82756,1.282493Q8.71176,1.2130800000000002,8.59268,1.1494330000000001Q8.47361,1.0857860000000001,8.35155,1.0280589999999998Q8.2295,0.970331,8.104759999999999,0.918662Q7.98002,0.866994,7.85289,0.821508Q7.72577,0.776022,7.59657,0.736828Q7.46736,0.697635,7.33639,0.664828Q7.20542,0.632022,7.073,0.605681Q6.94057,0.5793403,6.80702,0.5595292Q6.67346,0.539718,6.53909,0.526484Q6.40473,0.51325,6.26987,0.50662499Q6.13502,0.5,6,0.5Q5.86498,0.5,5.73013,0.50662499Q5.59527,0.51325,5.46091,0.526484Q5.32654,0.539718,5.19298,0.5595292Q5.05943,0.5793403,4.927,0.605681Q4.79458,0.632022,4.66361,0.664828Q4.53264,0.697635,4.40343,0.736828Q4.27423,0.776022,4.14711,0.821508Q4.01998,0.866994,3.89524,0.918662Q3.7705,0.970331,3.64845,1.0280589999999998Q3.52639,1.0857860000000001,3.40732,1.1494330000000001Q3.28824,1.2130800000000002,3.17243,1.282493Q3.05663,1.351905,2.94436,1.426917Q2.8321,1.50193,2.72365,1.58236Q2.61521,1.66279,2.51084,1.74844Q2.40647,1.8341,2.3064299999999998,1.92477Q2.2063800000000002,2.01544,2.11091,2.11091Q2.01544,2.2063800000000002,1.92477,2.3064299999999998Q1.8341,2.40647,1.74844,2.51084Q1.66279,2.61521,1.58236,2.72365Q1.50193,2.8321,1.426917,2.94436Q1.351905,3.05663,1.282493,3.17243Q1.2130800000000002,3.28824,1.1494330000000001,3.40732Q1.0857860000000001,3.52639,1.0280589999999998,3.64845Q0.970331,3.7705,0.918662,3.89524Q0.866994,4.01998,0.821508,4.14711Q0.776022,4.27423,0.736828,4.40343Q0.697635,4.53264,0.664828,4.66361Q0.632022,4.79458,0.605681,4.927Q0.5793403,5.05943,0.5595292,5.19298Q0.539718,5.32654,0.526484,5.46091Q0.51325,5.59527,0.50662499,5.73013Q0.5,5.86498,0.5,6Q0.5,6.13502,0.50662499,6.26987Q0.51325,6.40473,0.526484,6.53909Q0.539718,6.67346,0.5595292,6.80702Q0.5793403,6.94057,0.605681,7.073Q0.632022,7.20542,0.664828,7.33639Q0.697635,7.46736,0.736828,7.59657Q0.776022,7.72577,0.821508,7.85289Q0.866994,7.98002,0.918662,8.104759999999999Q0.970331,8.2295,1.0280589999999998,8.35155Q1.0857860000000001,8.47361,1.1494330000000001,8.59268Q1.2130800000000002,8.71176,1.282493,8.82756Q1.351905,8.94337,1.426917,9.05564Q1.50193,9.1679,1.58236,9.27635Q1.66279,9.38479,1.74844,9.48916Q1.8341,9.59353,1.92477,9.69357Q2.01544,9.79361,2.11091,9.88909Q2.2063800000000002,9.98456,2.3064299999999998,10.07523Q2.40647,10.1659,2.51084,10.25156Q2.61521,10.33721,2.72365,10.41764Q2.8321,10.49807,2.94436,10.5731Q3.05663,10.6481,3.17243,10.7175Q3.28824,10.7869,3.40732,10.8506Q3.52639,10.9142,3.64845,10.9719Q3.7705,11.0297,3.89524,11.0813Q4.01998,11.133,4.14711,11.1785Q4.27423,11.224,4.40343,11.2632Q4.53264,11.3024,4.66361,11.3352Q4.79458,11.368,4.927,11.3943Q5.05943,11.4207,5.19298,11.4405Q5.32654,11.4603,5.46091,11.4735Q5.59527,11.4867,5.73013,11.4934Q5.86498,11.5,6,11.5ZM3.14938,6.37698L4.79824,8.025929999999999L4.79927,8.026959999999999Q4.95548,8.18317,5.17639,8.18317Q5.39731,8.18317,5.55352,8.026959999999999L8.85339,4.72711Q9.00956,4.57093,9.00956,4.34995Q9.00956,4.12909,8.85335,3.97287Q8.69714,3.81666,8.47625,3.81665Q8.25534,3.81664,8.099129999999999,3.97285L5.1764,6.89559L3.9036,5.62277Q3.74739,5.46656,3.52648,5.46656Q3.30557,5.46656,3.14936,5.62277Q2.99315,5.77898,2.99316,5.99989Q2.99318,6.22078,3.14938,6.37698Z" fill-rule="evenodd"></path></symbol>
<symbol xmlns="http://www.w3.org/2000/svg" viewBox="0 0 12 12" id="agenda-exchange"><path d="M4,1.625L8,1.625L8,0.875Q8,0.825754,8.00961,0.777455Q8.019210000000001,0.729155,8.03806,0.683658Q8.056899999999999,0.638161,8.08426,0.597215Q8.11162,0.556269,8.14645,0.521447Q8.18127,0.486625,8.22221,0.4592652Q8.26316,0.4319057,8.30866,0.4130602Q8.35415,0.39421470000000003,8.40245,0.38460736Q8.45075,0.375,8.5,0.375Q8.54924,0.375,8.59754,0.38460736Q8.64584,0.39421470000000003,8.69134,0.4130602Q8.73684,0.4319057,8.77778,0.4592652Q8.81873,0.486625,8.85355,0.521447Q8.88837,0.556269,8.91573,0.597215Q8.94309,0.638161,8.96194,0.683658Q8.98078,0.729155,8.99039,0.777455Q9,0.825754,9,0.875L9,1.625L10.02574,1.625C10.8542,1.625,11.5,2.28902,11.5,3.11745L11.5,4.40869C11.5,6.30731,11.5,8.274899999999999,11.5,10.13255C11.5,10.961,10.8434,11.625,10.015,11.625L1.985,11.625C1.1565750000000001,11.625,0.5,10.961,0.5,10.13255L0.5,3.11745C0.5,2.28902,1.163668,1.625,1.9921,1.625L3,1.625L3,0.875Q3,0.825754,3.00961,0.777455Q3.01921,0.729155,3.03806,0.683658Q3.05691,0.638161,3.08426,0.597215Q3.11162,0.556269,3.14645,0.521447Q3.18127,0.486625,3.22221,0.4592652Q3.26316,0.4319057,3.30866,0.4130602Q3.35415,0.39421470000000003,3.40245,0.38460736Q3.45075,0.375,3.5,0.375Q3.54925,0.375,3.59754,0.38460736Q3.64584,0.39421470000000003,3.69134,0.4130602Q3.73684,0.4319057,3.77778,0.4592652Q3.81873,0.486625,3.85355,0.521447Q3.88837,0.556269,3.91573,0.597215Q3.94309,0.638161,3.96194,0.683658Q3.98078,0.729155,3.99039,0.777455Q4,0.825754,4,0.875L4,1.625ZM1.5,10.13255Q1.5,10.34241,1.6414,10.4848Q1.78064,10.625,1.985,10.625L4.66167,10.625L10.015,10.625Q10.21936,10.625,10.3586,10.4848Q10.49999,10.34241,10.49999,10.13255L10.49999,6.625L10.5,3.11745Q10.5,2.625,10.02574,2.625L1.9921,2.625Q1.78512,2.625,1.64261,2.76755Q1.5,2.91021,1.5,3.11745L1.5,6.625L1.5,10.13255ZM4.47498,4.45996L4.47498,8.53711Q4.47498,8.9,4.81736,8.9L7.12498,8.9Q7.29066,8.9,7.40782,8.78284Q7.52498,8.66568,7.52498,8.5Q7.52498,8.33432,7.40782,8.21716Q7.29066,8.1,7.12498,8.1L5.27498,8.1L5.27498,6.9L7.12449,6.9Q7.29038,6.9,7.40768,6.7827Q7.52498,6.6654,7.52498,6.49951Q7.52498,6.33362,7.40768,6.21632Q7.29038,6.09902,7.12449,6.09902L5.27498,6.09902L5.27498,4.9L7.12498,4.9Q7.29066,4.9,7.40782,4.78284Q7.52498,4.66569,7.52498,4.5Q7.52498,4.33431,7.40782,4.21716Q7.29066,4.1,7.12498,4.1L4.81736,4.1Q4.47498,4.1,4.47498,4.45996Z" fill-rule="evenodd"></path></symbol>
<symbol xmlns="http://www.w3.org/2000/svg" viewBox="0 0 12 12" id="agenda-google"><path d="M4,1.625L8,1.625L8,0.875Q8,0.825754,8.00961,0.777455Q8.019210000000001,0.729155,8.03806,0.683658Q8.056899999999999,0.638161,8.08426,0.597215Q8.11162,0.556269,8.14645,0.521447Q8.18127,0.486625,8.22221,0.4592652Q8.26316,0.4319057,8.30866,0.4130602Q8.35415,0.39421470000000003,8.40245,0.38460736Q8.45075,0.375,8.5,0.375Q8.54924,0.375,8.59754,0.38460736Q8.64584,0.39421470000000003,8.69134,0.4130602Q8.73684,0.4319057,8.77778,0.4592652Q8.81873,0.486625,8.85355,0.521447Q8.88837,0.556269,8.91573,0.597215Q8.94309,0.638161,8.96194,0.683658Q8.98078,0.729155,8.99039,0.777455Q9,0.825754,9,0.875L9,1.625L10.02574,1.625C10.8542,1.625,11.5,2.28902,11.5,3.11745L11.5,4.40869C11.5,6.30731,11.5,8.274899999999999,11.5,10.13255C11.5,10.961,10.8434,11.625,10.015,11.625L1.985,11.625C1.1565750000000001,11.625,0.5,10.961,0.5,10.13255L0.5,3.11745C0.5,2.28902,1.163668,1.625,1.9921,1.625L3,1.625L3,0.875Q3,0.825754,3.00961,0.777455Q3.01921,0.729155,3.03806,0.683658Q3.05691,0.638161,3.08426,0.597215Q3.11162,0.556269,3.14645,0.521447Q3.18127,0.486625,3.22221,0.4592652Q3.26316,0.4319057,3.30866,0.4130602Q3.35415,0.39421470000000003,3.40245,0.38460736Q3.45075,0.375,3.5,0.375Q3.54925,0.375,3.59754,0.38460736Q3.64584,0.39421470000000003,3.69134,0.4130602Q3.73684,0.4319057,3.77778,0.4592652Q3.81873,0.486625,3.85355,0.521447Q3.88837,0.556269,3.91573,0.597215Q3.94309,0.638161,3.96194,0.683658Q3.98078,0.729155,3.99039,0.777455Q4,0.825754,4,0.875L4,1.625ZM1.5,10.13255Q1.5,10.34241,1.6414,10.4848Q1.78064,10.625,1.985,10.625L4.66167,10.625L10.015,10.625Q10.21936,10.625,10.3586,10.4848Q10.49999,10.34241,10.49999,10.13255L10.49999,6.625L10.5,3.11745Q10.5,2.625,10.02574,2.625L1.9921,2.625Q1.78512,2.625,1.64261,2.76755Q1.5,2.91021,1.5,3.11745L1.5,6.625L1.5,10.13255ZM4.41017,4.77568Q5.01626,4.12502,6.06909,4.12502Q6.74082,4.12502,7.26179,4.41248Q7.75862,4.68662,7.96183,5.13066L7.96207,5.13119L7.96232,5.1317Q8.03145,5.27404,8.03145,5.42334Q8.03145,5.59762,7.92368,5.70423Q7.81519,5.81154,7.63651,5.81154Q7.35291,5.81154,7.18766,5.53986Q6.8172,4.86773,6.07246,4.86772Q5.44539,4.86772,5.09012,5.3213Q4.73819,5.77062,4.73819,6.56267Q4.73819,7.36851,5.10612,7.83857Q5.47633,8.31155,6.10954,8.31155Q6.6264,8.31155,6.95709,8.019680000000001Q7.28969,7.72613,7.30556,7.25248L7.3112,7.12278L6.55111,7.12278Q6.19325,7.12278,6.19325,6.802Q6.19325,6.48121,6.55111,6.48121L7.741,6.48121Q8.19999,6.48121,8.19999,6.96042L8.19999,7.03458Q8.19999,7.95597,7.65069,8.4977Q7.08642,9.05422,6.09268,9.05421Q5.02264,9.05421,4.41314,8.39897Q3.79999,7.73979,3.79999,6.57615Q3.79999,5.43073,4.41017,4.77568Z" fill-rule="evenodd"></path></symbol>
<symbol xmlns="http://www.w3.org/2000/svg" viewBox="0 0 12 12" id="agenda-habit-complete"><path d="M1.7597201817092896,6.530225687637329L4.233009181709289,9.00365568763733L4.23454918170929,9.005195687637329Q4.4542191817092895,9.22486568763733,4.76487918170929,9.22486568763733Q5.075539181709289,9.22486568763733,5.295209181709289,9.005195687637329L10.24501918170929,4.055415687637329Q10.46463918170929,3.8357956876373294,10.46463918170929,3.5250326876373292Q10.46463918170929,3.214447687637329,10.244959181709289,2.9947706876373292Q10.02529918170929,2.7751040350373293,9.71466918170929,2.775085687637329Q9.40401918170929,2.775066945037329,9.18434918170929,2.994740687637329L4.7648891817092895,7.414205687637329L2.8203391817092895,5.469615687637329Q2.6006691817092893,5.249945687637329,2.2900171817092896,5.249945687637329Q1.9793631817092896,5.249945687637329,1.7596951817092896,5.469615687637329Q1.5400207396092895,5.689285687637329,1.5400391817092896,5.999935687637329Q1.5400577680092895,6.310565687637329,1.7597201817092896,6.530225687637329Z" fill-rule="evenodd"></path></symbol>
<symbol xmlns="http://www.w3.org/2000/svg" viewBox="0 0 12 12" id="agenda-habit-wontdo"><path d="M5.992186796875,7.0553394921875L3.5212467968750003,9.526119492187501C3.228349796875,9.8190194921875,2.753593796875,9.8190194921875,2.460698796875,9.526119492187501C2.167804096875,9.233229492187501,2.167682096875,8.758349492187499,2.460576796875,8.4654494921875L4.931516796875,5.9946694921875L2.462524796875,3.5256394921875Q2.242851496875,3.3059594921875,2.242919916875,2.9954834921874998Q2.242938036875,2.6848564921875,2.462524796875,2.4650874921875Q2.682201796875,2.2454111921875,2.992919796875,2.2454833921875Q3.303686796875,2.2454833921875,3.523196796875,2.4649654921875L5.992186796875,4.9339994921875L8.470946796875001,2.4549564921875Q8.690616796875,2.2352831363875,9.001216796875,2.2352294921875Q9.311846796874999,2.2352476119875,9.531736796875,2.4549564921875Q9.751416796874999,2.6746334921875,9.751346796875,2.9853514921875Q9.751346796875,3.2961194921875,9.531736796875,3.5154994921875L7.052856796875,5.9946694921875L9.533686796875,8.4757094921875C9.826586796874999,8.7685994921875,9.826706796875001,9.2434794921875,9.533816796875,9.5363794921875C9.240916796875,9.8292694921875,8.766036796875,9.8291494921875,8.473146796875,9.5362594921875L5.992186796875,7.0553394921875Z" fill-rule="evenodd"></path></symbol>
<symbol xmlns="http://www.w3.org/2000/svg" viewBox="0 0 12 12" id="agenda-icloud"><path d="M4,1.625L8,1.625L8,0.875Q8,0.825754,8.00961,0.777455Q8.019210000000001,0.729155,8.03806,0.683658Q8.056899999999999,0.638161,8.08426,0.597215Q8.11162,0.556269,8.14645,0.521447Q8.18127,0.486625,8.22221,0.4592652Q8.26316,0.4319057,8.30866,0.4130602Q8.35415,0.39421470000000003,8.40245,0.38460736Q8.45075,0.375,8.5,0.375Q8.54924,0.375,8.59754,0.38460736Q8.64584,0.39421470000000003,8.69134,0.4130602Q8.73684,0.4319057,8.77778,0.4592652Q8.81873,0.486625,8.85355,0.521447Q8.88837,0.556269,8.91573,0.597215Q8.94309,0.638161,8.96194,0.683658Q8.98078,0.729155,8.99039,0.777455Q9,0.825754,9,0.875L9,1.625L10.02574,1.625C10.8542,1.625,11.5,2.28902,11.5,3.11745L11.5,4.40869C11.5,6.30731,11.5,8.274899999999999,11.5,10.13255C11.5,10.961,10.8434,11.625,10.015,11.625L1.985,11.625C1.1565750000000001,11.625,0.5,10.961,0.5,10.13255L0.5,3.11745C0.5,2.28902,1.163668,1.625,1.9921,1.625L3,1.625L3,0.875Q3,0.825754,3.00961,0.777455Q3.01921,0.729155,3.03806,0.683658Q3.05691,0.638161,3.08426,0.597215Q3.11162,0.556269,3.14645,0.521447Q3.18127,0.486625,3.22221,0.4592652Q3.26316,0.4319057,3.30866,0.4130602Q3.35415,0.39421470000000003,3.40245,0.38460736Q3.45075,0.375,3.5,0.375Q3.54925,0.375,3.59754,0.38460736Q3.64584,0.39421470000000003,3.69134,0.4130602Q3.73684,0.4319057,3.77778,0.4592652Q3.81873,0.486625,3.85355,0.521447Q3.88837,0.556269,3.91573,0.597215Q3.94309,0.638161,3.96194,0.683658Q3.98078,0.729155,3.99039,0.777455Q4,0.825754,4,0.875L4,1.625ZM1.6414,10.4848Q1.5,10.34241,1.5,10.13255L1.5,6.625L1.5,3.11745Q1.5,2.91021,1.64261,2.76755Q1.78512,2.625,1.9921,2.625L10.02574,2.625Q10.5,2.625,10.5,3.11745L10.49999,6.625L10.49999,10.13255Q10.49999,10.34241,10.3586,10.4848Q10.21936,10.625,10.015,10.625L4.66167,10.625L1.985,10.625Q1.78064,10.625,1.6414,10.4848ZM6,5Q5.95075,5,5.90245,4.99039Q5.85415,4.98078,5.80866,4.96194Q5.76316,4.94309,5.72221,4.91573Q5.68127,4.88837,5.64645,4.85355Q5.61162,4.81873,5.58426,4.77778Q5.5569,4.73684,5.53806,4.69134Q5.51921,4.64584,5.50961,4.59754Q5.5,4.54925,5.5,4.5Q5.5,4.45075,5.50961,4.40245Q5.51921,4.35416,5.53806,4.30866Q5.5569,4.26316,5.58426,4.2222100000000005Q5.61162,4.18127,5.64645,4.14645Q5.68127,4.11162,5.72221,4.0842600000000004Q5.76316,4.05691,5.80866,4.03806Q5.85415,4.01921,5.90245,4.00961Q5.95075,4,6,4Q6.04924,4,6.09754,4.00961Q6.14584,4.01921,6.19134,4.03806Q6.23684,4.05691,6.27778,4.0842600000000004Q6.31873,4.11162,6.35355,4.14645Q6.38837,4.18127,6.41573,4.2222100000000005Q6.44309,4.26316,6.46194,4.30866Q6.48078,4.35416,6.49039,4.40245Q6.5,4.45075,6.5,4.5Q6.5,4.54925,6.49039,4.59754Q6.48078,4.64584,6.46194,4.69134Q6.44309,4.73684,6.41573,4.77778Q6.38837,4.81873,6.35355,4.85355Q6.31873,4.88837,6.27778,4.91573Q6.23684,4.94309,6.19134,4.96194Q6.14584,4.98078,6.09754,4.99039Q6.04924,5,6,5ZM6,9C5.72386,9,5.5,8.77614,5.5,8.5L5.5,6C5.5,5.72386,5.72386,5.5,6,5.5C6.27614,5.5,6.5,5.72386,6.5,6L6.5,8.5C6.5,8.77614,6.27614,9,6,9Z" fill-rule="evenodd"></path></symbol>
<symbol xmlns="http://www.w3.org/2000/svg" viewBox="0 0 12 12" id="agenda-outlook"><path d="M4,1.625L8,1.625L8,0.875Q8,0.825754,8.00961,0.777455Q8.019210000000001,0.729155,8.03806,0.683658Q8.056899999999999,0.638161,8.08426,0.597215Q8.11162,0.556269,8.14645,0.521447Q8.18127,0.486625,8.22221,0.4592652Q8.26316,0.4319057,8.30866,0.4130602Q8.35415,0.39421470000000003,8.40245,0.38460736Q8.45075,0.375,8.5,0.375Q8.54924,0.375,8.59754,0.38460736Q8.64584,0.39421470000000003,8.69134,0.4130602Q8.73684,0.4319057,8.77778,0.4592652Q8.81873,0.486625,8.85355,0.521447Q8.88837,0.556269,8.91573,0.597215Q8.94309,0.638161,8.96194,0.683658Q8.98078,0.729155,8.99039,0.777455Q9,0.825754,9,0.875L9,1.625L10.02574,1.625C10.8542,1.625,11.5,2.28902,11.5,3.11745L11.5,4.40869C11.5,6.30731,11.5,8.274899999999999,11.5,10.13255C11.5,10.961,10.8434,11.625,10.015,11.625L1.985,11.625C1.1565750000000001,11.625,0.5,10.961,0.5,10.13255L0.5,3.11745C0.5,2.28902,1.163668,1.625,1.9921,1.625L3,1.625L3,0.875Q3,0.825754,3.00961,0.777455Q3.01921,0.729155,3.03806,0.683658Q3.05691,0.638161,3.08426,0.597215Q3.11162,0.556269,3.14645,0.521447Q3.18127,0.486625,3.22221,0.4592652Q3.26316,0.4319057,3.30866,0.4130602Q3.35415,0.39421470000000003,3.40245,0.38460736Q3.45075,0.375,3.5,0.375Q3.54925,0.375,3.59754,0.38460736Q3.64584,0.39421470000000003,3.69134,0.4130602Q3.73684,0.4319057,3.77778,0.4592652Q3.81873,0.486625,3.85355,0.521447Q3.88837,0.556269,3.91573,0.597215Q3.94309,0.638161,3.96194,0.683658Q3.98078,0.729155,3.99039,0.777455Q4,0.825754,4,0.875L4,1.625ZM1.6414,10.4848Q1.5,10.34241,1.5,10.13255L1.5,6.625L1.5,3.11745Q1.5,2.91021,1.64261,2.76755Q1.78512,2.625,1.9921,2.625L10.02574,2.625Q10.5,2.625,10.5,3.11745L10.49999,6.625L10.49999,10.13255Q10.49999,10.34241,10.3586,10.4848Q10.21936,10.625,10.015,10.625L4.66167,10.625L1.985,10.625Q1.78064,10.625,1.6414,10.4848ZM8.14669,6.50305C8.14669,7.9182,7.31733,8.79995,6.00084,8.79995C4.68126,8.79995,3.85498,7.9182,3.85498,6.50305C3.85498,5.08481,4.68126,4.199949999999999,6.00084,4.199949999999999C7.31733,4.199949999999999,8.14669,5.08481,8.14669,6.50305ZM4.80458,6.50305C4.80458,7.43415,5.27014,8.02303,6.00084,8.02303C6.72845,8.02303,7.19401,7.43415,7.19401,6.50305C7.19401,5.56886,6.72845,4.9769,6.00084,4.9769C5.27322,4.9769,4.80458,5.56886,4.80458,6.50305Z" fill-rule="evenodd"></path></symbol>
<symbol xmlns="http://www.w3.org/2000/svg" viewBox="0 0 12 12" id="agenda-pomo"><path d="M6.282919994039536,0.386606C6.267789994039536,0.367877,6.250909994039535,0.35068900000000003,6.232509994039535,0.3352832C6.075649994039535,0.2038936,5.843879994039535,0.2268718,5.714849994039535,0.386606L5.016169994039536,1.25153C4.953389994039536,1.32925,4.8625299940395355,1.37797,4.764079994039536,1.38671L3.5102999940395354,1.49802C3.4061199940395355,1.50727,3.3128199940395353,1.5674,3.2600299940395354,1.65931C3.1701499940395355,1.8158,3.2218699940395354,2.0168600000000003,3.3755499940395355,2.10838L4.0035999940395355,2.48241C4.148589994039535,2.56876,4.217709994039536,2.74416,4.171539994039536,2.90861L4.025109994039536,3.43025C4.0052899940395355,3.50084,4.006289994039536,3.57581,4.027979994039535,3.64584C4.089079994039535,3.84308,4.295649994039536,3.95255,4.4893599940395355,3.89033L5.666969994039536,3.51208C5.882999994039536,3.44269,6.114759994039535,3.44269,6.330789994039535,3.51208L7.508399994039536,3.89033C7.577169994039536,3.91242,7.650799994039535,3.91343,7.7201199940395355,3.89325C7.915419994039535,3.83641,8.028479994039536,3.62911,7.972659994039535,3.43025L7.826219994039535,2.90861C7.780049994039535,2.74416,7.849169994039536,2.56876,7.994159994039536,2.48241L8.622209994039535,2.10838C8.712479994039535,2.05463,8.771529994039536,1.95962,8.780609994039535,1.85354C8.796069994039536,1.67294,8.664829994039536,1.51377,8.487459994039536,1.49802L7.233689994039535,1.38671C7.135229994039536,1.37797,7.044369994039536,1.32925,6.981589994039536,1.25153L6.282919994039536,0.386606ZM9.699899994039535,2.63501Q10.627099994039536,3.35039,11.134999994039536,4.38077Q11.647799994039536,5.42097,11.647799994039536,6.61084Q11.647799994039536,7.6698,11.196099994039535,8.63606Q10.762599994039535,9.56351,9.975159994039535,10.276Q9.193159994039535,10.9836,8.181769994039534,11.3707Q7.138829994039535,11.7698,5.998879994039536,11.7698Q4.858929994039536,11.7698,3.8159799940395356,11.3707Q2.8045899940395356,10.9836,2.0225899940395355,10.276Q1.2351839940395355,9.5635,0.8016589940395356,8.63606Q0.3499922454395355,7.6698,0.34999236464953554,6.61084Q0.34999236464953554,5.42146,0.8633609940395355,4.38127Q1.3716199940395355,3.35144,2.2991399940395354,2.63605C2.3866299940395357,2.56857,2.4940099940395357,2.53197,2.6044999940395357,2.53197C2.8806399940395355,2.53197,3.1044999940395357,2.75583,3.1044999940395357,3.03197C3.1044999940395357,3.18698,3.0326099940395355,3.33322,2.9095299940395356,3.42815Q2.1657199940395353,4.00196,1.7600999940395354,4.82384Q1.3499919940395355,5.6548,1.3499919940395355,6.61084Q1.3499919940395355,7.44761,1.7075699940395355,8.2126Q2.0556899940395352,8.95733,2.6935399940395355,9.53449Q3.3367899940395356,10.11654,4.173419994039536,10.4367Q5.043749994039535,10.7698,5.998879994039536,10.7698Q6.953999994039536,10.7698,7.824339994039535,10.4367Q8.660959994039535,10.11654,9.304209994039535,9.53449Q9.942059994039536,8.95733,10.290179994039535,8.2126Q10.647799994039536,7.44762,10.647799994039536,6.61084Q10.647799994039536,5.65404,10.238069994039536,4.82289Q9.832699994039535,4.000500000000001,9.089049994039536,3.42676C8.966339994039535,3.33209,8.894469994039536,3.18587,8.894469994039536,3.03088C8.894469994039536,2.75474,9.118329994039536,2.53088,9.394469994039536,2.53088C9.504989994039535,2.53088,9.612389994039535,2.5675,9.699899994039535,2.63501Z" fill-rule="evenodd"></path></symbol>
<symbol xmlns="http://www.w3.org/2000/svg" viewBox="0 0 12 12" id="agenda-stopwatch"><path d="M3.75,0L8.25,0C8.52614,0,8.75,0.223857,8.75,0.5C8.75,0.776142,8.52614,1,8.25,1L6.5,1L6.5,1.52312Q6.26801,1.50144,6.03155,1.50009Q7.01608,1.50581,7.9325,1.86861Q8.94347,2.26884,9.71231,3.03769Q9.72433,3.04971,9.73625,3.06177Q9.79511,3.12137,9.85177,3.18239Q10.51828,3.90031,10.8814,4.8175Q11.25,5.7486,11.25,6.75Q11.25,7.7514,10.8814,8.6825Q10.51868,9.59869,9.85323,10.316Q9.78438,10.3902,9.71231,10.4623Q9.63591,10.5387,9.55713,10.6115Q8.84301,11.2709,7.9325,11.6314Q7.00141,12,6,12Q4.99859,12,4.0675,11.6314Q3.15131,11.2687,2.43398,10.6032Q2.35977,10.5344,2.28769,10.4623Q2.27564,10.4503,2.26375,10.4382Q2.20229,10.376,2.1431899999999997,10.3122Q1.480346,9.59622,1.118611,8.6825Q0.75,7.7514,0.75,6.75Q0.75,5.7486,1.118611,4.8175Q1.518845,3.80653,2.28769,3.03769Q3.05653,2.26884,4.0675,1.86861Q4.97363,1.50988,5.94635,1.50027Q5.72114,1.50246,5.5,1.52312L5.5,1L3.75,1C3.47386,1,3.25,0.776142,3.25,0.5C3.25,0.223857,3.47386,0,3.75,0ZM6,11C8.34721,11,10.25,9.09721,10.25,6.75C10.25,4.40279,8.34721,2.5,6,2.5C3.65279,2.5,1.75,4.40279,1.75,6.75C1.75,9.09721,3.65279,11,6,11ZM7.5,6.74988Q7.5,6.44118,7.3781,6.15757L8.58012,4.95556Q8.61494,4.92074,8.642299999999999,4.87979Q8.66966,4.83884,8.688500000000001,4.79335Q8.70735,4.74785,8.71695,4.69955Q8.72656,4.65125,8.72656,4.602Q8.72656,4.55276,8.71695,4.50446Q8.70735,4.45616,8.688500000000001,4.41066Q8.66966,4.36517,8.642299999999999,4.32422Q8.61494,4.28327,8.58012,4.24845Q8.509789999999999,4.17812,8.4179,4.14006Q8.32602,4.102,8.22656,4.102Q8.12711,4.102,8.035219999999999,4.14006Q7.94334,4.17812,7.87301,4.24845L6.69884,5.42262Q6.37077,5.24988,6,5.24988Q5.92631,5.24988,5.85297,5.2571Q5.77964,5.26432,5.70736,5.2787Q5.63509,5.29308,5.56457,5.31447Q5.49406,5.33586,5.42597,5.36406Q5.35789,5.39226,5.29291,5.427Q5.22792,5.46173,5.16664,5.50267Q5.10537,5.54361,5.04841,5.59036Q4.99145,5.63711,4.93934,5.68922Q4.88723,5.74132,4.84048,5.79829Q4.79374,5.85525,4.7528,5.91652Q4.71186,5.97779,4.67712,6.04278Q4.64238,6.10777,4.61418,6.17585Q4.58598,6.24393,4.56459,6.31445Q4.543200000000001,6.38497,4.52882,6.45724Q4.51445,6.52952,4.50722,6.60285Q4.5,6.67619,4.5,6.74988Q4.5,6.82357,4.50722,6.8969Q4.51445,6.97024,4.52882,7.04251Q4.543200000000001,7.11479,4.56459,7.1853Q4.58598,7.25582,4.61418,7.3239Q4.64238,7.39198,4.67712,7.45697Q4.71186,7.52196,4.7528,7.58323Q4.79374,7.6445,4.84048,7.70147Q4.88723,7.75843,4.93934,7.81054Q4.99145,7.86265,5.04841,7.90939Q5.10537,7.95614,5.16664,7.99708Q5.22792,8.03802,5.2929,8.07276Q5.35789,8.1075,5.42597,8.1357Q5.49406,8.1639,5.56457,8.18529Q5.63509,8.20668,5.70736,8.22106Q5.77964,8.23543,5.85297,8.24265Q5.92631,8.24988,6,8.24988Q6.07369,8.24988,6.14703,8.24265Q6.22036,8.23543,6.29263,8.22106Q6.36491,8.20668,6.43543,8.18529Q6.50594,8.1639,6.57402,8.1357Q6.64211,8.1075,6.70709,8.07276Q6.77208,8.03802,6.83335,7.99708Q6.89463,7.95614,6.95159,7.90939Q7.00855,7.86265,7.06066,7.81054Q7.11277,7.75843,7.15952,7.70147Q7.20626,7.6445,7.2472,7.58323Q7.28814,7.52196,7.32288,7.45697Q7.35762,7.39198,7.38582,7.3239Q7.41402,7.25582,7.43541,7.1853Q7.4568,7.11479,7.47118,7.04251Q7.48555,6.97024,7.49278,6.8969Q7.5,6.82357,7.5,6.74988Z" fill-rule="evenodd"></path></symbol>
<symbol xmlns="http://www.w3.org/2000/svg" viewBox="0 0 12 12" id="agenda-subscribe"><path d="M4,1.625L8,1.625L8,0.875Q8,0.825754,8.00961,0.777455Q8.019210000000001,0.729155,8.03806,0.683658Q8.056899999999999,0.638161,8.08426,0.597215Q8.11162,0.556269,8.14645,0.521447Q8.18127,0.486625,8.22221,0.4592652Q8.26316,0.4319057,8.30866,0.4130602Q8.35415,0.39421470000000003,8.40245,0.38460736Q8.45075,0.375,8.5,0.375Q8.54924,0.375,8.59754,0.38460736Q8.64584,0.39421470000000003,8.69134,0.4130602Q8.73684,0.4319057,8.77778,0.4592652Q8.81873,0.486625,8.85355,0.521447Q8.88837,0.556269,8.91573,0.597215Q8.94309,0.638161,8.96194,0.683658Q8.98078,0.729155,8.99039,0.777455Q9,0.825754,9,0.875L9,1.625L10.02574,1.625C10.8542,1.625,11.5,2.28902,11.5,3.11745L11.5,4.40869C11.5,6.30731,11.5,8.274899999999999,11.5,10.13255C11.5,10.961,10.8434,11.625,10.015,11.625L1.985,11.625C1.1565750000000001,11.625,0.5,10.961,0.5,10.13255L0.5,3.11745C0.5,2.28902,1.163668,1.625,1.9921,1.625L3,1.625L3,0.875Q3,0.825754,3.00961,0.777455Q3.01921,0.729155,3.03806,0.683658Q3.05691,0.638161,3.08426,0.597215Q3.11162,0.556269,3.14645,0.521447Q3.18127,0.486625,3.22221,0.4592652Q3.26316,0.4319057,3.30866,0.4130602Q3.35415,0.39421470000000003,3.40245,0.38460736Q3.45075,0.375,3.5,0.375Q3.54925,0.375,3.59754,0.38460736Q3.64584,0.39421470000000003,3.69134,0.4130602Q3.73684,0.4319057,3.77778,0.4592652Q3.81873,0.486625,3.85355,0.521447Q3.88837,0.556269,3.91573,0.597215Q3.94309,0.638161,3.96194,0.683658Q3.98078,0.729155,3.99039,0.777455Q4,0.825754,4,0.875L4,1.625ZM1.5,10.13255Q1.5,10.34241,1.6414,10.4848Q1.78064,10.625,1.985,10.625L4.66167,10.625L10.015,10.625Q10.21936,10.625,10.3586,10.4848Q10.49999,10.34241,10.49999,10.13255L10.49999,6.625L10.5,3.11745Q10.5,2.625,10.02574,2.625L1.9921,2.625Q1.78512,2.625,1.64261,2.76755Q1.5,2.91021,1.5,3.11745L1.5,6.625L1.5,10.13255ZM6.28728,6.84284Q6.61326,6.84283,6.84342,6.61614L7.43378,6.03467Q7.66296,5.80893,7.66297,5.49019Q7.66297,5.17144,7.43378,4.9457Q7.20361,4.719,6.87764,4.719Q6.55166,4.719,6.32149,4.9457L5.96826,5.29362Q5.86219,5.39809,5.71266,5.39809Q5.56313,5.39809,5.45706,5.29362Q5.35001,5.18818,5.35001,5.03859Q5.35001,4.88899,5.45706,4.78356L5.81029,4.43564Q6.2526,4,6.87764,4Q7.50267,4,7.94498,4.43564Q8.388259999999999,4.87224,8.388259999999999,5.49019Q8.388259999999999,6.10812,7.94498,6.54473L7.35462,7.1262Q6.91232,7.56184,6.28728,7.56184Q5.66224,7.56184,5.21993,7.1262L5.21776,7.12405L5.21571,7.12187Q5.1004,6.99897,5.11967,6.84543Q5.13601,6.71517,5.24226,6.62105Q5.34207,6.53265,5.46901,6.52201Q5.62251,6.50915,5.73114,6.61614Q5.9613,6.84284,6.28728,6.84284ZM5.71268,6.15717Q5.3867,6.15717,5.15653,6.38386L4.56617,6.96533Q4.33699,7.19107,4.33699,7.50981Q4.33699,7.82857,4.56617,8.0543Q4.79634,8.280999999999999,5.12232,8.280999999999999Q5.44829,8.28099,5.67846,8.0543L6.0317,7.70638Q6.13777,7.60191,6.2873,7.60191Q6.43683,7.60191,6.5429,7.70638Q6.64994,7.81182,6.64994,7.96141Q6.64994,8.11101,6.5429,8.21644L6.18966,8.56436Q5.74735,9,5.12232,9Q4.49728,9,4.0549800000000005,8.56436Q3.61169,8.12776,3.61169,7.50981Q3.61169,6.89188,4.05497,6.45527L4.64533,5.8738Q5.08764,5.43816,5.71268,5.43816Q6.33771,5.43816,6.78002,5.8738L6.78219,5.87594L6.78427,5.87817Q6.89955,6.00103,6.88029,6.15457Q6.86394,6.28484,6.75769,6.37895Q6.65788,6.46735,6.53094,6.47799Q6.37744,6.49085,6.26882,6.38386Q6.03866,6.15717,5.71268,6.15717Z" fill-rule="evenodd"></path></symbol>
<symbol xmlns="http://www.w3.org/2000/svg" viewBox="0 0 12 12" id="agenda-wontdo"><path d="M6,11.5Q6.13502,11.5,6.26987,11.4934Q6.40473,11.4867,6.53909,11.4735Q6.67346,11.4603,6.80702,11.4405Q6.94057,11.4207,7.073,11.3943Q7.20542,11.368,7.33639,11.3352Q7.46736,11.3024,7.59657,11.2632Q7.72577,11.224,7.85289,11.1785Q7.98002,11.133,8.104759999999999,11.0813Q8.2295,11.0297,8.35155,10.9719Q8.47361,10.9142,8.59268,10.8506Q8.71176,10.7869,8.82756,10.7175Q8.94337,10.6481,9.05564,10.5731Q9.1679,10.49807,9.27635,10.41764Q9.38479,10.33721,9.48916,10.25156Q9.59353,10.1659,9.69357,10.07523Q9.79361,9.98456,9.88909,9.88909Q9.98456,9.79361,10.07523,9.69357Q10.1659,9.59353,10.25156,9.48916Q10.33721,9.38479,10.41764,9.27635Q10.49807,9.1679,10.5731,9.05564Q10.6481,8.94337,10.7175,8.82756Q10.7869,8.71176,10.8506,8.59268Q10.9142,8.47361,10.9719,8.35155Q11.0297,8.2295,11.0813,8.104759999999999Q11.133,7.98002,11.1785,7.85289Q11.224,7.72577,11.2632,7.59657Q11.3024,7.46736,11.3352,7.33639Q11.368,7.20542,11.3943,7.073Q11.4207,6.94057,11.4405,6.80702Q11.4603,6.67346,11.4735,6.53909Q11.4867,6.40473,11.4934,6.26987Q11.5,6.13502,11.5,6Q11.5,5.86498,11.4934,5.73013Q11.4867,5.59527,11.4735,5.46091Q11.4603,5.32654,11.4405,5.19298Q11.4207,5.05943,11.3943,4.927Q11.368,4.79458,11.3352,4.66361Q11.3024,4.53264,11.2632,4.40343Q11.224,4.27423,11.1785,4.14711Q11.133,4.01998,11.0813,3.89524Q11.0297,3.7705,10.9719,3.64845Q10.9142,3.52639,10.8506,3.40732Q10.7869,3.28824,10.7175,3.17243Q10.6481,3.05663,10.5731,2.94436Q10.49807,2.8321,10.41764,2.72365Q10.33721,2.61521,10.25156,2.51084Q10.1659,2.40647,10.07523,2.3064299999999998Q9.98456,2.2063800000000002,9.88909,2.11091Q9.79361,2.01544,9.69357,1.92477Q9.59353,1.8341,9.48916,1.74844Q9.38479,1.66279,9.27635,1.58236Q9.1679,1.50193,9.05564,1.426917Q8.94337,1.351905,8.82756,1.282493Q8.71176,1.2130800000000002,8.59268,1.1494330000000001Q8.47361,1.0857860000000001,8.35155,1.0280589999999998Q8.2295,0.970331,8.104759999999999,0.918662Q7.98002,0.866994,7.85289,0.821508Q7.72577,0.776022,7.59657,0.736828Q7.46736,0.697635,7.33639,0.664828Q7.20542,0.632022,7.073,0.605681Q6.94057,0.5793403,6.80702,0.5595292Q6.67346,0.539718,6.53909,0.526484Q6.40473,0.51325,6.26987,0.50662499Q6.13502,0.5,6,0.5Q5.86498,0.5,5.73013,0.50662499Q5.59527,0.51325,5.46091,0.526484Q5.32654,0.539718,5.19298,0.5595292Q5.05943,0.5793403,4.927,0.605681Q4.79458,0.632022,4.66361,0.664828Q4.53264,0.697635,4.40343,0.736828Q4.27423,0.776022,4.14711,0.821508Q4.01998,0.866994,3.89524,0.918662Q3.7705,0.970331,3.64845,1.0280589999999998Q3.52639,1.0857860000000001,3.40732,1.1494330000000001Q3.28824,1.2130800000000002,3.17243,1.282493Q3.05663,1.351905,2.94436,1.426917Q2.8321,1.50193,2.72365,1.58236Q2.61521,1.66279,2.51084,1.74844Q2.40647,1.8341,2.3064299999999998,1.92477Q2.2063800000000002,2.01544,2.11091,2.11091Q2.01544,2.2063800000000002,1.92477,2.3064299999999998Q1.8341,2.40647,1.74844,2.51084Q1.66279,2.61521,1.58236,2.72365Q1.50193,2.8321,1.426917,2.94436Q1.351905,3.05663,1.282493,3.17243Q1.2130800000000002,3.28824,1.1494330000000001,3.40732Q1.0857860000000001,3.52639,1.0280589999999998,3.64845Q0.970331,3.7705,0.918662,3.89524Q0.866994,4.01998,0.821508,4.14711Q0.776022,4.27423,0.736828,4.40343Q0.697635,4.53264,0.664828,4.66361Q0.632022,4.79458,0.605681,4.927Q0.5793403,5.05943,0.5595292,5.19298Q0.539718,5.32654,0.526484,5.46091Q0.51325,5.59527,0.50662499,5.73013Q0.5,5.86498,0.5,6Q0.5,6.13502,0.50662499,6.26987Q0.51325,6.40473,0.526484,6.53909Q0.539718,6.67346,0.5595292,6.80702Q0.5793403,6.94057,0.605681,7.073Q0.632022,7.20542,0.664828,7.33639Q0.697635,7.46736,0.736828,7.59657Q0.776022,7.72577,0.821508,7.85289Q0.866994,7.98002,0.918662,8.104759999999999Q0.970331,8.2295,1.0280589999999998,8.35155Q1.0857860000000001,8.47361,1.1494330000000001,8.59268Q1.2130800000000002,8.71176,1.282493,8.82756Q1.351905,8.94337,1.426917,9.05564Q1.50193,9.1679,1.58236,9.27635Q1.66279,9.38479,1.74844,9.48916Q1.8341,9.59353,1.92477,9.69357Q2.01544,9.79361,2.11091,9.88909Q2.2063800000000002,9.98456,2.3064299999999998,10.07523Q2.40647,10.1659,2.51084,10.25156Q2.61521,10.33721,2.72365,10.41764Q2.8321,10.49807,2.94436,10.5731Q3.05663,10.6481,3.17243,10.7175Q3.28824,10.7869,3.40732,10.8506Q3.52639,10.9142,3.64845,10.9719Q3.7705,11.0297,3.89524,11.0813Q4.01998,11.133,4.14711,11.1785Q4.27423,11.224,4.40343,11.2632Q4.53264,11.3024,4.66361,11.3352Q4.79458,11.368,4.927,11.3943Q5.05943,11.4207,5.19298,11.4405Q5.32654,11.4603,5.46091,11.4735Q5.59527,11.4867,5.73013,11.4934Q5.86498,11.5,6,11.5ZM3.81641,4.35011Q3.81641,4.57102,3.97262,4.72723L5.24541,6.00002L3.97262,7.27281Q3.81641,7.42902,3.81641,7.64994Q3.81641,7.87085,3.97262,8.027059999999999Q4.12883,8.18327,4.349740000000001,8.18327Q4.57065,8.18327,4.72686,8.027059999999999L5.99966,6.75427L7.27245,8.027059999999999Q7.42866,8.18327,7.64957,8.18327Q7.87048,8.18327,8.02669,8.027059999999999Q8.1829,7.87085,8.1829,7.64994Q8.1829,7.42902,8.02669,7.27281L6.7539,6.00002L8.02669,4.72723Q8.1829,4.57102,8.1829,4.35011Q8.1829,4.1291899999999995,8.02669,3.97298Q7.87049,3.81677,7.64957,3.81677Q7.42866,3.81677,7.27245,3.97298L5.99966,5.24577L4.72686,3.97298Q4.57065,3.81677,4.349740000000001,3.81677Q4.12883,3.81677,3.97262,3.97298Q3.81641,4.1291899999999995,3.81641,4.35011Z" fill-rule="evenodd"></path></symbol>
</svg>