<svg xmlns="http://www.w3.org/2000/svg" xmlns:xlink="http://www.w3.org/1999/xlink" style="position: absolute; width: 0; height: 0" aria-hidden="true" id="__SVG_SPRITE_NODE__">
<symbol xmlns="http://www.w3.org/2000/svg" viewBox="-187 189 1024 1024" id="android"><path d="M589.3,536.4c-23.6,0-42.9,19.3-42.9,42.9v171.6c0,23.6,19.3,42.9,42.9,42.9s42.9-19.3,42.9-42.9V579.3 C632.2,555.7,612.9,536.4,589.3,536.4z M74.7,536.4c-23.6,0-42.9,19.3-42.9,42.9v171.6c0,23.6,19.3,42.9,42.9,42.9 s42.9-19.3,42.9-42.9V579.3C117.5,555.7,98.3,536.4,74.7,536.4z M139,815.2c0,35.5,28.8,64.3,64.3,64.3h21.4v85.8 c0,23.6,19.3,42.9,42.9,42.9s42.9-19.3,42.9-42.9v-85.8h42.9v85.8c0,23.6,19.3,42.9,42.9,42.9s42.9-19.3,42.9-42.9v-85.8h21.4 c35.5,0,64.3-28.8,64.3-64.3V579.3H139V815.2z M411.5,382l27.1-52.1c1.4-2.6,0.3-5.9-2.3-7.2c-2.6-1.4-5.9-0.3-7.2,2.3l-27.6,52.9 c-21.6-8.3-45-12.9-69.5-12.9c-24.5,0-48,4.6-69.5,12.9l-27.6-52.9c-1.4-2.6-4.6-3.6-7.2-2.3c-2.6,1.4-3.6,4.6-2.3,7.2l27.1,52.1 c-60.7,27.5-104.7,85.5-112.3,154.5h383.6C516.2,467.5,472.2,409.4,411.5,382z M246.2,503.2c-17.2,0-31.1-13.9-31.1-31.1 S229,441,246.2,441s31.1,13.9,31.1,31.1S263.4,503.2,246.2,503.2z M417.8,503.2c-17.2,0-31.1-13.9-31.1-31.1s13.9-31.1,31.1-31.1 s31.1,13.9,31.1,31.1S434.9,503.2,417.8,503.2z"></path></symbol>
</svg>