<svg xmlns="http://www.w3.org/2000/svg" xmlns:xlink="http://www.w3.org/1999/xlink" style="position: absolute; width: 0; height: 0" aria-hidden="true" id="__SVG_SPRITE_NODE__">
<symbol xmlns="http://www.w3.org/2000/svg" viewBox="0 0 24 24" id="assignment-detail"><path d="M16.8214,5.019525321655274C16.8214,7.682325321655274,14.6628,9.840945321655273,12,9.840945321655273C9.33719,9.840945321655273,7.17856,7.682325321655274,7.17856,5.019525321655274C7.17856,2.3567253216552735,9.33719,0.19809532165527344,12,0.19809532165527344C14.6628,0.19809532165527344,16.8214,2.3567253216552735,16.8214,5.019525321655274ZM14.683,5.019525321655274Q14.683,3.9081853216552735,13.8972,3.1223553216552733Q13.1113,2.3365253216552735,12,2.3365253216552735Q10.8887,2.3365253216552735,10.10282,3.1223553216552733Q9.31699,3.9081853216552735,9.31699,5.019525321655274Q9.31699,6.1308553216552735,10.10282,6.916685321655273Q10.8887,7.702525321655274,12,7.702525321655274Q13.1113,7.702525321655274,13.8972,6.916685321655273Q14.683,6.1308553216552735,14.683,5.019525321655274ZM0.75,19.483795321655272C0.75,21.850695321655273,2.66878,23.769495321655274,5.03571,23.769495321655274L18.9643,23.769495321655274C21.3312,23.769495321655274,23.25,21.850695321655273,23.25,19.483795321655272C23.25,14.749895321655274,19.4124,10.912395321655273,14.6786,10.912395321655273L9.32143,10.912395321655273C4.58756,10.912395321655273,0.75,14.749895321655274,0.75,19.483795321655272ZM18.9643,21.631095321655273L5.03571,21.631095321655273Q4.14628,21.631095321655273,3.51735,21.00219532165527Q2.88843,20.373195321655274,2.88843,19.483795321655272Q2.88843,16.819195321655272,4.77261,14.934995321655274Q6.65679,13.050795321655274,9.32143,13.050795321655274L14.6786,13.050795321655274Q17.3432,13.050795321655274,19.2274,14.934995321655274Q21.1116,16.819195321655272,21.1116,19.483795321655272Q21.1116,20.373195321655274,20.4826,21.00219532165527Q19.8537,21.631095321655273,18.9643,21.631095321655273ZM12.9527,18.400495321655274L12.1246,19.266995321655273C11.9388,19.45799532165527,11.8349,19.713895321655272,11.8349,19.980295321655273L11.835,19.994195321655273C11.8387,20.265395321655273,11.95,20.524095321655274,12.1444,20.713195321655274C12.3353,20.898995321655274,12.5912,21.002995321655273,12.8576,21.002995321655273L12.8716,21.002895321655274C13.1428,20.999195321655275,13.4014,20.887895321655275,13.5906,20.693595321655273L16.1079,18.090995321655274C16.2937,17.900095321655275,16.3977,17.644195321655275,16.3977,17.377695321655274C16.3977,17.364895321655272,16.397399999999998,17.351995321655274,16.397,17.339195321655275C16.387700000000002,17.094795321655273,16.2913,16.861895321655272,16.125,16.682395321655275L13.6763,13.989895321655274C13.4828,13.781095321655274,13.211,13.662395321655273,12.9263,13.662395321655273L12.9122,13.662495321655273C12.6592,13.665995321655274,12.4165,13.762995321655273,12.231,13.934995321655274C12.0222,14.128495321655274,11.9035,14.400395321655273,11.9035,14.685095321655274L11.9036,14.699195321655273C11.9071,14.952095321655273,12.0042,15.194795321655274,12.1766,15.380795321655274L13.0327,16.354995321655274L8.89024,16.354995321655274C8.3254,16.354995321655274,7.86751,16.812895321655272,7.86751,17.377695321655274C7.86751,17.942595321655272,8.3254,18.400495321655274,8.89024,18.400495321655274L12.9527,18.400495321655274Z" fill-rule="evenodd"></path></symbol>
<symbol xmlns="http://www.w3.org/2000/svg" viewBox="0 0 24 24" id="assignment-nobody"><path d="M16.8214,5.019525321655274C16.8214,7.682325321655274,14.6628,9.840945321655273,12,9.840945321655273C9.33719,9.840945321655273,7.17856,7.682325321655274,7.17856,5.019525321655274C7.17856,2.3567253216552735,9.33719,0.19809532165527344,12,0.19809532165527344C14.6628,0.19809532165527344,16.8214,2.3567253216552735,16.8214,5.019525321655274ZM14.683,5.019525321655274Q14.683,3.9081853216552735,13.8972,3.1223553216552733Q13.1113,2.3365253216552735,12,2.3365253216552735Q10.8887,2.3365253216552735,10.10282,3.1223553216552733Q9.31699,3.9081853216552735,9.31699,5.019525321655274Q9.31699,6.1308553216552735,10.10282,6.916685321655273Q10.8887,7.702525321655274,12,7.702525321655274Q13.1113,7.702525321655274,13.8972,6.916685321655273Q14.683,6.1308553216552735,14.683,5.019525321655274ZM0.75,19.483795321655272C0.75,21.850695321655273,2.66878,23.769495321655274,5.03571,23.769495321655274L18.9643,23.769495321655274C21.3312,23.769495321655274,23.25,21.850695321655273,23.25,19.483795321655272C23.25,14.749895321655274,19.4124,10.912395321655273,14.6786,10.912395321655273L9.32143,10.912395321655273C4.58756,10.912395321655273,0.75,14.749895321655274,0.75,19.483795321655272ZM18.9643,21.631095321655273L5.03571,21.631095321655273Q4.14628,21.631095321655273,3.51735,21.00219532165527Q2.88843,20.373195321655274,2.88843,19.483795321655272Q2.88843,16.819195321655272,4.77261,14.934995321655274Q6.65679,13.050795321655274,9.32143,13.050795321655274L14.6786,13.050795321655274Q17.3432,13.050795321655274,19.2274,14.934995321655274Q21.1116,16.819195321655272,21.1116,19.483795321655272Q21.1116,20.373195321655274,20.4826,21.00219532165527Q19.8537,21.631095321655273,18.9643,21.631095321655273ZM10.7801,17.094095321655274L9.18854,18.685695321655274C9.02415,18.850095321655274,8.93182,19.073095321655273,8.93182,19.305595321655275C8.93183,19.538095321655273,9.02419,19.761095321655272,9.18859,19.925395321655273C9.35299,20.089795321655274,9.57594,20.182195321655275,9.80845,20.182195321655275C10.04094,20.182195321655275,10.26396,20.089795321655274,10.42835,19.925395321655273L12.0277,18.325895321655274L13.5717,19.869995321655274C13.7361,20.034395321655275,13.9591,20.126795321655273,14.1916,20.126795321655273C14.2067,20.126795321655273,14.2218,20.126395321655274,14.2369,20.125595321655272C14.4534,20.114395321655273,14.6581,20.023295321655272,14.8114,19.869995321655274C14.9758,19.705595321655274,15.0682,19.482595321655275,15.0682,19.250095321655273C15.0682,19.234995321655273,15.0678,19.219895321655272,15.067,19.204795321655272C15.0558,18.988295321655272,14.9648,18.783595321655273,14.8115,18.630295321655275L13.2674,17.086195321655275L14.8114,15.542295321655274C14.9758,15.377895321655274,15.0682,15.154995321655273,15.0682,14.922395321655273C15.0682,14.908395321655274,15.0678,14.894395321655274,15.0672,14.880395321655273C15.0567,14.662695321655274,14.9656,14.456695321655273,14.8115,14.302595321655273C14.6471,14.138195321655273,14.4241,14.045795321655273,14.1916,14.045795321655273C14.1775,14.045795321655273,14.1635,14.046195321655274,14.1495,14.046795321655273C13.9318,14.057295321655273,13.7258,14.148495321655274,13.5717,14.302595321655273L12.0199,15.854295321655274L10.42043,14.294795321655274C10.25672,14.135195321655273,10.0371,14.045795321655273,9.80845,14.045795321655273L9.79732,14.045895321655273C9.56484,14.048795321655273,9.34308,14.143995321655273,9.18078,14.310495321655273C9.02116,14.474195321655273,8.93182,14.693795321655273,8.93182,14.922395321655273L8.93188,14.933595321655273C8.93482,15.165995321655274,9.02999,15.387795321655274,9.19646,15.550095321655274L10.7801,17.094095321655274Z" fill-rule="evenodd"></path></symbol>
<symbol xmlns="http://www.w3.org/2000/svg" viewBox="0 0 24 24" id="assignment-none"><path d="M16.8214,5.019525321655274C16.8214,7.682325321655274,14.6628,9.840945321655273,12,9.840945321655273C9.33719,9.840945321655273,7.17856,7.682325321655274,7.17856,5.019525321655274C7.17856,2.3567253216552735,9.33719,0.19809532165527344,12,0.19809532165527344C14.6628,0.19809532165527344,16.8214,2.3567253216552735,16.8214,5.019525321655274ZM14.683,5.019525321655274Q14.683,3.9081853216552735,13.8972,3.1223553216552733Q13.1113,2.3365253216552735,12,2.3365253216552735Q10.8887,2.3365253216552735,10.10282,3.1223553216552733Q9.31699,3.9081853216552735,9.31699,5.019525321655274Q9.31699,6.1308553216552735,10.10282,6.916685321655273Q10.8887,7.702525321655274,12,7.702525321655274Q13.1113,7.702525321655274,13.8972,6.916685321655273Q14.683,6.1308553216552735,14.683,5.019525321655274ZM0.75,19.483795321655272C0.75,21.850695321655273,2.66878,23.769495321655274,5.03571,23.769495321655274L18.9643,23.769495321655274C21.3312,23.769495321655274,23.25,21.850695321655273,23.25,19.483795321655272C23.25,14.749895321655274,19.4124,10.912395321655273,14.6786,10.912395321655273L9.32143,10.912395321655273C4.58756,10.912395321655273,0.75,14.749895321655274,0.75,19.483795321655272ZM18.9643,21.631095321655273L5.03571,21.631095321655273Q4.14628,21.631095321655273,3.51735,21.00219532165527Q2.88843,20.373195321655274,2.88843,19.483795321655272Q2.88843,16.819195321655272,4.77261,14.934995321655274Q6.65679,13.050795321655274,9.32143,13.050795321655274L14.6786,13.050795321655274Q17.3432,13.050795321655274,19.2274,14.934995321655274Q21.1116,16.819195321655272,21.1116,19.483795321655272Q21.1116,20.373195321655274,20.4826,21.00219532165527Q19.8537,21.631095321655273,18.9643,21.631095321655273ZM10.7801,17.094095321655274L9.18854,18.685695321655274C9.02415,18.850095321655274,8.93182,19.073095321655273,8.93182,19.305595321655275C8.93183,19.538095321655273,9.02419,19.761095321655272,9.18859,19.925395321655273C9.35299,20.089795321655274,9.57594,20.182195321655275,9.80845,20.182195321655275C10.04094,20.182195321655275,10.26396,20.089795321655274,10.42835,19.925395321655273L12.0277,18.325895321655274L13.5717,19.869995321655274C13.7361,20.034395321655275,13.9591,20.126795321655273,14.1916,20.126795321655273C14.2067,20.126795321655273,14.2218,20.126395321655274,14.2369,20.125595321655272C14.4534,20.114395321655273,14.6581,20.023295321655272,14.8114,19.869995321655274C14.9758,19.705595321655274,15.0682,19.482595321655275,15.0682,19.250095321655273C15.0682,19.234995321655273,15.0678,19.219895321655272,15.067,19.204795321655272C15.0558,18.988295321655272,14.9648,18.783595321655273,14.8115,18.630295321655275L13.2674,17.086195321655275L14.8114,15.542295321655274C14.9758,15.377895321655274,15.0682,15.154995321655273,15.0682,14.922395321655273C15.0682,14.908395321655274,15.0678,14.894395321655274,15.0672,14.880395321655273C15.0567,14.662695321655274,14.9656,14.456695321655273,14.8115,14.302595321655273C14.6471,14.138195321655273,14.4241,14.045795321655273,14.1916,14.045795321655273C14.1775,14.045795321655273,14.1635,14.046195321655274,14.1495,14.046795321655273C13.9318,14.057295321655273,13.7258,14.148495321655274,13.5717,14.302595321655273L12.0199,15.854295321655274L10.42043,14.294795321655274C10.25672,14.135195321655273,10.0371,14.045795321655273,9.80845,14.045795321655273L9.79732,14.045895321655273C9.56484,14.048795321655273,9.34308,14.143995321655273,9.18078,14.310495321655273C9.02116,14.474195321655273,8.93182,14.693795321655273,8.93182,14.922395321655273L8.93188,14.933595321655273C8.93482,15.165995321655274,9.02999,15.387795321655274,9.19646,15.550095321655274L10.7801,17.094095321655274Z" fill-rule="evenodd"></path></symbol>
<symbol xmlns="http://www.w3.org/2000/svg" viewBox="0 0 24 24" id="assignment"><path d="M12,10C14.4853,10,16.5,7.98528,16.5,5.5C16.5,3.01472,14.4853,1,12,1C9.51472,1,7.5,3.01472,7.5,5.5C7.5,7.98528,9.51472,10,12,10ZM13.7678,3.73223Q14.5,4.46447,14.5,5.5Q14.5,6.53553,13.7678,7.26777Q13.0355,8,12,8Q10.96447,8,10.23223,7.26777Q9.5,6.53553,9.5,5.5Q9.5,4.46447,10.23223,3.73223Q10.96447,3,12,3Q13.0355,3,13.7678,3.73223ZM1.5,19C1.5,21.2091,3.29086,23,5.5,23L18.5,23C20.7091,23,22.5,21.2091,22.5,19C22.5,14.5817,18.9183,11,14.5,11L9.5,11C5.08172,11,1.5,14.5817,1.5,19ZM3.5,19Q3.5,19.8284,4.085789999999999,20.4142Q4.67157,21,5.5,21L11.03466,21L11.03466,17.2902L10.08211,18.1273C9.90021,18.2959,9.66295,18.3908,9.41565,18.3942L9.40186,18.3943C9.12346,18.3943,8.85766,18.2783,8.668420000000001,18.0741C8.5003,17.8927,8.40536,17.6554,8.40195,17.4081L8.40186,17.3943C8.40186,17.1159,8.51791,16.850099999999998,8.722100000000001,16.660899999999998L11.35478,14.2667C11.5303,14.104,11.758,14.0097,11.997,14.0007C12.0095,14.0002,12.0221,14,12.0347,14C12.2952,14,12.5454,14.1017,12.7321,14.2833L15.2768,16.7447C15.4669,16.9297,15.5757,17.1826,15.5793,17.4478L15.5794,17.4614C15.5794,17.7219,15.4777,17.9721,15.296,18.1588C15.1111,18.3489,14.8582,18.4577,14.593,18.4613L14.5794,18.4614C14.3189,18.4614,14.0687,18.3598,13.882,18.1781L13.0347,17.3685L13.0347,21L18.5,21Q19.3284,21,19.9142,20.4142Q20.5,19.8284,20.5,19Q20.5,16.514699999999998,18.7426,14.7574Q16.985300000000002,13,14.5,13L9.5,13Q7.01472,13,5.25736,14.7574Q3.5,16.514699999999998,3.5,19Z" fill-rule="evenodd"></path></symbol>
</svg>