<svg xmlns="http://www.w3.org/2000/svg" xmlns:xlink="http://www.w3.org/1999/xlink" style="position: absolute; width: 0; height: 0" aria-hidden="true" id="__SVG_SPRITE_NODE__">
<symbol xmlns="http://www.w3.org/2000/svg" viewBox="0 0 24 24" id="assigned-to-me-list"><path d="M16.8214,5.019525321655274C16.8214,7.682325321655274,14.6628,9.840945321655273,12,9.840945321655273C9.33719,9.840945321655273,7.17856,7.682325321655274,7.17856,5.019525321655274C7.17856,2.3567253216552735,9.33719,0.19809532165527344,12,0.19809532165527344C14.6628,0.19809532165527344,16.8214,2.3567253216552735,16.8214,5.019525321655274ZM14.776,5.019525321655274Q14.776,3.8696753216552735,13.9629,3.0566153216552734Q13.1498,2.2435453216552736,12,2.2435453216552736Q10.8501,2.2435453216552736,10.03708,3.0566153216552734Q9.22402,3.8696753216552735,9.22402,5.019525321655274Q9.22402,6.169365321655273,10.03708,6.982435321655274Q10.8501,7.795495321655274,12,7.795495321655274Q13.1498,7.795495321655274,13.9629,6.982435321655274Q14.776,6.169365321655273,14.776,5.019525321655274ZM0.75,19.483795321655272C0.75,21.850695321655273,2.66878,23.769495321655274,5.03571,23.769495321655274L18.9643,23.769495321655274C21.3312,23.769495321655274,23.25,21.850695321655273,23.25,19.483795321655272C23.25,14.749895321655274,19.4124,10.912395321655273,14.6786,10.912395321655273L9.32143,10.912395321655273C4.58756,10.912395321655273,0.75,14.749895321655274,0.75,19.483795321655272ZM11.0127,21.631095321655273L5.03571,21.631095321655273Q4.14628,21.631095321655273,3.51735,21.00219532165527Q2.88843,20.373195321655274,2.88843,19.483795321655272Q2.88843,16.819195321655272,4.77261,14.934995321655274Q6.65679,13.050795321655274,9.32143,13.050795321655274L14.6786,13.050795321655274Q17.3432,13.050795321655274,19.2274,14.934995321655274Q21.1116,16.819195321655272,21.1116,19.483795321655272Q21.1116,20.373195321655274,20.4826,21.00219532165527Q19.8537,21.631095321655273,18.9643,21.631095321655273L13.0582,21.631095321655273L13.0582,17.961295321655275L13.9247,18.789295321655274C14.1157,18.975095321655274,14.3716,19.079095321655274,14.638,19.079095321655274L14.6519,19.078995321655274C14.9231,19.075295321655272,15.1818,18.963995321655272,15.3709,18.769595321655274C15.5568,18.578695321655275,15.6607,18.322795321655274,15.6607,18.056295321655274L15.6606,18.042395321655274C15.6569,17.771195321655274,15.5457,17.512595321655272,15.3513,17.323395321655273L12.7487,14.806095321655274C12.5578,14.620195321655274,12.3019,14.516295321655273,12.0354,14.516295321655273C12.0226,14.516295321655273,12.0097,14.516495321655274,11.9969,14.516995321655273C11.7525,14.526195321655273,11.5196,14.622695321655273,11.3401,14.788995321655273L8.6476,17.237595321655274C8.43877,17.431195321655274,8.32008,17.702995321655273,8.32008,17.987695321655274L8.32018,18.001795321655273C8.32366,18.254795321655273,8.42076,18.497395321655272,8.5927,18.682895321655273C8.78624,18.891795321655273,9.05808,19.010495321655274,9.34281,19.010495321655274L9.35691,19.010395321655274C9.60983,19.006895321655275,9.85248,18.909795321655274,10.03852,18.737395321655274L11.0127,17.881295321655273L11.0127,21.631095321655273Z" fill-rule="evenodd"></path></symbol>
</svg>