<svg xmlns="http://www.w3.org/2000/svg" xmlns:xlink="http://www.w3.org/1999/xlink" style="position: absolute; width: 0; height: 0" aria-hidden="true" id="__SVG_SPRITE_NODE__">
<symbol xmlns="http://www.w3.org/2000/svg" viewBox="0 0 24 24" id="attachment"><path d="M19.9152,11.6771L12.2116,19.3708C10.29814,21.2829,7.19705,21.2824,5.28426,19.3696C3.37146,17.4568,3.37093,14.3557,5.28306,12.4422L13.6743,4.05101C14.8071,2.9182300000000003,16.6436,2.9182300000000003,17.7764,4.05101C18.9092,5.18378,18.9092,7.02037,17.7764,8.15314L10.00106,15.9175C9.648859999999999,16.270200000000003,9.07732,16.2705,8.72484,15.918C8.37237,15.5655,8.372589999999999,14.994,8.72533,14.6418L15.0188,8.37771C15.4491,7.9494,15.4523,7.25386,15.0261,6.82154C14.5962,6.38561,13.8936,6.38314,13.4607,6.81603L7.17466,13.1021C5.95989,14.3169,5.95989,16.2864,7.17466,17.5012C8.38943,18.7159,10.35896,18.7159,11.57373,17.5012L19.3491,9.72581C21.3443,7.72751,21.3419,4.49009,19.3436,2.49484C17.3453,0.499576,14.1079,0.502038,12.1126,2.50033L3.73239,10.90256C1.05259,13.6871,1.094942,18.1045,3.82764,20.8372C6.56034,23.5699,10.97768,23.6122,13.7623,20.9324L21.4659,13.2288C21.8942,12.8005,21.8942,12.106,21.4659,11.6776C21.0377,11.2495,20.3436,11.2493,19.9152,11.6771"></path></symbol>
</svg>