<svg xmlns="http://www.w3.org/2000/svg" xmlns:xlink="http://www.w3.org/1999/xlink" style="position: absolute; width: 0; height: 0" aria-hidden="true" id="__SVG_SPRITE_NODE__">
<symbol xmlns="http://www.w3.org/2000/svg" viewBox="0 0 36 36" id="bold_close"><path d="M26.3101064,7.5717767 C26.4077375,7.47414562 26.5660287,7.47414562 26.6636598,7.5717767 L26.6636598,7.5717767 L28.4314267,9.33954365 C28.5290578,9.43717472 28.5290578,9.59546597 28.4314267,9.69309704 L28.4314267,9.69309704 L20.1223301,18.0013301 L28.4314267,26.3101064 C28.5290578,26.4077375 28.5290578,26.5660287 28.4314267,26.6636598 L26.6636598,28.4314267 C26.5660287,28.5290578 26.4077375,28.5290578 26.3101064,28.4314267 L18.0013301,20.1223301 L9.69309704,28.4314267 C9.61173781,28.512786 9.48825346,28.5263458 9.39285253,28.4721064 L9.33954365,28.4314267 L7.5717767,26.6636598 C7.47414562,26.5660287 7.47414562,26.4077375 7.5717767,26.3101064 L7.5717767,26.3101064 L15.8793301,18.0013301 L7.5717767,9.69309704 C7.47414562,9.59546597 7.47414562,9.43717472 7.5717767,9.33954365 L9.33954365,7.5717767 C9.43717472,7.47414562 9.59546597,7.47414562 9.69309704,7.5717767 L18.0013301,15.8793301 Z" fill-rule="evenodd"></path></symbol>
</svg>