<svg xmlns="http://www.w3.org/2000/svg" xmlns:xlink="http://www.w3.org/1999/xlink" style="position: absolute; width: 0; height: 0" aria-hidden="true" id="__SVG_SPRITE_NODE__">
<symbol xmlns="http://www.w3.org/2000/svg" viewBox="0 0 16 16" id="chevron-folder"><path opacity=".05" fill="none" d="M0 0H16V16H0z"></path><path d="M6,12.5c-0.1,0-0.3,0-0.4-0.1c-0.2-0.2-0.2-0.5,0-0.7L9.3,8L5.6,4.4c-0.2-0.2-0.2-0.5,0-0.7s0.5-0.2,0.7,0 L10.7,8l-4.4,4.4C6.3,12.5,6.1,12.5,6,12.5z"></path></symbol>
<symbol xmlns="http://www.w3.org/2000/svg" viewBox="0 0 12 12" id="chevron-bold-down"><g style="mix-blend-mode:passthrough"><path d="M25.614372296142577,10.207181930541992L26.321482296142577,10.914288930541993L22.675432296142578,14.560731930541992L26.321482296142577,18.207181930541992L25.614372296142577,18.914291930541992L21.260822296142578,14.560731930541992L25.614372296142577,10.207181930541992Z" transform="rotate(-90 11.054 19.468)"></path></g></symbol>
<symbol xmlns="http://www.w3.org/2000/svg" viewBox="0 0 12 12" id="chevron-dropdown-open"><path d="M6,7.3l-3-3L2.3,5l3.4,3.4c0.2,0.2,0.5,0.2,0.7,0L9.7,5L9,4.3L6,7.3z"></path></symbol>
<symbol xmlns="http://www.w3.org/2000/svg" viewBox="0 0 24 24" id="chevron-folder-close"><path d="M14.4,8.4c0.2-0.2,0.2-0.5,0-0.7c-0.2-0.2-0.5-0.2-0.7,0l-4,4c-0.2,0.2-0.2,0.5,0,0.7l4,4 c0.2,0.2,0.5,0.2,0.7,0c0.2-0.2,0.2-0.5,0-0.7L10.7,12L14.4,8.4z"></path></symbol>
<symbol xmlns="http://www.w3.org/2000/svg" viewBox="0 0 24 24" id="chevron-folder-open"><path d="M8.4,9.6c-0.2-0.2-0.5-0.2-0.7,0c-0.2,0.2-0.2,0.5,0,0.7l4,4c0.2,0.2,0.5,0.2,0.7,0l4-4c0.2-0.2,0.2-0.5,0-0.7 c-0.2-0.2-0.5-0.2-0.7,0L12,13.3L8.4,9.6z"></path></symbol>
<symbol xmlns="http://www.w3.org/2000/svg" viewBox="8 -8 24 24" id="chevron-left"><path fill="none" d="M8 -8H32V16H8z"></path><path d="M22 9.7L16.3 4 22 -1.7 22.7 -1 17.7 4 22.7 9z"></path></symbol>
<symbol xmlns="http://www.w3.org/2000/svg" viewBox="8 -8 24 24" id="chevron-right"><path fill="none" d="M8 -8H32V16H8z"></path><path d="M18 9.7L17.3 9 22.3 4 17.3 -1 18 -1.7 23.7 4z"></path></symbol>
</svg>