<svg xmlns="http://www.w3.org/2000/svg" xmlns:xlink="http://www.w3.org/1999/xlink" style="position: absolute; width: 0; height: 0" aria-hidden="true" id="__SVG_SPRITE_NODE__">
<symbol xmlns="http://www.w3.org/2000/svg" viewBox="0 0 24 24" id="custom-smart-list"><path d="M3.00001,4Q2.901522,4,2.804923,4.0192147Q2.708324,4.0384294,2.61733,4.0761205Q2.526336,4.113811,2.444443,4.16853Q2.36255,4.223249,2.292907,4.292893Q2.223263,4.362537,2.168544,4.44443Q2.113825,4.526322,2.0761338,4.617316Q2.0384428,4.708311,2.0192281,4.80491Q2.0000133514,4.901509,2.0000133514,5Q2.0000133514,5.09849,2.0192281,5.19509Q2.0384428,5.29169,2.0761338,5.38268Q2.113825,5.47368,2.168544,5.5555699999999995Q2.223263,5.63746,2.292907,5.70711Q2.36255,5.77675,2.444443,5.8314699999999995Q2.526336,5.88619,2.61733,5.9238800000000005Q2.708324,5.96157,2.804923,5.98079Q2.901522,6,3.00001,6L21,6Q21.0985,6,21.1951,5.98079Q21.2917,5.96157,21.3827,5.9238800000000005Q21.4737,5.88619,21.5556,5.8314699999999995Q21.6375,5.77675,21.7071,5.70711Q21.7768,5.63746,21.8315,5.5555699999999995Q21.8862,5.47368,21.9239,5.38268Q21.9616,5.29169,21.9808,5.19509Q22,5.09849,22,5Q22,4.901509,21.9808,4.80491Q21.9616,4.708311,21.9239,4.617316Q21.8862,4.526322,21.8315,4.44443Q21.7768,4.362537,21.7071,4.292893Q21.6375,4.223249,21.5556,4.16853Q21.4737,4.113811,21.3827,4.0761205Q21.2917,4.0384294,21.1951,4.0192147Q21.0985,4,21,4L3.00001,4ZM13.402,9.40503C12.4716,9.40503,12.0454,10.56436,12.7544,11.16697L15.6463,13.62508C15.6686,13.64408,15.6815,13.67194,15.6815,13.70127L15.6815,18.787C15.6815,19.1658,15.8955,19.512,16.234299999999998,19.6814L17.957900000000002,20.5432C18.2903,20.7095,18.6815,20.4677,18.6815,20.096L18.6815,13.70127C18.6815,13.67194,18.6944,13.64408,18.7167,13.62508L21.6086,11.16697C22.3176,10.56436,21.8914,9.40503,20.961,9.40503L13.402,9.40503ZM3,13C2.447719,13,2.0000038147,12.55228,2.0000038147,12C2.0000038147,11.44772,2.447719,11,3,11L10,11C10.55229,11,11,11.44772,11,12C11,12.55228,10.55229,13,10,13L3,13ZM3,20C2.447719,20,2.0000038147,19.552300000000002,2.0000038147,19C2.0000038147,18.447699999999998,2.447719,18,3,18L13,18C13.5523,18,14,18.447699999999998,14,19C14,19.552300000000002,13.5523,20,13,20L3,20Z" fill-rule="evenodd"></path></symbol>
</svg>