<svg xmlns="http://www.w3.org/2000/svg" xmlns:xlink="http://www.w3.org/1999/xlink" style="position: absolute; width: 0; height: 0" aria-hidden="true" id="__SVG_SPRITE_NODE__">
<symbol xmlns="http://www.w3.org/2000/svg" viewBox="0 0 24 24" id="detail-assignment-detail"><path d="M16.671399976158142,5.019771716623306Q16.671399976158142,3.084801716623306,15.303199976158142,1.7165717166233063Q13.934999976158142,0.34833934902330627,11.999999976158142,0.34833890202330625Q10.065019976158142,0.34833899142330627,8.696799976158143,1.7165717166233063Q7.328569976158142,3.084791716623306,7.328569976158142,5.019761716623306Q7.328569976158142,6.954741716623306,8.696799976158143,8.322961716623306Q10.065019976158142,9.691191716623306,11.999999976158142,9.691191716623306Q13.934999976158142,9.691191716623306,15.303199976158142,8.322961716623306Q16.671399976158142,6.954731716623306,16.671399976158142,5.019771716623306ZM14.832999976158142,5.019771716623306Q14.832999976158142,6.193231716623306,14.003199976158141,7.023001716623306Q13.173499976158142,7.852761716623307,11.999999976158142,7.852761716623307Q10.826529976158142,7.852761716623307,9.996759976158142,7.023001716623306Q9.166999976158142,6.193231716623306,9.166999976158142,5.019771716623306Q9.166999976158142,3.8463017166233064,9.996759976158142,3.016531716623306Q10.826529976158142,2.1867717166233063,11.999999976158142,2.1867717166233063Q13.173499976158142,2.1867717166233063,14.003199976158141,3.016531716623306Q14.832999976158142,3.8463017166233064,14.832999976158142,5.019771716623306ZM0.9000060856381421,19.484041716623306Q0.9000061750381421,21.197141716623307,2.1113299761581423,22.408441716623305Q3.322649976158142,23.619741716623306,5.035719976158142,23.619741716623306L18.96429997615814,23.619741716623306Q20.677399976158142,23.619741716623306,21.888699976158144,22.408441716623305Q23.09999997615814,21.197141716623307,23.09999997615814,19.484041716623306Q23.09999997615814,15.995741716623307,20.63339997615814,13.529241716623305Q18.166899976158142,11.062641716623306,14.678599976158143,11.062641716623306L9.321429976158143,11.062641716623306Q5.833169976158142,11.062641716623306,3.366579976158142,13.529241716623305Q0.9000076055481421,15.995841716623307,0.9000060856381421,19.484041716623306ZM18.96429997615814,21.781341716623306L5.035719976158142,21.781341716623306Q4.084149976158142,21.781341716623306,3.411289976158142,21.108441716623307Q2.738429976158142,20.435641716623305,2.7384399761581424,19.484041716623306Q2.7384399761581424,16.757341716623305,4.666549976158143,14.829141716623306Q6.594669976158142,12.901041716623306,9.321429976158143,12.901041716623306L14.678599976158143,12.901041716623306Q17.40529997615814,12.901041716623306,19.33349997615814,14.829141716623306Q21.26159997615814,16.757241716623305,21.26159997615814,19.484041716623306Q21.26159997615814,20.435641716623305,20.588699976158143,21.108441716623307Q19.91589997615814,21.781341716623306,18.96429997615814,21.781341716623306ZM13.061099976158141,18.504341716623305L12.233099976158142,19.370841716623307Q11.984899976158141,19.625941716623306,11.984899976158141,19.980541716623307L11.984999976158143,19.993141716623306Q11.989899976158142,20.353841716623307,12.248999976158142,20.605941716623306Q12.503099976158142,20.853241716623305,12.857599976158141,20.853241716623305L12.870599976158141,20.853141716623306Q13.230999976158142,20.848241716623306,13.483099976158142,20.589141716623306L16.00009997615814,17.986941716623306Q16.24769997615814,17.732541716623306,16.24769997615814,17.377941716623305Q16.24769997615814,17.362141716623306,16.24709997615814,17.345041716623307Q16.23489997615814,17.021841716623307,16.014999976158144,16.784641716623305L13.565399976158142,14.091041716623307Q13.307299976158141,13.812641716623306,12.926299976158143,13.812641716623306L12.913199976158142,13.812741716623306Q12.578899976158143,13.817341716623305,12.332999976158142,14.045241716623305Q12.053599976158143,14.304241716623306,12.053599976158143,14.685341716623306L12.053599976158143,14.698741716623307Q12.058199976158143,15.032641716623306,12.286599976158142,15.279041716623306L12.287999976158142,15.280541716623306L13.364199976158142,16.505241716623306L8.890239976158142,16.505241716623306Q8.528749976158142,16.505241716623306,8.273129976158142,16.760841716623307Q8.017519976158141,17.016441716623305,8.017519976158141,17.377941716623305Q8.017509976158141,17.739441716623308,8.273129976158142,17.995041716623305Q8.528749976158142,18.250741716623306,8.890239976158142,18.250741716623306L13.303499976158141,18.250741716623306L13.061099976158141,18.504341716623305Z" fill-rule="evenodd"></path></symbol>
<symbol xmlns="http://www.w3.org/2000/svg" viewBox="0 0 24 24" id="detail-date-unselected"><path d="M1.29999015709875,17.9924L1.29998779296875,6.00756C1.29998779296875,3.79842,3.09815779296875,2,5.30728779296875,2L18.65288779296875,2C20.86208779296875,2,22.69998779296875,3.79842,22.69998779296875,6.00755L22.69998779296875,7.54449C22.69998779296875,10.98037,22.69998779296875,14.6338,22.69998779296875,17.9924C22.69998779296875,20.2016,20.89658779296875,22,18.68748779296875,22C14.22918779296875,22,9.77081779296875,22,5.31248779296875,22C3.10335779296875,22,1.29999015488875,20.2016,1.29999015709875,17.9924ZM2.99998779296875,17.9924Q2.99998779296875,18.9438,3.67887779296875,19.6215Q4.35848779296875,20.3,5.31248779296875,20.3L18.68748779296875,20.3Q19.64148779296875,20.3,20.32108779296875,19.6216Q20.99998779296875,18.9438,20.99998779296875,17.9924L20.99998779296875,12L20.99998779296875,7.9002L2.99998779296875,7.9002L2.99998779296875,11.99999L2.99998779296875,17.9924ZM2.99998779296875,6.2002L20.99998779296875,6.2002L20.99998779296875,6.00755Q20.99998779296875,5.065300000000001,20.31098779296875,4.38552Q19.61608779296875,3.7,18.65288779296875,3.7L5.30728779296875,3.7Q4.354667792968749,3.7,3.67734779296875,4.3773800000000005Q2.99998779296875,5.0548,2.99998779296875,6.00756L2.99998779296875,6.2002ZM5.84999779296875,10Q5.76627779296875,10,5.68417779296875,10.01633Q5.60206779296875,10.03266,5.52471779296875,10.0647Q5.44737779296875,10.09674,5.37776779296875,10.14325Q5.30815779296875,10.18976,5.24895779296875,10.24896Q5.18975779296875,10.30816,5.14324779296875,10.37777Q5.096737792968749,10.44737,5.06469779296875,10.52472Q5.03266779296875,10.60206,5.016327792968751,10.68417Q4.99999779296875,10.76628,4.99999779296875,10.85Q4.99999779296875,10.93372,5.016327792968751,11.01583Q5.03266779296875,11.09794,5.06469779296875,11.17528Q5.096737792968749,11.25263,5.14324779296875,11.32223Q5.18975779296875,11.39184,5.24895779296875,11.45104Q5.30815779296875,11.51024,5.37776779296875,11.55675Q5.44737779296875,11.60326,5.52471779296875,11.6353Q5.60206779296875,11.66733,5.68416779296875,11.68367Q5.76627779296875,11.7,5.84999779296875,11.7L7.14999779296875,11.7Q7.23371779296875,11.7,7.31582779296875,11.68367Q7.39793779296875,11.66733,7.47527779296875,11.6353Q7.55262779296875,11.60326,7.62223779296875,11.55675Q7.69183779296875,11.51024,7.75103779296875,11.45104Q7.81023779296875,11.39184,7.85674779296875,11.32223Q7.90325779296875,11.25262,7.93529779296875,11.17528Q7.96733779296875,11.09794,7.98366779296875,11.01583Q7.99999779296875,10.93372,7.99999779296875,10.85Q7.99999779296875,10.76628,7.98366779296875,10.68417Q7.96733779296875,10.60206,7.93529779296875,10.52472Q7.90325779296875,10.44737,7.85674779296875,10.37776Q7.81023779296875,10.30816,7.75103779296875,10.24896Q7.69183779296875,10.18976,7.62223779296875,10.14325Q7.55262779296875,10.09674,7.47527779296875,10.0647Q7.39793779296875,10.03266,7.31582779296875,10.01633Q7.23371779296875,10,7.14999779296875,10L5.84999779296875,10ZM10.84999779296875,10Q10.76627779296875,10,10.68416779296875,10.01633Q10.60206779296875,10.03266,10.52471779296875,10.0647Q10.44737779296875,10.09674,10.37776779296875,10.14325Q10.30815779296875,10.18976,10.24895779296875,10.24896Q10.18975779296875,10.30816,10.14324779296875,10.37777Q10.09673779296875,10.44737,10.06469779296875,10.52472Q10.03266779296875,10.60206,10.01632779296875,10.68417Q9.99999779296875,10.76628,9.99999779296875,10.85Q9.99999779296875,10.93372,10.01632779296875,11.01583Q10.03266779296875,11.09794,10.06469779296875,11.17528Q10.09673779296875,11.25263,10.14324779296875,11.32223Q10.18975779296875,11.39184,10.24895779296875,11.45104Q10.30815779296875,11.51024,10.37776779296875,11.55675Q10.44737779296875,11.60326,10.52471779296875,11.6353Q10.60206779296875,11.66733,10.68416779296875,11.68367Q10.76627779296875,11.7,10.84999779296875,11.7L12.14998779296875,11.7Q12.23368779296875,11.7,12.31578779296875,11.68367Q12.39788779296875,11.66733,12.47528779296875,11.6353Q12.55258779296875,11.60326,12.62218779296875,11.55675Q12.69188779296875,11.51024,12.75108779296875,11.45104Q12.81028779296875,11.39184,12.85678779296875,11.32223Q12.90328779296875,11.25262,12.93528779296875,11.17528Q12.96728779296875,11.09794,12.98368779296875,11.01583Q12.99998779296875,10.93372,12.99998779296875,10.85Q12.99998779296875,10.76628,12.98368779296875,10.68417Q12.96728779296875,10.60206,12.93528779296875,10.52472Q12.90328779296875,10.44737,12.85678779296875,10.37776Q12.81028779296875,10.30816,12.75108779296875,10.24896Q12.69188779296875,10.18976,12.62218779296875,10.14325Q12.55258779296875,10.09674,12.47528779296875,10.0647Q12.39788779296875,10.03266,12.31578779296875,10.01633Q12.23368779296875,10,12.14998779296875,10L10.84999779296875,10ZM14.99998779296875,10.85Q14.99998779296875,10.76628,15.01628779296875,10.68417Q15.03268779296875,10.60206,15.06468779296875,10.52472Q15.09678779296875,10.44737,15.14328779296875,10.37776Q15.18978779296875,10.30816,15.24898779296875,10.24896Q15.30818779296875,10.18976,15.37778779296875,10.14325Q15.44738779296875,10.09674,15.52468779296875,10.0647Q15.60208779296875,10.03266,15.68418779296875,10.01633Q15.76628779296875,10,15.84998779296875,10L17.14998779296875,10Q17.23368779296875,10,17.31578779296875,10.01633Q17.39788779296875,10.03266,17.47528779296875,10.0647Q17.55258779296875,10.09674,17.62218779296875,10.14325Q17.69188779296875,10.18976,17.75108779296875,10.24896Q17.81018779296875,10.30816,17.85678779296875,10.37777Q17.90328779296875,10.44737,17.93528779296875,10.52472Q17.96728779296875,10.60206,17.98368779296875,10.68417Q17.99998779296875,10.76628,17.99998779296875,10.85Q17.99998779296875,10.93372,17.98368779296875,11.01583Q17.96728779296875,11.09794,17.93528779296875,11.17528Q17.90328779296875,11.25263,17.85678779296875,11.32223Q17.81028779296875,11.39184,17.75108779296875,11.45104Q17.69188779296875,11.51024,17.62218779296875,11.55675Q17.55258779296875,11.60326,17.47528779296875,11.6353Q17.39788779296875,11.66733,17.31578779296875,11.68367Q17.23368779296875,11.7,17.14998779296875,11.7L15.84998779296875,11.7Q15.76628779296875,11.7,15.68418779296875,11.68367Q15.60208779296875,11.66733,15.52468779296875,11.6353Q15.44738779296875,11.60326,15.37778779296875,11.55675Q15.30818779296875,11.51024,15.24898779296875,11.45104Q15.18978779296875,11.39184,15.14328779296875,11.32223Q15.09678779296875,11.25262,15.06468779296875,11.17528Q15.03268779296875,11.09794,15.01628779296875,11.01583Q14.99998779296875,10.93372,14.99998779296875,10.85ZM5.84999779296875,14Q5.76627779296875,14,5.68417779296875,14.0163Q5.60206779296875,14.0327,5.52471779296875,14.0647Q5.44737779296875,14.0967,5.37776779296875,14.1432Q5.30815779296875,14.1898,5.24895779296875,14.249Q5.18975779296875,14.3082,5.14324779296875,14.3778Q5.096737792968749,14.4474,5.06469779296875,14.5247Q5.03266779296875,14.6021,5.016327792968751,14.6842Q4.99999779296875,14.7663,4.99999779296875,14.85Q4.99999779296875,14.9337,5.016327792968751,15.0158Q5.03266779296875,15.0979,5.06469779296875,15.1753Q5.096737792968749,15.2526,5.14324779296875,15.3222Q5.18975779296875,15.3918,5.24895779296875,15.451Q5.30815779296875,15.5102,5.37776779296875,15.5567Q5.44737779296875,15.6033,5.52471779296875,15.6353Q5.60206779296875,15.6673,5.68416779296875,15.6837Q5.76627779296875,15.7,5.84999779296875,15.7L7.14999779296875,15.7Q7.23371779296875,15.7,7.31582779296875,15.6837Q7.39793779296875,15.6673,7.47527779296875,15.6353Q7.55262779296875,15.6033,7.62223779296875,15.5567Q7.69183779296875,15.5102,7.75103779296875,15.451Q7.81023779296875,15.3918,7.85674779296875,15.3222Q7.90325779296875,15.2526,7.93529779296875,15.1753Q7.96733779296875,15.0979,7.98366779296875,15.0158Q7.99999779296875,14.9337,7.99999779296875,14.85Q7.99999779296875,14.7663,7.98366779296875,14.6842Q7.96733779296875,14.6021,7.93529779296875,14.5247Q7.90325779296875,14.4474,7.85674779296875,14.3778Q7.81023779296875,14.3082,7.75103779296875,14.249Q7.69183779296875,14.1898,7.62223779296875,14.1432Q7.55262779296875,14.0967,7.47527779296875,14.0647Q7.39793779296875,14.0327,7.31582779296875,14.0163Q7.23371779296875,14,7.14999779296875,14L5.84999779296875,14ZM9.99999779296875,14.85Q9.99999779296875,14.7663,10.01632779296875,14.6842Q10.03266779296875,14.6021,10.06469779296875,14.5247Q10.09673779296875,14.4474,10.14324779296875,14.3778Q10.18975779296875,14.3082,10.24895779296875,14.249Q10.30815779296875,14.1898,10.37776779296875,14.1432Q10.44737779296875,14.0967,10.52471779296875,14.0647Q10.60206779296875,14.0327,10.68416779296875,14.0163Q10.76627779296875,14,10.84999779296875,14L12.14998779296875,14Q12.23368779296875,14,12.31578779296875,14.0163Q12.39788779296875,14.0327,12.47528779296875,14.0647Q12.55258779296875,14.0967,12.62218779296875,14.1432Q12.69188779296875,14.1898,12.75108779296875,14.249Q12.81028779296875,14.3082,12.85678779296875,14.3778Q12.90328779296875,14.4474,12.93528779296875,14.5247Q12.96728779296875,14.6021,12.98368779296875,14.6842Q12.99998779296875,14.7663,12.99998779296875,14.85Q12.99998779296875,14.9337,12.98368779296875,15.0158Q12.96728779296875,15.0979,12.93528779296875,15.1753Q12.90328779296875,15.2526,12.85678779296875,15.3222Q12.81028779296875,15.3918,12.75108779296875,15.451Q12.69188779296875,15.5102,12.62218779296875,15.5567Q12.55258779296875,15.6033,12.47528779296875,15.6353Q12.39788779296875,15.6673,12.31578779296875,15.6837Q12.23368779296875,15.7,12.14998779296875,15.7L10.84999779296875,15.7Q10.76627779296875,15.7,10.68416779296875,15.6837Q10.60206779296875,15.6673,10.52471779296875,15.6353Q10.44737779296875,15.6033,10.37776779296875,15.5567Q10.30815779296875,15.5102,10.24895779296875,15.451Q10.18975779296875,15.3918,10.14324779296875,15.3222Q10.09673779296875,15.2526,10.06469779296875,15.1753Q10.03266779296875,15.0979,10.01632779296875,15.0158Q9.99999779296875,14.9337,9.99999779296875,14.85Z" fill-rule="evenodd"></path></symbol>
<symbol xmlns="http://www.w3.org/2000/svg" viewBox="0 0 24 24" id="detail-priority-0"><path d="M4.100019155273437,14.3L19.41610915527344,14.3L17.052709155273437,10.07377Q16.45230915527344,9.00001,17.052709155273437,7.92625L19.416009155273436,3.7L4.100019155273437,3.7L4.100019155273437,14.3ZM2.4000213145734377,1.85L2.4000213145734377,2L2.4000198381734377,14.3L2.4000213145734377,16L2.4000213145734377,22.15C2.4000213145734377,22.6194,2.7805791552734376,23,3.2500211552734375,23C3.7194591552734373,23,4.100019155273437,22.6194,4.100019155273437,22.15L4.100019155273437,16L4.4000091552734375,16L5.8000191552734375,16Q12.824409155273438,16,20.589409155273437,16C21.371709155273436,16,21.87210915527344,15.1421,21.46210915527344,14.4758L18.53650915527344,9.24404C18.451709155273438,9.09239,18.451709155273438,8.9076,18.53650915527344,8.75596L21.46210915527344,3.52411C21.87210915527344,2.85784,21.392809155273437,2,20.610409155273437,2L4.100019155273437,2L4.100019155273437,1.85C4.100019155273437,1.380558,3.7194591552734373,1,3.2500211552734375,1C2.7805791552734376,1,2.4000213145734377,1.380558,2.4000213145734377,1.85Z" fill-rule="evenodd"></path></symbol>
<symbol xmlns="http://www.w3.org/2000/svg" fill="none" viewBox="0 0 24 24" id="detail-priority"><path d="M2.400033712339551,1.85C2.400033712339551,1.380558,2.780591553039551,1,3.2500335530395508,1C3.7194715530395506,1,4.100031553039551,1.380558,4.100031553039551,1.85L4.100031553039551,2L20.61042155303955,2C21.39282155303955,2,21.872121553039552,2.85784,21.46212155303955,3.52411L18.536521553039552,8.75596C18.45172155303955,8.9076,18.45172155303955,9.09239,18.536521553039552,9.24404L21.46212155303955,14.4758C21.872121553039552,15.1421,21.37172155303955,16,20.58942155303955,16Q12.00002155303955,16,4.400021553039551,16L4.100031553039551,16L4.100031553039551,22.15C4.100031553039551,22.6194,3.7194715530395506,23,3.2500335530395508,23C2.780591553039551,23,2.400033712339551,22.6194,2.400033712339551,22.15L2.400033712339551,16L2.400021553039551,2L2.400033712339551,2L2.400033712339551,1.85Z" fill-rule="evenodd" fill="#4772FA"></path></symbol>
</svg>