<svg xmlns="http://www.w3.org/2000/svg" xmlns:xlink="http://www.w3.org/1999/xlink" style="position: absolute; width: 0; height: 0" aria-hidden="true" id="__SVG_SPRITE_NODE__">
<symbol xmlns="http://www.w3.org/2000/svg" viewBox="0 0 32 32" id="device_windows"><g fill-rule="nonzero"><path d="M23.0312889,2.46594118 L3.6375111,2.46594118 C3.30275555,2.46594118 3.01795555,2.58619118 2.77973334,2.82814215 C2.54417779,3.06864216 2.42453334,3.35956371 2.42453334,3.69981862 L2.42453334,16.0322451 C2.42453334,16.3728627 2.54417779,16.6626961 2.77973334,16.9046471 C3.01795557,17.1449657 3.30275557,17.2659412 3.6375111,17.2659412 L23.0312889,17.2659412 C23.3665778,17.2659412 23.6520889,17.1449657 23.8881778,16.9046471 C24.1262222,16.6626961 24.2442667,16.3728627 24.2442667,16.0322451 L24.2442667,3.69981862 C24.2442667,3.35956371 24.1262222,3.06864216 23.888,2.82814215 C23.6520889,2.58619118 23.3665778,2.46594118 23.0312889,2.46594118 M3.6368,0 L23.0305778,0 C24.0339556,0 24.8913778,0.361475483 25.6017778,1.08424511 C26.3121778,1.80737746 26.6666667,2.67814707 26.6666667,3.69963726 L26.6666667,16.0322451 C26.6666667,17.0530098 26.3121778,17.9254118 25.6017778,18.6478186 C24.8913778,19.3705882 24.0339556,19.7320637 23.0305778,19.7320637 L14.5457778,19.7320637 L14.5457778,22.1987304 L18.1825778,22.1987304 C18.5171556,22.1987304 18.8030222,22.3189804 19.0394667,22.5609314 C19.2771556,22.80125 19.3952,23.0923529 19.3952,23.4326078 C19.3952,23.7732255 19.2771556,24.0641471 19.0392889,24.3041029 C18.8028444,24.5464166 18.5171555,24.6666667 18.1825778,24.6666667 L8.48533333,24.6666667 C8.15022222,24.6666667 7.86524445,24.5464167 7.62755555,24.3041029 C7.3911111,24.064147 7.27235555,23.7732255 7.27235555,23.4326078 C7.27235555,23.0921716 7.39128887,22.8014314 7.62755555,22.5609314 C7.86524445,22.3189804 8.15022222,22.1987304 8.48533333,22.1987304 L12.1217778,22.1987304 L12.1217778,19.7320637 L3.6368,19.7320637 C2.63271111,19.7320637 1.77546666,19.3705882 1.06559999,18.6478186 C0.355199998,17.9254118 0,17.0530098 0,16.0322451 L0,3.69981862 C0,2.67814707 0.355199998,1.80737746 1.06559999,1.08424511 C1.77564445,0.361475483 2.63271111,0 3.6368,0" transform="translate(2.667 4)"></path><path d="M2.53333333,0.778850573 L0.0888888867,1.15816092 C0.0444444401,1.15816092 0,1.23402299 0,1.2845977 L0,3.56045977 C0,3.63632184 0.0444444466,3.68689655 0.111111113,3.68689655 L2.55555555,3.68689655 C2.62222222,3.68689655 2.66666667,3.63632183 2.66666667,3.56045977 L2.66666667,0.905287357 C2.66666667,0.880000003 2.64444445,0.829425288 2.62222222,0.804137927 C2.6,0.778850573 2.57777777,0.778850573 2.53333333,0.778850573 Z M6.62222222,0.171954021 C6.6,0.146666667 6.55555555,0.146666667 6.53333333,0.146666667 L3.2,0.652413789 C3.15555555,0.652413789 3.11111111,0.702988504 3.11111111,0.778850573 L3.11111111,3.56045977 C3.11111111,3.63632184 3.15555556,3.68689655 3.22222222,3.68689655 L6.55555555,3.68689655 C6.62222222,3.68689655 6.66666667,3.63632183 6.66666667,3.56045977 L6.66666667,0.273103443 C6.66666667,0.24781609 6.64444445,0.197241374 6.62222222,0.171954021 Z M2.55555555,3.93977012 L0.111111113,3.93977012 C0.0444444466,3.93977012 0,3.99034483 0,4.06620689 L0,6.34206896 C0,6.41793103 0.0444444466,6.46850575 0.0888888867,6.46850575 L2.53333333,6.84781609 L2.55555555,6.84781609 C2.57777777,6.84781609 2.6,6.84781609 2.62222222,6.82252874 C2.64444444,6.79724139 2.66666667,6.77195402 2.66666667,6.72137931 L2.66666667,4.06620689 C2.66666667,3.99034483 2.62222222,3.93977012 2.55555555,3.93977012 Z M6.55555555,3.93977012 L3.22222222,3.93977012 C3.15555555,3.93977012 3.11111111,3.99034483 3.11111111,4.06620689 L3.11111111,6.84781609 C3.11111111,6.92367816 3.15555556,6.97425288 3.2,6.97425288 L6.53333333,7.48 L6.55555555,7.48 C6.57777777,7.48 6.6,7.48 6.62222222,7.45471265 C6.64444444,7.42942529 6.66666667,7.40413793 6.66666667,7.35356322 L6.66666667,4.06620689 C6.66666667,3.99034483 6.62222222,3.93977012 6.55555555,3.93977012 Z" transform="translate(12.667 10.52)"></path></g></symbol>
</svg>