<svg xmlns="http://www.w3.org/2000/svg" xmlns:xlink="http://www.w3.org/1999/xlink" style="position: absolute; width: 0; height: 0" aria-hidden="true" id="__SVG_SPRITE_NODE__">
<symbol xmlns="http://www.w3.org/2000/svg" viewBox="0 0 32 32" id="device_unknown"><g fill-rule="nonzero"><path d="M19.9360354,0 L2.0220331,0 C1.07932022,0 0.312380952,0.770615853 0.312380952,1.71784795 L0.312380952,22.2821521 C0.312380952,23.2293841 1.07932022,24 2.0220331,24 L19.9360621,24 C20.878775,24 21.6457143,23.2293841 21.6457143,22.2821521 L21.6457143,1.71784795 C21.6457143,0.770615853 20.8787483,0 19.9360354,0 Z M2.31238095,21 L2.31238095,3.00206764 C2.31250025,2.44982947 2.7601428,2.00213352 3.31238095,2.00194835 L18.6457143,2.00011929 C19.197999,1.99993413 19.6457677,2.44759597 19.6458336,2.99988071 C19.6458336,2.99992048 19.6458336,2.99996024 19.6457143,3 L19.6457143,21 C19.6457143,21.5522847 19.197999,22 18.6457143,22 L3.31238095,22 C2.7600962,22 2.31238095,21.5522847 2.31238095,21 Z" transform="translate(5.021 4.667)"></path><path d="M17.0813333,19.0666667 L17.0813333,18.8613333 C17.0813333,18.5093333 17.1546667,18.2013333 17.3013333,17.908 C17.4333333,17.644 17.624,17.3946667 17.888,17.1746667 C18.592,16.5586667 19.0173333,16.1626667 19.1493333,16.016 C19.5013333,15.5466667 19.692,14.9453333 19.692,14.212 C19.692,13.3173333 19.3986667,12.6133333 18.812,12.1 C18.2253333,11.572 17.448,11.3226667 16.4946667,11.3226667 C15.4093333,11.3226667 14.5586667,11.6306667 13.928,12.2466667 C13.2826667,12.8626667 12.9746667,13.7133333 12.9746667,14.7986667 L14.6466667,14.7986667 C14.6466667,14.1826667 14.764,13.6986667 15.0133333,13.3613333 C15.292,12.9506667 15.7466667,12.76 16.392,12.76 C16.8906667,12.76 17.2866667,12.892 17.5653333,13.1706667 C17.8293333,13.4493333 17.976,13.8306667 17.976,14.3146667 C17.976,14.6813333 17.844,15.0333333 17.58,15.356 L17.404,15.5613333 C16.4506667,16.412 15.8786667,17.028 15.688,17.424 C15.4826667,17.82 15.3946667,18.304 15.3946667,18.8613333 L15.3946667,19.0666667 L17.0813333,19.0666667 Z M16.2306667,22 C16.5533333,22 16.8173333,21.8973333 17.0373333,21.692 C17.2573333,21.4866667 17.3746667,21.208 17.3746667,20.8853333 C17.3746667,20.5626667 17.2573333,20.2986667 17.052,20.0933333 C16.832,19.888 16.5533333,19.7853333 16.2306667,19.7853333 C15.908,19.7853333 15.644,19.888 15.424,20.0933333 C15.204,20.2986667 15.1013333,20.5626667 15.1013333,20.8853333 C15.1013333,21.208 15.204,21.472 15.424,21.6773333 C15.644,21.8826667 15.908,22 16.2306667,22 Z"></path></g></symbol>
</svg>