<svg xmlns="http://www.w3.org/2000/svg" xmlns:xlink="http://www.w3.org/1999/xlink" style="position: absolute; width: 0; height: 0" aria-hidden="true" id="__SVG_SPRITE_NODE__">
<symbol xmlns="http://www.w3.org/2000/svg" viewBox="0 0 16 16" id="disabled-connect"><path d="M22.16532,20.673807175292968L22.490009999999998,20.99961717529297L23.42312,20.06328717529297L23.09843,19.73747717529297L22.54625,19.18333717529297Q22.43031,19.06697717529297,22.43031,18.902437175292967Q22.430320000000002,18.73788717529297,22.54627,18.621547175292967L26.2479,14.90719717529297Q26.3639,14.790847175292969,26.5278,14.790847175292969Q26.6918,14.790847175292969,26.8078,14.90719717529297L30.5093,18.621457175292967Q30.6253,18.737807175292968,30.6253,18.90235717529297Q30.6253,19.066907175292968,30.5093,19.18325717529297L26.8076,22.897707175292968Q26.6917,23.01406717529297,26.5277,23.01406717529297Q26.3637,23.01406717529297,26.247799999999998,22.897707175292968L25.4287,22.07579717529297L24.49559,23.01213717529297L25.31467,23.83406717529297Q25.81713,24.33826717529297,26.5277,24.33826717529297Q27.238300000000002,24.33826717529297,27.7408,23.83406717529297L31.4424,20.119597175292967Q31.9449,19.61539717529297,31.9449,18.902347175292967Q31.9449,18.189307175292967,31.4424,17.68510717529297L27.7409,13.970850175292968Q27.2384,13.466667175292969,26.5278,13.466667175292969Q25.817259999999997,13.466667175292969,25.314799999999998,13.970849175292969L21.61317,17.68519717529297Q21.11071,18.189377175292968,21.1107,18.90239717529297Q21.110680000000002,19.615427175292968,21.6131,20.11962717529297L22.16532,20.673807175292968ZM25.77955,17.131127175292967L25.45487,16.80531717529297L24.52176,17.741647175292968L24.84644,18.06745717529297L25.39862,18.62159717529297Q25.51457,18.73795717529297,25.51456,18.902497175292968Q25.51456,19.067037175292967,25.398609999999998,19.183387175292967L21.69697,22.897737175292967Q21.58102,23.01408717529297,21.41705,23.01408717529297Q21.25307,23.01408717529297,21.13712,22.897737175292967L17.43557,19.183477175292968Q17.31962,19.067127175292967,17.31962,18.90257717529297Q17.31962,18.73802717529297,17.43557,18.62167717529297L21.13723,14.907217175292969Q21.25318,14.790867175292968,21.41716,14.790867175292968Q21.58114,14.790867175292968,21.69709,14.907217175292969L22.24918,15.461217175292969L22.51617,15.72913717529297L23.44928,14.792797175292968L23.182290000000002,14.52487717529297L22.630200000000002,13.970885175292969Q22.12774,13.46668856459297,21.41716,13.46668832779297Q20.70657,13.466688169892969,20.20411,13.97088417529297L16.502459,17.68533717529297Q15.99999622454,18.18953717529297,16,18.902587175292968Q16.00000377546,19.615627175292968,16.502472,20.11982717529297L20.20402,23.83406717529297Q20.70647,24.33826717529297,21.41705,24.33826717529297Q22.12762,24.33826717529297,22.63007,23.83406717529297L26.331699999999998,20.11973717529297Q26.8342,19.61555717529297,26.8342,18.90253717529297Q26.8342,18.189507175292967,26.3318,17.68530717529297L25.77955,17.131127175292967Z" fill-rule="evenodd" transform="rotate(-180 16 13.467)"></path></symbol>
</svg>