<svg xmlns="http://www.w3.org/2000/svg" xmlns:xlink="http://www.w3.org/1999/xlink" style="position: absolute; width: 0; height: 0" aria-hidden="true" id="__SVG_SPRITE_NODE__">
<symbol xmlns="http://www.w3.org/2000/svg" viewBox="0 0 24 24" id="edit_share_project"><path d="M20.8,16.6c-0.2-1.5-3.1-2.2-4-2.8c-0.1-0.1-0.2-0.3-0.2-0.4c0-0.4,0.1-0.5,0.1-0.5s1.6-1,1.5-3.4 c-0.1-1-0.7-2.9-2.7-2.9h-0.2c-0.5,0-0.8,0.1-1.1,0.2c0.5,1.4,1,4.1-1.2,5.8c-0.8,1.3,2.1,2,1.6,1.8c2.6,1.2,3.4,2,3.5,3 c0.2,0.7,0.2,1.3,0.2,1.3s2-0.3,2.5-0.7C20.9,17.4,21,17,20.8,16.6L20.8,16.6z"></path><path d="M11.6,13.9c-0.1-0.1-0.2-0.4-0.2-0.5c0-0.4,0.1-0.6,0.1-0.6s1.8-1.1,1.8-4.3c-0.1-1.3-0.8-3.7-3.3-3.7H10 c-2.5,0-3.2,2.3-3.3,3.7c0,3.1,1.8,4.3,1.8,4.3s0.2,0.3,0.2,0.8c0,0.1-0.1,0.3-0.3,0.4c-1,0.8-4.7,1.7-5,3.5c-0.2,0.8-1.3,2,2.4,2.5 c1,0.1,2.4,0.2,4.2,0.2c8.5,0,6.8-1.7,6.5-2.7C16.4,15.6,12.6,14.7,11.6,13.9L11.6,13.9z"></path></symbol>
</svg>