<svg xmlns="http://www.w3.org/2000/svg" xmlns:xlink="http://www.w3.org/1999/xlink" style="position: absolute; width: 0; height: 0" aria-hidden="true" id="__SVG_SPRITE_NODE__">
<symbol xmlns="http://www.w3.org/2000/svg" viewBox="0 0 24 24" id="filter-close"><path d="M17.888864062499998,4.22021484375Q19.1545640625,4.22021484375,20.0494640625,5.11515284375Q20.9443640625,6.01010484375,20.9445640625,7.2757848437499995L20.9445640625,16.72021484375Q20.9445640625,17.98581484375,20.0494640625,18.880814843750002Q19.1544640625,19.77581484375,17.888864062499998,19.77581484375L6.1113240625,19.77581484375Q4.8456740625000005,19.77581484375,3.9507920625,18.880814843750002Q3.0558400415,17.985914843750002,3.0556640625,16.72021484375L3.0556640625,7.2757848437499995Q3.0556640625,6.01013484375,3.9506260625,5.11515284375Q4.8455740625,4.22020149235,6.1112140625,4.22021484375L17.888864062499998,4.22021484375ZM15.1112640625,5.77577484375L6.1111940625,5.77577484375Q5.4899040625,5.77576484375,5.0505840625000005,6.21508484375Q4.6112240625,6.65445484375,4.6112240625,7.2757848437499995L4.6112240625,16.72021484375Q4.6112240625,17.341514843749998,5.0506140625,17.78091484375Q5.4899340625,18.22021484375,6.1113240625,18.22021484375L15.1112640625,18.22021484375L15.1112640625,5.77577484375ZM16.6667640625,18.22021484375L17.888864062499998,18.22021484375Q18.5101640625,18.22021484375,18.949564062500002,17.78091484375Q19.3889640625,17.341514843749998,19.3889640625,16.72021484375L19.3889640625,7.2757848437499995Q19.3889640625,6.65442484375,18.949564062500002,6.21512484375Q18.5102640625,5.7757848437499995,17.888864062499998,5.77577484375L16.6667640625,5.77577484375L16.6667640625,18.22021484375ZM6.4053940625,11.436214843750001L8.5945240625,9.247084843749999C8.898264062500001,8.943344843750001,9.3907240625,8.943344843750001,9.6944740625,9.247084843749999C9.9982140625,9.55082484375,9.9982140625,10.043294843750001,9.6944740625,10.34703484375L8.828254062500001,11.213244843750001L12.4443940625,11.213244843750001C12.8739440625,11.213244843750001,13.2221640625,11.561464843749999,13.2221640625,11.99102484375C13.2221640625,12.42057484375,12.8739440625,12.76879484375,12.4443940625,12.76879484375L8.816424062500001,12.76879484375L9.6943740625,13.64675484375C9.998114062500001,13.95049484375,9.998114062500001,14.44291484375,9.6943740625,14.74671484375C9.5485140625,14.89251484375,9.350674062500001,14.97451484375,9.1444040625,14.97451484375C8.9381240625,14.97451484375,8.740284062499999,14.89251484375,8.5944240625,14.74671484375L6.3975440625,12.54981484375C6.3975440625,12.54981484375,6.3946340625,12.54692484375,6.3946340625,12.54692484375C6.3823140625,12.53460484375,6.3704140625,12.52187484375,6.3589540625000005,12.50875484375C6.3589540625000005,12.50875484375,6.3441440625,12.49129484375,6.3441440625,12.49129484375C6.0895040625,12.18211484375,6.1113140625,11.730094843749999,6.3945440625,11.44686484375C6.3945440625,11.44686484375,6.4053940625,11.436214843750001,6.4053940625,11.436214843750001Z" fill-rule="evenodd"></path></symbol>
<symbol xmlns="http://www.w3.org/2000/svg" viewBox="0 0 24 24" id="filter-open"><path d="M17.888864062499998,4.22021484375Q19.1545640625,4.22021484375,20.0494640625,5.11515284375Q20.9443640625,6.01010484375,20.9445640625,7.2757848437499995L20.9445640625,16.72021484375Q20.9445640625,17.98581484375,20.0494640625,18.880814843750002Q19.1544640625,19.77581484375,17.888864062499998,19.77581484375L6.1113240625,19.77581484375Q4.8456740625000005,19.77581484375,3.9507920625,18.880814843750002Q3.0558400415,17.985914843750002,3.0556640625,16.72021484375L3.0556640625,7.2757848437499995Q3.0556640625,6.01013484375,3.9506260625,5.11515284375Q4.8455740625,4.22020149235,6.1112140625,4.22021484375L17.888864062499998,4.22021484375ZM15.1112640625,5.77577484375L6.1111940625,5.77577484375Q5.4899040625,5.77576484375,5.0505840625000005,6.21508484375Q4.6112240625,6.65445484375,4.6112240625,7.2757848437499995L4.6112240625,16.72021484375Q4.6112240625,17.341514843749998,5.0506140625,17.78091484375Q5.4899340625,18.22021484375,6.1113240625,18.22021484375L15.1112640625,18.22021484375L15.1112640625,5.77577484375ZM16.6667640625,18.22021484375L17.888864062499998,18.22021484375Q18.5101640625,18.22021484375,18.949564062500002,17.78091484375Q19.3889640625,17.341514843749998,19.3889640625,16.72021484375L19.3889640625,7.2757848437499995Q19.3889640625,6.65442484375,18.949564062500002,6.21512484375Q18.5102640625,5.7757848437499995,17.888864062499998,5.77577484375L16.6667640625,5.77577484375L16.6667640625,18.22021484375ZM12.9897840625,11.44241484375L10.7944540625,9.247084843749999C10.4907140625,8.943344843750001,9.9982440625,8.943344843750001,9.6945040625,9.247084843749999C9.3907640625,9.55082484375,9.3907640625,10.043294843750001,9.6945040625,10.34703484375L10.5607140625,11.213244843750001L6.944584062500001,11.213244843750001C6.5150340625,11.213244843750001,6.1668140625,11.561464843749999,6.1668140625,11.99102484375C6.1668140625,12.42057484375,6.5150340625,12.76879484375,6.944584062500001,12.76879484375L10.5725540625,12.76879484375L9.694524062500001,13.64683484375C9.548654062499999,13.79269484375,9.4667140625,13.99053484375,9.4667140625,14.19680484375C9.4667140625,14.40311484375,9.548654062499999,14.60091484375,9.694524062500001,14.74681484375C9.8403840625,14.89261484375,10.0382140625,14.97461484375,10.2444940625,14.97461484375C10.450774062499999,14.97461484375,10.648604062499999,14.89261484375,10.794464062500001,14.74681484375L12.9914340625,12.54981484375C12.9914340625,12.54981484375,12.9943340625,12.54692484375,12.9943340625,12.54692484375C13.0455240625,12.49573484375,13.0892640625,12.43765484375,13.1244640625,12.37436484375C13.1536640625,12.32166484375,13.1766640625,12.26575484375,13.1930640625,12.20775484375C13.2123640625,12.13914484375,13.2221640625,12.06820484375,13.2221640625,11.99692484375C13.2221640625,11.79064484375,13.1401640625,11.59281484375,12.9943540625,11.44695484375C12.9943540625,11.44695484375,12.9897840625,11.44241484375,12.9897840625,11.44241484375Z" fill-rule="evenodd"></path></symbol>
<symbol xmlns="http://www.w3.org/2000/svg" viewBox="152 -152 1024 1024" id="filter"><path d="M749.7,701.3h-43V321.7c0-5.6,2.2-11,6.1-15l213.4-203.4H436.8l179,203.6c3.8,4,5.9,9.3,5.9,14.8v253.6h-43v-245L371.2,96.6 c-5.9-6.2-7.5-15.4-4.1-23.3s11.2-13,19.8-13h590.3c8.6,0,16.4,5.2,19.8,13.1c3.4,8,1.6,17.2-4.4,23.4L749.7,330.4V701.3z"></path></symbol>
</svg>