<svg xmlns="http://www.w3.org/2000/svg" xmlns:xlink="http://www.w3.org/1999/xlink" style="position: absolute; width: 0; height: 0" aria-hidden="true" id="__SVG_SPRITE_NODE__">
<symbol xmlns="http://www.w3.org/2000/svg" viewBox="0 0 46 46" id="fn-habit"><g fill="none" fill-rule="evenodd"><rect fill="#FF853F" width="46" height="46" rx="4"></rect><path d="M0 28L28 28 28 0 0 0z" transform="translate(9 9)"></path><path d="M14,-8.8817842e-14 C21.0876543,-8.8817842e-14 26.8333333,5.69850237 26.8333333,12.7279613 C26.8333333,16.9930282 24.2761152,20.7184978 21.4713909,23.0776947 C19.6015748,24.6504927 17.4556285,26.178623 15.033552,27.6620857 C14.7258392,27.8873619 14.3629196,28 14,28 L13.844624,27.9931038 C13.5345158,27.9655189 13.2302018,27.8551796 12.966448,27.6620857 C10.5443715,26.178623 8.39842524,24.6504927 6.52860905,23.0776947 C3.72388478,20.7184978 1.16666667,16.9930282 1.16666667,12.7279613 C1.16666667,5.80037858 6.74701111,0.165453536 13.6927001,0.00357744368 L14,-8.8817842e-14 Z" fill="#FFFFFF" transform="translate(9 9)"></path><path stroke="#FF853F" stroke-width="2.333" stroke-linecap="round" d="M18.6666667 12.8333333L14 12.8333333 14 5.83333333" transform="translate(9 9)"></path></g></symbol>
<symbol xmlns="http://www.w3.org/2000/svg" viewBox="0 0 90 90" id="fn-matrix"><g fill="none" fill-rule="evenodd"><rect fill="#0CCE9C" width="90" height="90" rx="8"></rect><path d="M0 0H70V70H0z" transform="translate(10 10)"></path><path d="M32.0833333,37.9166667 L32.0833333,48.125 C32.0833333,53.7629068 27.5129068,58.3333333 21.875,58.3333333 C16.2370932,58.3333333 11.6666667,53.7629068 11.6666667,48.125 C11.6666667,42.4870932 16.2370932,37.9166667 21.875,37.9166667 L21.875,37.9166667 L32.0833333,37.9166667 Z M48.125,37.9166667 L48.4059896,37.9204591 C53.9139848,38.0693107 58.3333333,42.5810583 58.3333333,48.125 C58.3333333,53.7629068 53.7629068,58.3333333 48.125,58.3333333 C42.4870932,58.3333333 37.9166667,53.7629068 37.9166667,48.125 L37.9166667,48.125 L37.9166667,37.9166667 L48.125,37.9166667 Z M21.875,11.6666667 C27.5129068,11.6666667 32.0833333,16.2370932 32.0833333,21.875 L32.0833333,32.0833333 L21.875,32.0833333 C16.2370932,32.0833333 11.6666667,27.5129068 11.6666667,21.875 C11.6666667,16.2370932 16.2370932,11.6666667 21.875,11.6666667 Z M48.125,11.6666667 C53.7629068,11.6666667 58.3333333,16.2370932 58.3333333,21.875 C58.3333333,27.4189417 53.9139848,31.9306893 48.4059896,32.0795409 L48.125,32.0833333 L37.9166667,32.0833333 L37.9166667,21.875 C37.9166667,16.2370932 42.4870932,11.6666667 48.125,11.6666667 Z" fill="#FFFFFF" transform="translate(10 10)"></path></g></symbol>
<symbol xmlns="http://www.w3.org/2000/svg" viewBox="0 0 46 46" id="fn-min-cal"><g fill="none" fill-rule="evenodd"><rect fill="#00C3E8" width="46" height="46" rx="4"></rect><path d="M0 0H28V28H0z" transform="translate(9 9)"></path><path d="M21.2158411,4.2 C23.0880304,4.2 23.7669315,4.39493378 24.451376,4.76097868 C25.1358204,5.12702357 25.6729764,5.66417958 26.0390213,6.34862402 C26.4050662,7.03306847 26.6,7.71196957 26.6,9.58415892 L26.6,21.2158411 C26.6,23.0880304 26.4050662,23.7669315 26.0390213,24.451376 C25.6729764,25.1358204 25.1358204,25.6729764 24.451376,26.0390213 C23.7669315,26.4050662 23.0880304,26.6 21.2158411,26.6 L6.78415892,26.6 C4.91196957,26.6 4.23306847,26.4050662 3.54862402,26.0390213 C2.86417958,25.6729764 2.32702357,25.1358204 1.96097868,24.451376 C1.59493378,23.7669315 1.4,23.0880304 1.4,21.2158411 L1.4,9.58415892 C1.4,7.71196957 1.59493378,7.03306847 1.96097868,6.34862402 C2.32702357,5.66417958 2.86417958,5.12702357 3.54862402,4.76097868 C4.23306847,4.39493378 4.91196957,4.2 6.78415892,4.2 L21.2158411,4.2 Z M8.4,18.9 C7.62680135,18.9 7,19.5268014 7,20.3 C7,21.0731986 7.62680135,21.7 8.4,21.7 C9.17319865,21.7 9.8,21.0731986 9.8,20.3 C9.8,19.5268014 9.17319865,18.9 8.4,18.9 Z M14,18.9 C13.2268014,18.9 12.6,19.5268014 12.6,20.3 C12.6,21.0731986 13.2268014,21.7 14,21.7 C14.7731986,21.7 15.4,21.0731986 15.4,20.3 C15.4,19.5268014 14.7731986,18.9 14,18.9 Z M19.95,14.7 L8.05,14.7 C7.47010101,14.7 7,15.170101 7,15.75 C7,16.329899 7.47010101,16.8 8.05,16.8 L8.05,16.8 L19.95,16.8 C20.529899,16.8 21,16.329899 21,15.75 C21,15.170101 20.529899,14.7 19.95,14.7 L19.95,14.7 Z M8.4,9.8 C7.62680135,9.8 7,10.4268014 7,11.2 C7,11.9731986 7.62680135,12.6 8.4,12.6 C9.17319865,12.6 9.8,11.9731986 9.8,11.2 C9.8,10.4268014 9.17319865,9.8 8.4,9.8 Z M14,9.8 C13.2268014,9.8 12.6,10.4268014 12.6,11.2 C12.6,11.9731986 13.2268014,12.6 14,12.6 C14.7731986,12.6 15.4,11.9731986 15.4,11.2 C15.4,10.4268014 14.7731986,9.8 14,9.8 Z M19.6,9.8 C18.8268014,9.8 18.2,10.4268014 18.2,11.2 C18.2,11.9731986 18.8268014,12.6 19.6,12.6 C20.3731986,12.6 21,11.9731986 21,11.2 C21,10.4268014 20.3731986,9.8 19.6,9.8 Z" fill="#FFFFFF" transform="translate(9 9)"></path><path d="M1.4,0 C2.17319865,-1.42034288e-16 2.8,0.62680135 2.8,1.4 L2.8,1.4 L2.8,4.2 L0,4.2 L0,1.4 C-9.46895252e-17,0.62680135 0.62680135,1.42034288e-16 1.4,0 Z M15.4,0 C16.1731986,-1.42034288e-16 16.8,0.62680135 16.8,1.4 L16.8,1.4 L16.8,4.2 L14,4.2 L14,1.4 C14,0.62680135 14.6268014,1.42034288e-16 15.4,0 Z" transform="translate(14.6 10.4)" fill="#FFFFFF"></path></g></symbol>
<symbol xmlns="http://www.w3.org/2000/svg" viewBox="0 0 46 46" id="fn-pomo"><g fill="none" fill-rule="evenodd"><rect fill="#FE6262" width="46" height="46" rx="4"></rect><path d="M22.997696,6.42283364 C25.8415422,8.67627396 27.495,12.0387673 27.495,15.795 C27.495,22.5798182 21.4709913,28.08 14.04,28.08 C6.60900869,28.08 0.585,22.5798182 0.585,15.795 C0.585,12.0409525 2.24035762,8.68018624 5.08246531,6.42676748 C5.18047297,6.58543519 5.29609372,6.73529156 5.42953923,6.87386347 L5.42953923,6.87386347 L7.63859374,9.16778035 L7.27652261,12.2238021 C7.22267711,12.6782792 7.28372453,13.1394641 7.45392035,13.5627886 C8.00131671,14.9243158 9.52360109,15.5739408 10.8514517,15.002213 L10.8514517,15.002213 L14.0397968,13.6294188 L17.2281418,15.002213 C17.644525,15.1814936 18.0994003,15.2459772 18.547715,15.1890938 C19.970772,15.0085327 20.9753989,13.6783178 20.8030709,12.2238021 L20.8030709,12.2238021 L20.4409998,9.16778035 L22.6500543,6.87386347 C22.7412963,6.77911634 22.8250736,6.67790137 22.9009009,6.57119796 Z M14.8541811,0.235123389 C15.0588613,0.363572794 15.23127,0.538676792 15.3577422,0.746556945 L16.8408707,3.18434964 L19.7973842,3.75010008 C20.6381744,3.91099142 21.191349,4.73367054 21.0329343,5.58760533 C20.9755007,5.89720096 20.8278792,6.18215613 20.6091828,6.40557674 L18.6429427,8.41429117 L18.9670008,11.1051806 C19.0708737,11.9677123 18.4666222,12.7524545 17.6173673,12.8579513 C17.3509637,12.8910447 17.0806648,12.8532771 16.8329571,12.7483495 L14.0398601,11.5652084 L11.2467632,12.7483495 C10.457108,13.0828432 9.54997911,12.7038543 9.22063418,11.9018539 C9.11732166,11.6502737 9.08013545,11.375749 9.11271943,11.1051806 L9.43677754,8.41429117 L7.4705374,6.40557674 C6.86732332,5.78933216 6.87019685,4.79312074 7.47695562,4.18047626 C7.69693713,3.95836088 7.977506,3.80843153 8.28233605,3.75010008 L11.2388496,3.18434964 L12.7219781,0.746556945 C13.1717151,0.00733194853 14.1263349,-0.221644654 14.8541811,0.235123389 Z" transform="translate(9 9)" fill="#FFFFFF"></path></g></symbol>
</svg>