<svg xmlns="http://www.w3.org/2000/svg" xmlns:xlink="http://www.w3.org/1999/xlink" style="position: absolute; width: 0; height: 0" aria-hidden="true" id="__SVG_SPRITE_NODE__">
<symbol xmlns="http://www.w3.org/2000/svg" viewBox="0 0 22 22" id="focus-exit"><g style="mix-blend-mode:passthrough"><path d="M6.733974435119629,5.182693004608154L15.265994435119628,5.182693004608154C16.12279443511963,5.182693004608154,16.817294435119628,5.877226004608154,16.817294435119628,6.7339730046081545L16.817294435119628,15.265993004608154C16.817294435119628,16.122793004608155,16.12279443511963,16.817293004608153,15.265994435119628,16.817293004608153L6.733974435119629,16.817293004608153C5.877227435119629,16.817293004608153,5.182694435119629,16.122793004608155,5.182694435119629,15.265993004608154L5.182694435119629,6.7339730046081545C5.182694435119629,5.877226004608154,5.877227435119629,5.182693004608154,6.733974435119629,5.182693004608154Z" fill-rule="evenodd"></path></g></symbol>
<symbol xmlns="http://www.w3.org/2000/svg" viewBox="0 0 36 36" id="focus-link"><path d="M18,13.5 C18.8284271,13.5 19.5,14.1715729 19.5,15 C19.5,15.8284271 18.8284271,16.5 18,16.5 L15,16.5 L15,27 L30,27 L30,16.5 L27,16.5 C26.1715729,16.5 25.5,15.8284271 25.5,15 C25.5,14.1715729 26.1715729,13.5 27,13.5 L30,13.5 C31.6568542,13.5 33,14.8431458 33,16.5 L33,27 C33,28.6568542 31.6568542,30 30,30 L15,30 C13.3431458,30 12,28.6568542 12,27 L12,16.5 C12,14.8431458 13.3431458,13.5 15,13.5 L18,13.5 Z M21,6 C22.6568542,6 24,7.34314575 24,9 L24,19.5 C24,21.1568542 22.6568542,22.5 21,22.5 L18,22.5 C17.1715729,22.5 16.5,21.8284271 16.5,21 C16.5,20.1715729 17.1715729,19.5 18,19.5 L21,19.5 L21,9 L6,9 L6,19.5 L9,19.5 C9.82842712,19.5 10.5,20.1715729 10.5,21 C10.5,21.8284271 9.82842712,22.5 9,22.5 L6,22.5 C4.34314575,22.5 3,21.1568542 3,19.5 L3,9 C3,7.34314575 4.34314575,6 6,6 L21,6 Z" fill-rule="nonzero"></path></symbol>
<symbol xmlns="http://www.w3.org/2000/svg" viewBox="0 0 22 22" id="focus-pause"><g style="mix-blend-mode:passthrough"><path d="M8.937106725006103,5.843750476837158C8.937106725006103,5.274206476837159,8.476626725006103,4.812500476837158,7.908596725006103,4.812500476837158L5.851586725006103,4.812500476837158C5.283554725006104,4.812500476837158,4.8230767250061035,5.274206476837159,4.8230767250061035,5.843750476837158L4.8230767250061035,16.15630047683716C4.8230767250061035,16.725800476837158,5.283554725006104,17.187500476837158,5.851586725006103,17.187500476837158L7.908596725006103,17.187500476837158C8.476626725006103,17.187500476837158,8.937106725006103,16.725800476837158,8.937106725006103,16.15630047683716L8.937106725006103,5.843750476837158ZM17.165176725006106,5.843750476837158C17.165176725006106,5.274206476837159,16.704676725006102,4.812500476837158,16.1365767250061,4.812500476837158L14.079606725006103,4.812500476837158C13.511586725006104,4.812500476837158,13.051106725006104,5.274206476837159,13.051106725006104,5.843750476837158L13.051106725006104,16.15630047683716C13.051106725006104,16.725800476837158,13.511586725006104,17.187500476837158,14.079606725006103,17.187500476837158L16.1365767250061,17.187500476837158C16.704676725006102,17.187500476837158,17.165176725006106,16.725800476837158,17.165176725006106,16.15630047683716L17.165176725006106,5.843750476837158Z" fill-rule="evenodd"></path></g></symbol>
<symbol xmlns="http://www.w3.org/2000/svg" viewBox="0 0 22 22" id="focus-ready"><g style="mix-blend-mode:passthrough"><path d="M20.65874,12.4713C19.960731,13.4653,20.67172,14.8333,21.88629,14.8333L34.1382,14.8333C35.3527,14.8333,36.0637,13.4652,35.365700000000004,12.4713L29.2397,3.74801C28.64237,2.897408,27.38195,2.897414,26.78462,3.74802L20.65874,12.4713Z" transform="rotate(90 19 2)"></path></g></symbol>
<symbol xmlns="http://www.w3.org/2000/svg" viewBox="0 0 24 24" id="focus-settings"><path d="M5,17.25Q4.87718,17.25,4.7549600000000005,17.262Q4.6327300000000005,17.2741,4.51227,17.298000000000002Q4.39182,17.322,4.27429,17.357599999999998Q4.15676,17.3933,4.04329,17.4403Q3.9298200000000003,17.487299999999998,3.82151,17.5452Q3.71319,17.603099999999998,3.61107,17.671300000000002Q3.50896,17.7396,3.414017,17.8175Q3.319078,17.8954,3.232233,17.9822Q3.145388,18.0691,3.067474,18.164Q2.98956,18.259,2.921326,18.3611Q2.853092,18.4632,2.795197,18.5715Q2.737301,18.6798,2.690301,18.7933Q2.643301,18.9068,2.607649,19.0243Q2.5719972,19.1418,2.5480368,19.2623Q2.5240764,19.3827,2.5120382,19.505Q2.5,19.6272,2.5,19.75Q2.5,19.8728,2.5120382,19.995Q2.5240764,20.1173,2.5480368,20.2377Q2.5719972,20.3582,2.607649,20.4757Q2.643301,20.5932,2.690301,20.7067Q2.737301,20.8202,2.795197,20.9285Q2.853092,21.0368,2.921326,21.1389Q2.98956,21.241,3.067474,21.336Q3.145388,21.4309,3.232233,21.5178Q3.319078,21.6046,3.414017,21.6825Q3.50896,21.7604,3.61107,21.8287Q3.71319,21.8969,3.82151,21.9548Q3.9298200000000003,22.0127,4.04329,22.0597Q4.15676,22.1067,4.27429,22.1423Q4.39182,22.178,4.51227,22.202Q4.6327300000000005,22.2259,4.7549600000000005,22.238Q4.87718,22.25,5,22.25Q5.12282,22.25,5.2450399999999995,22.238Q5.3672699999999995,22.2259,5.48773,22.202Q5.60818,22.178,5.725709999999999,22.1423Q5.84324,22.1067,5.95671,22.0597Q6.070180000000001,22.0127,6.17849,21.9548Q6.28681,21.8969,6.38893,21.8287Q6.49104,21.7604,6.58598,21.6825Q6.68092,21.6046,6.76777,21.5178Q6.85461,21.4309,6.93253,21.336Q7.01044,21.241,7.07867,21.1389Q7.14691,21.0368,7.2048,20.9285Q7.2627,20.8202,7.3097,20.7067Q7.3567,20.5932,7.39235,20.4757Q7.428,20.3582,7.45196,20.2377Q7.47592,20.1173,7.48796,19.995Q7.5,19.8728,7.5,19.75Q7.5,19.6272,7.48796,19.505Q7.47592,19.3827,7.45196,19.2623Q7.428,19.1418,7.39235,19.0243Q7.3567,18.9068,7.3097,18.7933Q7.2627,18.6798,7.2048,18.5715Q7.14691,18.4632,7.07867,18.3611Q7.01044,18.259,6.93253,18.164Q6.85461,18.0691,6.76777,17.9822Q6.68092,17.8954,6.58598,17.8175Q6.49104,17.7396,6.38893,17.671300000000002Q6.28681,17.603099999999998,6.17849,17.5452Q6.070180000000001,17.487299999999998,5.95671,17.4403Q5.84324,17.3933,5.725709999999999,17.357599999999998Q5.60818,17.322,5.48773,17.298000000000002Q5.3672699999999995,17.2741,5.2450399999999995,17.262Q5.12282,17.25,5,17.25ZM20.5,20.75L8.354099999999999,20.75Q8.5,20.2606,8.5,19.75Q8.5,19.2394,8.354099999999999,18.75L20.5,18.75Q20.5985,18.75,20.6951,18.7692Q20.7917,18.7884,20.8827,18.8261Q20.9737,18.8638,21.0556,18.9185Q21.1375,18.9732,21.2071,19.0429Q21.2767,19.1125,21.3315,19.1944Q21.3862,19.2763,21.4239,19.3673Q21.4616,19.4583,21.4808,19.5549Q21.5,19.6515,21.5,19.75Q21.5,19.8485,21.4808,19.9451Q21.4616,20.0417,21.4239,20.1327Q21.3862,20.2237,21.3315,20.3056Q21.2767,20.3875,21.2071,20.4571Q21.1375,20.5267,21.0556,20.5815Q20.9737,20.6362,20.8827,20.6739Q20.7917,20.7116,20.6951,20.7308Q20.5985,20.75,20.5,20.75ZM15,9.75Q14.8772,9.75,14.755,9.76204Q14.6327,9.77408,14.5123,9.79804Q14.3918,9.822,14.2743,9.85765Q14.1568,9.8933,14.0433,9.9403Q13.9298,9.9873,13.8215,10.0452Q13.7132,10.10309,13.6111,10.17133Q13.509,10.23956,13.414,10.31747Q13.3191,10.39539,13.2322,10.48223Q13.1454,10.56908,13.0675,10.66402Q12.9896,10.75896,12.9213,10.86107Q12.8531,10.96319,12.7952,11.07151Q12.7373,11.17982,12.6903,11.29329Q12.6433,11.40676,12.6076,11.52429Q12.572,11.64182,12.548,11.7623Q12.5241,11.8827,12.512,12.005Q12.5,12.1272,12.5,12.25Q12.5,12.3728,12.512,12.495Q12.5241,12.6173,12.548,12.7377Q12.572,12.8582,12.6076,12.9757Q12.6433,13.0932,12.6903,13.2067Q12.7373,13.3202,12.7952,13.4285Q12.8531,13.5368,12.9213,13.6389Q12.9896,13.741,13.0675,13.836Q13.1454,13.9309,13.2322,14.0178Q13.3191,14.1046,13.414,14.1825Q13.509,14.2604,13.6111,14.3287Q13.7132,14.3969,13.8215,14.4548Q13.9298,14.5127,14.0433,14.5597Q14.1568,14.6067,14.2743,14.6423Q14.3918,14.678,14.5123,14.702Q14.6327,14.7259,14.755,14.738Q14.8772,14.75,15,14.75Q15.1228,14.75,15.245,14.738Q15.3673,14.7259,15.4877,14.702Q15.6082,14.678,15.7257,14.6423Q15.8432,14.6067,15.9567,14.5597Q16.0702,14.5127,16.1785,14.4548Q16.2868,14.3969,16.3889,14.3287Q16.491,14.2604,16.586,14.1825Q16.6809,14.1046,16.7678,14.0178Q16.854599999999998,13.9309,16.932499999999997,13.836Q17.0104,13.741,17.078699999999998,13.6389Q17.146900000000002,13.5368,17.2048,13.4285Q17.262700000000002,13.3202,17.3097,13.2067Q17.3567,13.0932,17.392400000000002,12.9757Q17.428,12.8582,17.451999999999998,12.7377Q17.4759,12.6173,17.488,12.495Q17.5,12.3728,17.5,12.25Q17.5,12.1272,17.488,12.005Q17.4759,11.8827,17.451999999999998,11.7623Q17.428,11.64182,17.3923,11.52429Q17.3567,11.40676,17.3097,11.29329Q17.262700000000002,11.17982,17.2048,11.07151Q17.146900000000002,10.96319,17.078699999999998,10.86107Q17.0104,10.75896,16.932499999999997,10.66402Q16.854599999999998,10.56908,16.7678,10.48223Q16.6809,10.39539,16.586,10.31747Q16.491,10.23956,16.3889,10.17133Q16.2868,10.10309,16.1785,10.0452Q16.0702,9.9873,15.9567,9.9403Q15.8432,9.8933,15.7257,9.85765Q15.6082,9.822,15.4877,9.79804Q15.3673,9.77408,15.245,9.76204Q15.1228,9.75,15,9.75ZM11.5,12.25Q11.5,11.73936,11.6459,11.25L3.5,11.25Q3.401509,11.25,3.30491,11.26921Q3.208311,11.28843,3.1173159999999998,11.32612Q3.026322,11.36381,2.94443,11.41853Q2.862537,11.47325,2.792893,11.54289Q2.723249,11.61253,2.66853,11.69443Q2.613811,11.7763,2.5761205,11.8673Q2.5384294,11.9583,2.5192147,12.0549Q2.5,12.1515,2.5,12.25Q2.5,12.3485,2.5192147,12.4451Q2.5384294,12.5417,2.5761205,12.6327Q2.613811,12.7237,2.66853,12.8056Q2.723249,12.8875,2.792893,12.9571Q2.862537,13.0268,2.94443,13.0815Q3.026322,13.1362,3.1173159999999998,13.1739Q3.208311,13.2116,3.30491,13.2308Q3.401509,13.25,3.5,13.25L11.6459,13.25Q11.5,12.7606,11.5,12.25ZM18.5,12.25Q18.5,11.73936,18.354100000000003,11.25L20.5,11.25Q20.5985,11.25,20.6951,11.26921Q20.7917,11.28843,20.8827,11.32612Q20.9737,11.36381,21.0556,11.41853Q21.1375,11.47325,21.2071,11.54289Q21.2767,11.61253,21.3315,11.69443Q21.3862,11.7763,21.4239,11.8673Q21.4616,11.9583,21.4808,12.0549Q21.5,12.1515,21.5,12.25Q21.5,12.3485,21.4808,12.4451Q21.4616,12.5417,21.4239,12.6327Q21.3862,12.7237,21.3315,12.8056Q21.2767,12.8875,21.2071,12.9571Q21.1375,13.0268,21.0556,13.0815Q20.9737,13.1362,20.8827,13.1739Q20.7917,13.2116,20.6951,13.2308Q20.5985,13.25,20.5,13.25L18.354100000000003,13.25Q18.5,12.7606,18.5,12.25ZM5,1.75Q4.87718,1.75,4.7549600000000005,1.7620382Q4.6327300000000005,1.7740764,4.51227,1.7980368Q4.39182,1.8219972,4.27429,1.8576489999999999Q4.15676,1.8933010000000001,4.04329,1.940301Q3.9298200000000003,1.987301,3.82151,2.045197Q3.71319,2.103092,3.61107,2.171326Q3.50896,2.23956,3.414017,2.317474Q3.319078,2.395388,3.232233,2.482233Q3.145388,2.569078,3.067474,2.664017Q2.98956,2.75896,2.921326,2.86107Q2.853092,2.96319,2.795197,3.07151Q2.737301,3.1798200000000003,2.690301,3.29329Q2.643301,3.4067600000000002,2.607649,3.5242899999999997Q2.5719972,3.64182,2.5480368,3.76227Q2.5240764,3.88273,2.5120382,4.0049600000000005Q2.5,4.12718,2.5,4.25Q2.5,4.37282,2.5120382,4.4950399999999995Q2.5240764,4.6172699999999995,2.5480368,4.73773Q2.5719972,4.85818,2.607649,4.975709999999999Q2.643301,5.09324,2.690301,5.20671Q2.737301,5.320180000000001,2.795197,5.42849Q2.853092,5.53681,2.921326,5.63893Q2.98956,5.74104,3.067474,5.83598Q3.145388,5.93092,3.232233,6.01777Q3.319078,6.10461,3.414017,6.18253Q3.50896,6.26044,3.61107,6.32867Q3.71319,6.39691,3.82151,6.4548Q3.9298200000000003,6.5127,4.04329,6.5597Q4.15676,6.6067,4.27429,6.64235Q4.39182,6.678,4.51227,6.70196Q4.6327300000000005,6.72592,4.7549600000000005,6.73796Q4.87718,6.75,5,6.75Q5.12282,6.75,5.2450399999999995,6.73796Q5.3672699999999995,6.72592,5.48773,6.70196Q5.60818,6.678,5.725709999999999,6.64235Q5.84324,6.6067,5.95671,6.5597Q6.070180000000001,6.5127,6.17849,6.4548Q6.28681,6.39691,6.38893,6.32867Q6.49104,6.26044,6.58598,6.18253Q6.68092,6.10461,6.76777,6.01777Q6.85461,5.93092,6.93253,5.83598Q7.01044,5.74104,7.07867,5.63893Q7.14691,5.53681,7.2048,5.42849Q7.2627,5.320180000000001,7.3097,5.20671Q7.3567,5.09324,7.39235,4.975709999999999Q7.428,4.85818,7.45196,4.73773Q7.47592,4.6172699999999995,7.48796,4.4950399999999995Q7.5,4.37282,7.5,4.25Q7.5,4.12718,7.48796,4.0049600000000005Q7.47592,3.88273,7.45196,3.76227Q7.428,3.64182,7.39235,3.5242899999999997Q7.3567,3.4067600000000002,7.3097,3.29329Q7.2627,3.1798200000000003,7.2048,3.07151Q7.14691,2.96319,7.07867,2.86107Q7.01044,2.75896,6.93253,2.664017Q6.85461,2.569078,6.76777,2.482233Q6.68092,2.395388,6.58598,2.317474Q6.49104,2.23956,6.38893,2.171326Q6.28681,2.103092,6.17849,2.045197Q6.070180000000001,1.987301,5.95671,1.940301Q5.84324,1.8933010000000001,5.725709999999999,1.8576489999999999Q5.60818,1.8219972,5.48773,1.7980368Q5.3672699999999995,1.7740764,5.2450399999999995,1.7620382Q5.12282,1.75,5,1.75ZM20.5,5.25L8.354099999999999,5.25Q8.5,4.76064,8.5,4.25Q8.5,3.73936,8.354099999999999,3.25L20.5,3.25Q20.5985,3.25,20.6951,3.26921Q20.7917,3.28843,20.8827,3.32612Q20.9737,3.36381,21.0556,3.41853Q21.1375,3.47325,21.2071,3.54289Q21.2767,3.61254,21.3315,3.69443Q21.3862,3.77632,21.4239,3.86732Q21.4616,3.95831,21.4808,4.05491Q21.5,4.15151,21.5,4.25Q21.5,4.34849,21.4808,4.44509Q21.4616,4.54169,21.4239,4.632680000000001Q21.3862,4.72368,21.3315,4.8055699999999995Q21.2767,4.88746,21.2071,4.95711Q21.1375,5.02675,21.0556,5.0814699999999995Q20.9737,5.13619,20.8827,5.1738800000000005Q20.7917,5.21157,20.6951,5.23078Q20.5985,5.25,20.5,5.25Z" fill-rule="evenodd"></path></symbol>
<symbol xmlns="http://www.w3.org/2000/svg" viewBox="0 0 18 18" id="focus-time-add"><g style="mix-blend-mode:passthrough"><path d="M9.375,2.5C9.58211,2.5,9.75,2.667893,9.75,2.875L9.75,8.24925L15.125,8.25C15.3321,8.25,15.5,8.41789,15.5,8.625L15.5,9.375C15.5,9.58211,15.3321,9.75,15.125,9.75L9.75,9.74925L9.75,15.125C9.75,15.3321,9.58211,15.5,9.375,15.5L8.625,15.5C8.41789,15.5,8.25,15.3321,8.25,15.125L8.25,9.74925L2.875,9.75C2.667893,9.75,2.5,9.58211,2.5,9.375L2.5,8.625C2.5,8.41789,2.667893,8.25,2.875,8.25L8.25,8.24925L8.25,2.875C8.25,2.667893,8.41789,2.5,8.625,2.5L9.375,2.5Z" fill-rule="evenodd"></path></g></symbol>
<symbol xmlns="http://www.w3.org/2000/svg" viewBox="0 0 18 18" id="focus-time-sub"><g style="mix-blend-mode:passthrough"><path d="M15.125,8.25000190752832C15.3321,8.25000190752832,15.5,8.41789519152832,15.5,8.62500219152832L15.5,9.37500319152832C15.5,9.58211319152832,15.3321,9.75000319152832,15.125,9.75000319152832C10.82719,9.74904319152832,7.51997,9.74896319152832,2.875,9.75000319152832C2.667893,9.75000319152832,2.5,9.58210319152832,2.5,9.37500319152832L2.5,8.62500019152832C2.5,8.41789319152832,2.667893,8.24999992752832,2.875,8.24999992752832C7.50426,8.24897115152832,10.07869,8.24888038652832,15.125,8.25000190752832Z" fill-rule="evenodd"></path></g></symbol>
</svg>