<svg xmlns="http://www.w3.org/2000/svg" xmlns:xlink="http://www.w3.org/1999/xlink" style="position: absolute; width: 0; height: 0" aria-hidden="true" id="__SVG_SPRITE_NODE__">
<symbol xmlns="http://www.w3.org/2000/svg" fill="none" viewBox="0 0 16 16" id="habit_month_complete_rate"><g style="mix-blend-mode:passthrough"><g style="mix-blend-mode:passthrough"><circle cx="8" cy="8" fill="#FF8C0A" fill-opacity=".7" r="7.5"></circle><path d="M9.5,3.9450920586395264L5.250001,11.306307058639526Q5.2130667,11.370277058639527,5.1893224,11.440227058639525Q5.1655781,11.510177058639528,5.1559363,11.583407058639526Q5.1462946,11.656647058639527,5.1511258,11.730357058639527Q5.155957,11.804067058639527,5.1750755999999996,11.875417058639526Q5.1941942,11.946777058639526,5.226865,12.013027058639526Q5.259537,12.079277058639526,5.304505,12.137877058639527Q5.349473,12.196477058639527,5.405011,12.245187058639527Q5.460548,12.293887058639527,5.52452,12.330827058639526Q5.653717,12.405417058639527,5.801625,12.424887058639527Q5.949533,12.444367058639527,6.093633,12.405747058639527Q6.23773,12.367137058639527,6.35609,12.276327058639527Q6.47445,12.185507058639526,6.54904,12.056307058639526L10.79904,4.695087058639526Q10.87363,4.565894058639526,10.8931,4.417986058639526Q10.912569999999999,4.270078058639527,10.87396,4.125978058639526Q10.83535,3.9818770586395265,10.744530000000001,3.8635210586395266Q10.65372,3.745165058639526,10.524519999999999,3.670573058639526Q10.46055,3.6336386586395264,10.3906,3.6098943586395262Q10.32065,3.5861501586395264,10.24741,3.5765083586395265Q10.17418,3.566866578639526,10.10047,3.5716978186395263Q10.02676,3.5765290486395265,9.955400000000001,3.5956476586395265Q9.88405,3.614766258639526,9.8178,3.6474374586395264Q9.75155,3.6801090586395264,9.69295,3.7250770586395263Q9.63434,3.770045058639526,9.58564,3.8255830586395265Q9.53693,3.8811200586395262,9.5,3.9450920586395264ZM7.125,4.795577058639527Q7.125,4.894067058639527,7.10579,4.990667058639526Q7.08657,5.087257058639526,7.0488800000000005,5.1782570586395265Q7.01119,5.269247058639526,6.9564699999999995,5.351147058639526Q6.90175,5.433037058639527,6.83211,5.502677058639526Q6.76246,5.572327058639527,6.6805699999999995,5.627047058639526Q6.59868,5.681757058639526,6.50768,5.719457058639526Q6.41669,5.757147058639527,6.32009,5.776357058639526Q6.22349,5.795577058639527,6.125,5.795577058639527Q6.026509,5.795577058639527,5.92991,5.776357058639526Q5.833311,5.757147058639527,5.742316,5.719457058639526Q5.651322,5.681757058639526,5.56943,5.627047058639526Q5.487537,5.572327058639527,5.417893,5.502677058639526Q5.348249,5.433037058639527,5.29353,5.351147058639526Q5.238811,5.269247058639526,5.2011205,5.1782570586395265Q5.1634294,5.087257058639526,5.1442147,4.990667058639526Q5.125,4.894067058639527,5.125,4.795577058639527Q5.125,4.697077058639526,5.1442147,4.600487058639526Q5.1634294,4.503884058639526,5.2011205,4.412889058639527Q5.238811,4.321895058639527,5.29353,4.240003058639527Q5.348249,4.158110058639526,5.417893,4.0884660586395265Q5.487537,4.018822058639526,5.56943,3.9641030586395263Q5.651322,3.9093840586395263,5.742316,3.871693058639526Q5.833311,3.8340020586395265,5.92991,3.814788058639526Q6.026509,3.795573058639526,6.125,3.795573058639526Q6.22349,3.795573058639526,6.32009,3.814788058639526Q6.41669,3.8340020586395265,6.50768,3.871693058639526Q6.59868,3.9093840586395263,6.6805699999999995,3.9641030586395263Q6.76246,4.018822058639526,6.83211,4.0884660586395265Q6.90175,4.158110058639526,6.9564699999999995,4.240003058639527Q7.01119,4.321895058639527,7.0488800000000005,4.412889058639527Q7.08657,4.503884058639526,7.10579,4.600487058639526Q7.125,4.697077058639526,7.125,4.795577058639527ZM10.875,11.295577058639527Q10.875,11.394067058639527,10.85578,11.490667058639527Q10.83657,11.587257058639526,10.79888,11.678257058639526Q10.76119,11.769247058639527,10.70647,11.851147058639526Q10.65175,11.933037058639526,10.58211,12.002677058639525Q10.51246,12.072327058639527,10.43057,12.127037058639527Q10.34868,12.181757058639526,10.25768,12.219447058639526Q10.16669,12.257147058639527,10.07009,12.276357058639526Q9.97349,12.295577058639527,9.875,12.295577058639527Q9.77651,12.295577058639527,9.67991,12.276357058639526Q9.58331,12.257147058639527,9.49232,12.219447058639526Q9.40132,12.181757058639526,9.31943,12.127047058639526Q9.23754,12.072327058639527,9.16789,12.002677058639525Q9.09825,11.933037058639526,9.04353,11.851147058639526Q8.98881,11.769247058639527,8.95112,11.678257058639526Q8.91343,11.587257058639526,8.894210000000001,11.490667058639527Q8.875,11.394067058639527,8.875,11.295577058639527Q8.875,11.197077058639525,8.894210000000001,11.100477058639527Q8.91343,11.003887058639528,8.95112,10.912887058639527Q8.98881,10.821897058639525,9.04353,10.739997058639528Q9.09825,10.658107058639526,9.16789,10.588467058639527Q9.23754,10.518817058639527,9.31943,10.464107058639527Q9.40132,10.409387058639528,9.49232,10.371697058639526Q9.58331,10.334007058639527,9.67991,10.314787058639526Q9.77651,10.295577058639527,9.875,10.295577058639527Q9.97349,10.295577058639527,10.07009,10.314787058639526Q10.16669,10.334007058639527,10.25768,10.371697058639526Q10.34868,10.409387058639528,10.43057,10.464107058639527Q10.51246,10.518817058639527,10.58211,10.588467058639527Q10.65175,10.658107058639526,10.70647,10.739997058639528Q10.76119,10.821897058639525,10.79888,10.912887058639527Q10.83657,11.003887058639528,10.85578,11.100477058639527Q10.875,11.197077058639525,10.875,11.295577058639527Z" fill-rule="evenodd" fill="#FFFFFF"></path></g></g></symbol>
</svg>