<svg xmlns="http://www.w3.org/2000/svg" xmlns:xlink="http://www.w3.org/1999/xlink" style="position: absolute; width: 0; height: 0" aria-hidden="true" id="__SVG_SPRITE_NODE__">
<symbol xmlns="http://www.w3.org/2000/svg" viewBox="0 0 186 186" id="ic_blank_archived_habit_back_dark"><g fill="none" fill-rule="evenodd"><path d="M0,0.5 L145,0.5 C145,40.5406444 112.540644,73 72.5,73 C32.4593556,73 0,40.5406444 0,0.5 Z" fill="#4A4A4A" transform="translate(23.5 91.5)"></path><path d="M0.684027621,10.5 C0.233054325,7.23118966 0,3.8928112 0,0.5 L145,0.5 C145,3.8928112 144.766946,7.23118966 144.315972,10.5 L0.684027621,10.5 Z" fill="#818181" transform="translate(23.5 91.5)"></path><path d="M31.5,16.4969709 L17.5,16.4969709 L31.5,10.5 L113.5,10.5 L127.5,16.4969709 L113.5,16.4969709 L127.5,22.4939419 L17.5,22.4939419 L31.5,16.4969709 Z" fill="#313131" transform="translate(23.5 91.5)"></path><path d="M17.5,16.4969709 L59.0328024,16.4961878 C60.1373719,16.4961878 61.0328024,17.3916183 61.0328024,18.4961878 C61.0328024,18.4964489 61.0328023,18.49671 61.0328022,18.4969711 L61.0304526,20.4969708 C61.0300199,21.6015402 61.9250997,22.4973213 63.0296691,22.497754 C63.0299302,22.4977541 63.0301913,22.4977541 63.0304524,22.4977541 L82.0481654,22.4969709 C83.1527349,22.4969709 84.0481654,21.6015404 84.0481654,20.4969709 C84.0481654,20.4888915 84.0481164,20.4808122 84.0480185,20.4727333 L84.0243666,18.5212085 C84.0109806,17.4167202 84.8954938,16.5105039 85.9999822,16.4971178 C86.008061,16.4970199 86.0161403,16.4969709 86.0242198,16.4969709 L127.5,16.4969709 L127.5,40.5 L17.5,40.5 L17.5,16.4969709 Z" fill="#676767" transform="translate(23.5 91.5)"></path><path fill="#818181" d="M61 28.498H85V32.495000000000005H61z" transform="translate(23.5 91.5)"></path></g></symbol>
</svg>