<svg xmlns="http://www.w3.org/2000/svg" xmlns:xlink="http://www.w3.org/1999/xlink" style="position: absolute; width: 0; height: 0" aria-hidden="true" id="__SVG_SPRITE_NODE__">
<symbol xmlns="http://www.w3.org/2000/svg" viewBox="-187 189 1024 1024" id="ios"><path d="M526,691.7c-0.8-85.1,69.4-125.9,72.6-127.9c-39.5-57.8-101-65.7-122.9-66.6c-52.3-5.3-102.1,30.8-128.7,30.8 c-26.5,0-67.5-30-110.9-29.2c-57,0.8-109.6,33.2-139,84.2C37.9,685.8,82,838.1,139.7,921.5c28.2,40.8,61.9,86.7,106.1,85 c42.5-1.7,58.6-27.5,110.1-27.5c51.4,0,65.9,27.5,110.9,26.7c45.8-0.8,74.8-41.6,102.8-82.6c32.4-47.4,45.7-93.2,46.6-95.6 C615.2,827.1,526.9,793.3,526,691.7z M441.4,441.9c23.5-28.4,39.3-67.9,35-107.3c-33.8,1.4-74.7,22.5-99,50.9 c-21.8,25.2-40.8,65.4-35.7,104C379.4,492.4,417.9,470.3,441.4,441.9z"></path></symbol>
</svg>