<svg xmlns="http://www.w3.org/2000/svg" xmlns:xlink="http://www.w3.org/1999/xlink" style="position: absolute; width: 0; height: 0" aria-hidden="true" id="__SVG_SPRITE_NODE__">
<symbol xmlns="http://www.w3.org/2000/svg" viewBox="0 0 12 12" id="item-attachment"><path d="M9.95761,5.83857L6.1058,9.68538C5.14907,10.6415,3.59853,10.6412,2.64213,9.68478C1.685731,8.72839,1.685464,7.17784,2.64153,6.22112L6.83714,2.0255C7.40353,1.459117,8.321819999999999,1.459117,8.88821,2.0255C9.45459,2.59189,9.45459,3.51018,8.88821,4.07657L5.00053,7.95875C4.8244299999999996,8.13512,4.53866,8.13523,4.36242,7.95899C4.18618,7.78276,4.18629,7.49698,4.36267,7.32088L7.50938,4.18885C7.72454,3.9747,7.72617,3.62693,7.51303,3.41077C7.29811,3.19281,6.94681,3.19157,6.73036,3.40801L3.58733,6.55104C2.97995,7.15843,2.97995,8.1432,3.58733,8.75058C4.19472,9.35797,5.17948,9.35797,5.78687,8.75058L9.67454,4.8629C10.67217,3.86375,10.67094,2.24505,9.67179,1.2474180000000001C8.672640000000001,0.249788,7.05394,0.251019,6.05631,1.250167L1.866195,5.45128C0.526295,6.84357,0.547471,9.05224,1.91382,10.41859C3.28017,11.7849,5.48884,11.8061,6.88113,10.46622L10.73294,6.61441C10.9471,6.40024,10.9471,6.05299,10.73294,5.83882C10.51887,5.62475,10.17182,5.62463,9.95761,5.83857"></path></symbol>
<symbol xmlns="http://www.w3.org/2000/svg" viewBox="0 0 16 16" id="item-delete"><path d="M14.332763671875,4.33333L14.332763671875,12.3413C14.332763671875,13.8141,13.131263671875,15,11.658463671875,15L4.391073671875,15C2.888733671875,15,1.700303671875,13.7651,1.706483671875,12.2628C1.712563671875,10.78523,1.699293671875,9.25295,1.686373671875,7.76052C1.676123671875,6.57738,1.666093671875,5.41928,1.666093671875,4.33333L0.666096671875,4.33333C0.482001671875,4.33333,0.332763671875,4.184089999999999,0.332763671875,4L0.332763671875,3.33333C0.332763671875,3.14924,0.482001671875,3,0.666096671875,3L3.999433671875,3L3.999433671875,2.66667C3.999433671875,1.7830110000000001,4.687083671875,1.0599691,5.556473671875,1.00354004L5.666093671875,1L10.332763671875,1C11.216463671875,1,11.939463671875,1.6876959999999999,11.995863671875,2.55709L11.999463671875,2.66667L11.999463671875,3L15.332763671875,3C15.516863671875,3,15.666063671875,3.14924,15.666063671875,3.33333L15.666063671875,4C15.666063671875,4.184089999999999,15.516863671875,4.33333,15.332763671875,4.33333L14.332763671875,4.33333ZM6.333093671875,2.33331L9.666423671875,2.33331L9.726313671875,2.33868L9.782713671875,2.35419C9.909453671875,2.40138,9.999753671875,2.52346,9.999753671875,2.6666499999999997L9.999753671875,2.99998L5.999753671875,2.99998L5.999753671875,2.6666499999999997L6.005123671875,2.60671C6.033353671875,2.45121,6.169453671875,2.33331,6.333093671875,2.33331ZM12.999763671875,4.33331L12.999763671875,12.3439C12.999763671875,13.0802,12.414763671875,13.6666,11.678363671875,13.6666L4.342893671875,13.6666C3.606513671875,13.6666,2.999753671875,13.0661,2.999753671875,12.3298L2.999753671875,4.33331L12.999763671875,4.33331ZM7.001053671875,6.95835C7.001053671875,6.79727,6.851823671875,6.66669,6.667723671875,6.66669L6.001053671875,6.66669C5.816963671875,6.66669,5.667723671875,6.79727,5.667723671875,6.95835L5.667723671875,11.0417C5.667723671875,11.2028,5.816963671875,11.3334,6.001053671875,11.3334L6.667723671875,11.3334C6.851823671875,11.3334,7.001053671875,11.2028,7.001053671875,11.0417L7.001053671875,6.95835ZM10.333063671875,6.95835C10.333063671875,6.79727,10.183853671875,6.66669,9.999753671875,6.66669L9.333093671875,6.66669C9.148993671875,6.66669,8.999753671875,6.79727,8.999753671875,6.95835L8.999753671875,11.0417C8.999753671875,11.2028,9.148993671875,11.3334,9.333093671875,11.3334L9.999753671875,11.3334C10.183853671875,11.3334,10.333063671875,11.2028,10.333063671875,11.0417L10.333063671875,6.95835Z" fill-rule="evenodd"></path></symbol>
<symbol xmlns="http://www.w3.org/2000/svg" viewBox="0 0 24 24" id="item-habit-completed-thin"><g fill-rule="evenodd"><path fill="none" d="M0 0H24V24H0z"></path><path d="M18.0104076,4.64359236 C21.2621201,7.89530483 21.3284816,13.1261407 18.2094921,16.4586337 L18.0104076,16.6644076 L13.0606602,21.6141551 C12.5114854,22.1633299 11.642423,22.1976533 11.0532622,21.7171254 L10.9393398,21.6141551 L5.98959236,16.6644076 C2.67013588,13.3449512 2.67013588,7.96304884 5.98959236,4.64359236 C9.30904884,1.32413588 14.6909512,1.32413588 18.0104076,4.64359236 Z M7.40380592,6.05780592 C4.92731041,8.53430143 4.86690808,12.5119648 7.22259893,15.061688 L7.40380592,15.2501941 L12,19.846 L16.5961941,15.2501941 C19.0107772,12.835611 19.1285617,8.99398015 16.9495477,6.44017287 L16.7774011,6.24631201 L16.5961941,6.05780592 C14.0577862,3.51939803 9.94221382,3.51939803 7.40380592,6.05780592 Z M15.5001786,7.84332432 L16.277996,8.62114178 C16.453732,8.79687771 16.453732,9.08180195 16.277996,9.25753788 L12.042576,13.4927936 C12.040203,13.495276 12.0377961,13.4977378 12.0353553,13.5001786 L11.2575379,14.277996 C11.0818019,14.453732 10.7968777,14.453732 10.6211418,14.277996 L7.72200397,11.3788582 C7.54626804,11.2031223 7.54626804,10.9181981 7.72200397,10.7424621 L8.49982143,9.96464466 C8.67555736,9.78890873 8.9604816,9.78890873 9.13621754,9.96464466 L10.9386327,11.7670598 L14.8637825,7.84332432 C15.0395184,7.66758839 15.3244426,7.66758839 15.5001786,7.84332432 Z"></path></g></symbol>
<symbol xmlns="http://www.w3.org/2000/svg" viewBox="0 0 25 24" id="item-habit-thin"><g fill-rule="evenodd"><path fill="none" d="M0 0H24V24H0z" transform="translate(.5)"></path><path d="M5.98959236,4.64359236 C9.30904884,1.32413588 14.6909512,1.32413588 18.0104076,4.64359236 C21.2621201,7.89530483 21.3284816,13.1261407 18.2094921,16.4586337 L18.0104076,16.6644076 L13.0606602,21.6141551 C12.5114854,22.1633299 11.642423,22.1976533 11.0532622,21.7171254 L10.9393398,21.6141551 L5.98959236,16.6644076 C2.67013588,13.3449512 2.67013588,7.96304884 5.98959236,4.64359236 Z M16.5961941,6.05780592 C14.0577862,3.51939803 9.94221382,3.51939803 7.40380592,6.05780592 C4.92731041,8.53430143 4.86690808,12.5119648 7.22259893,15.061688 L7.40380592,15.2501941 L12,19.846 L16.5961941,15.2501941 C19.0107772,12.835611 19.1285617,8.99398015 16.9495477,6.44017287 L16.7774011,6.24631201 L16.5961941,6.05780592 Z M12.5,6.154 L12.5898756,6.16205567 C12.7939687,6.19909963 12.9549004,6.36003131 12.9919443,6.56412437 L13,6.654 L12.999,10.154 L15.5,10.154 L15.5898756,10.1620557 C15.7939687,10.1990996 15.9549004,10.3600313 15.9919443,10.5641244 L16,10.654 L16,11.654 L15.9919443,11.7438756 C15.9549004,11.9479687 15.7939687,12.1089004 15.5898756,12.1459443 L15.5,12.154 L11.5,12.154 L11.4101244,12.1459443 C11.2060313,12.1089004 11.0450996,11.9479687 11.0080557,11.7438756 L11,11.654 L11,6.654 L11.0080557,6.56412437 C11.0450996,6.36003131 11.2060313,6.19909963 11.4101244,6.16205567 L11.5,6.154 L12.5,6.154 Z" transform="translate(.5)"></path></g></symbol>
<symbol xmlns="http://www.w3.org/2000/svg" viewBox="0 0 24 24" id="item-habit-wont-do-thin"><g fill-rule="evenodd"><path fill="none" d="M0 0H24V24H0z"></path><path d="M18.0104076,4.64359236 C21.2621201,7.89530483 21.3284816,13.1261407 18.2094921,16.4586337 L18.0104076,16.6644076 L13.0606602,21.6141551 C12.5114854,22.1633299 11.642423,22.1976533 11.0532622,21.7171254 L10.9393398,21.6141551 L5.98959236,16.6644076 C2.67013588,13.3449512 2.67013588,7.96304884 5.98959236,4.64359236 C9.30904884,1.32413588 14.6909512,1.32413588 18.0104076,4.64359236 Z M7.40380592,6.05780592 C4.92731041,8.53430143 4.86690808,12.5119648 7.22259893,15.061688 L7.40380592,15.2501941 L12,19.846 L16.5961941,15.2501941 C19.0107772,12.835611 19.1285617,8.99398015 16.9495477,6.44017287 L16.7774011,6.24631201 L16.5961941,6.05780592 C14.0577862,3.51939803 9.94221382,3.51939803 7.40380592,6.05780592 Z M9.87867966,7.46446609 L12.0007071,9.58507933 L14.1213203,7.46446609 C14.3165825,7.26920395 14.633165,7.26920395 14.8284271,7.46446609 L15.5355339,8.17157288 C15.7307961,8.36683502 15.7307961,8.68341751 15.5355339,8.87867966 L13.4149207,10.9992929 L15.5355339,13.1213203 C15.7307961,13.3165825 15.7307961,13.633165 15.5355339,13.8284271 L14.8284271,14.5355339 C14.633165,14.7307961 14.3165825,14.7307961 14.1213203,14.5355339 L12.0007071,12.4135065 L9.87867966,14.5355339 C9.68341751,14.7307961 9.36683502,14.7307961 9.17157288,14.5355339 L8.46446609,13.8284271 C8.26920395,13.633165 8.26920395,13.3165825 8.46446609,13.1213203 L10.5864935,10.9992929 L8.46446609,8.87867966 C8.26920395,8.68341751 8.26920395,8.36683502 8.46446609,8.17157288 L9.17157288,7.46446609 C9.36683502,7.26920395 9.68341751,7.26920395 9.87867966,7.46446609 Z"></path></g></symbol>
<symbol xmlns="http://www.w3.org/2000/svg" viewBox="-2 -2 14 14" id="item-habit"><path d="M5,0c2.209,0,4,1.861,4,4.156c0,1.148-0.448,2.187-1.172,2.939l-2.47,2.537 C5.166,9.83,4.849,9.834,4.651,9.641l-0.01-0.01l-2.47-2.538C1.448,6.342,1,5.303,1,4.156C1,1.861,2.791,0,5,0z M5,1.5 c-0.245,0-0.45,0.177-0.492,0.41L4.5,2v2.5C4.5,4.776,4.724,5,5,5h1.5C6.776,5,7,4.776,7,4.5S6.776,4,6.5,4l0,0h-1V2 C5.5,1.724,5.276,1.5,5,1.5z" fill-rule="evenodd" clip-rule="evenodd"></path></symbol>
<symbol xmlns="http://www.w3.org/2000/svg" viewBox="0 0 24 24" id="item-location"><path d="M14.316903356933594,23.0655Q22.405003356933594,16.2175,22.405003356933594,10.9058C22.405003356933594,4.88271,17.748803356933593,0,12.005003356933594,0C6.261243356933594,0,1.6050033569335938,4.88271,1.6050033569335938,10.9058Q1.6050033569335938,16.2175,9.693123356933594,23.0655C11.038783356933594,24.2048,12.971203356933593,24.2048,14.316903356933594,23.0655ZM12.959303356933594,21.3023Q20.244003356933593,15.1346,20.244003356933593,10.9058Q20.244003356933593,7.32716,17.830803356933593,4.79665Q15.417703356933593,2.26615,12.005003356933594,2.26615Q8.592313356933595,2.26615,6.179173356933593,4.79665Q3.7660433569335936,7.32716,3.7660433569335936,10.9058Q3.7660433569335936,15.1346,11.050693356933595,21.3023Q11.465883356933594,21.6539,12.005003356933594,21.6539Q12.544103356933594,21.6539,12.959303356933594,21.3023Z" fill-rule="evenodd"></path><path d="M16,9.5C16,11.70914,14.20914,13.5,12,13.5C9.79086,13.5,8,11.70914,8,9.5C8,7.29086,9.79086,5.5,12,5.5C14.20914,5.5,16,7.29086,16,9.5ZM14,9.5Q14,8.67157,13.41422,8.08569Q12.82843,7.49991,12,7.5Q11.17157,7.5,10.58578,8.08569Q10,8.671479999999999,10,9.5Q10,10.32843,10.58578,10.91431Q11.17157,11.50009,12,11.5Q12.82843,11.5,13.41422,10.91431Q14,10.328520000000001,14,9.5Z" fill-rule="evenodd"></path></symbol>
<symbol xmlns="http://www.w3.org/2000/svg" viewBox="0 0 24 24" id="item-note"><g fill-rule="evenodd"><path fill="none" d="M0 0L24 0 24 16.1516614 24 24 0 24z"></path><path d="M18.5,4 C19.3284271,4 20,4.67157288 20,5.5 L20.0013904,15.7683896 C19.9988766,15.9124622 19.9543957,16.0581711 19.8603124,16.1870833 L19.7803301,16.2803301 L16.2803301,19.7803301 C16.124773,19.9358872 15.9328608,20.0039558 15.7453947,20.0014362 L5.5,20 C4.67157288,20 4,19.3284271 4,18.5 L4,5.5 C4,4.67157288 4.67157288,4 5.5,4 L18.5,4 Z M18,13.8461538 L18,6 L6,6 L6,18 L13.8461538,18 L13.8461538,15.3692308 C13.8461538,14.6396374 14.3614481,14.0219472 15.0928718,13.8748671 L15.2324734,13.8528922 L15.3692308,13.8461538 L18,13.8461538 Z M15.6692709,15.4688776 L15.6057489,15.4712397 C15.5446974,15.4783307 15.4945298,15.5220875 15.4769048,15.5795103 L15.4701262,15.6247804 L15.4701262,17.9688776 L17.9698738,15.46913 L15.6692709,15.4688776 Z M13.5,12 C13.7761424,12 14,12.2984768 14,12.6666667 L14,13.3333333 C14,13.7015232 13.7761424,14 13.5,14 L8.5,14 C8.22385763,14 8,13.7015232 8,13.3333333 L8,12.6666667 C8,12.2984768 8.22385763,12 8.5,12 L13.5,12 Z M15.5,8.5 C15.7761424,8.5 16,8.79847683 16,9.16666667 L16,9.83333333 C16,10.2015232 15.7761424,10.5 15.5,10.5 L8.5,10.5 C8.22385763,10.5 8,10.2015232 8,9.83333333 L8,9.16666667 C8,8.79847683 8.22385763,8.5 8.5,8.5 L15.5,8.5 Z"></path></g></symbol>
<symbol xmlns="http://www.w3.org/2000/svg" viewBox="0 0 16 16" id="item-reminder-outline"><defs><clipPath id="item-reminder-outline_a"><rect width="16" height="16" rx="0"></rect></clipPath></defs><g clip-path="url(#item-reminder-outline_a)"><path d="M1.4480411874999999,5.425613917388916C1.5590721875,5.536643917388916,1.6798521875,5.637923917388916,1.8089821875,5.728073917388916C1.5019311874999999,6.494273917388916,1.3330081875,7.330733917388916,1.3330081875,8.206643917388917C1.3330081875,9.968213917388915,2.0162321875,11.570223917388915,3.1321521875,12.762123917388916L2.1388321875000003,14.049723917388915C1.9139521875,14.341323917388916,1.9679721875,14.759923917388916,2.2595021875,14.984823917388916C2.5510421875000002,15.209723917388915,2.9696721875,15.155723917388917,3.1945621875,14.864123917388916L4.1377521875,13.641423917388916C5.2273821875,14.417123917388915,6.5602521875,14.873323917388916,7.9996721875,14.873323917388916C9.4392821875,14.873323917388916,10.7722921875,14.417023917388915,11.8619921875,13.641123917388915L12.8053921875,14.864123917388916C13.0302921875,15.155723917388917,13.4489921875,15.209723917388915,13.7404921875,14.984823917388916C14.0319921875,14.759923917388916,14.0860921875,14.341323917388916,13.8611921875,14.049723917388915L12.8675921875,12.761723917388917C13.9832921875,11.569823917388916,14.6662921875,9.968023917388916,14.6662921875,8.206643917388917C14.6662921875,7.330873917388916,14.4974921875,6.494533917388916,14.1904921875,5.728423917388916C14.3197921875,5.638193917388916,14.4407921875,5.536783917388916,14.5519921875,5.425613917388916C15.0344921875,4.943033917388916,15.3329921875,4.276373917388916,15.3329921875,3.539993917388916C15.3329921875,2.067233917388916,14.1390921875,0.873323917388916,12.6662921875,0.873323917388916C11.9299921875,0.873323917388916,11.2632921875,1.1718009173889161,10.7806921875,1.654372917388916C10.6695921875,1.7655479173889161,10.5681421875,1.886493917388916,10.4779121875,2.015813917388916C9.7118021875,1.708852917388916,8.8754621875,1.5399799173889162,7.9996721875,1.5399799173889162C7.1240821875,1.5399799173889162,6.2879221875,1.708778917388916,5.5219521875,2.015613917388916C5.4317521875,1.886363917388916,5.3303921875,1.765489917388916,5.2192821875,1.654372917388916C4.7367021875,1.1718009173889161,4.0700421875,0.873323917388916,3.3336621875,0.873323917388916C1.8609021875,0.873323917388916,0.6669921875,2.067233917388916,0.6669921875,3.539993917388916C0.6669921875,4.276373917388916,0.9654691875,4.943033917388916,1.4480411874999999,5.425613917388916ZM4.2764721875,2.597183917388916Q4.3000121875,2.620723917388916,4.3222021875,2.645143917388916C3.5751621875,3.140103917388916,2.9336421875,3.781553917388916,2.4385921875000003,4.528533917388916Q2.4144321875,4.506373917388916,2.3908521875,4.482803917388916Q2.0003221875,4.0922739173889155,2.0003221875,3.539993917388916Q2.0003221875,2.987703917388916,2.3908521875,2.597183917388916Q2.7813721875,2.206653917388916,3.3336621875,2.206653917388916Q3.8859421875,2.206653917388916,4.2764721875,2.597183917388916ZM13.6091921875,4.482803917388916Q13.5853921875,4.506573917388916,13.5609921875,4.5289039173889165C13.0659921875,3.781903917388916,12.4245921875,3.140413917388916,11.6775921875,2.645413917388916Q11.6998921875,2.6208539173889163,11.7234921875,2.597183917388916Q12.1140921875,2.206653917388916,12.6662921875,2.206653917388916Q13.2185921875,2.206653917388916,13.6091921875,2.597183917388916Q13.9996921875,2.987703917388916,13.9996921875,3.539993917388916Q13.9996921875,4.0922739173889155,13.6091921875,4.482803917388916ZM12.8434921875,6.200863917388916L12.9228921875,6.155513917388916Q12.5182921875,5.182843917388916,11.7708921875,4.4354139173889156Q10.9898921875,3.654363917388916,9.9628521875,3.247773917388916Q9.0169721875,2.873313917388916,7.9996721875,2.873313917388916Q6.9823721875,2.873313917388916,6.0365021875,3.247773917388916Q5.0094821875,3.654363917388916,4.2284421875,4.4354139173889156Q3.4473921875,5.216463917388916,3.0408021875,6.243473917388916Q2.6663421874999997,7.189353917388916,2.6663421874999997,8.206643917388917Q2.6663421874999997,9.223943917388915,3.0408021875,10.169823917388916Q3.4473921875,11.196823917388915,4.2284421875,11.977923917388916Q5.0094921875,12.758923917388916,6.0365021875,13.165523917388915Q6.9823721875,13.540023917388917,7.9996721875,13.540023917388917Q9.0169721875,13.540023917388917,9.9628521875,13.165523917388915Q10.9898921875,12.758923917388916,11.7708921875,11.977923917388916Q12.5519921875,11.196823917388915,12.9585921875,10.169823917388916Q13.3329921875,9.223943917388915,13.3329921875,8.206643917388917Q13.3329921875,7.189343917388916,12.9585921875,6.243473917388916Q12.9484921875,6.218113917388916,12.9382921875,6.192963917388916C12.9067921875,6.196143917388916,12.8751921875,6.198783917388916,12.8434921875,6.200863917388916ZM7.3330121875,8.206653917388916L7.3330121875,5.539993917388916Q7.3330121875,5.474333917388916,7.3458121875,5.409933917388916Q7.3586221875,5.345533917388916,7.3837521875,5.284863917388916Q7.4088821875,5.224203917388916,7.4453621875,5.169613917388916Q7.4818421875,5.115013917388916,7.5282721875,5.068583917388916Q7.5747021875,5.022153917388916,7.6292921875,4.985673917388916Q7.6838921875,4.949193917388916,7.7445521875,4.924073917388916Q7.8052121875,4.898943917388916,7.8696121875,4.886133917388916Q7.9340121875,4.873323917388916,7.9996721875,4.873323917388916Q8.065332187500001,4.873323917388916,8.1297321875,4.886133917388916Q8.1941321875,4.898943917388916,8.2547921875,4.924073917388916Q8.3154621875,4.949193917388916,8.3700521875,4.985673917388916Q8.4246521875,5.022153917388916,8.4710821875,5.068583917388916Q8.5175121875,5.115013917388916,8.5539821875,5.169613917388916Q8.5904621875,5.224203917388916,8.615592187499999,5.284863917388916Q8.6407221875,5.345533917388916,8.6535321875,5.409933917388916Q8.6663421875,5.474333917388916,8.6663421875,5.539993917388916L8.6663421875,7.539993917388916L9.9996721875,7.539993917388916Q10.0653321875,7.539993917388916,10.1297321875,7.552803917388916Q10.1941321875,7.565613917388916,10.2547921875,7.590733917388916Q10.3154621875,7.615863917388916,10.3700521875,7.652343917388916Q10.4246521875,7.688823917388916,10.4710821875,7.735253917388916Q10.5175021875,7.781683917388916,10.5539821875,7.836273917388916Q10.5904621875,7.890873917388916,10.6155921875,7.951533917388916Q10.6407221875,8.012193917388917,10.6535321875,8.076593917388916Q10.6663421875,8.140993917388915,10.6663421875,8.206653917388916Q10.6663421875,8.272313917388917,10.6535321875,8.336713917388916Q10.6407221875,8.401113917388916,10.6155921875,8.461773917388916Q10.5904621875,8.522443917388916,10.5539821875,8.577033917388917Q10.5175021875,8.631633917388916,10.4710821875,8.678063917388915Q10.4246521875,8.724493917388916,10.3700521875,8.760973917388917Q10.3154621875,8.797443917388916,10.2547921875,8.822573917388915Q10.1941321875,8.847703917388916,10.1297321875,8.860513917388916Q10.0653321875,8.873323917388916,9.9996721875,8.873323917388916L7.9996721875,8.873323917388916Q7.9417021875,8.873323917388916,7.8846021875,8.863313917388915Q7.8275021875,8.853313917388917,7.7729821875,8.833603917388917Q7.7184721875,8.813883917388916,7.6681721875,8.785063917388916Q7.6178721875,8.756233917388915,7.5733121875,8.719163917388915Q7.5287421875,8.682083917388915,7.4912521875,8.637873917388916Q7.4537521875,8.593663917388916,7.4244521875,8.543643917388916Q7.3951421875,8.493623917388916,7.3749121875,8.439293917388916Q7.3546821875,8.384963917388916,7.3441421875,8.327963917388917Q7.3330121875,8.267823917388917,7.3330121875,8.206653917388916Z" fill-rule="evenodd"></path></g></symbol>
<symbol xmlns="http://www.w3.org/2000/svg" viewBox="0 0 12 12" id="item-reminder"><path d="M1.0857860000000001,4.069209971389771C1.16917,4.152599971389771,1.259881,4.228649971389771,1.356872,4.2963299713897705C1.126654,4.8709099713897706,1,5.498159971389771,1,6.1549999713897705C1,7.476099971389771,1.51236,8.67752997138977,2.34922,9.57142997138977L1.60413,10.53731997138977C1.435463,10.755999971389771,1.4759820000000001,11.06989997138977,1.69463,11.238599971389771C1.91328,11.40729997138977,2.2272600000000002,11.36679997138977,2.3959200000000003,11.14809997138977L3.10339,10.23097997138977C3.92065,10.81279997138977,4.92036,11.15499997138977,6,11.15499997138977C7.07964,11.15499997138977,8.07935,10.81279997138977,8.89661,10.23097997138977L9.60408,11.14809997138977C9.77274,11.36679997138977,10.08672,11.40729997138977,10.30537,11.238599971389771C10.524,11.06989997138977,10.5645,10.755999971389771,10.39587,10.53731997138977L9.65078,9.57142997138977C10.48764,8.67752997138977,11,7.476099971389771,11,6.1549999713897705C11,5.498159971389771,10.8733,4.8709099713897706,10.6431,4.2963299713897705C10.7401,4.228649971389771,10.8308,4.152599971389771,10.9142,4.069209971389771C11.2761,3.7072799713897706,11.5,3.2072799713897706,11.5,2.6549999713897705C11.5,1.5504299713897705,10.6046,0.6549999713897705,9.5,0.6549999713897705C8.94772,0.6549999713897705,8.44772,0.8788579713897705,8.08579,1.2407859713897706C8.0024,1.3241699713897706,7.92635,1.4148819713897705,7.85867,1.5118719713897706C7.28409,1.2816539713897706,6.65684,1.1549999713897705,6,1.1549999713897705C5.34316,1.1549999713897705,4.71591,1.2816539713897706,4.14133,1.5118729713897705C4.073650000000001,1.4148819713897705,3.9976,1.3241699713897706,3.91421,1.2407859713897706C3.55228,0.8788579713897705,3.05228,0.6549999713897705,2.5,0.6549999713897705C1.39543,0.6549999713897705,0.5,1.5504299713897705,0.5,2.6549999713897705C0.5,3.2072799713897706,0.723858,3.7072799713897706,1.0857860000000001,4.069209971389771ZM3.20711,1.9478899713897706Q3.22487,1.9656499713897706,3.24159,1.9840699713897705C2.68135,2.3553299713897706,2.20025,2.8364399713897703,1.82901,3.3966899713897707Q1.81073,3.3799399713897706,1.79289,3.3621099713897706Q1.5,3.0692099713897707,1.5,2.6549999713897705Q1.5,2.2407899713897708,1.79289,1.9478899713897706Q2.0857900000000003,1.6549999713897705,2.5,1.6549999713897705Q2.91421,1.6549999713897705,3.20711,1.9478899713897706ZM10.20711,3.3621099713897706Q10.18927,3.3799399713897706,10.17099,3.3966899713897707C9.79975,2.8364399713897703,9.31865,2.3553299713897706,8.75841,1.9840699713897705Q8.77513,1.9656499713897706,8.79289,1.9478899713897706Q9.08579,1.6549999713897705,9.5,1.6549999713897705Q9.91421,1.6549999713897705,10.20711,1.9478899713897706Q10.5,2.2407899713897708,10.5,2.6549999713897705Q10.5,3.0692099713897707,10.20711,3.3621099713897706ZM9.63257,4.650679971389771L9.69233,4.61652997138977Q9.38895,3.8870999713897705,8.82843,3.3265699713897705Q8.24264,2.7407899713897703,7.47238,2.4358499713897706Q6.76297,2.1549999713897705,6,2.1549999713897705Q5.23703,2.1549999713897705,4.52762,2.4358499713897706Q3.75736,2.7407899713897703,3.17157,3.3265699713897705Q2.58579,3.9123599713897703,2.28085,4.68261997138977Q2,5.39202997138977,2,6.1549999713897705Q2,6.917969971389771,2.28085,7.627379971389771Q2.58579,8.39763997138977,3.17157,8.983429971389771Q3.75736,9.569209971389771,4.52762,9.874149971389771Q5.23703,10.15499997138977,6,10.15499997138977Q6.76298,10.15499997138977,7.47238,9.874149971389771Q8.24264,9.569209971389771,8.82843,8.983429971389771Q9.41421,8.39763997138977,9.71915,7.627379971389771Q10,6.917969971389771,10,6.1549999713897705Q10,5.39202997138977,9.71915,4.68261997138977Q9.71163,4.66361997138977,9.70394,4.64472997138977C9.68027,4.64712997138977,9.65647,4.649109971389771,9.63257,4.650679971389771ZM5.5,6.1549999713897705C5.5,6.43113997138977,5.72386,6.6549999713897705,6,6.6549999713897705L7.5,6.6549999713897705C7.77614,6.6549999713897705,8,6.43113997138977,8,6.1549999713897705C8,5.878859971389771,7.77614,5.6549999713897705,7.5,5.6549999713897705L6.5,5.6549999713897705L6.5,3.6549999713897705C6.5,3.3788599713897707,6.27614,3.1549999713897705,6,3.1549999713897705C5.72386,3.1549999713897705,5.5,3.3788599713897707,5.5,3.6549999713897705L5.5,6.1549999713897705Z" fill-rule="evenodd"></path></symbol>
<symbol xmlns="http://www.w3.org/2000/svg" viewBox="0 0 24 24" id="item-repeat-thin"><g fill-rule="evenodd"><path fill="none" d="M0 0H24V24H0z"></path><path d="M19.2733596,6.69828059 C20.3888233,8.22624558 21,10.0683493 21,12 C21,16.9705627 16.9705627,21 12,21 C10.3849601,21 8.83085716,20.5729964 7.46811044,19.7772538 L6.74839425,19.3168568 L6.38282434,19.0323074 L9.03399671,15.7278918 L9.53399671,18.553652 L9.68125672,18.6120624 C10.4144349,18.8901093 11.1981384,19 12,19 C15.8659932,19 19,15.8659932 19,12 C19,10.5961362 18.586723,9.25691675 17.8262574,8.11838686 L17.6181651,7.80350444 L19.0323074,6.38282434 L19.2733596,6.69828059 Z M4.68836957,17.2594862 C3.57290591,15.7315213 2.96172921,13.8894175 2.96172921,11.9577668 C2.96172921,6.98720408 6.99116646,2.95776683 11.9617292,2.95776683 C13.5767691,2.95776683 15.1308721,3.38477042 16.4936188,4.18051299 L17.213335,4.64091006 L17.5789049,4.9254594 L14.9277325,8.22987507 L14.4277325,5.40411483 L14.2804725,5.34570445 C13.5472943,5.06765751 12.7635908,4.95776683 11.9617292,4.95776683 C8.09573596,4.95776683 4.96172921,8.09177358 4.96172921,11.9577668 C4.96172921,13.3616306 5.37500623,14.7008501 6.13547183,15.83938 L6.34356416,16.1542624 L4.92942178,17.5749425 L4.68836957,17.2594862 Z"></path></g></symbol>
<symbol xmlns="http://www.w3.org/2000/svg" viewBox="0 0 12 12" id="item-repeat"><path d="M7.85355,3.91487244140625L8.91421,2.8542124414062497C9.10948,2.65895244140625,9.10948,2.34237244140625,8.91421,2.14711244140625L7.85355,1.08644944140625C7.65829,0.89118694140625,7.34171,0.89118694140625,7.14645,1.08644944140625C6.95118,1.28171144140625,6.95118,1.59829344140625,7.14645,1.79355544140625L7.35295,2.00006244140625L4.5,2.00006244140625C2.29086,2.00006244140625,0.5,3.79092244140625,0.5,6.00006244140625C0.5,6.74764244140625,0.705083,7.44732244140625,1.062058,8.04591244140625C1.216136,8.304272441406251,1.5638,8.314972441406251,1.77651,8.10226244140625C1.95523,7.92354244140625,1.9675,7.63952244140625,1.84667,7.41753244140625Q1.5,6.78059244140625,1.5,6.00006244140625Q1.5,4.75742244140625,2.37868,3.87874244140625Q3.25736,3.00006244140625,4.5,3.00006244140625L7.35416,3.00006244140625L7.14645,3.20777244140625C6.95118,3.40303244140625,6.95118,3.71961244140625,7.14645,3.91487244140625C7.34171,4.11014244140625,7.65829,4.11014244140625,7.85355,3.91487244140625ZM10.15333,4.5826124414062495C10.03251,4.36061244140625,10.04478,4.07660244140625,10.2235,3.89788244140625C10.43621,3.68517244140625,10.7839,3.69586244140625,10.938,3.95423244140625C11.2949,4.55281244140625,11.5,5.25249244140625,11.5,6.00006244140625C11.5,8.20920244140625,9.70914,10.00006244140625,7.5,10.00006244140625L4.64764,10.00006244140625L4.85416,10.20658244140625C5.04942,10.40184244140625,5.04942,10.71841244140625,4.85416,10.91367244140625C4.65889,11.10890244140625,4.3423099999999994,11.10890244140625,4.14705,10.91367244140625L3.08639,9.85303244140625C2.89113,9.65777244140625,2.89113,9.34117244140625,3.08639,9.14591244140625L4.14705,8.085242441406251C4.3423099999999994,7.88998244140625,4.6589,7.88998244140625,4.85416,8.085242441406251C5.04942,8.280502441406249,5.04942,8.59710244140625,4.85416,8.792362441406251L4.64646,9.00006244140625L7.5,9.00006244140625Q8.74264,9.00006244140625,9.62132,8.12138244140625Q10.5,7.24270244140625,10.5,6.00006244140625Q10.5,5.21954244140625,10.15333,4.5826124414062495Z" fill-rule="evenodd"></path></symbol>
<symbol xmlns="http://www.w3.org/2000/svg" viewBox="0 0 24 24" id="item-text"><path d="M30.06666612625122,7.625000095367431Q30.06666612625122,7.221142095367432,30.35223712625122,6.935571095367432Q30.637808126251223,6.650000095367432,31.041666126251222,6.650000095367432L40.95836612625122,6.650000095367432Q41.362166126251225,6.650000095367432,41.64776612625122,6.935571095367432Q41.93336612625122,7.221140095367431,41.93336612625122,7.625000095367431Q41.93336612625122,8.028860095367431,41.64776612625122,8.314430095367431Q41.362166126251225,8.600000095367431,40.95836612625122,8.600000095367431L31.041666126251222,8.600000095367431Q30.637808126251223,8.600000095367431,30.35223712625122,8.314430095367431Q30.06666612625122,8.028860095367431,30.06666612625122,7.625000095367431ZM32.98332612625122,12.000000095367431Q32.98332612625122,11.596140095367431,33.26889612625122,11.310570095367432Q33.554476126251224,11.025000095367432,33.95832612625122,11.025000095367432L40.95836612625122,11.025000095367432Q41.362166126251225,11.025000095367432,41.64776612625122,11.310570095367432Q41.93336612625122,11.596140095367431,41.93336612625122,12.000000095367431Q41.93336612625122,12.403860095367431,41.64776612625122,12.689430095367431Q41.362166126251225,12.975000095367431,40.95836612625122,12.975000095367431L37.45832612625122,12.975000095367431L33.95832612625122,12.975000095367431Q33.554476126251224,12.975000095367431,33.26889612625122,12.689430095367431Q32.98332612625122,12.403860095367431,32.98332612625122,12.000000095367431ZM32.98332612625122,16.375000095367433Q32.98332612625122,15.971140095367431,33.26889612625122,15.685570095367432Q33.55446612625122,15.400000095367432,33.95832612625122,15.400000095367432L40.95836612625122,15.400000095367432Q41.362166126251225,15.400000095367432,41.64776612625122,15.685570095367432Q41.93336612625122,15.971140095367431,41.93336612625122,16.375000095367433Q41.93336612625122,16.778900095367433,41.64776612625122,17.064400095367432Q41.362166126251225,17.35000009536743,40.95836612625122,17.35000009536743L33.95832612625122,17.35000009536743Q33.55446612625122,17.35000009536743,33.26889612625122,17.064400095367432Q32.98332612625122,16.778900095367433,32.98332612625122,16.375000095367433Z" fill-rule="evenodd" transform="matrix(-1 0 0 1 48 0)"></path><path d="M46.5,18.5L46.5,5.5Q46.5,3.84314,45.3284,2.671573Q44.1569,1.5,42.5,1.5L29.5,1.5Q27.84315,1.5,26.671573,2.671573Q25.5,3.84315,25.5,5.5L25.5,18.5Q25.5,20.1569,26.671573,21.3284Q27.84314,22.5,29.5,22.5L42.5,22.5Q44.1569,22.5,45.3284,21.3284Q46.5,20.1569,46.5,18.5ZM44.5,5.5L44.5,18.5Q44.5,19.3284,43.9142,19.9142Q43.3284,20.5,42.5,20.5L29.5,20.5Q28.67157,20.5,28.08579,19.9142Q27.5,19.3284,27.5,18.5L27.5,5.5Q27.5,4.67157,28.08579,4.08579Q28.67157,3.5,29.5,3.5L42.5,3.5Q43.3284,3.5,43.9142,4.08579Q44.5,4.67157,44.5,5.5Z" fill-rule="evenodd" transform="matrix(-1 0 0 1 48 0)"></path></symbol>
<symbol xmlns="http://www.w3.org/2000/svg" viewBox="0 0 24 24" id="item-wont-do"><path d="M7.83802077,6.22298931 L12.25,10.6352124 L16.6619792,6.22298931 C16.9364276,5.94854093 17.3682794,5.92742951 17.6669437,6.15965507 L17.7386669,6.22298931 L18.2770107,6.76133313 C18.5514591,7.03578151 18.5725705,7.46763331 18.3403449,7.7662976 L18.2770107,7.83802077 L13.8647876,12.25 L18.2770107,16.6619792 C18.5743298,16.9592983 18.5743298,17.4413478 18.2770107,17.7386669 L17.7386669,18.2770107 C17.4413478,18.5743298 16.9592983,18.5743298 16.6619792,18.2770107 L12.25,13.8647876 L7.83802077,18.2770107 C7.56357238,18.5514591 7.13172059,18.5725705 6.8330563,18.3403449 L6.76133313,18.2770107 L6.22298931,17.7386669 C5.94854093,17.4642185 5.92742951,17.0323667 6.15965507,16.7337024 L6.22298931,16.6619792 L10.6352124,12.25 L6.22298931,7.83802077 C5.92567023,7.54070169 5.92567023,7.05865221 6.22298931,6.76133313 L6.76133313,6.22298931 C7.05865221,5.92567023 7.54070169,5.92567023 7.83802077,6.22298931 Z" fill-rule="evenodd"></path></symbol>
</svg>