<svg xmlns="http://www.w3.org/2000/svg" xmlns:xlink="http://www.w3.org/1999/xlink" style="position: absolute; width: 0; height: 0" aria-hidden="true" id="__SVG_SPRITE_NODE__">
<symbol xmlns="http://www.w3.org/2000/svg" viewBox="0 0 12 12" id="kalendae-chevron-left"><path d="M18.14617422920227,8.116204742218018C18.34143422920227,8.311464742218018,18.34144422920227,8.628040742218017,18.146194229202273,8.823310742218018L14.85366422920227,12.116193742218018L18.146194229202273,15.409073742218018C18.34144422920227,15.604353742218017,18.34143422920227,15.920923742218019,18.14617422920227,16.11618374221802C17.950904229202273,16.311453742218017,17.63431422920227,16.311453742218017,17.43904422920227,16.11618374221802L14.14616422920227,12.823303742218018C13.75564012920227,12.432773742218018,13.75564012920227,11.799613742218018,14.14616422920227,11.409083742218018L17.43904422920227,8.116203742218017C17.63431422920227,7.920936842218017,17.950904229202273,7.920936942218018,18.14617422920227,8.116204742218018Z" transform="translate(-9.823 -6.116)"></path></symbol>
<symbol xmlns="http://www.w3.org/2000/svg" viewBox="0 0 12 12" id="kalendae-chevron-right"><path d="M6.146174229202271,8.116204742218018C6.34143422920227,8.311464742218018,6.341444229202271,8.628040742218017,6.146194229202271,8.823310742218018L2.8536642292022707,12.116193742218018L6.146194229202271,15.409073742218018C6.341444229202271,15.604353742218017,6.34143422920227,15.920923742218019,6.146174229202271,16.11618374221802C5.950904229202271,16.311453742218017,5.63431422920227,16.311453742218017,5.4390442292022705,16.11618374221802L2.1461642292022707,12.823303742218018C1.7556401292022705,12.432773742218018,1.7556401292022705,11.799613742218018,2.1461642292022707,11.409083742218018L5.4390442292022705,8.116203742218017C5.63431422920227,7.920936842218017,5.950904229202271,7.920936942218018,6.146174229202271,8.116204742218018Z" transform="matrix(-1 0 0 1 9.823 -6.116)"></path></symbol>
</svg>