<svg xmlns="http://www.w3.org/2000/svg" xmlns:xlink="http://www.w3.org/1999/xlink" style="position: absolute; width: 0; height: 0" aria-hidden="true" id="__SVG_SPRITE_NODE__">
<symbol xmlns="http://www.w3.org/2000/svg" viewBox="0 0 16 16" id="menu-start-pomo"><path d="M8.00001701171875,15.33320390625C12.05008701171875,15.33320390625,15.33338701171875,12.04990390625,15.33338701171875,7.99983390625C15.33338701171875,3.94974390625,12.05008701171875,0.66650390625,8.00001701171875,0.66650390625C3.94992701171875,0.66650390625,0.66668701171875,3.94974390625,0.66668701171875,7.99983390625C0.66668701171875,12.04990390625,3.94992701171875,15.33320390625,8.00001701171875,15.33320390625ZM13.57878701171875,5.79126390625Q13.99998701171875,6.85537390625,13.99998701171875,7.99983390625Q13.99998701171875,9.14429390625,13.57878701171875,10.20840390625Q13.12138701171875,11.36380390625,12.24268701171875,12.24250390625Q11.36398701171875,13.12120390625,10.20858701171875,13.57860390625Q9.14447701171875,13.99980390625,8.00001701171875,13.99980390625Q6.85555701171875,13.99980390625,5.79144701171875,13.57860390625Q4.63605701171875,13.12120390625,3.75737701171875,12.24250390625Q2.87869701171875,11.36380390625,2.42128701171875,10.20840390625Q2.00001701171875,9.14429390625,2.00001701171875,7.99983390625Q2.00001701171875,6.85537390625,2.42128701171875,5.79126390625Q2.87869701171875,4.63587390625,3.75737701171875,3.75719390625Q4.63605701171875,2.87851390625,5.79144701171875,2.42110390625Q6.85555701171875,1.99983390625,8.00001701171875,1.99983390625Q9.14447701171875,1.99983390625,10.20858701171875,2.42110390625Q11.36398701171875,2.87851390625,12.24268701171875,3.75719390625Q13.12138701171875,4.63587390625,13.57878701171875,5.79126390625ZM8.00010701171875,10.66680390625C9.47285701171875,10.66680390625,10.66678701171875,9.47292390625,10.66678701171875,8.00016390625C10.66678701171875,6.52740390625,9.47285701171875,5.33349390625,8.00010701171875,5.33349390625C6.52734701171875,5.33349390625,5.33343701171875,6.52740390625,5.33343701171875,8.00016390625C5.33343701171875,9.47292390625,6.52734701171875,10.66680390625,8.00010701171875,10.66680390625ZM8.94290701171875,7.05735390625Q9.33343701171875,7.44787390625,9.33343701171875,8.00016390625Q9.33343701171875,8.55244390625,8.94290701171875,8.94297390625Q8.55238701171875,9.33349390625,8.00010701171875,9.33349390625Q7.44781701171875,9.33349390625,7.05729701171875,8.94297390625Q6.66676701171875,8.55244390625,6.66676701171875,8.00016390625Q6.66676701171875,7.44787390625,7.05729701171875,7.05735390625Q7.44781701171875,6.66683390625,8.00010701171875,6.66683390625Q8.55238701171875,6.66683390625,8.94290701171875,7.05735390625Z" fill-rule="evenodd"></path></symbol>
<symbol xmlns="http://www.w3.org/2000/svg" viewBox="0 0 24 24" id="menu-tag"><path d="M16.812199980926515,21.054799980926514C15.250099980926514,22.616899980926515,12.717399980926514,22.616899980926515,11.155309980926514,21.054799980926514L3.318579980926514,13.218099980926514C2.633474980926514,12.532999980926514,2.2203219809265136,11.622469980926514,2.1558719809265137,10.655729980926514L1.7768039709265138,4.969719980926514C1.6560669809265136,3.1586599809265135,3.1586599809265135,1.6560669809265136,4.969719980926514,1.7768039709265138L10.655729980926514,2.1558709809265135C11.622479980926514,2.220320980926514,12.532999980926514,2.6334739809265137,13.218099980926514,3.318579980926514L21.054899980926514,11.155379980926513C22.616899980926515,12.717499980926513,22.616899980926515,15.250099980926514,21.054899980926514,16.812199980926515L16.812199980926515,21.054799980926514ZM13.983699980926513,20.226399980926512Q13.155299980926515,20.226399980926512,12.569599980926514,19.640599980926513L4.732799980926513,11.803899980926513Q4.201429980926514,11.272499980926513,4.151439980926513,10.522689980926513L3.7723699809265137,4.8366799809265135Q3.742189980926514,4.383909980926514,4.063049980926514,4.063049980926514Q4.383919980926514,3.742189980926514,4.8366799809265135,3.7723699809265137L10.522689980926513,4.151439980926513Q11.272499980926513,4.201429980926514,11.803899980926513,4.732799980926513L19.640599980926513,12.569599980926514Q20.226399980926512,13.155299980926515,20.226399980926512,13.983699980926513Q20.226399980926512,14.812199980926513,19.640599980926513,15.397899980926514L15.397999980926514,19.640599980926513Q14.812199980926513,20.226399980926512,13.983699980926513,20.226399980926512ZM6.6236799809265134,8.745019980926514C6.037899980926514,8.159229980926515,6.037899980926514,7.209519980926514,6.6236799809265134,6.623729980926513C7.209469980926514,6.037939980926514,8.159199980926513,6.037909980926513,8.744989980926514,6.623699980926514C9.330779980926515,7.209489980926514,9.330779980926515,8.159279980926513,8.744989980926514,8.745069980926512C8.159199980926513,9.330849980926514,7.209469980926514,9.330809980926514,6.6236799809265134,8.745019980926514Z" fill-rule="evenodd"></path></symbol>
</svg>