<svg xmlns="http://www.w3.org/2000/svg" xmlns:xlink="http://www.w3.org/1999/xlink" style="position: absolute; width: 0; height: 0" aria-hidden="true" id="__SVG_SPRITE_NODE__">
<symbol xmlns="http://www.w3.org/2000/svg" viewBox="0 0 24 24" id="mobile-android-back"><path fill-rule="evenodd" clip-rule="evenodd" d="M20 11L7.83 11 13.42 5.41 12 4 4 12 12 20 13.41 18.59 7.83 13 20 13z"></path></symbol>
<symbol xmlns="http://www.w3.org/2000/svg" viewBox="0 0 24 24" id="mobile-edit"><path d="M19,13v3.928l-0.004,0.419c-0.019,0.831-0.105,1.189-0.302,1.557 c-0.184,0.343-0.447,0.607-0.791,0.791C17.48,19.92,17.068,20,15.928,20H7.072l-0.419-0.004c-0.831-0.019-1.189-0.105-1.557-0.302 c-0.343-0.184-0.607-0.447-0.791-0.791C4.08,18.48,4,18.068,4,16.928V8.072c0-1.14,0.08-1.552,0.306-1.975 C4.49,5.753,4.753,5.49,5.097,5.306C5.52,5.08,5.932,5,7.072,5h6.516V3H7.072C5.63,3,4.906,3.14,4.153,3.542 c-0.692,0.37-1.241,0.919-1.611,1.611c-0.376,0.703-0.523,1.38-0.541,2.64L2,16.928c0,1.442,0.14,2.166,0.542,2.919 c0.37,0.692,0.919,1.241,1.611,1.611C4.906,21.86,5.63,22,7.072,22h8.856c1.442,0,2.166-0.14,2.919-0.542 c0.692-0.37,1.241-0.919,1.611-1.611C20.86,19.094,21,18.37,21,16.928V13H19z"></path><path d="M13.26,13.797l-2.163,0.983c-0.251,0.114-0.548,0.003-0.662-0.248 c-0.06-0.131-0.06-0.282,0-0.414l0.983-2.163c0.099-0.218,0.237-0.417,0.407-0.587l7.101-7.101c0.558-0.558,1.464-0.558,2.022,0 c0.558,0.558,0.558,1.464,0,2.022l-7.101,7.101C13.677,13.56,13.478,13.697,13.26,13.797z" fill-rule="evenodd" clip-rule="evenodd"></path></symbol>
<symbol xmlns="http://www.w3.org/2000/svg" viewBox="0 0 24 24" id="mobile-ios-back"><path d="M15.253,21.664l-8-9c-0.336-0.379-0.336-0.95,0-1.329l8-9l1.494,1.329L9.338,12l7.409,8.336L15.253,21.664z"></path></symbol>
<symbol xmlns="http://www.w3.org/2000/svg" viewBox="0 0 24 24" id="mobile-more"><path d="M12,8c1.1,0,2-0.9,2-2c0-1.1-0.9-2-2-2s-2,0.9-2,2C10,7.1,10.9,8,12,8L12,8z M12,10c-1.1,0-2,0.9-2,2s0.9,2,2,2 s2-0.9,2-2S13.1,10,12,10L12,10z M12,16c-1.1,0-2,0.9-2,2s0.9,2,2,2s2-0.9,2-2S13.1,16,12,16L12,16z" fill-rule="evenodd" clip-rule="evenodd"></path></symbol>
<symbol xmlns="http://www.w3.org/2000/svg" viewBox="0 0 48 48" id="mobile-statistics"><g fill-rule="evenodd"><path fill="none" d="M0 0H48V48H0z"></path><path d="M19.4465563,15.5459281 L10.8531227,23.8252314 L19.5477434,17.9525149 L28.4020794,20.4283265 L35.233184,14.7898825 L37.2617479,16.5575439 L37.3043429,10.7114572 L31.4103288,11.2332302 L33.3696678,12.9476638 L28.0826168,17.6064543 L19.4465563,15.5459281 Z M20.458204,37.9719508 L27.7365562,37.9719508 L27.789784,23.6814812 L20.458204,21.732775 L20.458204,37.9719508 Z M11.7263206,37.9719828 L19.0046728,37.9719828 L19.0046728,21.9990098 L11.7263206,26.950633 L11.7263206,37.9719828 L11.7263206,37.9719828 Z M29.1953877,37.9719508 L36.47374,37.9719508 L36.47374,17.7076095 L29.1953877,23.6655161 L29.1953877,37.9719508 Z" fill-rule="nonzero"></path></g></symbol>
</svg>