<svg xmlns="http://www.w3.org/2000/svg" xmlns:xlink="http://www.w3.org/1999/xlink" style="position: absolute; width: 0; height: 0" aria-hidden="true" id="__SVG_SPRITE_NODE__">
<symbol xmlns="http://www.w3.org/2000/svg" viewBox="0 0 24 24" id="modify-completed-time"><path d="M1,12C1,18.0751,5.92487,23,12,23C12.7046,23,13.3938,22.9338,14.0615,22.8071C14.5922,22.7065,14.8941,22.1689,14.7613,21.6454C14.6224,21.0984,14.0612,20.7803,13.5047,20.8742C13.008,20.9581,12.5042,21,12,21Q10.28331,21,8.687149999999999,20.3681Q6.95406,19.682,5.63604,18.364Q4.318020000000001,17.0459,3.63191,15.3129Q3,13.7167,3,12Q3,10.28331,3.63191,8.687149999999999Q4.318020000000001,6.95406,5.63604,5.63604Q6.95406,4.318020000000001,8.687149999999999,3.63191Q10.28331,3,12,3Q13.7167,3,15.3129,3.63191Q17.0459,4.318020000000001,18.364,5.63604Q19.682,6.95406,20.3681,8.687149999999999Q21,10.28331,21,12Q21,12.3984,20.966,12.7902C20.9116,13.4164,21.3756,13.9999,22.0042,13.9996C22.4761,13.9993,22.8863,13.6564,22.9367,13.1871C22.9785,12.7971,23,12.4011,23,12C23,5.92487,18.0751,1,12,1C5.92487,1,1,5.92487,1,12ZM11,7L11,13C11,13.5523,11.4477,14,12,14L15,14C15.5523,14,16,13.5523,16,13C16,12.4477,15.5523,12,15,12L13,12L13,7C13,6.44772,12.5523,6,12,6C11.4477,6,11,6.44772,11,7ZM22,15L16,15C15.4477,15,15,15.4477,15,16C15,16.552300000000002,15.4477,17,16,17L22,17C22.5523,17,23,16.552300000000002,23,16C23,15.4477,22.5523,15,22,15ZM19.5,19L16,19C15.4477,19,15,19.4477,15,20C15,20.5523,15.4477,21,16,21L19.5,21C20.0523,21,20.5,20.5523,20.5,20C20.5,19.4477,20.0523,19,19.5,19Z" fill-rule="evenodd"></path></symbol>
</svg>