<svg xmlns="http://www.w3.org/2000/svg" xmlns:xlink="http://www.w3.org/1999/xlink" style="position: absolute; width: 0; height: 0" aria-hidden="true" id="__SVG_SPRITE_NODE__">
<symbol xmlns="http://www.w3.org/2000/svg" viewBox="0 0 320 320" id="net-error"><path fill="none" d="M0 0L320 0 320 320 0 320z"></path><path d="M108.6 121.8L108.6 121.8 108.6 121.8zM108.6 121.8c-21 7.4-40.7 19.5-57.5 36.3l21.2 21.2c17.3-17.3 38.3-28.4 60.5-33.3L108.6 121.8zM63 76.2c-19.6 10-37.9 23.1-54.3 39.5l21.2 21.2c16.5-16.5 35.4-29.3 55.6-38.2L63 76.2zM92.1 199.1l21.2 21.2c25.8-25.8 67.6-25.8 93.3 0l.2-.2L157.8 171C134 171.6 110.3 180.9 92.1 199.1zM290.1 136.9l21.2-21.2c-56.5-56.5-136.6-74.8-208.4-55L67.5 25.3 49.8 43l203.6 203.6 17.7-17.7-82.7-82.7c21.7 5.1 42.3 16.1 59.2 33l21.2-21.2c-31.3-31.3-72.7-46.3-113.6-45L128 85.8C185.1 75.8 246 92.8 290.1 136.9z"></path><circle cx="160" cy="259" r="27"></circle></symbol>
</svg>