<svg xmlns="http://www.w3.org/2000/svg" xmlns:xlink="http://www.w3.org/1999/xlink" style="position: absolute; width: 0; height: 0" aria-hidden="true" id="__SVG_SPRITE_NODE__">
<symbol xmlns="http://www.w3.org/2000/svg" viewBox="0 0 24 24" id="next-month"><path d="M22.87296042251587,14.396814305114747Q22.928960422515868,14.175414305114746,22.97586042251587,13.951714305114747Q23.10316042251587,13.342814305114747,22.56186042251587,12.999414305114746Q22.04506042251587,12.671614305114746,21.48706042251587,12.932714305114747Q21.35786042251587,12.993214305114746,21.22686042251587,13.049014305114746Q19.70156042251587,13.698714305114747,18.04826042251587,13.698814305114746Q16.37226042251587,13.698714305114747,14.841760422515868,13.039414305114747Q13.36316042251587,12.402414305114746,12.222560422515869,11.240584305114746Q11.081660422515869,10.078544305114747,10.45602042251587,8.571774305114747Q9.80818042251587,7.011614305114746,9.80818042251587,5.302954305114746Q9.80818042251587,4.229984305114746,10.073020422515869,3.1914943051147464Q10.10867042251587,3.0517143051147464,10.14901042251587,2.9132743051147463Q10.322740422515869,2.3170903051147462,9.93375042251587,1.8464383051147462Q9.522880422515868,1.349330305114746,8.94532042251587,1.5655575051147461Q8.73491042251587,1.644327305114746,8.527950422515868,1.732088305114746Q5.563000422515869,2.989364305114746,3.781330422515869,5.710644305114746Q2.000080422515869,8.431274305114746,2.000080422515869,11.701214305114746Q2.000080422515869,13.897614305114747,2.833130422515869,15.903814305114746Q2.849510422515869,15.943214305114745,2.8661804225158694,15.982514305114746C3.002710422515869,16.304414305114747,3.3234004225158693,16.500014305114746,3.673020422515869,16.500014305114746C4.393640422515869,16.500014305114746,4.845720422515869,15.684814305114745,4.57957042251587,15.015114305114746Q4.566540422515869,14.982314305114746,4.5537504225158685,14.949414305114747Q3.9454804225158693,13.384414305114746,3.9454804225158693,11.701214305114746Q3.9454804225158693,8.511154305114747,5.947880422515869,6.058794305114746Q6.826640422515869,4.982584305114746,7.911660422515869,4.267274305114746Q7.862790422515869,4.778824305114746,7.862790422515869,5.302944305114746Q7.862780422515869,7.280954305114746,8.577620422515869,9.120134305114746Q9.35387042251587,11.117344305114747,10.845170422515869,12.636414305114746Q12.33676042251587,14.155614305114746,14.298260422515868,14.946714305114746Q16.10506042251587,15.675214305114746,18.04826042251587,15.675214305114746Q19.305260422515868,15.675214305114746,20.46986042251587,15.390514305114745Q19.78666042251587,16.905814305114745,18.60056042251587,18.065814305114746Q17.34406042251587,19.294814305114745,15.718760422515869,19.933114305114746Q14.21546042251587,20.523514305114745,12.60436042251587,20.523514305114745Q12.46256042251587,20.523514305114745,12.321660422515869,20.519014305114744C12.01826042251587,20.509114305114746,11.71606042251587,20.605514305114745,11.49046042251587,20.808614305114745C10.84285042251587,21.391414305114747,11.091460422515869,22.428914305114745,11.961160422515869,22.480914305114744Q12.280660422515869,22.500014305114746,12.60436042251587,22.500014305114746Q16.23266042251587,22.500014305114746,19.10046042251587,20.236514305114746Q21.96746042251587,17.973714305114747,22.87296042251587,14.396814305114747ZM11.000060422515869,17.853614305114746L8.11834042251587,15.267814305114745Q8.047380422515868,15.204114305114746,7.963950422515869,15.154114305114746Q7.8805104225158695,15.104114305114747,7.787800422515869,15.069614305114746Q7.695090422515869,15.035114305114746,7.5966804225158695,15.017614305114746Q7.4982604225158695,15.000014305114746,7.397910422515869,15.000014305114746Q7.297560422515869,15.000014305114746,7.199150422515869,15.017614305114746Q7.100730422515869,15.035114305114746,7.0080204225158695,15.069614305114746Q6.915310422515869,15.104114305114747,6.831880422515869,15.154114305114746Q6.748440422515869,15.204114305114746,6.677490422515869,15.267814305114745Q6.5341804225158695,15.396414305114746,6.456630422515869,15.564414305114745Q6.3790804225158695,15.732414305114746,6.3790804225158695,15.914214305114745Q6.3790804225158695,16.096114305114746,6.456630422515869,16.264114305114745Q6.5341804225158695,16.432114305114744,6.677490422515869,16.560714305114747L7.8275604225158695,17.592714305114747L1.9141484225158691,17.592714305114747C1.409256422515869,17.592714305114747,0.9999604225158691,18.001914305114745,0.9999604225158691,18.506814305114744C0.9999604225158691,19.011714305114747,1.4092524225158691,19.421014305114745,1.9141414225158693,19.421014305114745L7.812320422515869,19.421114305114745L6.677460422515869,20.439414305114745Q6.534160422515869,20.568014305114747,6.456600422515869,20.736014305114747Q6.379050422515869,20.904014305114746,6.379050422515869,21.085814305114745Q6.379050422515869,21.267714305114747,6.456600422515869,21.435714305114747Q6.534160422515869,21.603714305114746,6.677460422515869,21.732314305114745Q6.748410422515869,21.796014305114745,6.831850422515869,21.846014305114746Q6.9152804225158695,21.896014305114747,7.007990422515869,21.930514305114745Q7.100700422515869,21.964914305114746,7.199120422515869,21.982514305114748Q7.2975304225158695,22.000014305114746,7.397880422515869,22.000014305114746Q7.498230422515869,22.000014305114746,7.596650422515869,21.982514305114748Q7.695060422515869,21.964914305114746,7.7877704225158695,21.930514305114745Q7.880480422515869,21.896014305114747,7.963920422515869,21.846014305114746Q8.04735042251587,21.796014305114745,8.118310422515869,21.732314305114745L11.000060422515869,19.146514305114746Q11.033560422515869,19.116414305114745,11.06376042251587,19.083714305114746Q11.18406042251587,18.953614305114748,11.24456042251587,18.793514305114748Q11.304960422515869,18.633514305114748,11.29766042251587,18.464614305114747Q11.29026042251587,18.292114305114747,11.21316042251587,18.133914305114747Q11.13606042251587,17.975714305114746,11.000060422515869,17.853614305114746Z" fill-rule="evenodd"></path></symbol>
<symbol xmlns="http://www.w3.org/2000/svg" viewBox="0 0 24 24" id="next-ndays"><path d="M16.8,5.6c1.1,0,1.5,0.1,1.9,0.3c0.4,0.2,0.7,0.5,0.9,0.9S20,7.7,20,8.8v8c0,1.1-0.1,1.5-0.3,1.9 c-0.2,0.4-0.5,0.7-0.9,0.9c-0.4,0.2-0.8,0.3-1.9,0.3H7.2c-1.1,0-1.5-0.1-1.9-0.3c-0.4-0.2-0.7-0.5-0.9-0.9C4.1,18.3,4,17.9,4,16.8 v-8c0-1.1,0.1-1.5,0.3-1.9c0.2-0.4,0.5-0.7,0.9-0.9c0.4-0.2,0.8-0.3,1.9-0.3H6.4V4c0-0.4,0.4-0.8,0.8-0.8S8,3.6,8,4v1.6h8V4 c0-0.4,0.4-0.8,0.8-0.8s0.8,0.4,0.8,0.8v1.6H16.8z M15.8,14.1h1.6v-1.5h-1.6v-1.7h-1.5v1.7h-1.6v1.5h1.6v1.7h1.5V14.1z M8.2,12.7 l2.3,3.2h1.4V9.7h-1.6v3.2L7.9,9.7H6.6v6.1h1.6V12.7z" fill-rule="evenodd" clip-rule="evenodd"></path></symbol>
<symbol xmlns="http://www.w3.org/2000/svg" viewBox="0 0 24 24" id="next-week"><path d="M0.9999974346207166,6.00756L0.9999990329407166,17.9924C0.9999990306407166,20.2016,2.7508689731407165,22,4.959998973140717,22C9.653338973140716,22,14.346688973140717,22,19.039988973140716,22C21.249188973140715,22,22.999988973140717,20.2016,22.999988973140717,17.9924C22.999988973140717,14.8466,22.999988973140717,11.44223,22.999988973140717,8.200199999999999L22.999988973140717,6.2002L22.999988973140717,6.00755C22.999988973140717,3.79842,21.177188973140716,2,18.968088973140716,2L4.995138973140717,2C2.7859989731407167,2,0.9999969766607165,3.79842,0.9999974346207166,6.00756ZM20.999988973140717,6.2002L20.999988973140717,5.98951C20.999988973140717,4.88494,20.113288973140715,4,19.008788973140717,4L14.996088973140717,4.00001C11.661188973140716,4.00002,8.326198973140716,4.000030000000001,4.991248973140717,4.00001C3.8866689731407167,4.00001,2.9999989731407166,4.884930000000001,2.9999889731407166,5.98951L2.9999889731407166,6.2002L20.999988973140717,6.2002ZM2.9999789731407165,8.200199999999999L2.9999789731407165,8.69586C2.9999689731407164,11.78929,2.9999489731407163,15.1297,2.9999789731407165,18.0105C2.9999889731407166,19.115,3.8867089731407165,20,4.991258973140717,20L8.165038973140717,20C11.779588973140717,20,15.394188973140716,20,19.008788973140717,20C20.113288973140715,20,20.999988973140717,19.1151,20.999988973140717,18.0105C20.999988973140717,15.0265,20.999988973140717,11.54922,20.999988973140717,8.36419L20.999988973140717,8.200199999999999L2.9999789731407165,8.200199999999999Z" fill-rule="evenodd"></path><path d="M9.14111,17.42773C9.53662,17.42773,9.77588,17.168950000000002,9.77588,16.74902L9.77588,15.352540000000001L11.09912,15.352540000000001C11.50439,15.352540000000001,11.76318,15.11816,11.76318,14.727540000000001C11.76318,14.3418,11.50928,14.107420000000001,11.104,14.107420000000001L9.77588,14.107420000000001L9.77588,12.701170000000001C9.77588,12.28613,9.53662,12.022459999999999,9.14111,12.022459999999999C8.74561,12.022459999999999,8.50146,12.28613,8.50146,12.701170000000001L8.50146,14.107420000000001L7.16846,14.107420000000001C6.76807,14.107420000000001,6.51416,14.3418,6.51416,14.727540000000001C6.51416,15.11816,6.76807,15.352540000000001,7.16846,15.352540000000001L8.50146,15.352540000000001L8.50146,16.74902C8.50146,17.168950000000002,8.74072,17.42773,9.14111,17.42773ZM14.21436,17.65723C14.53174,17.65723,14.7124,17.540039999999998,14.87354,17.227539999999998L17.485799999999998,12.183589999999999C17.676299999999998,11.8125,17.764200000000002,11.57812,17.764200000000002,11.31445C17.764200000000002,10.81152,17.3979,10.50879,16.8853,10.50879L13.23779,10.50879C12.886230000000001,10.50879,12.62744,10.73828,12.62744,11.08984C12.62744,11.44629,12.886230000000001,11.68066,13.23779,11.68066L16.274900000000002,11.68066L16.274900000000002,11.70996L13.66748,16.59277C13.57959,16.753909999999998,13.54053,16.88574,13.54053,17.05664C13.54053,17.39844,13.79932,17.65723,14.21436,17.65723Z"></path></symbol>
</svg>