<svg xmlns="http://www.w3.org/2000/svg" xmlns:xlink="http://www.w3.org/1999/xlink" style="position: absolute; width: 0; height: 0" aria-hidden="true" id="__SVG_SPRITE_NODE__">
<symbol xmlns="http://www.w3.org/2000/svg" viewBox="0 0 24 24" id="no-date"><path d="M0.9999889731407166,6.00756L0.9999914035607166,17.9924C0.9999914012907165,20.2016,2.7508589731407165,22,4.9599889731407165,22C9.653328973140717,22,14.346688973140717,22,19.039988973140716,22C21.249188973140715,22,22.999988973140717,20.2016,22.999988973140717,17.9924C22.999988973140717,14.8465,22.999988973140717,11.44211,22.999988973140717,8.200009999999999L22.999988973140717,6.20001L22.999988973140717,6.00755C22.999988973140717,3.79842,21.177188973140716,2,18.968088973140716,2L4.995128973140717,2C2.7859889731407166,2,0.9999889731407166,3.79842,0.9999889731407166,6.00756ZM20.999988973140717,6.20001L20.999988973140717,5.98951C20.999988973140717,4.88494,20.113288973140715,4,19.008688973140718,4L14.996088973140717,4.00001C11.661188973140716,4.00002,8.326188973140717,4.000030000000001,4.9912389731407165,4.00001C3.8866589731407166,4.00001,2.9999889731407166,4.884930000000001,2.9999889731407166,5.98951L2.9999889731407166,6.20001L20.999988973140717,6.20001ZM2.9999789731407165,8.200009999999999L2.9999689731407164,8.70745C2.999958973140717,11.79763,2.9999389731407167,15.1333,2.9999689731407164,18.0105C2.9999889731407166,19.115,3.8866989731407164,20,4.991258973140717,20L8.165028973140718,20C11.779588973140717,20,15.394188973140716,20,19.008788973140717,20C20.113288973140715,20,20.999988973140717,19.1151,20.999988973140717,18.0105C20.999988973140717,15.0265,20.999988973140717,11.54922,20.999988973140717,8.36419L20.999988973140717,8.200009999999999L2.9999789731407165,8.200009999999999Z" fill-rule="evenodd"></path></symbol>
<symbol xmlns="http://www.w3.org/2000/svg" fill="none" viewBox="0 0 145 145" id="no-pomo-record-dark"><defs><linearGradient x1=".309" y1=".042" x2=".5" y2="1" id="no-pomo-record-dark_a"><stop offset="0%" stop-color="#FFFFFF"></stop><stop offset="100%" stop-color="#EEF4FF"></stop></linearGradient><filter id="no-pomo-record-dark_b" filterUnits="objectBoundingBox" color-interpolation-filters="sRGB" x="-2.9" y="-1.45" width="38.505" height="28.091"><feFlood flood-opacity="0" result="BackgroundImageFix"></feFlood><feColorMatrix in="SourceAlpha" values="0 0 0 0 0 0 0 0 0 0 0 0 0 0 0 0 0 0 127 0"></feColorMatrix><feOffset dy="1.45"></feOffset><feGaussianBlur stdDeviation=".725"></feGaussianBlur><feColorMatrix values="0 0 0 0 0 0 0 0 0 0 0 0 0 0 0 0 0 0 0.10000000149011612 0"></feColorMatrix><feBlend in2="BackgroundImageFix" result="effect1_dropShadow"></feBlend><feBlend in="SourceGraphic" in2="effect1_dropShadow" result="shape"></feBlend></filter></defs><g style="mix-blend-mode:passthrough"><g style="mix-blend-mode:passthrough"><ellipse cx="71.906" cy="72.199" rx="56.455" ry="55.727" fill="#FFFFFF" fill-opacity=".13"></ellipse><g style="mix-blend-mode:passthrough"><g style="mix-blend-mode:passthrough"><g style="mix-blend-mode:passthrough"><ellipse cx="105.946" cy="44" rx="23.356" ry="23.064" fill="#4773FA" transform="matrix(.9661 -.25552 .2648 .96502 -2.712 21.836)"></ellipse><ellipse cx="105.974" cy="43.99" rx="18.857" ry="18.517" fill="url(#no-pomo-record-dark_a)" transform="matrix(.9661 -.25552 .2648 .96502 -2.712 21.836)"></ellipse></g><path d="M106.00741660385131 27.52492380142212C106.21021660385132 27.52492380142212 106.37661660385132 27.678742801422118 106.39361660385131 27.87469380142212L106.39501660385132 27.90772380142212 106.39501660385132 29.37460380142212C106.39501660385132 29.58602380142212 106.22151660385131 29.757403801422118 106.00741660385131 29.757403801422118 105.80451660385131 29.757403801422118 105.63811660385132 29.60358380142212 105.62111660385132 29.40763380142212L105.61971660385132 29.37460380142212 105.61971660385132 27.90772380142212C105.61971660385132 27.69630880142212 105.79331660385132 27.52492380142212 106.00741660385131 27.52492380142212zM98.18028660385131 29.84953380142212C98.06629660385131 29.68923380142212 97.84515660385132 29.638523801422117 97.66990660385132 29.73812380142212 97.48434660385132 29.843573801422117 97.42048660385132 30.077603801422118 97.52728660385132 30.26084380142212L97.89748660385132 30.896023801422118 97.91645660385132 30.92544380142212C98.03045660385132 31.08574380142212 98.25158660385132 31.13645380142212 98.42683660385131 31.03685380142212 98.61239660385132 30.931393801422118 98.67625660385131 30.69736380142212 98.56945660385132 30.51413380142212L98.19926660385131 29.87895380142212 98.18028660385131 29.84953380142212zM113.81561660385131 29.87956380142212C113.92241660385132 29.696323801422118 114.15941660385133 29.63327380142212 114.34491660385132 29.738733801422118 114.52021660385131 29.83832380142212 114.58691660385132 30.05261380142212 114.50381660385132 30.230473801422118L114.48751660385132 30.26145380142212 114.11731660385132 30.89663380142212C114.01051660385131 31.07986380142212 113.77351660385132 31.142923801422118 113.58801660385132 31.03746380142212 113.41271660385132 30.937863801422118 113.34601660385133 30.72358380142212 113.42911660385133 30.54572380142212L113.44541660385131 30.51474380142212 113.81561660385131 29.87956380142212zM120.44871660385132 35.78392380142212C120.34141660385131 35.60098380142212 120.10421660385131 35.53857380142212 119.91891660385132 35.64453380142212L119.27771660385132 36.01125380142212 119.24801660385131 36.030063801422116C119.08601660385132 36.14307380142212 119.03521660385132 36.36157380142212 119.13661660385132 36.53435380142212 119.24391660385132 36.71730380142212 119.48101660385132 36.77971380142212 119.66631660385131 36.67375380142212L120.30751660385133 36.30703380142212 120.33731660385132 36.28821380142212C120.49931660385133 36.17520380142212 120.55001660385132 35.95670380142212 120.44871660385132 35.78392380142212zM92.20738660385132 36.15074380142212C92.30872660385131 35.97796380142212 92.52590660385133 35.91269380142212 92.70580660385131 35.99524380142212L92.73712660385132 36.01135380142212 93.37833660385132 36.37807380142212C93.56359660385132 36.48403380142212 93.62679660385132 36.718233801422116 93.51949660385132 36.90117380142212 93.41815660385132 37.07396380142212 93.20096660385131 37.13922380142212 93.02107660385131 37.05668380142212L92.98974660385132 37.04057380142212 92.34854660385132 36.67385380142212C92.16327660385132 36.567893801422116 92.10007660385132 36.33369380142212 92.20738660385132 36.15074380142212zM91.19987660385132 43.66152380142212C91.41396660385132 43.66152380142212 91.58751660385131 43.83292380142212 91.58751660385131 44.044323801422124 91.58751660385131 44.24462380142212 91.43175660385131 44.40892380142212 91.23332660385132 44.42572380142212L91.19987660385132 44.42712380142212 89.71914860385132 44.42712380142212C89.50505960385132 44.42712380142212 89.33150625285131 44.25572380142212 89.33150625285131 44.044323801422124 89.33150625285131 43.84402380142212 89.48727160385131 43.67962380142212 89.68570060385132 43.662923801422124L89.71914860385132 43.66152380142212 91.19987660385132 43.66152380142212zM122.68301660385131 44.044323801422124C122.68301660385131 43.83292380142212 122.50941660385132 43.66152380142212 122.29531660385132 43.66152380142212L120.81461660385132 43.66152380142212 120.78111660385132 43.662923801422124C120.58271660385131 43.67962380142212 120.42691660385131 43.84402380142212 120.42691660385131 44.044323801422124 120.42691660385131 44.25572380142212 120.60051660385132 44.42712380142212 120.81461660385132 44.42712380142212L122.29531660385132 44.42712380142212 122.32881660385132 44.42572380142212C122.52721660385131 44.40892380142212 122.68301660385131 44.24462380142212 122.68301660385131 44.044323801422124zM92.98938660385132 51.04682380142212C93.17464660385131 50.940923801422116 93.41182660385132 51.00332380142212 93.51912660385132 51.186223801422116 93.62047660385132 51.35902380142212 93.56972660385132 51.57752380142212 93.40770660385132 51.69052380142212L93.37796660385132 51.70942380142212 92.73676660385132 52.07612380142212C92.55149660385132 52.18202380142212 92.31431660385132 52.11962380142212 92.20701660385132 51.93672380142212 92.10567660385132 51.76392380142212 92.15641660385131 51.54542380142212 92.31843660385132 51.43242380142212L92.34817660385131 51.41362380142212 92.98938660385132 51.04682380142212zM119.13681660385132 51.55312380142212C119.23821660385131 51.38032380142212 119.45531660385132 51.315023801422115 119.63521660385132 51.397623801422114L119.66661660385131 51.41372380142212 120.30781660385132 51.78042380142212C120.49301660385132 51.88642380142212 120.55621660385131 52.12062380142212 120.44891660385132 52.303523801422116 120.34761660385132 52.47632380142212 120.13041660385132 52.541523801422116 119.95051660385133 52.45902380142212L119.91921660385131 52.44292380142212 119.27801660385131 52.07622380142212C119.09271660385131 51.97022380142212 119.02951660385132 51.73602380142212 119.13681660385132 51.55312380142212zM113.72781660385132 56.52702380142212C113.61381660385132 56.36672380142212 113.39261660385132 56.31602380142212 113.21741660385132 56.415623801422115 113.03181660385133 56.52102380142212 112.96801660385131 56.755123801422116 113.07481660385132 56.938323801422115L113.44501660385131 57.57352380142212 113.46391660385132 57.60292380142212C113.57791660385132 57.763223801422114 113.79911660385132 57.81392380142212 113.97431660385132 57.71432380142212 114.15991660385131 57.60892380142212 114.22371660385132 57.374823801422124 114.11691660385132 57.19162380142212L113.74671660385133 56.55642380142212 113.72781660385132 56.52702380142212zM98.27052660385132 56.55682380142212C98.37732660385132 56.373523801422124 98.61432660385131 56.31052380142212 98.79988660385132 56.41602380142212 98.97513660385133 56.51562380142212 99.04183660385132 56.729823801422114 98.95873660385132 56.90772380142212L98.94250660385131 56.938723801422114 98.57230660385132 57.57392380142212C98.46551660385131 57.75712380142212 98.22851660385132 57.82012380142212 98.04295660385132 57.714723801422124 97.86769660385131 57.615123801422115 97.80100660385132 57.40082380142212 97.88410660385132 57.22292380142212L97.90033660385131 57.192023801422124 98.27052660385132 56.55682380142212zM106.00811660385132 58.33012380142212C106.21091660385132 58.33012380142212 106.37741660385132 58.48392380142212 106.39431660385132 58.67982380142212L106.39571660385133 58.71292380142212 106.39571660385133 60.17982380142212C106.39571660385133 60.39122380142212 106.22221660385132 60.56262380142212 106.00811660385132 60.56262380142212 105.80531660385131 60.56262380142212 105.63881660385132 60.40872380142212 105.62191660385132 60.21282380142212L105.62041660385131 60.17982380142212 105.62041660385131 58.71292380142212C105.62041660385131 58.501523801422124 105.79401660385132 58.33012380142212 106.00811660385132 58.33012380142212zM104.76686385559083 34.550814361419675L103.21562385559082 34.550814361419675 105.93029385559082 30.708974361419887 108.64496385559082 34.550814361419675 107.09372385559082 34.550814361419675 107.09372385559082 43.09577436141968 114.55622385559082 43.09607436141968 114.55622385559082 41.55937436141968 118.43432385559082 44.24857436141968 114.55622385559082 46.937874361419674 114.55622385559082 45.40117436141968 105.49186385559082 45.40117436141968C105.09145385559081 45.40117436141968 104.76686385559083 45.076574361419674 104.76686385559083 44.676174361419676L104.76686385559083 34.550814361419675z" fill-rule="evenodd" fill="#4773FA" transform="matrix(.9661 -.25552 .2648 .96502 -2.712 21.836)"></path></g></g><g style="mix-blend-mode:passthrough"><rect x="10" y="51.061" width="66.968" height="79.939" rx="2.175" fill="#DBDBDB"></rect><rect x="16.23" y="57.21" width="54.509" height="67.641" rx="0" fill="#FFFFFF"></rect><path d="M70.73825673217773,109.47793006896973L70.73825673217773,124.85083006896973L52.049556732177734,124.85083006896973" fill-rule="evenodd" fill="#E5E5E5"></path><path d="M55.16433673217774,109.47793006896973Q59.057816732177734,111.78387006896973,62.95125673217773,111.78387006896973Q66.84475673217773,111.78387006896973,70.73825673217773,109.47793006896973L52.049556732177734,124.85083006896973L55.16433673217774,109.47793006896973Z" fill-rule="evenodd" fill="#EEEEEE"></path><g style="mix-blend-mode:passthrough" filter="url(#no-pomo-record-dark_b)"><path d="M36.47565187988281,45.68039277893067L36.47565187988281,51.06088277893066L27.131301879882812,53.366882778930666L27.131301879882812,61.053282778930665L59.83650187988281,61.053282778930665L59.83650187988281,53.366882778930666L50.49220187988281,51.06088277893066L50.49220187988281,45.68039277893067C50.49220187988281,41.85979277893066,47.35450187988281,38.762582778930664,43.48390187988281,38.762582778930664C39.613401879882815,38.762582778930664,36.47565187988281,41.85979277893066,36.47565187988281,45.68039277893067ZM46.59870187988281,46.44904277893066C46.59870187988281,48.14708277893067,45.20410187988281,49.52358277893066,43.48390187988281,49.52358277893066C41.76360187988281,49.52358277893066,40.36910187988281,48.14708277893067,40.36910187988281,46.44904277893066C40.36910187988281,44.750992778930666,41.76360187988281,43.37446277893066,43.48390187988281,43.37446277893066C45.20410187988281,43.37446277893066,46.59870187988281,44.750992778930666,46.59870187988281,46.44904277893066Z" fill-rule="evenodd" fill="#4772FA"></path></g><rect x="22.459" y="71.046" width="42.05" height="3.843" rx="0" fill="#E5E5E5"></rect><rect x="22.459" y="81.807" width="32.705" height="3.843" rx="0" fill="#E5E5E5"></rect><rect x="22.459" y="92.568" width="23.361" height="3.843" rx="0" fill="#E5E5E5"></rect><rect x="23.238" y="103.329" width="37.377" height="3.843" rx="0" fill="#E5E5E5"></rect></g></g></g></symbol>
<symbol xmlns="http://www.w3.org/2000/svg" fill="none" viewBox="0 0 145 145" id="no-pomo-record"><defs><linearGradient x1=".309" y1=".042" x2=".5" y2="1" id="no-pomo-record_a"><stop offset="0%" stop-color="#FFFFFF"></stop><stop offset="100%" stop-color="#EEF4FF"></stop></linearGradient><filter id="no-pomo-record_b" filterUnits="objectBoundingBox" color-interpolation-filters="sRGB" x="-2.9" y="-1.45" width="38.505" height="28.091"><feFlood flood-opacity="0" result="BackgroundImageFix"></feFlood><feColorMatrix in="SourceAlpha" values="0 0 0 0 0 0 0 0 0 0 0 0 0 0 0 0 0 0 127 0"></feColorMatrix><feOffset dy="1.45"></feOffset><feGaussianBlur stdDeviation=".725"></feGaussianBlur><feColorMatrix values="0 0 0 0 0 0 0 0 0 0 0 0 0 0 0 0 0 0 0.10000000149011612 0"></feColorMatrix><feBlend in2="BackgroundImageFix" result="effect1_dropShadow"></feBlend><feBlend in="SourceGraphic" in2="effect1_dropShadow" result="shape"></feBlend></filter></defs><g style="mix-blend-mode:passthrough"><g style="mix-blend-mode:passthrough"><ellipse cx="71.906" cy="72.199" rx="56.455" ry="55.727" fill="#000000" fill-opacity=".04"></ellipse><g style="mix-blend-mode:passthrough"><g style="mix-blend-mode:passthrough"><g style="mix-blend-mode:passthrough"><ellipse cx="105.946" cy="44" rx="23.356" ry="23.064" fill="#4773FA" transform="matrix(.9661 -.25552 .2648 .96502 -2.712 21.836)"></ellipse><ellipse cx="105.974" cy="43.99" rx="18.857" ry="18.517" fill="url(#no-pomo-record_a)" transform="matrix(.9661 -.25552 .2648 .96502 -2.712 21.836)"></ellipse></g><path d="M106.00751660385131 27.52486276002212C106.21031660385131 27.52486275682212 106.37681660385132 27.67868180142212 106.39371660385132 27.87463280142212L106.39511660385132 27.90766280142212 106.39511660385132 29.37454380142212C106.39511660385132 29.585963801422118 106.22161660385132 29.75734380142212 106.00751660385131 29.75734380142212 105.80461660385131 29.75734380142212 105.63821660385132 29.60352380142212 105.62121660385132 29.407573801422117L105.61981660385132 29.37454380142212 105.61981660385132 27.90766280142212C105.61981660385132 27.696247801422118 105.79341660385131 27.52486276352212 106.00751660385131 27.52486276002212zM98.18016660385132 29.84941380142212C98.06616660385131 29.68911380142212 97.84503660385131 29.63840380142212 97.66978660385132 29.73799380142212 97.48422660385131 29.84345380142212 97.42036660385132 30.07748380142212 97.52716660385131 30.26072380142212L97.89735660385132 30.89590380142212 97.91633660385132 30.92531380142212C98.03032660385132 31.08562380142212 98.25146660385131 31.13632380142212 98.42671660385132 31.03673380142212 98.61227660385131 30.93127380142212 98.67613660385132 30.69724380142212 98.56933660385133 30.51401380142212L98.19913660385131 29.878833801422118 98.18016660385132 29.84941380142212zM113.81531660385131 29.879503801422118C113.92211660385132 29.69626380142212 114.15911660385132 29.63321380142212 114.34471660385131 29.73867380142212 114.51991660385131 29.83826380142212 114.58661660385133 30.052553801422118 114.50351660385132 30.23041380142212L114.48731660385133 30.26139380142212 114.11711660385131 30.896573801422118C114.01031660385132 31.07980380142212 113.77331660385131 31.14285380142212 113.58771660385132 31.03740380142212 113.41251660385132 30.93780380142212 113.34581660385132 30.723523801422118 113.42891660385132 30.54566380142212L113.44511660385132 30.51468380142212 113.81531660385131 29.879503801422118zM120.44881660385133 35.78386380142212C120.34151660385132 35.60091380142212 120.10431660385132 35.53851380142212 119.91911660385132 35.64446380142212L119.27791660385131 36.01119380142212 119.24811660385132 36.03000380142212C119.08611660385132 36.14301380142212 119.03531660385131 36.36151380142212 119.13671660385131 36.53429380142212 119.24401660385132 36.71724380142212 119.48121660385132 36.77965380142212 119.66641660385132 36.67369380142212L120.30761660385132 36.30697380142212 120.33741660385132 36.28815380142212C120.49941660385132 36.17514380142212 120.55011660385132 35.95664380142212 120.44881660385133 35.78386380142212zM92.20725660385132 36.15074380142212C92.30860660385132 35.97796380142212 92.52578660385132 35.91269380142212 92.70567660385132 35.99524380142212L92.73700660385131 36.01135380142212 93.37820660385132 36.37807380142212C93.56347660385131 36.48403380142212 93.62667660385132 36.718233801422116 93.51937660385131 36.90117380142212 93.41803660385132 37.07396380142212 93.20084660385132 37.13922380142212 93.02095660385132 37.05668380142212L92.98962660385132 37.04057380142212 92.34842660385132 36.67385380142212C92.16315660385132 36.567893801422116 92.09995660385133 36.33369380142212 92.20725660385132 36.15074380142212zM91.19999660385132 43.66142380142212C91.41408660385132 43.66142380142212 91.58764660385131 43.83282380142212 91.58764660385131 44.04422380142212 91.58764660385131 44.24452380142212 91.43187660385132 44.40892380142212 91.23344660385132 44.42562380142212L91.19999660385132 44.42702380142212 89.71927060385131 44.42702380142212C89.50518160385131 44.42702380142212 89.33162832285132 44.25562380142212 89.33162832285132 44.04422380142212 89.33162832285132 43.84392380142212 89.48739360385132 43.67962380142212 89.68582360385132 43.66282380142212L89.71927060385131 43.66142380142212 91.19999660385132 43.66142380142212zM122.68281660385132 44.044323801422124C122.68281660385132 43.83292380142212 122.50931660385132 43.66152380142212 122.29521660385132 43.66152380142212L120.81451660385132 43.66152380142212 120.78101660385131 43.662923801422124C120.58261660385132 43.67962380142212 120.42681660385132 43.84402380142212 120.42681660385132 44.044323801422124 120.42681660385132 44.25572380142212 120.60041660385131 44.42712380142212 120.81451660385132 44.42712380142212L122.29521660385132 44.42712380142212 122.32861660385132 44.42572380142212C122.52711660385131 44.40892380142212 122.68281660385132 44.24462380142212 122.68281660385132 44.044323801422124zM92.98926660385132 51.04682380142212C93.17452660385132 50.94082380142212 93.41170660385131 51.00322380142212 93.51900660385132 51.186223801422116 93.62034660385132 51.35902380142212 93.56960660385131 51.57752380142212 93.40758660385131 51.69052380142212L93.37784660385132 51.709323801422116 92.73663660385132 52.076023801422124C92.55137660385132 52.18202380142212 92.31419660385131 52.11962380142212 92.20689660385132 51.936623801422115 92.10554660385132 51.76382380142212 92.15629660385132 51.545323801422114 92.31831660385131 51.432323801422115L92.34805660385132 51.413523801422116 92.98926660385132 51.04682380142212zM119.13691660385132 51.553023801422114C119.23831660385132 51.38022380142212 119.45551660385132 51.315023801422115 119.63541660385133 51.39752380142212L119.66671660385131 51.41362380142212 120.30791660385131 51.78032380142212C120.49311660385132 51.88632380142212 120.55631660385131 52.120523801422124 120.44901660385132 52.30342380142212 120.34771660385132 52.47622380142212 120.13051660385132 52.541523801422116 119.95061660385132 52.45892380142212L119.91931660385131 52.44282380142212 119.27811660385132 52.07612380142212C119.09281660385132 51.97022380142212 119.02961660385132 51.73602380142212 119.13691660385132 51.553023801422114zM113.72761660385132 56.526923801422114C113.61361660385131 56.36662380142212 113.39251660385132 56.315923801422116 113.21731660385132 56.41552380142212 113.03171660385132 56.52102380142212 112.96781660385132 56.75502380142212 113.07461660385133 56.93822380142212L113.44481660385132 57.57342380142212 113.46381660385131 57.60282380142212C113.57781660385132 57.76312380142212 113.79891660385132 57.81392380142212 113.97421660385132 57.71432380142212 114.15971660385132 57.60882380142212 114.22361660385133 57.374823801422124 114.11681660385132 57.19152380142212L113.74661660385132 56.55642380142212 113.72761660385132 56.526923801422114zM98.27040660385131 56.556923801422116C98.37720660385132 56.373723801422116 98.61420660385131 56.31062380142212 98.79976660385132 56.41612380142212 98.97501660385132 56.51572380142212 99.04170660385132 56.73002380142212 98.95861660385131 56.90782380142212L98.94238660385132 56.93882380142212 98.57218660385132 57.574023801422115C98.46539660385132 57.757223801422114 98.22838660385132 57.82032380142212 98.04282660385132 57.71482380142212 97.86757660385132 57.61522380142212 97.80088660385132 57.400923801422124 97.88398660385131 57.22312380142212L97.90020660385132 57.19212380142212 98.27040660385131 56.556923801422116zM106.00781660385132 58.33012380142212C106.21071660385132 58.33012380142212 106.37711660385132 58.48392380142212 106.39411660385132 58.67982380142212L106.39551660385132 58.71292380142212 106.39551660385132 60.17982380142212C106.39551660385132 60.39122380142212 106.22191660385133 60.56262380142212 106.00781660385132 60.56262380142212 105.80501660385131 60.56262380142212 105.63861660385132 60.40872380142212 105.62161660385132 60.21282380142212L105.62021660385132 60.17982380142212 105.62021660385132 58.71292380142212C105.62021660385132 58.501523801422124 105.79371660385132 58.33012380142212 106.00781660385132 58.33012380142212zM104.76686385559083 34.550814361419675L103.21562385559082 34.550814361419675 105.93029385559082 30.708974361419887 108.64496385559082 34.550814361419675 107.09372385559082 34.550814361419675 107.09372385559082 43.09577436141968 114.55622385559082 43.09607436141968 114.55622385559082 41.55937436141968 118.43432385559082 44.24857436141968 114.55622385559082 46.937874361419674 114.55622385559082 45.40117436141968 105.49186385559082 45.40117436141968C105.09145385559081 45.40117436141968 104.76686385559083 45.076574361419674 104.76686385559083 44.676174361419676L104.76686385559083 34.550814361419675z" fill-rule="evenodd" fill="#4773FA" transform="matrix(.9661 -.25552 .2648 .96502 -2.712 21.836)"></path></g></g><g style="mix-blend-mode:passthrough"><rect x="10" y="51.061" width="66.968" height="79.939" rx="2.175" fill="#DBDBDB"></rect><rect x="16.23" y="57.21" width="54.509" height="67.641" rx="0" fill="#FFFFFF"></rect><path d="M70.73825673217773,109.47793006896973L70.73825673217773,124.85083006896973L52.049556732177734,124.85083006896973" fill-rule="evenodd" fill="#E5E5E5"></path><path d="M55.16433673217774,109.47793006896973Q59.057816732177734,111.78387006896973,62.95125673217773,111.78387006896973Q66.84475673217773,111.78387006896973,70.73825673217773,109.47793006896973L52.049556732177734,124.85083006896973L55.16433673217774,109.47793006896973Z" fill-rule="evenodd" fill="#EEEEEE"></path><g style="mix-blend-mode:passthrough" filter="url(#no-pomo-record_b)"><path d="M36.47565187988281,45.68039277893067L36.47565187988281,51.06088277893066L27.131301879882812,53.366882778930666L27.131301879882812,61.053282778930665L59.83650187988281,61.053282778930665L59.83650187988281,53.366882778930666L50.49220187988281,51.06088277893066L50.49220187988281,45.68039277893067C50.49220187988281,41.85979277893066,47.35450187988281,38.762582778930664,43.48390187988281,38.762582778930664C39.613401879882815,38.762582778930664,36.47565187988281,41.85979277893066,36.47565187988281,45.68039277893067ZM46.59870187988281,46.44904277893066C46.59870187988281,48.14708277893067,45.20410187988281,49.52358277893066,43.48390187988281,49.52358277893066C41.76360187988281,49.52358277893066,40.36910187988281,48.14708277893067,40.36910187988281,46.44904277893066C40.36910187988281,44.750992778930666,41.76360187988281,43.37446277893066,43.48390187988281,43.37446277893066C45.20410187988281,43.37446277893066,46.59870187988281,44.750992778930666,46.59870187988281,46.44904277893066Z" fill-rule="evenodd" fill="#4772FA"></path></g><rect x="22.459" y="71.046" width="42.05" height="3.843" rx="0" fill="#E5E5E5"></rect><rect x="22.459" y="81.807" width="32.705" height="3.843" rx="0" fill="#E5E5E5"></rect><rect x="22.459" y="92.568" width="23.361" height="3.843" rx="0" fill="#E5E5E5"></rect><rect x="23.238" y="103.329" width="37.377" height="3.843" rx="0" fill="#E5E5E5"></rect></g></g></g></symbol>
<symbol xmlns="http://www.w3.org/2000/svg" viewBox="0 0 24 24" id="no-tag"><path d="M16.81221941204071,21.05481929283142C15.52371941204071,22.34321929283142,13.57491941204071,22.56901929283142,12.05511941204071,21.73191929283142Q12.60701941204071,20.86881929283142,12.84111941204071,19.871519292831422Q13.33891941204071,20.22641929283142,13.98371941204071,20.22641929283142Q14.81221941204071,20.22641929283142,15.39801941204071,19.64061929283142L19.64061941204071,15.397919292831421Q20.22641941204071,14.81221929283142,20.22641941204071,13.98371929283142Q20.22641941204071,13.155319292831422,19.64061941204071,12.56961929283142L11.80391941204071,4.7328192928314206Q11.27251941204071,4.2014492928314215,10.52270941204071,4.1514592928314205L4.83669941204071,3.772389292831421Q4.383939412040711,3.7422092928314212,4.0630694120407105,4.063069292831421Q3.742209412040711,4.3839292928314215,3.7723894120407104,4.836699292831421L4.15145941204071,10.52270929283142Q4.201449412040711,11.27251929283142,4.73281941204071,11.80391929283142L5.5956094120407105,12.66671929283142Q4.53597941204071,12.92181929283142,3.6337694120407105,13.53321929283142L3.3186094120407104,13.218119292831421C2.6334944120407107,12.53301929283142,2.2203414120407103,11.622489292831421,2.1558914120407104,10.655749292831421L1.7768235320407104,4.969739292831421C1.6560864120407104,3.1586792928314207,3.1586794120407102,1.6560862928314208,4.969739412040711,1.776823142831421L10.655749412040711,2.1558902928314208C11.62249941204071,2.220340292831421,12.53301941204071,2.633493292831421,13.21811941204071,3.318599292831421L21.05491941204071,11.15539929283142C22.616919412040712,12.71751929283142,22.616919412040712,15.250119292831421,21.05491941204071,16.812219292831422L16.81221941204071,21.05481929283142ZM6.62369941204071,8.745039292831422C6.0379194120407105,8.159249292831422,6.0379194120407105,7.209539292831421,6.62369941204071,6.6237492928314206C7.2094894120407105,6.037959292831421,8.15921941204071,6.0379292928314205,8.74500941204071,6.623719292831421C9.330799412040712,7.2094992928314205,9.330799412040712,8.15929929283142,8.74500941204071,8.74508929283142C8.15921941204071,9.330869292831421,7.2094894120407105,9.330829292831421,6.62369941204071,8.745039292831422ZM12.00001941204071,18.50001929283142C12.00001941204071,21.26141929283142,9.76141941204071,23.50001929283142,6.999999412040711,23.50001929283142C5.619289412040711,23.50001929283142,4.369299412040711,22.940319292831422,3.4644794120407107,22.03551929283142C2.5596554120407102,21.130719292831422,1.9999994120407105,19.880719292831422,1.9999994120407105,18.50001929283142C1.9999994120407105,15.738619292831421,4.2385794120407105,13.500019292831421,6.999999412040711,13.500019292831421C8.38070941204071,13.500019292831421,9.63069941204071,14.059619292831421,10.53551941204071,14.96451929283142C11.44034941204071,15.86931929283142,12.00001941204071,17.11931929283142,12.00001941204071,18.50001929283142ZM3.7999994120407106,18.50001929283142Q3.7999994120407106,19.35051929283142,4.18594941204071,20.04121929283142L8.54125941204071,15.685919292831422Q7.850549412040711,15.30001929283142,6.999999412040711,15.30001929283142Q5.674519412040711,15.30001929283142,4.737259412040711,16.23721929283142Q3.7999994120407106,17.17451929283142,3.7999994120407106,18.50001929283142ZM10.199999412040711,18.50001929283142Q10.199999412040711,17.64941929283142,9.81404941204071,16.95871929283142L5.45874941204071,21.31401929283142Q6.149449412040711,21.70001929283142,6.999999412040711,21.70001929283142Q8.32547941204071,21.70001929283142,9.26273941204071,20.76271929283142Q10.199999412040711,19.82551929283142,10.199999412040711,18.50001929283142Z" fill-rule="evenodd"></path></symbol>
</svg>