<svg xmlns="http://www.w3.org/2000/svg" xmlns:xlink="http://www.w3.org/1999/xlink" style="position: absolute; width: 0; height: 0" aria-hidden="true" id="__SVG_SPRITE_NODE__">
<symbol xmlns="http://www.w3.org/2000/svg" viewBox="0 0 24 24" id="outlined-calendar"><path d="M0.9999974346207166,6.00756L0.9999990329407166,17.9924C0.9999990306407166,20.2016,2.7508689731407165,22,4.959998973140717,22C9.653338973140716,22,14.346688973140717,22,19.039988973140716,22C21.249188973140715,22,22.999988973140717,20.2016,22.999988973140717,17.9924C22.999988973140717,14.8465,22.999988973140717,11.44206,22.999988973140717,8.199950000000001L22.999988973140717,6.19995L22.999988973140717,6.00755C22.999988973140717,3.79842,21.177188973140716,2,18.968088973140716,2L4.995138973140717,2C2.7859989731407167,2,0.9999969766607165,3.79842,0.9999974346207166,6.00756ZM20.999988973140717,6.19995L20.999988973140717,5.98951C20.999988973140717,4.88494,20.113288973140715,4,19.008788973140717,4L14.996088973140717,4.00001C11.661188973140716,4.00002,8.326198973140716,4.000030000000001,4.991248973140717,4.00001C3.8866689731407167,4.00001,2.9999989731407166,4.884930000000001,2.9999889731407166,5.98951L2.9999889731407166,6.19995L20.999988973140717,6.19995ZM2.9999789731407165,8.199950000000001L2.9999789731407165,8.69586C2.9999689731407164,11.78929,2.9999489731407163,15.1297,2.9999789731407165,18.0105C2.9999889731407166,19.115,3.8867089731407165,20,4.991258973140717,20L8.165038973140717,20C11.779588973140717,20,15.394188973140716,20,19.008788973140717,20C20.113288973140715,20,20.999988973140717,19.1151,20.999988973140717,18.0105C20.999988973140717,15.0265,20.999988973140717,11.54922,20.999988973140717,8.36419L20.999988973140717,8.199950000000001L2.9999789731407165,8.199950000000001ZM5.9999889731407166,10Q5.901498973140717,10,5.804898973140716,10.01921Q5.7082989731407165,10.03843,5.617308973140717,10.07612Q5.526308973140717,10.11381,5.444418973140716,10.16853Q5.362528973140717,10.22325,5.292878973140716,10.29289Q5.223238973140717,10.36254,5.168518973140716,10.44443Q5.1137989731407165,10.52632,5.076108973140717,10.61732Q5.0384189731407165,10.70831,5.019198973140717,10.80491Q4.9999889731407166,10.90151,4.9999889731407166,11Q4.9999889731407166,11.09849,5.019198973140717,11.19509Q5.0384189731407165,11.29169,5.076108973140717,11.38268Q5.1137989731407165,11.47368,5.168518973140716,11.55557Q5.223238973140717,11.63746,5.292878973140716,11.70711Q5.362528973140717,11.77675,5.444418973140716,11.83147Q5.526308973140717,11.88619,5.617308973140717,11.92388Q5.7082989731407165,11.96157,5.804898973140716,11.98078Q5.901498973140717,12,5.9999889731407166,12L6.9999889731407166,12Q7.0984789731407165,12,7.195078973140717,11.98078Q7.291678973140717,11.96157,7.382668973140716,11.92388Q7.473668973140716,11.88619,7.555558973140717,11.83147Q7.6374489731407165,11.77675,7.707098973140717,11.70711Q7.776738973140716,11.63746,7.831458973140717,11.55557Q7.886178973140717,11.47368,7.923868973140716,11.38268Q7.961558973140717,11.29169,7.980768973140717,11.19509Q7.9999889731407166,11.09849,7.9999889731407166,11Q7.9999889731407166,10.90151,7.980768973140717,10.80491Q7.961558973140717,10.70831,7.923868973140716,10.61732Q7.886178973140717,10.52632,7.831458973140717,10.44443Q7.776738973140716,10.36254,7.707098973140717,10.29289Q7.6374489731407165,10.22325,7.555558973140717,10.16853Q7.473668973140716,10.11381,7.382668973140716,10.07612Q7.291678973140717,10.03843,7.195078973140717,10.01921Q7.0984789731407165,10,6.9999889731407166,10L5.9999889731407166,10ZM10.999988973140717,10Q10.901498973140717,10,10.804898973140716,10.01921Q10.708298973140717,10.03843,10.617308973140716,10.07612Q10.526308973140717,10.11381,10.444418973140717,10.16853Q10.362528973140716,10.22325,10.292878973140716,10.29289Q10.223238973140717,10.36254,10.168518973140717,10.44443Q10.113798973140717,10.52632,10.076108973140716,10.61732Q10.038418973140717,10.70831,10.019198973140716,10.80491Q9.999988973140717,10.90151,9.999988973140717,11Q9.999988973140717,11.09849,10.019198973140716,11.19509Q10.038418973140717,11.29169,10.076108973140716,11.38268Q10.113798973140717,11.47368,10.168518973140717,11.55557Q10.223238973140717,11.63746,10.292878973140716,11.70711Q10.362528973140716,11.77675,10.444418973140717,11.83147Q10.526308973140717,11.88619,10.617308973140716,11.92388Q10.708298973140717,11.96157,10.804898973140716,11.98078Q10.901498973140717,12,10.999988973140717,12L11.999988973140717,12Q12.098488973140716,12,12.195088973140717,11.98078Q12.291688973140717,11.96157,12.382688973140716,11.92388Q12.473688973140716,11.88619,12.555588973140717,11.83147Q12.637488973140716,11.77675,12.707088973140717,11.70711Q12.776688973140716,11.63746,12.831488973140717,11.55557Q12.886188973140717,11.47368,12.923888973140716,11.38268Q12.961588973140717,11.29169,12.980788973140717,11.19509Q12.999988973140717,11.09849,12.999988973140717,11Q12.999988973140717,10.90151,12.980788973140717,10.80491Q12.961588973140717,10.70831,12.923888973140716,10.61732Q12.886188973140717,10.52632,12.831488973140717,10.44443Q12.776688973140716,10.36254,12.707088973140717,10.29289Q12.637488973140716,10.22325,12.555588973140717,10.16853Q12.473688973140716,10.11381,12.382688973140716,10.07612Q12.291688973140717,10.03843,12.195088973140717,10.01921Q12.098488973140716,10,11.999988973140717,10L10.999988973140717,10ZM14.999988973140717,11Q14.999988973140717,10.90151,15.019188973140716,10.80491Q15.038388973140716,10.70831,15.076088973140717,10.61732Q15.113788973140716,10.52632,15.168488973140716,10.44443Q15.223188973140717,10.36254,15.292888973140716,10.29289Q15.362488973140717,10.22325,15.444388973140716,10.16853Q15.526288973140717,10.11381,15.617288973140717,10.07612Q15.708288973140716,10.03843,15.804888973140717,10.01921Q15.901488973140717,10,15.999988973140717,10L16.999988973140717,10Q17.098488973140718,10,17.195088973140717,10.01921Q17.291688973140715,10.03843,17.382688973140716,10.07612Q17.473688973140717,10.11381,17.555588973140715,10.16853Q17.637488973140716,10.22325,17.707088973140717,10.29289Q17.77668897314072,10.36254,17.831488973140715,10.44443Q17.886188973140715,10.52632,17.923888973140716,10.61732Q17.961588973140717,10.70831,17.980788973140715,10.80491Q17.999988973140717,10.90151,17.999988973140717,11Q17.999988973140717,11.09849,17.980788973140715,11.19509Q17.961588973140717,11.29169,17.923888973140716,11.38268Q17.886188973140715,11.47368,17.831488973140715,11.55557Q17.77668897314072,11.63746,17.707088973140717,11.70711Q17.637488973140716,11.77675,17.555588973140715,11.83147Q17.473688973140717,11.88619,17.382688973140716,11.92388Q17.291688973140715,11.96157,17.195088973140717,11.98078Q17.098488973140718,12,16.999988973140717,12L15.999988973140717,12Q15.901488973140717,12,15.804888973140717,11.98078Q15.708288973140716,11.96157,15.617288973140717,11.92388Q15.526288973140717,11.88619,15.444388973140716,11.83147Q15.362488973140717,11.77675,15.292888973140716,11.70711Q15.223188973140717,11.63746,15.168488973140716,11.55557Q15.113788973140716,11.47368,15.076088973140717,11.38268Q15.038388973140716,11.29169,15.019188973140716,11.19509Q14.999988973140717,11.09849,14.999988973140717,11ZM5.9999889731407166,14Q5.901498973140717,14,5.804898973140716,14.0192Q5.7082989731407165,14.0384,5.617308973140717,14.0761Q5.526308973140717,14.1138,5.444418973140716,14.1685Q5.362528973140717,14.2232,5.292878973140716,14.2929Q5.223238973140717,14.3625,5.168518973140716,14.4444Q5.1137989731407165,14.5263,5.076108973140717,14.6173Q5.0384189731407165,14.7083,5.019198973140717,14.8049Q4.9999889731407166,14.9015,4.9999889731407166,15Q4.9999889731407166,15.0985,5.019198973140717,15.1951Q5.0384189731407165,15.2917,5.076108973140717,15.3827Q5.1137989731407165,15.4737,5.168518973140716,15.5556Q5.223238973140717,15.6375,5.292878973140716,15.7071Q5.362528973140717,15.7767,5.444418973140716,15.8315Q5.526308973140717,15.8862,5.617308973140717,15.9239Q5.7082989731407165,15.9616,5.804898973140716,15.9808Q5.901498973140717,16,5.9999889731407166,16L6.9999889731407166,16Q7.0984789731407165,16,7.195078973140717,15.9808Q7.291678973140717,15.9616,7.382668973140716,15.9239Q7.473668973140716,15.8862,7.555558973140717,15.8315Q7.6374489731407165,15.7767,7.707098973140717,15.7071Q7.776738973140716,15.6375,7.831458973140717,15.5556Q7.886178973140717,15.4737,7.923868973140716,15.3827Q7.961558973140717,15.2917,7.980768973140717,15.1951Q7.9999889731407166,15.0985,7.9999889731407166,15Q7.9999889731407166,14.9015,7.980768973140717,14.8049Q7.961558973140717,14.7083,7.923868973140716,14.6173Q7.886178973140717,14.5263,7.831458973140717,14.4444Q7.776738973140716,14.3625,7.707098973140717,14.2929Q7.6374489731407165,14.2232,7.555558973140717,14.1685Q7.473668973140716,14.1138,7.382668973140716,14.0761Q7.291678973140717,14.0384,7.195078973140717,14.0192Q7.0984789731407165,14,6.9999889731407166,14L5.9999889731407166,14ZM9.999988973140717,15Q9.999988973140717,14.9015,10.019198973140716,14.8049Q10.038418973140717,14.7083,10.076108973140716,14.6173Q10.113798973140717,14.5263,10.168518973140717,14.4444Q10.223238973140717,14.3625,10.292878973140716,14.2929Q10.362528973140716,14.2232,10.444418973140717,14.1685Q10.526308973140717,14.1138,10.617308973140716,14.0761Q10.708298973140717,14.0384,10.804898973140716,14.0192Q10.901498973140717,14,10.999988973140717,14L11.999988973140717,14Q12.098488973140716,14,12.195088973140717,14.0192Q12.291688973140717,14.0384,12.382688973140716,14.0761Q12.473688973140716,14.1138,12.555588973140717,14.1685Q12.637488973140716,14.2232,12.707088973140717,14.2929Q12.776688973140716,14.3625,12.831488973140717,14.4444Q12.886188973140717,14.5263,12.923888973140716,14.6173Q12.961588973140717,14.7083,12.980788973140717,14.8049Q12.999988973140717,14.9015,12.999988973140717,15Q12.999988973140717,15.0985,12.980788973140717,15.1951Q12.961588973140717,15.2917,12.923888973140716,15.3827Q12.886188973140717,15.4737,12.831488973140717,15.5556Q12.776688973140716,15.6375,12.707088973140717,15.7071Q12.637488973140716,15.7767,12.555588973140717,15.8315Q12.473688973140716,15.8862,12.382688973140716,15.9239Q12.291688973140717,15.9616,12.195088973140717,15.9808Q12.098488973140716,16,11.999988973140717,16L10.999988973140717,16Q10.901498973140717,16,10.804898973140716,15.9808Q10.708298973140717,15.9616,10.617308973140716,15.9239Q10.526308973140717,15.8862,10.444418973140717,15.8315Q10.362528973140716,15.7767,10.292878973140716,15.7071Q10.223238973140717,15.6375,10.168518973140717,15.5556Q10.113798973140717,15.4737,10.076108973140716,15.3827Q10.038418973140717,15.2917,10.019198973140716,15.1951Q9.999988973140717,15.0985,9.999988973140717,15Z" fill-rule="evenodd"></path></symbol>
<symbol xmlns="http://www.w3.org/2000/svg" viewBox="0 0 24 24" id="outlined-habit"><path d="M22.5,10.97998046875Q22.5,16.09398046875,14.3341,22.68718046875C12.9755,23.78408046875,11.02449,23.78408046875,9.66589,22.68718046875Q1.5,16.09398046875,1.5,10.97998046875C1.5,5.18102046875,6.20101,0.48001098635,12,0.48001098635C17.799,0.48001098635,22.5,5.18102046875,22.5,10.97998046875ZM20.5,10.97998046875Q20.5,7.45920046875,18.0104,4.96960046875Q15.5208,2.48001046875,12,2.48001046875Q8.47918,2.48001046875,5.98959,4.96960046875Q3.5,7.45919046875,3.5,10.97998046875Q3.5,15.13828046875,10.92229,21.13108046875Q11.39146,21.50988046875,12,21.50988046875Q12.6085,21.50988046875,13.0777,21.13108046875Q20.5,15.13828046875,20.5,10.97998046875ZM15,10.00000046875L13,10.00000046875L13,6.00000046875C13,5.44771046875,12.5523,5.00000046875,12,5.00000046875C11.44771,5.00000046875,11,5.44771046875,11,6.00000046875L11,10.99998046875Q11,11.09848046875,11.01921,11.19508046875Q11.03843,11.29168046875,11.07612,11.38268046875Q11.11381,11.47368046875,11.16853,11.55558046875Q11.22325,11.63748046875,11.29289,11.70708046875Q11.36253,11.77678046875,11.44443,11.83148046875Q11.5263,11.88618046875,11.6173,11.92388046875Q11.7083,11.96158046875,11.8049,11.98078046875Q11.9015,11.99998046875,12,11.99998046875L15,11.99998046875Q15.0985,11.99998046875,15.1951,11.98078046875Q15.2917,11.96158046875,15.3827,11.92388046875Q15.4737,11.88618046875,15.5556,11.83148046875Q15.6375,11.77678046875,15.7071,11.70708046875Q15.7767,11.63748046875,15.8315,11.55558046875Q15.8862,11.47368046875,15.9239,11.38268046875Q15.9616,11.29168046875,15.9808,11.19508046875Q16,11.09848046875,16,10.99998046875Q16,10.90148046875,15.9808,10.80488046875Q15.9616,10.70828046875,15.9239,10.61728046875Q15.8862,10.52628046875,15.8315,10.44443046875Q15.7767,10.36254046875,15.7071,10.29289046875Q15.6375,10.22325046875,15.5556,10.16853046875Q15.4737,10.11381046875,15.3827,10.07612046875Q15.2917,10.03843046875,15.1951,10.01921046875Q15.0985,10.00000046875,15,10.00000046875Z" fill-rule="evenodd"></path></symbol>
<symbol xmlns="http://www.w3.org/2000/svg" viewBox="0 0 24 24" id="outlined-matrix"><path d="M6.5,11.5C3.73858,11.5,1.5,9.261420000000001,1.5,6.5C1.5,3.73858,3.73858,1.5,6.5,1.5C9.261420000000001,1.5,11.5,3.73858,11.5,6.5L11.5,11.5L6.5,11.5ZM9.5,9.5L9.5,6.5Q9.5,5.25736,8.62132,4.37868Q7.74264,3.5,6.5,3.5Q5.25736,3.5,4.37868,4.37868Q3.5,5.25736,3.5,6.5Q3.5,7.74264,4.37868,8.62132Q5.25736,9.5,6.5,9.5L9.5,9.5ZM17.5,11.5C20.2614,11.5,22.5,9.261420000000001,22.5,6.5C22.5,3.73858,20.2614,1.5,17.5,1.5C14.7386,1.5,12.5,3.73858,12.5,6.5L12.5,11.5L17.5,11.5ZM14.5,9.5L14.5,6.5Q14.5,5.25736,15.3787,4.37868Q16.2574,3.5,17.5,3.5Q18.7426,3.5,19.6213,4.37868Q20.5,5.25736,20.5,6.5Q20.5,7.74264,19.6213,8.62132Q18.7426,9.5,17.5,9.5L14.5,9.5ZM6.5,22.5C3.73858,22.5,1.5,20.2614,1.5,17.5C1.5,14.7386,3.73858,12.5,6.5,12.5L11.5,12.5L11.5,17.5C11.5,20.2614,9.261420000000001,22.5,6.5,22.5ZM9.5,14.5L6.5,14.5Q5.25736,14.5,4.37868,15.3787Q3.5,16.2574,3.5,17.5Q3.5,18.7426,4.37868,19.6213Q5.25736,20.5,6.5,20.5Q7.74264,20.5,8.62132,19.6213Q9.5,18.7426,9.5,17.5L9.5,14.5ZM17.5,22.5C20.2614,22.5,22.5,20.2614,22.5,17.5C22.5,14.7386,20.2614,12.5,17.5,12.5L12.5,12.5L12.5,17.5C12.5,20.2614,14.7386,22.5,17.5,22.5ZM14.5,14.5L17.5,14.5Q18.7426,14.5,19.6213,15.3787Q20.5,16.2574,20.5,17.5Q20.5,18.7426,19.6213,19.6213Q18.7426,20.5,17.5,20.5Q16.2574,20.5,15.3787,19.6213Q14.5,18.7426,14.5,17.5L14.5,14.5Z" fill-rule="evenodd"></path></symbol>
<symbol xmlns="http://www.w3.org/2000/svg" viewBox="0 0 24 24" id="outlined-search"><path d="M17.890696185302733,16.469388555908203C19.209896185302735,14.838088555908204,19.999996185302734,12.761288555908203,19.999996185302734,10.499988555908203C19.999996185302734,5.253278555908203,15.746696185302735,0.9999885559082031,10.499996185302734,0.9999885559082031C5.253286185302734,0.9999885559082031,0.9999961853027344,5.253278555908203,0.9999961853027344,10.499988555908203C0.9999961853027344,15.746688555908204,5.253286185302734,19.999988555908203,10.499996185302734,19.999988555908203C12.764896185302735,19.999988555908203,14.844696185302734,19.207388555908203,16.477096185302734,17.884488555908202L21.065196185302735,22.472588555908203Q21.205896185302734,22.613188555908202,21.389596185302736,22.689388555908202Q21.573396185302734,22.765488555908203,21.772296185302736,22.765488555908203Q21.971196185302734,22.765488555908203,22.154996185302736,22.689388555908202Q22.338796185302733,22.613188555908202,22.479396185302733,22.472588555908203L22.479596185302736,22.472388555908204Q22.549196185302733,22.402788555908202,22.603896185302734,22.320888555908205Q22.658696185302734,22.238988555908204,22.696396185302735,22.147988555908203Q22.733996185302736,22.0569885559082,22.753296185302734,21.960388555908203Q22.772496185302735,21.863788555908204,22.772496185302735,21.765288555908203Q22.772496185302735,21.6667885559082,22.753296185302734,21.570188555908203Q22.733996185302736,21.473588555908204,22.696396185302735,21.382588555908203Q22.658696185302734,21.291588555908202,22.603896185302734,21.209688555908205Q22.549196185302733,21.127888555908203,22.479596185302736,21.058188555908202L17.890696185302733,16.469388555908203ZM15.803296185302735,5.196688555908203Q17.999996185302734,7.393388555908203,17.999996185302734,10.499988555908203Q17.999996185302734,13.606588555908203,15.803296185302735,15.803288555908203Q13.606596185302735,17.999988555908203,10.499996185302734,17.999988555908203Q7.393396185302734,17.999988555908203,5.196696185302734,15.803288555908203Q2.9999961853027344,13.606588555908203,2.9999961853027344,10.499988555908203Q2.9999961853027344,7.393388555908203,5.196696185302734,5.196688555908203Q7.393396185302734,2.999988555908203,10.499996185302734,2.999988555908203Q13.606596185302735,2.999988555908203,15.803296185302735,5.196688555908203Z" fill-rule="evenodd"></path></symbol>
<symbol xmlns="http://www.w3.org/2000/svg" viewBox="0 0 24 24" id="outlined-task"><path d="M1.5,5.5L1.5,18.5C1.5,20.7091,3.29086,22.5,5.5,22.5L18.5,22.5C20.7091,22.5,22.5,20.7091,22.5,18.5L22.5,5.5C22.5,3.29086,20.7091,1.5,18.5,1.5L5.5,1.5C3.29086,1.5,1.5,3.29086,1.5,5.5ZM4.08582,19.9143Q3.5,19.3284,3.5,18.5L3.5,5.5Q3.5,4.67157,4.085789999999999,4.085789999999999Q4.67157,3.5,5.5,3.5L18.5,3.5Q19.3284,3.49991,19.9142,4.08569Q20.5,4.67157,20.5,5.5L20.5,18.5Q20.5,19.3285,19.9142,19.9143Q19.3284,20.5,18.5,20.5L5.5,20.5Q4.6716,20.5001,4.08582,19.9143ZM8.46706,11.29126C8.07653,10.90074,7.44337,10.90074,7.05284,11.29126C6.66232,11.6818,6.66232,12.315,7.05284,12.7055L9.88127,15.5339C9.90568,15.5583,9.93103,15.5812,9.95722,15.6025C10.34999,15.9229,10.92937,15.9,11.29548,15.5339L11.30334,15.526L16.9523,9.87701C17.3428,9.48648,17.3428,8.85332,16.9523,8.46279C16.561799999999998,8.07227,15.9286,8.07227,15.5381,8.46279L10.58833,13.4125L8.46706,11.29126Z" fill-rule="evenodd"></path></symbol>
</svg>