<svg xmlns="http://www.w3.org/2000/svg" xmlns:xlink="http://www.w3.org/1999/xlink" style="position: absolute; width: 0; height: 0" aria-hidden="true" id="__SVG_SPRITE_NODE__">
<symbol xmlns="http://www.w3.org/2000/svg" viewBox="0 0 24 24" id="overdue"><path d="M0.9999914035607166,17.9924L0.9999889731407166,6.00756C0.9999889731407166,3.79842,2.7859889731407166,2,4.995128973140717,2L18.968088973140716,2C21.177188973140716,2,22.999988973140717,3.79842,22.999988973140717,6.00755L22.999988973140717,6.20001L22.999988973140717,8.200009999999999C22.999988973140717,11.44211,22.999988973140717,14.8465,22.999988973140717,17.9924C22.999988973140717,20.2016,21.249188973140715,22,19.039988973140716,22C14.346688973140717,22,9.653328973140717,22,4.9599889731407165,22C2.7508589731407165,22,0.9999914012907165,20.2016,0.9999914035607166,17.9924ZM20.999988973140717,6.20001L20.999988973140717,5.98951C20.999988973140717,4.88494,20.113288973140715,4,19.008688973140718,4L14.996088973140717,4.00001C11.661188973140716,4.00002,8.326188973140717,4.000030000000001,4.9912389731407165,4.00001C3.8866589731407166,4.00001,2.9999889731407166,4.884930000000001,2.9999889731407166,5.98951L2.9999889731407166,6.20001L20.999988973140717,6.20001ZM2.9999789731407165,8.200009999999999L20.999988973140717,8.200009999999999L20.999988973140717,8.36419C20.999988973140717,11.54922,20.999988973140717,15.0265,20.999988973140717,18.0105C20.999988973140717,19.1151,20.113288973140715,20,19.008788973140717,20C15.394188973140716,20,11.779588973140717,20,8.165028973140718,20L4.991258973140717,20C3.8866989731407164,20,2.9999889731407166,19.115,2.9999689731407164,18.0105C2.9999389731407167,15.1333,2.999958973140717,11.79763,2.9999689731407164,8.70745L2.9999789731407165,8.200009999999999ZM9.030108973140717,10.76774L6.153178973140717,13.3493L6.148418973140717,13.3535Q5.960828973140717,13.5218,5.888548973140717,13.7509Q5.8645489731407165,13.8269,5.855448973140716,13.9056Q5.843708973140717,14.007,5.857168973140716,14.1083Q5.870638973140717,14.2096,5.908648973140717,14.3057Q5.946658973140717,14.4018,6.007348973140717,14.4881Q6.068028973140716,14.5743,6.148408973140716,14.6464L6.154148973140717,14.6515L9.030118973140716,17.2322Q9.101068973140716,17.2959,9.184508973140716,17.3459Q9.267938973140717,17.395899999999997,9.360648973140716,17.4304Q9.453358973140716,17.4648,9.551778973140717,17.4824Q9.650198973140716,17.4999,9.750538973140717,17.5Q9.850888973140716,17.4999,9.949308973140717,17.4824Q10.047728973140716,17.4648,10.140428973140716,17.4304Q10.233138973140717,17.395899999999997,10.316578973140716,17.3459Q10.400008973140716,17.2959,10.470968973140717,17.2322Q10.614268973140717,17.1036,10.691818973140716,16.9356Q10.769378973140716,16.7676,10.769378973140716,16.5857Q10.769378973140716,16.4039,10.691818973140716,16.2359Q10.614268973140717,16.0679,10.470968973140717,15.9393L9.336098973140716,14.921L17.234288973140718,14.921Q17.324288973140717,14.921,17.412588973140718,14.9034Q17.500888973140718,14.8858,17.584088973140716,14.8514Q17.667288973140717,14.8169,17.742188973140717,14.7669Q17.816988973140717,14.7169,17.880688973140717,14.6532Q17.94438897314072,14.5895,17.994388973140715,14.5147Q18.044388973140716,14.4398,18.078888973140717,14.3566Q18.113288973140715,14.2734,18.130888973140717,14.1851Q18.148488973140715,14.0968,18.148488973140715,14.0067Q18.148488973140715,13.9167,18.130888973140717,13.8284Q18.113288973140715,13.7401,18.078888973140717,13.6569Q18.044388973140716,13.5737,17.994388973140715,13.4988Q17.94438897314072,13.424,17.880688973140717,13.3603Q17.816988973140717,13.2966,17.742188973140717,13.2466Q17.667288973140717,13.1966,17.584088973140716,13.1621Q17.500888973140718,13.1277,17.412588973140718,13.1101Q17.324288973140717,13.0925,17.234288973140718,13.0925L9.320978973140717,13.0925L10.470958973140716,12.0606Q10.614258973140716,11.93205,10.691818973140716,11.76404Q10.769368973140717,11.59604,10.769368973140717,11.41419Q10.769368973140717,11.23234,10.691818973140716,11.06433Q10.614258973140716,10.89633,10.470958973140716,10.76774Q10.400008973140716,10.70407,10.316568973140717,10.65405Q10.233138973140717,10.60402,10.140428973140716,10.56956Q10.047718973140716,10.53511,9.949298973140717,10.51754Q9.850878973140716,10.49997,9.750538973140717,10.49997Q9.650188973140716,10.49997,9.551768973140717,10.51754Q9.453348973140717,10.53511,9.360638973140716,10.56956Q9.267938973140717,10.60402,9.184498973140716,10.65405Q9.101068973140716,10.70407,9.030108973140717,10.76774Z" fill-rule="evenodd"></path></symbol>
</svg>