<svg xmlns="http://www.w3.org/2000/svg" xmlns:xlink="http://www.w3.org/1999/xlink" style="position: absolute; width: 0; height: 0" aria-hidden="true" id="__SVG_SPRITE_NODE__">
<symbol xmlns="http://www.w3.org/2000/svg" fill="none" viewBox="0 0 24 24" id="pin-task-section"><path d="M20.4741,3.434039976158142L11.99995,3.434039976158142L3.52577,3.434039976158142L3.52577,3.432859976158142C2.959224,3.432859976158142,2.4999482654,3.034019976158142,2.4999482654,2.542018976158142C2.4999482654,2.050018976158142,2.959224,1.651173686158142,3.52577,1.651173686158142L3.52577,1.649999976158142L20.4741,1.649999976158142L20.4741,1.651173686158142C21.0407,1.651173686158142,21.4999,2.050018976158142,21.4999,2.542018976158142C21.4999,3.034019976158142,21.0407,3.432859976158142,20.4741,3.432859976158142L20.4741,3.434039976158142ZM20.0281,15.003299976158143L16.7439,15.003299976158143L16.7439,20.56079997615814Q16.7439,21.29979997615814,16.2214,21.822299976158142Q15.6988,22.344799976158143,14.9598,22.344799976158143L9.04009,22.344799976158143Q8.301110000000001,22.344799976158143,7.77858,21.822299976158142Q7.25605,21.29979997615814,7.25605,20.56079997615814L7.25605,15.003299976158143L3.97179,15.003299976158143C3.479143,15.003299976158143,3.079773,14.603999976158143,3.079773,14.111299976158142C3.079773,13.879099976158143,3.1703580000000002,13.655999976158142,3.332271,13.489499976158141L11.39693,4.774619976158142C11.56186,4.605009976158142,11.78742,4.5078899761581415,12.02397,4.504579976158142C12.26053,4.501269976158142,12.48869,4.592059976158142,12.6583,4.756979976158142C12.6761,4.774269976158142,12.6932,4.792279976158142,12.7094,4.810989976158142L20.7011,13.525799976158142C21.0245,13.897499976158143,20.9853,14.460899976158142,20.6136,14.784299976158142C20.4513,14.925499976158141,20.2433,15.003299976158143,20.0281,15.003299976158143Z" fill-rule="evenodd" fill="#FFB000"></path></symbol>
<symbol xmlns="http://www.w3.org/2000/svg" viewBox="0 0 24 24" id="pin-task"><path d="M21.500026488304137,2.300048828125L12.000026488304139,2.300048828125L2.500016488304138,2.300048828125L2.500016488304138,2.2987288281250002C1.8648884883041381,2.2987288281250002,1.3500163555041382,1.851608828125,1.3500163555041382,1.300048828125C1.3500163555041382,0.748490828125,1.8648884883041381,0.301364618125,2.500016488304138,0.301364618125L2.500016488304138,0.300048828125L21.500026488304137,0.300048828125L21.500026488304137,0.301364618125C22.135126488304138,0.301364618125,22.65002648830414,0.748490828125,22.65002648830414,1.300048828125C22.65002648830414,1.851608828125,22.135126488304138,2.2987288281250002,21.500026488304137,2.2987288281250002L21.500026488304137,2.300048828125ZM21.000026488304137,15.269748828125L17.318226488304138,15.269748828125L17.318226488304138,21.499948828125Q17.318226488304138,22.328448828125,16.73242648830414,22.914148828125Q16.146626488304136,23.499948828125,15.318226488304138,23.499948828125L8.681816488304138,23.499948828125Q7.853386488304138,23.499948828125,7.267596488304139,22.914148828125Q6.681816488304138,22.328448828125,6.681816488304138,21.499948828125L6.681816488304138,15.269748828125L2.9999864883041383,15.269748828125C2.447706488304138,15.269748828125,1.9999894883041383,14.822048828125,1.9999894883041383,14.269748828125C1.9999894883041383,14.009348828125,2.1015404883041384,13.759248828125,2.2830534883041382,13.572648828125L11.323966488304139,3.802828828125C11.508826488304138,3.612688828125,11.761726488304138,3.503808828125,12.026926488304138,3.500098828125C12.292126488304138,3.496388828125,12.547926488304139,3.598168828125,12.738026488304138,3.783058828125C12.757926488304138,3.802438828125,12.777126488304138,3.822628828125,12.795326488304138,3.843608828125L21.754426488304137,13.613348828125C22.116926488304138,14.030048828125,22.073026488304137,14.661648828125,21.65632648830414,15.024148828125C21.47432648830414,15.182548828125,21.24122648830414,15.269748828125,21.000026488304137,15.269748828125ZM15.318226488304138,14.269748828125C15.318226488304138,13.717448828125,15.765926488304139,13.269748828125,16.318226488304138,13.269748828125L18.804426488304138,13.269748828125L12.000026488304139,5.976418828125L5.367196488304138,13.269748828125L7.681816488304138,13.269748828125C8.23409648830414,13.269748828125,8.681816488304138,13.717448828125,8.681816488304138,14.269748828125L8.681816488304138,21.499948828125L15.318226488304138,21.499948828125L15.318226488304138,14.269748828125Z" fill-rule="evenodd"></path></symbol>
</svg>