<svg xmlns="http://www.w3.org/2000/svg" xmlns:xlink="http://www.w3.org/1999/xlink" style="position: absolute; width: 0; height: 0" aria-hidden="true" id="__SVG_SPRITE_NODE__">
<symbol xmlns="http://www.w3.org/2000/svg" viewBox="0 0 16 16" id="premium-more-edit"><g fill-rule="evenodd"><path fill="none" d="M0 0H16.001V16.001H0z"></path><path d="M11.994577,8.78947368 L13.1704096,8.78947368 L13.1704096,11.0635483 C13.1704096,11.8983376 13.0882389,12.317361 12.8514907,12.7532884 C12.6339378,13.1538711 12.3111727,13.4717123 11.9043843,13.6859463 C11.4617035,13.9190828 11.0361887,14 10.188467,14 L4.98194259,14 C4.13422093,14 3.70870609,13.9190828 3.26602536,13.6859463 C2.85923695,13.4717123 2.53647178,13.1538711 2.31891895,12.7532884 C2.08217071,12.317361 2,11.8983376 2,11.0635483 L2,5.93645172 C2,5.10166243 2.08217071,4.68263901 2.31891895,4.24671158 C2.53647178,3.8461289 2.85923695,3.52828766 3.26602536,3.3140537 C3.70870609,3.08091716 4.13422093,3 4.98194259,3 L8.81291237,3 L8.81291237,4.15789474 L4.98194259,4.15789474 C4.31173016,4.15789474 4.06959529,4.20393982 3.82054667,4.33510056 C3.61866881,4.44141896 3.46374911,4.59397529 3.35578365,4.79277341 C3.22259099,5.03802268 3.17583259,5.27646368 3.17583259,5.93645172 L3.17583259,11.0635483 C3.17583259,11.7235363 3.22259099,11.9619773 3.35578365,12.2072266 C3.46374911,12.4060247 3.61866881,12.558581 3.82054667,12.6648994 C4.06959529,12.7960602 4.31173016,12.8421053 4.98194259,12.8421053 L10.188467,12.8421053 C10.8586795,12.8421053 11.1008143,12.7960602 11.349863,12.6648994 C11.5517408,12.558581 11.7066605,12.4060247 11.814626,12.2072266 C11.9478186,11.9619773 11.994577,11.7235363 11.994577,11.0635483 L11.994577,8.78947368 Z M9.42439462,8.4895439 L8.73110604,8.79986761 C8.52357571,8.8927605 8.28003456,8.79982849 8.18714167,8.59229816 C8.13856074,8.4837644 8.13928024,8.35952617 8.18911495,8.25156236 L8.49645768,7.58572338 C8.59749212,7.36683853 8.73726784,7.16802356 8.90904083,6.99887104 L12.6669392,3.29830109 C12.9732588,2.99665459 13.4649634,2.99665459 13.7712829,3.29830109 C14.0715868,3.59402367 14.0753006,4.07719857 13.7795781,4.37750242 C13.7768343,4.38028867 13.7740692,4.3830538 13.7712829,4.38579754 L10.0105953,8.08911423 C9.84063716,8.25647954 9.64211011,8.39209202 9.42439462,8.4895439 Z" fill-rule="nonzero"></path></g></symbol>
<symbol xmlns="http://www.w3.org/2000/svg" viewBox="0 0 24 24" id="premium"><path d="M1.2413440190734863,8.104009952316284L2.8875500190734864,19.166599952316282C3.106320019073486,20.636699952316285,4.368560019073486,21.724999952316285,5.854880019073486,21.724999952316285L18.136200019073485,21.724999952316285C19.622500019073485,21.724999952316285,20.884800019073488,20.636699952316285,21.103500019073486,19.166599952316282L22.749700019073487,8.104009952316284C22.861000019073487,7.356549952316284,22.134800019073488,6.760559952316284,21.423400019073487,7.015399952316284L17.627200019073488,8.375259952316284C17.201000019073486,8.527919952316285,16.725400019073486,8.375249952316285,16.467800019073486,8.003049952316285L12.817700019073486,2.730789952316284C12.420100019073486,2.156402952316284,11.571000019073486,2.156402952316284,11.173350019073487,2.730789952316284L7.523330019073486,8.003049952316285C7.265650019073487,8.375249952316285,6.7900800190734865,8.527919952316285,6.363900019073486,8.375259952316284L2.567680019073486,7.015399952316284C1.8562630190734863,6.760559952316284,1.1301155190734864,7.356549952316284,1.2413440190734863,8.104009952316284ZM5.201880019073487,19.482399952316285Q4.920460019073486,19.239699952316283,4.865770019073486,18.872199952316283L3.4653600190734863,9.461409952316284L5.689440019073486,10.258109952316284Q6.648330019073486,10.601589952316283,7.618140019073486,10.290249952316284Q8.587940019073486,9.978919952316284,9.167710019073485,9.141469952316285L11.995500019073486,5.056819952316284L14.823400019073487,9.141469952316285Q15.403100019073486,9.978919952316284,16.373000019073487,10.290249952316284Q17.342800019073486,10.601589952316283,18.301600019073486,10.258109952316284L20.525700019073486,9.461409952316284L19.125300019073485,18.872199952316283Q19.070600019073485,19.239699952316283,18.789200019073487,19.482399952316285Q18.507800019073485,19.724999952316285,18.136200019073485,19.724999952316285L5.854880019073486,19.724999952316285Q5.483300019073487,19.724999952316285,5.201880019073487,19.482399952316285Z" fill-rule="evenodd"></path></symbol>
</svg>