<svg xmlns="http://www.w3.org/2000/svg" xmlns:xlink="http://www.w3.org/1999/xlink" style="position: absolute; width: 0; height: 0" aria-hidden="true" id="__SVG_SPRITE_NODE__">
<symbol xmlns="http://www.w3.org/2000/svg" viewBox="0 0 18 18" id="priority-0">
<path d="M1.8000000715255737,1.5C1.8000000715255737,1.085786,2.135786071525574,0.75,2.5500000715255737,0.75C2.9642100715255735,0.75,3.3000000715255737,1.085786,3.3000000715255737,1.5L15.457800071525574,1.5C16.044600071525572,1.5,16.404100071525576,2.14338,16.09660007152557,2.6430800000000003L13.902300071525573,6.56697C13.838800071525574,6.6807,13.838800071525574,6.8193,13.902400071525573,6.93303L16.09660007152557,10.8569C16.404100071525576,11.3566,16.028800071525573,12,15.442000071525573,12L3.3000000715255737,12L3.3000000715255737,16.5C3.3000000715255737,16.9142,2.9642100715255735,17.25,2.5500000715255737,17.25C2.135786071525574,17.25,1.8000000715255737,16.9142,1.8000000715255737,16.5L1.8000000715255737,1.5L1.8000000715255737,1.5ZM3.3000000715255737,10.5L14.115700071525573,10.5L12.240000071525573,7.11338C12.114800071525574,6.88731,12.114800071525574,6.61269,12.240000071525573,6.38662L14.115700071525573,3L3.3000000715255737,3L3.3000000715255737,7.125L3.3000000715255737,10.5Z" fill-rule="evenodd">
</path>
</symbol>
<symbol xmlns="http://www.w3.org/2000/svg" viewBox="0 0 18 18" id="priority-1">
<path d="M1.8000000715255737,1.5C1.8000000715255737,1.085786,2.135786071525574,0.75,2.5500000715255737,0.75C2.9642100715255735,0.75,3.3000000715255737,1.085786,3.3000000715255737,1.5L15.457800071525574,1.5C16.044600071525572,1.5,16.404100071525576,2.14338,16.09660007152557,2.6430800000000003L13.902300071525573,6.56697C13.838800071525574,6.6807,13.838800071525574,6.8193,13.902400071525573,6.93303L16.09660007152557,10.8569C16.404100071525576,11.3566,16.028800071525573,12,15.442000071525573,12L3.3000000715255737,12L3.3000000715255737,16.5C3.3000000715255737,16.9142,2.9642100715255735,17.25,2.5500000715255737,17.25C2.135786071525574,17.25,1.8000000715255737,16.9142,1.8000000715255737,16.5L1.8000000715255737,1.5L1.8000000715255737,1.5Z" fill-rule="evenodd">
</path>
</symbol>
</svg>