<svg xmlns="http://www.w3.org/2000/svg" xmlns:xlink="http://www.w3.org/1999/xlink" style="position: absolute; width: 0; height: 0" aria-hidden="true" id="__SVG_SPRITE_NODE__">
<symbol xmlns="http://www.w3.org/2000/svg" viewBox="0 0 24 24" id="project-template"><g style="mix-blend-mode:passthrough"><path d="M17.73527578125,17.73201474609375Q17.793475781250002,17.73521474609375,17.852975781250002,17.73521474609375L18.61767578125,17.73521474609375Q19.34867578125,17.73521474609375,19.86547578125,17.21831474609375Q20.38237578125,16.70151474609375,20.38237578125,15.97051474609375L20.38237578125,5.38229474609375Q20.38237578125,4.65132474609375,19.86547578125,4.1344567460937505Q19.34867578125,3.61758613589375,18.61767578125,3.61758601669375L8.02944578125,3.61758601669375Q7.29848578125,3.61758601669375,6.78161578125,4.1344567460937505Q6.264745781249999,4.65132474609375,6.264745781249999,5.38229474609375L6.264745781249999,6.1469747460937505Q6.264745781249999,6.20647474609375,6.26795578125,6.26464474609375L5.38238578125,6.26464474609375Q4.65141578125,6.26464474609375,4.13454578125,6.78151474609375Q3.61767578125,7.29838474609375,3.61767578125,8.02935474609375L3.61767578125,18.61761474609375Q3.61767578125,19.34851474609375,4.13454678125,19.86541474609375Q4.65141578125,20.38231474609375,5.38238578125,20.38231474609375L15.97057578125,20.38231474609375Q16.70157578125,20.38231474609375,17.21847578125,19.86541474609375Q17.73527578125,19.34851474609375,17.73527578125,18.61761474609375L17.73527578125,17.73201474609375ZM8.14709578125,6.26462474609375L15.97067578125,6.26462474609375Q16.70157578125,6.26462474609375,17.21847578125,6.78149474609375Q17.73537578125,7.29836474609375,17.73537578125,8.02932474609375L17.73537578125,15.85291474609375Q17.73537578125,15.97051474609375,17.852975781250002,15.97051474609375L18.61767578125,15.97051474609375L18.61767578125,5.38229474609375L8.02944578125,5.38229474609375L8.02944578125,6.1469747460937505Q8.02944578125,6.1957047460937495,8.06390578125,6.230164746093751Q8.09836578125,6.26462474609375,8.14709578125,6.26462474609375ZM5.38238578125,18.61761474609375L15.97057578125,18.61761474609375L15.97057578125,8.02935474609375L5.38238578125,8.02935474609375L5.38238578125,18.61761474609375ZM7.14709578125,11.558804746093749Q7.14709578125,11.471904746093749,7.16404578125,11.38666474609375Q7.1810057812500006,11.30143474609375,7.214255781249999,11.22114474609375Q7.24751578125,11.140854746093751,7.29579578125,11.068594746093751Q7.34407578125,10.996334746093751,7.405525781250001,10.93488474609375Q7.4669757812499995,10.87343474609375,7.5392357812499995,10.82515474609375Q7.6114957812499995,10.77687474609375,7.69178578125,10.743614746093751Q7.77207578125,10.710364746093749,7.85730578125,10.69340474609375Q7.94254578125,10.67645474609375,8.02944578125,10.67645474609375L13.32356578125,10.67645474609375Q13.41046578125,10.67645474609375,13.49570578125,10.69340474609375Q13.58093578125,10.710364746093749,13.66127578125,10.743614746093751Q13.74147578125,10.77687474609375,13.81377578125,10.82515474609375Q13.88607578125,10.87343474609375,13.94747578125,10.93488474609375Q14.00897578125,10.996334746093751,14.05717578125,11.068594746093751Q14.10547578125,11.140854746093751,14.13877578125,11.22114474609375Q14.17197578125,11.30143474609375,14.18897578125,11.38666474609375Q14.20587578125,11.471904746093749,14.20587578125,11.558804746093749Q14.20587578125,11.64570474609375,14.18897578125,11.73094474609375Q14.17197578125,11.81617474609375,14.13877578125,11.89646474609375Q14.10547578125,11.97675474609375,14.05717578125,12.04901474609375Q14.00897578125,12.12127474609375,13.94747578125,12.18272474609375Q13.88607578125,12.24417474609375,13.81377578125,12.29245474609375Q13.74147578125,12.34073474609375,13.66127578125,12.37399474609375Q13.58093578125,12.40724474609375,13.49570578125,12.42420474609375Q13.41046578125,12.44115474609375,13.32356578125,12.44115474609375L8.02944578125,12.44115474609375Q7.94254578125,12.44115474609375,7.85730578125,12.42420474609375Q7.77207578125,12.40724474609375,7.69178578125,12.37399474609375Q7.6114957812499995,12.34073474609375,7.5392357812499995,12.29245474609375Q7.4669757812499995,12.24417474609375,7.405525781250001,12.18272474609375Q7.34407578125,12.12127474609375,7.29579578125,12.04901474609375Q7.24751578125,11.97675474609375,7.214255781249999,11.89646474609375Q7.1810057812500006,11.81617474609375,7.16404578125,11.73094474609375Q7.14709578125,11.64570474609375,7.14709578125,11.558804746093749ZM7.14709578125,15.08821474609375Q7.14709578125,15.00131474609375,7.16404578125,14.91611474609375Q7.1810057812500006,14.83081474609375,7.214255781249999,14.75051474609375Q7.24751578125,14.67031474609375,7.29579578125,14.59801474609375Q7.34407578125,14.52571474609375,7.405525781250001,14.46431474609375Q7.4669757812499995,14.40281474609375,7.5392357812499995,14.35461474609375Q7.6114957812499995,14.30631474609375,7.69178578125,14.27301474609375Q7.77207578125,14.23981474609375,7.85730578125,14.22281474609375Q7.94254578125,14.20591474609375,8.02944578125,14.20591474609375L10.67650578125,14.20591474609375Q10.76341578125,14.20591474609375,10.84864578125,14.22281474609375Q10.93387578125,14.23981474609375,11.01416578125,14.27301474609375Q11.09445578125,14.30631474609375,11.16671578125,14.35461474609375Q11.23897578125,14.40281474609375,11.30042578125,14.46431474609375Q11.36187578125,14.52571474609375,11.410155781250001,14.59801474609375Q11.45843578125,14.67031474609375,11.49169578125,14.75051474609375Q11.52494578125,14.83081474609375,11.54190578125,14.91611474609375Q11.55885578125,15.00131474609375,11.55885578125,15.08821474609375Q11.55885578125,15.17511474609375,11.54190578125,15.26031474609375Q11.52495578125,15.34561474609375,11.49169578125,15.42591474609375Q11.45843578125,15.50621474609375,11.410155781250001,15.57841474609375Q11.36187578125,15.65071474609375,11.30042578125,15.71211474609375Q11.23897578125,15.77361474609375,11.16671578125,15.82191474609375Q11.09445578125,15.87011474609375,11.01416578125,15.90341474609375Q10.93387578125,15.93671474609375,10.84864578125,15.95361474609375Q10.76341578125,15.97061474609375,10.67650578125,15.97061474609375L8.02944578125,15.97061474609375Q7.94254578125,15.97061474609375,7.85730578125,15.95361474609375Q7.77207578125,15.93671474609375,7.69178578125,15.90341474609375Q7.6114957812499995,15.87011474609375,7.5392357812499995,15.82191474609375Q7.4669757812499995,15.77361474609375,7.405525781250001,15.71211474609375Q7.34407578125,15.65071474609375,7.29579578125,15.57841474609375Q7.24751578125,15.50621474609375,7.214255781249999,15.42591474609375Q7.1810057812500006,15.34561474609375,7.16404578125,15.26031474609375Q7.14709578125,15.17511474609375,7.14709578125,15.08821474609375Z" fill-rule="evenodd"></path></g></symbol>
</svg>