<svg xmlns="http://www.w3.org/2000/svg" xmlns:xlink="http://www.w3.org/1999/xlink" style="position: absolute; width: 0; height: 0" aria-hidden="true" id="__SVG_SPRITE_NODE__">
<symbol xmlns="http://www.w3.org/2000/svg" viewBox="-254 96 40 40" id="qq"><path d="M-222.5,122.5c-0.2-2.1-1.3-4.4-1.7-5.6l-1.2-3c0-1.2,0.3-4.1-1.6-7.7c-1.9-3.6-5.8-3.9-6.5-4 c-0.7,0-5.2-0.1-7.4,3.8c-2.2,3.9-1.6,7.8-1.6,7.8l-1.2,3v0c0,0-0.6,1.4-1.1,3.1c-0.5,1.7-1,4.3-0.5,4.9s2.3-2.5,2.5-2.7 c0,0,0.1,1.4,0.5,2.2c0,0,0,0.1,0,0.1c0,0,0,0,0,0c0,0,0,0,0,0c0,0,0,0,0,0c0,0,0,0,0,0c0,0,0,0,0,0c0,0,0,0.1,0.1,0.1c0,0,0,0,0,0 c0,0,0,0,0,0.1c0,0,0,0,0,0c0,0,0,0,0,0.1c0,0,0,0,0,0c0.4,0.7,1,1.8,2,2.7c0,0,0,0,0,0c-0.6,0.2-1.8,0.6-2.2,1.1 c-0.1,0.1-0.1,0.1-0.1,0.2c-0.3,0.7,0.2,0.8,1.1,0.9c0.9,0,5,0.2,7-0.1c0,0,0,0,0.1,0c0,0,0,0,0,0c0.1,0,0.3,0,0.4,0c0,0,0,0,0,0 c0,0,0.1,0,0.1,0c0,0,0.1,0,0.1,0c0,0,0,0,0,0c0.1,0,0.2,0,0.3,0c0,0,0,0,0,0c2,0.3,6.1,0.2,7,0.1c0.9,0,1.4-0.1,1.1-0.9 c-0.2-0.6-1.7-1.1-2.4-1.3c0,0,0,0-0.1,0c0.1-0.1,0.3-0.3,0.4-0.4c0,0,0,0,0,0c0,0,0.1-0.1,0.1-0.1c2.2-2.5,2-4,2.1-4.9 c0,0,1.9,2.7,2.3,2.8C-222.5,125-222.3,124.5-222.5,122.5z" fill="evenodd"></path></symbol>
</svg>