<svg xmlns="http://www.w3.org/2000/svg" xmlns:xlink="http://www.w3.org/1999/xlink" style="position: absolute; width: 0; height: 0" aria-hidden="true" id="__SVG_SPRITE_NODE__">
<symbol xmlns="http://www.w3.org/2000/svg" viewBox="0 0 24 24" id="quick-clear"><path d="M0.9999914035607166,17.9924L0.9999889731407166,6.00756C0.9999889731407166,3.79842,2.7859889731407166,2,4.995128973140717,2L18.968088973140716,2C21.177188973140716,2,22.999988973140717,3.79842,22.999988973140717,6.00755L22.999988973140717,8.200199999999999C22.999988973140717,11.44223,22.999988973140717,14.8466,22.999988973140717,17.9924C22.999988973140717,20.2016,21.249188973140715,22,19.039988973140716,22C14.346688973140717,22,9.653328973140717,22,4.9599889731407165,22C2.7508589731407165,22,0.9999914012907165,20.2016,0.9999914035607166,17.9924ZM20.999988973140717,6.2002L20.999988973140717,5.98951C20.999988973140717,4.88494,20.113288973140715,4,19.008688973140718,4L14.996088973140717,4.00001C11.661188973140716,4.00002,8.326188973140717,4.000030000000001,4.9912389731407165,4.00001C3.8866589731407166,4.00001,2.9999889731407166,4.884930000000001,2.9999889731407166,5.98951L2.9999889731407166,6.2002L20.999988973140717,6.2002ZM2.9999789731407165,8.200199999999999L20.999988973140717,8.200199999999999L20.999988973140717,8.36419C20.999988973140717,11.54922,20.999988973140717,15.0265,20.999988973140717,18.0105C20.999988973140717,19.1151,20.113288973140715,20,19.008788973140717,20C15.394188973140716,20,11.779588973140717,20,8.165028973140718,20L4.991258973140717,20C3.8866989731407164,20,2.9999889731407166,19.115,2.9999689731407164,18.0105C2.9999389731407167,15.1333,2.999958973140717,11.79763,2.9999689731407164,8.70745L2.9999789731407165,8.200199999999999ZM10.577048973140716,13.982L8.810458973140715,15.7485C8.419938973140717,16.139,8.419938973140717,16.773,8.810458973140715,17.1635C9.200988973140717,17.554000000000002,9.833998973140716,17.553,10.224518973140716,17.1625L11.991288973140717,15.3962L13.773888973140716,17.1792C14.164388973140717,17.569699999999997,14.797988973140717,17.5702,15.188488973140716,17.1797C15.578988973140717,16.7892,15.578988973140717,16.1552,15.188488973140716,15.7646L13.405488973140717,13.982L15.174688973140716,12.2123C15.565288973140717,11.8218,15.565288973140717,11.18879,15.174688973140716,10.79826C14.784188973140717,10.40774,14.151188973140716,10.40774,13.760688973140716,10.79826L11.991288973140717,12.5678L10.238268973140716,10.81543C9.847748973140716,10.42491,9.214728973140717,10.42491,8.824208973140717,10.81543C8.433678973140717,11.20595,8.433678973140717,11.83897,8.824208973140717,12.2295L10.577048973140716,13.982Z" fill-rule="evenodd"></path></symbol>
<symbol xmlns="http://www.w3.org/2000/svg" viewBox="-507 494 40 40" id="quick-custom"><path fill="none" d="M-507 494H-467V534H-507z"></path><path d="M-476.5,504h-3.5v-3h-1v3h-12v-3h-1v3h-3.5c-0.8,0-1.5,0.7-1.5,1.5V523c0,1.1,0.9,2,2,2h20c1.1,0,2-0.9,2-2v-17.5 C-475,504.7-475.7,504-476.5,504z M-476,523c0,0.5-0.4,1-1,1h-20c-0.6,0-1-0.5-1-1v-17.5c0-0.3,0.2-0.5,0.5-0.5h21 c0.3,0,0.5,0.2,0.5,0.5V523z"></path><circle cx="-493" cy="510" r="1"></circle><circle cx="-489" cy="518" r="1"></circle><circle cx="-489" cy="514" r="1"></circle><circle cx="-493" cy="518" r="1"></circle><circle cx="-493" cy="514" r="1"></circle><circle cx="-485" cy="514" r="1"></circle><circle cx="-481" cy="514" r="1"></circle><circle cx="-481" cy="510" r="1"></circle><circle cx="-485" cy="510" r="1"></circle><circle cx="-489" cy="510" r="1"></circle><circle cx="-485" cy="518" r="1"></circle></symbol>
<symbol xmlns="http://www.w3.org/2000/svg" viewBox="0 0 24 24" id="quick-nextmonth"><path d="M22.3729,14.3968Q22.4289,14.1754,22.4757,13.9517Q22.6031,13.3428,22.0618,12.9994Q21.545,12.6716,20.9869,12.9327Q20.8578,12.9932,20.7268,13.049Q19.2015,13.6987,17.5482,13.6988Q15.8722,13.6987,14.3417,13.0394Q12.863,12.4024,11.7225,11.24057Q10.58161,10.07853,9.95594,8.571760000000001Q9.3081,7.0116,9.3081,5.3029399999999995Q9.3081,4.22997,9.57294,3.1914800000000003Q9.60858,3.0517000000000003,9.64893,2.91326Q9.82265,2.317076,9.43366,1.846424Q9.0228,1.349316,8.44524,1.5655432Q8.234829999999999,1.644313,8.02787,1.732074Q5.06292,2.98935,3.28125,5.71063Q1.5,8.43126,1.5,11.7012Q1.5,13.8976,2.333046,15.9038Q3.13774,17.8417,4.60504,19.3362Q6.07262,20.8311,7.97574,21.651Q9.94646,22.5,12.1043,22.5Q15.7326,22.5,18.6004,20.2365Q21.4674,17.9737,22.3729,14.3968ZM10.34509,12.6364Q11.8367,14.1556,13.7982,14.9467Q15.605,15.6752,17.5482,15.6752Q18.8051,15.6752,19.9698,15.3905Q19.2866,16.9058,18.1005,18.0658Q16.843899999999998,19.2948,15.2187,19.9331Q13.7154,20.5235,12.1043,20.5235Q10.45309,20.5235,8.9178,19.9044Q7.25053,19.2321,5.98241,17.9404Q4.71401,16.648400000000002,4.05366,14.9494Q3.4453899999999997,13.3844,3.4454000000000002,11.7012Q3.4453899999999997,8.511140000000001,5.4478,6.05878Q6.32656,4.98257,7.41158,4.26726Q7.3627,4.77881,7.3627,5.30293Q7.3627,7.28094,8.07753,9.12012Q8.85379,11.11733,10.34509,12.6364Z" fill-rule="evenodd"></path></symbol>
<symbol xmlns="http://www.w3.org/2000/svg" viewBox="0 0 20 20" id="quick-nextperiod"><path d="M0.833326159699823,14.993666626930237L0.833324134349823,5.0062966269302365C0.833324134349823,3.165346626930237,2.321654134349823,1.6666666269302368,4.162604134349823,1.6666666269302368L15.806724134349823,1.6666666269302368C17.647624134349822,1.6666666269302368,19.166624134349824,3.165346626930237,19.166624134349824,5.0062966269302365C19.166624134349824,8.227036626930236,19.166624134349824,11.772966626930236,19.166624134349824,14.993666626930237C19.166624134349824,16.834666626930236,17.707624134349825,18.333366626930236,15.866624134349824,18.333366626930236L4.133324134349823,18.333366626930236C2.292384134349823,18.333366626930236,0.833326157799823,16.834666626930236,0.833326159699823,14.993666626930237ZM2.4999741343498227,15.008766626930237C2.499954134349823,12.613166626930237,2.499964134349823,9.836146626930237,2.4999741343498227,7.262866626930236L2.4999741343498227,6.833336626930237L17.50002413434982,6.833336626930237L17.50002413434982,7.2845666269302365C17.50002413434982,9.851756626930237,17.499924134349822,12.619966626930237,17.50002413434982,15.008766626930237C17.50002413434982,15.929266626930238,16.76112413434982,16.666666626930237,15.840624134349824,16.666666626930237C12.797224134349824,16.666666626930237,9.753844134349823,16.666666626930237,6.710454134349823,16.666666626930237L4.159374134349823,16.666666626930237C3.238924134349823,16.666666626930237,2.4999841343498233,15.929166626930236,2.4999741343498227,15.008766626930237ZM17.50002413434982,5.166666626930237L17.50002413434982,4.991256626930237C17.50002413434982,4.070776626930237,16.76112413434982,3.3333366269302367,15.840624134349824,3.3333366269302367L12.506924134349823,3.3333366269302367C9.724404134349824,3.3333466269302368,6.941884134349823,3.333356626930237,4.159364134349823,3.3333466269302368C3.238884134349823,3.3333366269302367,2.499994134349823,4.070776626930237,2.4999841343498233,4.991256626930237L2.4999841343498233,5.166666626930237L17.50002413434982,5.166666626930237ZM12.473424134349823,8.973456626930236L14.874924134349824,11.128286626930237Q14.994324134349823,11.235436626930237,15.058924134349823,11.375446626930238Q15.123524134349823,11.515456626930236,15.123524134349823,11.666966626930236Q15.123524134349823,11.818566626930236,15.058924134349823,11.958566626930237Q14.994324134349823,12.098566626930237,14.874924134349824,12.205666626930237L12.473324134349824,14.360666626930238Q12.414224134349823,14.413666626930237,12.344724134349823,14.455366626930237Q12.275124134349824,14.497066626930236,12.197924134349822,14.525766626930237Q12.120624134349823,14.554466626930237,12.038624134349822,14.569166626930237Q11.956624134349823,14.583766626930236,11.873024134349823,14.583766626930236Q11.789424134349822,14.583766626930236,11.707324134349824,14.569166626930237Q11.625324134349823,14.554466626930237,11.548124134349823,14.525766626930237Q11.470824134349822,14.497066626930236,11.401324134349823,14.455366626930237Q11.331724134349823,14.413666626930237,11.272624134349822,14.360666626930238Q11.153224134349824,14.253466626930237,11.088624134349823,14.113466626930236Q11.023924134349823,13.973466626930238,11.023924134349823,13.821866626930237Q11.023924134349823,13.670366626930237,11.088624134349823,13.530366626930237Q11.153224134349824,13.390366626930236,11.272624134349822,13.283166626930237L12.218524134349822,12.434466626930236L5.636854134349823,12.434466626930236Q5.561824134349823,12.434466626930236,5.488224134349823,12.419866626930236Q5.414634134349823,12.405266626930237,5.345314134349823,12.376466626930236Q5.275984134349823,12.347766626930238,5.213594134349823,12.306066626930237Q5.151204134349823,12.264366626930236,5.098154134349823,12.211366626930237Q5.045094134349823,12.158266626930237,5.003404134349823,12.095866626930237Q4.961714134349823,12.033566626930236,4.933004134349823,11.964166626930236Q4.904284134349823,11.894866626930236,4.889654134349823,11.821266626930237Q4.875014134349823,11.747666626930236,4.875014134349823,11.672666626930237Q4.875014134349823,11.597616626930236,4.889644134349823,11.524026626930237Q4.904284134349823,11.450426626930236,4.933004134349823,11.381106626930237Q4.961714134349823,11.311786626930237,5.003404134349823,11.249396626930237Q5.045094134349823,11.187006626930236,5.098154134349823,11.133946626930237Q5.151204134349823,11.080886626930237,5.213594134349823,11.039196626930236Q5.275984134349823,10.997516626930237,5.345314134349823,10.968796626930237Q5.414634134349823,10.940086626930237,5.488224134349823,10.925446626930237Q5.561824134349823,10.910806626930237,5.636854134349823,10.910806626930237L12.231124134349823,10.910806626930237L11.272724134349822,10.050876626930236Q11.153324134349823,9.943716626930236,11.088724134349823,9.803716626930237Q11.024124134349822,9.663706626930237,11.024124134349822,9.512166626930238Q11.024124134349822,9.360626626930237,11.088724134349823,9.220616626930237Q11.153324134349823,9.080616626930237,11.272724134349822,8.973456626930236Q11.331924134349823,8.920406626930237,11.401424134349822,8.878716626930236Q11.470924134349824,8.837026626930236,11.548224134349823,8.808306626930236Q11.625424134349823,8.779596626930237,11.707424134349823,8.764956626930237Q11.789524134349824,8.750316626930235,11.873124134349823,8.750316626930235Q11.956724134349823,8.750316626930235,12.038724134349822,8.764956626930237Q12.120724134349823,8.779596626930237,12.198024134349822,8.808306626930236Q12.275224134349823,8.837026626930236,12.344824134349823,8.878716626930236Q12.414324134349823,8.920406626930237,12.473424134349823,8.973456626930236Z" fill-rule="evenodd"></path></symbol>
<symbol xmlns="http://www.w3.org/2000/svg" viewBox="0 0 24 24" id="quick-nextweek"><path d="M0.9999889731407166,6.00756L0.9999914035607166,17.9924C0.9999914012907165,20.2016,2.7508589731407165,22,4.9599889731407165,22C9.653328973140717,22,14.346688973140717,22,19.039988973140716,22C21.249188973140715,22,22.999988973140717,20.2016,22.999988973140717,17.9924C22.999988973140717,14.8466,22.999988973140717,11.44223,22.999988973140717,8.200199999999999L22.999988973140717,6.2002L22.999988973140717,6.00755C22.999988973140717,3.79841,21.177188973140716,2,18.968088973140716,2L4.995128973140717,2C2.7859889731407166,2,0.9999889731407166,3.79842,0.9999889731407166,6.00756ZM20.999988973140717,6.2002L20.999988973140717,5.98951C20.999988973140717,4.88494,20.113288973140715,4,19.008688973140718,4L14.996088973140717,4.00001C11.661188973140716,4.00002,8.326188973140717,4.000030000000001,4.9912389731407165,4.00001C3.8866589731407166,4.00001,2.9999889731407166,4.884930000000001,2.9999889731407166,5.98951L2.9999789731407165,6.2002L20.999988973140717,6.2002ZM2.9999789731407165,8.200199999999999L2.9999689731407164,8.70745C2.999958973140717,11.79763,2.9999389731407167,15.1333,2.9999689731407164,18.0105C2.9999789731407165,19.115,3.8866989731407164,20,4.991258973140717,20L7.900548973140716,20C11.603288973140717,20,15.305988973140716,20,19.008788973140717,20C20.113288973140715,20,20.999988973140717,19.1151,20.999988973140717,18.0105C20.999988973140717,15.0265,20.999988973140717,11.54922,20.999988973140717,8.3642L20.999988973140717,8.200199999999999L2.9999789731407165,8.200199999999999Z" fill-rule="evenodd"></path><path d="M9.14111,17.42773C9.53662,17.42773,9.77588,17.168950000000002,9.77588,16.74902L9.77588,15.352540000000001L11.09912,15.352540000000001C11.50439,15.352540000000001,11.76318,15.11816,11.76318,14.727540000000001C11.76318,14.3418,11.50928,14.107420000000001,11.104,14.107420000000001L9.77588,14.107420000000001L9.77588,12.701170000000001C9.77588,12.28613,9.53662,12.022459999999999,9.14111,12.022459999999999C8.74561,12.022459999999999,8.50146,12.28613,8.50146,12.701170000000001L8.50146,14.107420000000001L7.16846,14.107420000000001C6.76807,14.107420000000001,6.51416,14.3418,6.51416,14.727540000000001C6.51416,15.11816,6.76807,15.352540000000001,7.16846,15.352540000000001L8.50146,15.352540000000001L8.50146,16.74902C8.50146,17.168950000000002,8.74072,17.42773,9.14111,17.42773ZM14.21436,17.65723C14.53174,17.65723,14.7124,17.540039999999998,14.87354,17.227539999999998L17.485799999999998,12.183589999999999C17.676299999999998,11.8125,17.764200000000002,11.57812,17.764200000000002,11.31445C17.764200000000002,10.81152,17.3979,10.50879,16.8853,10.50879L13.23779,10.50879C12.886230000000001,10.50879,12.62744,10.73828,12.62744,11.08984C12.62744,11.44629,12.886230000000001,11.68066,13.23779,11.68066L16.274900000000002,11.68066L16.274900000000002,11.70996L13.66748,16.59277C13.57959,16.753909999999998,13.54053,16.88574,13.54053,17.05664C13.54053,17.39844,13.79932,17.65723,14.21436,17.65723Z"></path></symbol>
<symbol xmlns="http://www.w3.org/2000/svg" viewBox="0 0 24 24" id="quick-today"><path d="M12.998,0.9999339985448085L13.0043,2.5397899985448085Q13.0061,2.9636399985448083,12.7106,3.2731199985448085Q12.4141,3.5835199985448085,11.9913,3.5983699985448085Q11.5647,3.6133299985448084,11.2611,3.3193299985448084Q10.9587,3.0262699985448083,10.9569,2.5989099985448085L10.9505,1.0590599985448084Q10.9487,0.6354589985448085,11.2443,0.3259729985448085Q11.5408,0.015572298544808478,11.9636,0.0007240725448084772Q12.3902,-0.014231901455191523,12.6937,0.27972999854480846Q12.9962,0.5725479985448084,12.998,0.9999339985448085ZM20.5423,4.9789299985448086L19.4437,6.051619998544808Q19.1403,6.347859998544808,18.712,6.347859998544808Q18.2838,6.347809998544808,17.9804,6.051619998544808Q17.6753,5.753749998544809,17.6753,5.331799998544809Q17.6753,4.909759998544809,17.9804,4.611959998544808L19.079,3.5395299985448085Q19.3823,3.2432899985448085,19.8106,3.2432899985448085Q20.2389,3.2433399985448084,20.5423,3.5395299985448085Q20.8473,3.8373999985448086,20.8473,4.259349998544809Q20.8473,4.681149998544808,20.5423,4.9789299985448086ZM4.59752,3.6896099985448085L5.69612,4.762119998544809Q6.00116,5.059909998544809,6.00116,5.481869998544808Q6.00116,5.903839998544808,5.69612,6.201629998544808Q5.39273,6.497809998544809,4.96446,6.497809998544809Q4.5362,6.497819998544808,4.23281,6.201629998544808L3.1342,5.129119998544809Q2.82917,4.831329998544809,2.82917,4.409359998544809Q2.82917,3.9873999985448085,3.1342,3.6896099985448085Q3.43759,3.3934199985448084,3.86586,3.3934199985448084Q4.29412,3.3934199985448084,4.59752,3.6896099985448085ZM17.0767,17.07699999854481Q19.1795,14.974099998544808,19.1795,12.000299998544808Q19.1795,9.026449998544809,17.0767,6.923619998544808Q14.9738,4.820799998544809,12,4.820799998544809Q9.02616,4.820799998544809,6.92334,6.923619998544808Q4.82051,9.026449998544809,4.82051,12.000299998544808Q4.82051,14.974099998544808,6.92333,17.07699999854481Q9.02616,19.17979999854481,12,19.17979999854481Q14.9738,19.17979999854481,17.0767,17.07699999854481ZM12,17.128499998544807C14.8322,17.128499998544807,17.1282,14.832499998544808,17.1282,12.000299998544808C17.1282,9.168059998544809,14.8322,6.872079998544809,12,6.872079998544809C9.16777,6.872079998544809,6.87179,9.168059998544809,6.87179,12.000299998544808C6.87179,14.832499998544808,9.16777,17.128499998544807,12,17.128499998544807ZM21.3968,11.469699998544808L22.9761,11.469699998544808Q23.401,11.469699998544808,23.701,11.771899998544809Q24,12.072999998544809,24,12.498399998544809Q24,12.923799998544808,23.701,13.224899998544808Q23.4009,13.52709999854481,22.9761,13.52709999854481L21.3968,13.52709999854481Q20.972,13.52709999854481,20.672,13.224899998544808Q20.373,12.923799998544808,20.373,12.498399998544809Q20.373,12.072999998544809,20.672,11.771899998544809Q20.972,11.469699998544808,21.3968,11.469699998544808ZM1.02388,11.469699998544808L2.60317,11.469699998544808Q3.02799,11.469699998544808,3.32802,11.771899998544809Q3.62705,12.072999998544809,3.62705,12.498399998544809Q3.62705,12.923799998544808,3.32802,13.224999998544808Q3.028,13.52709999854481,2.60317,13.52709999854481L1.02388,13.52709999854481Q0.599059,13.52709999854481,0.299023,13.224999998544808Q0,12.923799998544808,0,12.498399998544809Q0,12.072999998544809,0.299023,11.771899998544809Q0.59906,11.469699998544808,1.02388,11.469699998544808ZM3.13435,19.22719999854481L4.23296,18.154699998544807Q4.53854,17.85629999854481,4.96461,17.85629999854481Q5.39069,17.85629999854481,5.69627,18.154699998544807Q5.99905,18.450199998544807,5.99905,18.87439999854481Q5.99905,19.29859999854481,5.69627,19.59419999854481L4.59766,20.666699998544807Q4.29208,20.96499999854481,3.86601,20.96499999854481Q3.43994,20.96499999854481,3.13435,20.666699998544807Q2.83157,20.371099998544807,2.83157,19.946899998544808Q2.83157,19.52269999854481,3.13435,19.22719999854481ZM18.9039,20.666699998544807L17.8053,19.59419999854481Q17.5025,19.29859999854481,17.5025,18.87439999854481Q17.5025,18.450199998544807,17.8053,18.154699998544807Q18.1109,17.85629999854481,18.5369,17.85629999854481Q18.963,17.85629999854481,19.2686,18.154699998544807L20.3672,19.22719999854481Q20.67,19.52279999854481,20.67,19.946899998544808Q20.67,20.371099998544807,20.3672,20.666699998544807Q20.0616,20.96499999854481,19.6356,20.96499999854481Q19.2095,20.96499999854481,18.9039,20.666699998544807ZM13.271,21.40099999854481L13.2774,22.940799998544808Q13.2791,23.364499998544808,12.9836,23.673999998544808Q12.6871,23.98449999854481,12.2643,23.99929999854481Q11.8377,24.014199998544807,11.5342,23.72029999854481Q11.2317,23.427299998544807,11.2299,22.99989999854481L11.2235,21.46009999854481Q11.2235,21.44199999854481,11.224,21.42379999854481Q11.2365,21.01149999854481,11.5292,20.71469999854481Q11.8235,20.41609999854481,12.2366,20.40169999854481Q12.6632,20.38659999854481,12.9667,20.680599998544807Q13.2692,20.97349999854481,13.271,21.40099999854481Z" fill-rule="evenodd"></path></symbol>
<symbol xmlns="http://www.w3.org/2000/svg" viewBox="0 0 24 24" id="quick-tomorrow"><path d="M12.9943,4.408947629394531L16.2423,7.656827629394531C16.4298,7.844367629394531,16.6842,7.949657629394531,16.9494,7.949657629394531C17.2146,7.949657629394531,17.4689,7.844367629394531,17.6565,7.656827629394531C17.844,7.469297629394531,17.9493,7.214987629394531,17.9493,6.949767629394532C17.9493,6.684547629394531,17.844,6.430147629394531,17.6565,6.242617629394531L12.7135,1.2997266293945313L12.7068,1.2929296293945312C12.5918,1.1779116293945313,12.4504,1.0926865293945311,12.295,1.0446455293945311L12.2932,1.0440747293945312C12.1981,1.0148601293945312,12.0991,1.0000076293945312,11.9996,1.0000076293945312C11.7344,1.0000076293945312,11.48,1.1053646293945312,11.2925,1.2929006293945313L11.2833,1.3022566293945312L6.34282,6.2426576293945315C6.15528,6.430197629394531,6.04999,6.684507629394531,6.04999,6.949717629394531C6.04999,7.214937629394531,6.15528,7.4693376293945315,6.34282,7.656877629394531C6.53035,7.8444076293945315,6.78479,7.9497476293945315,7.05001,7.9497476293945315C7.31523,7.9497476293945315,7.56949,7.8444076293945315,7.75703,7.656877629394531L10.99432,4.419617629394532L10.99432,9.56683762939453Q8.85417,9.839167629394531,7.17822,11.299307629394532Q5.12729,13.086207629394531,4.80134,15.739407629394531Q4.7489,16.155007629394532,4.7489,16.578207629394534L4.74891,16.587407629394534L4.7489,16.59590762939453Q4.7489,17.01870762939453,4.80101,17.43170762939453Q5.05131,19.469107629394532,6.31661,20.995107629394532L3.25,20.995107629394532Q3.15151,20.995107629394532,3.05491,21.01430762939453Q2.95831,21.03350762939453,2.8673200000000003,21.071207629394532Q2.77632,21.10890762939453,2.69443,21.16360762939453Q2.61254,21.21840762939453,2.54289,21.28800762939453Q2.47325,21.357707629394532,2.41853,21.43950762939453Q2.36381,21.52140762939453,2.32612,21.612407629394532Q2.28843,21.70340762939453,2.26921,21.800007629394532Q2.25,21.89660762939453,2.25,21.995107629394532Q2.25,22.09360762939453,2.26921,22.190207629394532Q2.28843,22.28680762939453,2.32612,22.377807629394532Q2.36381,22.468807629394533,2.41853,22.55070762939453Q2.47325,22.63260762939453,2.54289,22.702207629394533Q2.61254,22.77190762939453,2.69443,22.82660762939453Q2.77632,22.88130762939453,2.8673200000000003,22.91900762939453Q2.95831,22.956707629394533,3.05491,22.97590762939453Q3.15151,22.995107629394532,3.25,22.995107629394532L20.75,22.995107629394532Q20.8485,22.995107629394532,20.9451,22.97590762939453Q21.0417,22.956707629394533,21.1327,22.91900762939453Q21.2237,22.88130762939453,21.3056,22.82660762939453Q21.3875,22.77190762939453,21.4571,22.702207629394533Q21.5268,22.63260762939453,21.5815,22.55070762939453Q21.6362,22.468807629394533,21.6739,22.377807629394532Q21.7116,22.28680762939453,21.7308,22.190207629394532Q21.75,22.09360762939453,21.75,21.995107629394532Q21.75,21.89660762939453,21.7308,21.800007629394532Q21.7116,21.70340762939453,21.6739,21.612407629394532Q21.6362,21.52140762939453,21.5815,21.43950762939453Q21.5268,21.357707629394532,21.4571,21.28800762939453Q21.3875,21.21840762939453,21.3056,21.16360762939453Q21.2237,21.10890762939453,21.1327,21.071207629394532Q21.0417,21.03350762939453,20.9451,21.01430762939453Q20.8485,20.995107629394532,20.75,20.995107629394532L17.6755,20.995107629394532Q17.9183,20.69510762939453,18.1316,20.36500762939453C18.1426,20.350207629394532,18.1531,20.334907629394532,18.1631,20.319407629394533Q19.2512,18.62190762939453,19.2512,16.595307629394533L19.2512,16.58750762939453L19.2512,16.57780762939453Q19.2512,14.551807629394531,18.1631,12.854307629394532C18.1531,12.838807629394532,18.1426,12.823607629394532,18.1316,12.808707629394531Q17.1593,11.304207629394531,15.5745,10.424607629394531Q14.3544,9.747427629394531,12.9943,9.568587629394532L12.9943,4.408947629394531ZM14.6135,20.995107629394532Q15.7541,20.359107629394533,16.4518,19.27950762939453L16.4863,19.22610762939453L16.4994,19.208407629394532Q17.2512,18.01700762939453,17.2512,16.596807629394533L17.2512,16.585907629394534L17.2512,16.57780762939453Q17.2512,15.156707629394532,16.4994,13.96530762939453L16.4863,13.94760762939453L16.4518,13.894207629394531Q15.7512,12.810107629394532,14.6039,12.17330762939453Q13.3987,11.504407629394532,12,11.504407629394532Q9.98745,11.504407629394532,8.49203,12.807307629394531Q7.01892,14.090807629394531,6.78561,15.989807629394532Q6.7489,16.28070762939453,6.7489,16.57720762939453L6.74891,16.58860762939453L6.7489,16.59590762939453Q6.7489,16.893007629394532,6.78608,17.18780762939453Q7.01891,19.08300762939453,8.49203,20.36640762939453Q8.91171,20.73210762939453,9.37212,20.995107629394532L14.6135,20.995107629394532ZM3.41393,11.82800762939453L2.70697,11.121007629394532Q2.5663400000000003,10.98040762939453,2.49024,10.796677629394532Q2.41413,10.612947629394531,2.41413,10.41406762939453Q2.41413,10.215197629394531,2.49024,10.03146762939453Q2.5663400000000003,9.847727629394532,2.70697,9.707107629394532Q2.8475900000000003,9.566477629394532,3.03133,9.490377629394532Q3.21506,9.414267629394532,3.41393,9.414267629394532Q3.61281,9.414267629394532,3.79654,9.490377629394532Q3.98028,9.566477629394532,4.1209,9.707107629394532L4.82787,10.41406762939453Q4.96849,10.554697629394532,5.0446,10.73842762939453Q5.1207,10.922167629394531,5.1207,11.121007629394532Q5.1207,11.319907629394532,5.0446,11.503607629394532Q4.96849,11.687407629394531,4.82787,11.82800762939453Q4.68724,11.968607629394532,4.50351,12.044707629394532Q4.31977,12.12080762939453,4.1209,12.12080762939453Q3.92203,12.12080762939453,3.73829,12.044707629394532Q3.55456,11.968607629394532,3.41393,11.82800762939453ZM20.5861,11.82800762939453L21.293,11.121007629394532Q21.3627,11.05140762939453,21.4174,10.96952762939453Q21.4721,10.887657629394532,21.5098,10.796677629394532Q21.5474,10.705697629394532,21.5667,10.60911762939453Q21.5859,10.512537629394531,21.5859,10.41406762939453Q21.5859,10.315597629394532,21.5667,10.219017629394532Q21.5474,10.12243762939453,21.5098,10.03145762939453Q21.4721,9.940487629394532,21.4174,9.85860762939453Q21.3627,9.776737629394532,21.293,9.707107629394532Q21.2234,9.637467629394532,21.1415,9.582767629394532Q21.0596,9.528057629394532,20.9687,9.490377629394532Q20.8777,9.452687629394532,20.7811,9.433477629394531Q20.6845,9.414267629394532,20.5861,9.414267629394532Q20.4876,9.414267629394532,20.391,9.433477629394531Q20.2944,9.452687629394532,20.2035,9.490377629394532Q20.1125,9.528057629394532,20.0306,9.582767629394532Q19.9487,9.637467629394532,19.8791,9.707107629394532L19.1721,10.41406762939453Q19.1025,10.48369762939453,19.0478,10.56557762939453Q18.9931,10.64744762939453,18.9554,10.73842762939453Q18.9177,10.829407629394531,18.8985,10.92598762939453Q18.8793,11.022607629394532,18.8793,11.121007629394532Q18.8793,11.219507629394531,18.8985,11.316107629394532Q18.9177,11.41270762939453,18.9554,11.503607629394532Q18.9931,11.594607629394531,19.0478,11.676507629394532Q19.1025,11.758407629394531,19.1721,11.82800762939453Q19.3128,11.968607629394532,19.4965,12.044707629394532Q19.6802,12.12080762939453,19.8791,12.12080762939453Q20.078,12.12080762939453,20.2617,12.044707629394532Q20.4454,11.968607629394532,20.5861,11.82800762939453ZM2.9996,17.00000762939453L1.9998019999999999,17.00000762939453Q1.90133,17.00000762939453,1.8047499999999999,16.980807629394533Q1.708171,16.961607629394532,1.617194,16.92390762939453Q1.526218,16.886207629394534,1.444342,16.83150762939453Q1.362465,16.776807629394533,1.292835,16.70720762939453Q1.223205,16.63750762939453,1.168497,16.555707629394533Q1.113789,16.473807629394532,1.0761054,16.38280762939453Q1.0384218,16.291807629394533,1.0192109,16.19520762939453Q1,16.098707629394532,1,16.00020762939453Q1,15.901707629394531,1.0192109,15.80510762939453Q1.0384218,15.708607629394532,1.0761054,15.61760762939453Q1.113789,15.526607629394531,1.168497,15.44470762939453Q1.223205,15.362907629394531,1.292835,15.293207629394532Q1.362465,15.22360762939453,1.444342,15.168907629394532Q1.526218,15.114207629394532,1.617194,15.07650762939453Q1.708171,15.038807629394531,1.8047499999999999,15.019607629394532Q1.90133,15.000407629394532,1.9998019999999999,15.000407629394532L2.9996,15.000407629394532Q3.09808,15.000407629394532,3.19466,15.019607629394532Q3.29124,15.038807629394531,3.38221,15.07650762939453Q3.47319,15.114207629394532,3.55506,15.168907629394532Q3.63694,15.22360762939453,3.70657,15.293207629394532Q3.7762,15.362907629394531,3.83091,15.44470762939453Q3.88562,15.526607629394531,3.9233,15.61760762939453Q3.96098,15.708607629394532,3.9802,15.80510762939453Q3.99941,15.901707629394531,3.99941,16.00020762939453Q3.99941,16.098707629394532,3.9802,16.19520762939453Q3.96098,16.291807629394533,3.9233,16.38280762939453Q3.88562,16.473807629394532,3.83091,16.555707629394533Q3.7762,16.63750762939453,3.70657,16.70720762939453Q3.63694,16.776807629394533,3.55506,16.83150762939453Q3.47319,16.886207629394534,3.38221,16.92390762939453Q3.29124,16.961607629394532,3.19466,16.980807629394533Q3.09808,17.00000762939453,2.9996,17.00000762939453ZM21.9996,17.00000762939453L20.9998,17.00000762939453Q20.9013,17.00000762939453,20.8047,16.980807629394533Q20.7082,16.961607629394532,20.6172,16.92390762939453Q20.5262,16.886207629394534,20.4443,16.83150762939453Q20.3625,16.776807629394533,20.2928,16.70720762939453Q20.2232,16.63750762939453,20.1685,16.555707629394533Q20.1138,16.473807629394532,20.0761,16.38280762939453Q20.0384,16.291807629394533,20.0192,16.19520762939453Q20,16.098707629394532,20,16.00020762939453Q20,15.901707629394531,20.0192,15.80510762939453Q20.0384,15.708607629394532,20.0761,15.61760762939453Q20.1138,15.526607629394531,20.1685,15.44470762939453Q20.2232,15.362907629394531,20.2928,15.293207629394532Q20.3625,15.22360762939453,20.4443,15.168907629394532Q20.5262,15.114207629394532,20.6172,15.07650762939453Q20.7082,15.038807629394531,20.8047,15.019607629394532Q20.9013,15.000407629394532,20.9998,15.000407629394532L21.9996,15.000407629394532Q22.0981,15.000407629394532,22.1947,15.019607629394532Q22.2912,15.038807629394531,22.3822,15.07650762939453Q22.4732,15.114207629394532,22.5551,15.168907629394532Q22.6369,15.22360762939453,22.7066,15.293207629394532Q22.7762,15.362907629394531,22.8309,15.44470762939453Q22.8856,15.526607629394531,22.9233,15.61760762939453Q22.961,15.708607629394532,22.9802,15.80510762939453Q22.9994,15.901707629394531,22.9994,16.00020762939453Q22.9994,16.098707629394532,22.9802,16.19520762939453Q22.961,16.291807629394533,22.9233,16.38280762939453Q22.8856,16.473807629394532,22.8309,16.555707629394533Q22.7762,16.63750762939453,22.7066,16.70720762939453Q22.6369,16.776807629394533,22.5551,16.83150762939453Q22.4732,16.886207629394534,22.3822,16.92390762939453Q22.2912,16.961607629394532,22.1947,16.980807629394533Q22.0981,17.00000762939453,21.9996,17.00000762939453Z" fill-rule="evenodd"></path></symbol>
</svg>