<svg xmlns="http://www.w3.org/2000/svg" xmlns:xlink="http://www.w3.org/1999/xlink" style="position: absolute; width: 0; height: 0" aria-hidden="true" id="__SVG_SPRITE_NODE__">
<symbol xmlns="http://www.w3.org/2000/svg" viewBox="0 0 24 24" id="real-subtask"><path d="M1,4.5L1,19.5C1,21.433,2.567,23,4.5,23L19.5,23C21.433,23,23,21.433,23,19.5L23,4.5C23,2.567,21.433,1,19.5,1L4.5,1C2.567,1,1,2.567,1,4.5ZM3.43934,20.5607Q3,20.1213,3,19.5L3,4.5Q3,3.87868,3.43934,3.43934Q3.87868,3,4.5,3L19.5,3Q20.1213,3,20.5607,3.43934Q21,3.87868,21,4.5L21,19.5Q21,20.1213,20.5607,20.5607Q20.1213,21,19.5,21L4.5,21Q3.87868,21,3.43934,20.5607ZM7,8Q6.90151,8,6.80491,8.01922Q6.70831,8.03843,6.61732,8.07612Q6.52632,8.11381,6.44443,8.16853Q6.36254,8.22325,6.29289,8.29289Q6.22325,8.36254,6.16853,8.44443Q6.11381,8.52632,6.07612,8.61732Q6.03843,8.70831,6.01921,8.80491Q6,8.90151,6,9Q6,9.09849,6.01921,9.19509Q6.03843,9.29169,6.07612,9.38268Q6.11381,9.47368,6.16853,9.55557Q6.22325,9.63746,6.29289,9.70711Q6.36254,9.77675,6.44443,9.83147Q6.52632,9.88619,6.61732,9.92388Q6.70831,9.96157,6.80491,9.98078Q6.90151,10,7,10Q7.09849,10,7.19509,9.98078Q7.29169,9.96157,7.38268,9.92388Q7.47368,9.88619,7.55557,9.83147Q7.63746,9.77675,7.70711,9.70711Q7.77675,9.63746,7.83147,9.55557Q7.88619,9.47368,7.92388,9.38268Q7.96157,9.29169,7.98078,9.19509Q8,9.09849,8,9Q8,8.90151,7.98078,8.80491Q7.96157,8.70831,7.92388,8.61732Q7.88619,8.52632,7.83147,8.44443Q7.77675,8.36254,7.70711,8.29289Q7.63746,8.22325,7.55557,8.16853Q7.47368,8.11381,7.38268,8.07612Q7.29169,8.03843,7.19509,8.019210000000001Q7.09849,8,7,8ZM10,8Q9.90151,8,9.80491,8.01922Q9.70831,8.03843,9.61732,8.07612Q9.52632,8.11381,9.44443,8.16853Q9.36254,8.22325,9.29289,8.29289Q9.22325,8.36254,9.16853,8.44443Q9.11381,8.52632,9.07612,8.61732Q9.03843,8.70831,9.01921,8.80491Q9,8.90151,9,9Q9,9.09849,9.01921,9.19509Q9.03843,9.29169,9.07612,9.38268Q9.11381,9.47368,9.16853,9.55557Q9.22325,9.63746,9.29289,9.70711Q9.36254,9.77675,9.44443,9.83147Q9.52632,9.88619,9.61732,9.92388Q9.70831,9.96157,9.80491,9.98078Q9.90151,10,10,10L17,10Q17.0985,10,17.1951,9.98078Q17.2917,9.96157,17.3827,9.92388Q17.4737,9.88619,17.5556,9.83147Q17.6375,9.77675,17.7071,9.70711Q17.7767,9.63746,17.8315,9.55557Q17.8862,9.47368,17.9239,9.38268Q17.9616,9.29169,17.9808,9.19509Q18,9.09849,18,9Q18,8.90151,17.9808,8.80491Q17.9616,8.70831,17.9239,8.61732Q17.8862,8.52632,17.8315,8.44443Q17.7767,8.36254,17.7071,8.29289Q17.6375,8.22325,17.5556,8.16853Q17.4737,8.11381,17.3827,8.07612Q17.2917,8.03843,17.1951,8.019210000000001Q17.0985,8,17,8L10,8ZM7,14Q6.90151,14,6.80491,14.0192Q6.70831,14.0384,6.61732,14.0761Q6.52632,14.1138,6.44443,14.1685Q6.36254,14.2232,6.29289,14.2929Q6.22325,14.3625,6.16853,14.4444Q6.11381,14.5263,6.07612,14.6173Q6.03843,14.7083,6.01921,14.8049Q6,14.9015,6,15Q6,15.0985,6.01921,15.1951Q6.03843,15.2917,6.07612,15.3827Q6.11381,15.4737,6.16853,15.5556Q6.22325,15.6375,6.29289,15.7071Q6.36254,15.7767,6.44443,15.8315Q6.52632,15.8862,6.61732,15.9239Q6.70831,15.9616,6.80491,15.9808Q6.90151,16,7,16Q7.09849,16,7.19509,15.9808Q7.29169,15.9616,7.38268,15.9239Q7.47368,15.8862,7.55557,15.8315Q7.63746,15.7767,7.70711,15.7071Q7.77675,15.6375,7.83147,15.5556Q7.88619,15.4737,7.92388,15.3827Q7.96157,15.2917,7.98078,15.1951Q8,15.0985,8,15Q8,14.9015,7.98078,14.8049Q7.96157,14.7083,7.92388,14.6173Q7.88619,14.5263,7.83147,14.4444Q7.77675,14.3625,7.70711,14.2929Q7.63746,14.2232,7.55557,14.1685Q7.47368,14.1138,7.38268,14.0761Q7.29169,14.0384,7.19509,14.0192Q7.09849,14,7,14ZM10,14Q9.90151,14,9.80491,14.0192Q9.70831,14.0384,9.61732,14.0761Q9.52632,14.1138,9.44443,14.1685Q9.36254,14.2232,9.29289,14.2929Q9.22325,14.3625,9.16853,14.4444Q9.11381,14.5263,9.07612,14.6173Q9.03843,14.7083,9.01921,14.8049Q9,14.9015,9,15Q9,15.0985,9.01921,15.1951Q9.03843,15.2917,9.07612,15.3827Q9.11381,15.4737,9.16853,15.5556Q9.22325,15.6375,9.29289,15.7071Q9.36254,15.7767,9.44443,15.8315Q9.52632,15.8862,9.61732,15.9239Q9.70831,15.9616,9.80491,15.9808Q9.90151,16,10,16L17,16Q17.0985,16,17.1951,15.9808Q17.2917,15.9616,17.3827,15.9239Q17.4737,15.8862,17.5556,15.8315Q17.6375,15.7767,17.7071,15.7071Q17.7767,15.6375,17.8315,15.5556Q17.8862,15.4737,17.9239,15.3827Q17.9616,15.2917,17.9808,15.1951Q18,15.0985,18,15Q18,14.9015,17.9808,14.8049Q17.9616,14.7083,17.9239,14.6173Q17.8862,14.5263,17.8315,14.4444Q17.7767,14.3625,17.7071,14.2929Q17.6375,14.2232,17.5556,14.1685Q17.4737,14.1138,17.3827,14.0761Q17.2917,14.0384,17.1951,14.0192Q17.0985,14,17,14L10,14Z" fill-rule="evenodd"></path></symbol>
</svg>