<svg xmlns="http://www.w3.org/2000/svg" xmlns:xlink="http://www.w3.org/1999/xlink" style="position: absolute; width: 0; height: 0" aria-hidden="true" id="__SVG_SPRITE_NODE__">
<symbol xmlns="http://www.w3.org/2000/svg" viewBox="0 0 14 14" id="refresh"><g><path d="M2.09650337890625,9.70523234375Q2.21673137890625,9.92274234375,2.45554337890625,9.99152234375Q2.52198337890625,10.01065234375,2.5917033789062502,10.01421234375L2.5996233789062497,10.01456234375Q2.76608337890625,10.02065234375,2.91186337890625,9.94007234375Q3.20379337890625,9.77870234375,3.22086337890625,9.44418234375L3.22142337890625,9.42876234375Q3.22515337890625,9.26664234375,3.14670337890625,9.124722343750001Q2.5420733789062497,8.03091234375,2.60617337890625,6.77562234375Q2.65184337890625,5.88124234375,3.0385633789062503,5.08304234375Q3.41231337890625,4.31162234375,4.05184337890625,3.73423234375Q4.691363378906249,3.15685234375,5.49684337890625,2.86362234375Q6.33028337890625,2.56022234375,7.22466337890625,2.60589234375Q7.84602337890625,2.63761234375,8.41095337890625,2.82810234375L7.43892337890625,3.22422234375Q7.20878337890625,3.31801234375,7.11236337890625,3.54707234375Q7.07151337890625,3.64410234375,7.06614337890625,3.74927234375L7.06609337890625,3.75031234375Q7.05955337890625,3.88312234375,7.10973337890625,4.0062623437500005Q7.25371337890625,4.35959234375,7.63530337890625,4.37907234375L7.64142337890625,4.37935234375Q7.77135337890625,4.38453234375,7.89177337890625,4.335462343750001L10.07514337890625,3.44570234375Q10.23999337890625,3.3785223437500003,10.34152337890625,3.23232234375Q10.48328337890625,3.02819234375,10.43918337890625,2.7836123437499998Q10.39508337890625,2.5390423437500003,10.19096337890625,2.39728134375Q8.88316337890625,1.48905024375,7.28585337890625,1.40748713375Q6.14846337890625,1.34940824375,5.08636337890625,1.73605334375Q4.06095337890625,2.10934134375,3.24771337890625,2.84356234375Q2.43446337890625,3.57779234375,1.95867237890625,4.559842343750001Q1.46585177890625,5.57703234375,1.40777290890625,6.71442234375Q1.32620967890625,8.31173234375,2.09650337890625,9.70523234375ZM11.75966337890625,4.04831234375Q11.62846337890625,3.83722234375,11.38644337890625,3.78071234375Q11.31911337890625,3.76499234375,11.24928337890625,3.76499234375L11.24137337890625,3.76505234375Q11.07482337890625,3.76745234375,10.93334337890625,3.85536234375Q10.65002337890625,4.0314123437500005,10.65003337890625,4.36636234375L10.65025337890625,4.38179234375Q10.65480337890625,4.5438923437500005,10.74039337890625,4.68163234375Q11.39996337890625,5.74318234375,11.39996337890625,7.00011234375Q11.39996337890625,7.89565234375,11.05449337890625,8.71254234375Q10.72058337890625,9.50201234375,10.11132337890625,10.11126234375Q9.50209337890625,10.72050234375,8.71260337890625,11.05443234375Q7.89572337890625,11.39990234375,7.00017337890625,11.39990234375Q6.37800337890625,11.39990234375,5.80409337890625,11.23851234375L6.75465337890625,10.79334234375Q6.97972337890625,10.68793234375,7.06433337890625,10.45426234375Q7.10017337890625,10.35527234375,7.10017337890625,10.24892234375Q7.09993337890625,10.11594234375,7.04354337890625,9.99553234375Q6.88172337890625,9.65001234375,6.49963337890625,9.65001234375L6.49351337890625,9.65004234375Q6.36348337890625,9.65149234375,6.24572337890625,9.70664234375L4.11057337890625,10.70659234375Q3.94936337890625,10.78209234375,3.85542337890625,10.93328234375Q3.72425337890625,11.14436234375,3.78077337890625,11.38637234375Q3.83728337890625,11.62840234375,4.04837337890625,11.75950234375Q5.40079337890625,12.59990234375,7.00017337890625,12.59990234375Q8.13906337890625,12.59990234375,9.180053378906251,12.15960234375Q10.18508337890625,11.73450234375,10.95983337890625,10.95976234375Q11.73456337890625,10.18502234375,12.15966337890625,9.17998234375Q12.59996337890625,8.13900234375,12.59996337890625,7.00011234375Q12.59996337890625,5.40073234375,11.75966337890625,4.04831234375Z" fill-rule="evenodd"></path></g></symbol>
</svg>