<svg xmlns="http://www.w3.org/2000/svg" xmlns:xlink="http://www.w3.org/1999/xlink" style="position: absolute; width: 0; height: 0" aria-hidden="true" id="__SVG_SPRITE_NODE__">
<symbol xmlns="http://www.w3.org/2000/svg" viewBox="0 0 48 48" id="reminder-done"><path d="M38.3199893,11.5941255 L40.3609187,13.4372498 C40.6170947,13.6685974 40.637222,14.0638133 40.4058745,14.3199893 L23.2288577,33.340454 L23.2288577,33.340454 C22.5540268,34.0877081 21.4413782,34.2086231 20.6274072,33.6591553 L20.4305631,33.5077966 L8.38392944,22.4648578 C8.13028262,22.2323442 8.11228599,21.8385426 8.34366823,21.5838632 L10.1738713,19.5693834 C10.4059838,19.3139003 10.8012581,19.2949547 11.0567412,19.5270672 C11.0576672,19.5279085 11.0585907,19.5287526 11.0595117,19.5295995 L21.576,29.2 L21.576,29.2 L37.4372169,11.6390516 C37.6686039,11.3829346 38.0637964,11.3628225 38.3199893,11.5941255 Z" fill-rule="evenodd"></path></symbol>
<symbol xmlns="http://www.w3.org/2000/svg" viewBox="0 0 48 48" id="reminder-snooze"><path d="M24,8 C29.620461,8 34.6894234,10.9249342 37.5592266,15.4995994 L38.3051006,13.208295 C38.4122292,12.880302 38.7647087,12.700826 39.0929712,12.8071259 L41.7083766,13.6569226 C42.0366603,13.7635885 42.2163171,14.1161848 42.1096513,14.4444686 L39.4057526,22.7662131 C39.2990867,23.0944968 38.9464904,23.2741536 38.6182066,23.1674878 L30.2964621,20.4635891 C29.9681784,20.3569232 29.7885216,20.0043269 29.8951874,19.6760431 L30.7449842,17.0606377 C30.8519201,16.7325752 31.2043117,16.5529072 31.5326305,16.6590538 L34.0819202,17.4859024 L34.0819202,17.4859024 C31.9147427,14.1348829 28.1585448,12 24,12 C17.372583,12 12,17.372583 12,24 C12,30.627417 17.372583,36 24,36 C28.9964035,36 33.4160229,32.9182754 35.1926595,28.337596 L35.2905819,28.0536246 C35.4001007,27.7360241 35.7410995,27.5618179 36.0626258,27.6592101 L38.7008585,28.4583467 C39.0312552,28.5583728 39.2179562,28.9073269 39.1178815,29.2377088 C39.1157252,29.2448273 39.1134421,29.2519068 39.1110332,29.2589438 C39.0378377,29.4727641 38.9748199,29.6477926 38.9219799,29.7840293 C36.5531588,35.8915306 30.6610451,40 24,40 C15.163444,40 8,32.836556 8,24 C8,15.163444 15.163444,8 24,8 Z" fill-rule="evenodd"></path></symbol>
<symbol xmlns="http://www.w3.org/2000/svg" viewBox="0 0 48 48" id="reminder-start-pomo"><path d="M15.411289,8.5 C15.8873377,8.5 16.352735,8.62701183 16.7488315,8.86502942 L38.9259972,22.1914691 C40.0340537,22.8573093 40.3334728,24.2067345 39.5947685,25.2054948 C39.4181781,25.4442527 39.1908828,25.649128 38.9259972,25.8082999 L16.7488315,39.1347396 C15.640775,39.8005798 14.1436796,39.5306947 13.4049753,38.5319345 C13.140911,38.1749081 13,37.7554165 13,37.3263242 L13,10.6734448 C13,9.47308439 14.0795709,8.5 15.411289,8.5 Z M16.8571429,13.2521176 L16.8571429,34.7460588 L34.7427143,24 L16.8571429,13.2521176 Z" fill-rule="evenodd"></path></symbol>
<symbol xmlns="http://www.w3.org/2000/svg" viewBox="0 0 17 14" id="reminder-view"><path d="M8.5,13.7c-2.5,0-4.6-1.2-6.3-3.2C1.7,9.8,1.2,9.1,0.7,8.3c-0.3-0.4-0.4-0.8-0.5-1c-0.1-0.2-0.1-0.4,0-0.7 c0.1-0.2,0.3-0.6,0.5-1c0.4-0.7,0.9-1.5,1.5-2.1c1.7-2,3.8-3.2,6.3-3.2s4.6,1.2,6.3,3.2c0.6,0.7,1.1,1.4,1.5,2.1 c0.3,0.4,0.4,0.8,0.5,1c0.1,0.2,0.1,0.4,0,0.7c-0.1,0.2-0.3,0.6-0.5,1c-0.4,0.7-0.9,1.5-1.5,2.1C13.1,12.5,11,13.7,8.5,13.7z M8.5,9.9c1.6,0,2.9-1.3,2.9-2.9s-1.3-2.9-2.9-2.9S5.6,5.4,5.6,7S6.9,9.9,8.5,9.9z"></path></symbol>
<symbol xmlns="http://www.w3.org/2000/svg" viewBox="152 -152 1024 1024" id="reminder"><path d="M887.7 377l-13.4-149.9c-4.9-58.3-27.3-111-63.1-148.6-33.7-35.2-76.9-56-126-60.5v-42.1h-43v42.2c-48.9 4.7-92.1 25.3-125.9 60.4-36.4 37.7-59.1 90.5-64 148.7l-13.4 149.9c-47.2 29.4-75 78.3-75 133.2 0 11.9 9.6 21.5 21.5 21.5h556c11.9 0 21.5-9.6 21.3-21.5C962.7 455.3 934.9 406.4 887.7 377zM409.1 488.7c6.5-33.5 28.1-62.4 60.7-79.6 6.4-3.4 10.7-9.9 11.3-17.1l14.4-161.1v-.1c4-48.4 22.5-91.9 52.1-122.5C578.1 76.7 618.5 60 664.5 60c45.8 0 85.9 16.7 115.9 48.2 29 30.5 47.3 74.1 51.3 122.6v.1l14.5 161c.6 7.3 4.9 13.7 11.3 17.1 32.4 17.3 54 46.1 60.5 79.7H409.1zM663.1 616.4c-23.4 0-42.5-19.1-42.5-42.5h-43c0 47.2 38.4 85.5 85.5 85.5s85.5-38.3 85.5-85.5h-43C705.6 597.3 686.6 616.4 663.1 616.4z"></path></symbol>
</svg>