<svg xmlns="http://www.w3.org/2000/svg" xmlns:xlink="http://www.w3.org/1999/xlink" style="position: absolute; width: 0; height: 0" aria-hidden="true" id="__SVG_SPRITE_NODE__">
<symbol xmlns="http://www.w3.org/2000/svg" viewBox="0 0 96 96" id="s-backup"><path d="M48 34c-3.6 0-7.1 1.1-10 3v-5h-4v9c0 .8.4 1.5 1.1 1.8l8 4 1.8-3.6-5.1-2.5C42.2 38.9 45 38 48 38c7.7 0 14 6.3 14 14 0 1.5-.2 3-.7 4.4l3.8 1.2c.6-1.8.9-3.7.9-5.6C66 42.1 57.9 34 48 34zM60.9 61.2l-8-4-1.8 3.6 5.1 2.5C53.8 65.1 51 66 48 66c-7.7 0-14-6.3-14-14 0-1.5.2-3 .7-4.4l-3.8-1.2C30.3 48.2 30 50.1 30 52c0 9.9 8.1 18 18 18 3.6 0 7.1-1.1 10-3v5h4v-9C62 62.2 61.6 61.5 60.9 61.2z"></path><path d="M78,38.5C77.2,22.7,64,10,48,10S18.8,22.7,18,38.5C9.7,42.7,4,52.1,4,62c0,14.1,11.4,26,25,26h38 c13.6,0,25-11.9,25-26C92,52.1,86.3,42.7,78,38.5z M67,84H29C17.6,84,8,73.9,8,62c0-8.8,5.3-17.1,12.8-20.3l1.2-0.5l0-1.3 C22.1,25.6,33.8,14,48,14s25.9,11.6,26,25.8l0,1.3l1.2,0.5C82.7,44.9,88,53.2,88,62C88,73.9,78.4,84,67,84z"></path><path d="M75.2,41.7L74,41.2l0-1.3C73.9,25.6,62.2,14,48,14S22.1,25.6,22,39.8l0,1.3l-1.2,0.5 C13.3,44.9,8,53.2,8,62c0,11.9,9.6,22,21,22h38c11.4,0,21-10.1,21-22C88,53.2,82.7,44.9,75.2,41.7z M62,72h-4v-5c-2.9,2-6.4,3-10,3 c-9.9,0-18-8.1-18-18c0-1.9,0.3-3.8,0.9-5.6l3.8,1.2C34.2,49,34,50.5,34,52c0,7.7,6.3,14,14,14c3,0,5.8-0.9,8.2-2.7l-5.1-2.5 l1.8-3.6l8,4c0.7,0.3,1.1,1,1.1,1.8V72z M65.1,57.6l-3.8-1.2C61.8,55,62,53.5,62,52c0-7.7-6.3-14-14-14c-3,0-5.8,0.9-8.2,2.7 l5.1,2.5l-1.8,3.6l-8-4c-0.7-0.3-1.1-1-1.1-1.8v-9h4v5c2.9-2,6.4-3,10-3c9.9,0,18,8.1,18,18C66,53.9,65.7,55.8,65.1,57.6z" opacity=".1"></path></symbol>
<symbol xmlns="http://www.w3.org/2000/svg" viewBox="0 0 96 96" id="s-email"><path d="M82,14H14c-3.3,0-6,2.7-6,6v54c0,3.3,2.7,6,6,6h68c3.3,0,6-2.7,6-6V20C88,16.7,85.3,14,82,14z M14,18h68 c1.1,0,2,0.9,2,2v11L51.4,47.6c-2.1,1.1-4.7,1.1-6.8,0L12,31V20C12,18.9,12.9,18,14,18z M82,76H14c-1.1,0-2-0.9-2-2V35.5l30.8,15.7 c1.6,0.8,3.4,1.3,5.2,1.3c1.8,0,3.6-0.4,5.2-1.3L84,35.5V74C84,75.1,83.1,76,82,76z"></path><path d="M82,76H14c-1.1,0-2-0.9-2-2V35.5l30.8,15.7c1.6,0.8,3.4,1.3,5.2,1.3c1.8,0,3.6-0.4,5.2-1.3 L84,35.5V74C84,75.1,83.1,76,82,76z" opacity=".1"></path></symbol>
<symbol xmlns="http://www.w3.org/2000/svg" viewBox="0 0 96 96" id="s-tag"><path d="M56.2,89.5c-1.5,0-3.1-0.6-4.2-1.8L9.8,45.6C8.6,44.4,8,42.9,8,41.3L8,12c0-2.2,1.8-4,4-4l29.3,0 c1.6,0,3.1,0.6,4.2,1.8l42.2,42.2c2.3,2.3,2.3,6.1,0,8.5L60.4,87.8C59.3,88.9,57.7,89.5,56.2,89.5z M12,12l0,29.3 c0,0.5,0.2,1,0.6,1.4l42.2,42.2c0.8,0.8,2,0.8,2.8,0l27.3-27.3l0,0c0.4-0.4,0.6-0.9,0.6-1.4s-0.2-1-0.6-1.4L42.7,12.6 c-0.4-0.4-0.9-0.6-1.4-0.6L12,12z"></path><path d="M33,44c-6.1,0-11-4.9-11-11s4.9-11,11-11s11,4.9,11,11S39.1,44,33,44z M33,26c-3.9,0-7,3.1-7,7s3.1,7,7,7 s7-3.1,7-7S36.9,26,33,26z"></path><g opacity=".1"><path d="M33,26c-3.9,0-7,3.1-7,7s3.1,7,7,7s7-3.1,7-7S36.9,26,33,26z"></path><path d="M84.9,54.8L42.7,12.6c-0.4-0.4-0.9-0.6-1.4-0.6L12,12l0,29.3c0,0.5,0.2,1,0.6,1.4l42.2,42.2 c0.8,0.8,2,0.8,2.8,0l27.3-27.3c0.4-0.4,0.6-0.9,0.6-1.4S85.3,55.1,84.9,54.8z M33,44c-6.1,0-11-4.9-11-11s4.9-11,11-11 s11,4.9,11,11S39.1,44,33,44z"></path></g></symbol>
<symbol xmlns="http://www.w3.org/2000/svg" viewBox="0 0 96 96" id="s-wechat"><path d="M85.2,89.6c-0.3,0-0.7-0.1-1-0.2L76.2,85c-3,0.7-6.2,1.5-9.3,1.5c-16.1,0-29.2-11.2-29.2-25 s13.1-25,29.2-25c15.8,0,29.2,11.4,29.2,25c0,6.7-3.9,13.4-10.9,19l2,6.6c0.2,0.8,0,1.6-0.6,2.1C86.1,89.5,85.7,89.6,85.2,89.6z M76.5,80.9c0.3,0,0.7,0.1,1,0.2l4.5,2.4l-1-3.3c-0.2-0.8,0-1.7,0.7-2.2c6.7-5,10.4-10.9,10.4-16.6c0-11.4-11.5-21-25.2-21 c-13.9,0-25.2,9.4-25.2,21c0,11.6,11.3,21,25.2,21c2.9,0,6.1-0.8,9.1-1.5C76.1,80.9,76.3,80.9,76.5,80.9z M75.9,61.4 c-3.5,0-6.4-2.9-6.4-6.4c0-3.5,2.9-6.4,6.4-6.4s6.4,2.9,6.4,6.4C82.3,58.5,79.4,61.4,75.9,61.4z M75.9,52.7c-1.3,0-2.4,1.1-2.4,2.4 s1.1,2.4,2.4,2.4s2.4-1.1,2.4-2.4S77.2,52.7,75.9,52.7z M58.2,61.4c-3.5,0-6.4-2.9-6.4-6.4c0-3.5,2.9-6.4,6.4-6.4s6.4,2.9,6.4,6.4 C64.6,58.5,61.7,61.4,58.2,61.4z M58.2,52.7c-1.3,0-2.4,1.1-2.4,2.4s1.1,2.4,2.4,2.4s2.4-1.1,2.4-2.4S59.5,52.7,58.2,52.7z"></path><path d="M11.5,72.9c-0.5,0-0.9-0.2-1.3-0.5c-0.6-0.5-0.8-1.4-0.6-2.1l2.7-8.3C4.3,55.9,0,48.2,0,39.6 c0-16.1,15.1-29.3,33.7-29.3c14.6,0,28.1,8.3,32.8,20.1l-3.7,1.5c-4.1-10.3-16-17.5-29-17.5C17.3,14.4,4,25.7,4,39.6 c0,7.7,4,14.5,11.9,20c0.7,0.5,1,1.4,0.7,2.3l-1.7,5l6.8-3.4c0.4-0.2,0.9-0.3,1.3-0.2c0.6,0.1,1.3,0.3,1.9,0.4 c3.1,0.6,5.7,1.2,8.9,1.2v4c-3.5,0-6.5-0.6-9.7-1.3c-0.4-0.1-0.8-0.2-1.2-0.2l-10.5,5.3C12.1,72.8,11.8,72.9,11.5,72.9z"></path><path d="M24 37.8c-3.5 0-6.4-2.9-6.4-6.4S20.5 25 24 25s6.4 2.9 6.4 6.4S27.5 37.8 24 37.8zM24 29c-1.3 0-2.4 1.1-2.4 2.4s1.1 2.4 2.4 2.4 2.4-1.1 2.4-2.4S25.3 29 24 29zM44.4 37.8c-3.5 0-6.4-2.9-6.4-6.4s2.9-6.4 6.4-6.4 6.4 2.9 6.4 6.4S48 37.8 44.4 37.8zM44.4 29c-1.3 0-2.4 1.1-2.4 2.4s1.1 2.4 2.4 2.4 2.4-1.1 2.4-2.4S45.7 29 44.4 29z"></path><g opacity=".1"><path d="M76.5,80.9c0.3,0,0.7,0.1,1,0.2l4.5,2.4l-1-3.3c-0.2-0.8,0-1.7,0.7-2.2c6.7-5,10.4-10.9,10.4-16.6 c0-11.4-11.5-21-25.2-21c-13.9,0-25.2,9.4-25.2,21c0,11.6,11.3,21,25.2,21c2.9,0,6.1-0.8,9.1-1.5C76.1,80.9,76.3,80.9,76.5,80.9z M75.9,61.4c-3.5,0-6.4-2.9-6.4-6.4c0-3.5,2.9-6.4,6.4-6.4s6.4,2.9,6.4,6.4C82.3,58.5,79.4,61.4,75.9,61.4z M58.2,61.4 c-3.5,0-6.4-2.9-6.4-6.4c0-3.5,2.9-6.4,6.4-6.4s6.4,2.9,6.4,6.4C64.6,58.5,61.7,61.4,58.2,61.4z"></path></g></symbol>
</svg>