<svg xmlns="http://www.w3.org/2000/svg" xmlns:xlink="http://www.w3.org/1999/xlink" style="position: absolute; width: 0; height: 0" aria-hidden="true" id="__SVG_SPRITE_NODE__">
<symbol xmlns="http://www.w3.org/2000/svg" fill="none" viewBox="0 0 20 20" id="safety-app"><path d="M15.499919092941283,3.840005397796631L4.499949092941284,3.840005397796631C3.276428092941284,3.840005397796631,2.284619092941284,4.807064397796631,2.284619092941284,5.999995397796631L2.284619092941284,14.000005397796631C2.284619092941284,15.19290539779663,3.276428092941284,16.16000539779663,4.499949092941284,16.16000539779663L15.499919092941283,16.16000539779663C16.723519092941284,16.16000539779663,17.715319092941286,15.19290539779663,17.715319092941286,14.000005397796631L17.715319092941286,5.999995397796631C17.715319092941286,4.807064397796631,16.723519092941284,3.840005397796631,15.499919092941283,3.840005397796631ZM10.139999092941284,11.100015397796632C10.758559092941285,11.100015397796632,11.260009092941285,10.59850539779663,11.260009092941285,9.97995539779663C11.260009092941285,9.361395397796631,10.758559092941285,8.859885397796631,10.139999092941284,8.859885397796631C9.521439092941284,8.859885397796631,9.019999092941283,9.361395397796631,9.019999092941283,9.97995539779663C9.019999092941283,10.59850539779663,9.521439092941284,11.100015397796632,10.139999092941284,11.100015397796632ZM13.780019092941284,11.100015397796632C14.398619092941285,11.100015397796632,14.900019092941283,10.59850539779663,14.900019092941283,9.97995539779663C14.900019092941283,9.361395397796631,14.398619092941285,8.859885397796631,13.780019092941284,8.859885397796631C13.161419092941284,8.859885397796631,12.660019092941285,9.361395397796631,12.660019092941285,9.97995539779663C12.660019092941285,10.59850539779663,13.161419092941284,11.100015397796632,13.780019092941284,11.100015397796632ZM6.5600190929412845,11.15983539779663C7.178579092941284,11.15983539779663,7.680029092941284,10.65832539779663,7.680029092941284,10.039765397796632C7.680029092941284,9.42120539779663,7.178579092941284,8.91969539779663,6.5600190929412845,8.91969539779663C5.941459092941284,8.91969539779663,5.440019092941284,9.42120539779663,5.440019092941284,10.039765397796632C5.440019092941284,10.65832539779663,5.941459092941284,11.15983539779663,6.5600190929412845,11.15983539779663Z" fill-rule="evenodd" fill="#4772FA" style="mix-blend-mode:passthrough"></path></symbol>
<symbol xmlns="http://www.w3.org/2000/svg" fill="none" viewBox="0 0 20 20" id="safety-backup"><path d="M4.622995967941284,3.8399658203125L15.248465967941284,3.8399658203125C16.471965967941284,3.8399658203125,17.463865967941285,4.8070648203125,17.463865967941285,5.9999958203125L17.463865967941285,13.9999658203125C17.463865967941285,15.1929658203125,16.471965967941284,16.1598658203125,15.248465967941284,16.1598658203125L4.622995967941284,16.1598658203125C3.399474967941284,16.1598658203125,2.407665967941284,15.1929658203125,2.407665967941284,13.9999658203125L2.407665967941284,5.9999958203125C2.407665967941284,4.8070648203125,3.399474967941284,3.8399658203125,4.622995967941284,3.8399658203125ZM14.467965967941284,7.4353058203125Q14.845665967941285,7.6331858203125,15.048065967941284,7.9772958203125Q15.248565967941284,8.3216158203125,15.248465967941284,8.7051958203125Q15.248465967941284,9.0709358203125,15.054165967941284,9.3790258203125Q14.902665967941283,9.608485820312499,14.677965967941285,9.7551258203125Q15.017965967941285,9.8888758203125,15.232165967941285,10.1735858203125Q15.503265967941283,10.5429458203125,15.503365967941285,11.0798358203125Q15.514365967941284,11.8104558203125,14.980165967941284,12.3201858203125Q14.466465967941284,12.8278558203125,13.670865967941284,12.8278858203125Q12.956565967941284,12.8278858203125,12.482165967941285,12.3892858203125Q12.010825967941285,11.9535958203125,11.944045967941284,11.255005820312501L11.935985967941285,11.1689458203125L12.738265967941285,11.0593258203125L12.754565967941284,11.1426958203125Q12.856565967941284,11.664505820312499,13.098365967941284,11.8898958203125Q13.336165967941284,12.1100158203125,13.675265967941284,12.1101058203125Q14.083665967941284,12.1101058203125,14.366365967941285,11.819575820312501Q14.647565967941285,11.532185820312499,14.647665967941284,11.0952158203125L14.647665967941284,11.093505820312501L14.647665967941284,11.0917958203125Q14.662665967941285,10.703485820312501,14.389565967941284,10.4202858203125Q14.121765967941284,10.1449658203125,13.732165967941285,10.1558858203125L13.730865967941284,10.156005820312501L13.729665967941283,10.156005820312501Q13.560865967941284,10.156005820312501,13.306865967941285,10.2252158203125L13.177665967941284,10.2603758203125L13.274365967941284,9.4703358203125L13.361265967941284,9.4785158203125Q13.783865967941285,9.5179658203125,14.133765967941285,9.283815820312501Q14.416165967941284,9.0945858203125,14.415965967941284,8.690065820312501L14.415965967941284,8.6879858203125L14.416165967941284,8.6859158203125Q14.430265967941285,8.3786858203125,14.207265967941284,8.1605258203125Q13.983165967941284,7.9412458203125,13.665465967941284,7.9537358203125L13.662565967941283,7.9538558203125L13.659365967941284,7.9538558203125Q13.337065967941284,7.9448458203125,13.109065967941284,8.1658958203125Q12.885465967941284,8.3838858203125,12.818265967941285,8.8308058203125L12.804665967941284,8.9227258203125L11.992625967941285,8.7744158203125L12.008255967941285,8.6861558203125Q12.130225967941284,8.0014658203125,12.566065967941284,7.6210958203125Q13.003565967941284,7.239255820312501,13.648665967941284,7.239255820312501Q14.093865967941284,7.239255820312501,14.467965967941284,7.4353058203125ZM4.499955967941284,9.4184558203125L4.499955967941284,8.6022958203125L4.550975967941284,8.5776358203125Q5.070155967941284,8.3269158203125,5.457465967941284,7.9714358203125Q5.844215967941285,7.616445820312499,5.999705967941284,7.2915058203125L6.024365967941284,7.2403558203125L6.579785967941284,7.2403558203125L6.579785967941284,12.7338858203125L5.766065967941284,12.7338858203125L5.766065967941284,8.7033658203125Q5.549405967941285,8.8842158203125,5.303175967941284,9.0274658203125Q4.9793059679412845,9.2294058203125,4.622995967941284,9.3699958203125L4.499955967941284,9.4184558203125ZM11.480175967941284,8.8001758203125Q11.480175967941284,9.1333758203125,11.345895967941285,9.4587358203125Q11.214985967941285,9.7761658203125,10.909865967941284,10.1291458203125Q10.611475967941285,10.474315820312501,9.923775967941285,11.0682358203125Q9.360395967941283,11.555085820312499,9.198435967941284,11.7291258203125Q9.109155967941284,11.8246258203125,9.033155967941283,11.9296858203125L11.485785967941284,11.9296858203125L11.485785967941284,12.7338858203125L7.899125967941284,12.7338858203125L7.896195967941284,12.6468458203125Q7.888085967941284,12.3963958203125,7.976025967941284,12.1614958203125Q8.112665967941284,11.7888158203125,8.407665967941284,11.4307858203125Q8.704515967941283,11.0744358203125,9.247505967941283,10.6181658203125Q10.082435967941283,9.9151158203125,10.368845967941283,9.513545820312501Q10.647775967941284,9.1239458203125,10.647655967941285,8.7840558203125L10.647655967941285,8.7829558203125L10.647655967941285,8.7819858203125Q10.655355967941285,8.4393858203125,10.406205967941284,8.197635820312499Q10.141545967941283,7.9433658203125,9.769725967941284,7.9581258203125L9.768015967941285,7.9581258203125L9.766305967941285,7.9581258203125Q9.348175967941284,7.9581258203125,9.098585967941284,8.2116658203125Q8.850675967941285,8.4665658203125,8.846145967941284,8.9296858203125L8.845165967941284,9.028565820312501L8.008255967941285,8.9410358203125L8.016065967941284,8.8527858203125Q8.085765967941285,8.0695058203125,8.548535967941284,7.6542958203125Q9.009965967941284,7.2403258203125,9.780715967941283,7.2403558203125Q10.558835967941285,7.2403558203125,11.019965967941284,7.6883558203125Q11.480125967941284,8.1387258203125,11.480175967941284,8.8001758203125Z" fill-rule="evenodd" fill="#4772FA" style="mix-blend-mode:passthrough"></path></symbol>
<symbol xmlns="http://www.w3.org/2000/svg" viewBox="0 0 14 14" id="safety-binded"><path d="M7,14C10.866,14,14,10.866,14,7C14,3.13401,10.866,0,7,0C3.13401,0,0,3.13401,0,7C0,10.866,3.13401,14,7,14ZM7,1C10.3137,1,13,3.68629,13,7C13,10.3137,10.3137,13,7,13C3.68629,13,1,10.3137,1,7C1,3.68629,3.68629,1,7,1Z" fill-rule="evenodd"></path><path d="M10.207480390625001,4.338448125C10.108630390624999,4.239596725,9.957130390625,4.225475025,9.843240390624999,4.296083225L9.789840390624999,4.338448125L5.822310390625001,8.305983125000001L4.082165390625,6.565833125C3.983313390625,6.4669831250000005,3.831818390625,6.452863125,3.717925390625,6.523473125000001L3.664530390625,6.565833125L3.246895390625,6.983473125C3.148043990625,7.082323125,3.133922290625,7.233813125,3.204530490625,7.347713125L3.246895390625,7.401103125000001L5.6134903906249995,9.767703125C5.712340390625,9.866553125,5.8638403906250005,9.880673125000001,5.977730390625,9.810063125L6.031130390625,9.767703125L10.625110390625,5.173718125C10.723960390624999,5.074866125,10.738080390625,4.923371125,10.667480390625,4.809478125L10.625110390625,4.756083125L10.207480390625001,4.338448125Z" fill-rule="evenodd"></path></symbol>
<symbol xmlns="http://www.w3.org/2000/svg" fill="none" viewBox="0 0 20 20" id="safety-mail"><path d="M17.773522328186033,6.32621465637207L9.898072328186036,10.69364465637207L2.224368218186035,6.43957465637207L2.224368218186035,5.80475465637207C2.224368218186035,5.05452565637207,2.857405328186035,4.44444465637207,3.640652328186035,4.44444465637207L16.361522328186034,4.44444465637207C17.142622328186036,4.44444465637207,17.777822328186033,5.05246465637207,17.777822328186033,5.80475465637207L17.777822328186033,6.32621465637207L17.773522328186033,6.32621465637207ZM17.773522328186033,7.894694656372071L17.773522328186033,15.30634465637207C17.773522328186033,16.05654465637207,17.140422328186034,16.66664465637207,16.357222328186033,16.66664465637207L3.638512328186035,16.66664465637207C2.857405328186035,16.66664465637207,2.222222328186035,16.05864465637207,2.222222328186035,15.30634465637207L2.222222328186035,8.008054656372071L9.546142328186036,12.068394656372071C9.797212328186035,12.20854465637207,10.099782328186034,12.181754656372071,10.318662328186035,12.02717465637207C10.329392328186035,12.02304465637207,10.337982328186035,12.016864656372071,10.348702328186036,12.012744656372071L17.773522328186033,7.894694656372071Z" fill="#4772FA"></path></symbol>
<symbol xmlns="http://www.w3.org/2000/svg" fill="none" viewBox="0 0 20 20" id="safety-phone"><path d="M14.6429,1L5.35714,1C4.331471,1,3.5,1.805887,3.5,2.8L3.5,17.2C3.5,18.1941,4.331471,19,5.35714,19L14.6429,19C15.6685,19,16.5,18.1941,16.5,17.2L16.5,2.8C16.5,1.805887,15.6685,1,14.6429,1ZM10,18.1C9.48716,18.1,9.07143,17.6971,9.07143,17.2C9.07143,16.7029,9.48716,16.3,10,16.3C10.51284,16.3,10.92857,16.7029,10.92857,17.2C10.92857,17.6971,10.51284,18.1,10,18.1ZM14.6429,15.4L5.35714,15.4L5.35714,2.8L14.6429,2.8L14.6429,15.4Z" fill="#379EFF" style="mix-blend-mode:passthrough"></path></symbol>
<symbol xmlns="http://www.w3.org/2000/svg" fill="none" viewBox="0 0 20 20" id="safety-verify-mail"><path d="M20,10Q20,10.2455,19.988,10.4907Q19.9759,10.7359,19.9518,10.9802Q19.9278,11.2245,19.8918,11.4673Q19.8557,11.7101,19.8078,11.9509Q19.76,12.1917,19.7003,12.4298Q19.6407,12.6679,19.5694,12.9028Q19.4981,13.1378,19.4154,13.3689Q19.3327,13.6,19.2388,13.8268Q19.1448,14.0536,19.0399,14.2755Q18.9349,14.4975,18.8192,14.714Q18.7035,14.9305,18.5773,15.141Q18.4511,15.3516,18.3147,15.5557Q18.1783,15.7598,18.0321,15.957Q17.8858,16.1542,17.7301,16.3439Q17.5744,16.5337,17.4095,16.7156Q17.2446,16.8975,17.0711,17.0711Q16.8975,17.2446,16.7156,17.4095Q16.5337,17.5744,16.3439,17.7301Q16.1542,17.8858,15.957,18.0321Q15.7598,18.1783,15.5557,18.3147Q15.3516,18.4511,15.141,18.5773Q14.9305,18.7035,14.714,18.8192Q14.4975,18.9349,14.2755,19.0399Q14.0536,19.1448,13.8268,19.2388Q13.6,19.3327,13.3689,19.4154Q13.1378,19.4981,12.9028,19.5694Q12.6679,19.6407,12.4298,19.7003Q12.1917,19.76,11.9509,19.8078Q11.7101,19.8557,11.4673,19.8918Q11.2245,19.9278,10.9802,19.9518Q10.7359,19.9759,10.4907,19.988Q10.2455,20,10,20Q9.75451,20,9.50932,19.988Q9.26413,19.9759,9.01983,19.9518Q8.77552,19.9278,8.53269,19.8918Q8.28987,19.8557,8.0491,19.8078Q7.80833,19.76,7.5702,19.7003Q7.33207,19.6407,7.09715,19.5694Q6.86224,19.4981,6.6311,19.4154Q6.39996,19.3327,6.17316,19.2388Q5.94636,19.1448,5.72445,19.0399Q5.50253,18.9349,5.28603,18.8192Q5.06953,18.7035,4.85897,18.5773Q4.64841,18.4511,4.4443,18.3147Q4.24018,18.1783,4.04301,18.0321Q3.84583,17.8858,3.65607,17.7301Q3.4663,17.5744,3.28441,17.4095Q3.10252,17.2446,2.92893,17.0711Q2.75535,16.8975,2.59049,16.7156Q2.42563,16.5337,2.2699,16.3439Q2.11416,16.1542,1.96792,15.957Q1.82169,15.7598,1.6853,15.5557Q1.54892,15.3516,1.42271,15.141Q1.29651,14.9305,1.18079,14.714Q1.06507,14.4975,0.960107,14.2755Q0.855148,14.0536,0.761205,13.8268Q0.667261,13.6,0.584559,13.3689Q0.501857,13.1378,0.430597,12.9028Q0.359336,12.6679,0.299687,12.4298Q0.240039,12.1917,0.192147,11.9509Q0.144255,11.7101,0.108235,11.4673Q0.0722146,11.2245,0.0481527,10.9802Q0.0240909,10.7359,0.0120454,10.4907Q0,10.2455,0,10Q0,9.75451,0.0120454,9.50932Q0.0240909,9.26413,0.0481527,9.01983Q0.0722146,8.77552,0.108235,8.53269Q0.144255,8.28987,0.192147,8.0491Q0.240039,7.80833,0.299687,7.5702Q0.359336,7.33207,0.430597,7.09715Q0.501857,6.86224,0.584559,6.6311Q0.667261,6.39996,0.761205,6.17316Q0.855148,5.94636,0.960107,5.72445Q1.06507,5.50253,1.18079,5.28603Q1.29651,5.06953,1.42271,4.85897Q1.54892,4.64841,1.6853,4.4443Q1.82169,4.24018,1.96792,4.04301Q2.11416,3.84583,2.2699,3.65607Q2.42563,3.4663,2.59049,3.28441Q2.75535,3.10252,2.92893,2.92893Q3.10252,2.75535,3.28441,2.59049Q3.4663,2.42563,3.65607,2.2699Q3.84583,2.11416,4.04301,1.96792Q4.24018,1.82169,4.4443,1.6853Q4.64841,1.54892,4.85897,1.42271Q5.06953,1.29651,5.28603,1.18079Q5.50253,1.06507,5.72445,0.960107Q5.94636,0.855148,6.17316,0.761205Q6.39996,0.667261,6.6311,0.584559Q6.86224,0.501857,7.09715,0.430597Q7.33207,0.359336,7.5702,0.299687Q7.80833,0.240039,8.0491,0.192147Q8.28987,0.144255,8.53269,0.108235Q8.77552,0.0722146,9.01983,0.0481527Q9.26413,0.0240909,9.50932,0.0120454Q9.75451,0,10,0Q10.2455,0,10.4907,0.0120454Q10.7359,0.0240909,10.9802,0.0481527Q11.2245,0.0722146,11.4673,0.108235Q11.7101,0.144255,11.9509,0.192147Q12.1917,0.240039,12.4298,0.299687Q12.6679,0.359336,12.9028,0.430597Q13.1378,0.501857,13.3689,0.584559Q13.6,0.667261,13.8268,0.761205Q14.0536,0.855148,14.2755,0.960107Q14.4975,1.06507,14.714,1.18079Q14.9305,1.29651,15.141,1.42271Q15.3516,1.54892,15.5557,1.6853Q15.7598,1.82169,15.957,1.96792Q16.1542,2.11416,16.3439,2.2699Q16.5337,2.42563,16.7156,2.59049Q16.8975,2.75535,17.0711,2.92893Q17.2446,3.10252,17.4095,3.28441Q17.5744,3.4663,17.7301,3.65607Q17.8858,3.84583,18.0321,4.04301Q18.1783,4.24018,18.3147,4.4443Q18.4511,4.64841,18.5773,4.85897Q18.7035,5.06953,18.8192,5.28603Q18.9349,5.50253,19.0399,5.72445Q19.1448,5.94636,19.2388,6.17316Q19.3327,6.39996,19.4154,6.6311Q19.4981,6.86224,19.5694,7.09715Q19.6407,7.33207,19.7003,7.5702Q19.76,7.80833,19.8078,8.0491Q19.8557,8.28987,19.8918,8.53269Q19.9278,8.77552,19.9518,9.01983Q19.9759,9.26413,19.988,9.50932Q20,9.75451,20,10Z" fill="#4772FA"></path><path d="M15.497,7.38567L9.92792,10.60169L4.50151745,7.4691399999999994L4.50151745,7.00169C4.50151745,6.449241,4.949165,6,5.50303,6L14.49848,6C15.0508,6,15.5,6.447723,15.5,7.00169L15.5,7.38567L15.497,7.38567ZM15.497,8.54064L15.497,13.99831C15.497,14.55076,15.0493,15,14.49545,15L5.50152,15C4.949165,15,4.5,14.55228,4.5,13.99831L4.5,8.62411L9.67906,11.614C9.8566,11.7172,10.07056,11.69747,10.22534,11.583639999999999C10.23293,11.58061,10.239,11.57605,10.246590000000001,11.57302L15.497,8.54064Z" fill="#FFFFFF"></path></symbol>
<symbol xmlns="http://www.w3.org/2000/svg" fill="none" viewBox="0 0 20 20" id="safety-verify-phone"><path d="M20,10Q20,10.2455,19.988,10.4907Q19.9759,10.7359,19.9518,10.9802Q19.9278,11.2245,19.8918,11.4673Q19.8557,11.7101,19.8078,11.9509Q19.76,12.1917,19.7003,12.4298Q19.6407,12.6679,19.5694,12.9028Q19.4981,13.1378,19.4154,13.3689Q19.3327,13.6,19.2388,13.8268Q19.1448,14.0536,19.0399,14.2755Q18.9349,14.4975,18.8192,14.714Q18.7035,14.9305,18.5773,15.141Q18.4511,15.3516,18.3147,15.5557Q18.1783,15.7598,18.0321,15.957Q17.8858,16.1542,17.7301,16.3439Q17.5744,16.5337,17.4095,16.7156Q17.2446,16.8975,17.0711,17.0711Q16.8975,17.2446,16.7156,17.4095Q16.5337,17.5744,16.3439,17.7301Q16.1542,17.8858,15.957,18.0321Q15.7598,18.1783,15.5557,18.3147Q15.3516,18.4511,15.141,18.5773Q14.9305,18.7035,14.714,18.8192Q14.4975,18.9349,14.2755,19.0399Q14.0536,19.1448,13.8268,19.2388Q13.6,19.3327,13.3689,19.4154Q13.1378,19.4981,12.9028,19.5694Q12.6679,19.6407,12.4298,19.7003Q12.1917,19.76,11.9509,19.8078Q11.7101,19.8557,11.4673,19.8918Q11.2245,19.9278,10.9802,19.9518Q10.7359,19.9759,10.4907,19.988Q10.2455,20,10,20Q9.75451,20,9.50932,19.988Q9.26413,19.9759,9.01983,19.9518Q8.77552,19.9278,8.53269,19.8918Q8.28987,19.8557,8.0491,19.8078Q7.80833,19.76,7.5702,19.7003Q7.33207,19.6407,7.09715,19.5694Q6.86224,19.4981,6.6311,19.4154Q6.39996,19.3327,6.17316,19.2388Q5.94636,19.1448,5.72445,19.0399Q5.50253,18.9349,5.28603,18.8192Q5.06953,18.7035,4.85897,18.5773Q4.64841,18.4511,4.4443,18.3147Q4.24018,18.1783,4.04301,18.0321Q3.84583,17.8858,3.65607,17.7301Q3.4663,17.5744,3.28441,17.4095Q3.10252,17.2446,2.92893,17.0711Q2.75535,16.8975,2.59049,16.7156Q2.42563,16.5337,2.2699,16.3439Q2.11416,16.1542,1.96792,15.957Q1.82169,15.7598,1.6853,15.5557Q1.54892,15.3516,1.42271,15.141Q1.29651,14.9305,1.18079,14.714Q1.06507,14.4975,0.960107,14.2755Q0.855148,14.0536,0.761205,13.8268Q0.667261,13.6,0.584559,13.3689Q0.501857,13.1378,0.430597,12.9028Q0.359336,12.6679,0.299687,12.4298Q0.240039,12.1917,0.192147,11.9509Q0.144255,11.7101,0.108235,11.4673Q0.0722146,11.2245,0.0481527,10.9802Q0.0240909,10.7359,0.0120454,10.4907Q0,10.2455,0,10Q0,9.75451,0.0120454,9.50932Q0.0240909,9.26413,0.0481527,9.01983Q0.0722146,8.77552,0.108235,8.53269Q0.144255,8.28987,0.192147,8.0491Q0.240039,7.80833,0.299687,7.5702Q0.359336,7.33207,0.430597,7.09715Q0.501857,6.86224,0.584559,6.6311Q0.667261,6.39996,0.761205,6.17316Q0.855148,5.94636,0.960107,5.72445Q1.06507,5.50253,1.18079,5.28603Q1.29651,5.06953,1.42271,4.85897Q1.54892,4.64841,1.6853,4.4443Q1.82169,4.24018,1.96792,4.04301Q2.11416,3.84583,2.2699,3.65607Q2.42563,3.4663,2.59049,3.28441Q2.75535,3.10252,2.92893,2.92893Q3.10252,2.75535,3.28441,2.59049Q3.4663,2.42563,3.65607,2.2699Q3.84583,2.11416,4.04301,1.96792Q4.24018,1.82169,4.4443,1.6853Q4.64841,1.54892,4.85897,1.42271Q5.06953,1.29651,5.28603,1.18079Q5.50253,1.06507,5.72445,0.960107Q5.94636,0.855148,6.17316,0.761205Q6.39996,0.667261,6.6311,0.584559Q6.86224,0.501857,7.09715,0.430597Q7.33207,0.359336,7.5702,0.299687Q7.80833,0.240039,8.0491,0.192147Q8.28987,0.144255,8.53269,0.108235Q8.77552,0.0722146,9.01983,0.0481527Q9.26413,0.0240909,9.50932,0.0120454Q9.75451,0,10,0Q10.2455,0,10.4907,0.0120454Q10.7359,0.0240909,10.9802,0.0481527Q11.2245,0.0722146,11.4673,0.108235Q11.7101,0.144255,11.9509,0.192147Q12.1917,0.240039,12.4298,0.299687Q12.6679,0.359336,12.9028,0.430597Q13.1378,0.501857,13.3689,0.584559Q13.6,0.667261,13.8268,0.761205Q14.0536,0.855148,14.2755,0.960107Q14.4975,1.06507,14.714,1.18079Q14.9305,1.29651,15.141,1.42271Q15.3516,1.54892,15.5557,1.6853Q15.7598,1.82169,15.957,1.96792Q16.1542,2.11416,16.3439,2.2699Q16.5337,2.42563,16.7156,2.59049Q16.8975,2.75535,17.0711,2.92893Q17.2446,3.10252,17.4095,3.28441Q17.5744,3.4663,17.7301,3.65607Q17.8858,3.84583,18.0321,4.04301Q18.1783,4.24018,18.3147,4.4443Q18.4511,4.64841,18.5773,4.85897Q18.7035,5.06953,18.8192,5.28603Q18.9349,5.50253,19.0399,5.72445Q19.1448,5.94636,19.2388,6.17316Q19.3327,6.39996,19.4154,6.6311Q19.4981,6.86224,19.5694,7.09715Q19.6407,7.33207,19.7003,7.5702Q19.76,7.80833,19.8078,8.0491Q19.8557,8.28987,19.8918,8.53269Q19.9278,8.77552,19.9518,9.01983Q19.9759,9.26413,19.988,9.50932Q20,9.75451,20,10Z" fill="#4CACFA"></path><path d="M13.21429,4L6.78571,4C6.075634,4,5.5,4.537258,5.5,5.2L5.5,14.8C5.5,15.4627,6.075634,16,6.78571,16L13.21429,16C13.92437,16,14.5,15.4627,14.5,14.8L14.5,5.2C14.5,4.537258,13.92437,4,13.21429,4ZM10,15.4C9.644960000000001,15.4,9.35714,15.1314,9.35714,14.8C9.35714,14.4686,9.644960000000001,14.2,10,14.2C10.355039999999999,14.2,10.642859999999999,14.4686,10.642859999999999,14.8C10.642859999999999,15.1314,10.355039999999999,15.4,10,15.4ZM13.21429,13.6L6.78571,13.6L6.78571,5.2L13.21429,5.2L13.21429,13.6Z" fill="#FFFFFF" style="mix-blend-mode:passthrough"></path></symbol>
<symbol xmlns="http://www.w3.org/2000/svg" fill="none" viewBox="0 0 20 20" id="safety-verify-wechat"><path d="M20,10Q20,10.2455,19.988,10.4907Q19.9759,10.7359,19.9518,10.9802Q19.9278,11.2245,19.8918,11.4673Q19.8557,11.7101,19.8078,11.9509Q19.76,12.1917,19.7003,12.4298Q19.6407,12.6679,19.5694,12.9028Q19.4981,13.1378,19.4154,13.3689Q19.3327,13.6,19.2388,13.8268Q19.1448,14.0536,19.0399,14.2755Q18.9349,14.4975,18.8192,14.714Q18.7035,14.9305,18.5773,15.141Q18.4511,15.3516,18.3147,15.5557Q18.1783,15.7598,18.0321,15.957Q17.8858,16.1542,17.7301,16.3439Q17.5744,16.5337,17.4095,16.7156Q17.2446,16.8975,17.0711,17.0711Q16.8975,17.2446,16.7156,17.4095Q16.5337,17.5744,16.3439,17.7301Q16.1542,17.8858,15.957,18.0321Q15.7598,18.1783,15.5557,18.3147Q15.3516,18.4511,15.141,18.5773Q14.9305,18.7035,14.714,18.8192Q14.4975,18.9349,14.2755,19.0399Q14.0536,19.1448,13.8268,19.2388Q13.6,19.3327,13.3689,19.4154Q13.1378,19.4981,12.9028,19.5694Q12.6679,19.6407,12.4298,19.7003Q12.1917,19.76,11.9509,19.8078Q11.7101,19.8557,11.4673,19.8918Q11.2245,19.9278,10.9802,19.9518Q10.7359,19.9759,10.4907,19.988Q10.2455,20,10,20Q9.75451,20,9.50932,19.988Q9.26413,19.9759,9.01983,19.9518Q8.77552,19.9278,8.53269,19.8918Q8.28987,19.8557,8.0491,19.8078Q7.80833,19.76,7.5702,19.7003Q7.33207,19.6407,7.09715,19.5694Q6.86224,19.4981,6.6311,19.4154Q6.39996,19.3327,6.17316,19.2388Q5.94636,19.1448,5.72445,19.0399Q5.50253,18.9349,5.28603,18.8192Q5.06953,18.7035,4.85897,18.5773Q4.64841,18.4511,4.4443,18.3147Q4.24018,18.1783,4.04301,18.0321Q3.84583,17.8858,3.65607,17.7301Q3.4663,17.5744,3.28441,17.4095Q3.10252,17.2446,2.92893,17.0711Q2.75535,16.8975,2.59049,16.7156Q2.42563,16.5337,2.2699,16.3439Q2.11416,16.1542,1.96792,15.957Q1.82169,15.7598,1.6853,15.5557Q1.54892,15.3516,1.42271,15.141Q1.29651,14.9305,1.18079,14.714Q1.06507,14.4975,0.960107,14.2755Q0.855148,14.0536,0.761205,13.8268Q0.667261,13.6,0.584559,13.3689Q0.501857,13.1378,0.430597,12.9028Q0.359336,12.6679,0.299687,12.4298Q0.240039,12.1917,0.192147,11.9509Q0.144255,11.7101,0.108235,11.4673Q0.0722146,11.2245,0.0481527,10.9802Q0.0240909,10.7359,0.0120454,10.4907Q0,10.2455,0,10Q0,9.75451,0.0120454,9.50932Q0.0240909,9.26413,0.0481527,9.01983Q0.0722146,8.77552,0.108235,8.53269Q0.144255,8.28987,0.192147,8.0491Q0.240039,7.80833,0.299687,7.5702Q0.359336,7.33207,0.430597,7.09715Q0.501857,6.86224,0.584559,6.6311Q0.667261,6.39996,0.761205,6.17316Q0.855148,5.94636,0.960107,5.72445Q1.06507,5.50253,1.18079,5.28603Q1.29651,5.06953,1.42271,4.85897Q1.54892,4.64841,1.6853,4.4443Q1.82169,4.24018,1.96792,4.04301Q2.11416,3.84583,2.2699,3.65607Q2.42563,3.4663,2.59049,3.28441Q2.75535,3.10252,2.92893,2.92893Q3.10252,2.75535,3.28441,2.59049Q3.4663,2.42563,3.65607,2.2699Q3.84583,2.11416,4.04301,1.96792Q4.24018,1.82169,4.4443,1.6853Q4.64841,1.54892,4.85897,1.42271Q5.06953,1.29651,5.28603,1.18079Q5.50253,1.06507,5.72445,0.960107Q5.94636,0.855148,6.17316,0.761205Q6.39996,0.667261,6.6311,0.584559Q6.86224,0.501857,7.09715,0.430597Q7.33207,0.359336,7.5702,0.299687Q7.80833,0.240039,8.0491,0.192147Q8.28987,0.144255,8.53269,0.108235Q8.77552,0.0722146,9.01983,0.0481527Q9.26413,0.0240909,9.50932,0.0120454Q9.75451,0,10,0Q10.2455,0,10.4907,0.0120454Q10.7359,0.0240909,10.9802,0.0481527Q11.2245,0.0722146,11.4673,0.108235Q11.7101,0.144255,11.9509,0.192147Q12.1917,0.240039,12.4298,0.299687Q12.6679,0.359336,12.9028,0.430597Q13.1378,0.501857,13.3689,0.584559Q13.6,0.667261,13.8268,0.761205Q14.0536,0.855148,14.2755,0.960107Q14.4975,1.06507,14.714,1.18079Q14.9305,1.29651,15.141,1.42271Q15.3516,1.54892,15.5557,1.6853Q15.7598,1.82169,15.957,1.96792Q16.1542,2.11416,16.3439,2.2699Q16.5337,2.42563,16.7156,2.59049Q16.8975,2.75535,17.0711,2.92893Q17.2446,3.10252,17.4095,3.28441Q17.5744,3.4663,17.7301,3.65607Q17.8858,3.84583,18.0321,4.04301Q18.1783,4.24018,18.3147,4.4443Q18.4511,4.64841,18.5773,4.85897Q18.7035,5.06953,18.8192,5.28603Q18.9349,5.50253,19.0399,5.72445Q19.1448,5.94636,19.2388,6.17316Q19.3327,6.39996,19.4154,6.6311Q19.4981,6.86224,19.5694,7.09715Q19.6407,7.33207,19.7003,7.5702Q19.76,7.80833,19.8078,8.0491Q19.8557,8.28987,19.8918,8.53269Q19.9278,8.77552,19.9518,9.01983Q19.9759,9.26413,19.988,9.50932Q20,9.75451,20,10Z" fill="#52BC70"></path><path d="M12.147204741668702,8.150366796875C12.2853247416687,8.150366796875,12.423434741668702,8.163116796875,12.560834741668701,8.175176796875C12.191234741668701,6.459966796875,10.337134741668702,5.178466796875,8.225064741668701,5.178466796875C5.863264741668701,5.186753626875,3.928004741668701,6.783006796875,3.928004741668701,8.809936796875C3.928004741668701,9.978476796875,4.573109741668701,10.942246796875,5.644694741668701,11.688426796875L5.212164741668701,12.968466796875L6.716294741668701,12.223046796875C7.255164741668701,12.328456796874999,7.6877347416687005,12.433866796875,8.219754741668702,12.433866796875C8.3578647416687,12.433866796875,8.4892047416687,12.427836796874999,8.620464741668702,12.415756796875C8.535164741668702,12.124686796875,8.490974741668701,11.823106796874999,8.489184741668701,11.519796796875C8.495274741668702,9.661516796875,10.1056747416687,8.151116796875,12.1479847416687,8.151116796875L12.147204741668702,8.150366796875L12.147204741668702,8.150366796875ZM9.835524741668701,6.995326796875C10.161844741668702,6.995326796875,10.3743347416687,7.2061367968750005,10.3743347416687,7.529896796875001C10.3743347416687,7.846146796875,10.161844741668702,8.064506796875,9.835524741668701,8.064506796875C9.515974741668701,8.064506796875,9.1904047416687,7.8529367968749995,9.1904047416687,7.529876796875C9.1904047416687,7.2061367968750005,9.515974741668701,6.995326796875,9.835524741668701,6.995326796875ZM6.827854741668701,8.064506796875C6.509134741668701,8.064506796875,6.182814741668701,7.8529367968749995,6.182814741668701,7.529876796875C6.182814741668701,7.2061367968750005,6.509134741668701,6.995326796875,6.827854741668701,6.995326796875C7.147404741668701,6.995326796875,7.366724741668701,7.2061367968750005,7.366724741668701,7.529896796875001C7.366724741668701,7.846146796875,7.154234741668701,8.064506796875,6.827854741668701,8.064506796875ZM16.0709047416687,11.475356796875001C16.0709047416687,9.772196796875,14.3542047416687,8.380006796875,12.417344741668702,8.380006796875C10.3750847416687,8.380006796875,8.7646347416687,9.772196796875,8.7646347416687,11.475356796875001C8.7646347416687,13.184546796875,10.3750847416687,14.571456796875,12.417344741668702,14.571456796875C12.8438947416687,14.571456796875,13.2764547416687,14.466046796875,13.708304741668702,14.359886796875L14.886204741668701,14.999896796875L14.560604741668701,13.936706796875C15.425804741668701,13.284686796875,16.0709047416687,12.432326796875,16.0709047416687,11.475356796875001ZM11.233434741668702,10.940726796875001C11.020954741668701,10.940726796875001,10.8008647416687,10.729916796874999,10.8008647416687,10.511586796875001C10.8008647416687,10.300766796875,11.020954741668701,10.082426796875,11.233434741668702,10.082426796875C11.559764741668701,10.082426796875,11.772304741668702,10.293986796875,11.772304741668702,10.511586796875001C11.772304741668702,10.729926796874999,11.559764741668701,10.940736796875001,11.233434741668702,10.940726796875001ZM13.5959947416687,10.940726796875001C13.382754741668702,10.940726796875001,13.169454741668702,10.729916796874999,13.169454741668702,10.511586796875001C13.169454741668702,10.300766796875,13.3819847416687,10.082426796875,13.5959947416687,10.082426796875C13.921574741668701,10.082426796875,14.1348047416687,10.293986796875,14.1348047416687,10.511586796875001C14.1348047416687,10.729926796874999,13.921574741668701,10.940736796875001,13.5959947416687,10.940726796875001Z" fill="#FFFFFF"></path></symbol>
<symbol xmlns="http://www.w3.org/2000/svg" viewBox="0 0 20 20" id="safety-wechat"><defs><clipPath id="safety-wechat_a"><rect width="20" height="20" rx="0"></rect></clipPath></defs><g clip-path="url(#safety-wechat_a)"><path d="M13.3400875,7.12295C13.5549875,7.12295,13.7697875,7.14279,13.9834875,7.16154C13.4085875,4.49344,10.5244575,2.5,7.2390075,2.5C3.5650975,2.5128906,0.5546875,4.99596,0.5546875,8.14895C0.5546875,9.96668,1.5581875,11.46588,3.2250975,12.6266L2.5522675,14.6178L4.8920275,13.4582C5.7302775,13.6222,6.4031675,13.7862,7.2307375,13.7862C7.4455875,13.7862,7.6498875,13.7768,7.8540575,13.758C7.7213775,13.3052,7.6526375,12.8361,7.6498675,12.3643C7.6593375,9.47363,10.1643975,7.12412,13.3412875,7.12412L13.3400875,7.12295L13.3400875,7.12295ZM9.7441575,5.32623C10.2517775,5.32623,10.5822875,5.65416,10.5822875,6.15777C10.5822875,6.64973,10.2517775,6.98939,9.7441575,6.98939C9.2470875,6.98939,8.7406475,6.66029,8.7406475,6.15775C8.7406475,5.65416,9.2470875,5.32623,9.7441575,5.32623ZM5.0655675,6.98939C4.5697875,6.98939,4.0621675,6.66029,4.0621675,6.15775C4.0621675,5.65416,4.5697875,5.32623,5.0655675,5.32623C5.5626375,5.32623,5.9038075,5.65416,5.9038075,6.15777C5.9038075,6.64973,5.5732575,6.98939,5.0655675,6.98939ZM19.4435875,12.29516C19.4435875,9.645800000000001,16.7731875,7.48018,13.7602875,7.48018C10.5834875,7.48018,8.0783375,9.645800000000001,8.0783375,12.29516C8.0783375,14.9539,10.5834875,17.1113,13.7602875,17.1113C14.4238875,17.1113,15.0966875,16.9473,15.7684875,16.7822L17.6006875,17.7778L17.0942875,16.1239C18.4400875,15.1097,19.4435875,13.7838,19.4435875,12.29516ZM11.9186875,11.46352C11.5881875,11.46352,11.2457875,11.13559,11.2457875,10.79596C11.2457875,10.468029999999999,11.5881875,10.12838,11.9186875,10.12838C12.4262875,10.12838,12.7568875,10.45748,12.7568875,10.79596C12.7568875,11.13561,12.4262875,11.46354,11.9186875,11.46352ZM15.5937875,11.46352C15.2620875,11.46352,14.9302875,11.13559,14.9302875,10.79596C14.9302875,10.468029999999999,15.2608875,10.12838,15.5937875,10.12838C16.1001875,10.12838,16.431887500000002,10.45748,16.431887500000002,10.79596C16.431887500000002,11.13561,16.1001875,11.46354,15.5937875,11.46352Z"></path></g></symbol>
</svg>