<svg xmlns="http://www.w3.org/2000/svg" xmlns:xlink="http://www.w3.org/1999/xlink" style="position: absolute; width: 0; height: 0" aria-hidden="true" id="__SVG_SPRITE_NODE__">
<symbol xmlns="http://www.w3.org/2000/svg" viewBox="0 0 39 39" id="search-empty-bar"><path d="M535.619659,243.90565 L514.123612,265.401696 C510.374579,269.15073 504.296195,269.15073 500.547162,265.401696 C496.798129,261.652663 496.798129,255.574279 500.547162,251.825246 L522.043208,230.3292 L535.619659,243.90565 Z" transform="translate(-497 -230)" fill-rule="nonzero"></path></symbol>
<symbol xmlns="http://www.w3.org/2000/svg" viewBox="0 0 73 59" id="search-empty-block"><path d="M616.374576,140.768857 L597.692328,140.770585 L597.692328,159.970585 L631.535724,159.971077 C635.470577,168.541147 636.951892,177.961013 635.979671,187.170912 L564.092328,187.170912 L564.091462,133.739566 C581.165648,126.56062 601.294161,128.903717 616.374576,140.768857 Z" transform="translate(-564 -129)" fill-rule="nonzero"></path></symbol>
<symbol xmlns="http://www.w3.org/2000/svg" fill="none" viewBox="0 0 200 200" id="search-empty-new-dark"><g style="mix-blend-mode:passthrough"><rect width="200" height="200" rx="0" fill="none"></rect><path d="M158.9475,142L69,142L69,34.72767Q70.78536,33.89976,72.613,33.16992Q74.44064,32.44009,76.30518000000001,31.81048Q78.16973,31.18087,80.06569999999999,30.65333Q81.9616,30.125799999999998,83.8834,29.70189Q85.8052,29.27799,87.7471,28.958962Q89.6891,28.639936,91.6455,28.426729Q93.6019,28.213522,95.5669,28.106761Q97.532,28,99.5,28Q101.2798,28,103.0574,28.0873294Q104.83500000000001,28.174659,106.6062,28.349107Q108.3774,28.523556,110.138,28.784703Q111.8985,29.04585,113.644,29.39307Q115.3896,29.74028,117.1161,30.17273Q118.8425,30.60518,120.54560000000001,31.12183Q122.2488,31.638469999999998,123.9245,32.23805Q125.6002,32.83764,127.2445,33.51873Q128.8888,34.19982,130.4977,34.96077Q132.10660000000001,35.72173,133.6763,36.56071Q135.2459,37.39969,136.7724,38.3147Q138.299,39.2297,139.7788,40.2185Q141.2587,41.2072,142.6882,42.2675Q144.1177,43.3277,145.49349999999998,44.4567Q146.8693,45.5858,148.188,46.781Q149.5067,47.976299999999995,150.7652,49.2348Q152.02370000000002,50.4932,153.21890000000002,51.812Q154.4142,53.130700000000004,155.5433,54.5065Q156.6723,55.8823,157.73250000000002,57.311800000000005Q158.7928,58.741299999999995,159.7815,60.2212Q160.77030000000002,61.701,161.68529999999998,63.2276Q162.6003,64.7541,163.4393,66.3237Q164.2783,67.8934,165.0392,69.50229999999999Q165.80020000000002,71.1111,166.4813,72.75540000000001Q167.16230000000002,74.3997,167.7619,76.0755Q168.3615,77.7512,168.8782,79.45439999999999Q169.39499999999998,81.1575,169.827,82.8839Q170.26,84.6104,170.607,86.35589999999999Q170.954,88.1015,171.215,89.862Q171.476,91.6226,171.651,93.3938Q171.825,95.165,171.913,96.9426Q172,98.7202,172,100.5Q172,101.881,171.947,103.2609Q171.89499999999998,104.6408,171.79000000000002,106.0178Q171.685,107.3947,171.527,108.7666Q171.37,110.1386,171.16,111.5035Q170.951,112.8685,170.689,114.2245Q170.428,115.5804,170.115,116.9255Q169.80200000000002,118.2705,169.438,119.6027Q169.074,120.9348,168.6599,122.2521Q168.2456,123.5694,167.78140000000002,124.87Q167.3172,126.1706,166.8038,127.4526Q166.2905,128.735,165.7286,129.99599999999998Q165.1668,131.25799999999998,164.5574,132.497Q163.9479,133.736,163.2917,134.951Q162.63549999999998,136.166,161.93349999999998,137.35500000000002Q161.23149999999998,138.54399999999998,160.4847,139.70600000000002Q159.7379,140.868,158.9475,142Z" fill-rule="evenodd" fill="#DBDBDB"></path><path d="M170.3237,116L79,116L79,30.95865Q83.99239,29.48695,89.1438,28.743474Q94.2952,28.00000000000001,99.5,28Q101.2798,28,103.0574,28.0873294Q104.83500000000001,28.174659,106.6062,28.349107Q108.3774,28.523556,110.138,28.784703Q111.8985,29.04585,113.644,29.39307Q115.3896,29.74028,117.1161,30.17273Q118.8425,30.60518,120.54560000000001,31.12183Q122.2488,31.638469999999998,123.9245,32.23805Q125.6002,32.83764,127.2445,33.51873Q128.8888,34.19982,130.4977,34.96077Q132.10660000000001,35.72173,133.6763,36.56071Q135.2459,37.39969,136.7724,38.3147Q138.299,39.2297,139.7788,40.2185Q141.2587,41.2072,142.6882,42.2675Q144.1177,43.3277,145.49349999999998,44.4567Q146.8693,45.5858,148.188,46.781Q149.5067,47.976299999999995,150.7652,49.2348Q152.02370000000002,50.4932,153.219,51.812Q154.4142,53.130700000000004,155.5433,54.5065Q156.6723,55.8823,157.73250000000002,57.311800000000005Q158.7927,58.741299999999995,159.7815,60.2212Q160.77030000000002,61.701,161.68529999999998,63.2276Q162.6003,64.7541,163.4393,66.3237Q164.2783,67.8934,165.0392,69.50229999999999Q165.80020000000002,71.1111,166.4813,72.75540000000001Q167.16230000000002,74.3997,167.7619,76.0755Q168.3615,77.7512,168.8782,79.45439999999999Q169.3948,81.1575,169.82729999999998,82.8839Q170.2597,84.6104,170.6069,86.35589999999999Q170.95409999999998,88.1015,171.2153,89.862Q171.4764,91.6226,171.65089999999998,93.3938Q171.8253,95.165,171.9127,96.9426Q172,98.7202,172,100.5Q172,104.4089,171.5797,108.2952Q171.1594,112.1815,170.3237,116Z" fill-rule="evenodd" fill="#FFFFFF"></path><path d="M140.9246,41L99,41L99,49L150.5294,49Q146.0731,44.58445,140.9246,41ZM132,89L116,89L116,97L132,97L132,89ZM166.582,73L99,73L99,65L162.7139,65Q164.8936,68.8813,166.582,73Z" fill-rule="evenodd" fill="#DBDBDB"></path><path d="M167.48784709472656,102.86860234375L152.85124709472655,117.50520234375L130.93094709472655,139.42550234375L106.18214709472656,114.67680234375L87.82275619772656,96.31740234374999Q87.93353409472657,95.41890234375,88.08484109472656,94.52650234375Q88.23614809472656,93.63400234375,88.42767409472657,92.74920234375Q88.61920109472656,91.86450234375,88.85055709472657,90.98930234375Q89.08190709472656,90.11420234375001,89.35261709472657,89.25040234375Q89.62332709472656,88.38660234375,89.93283709472657,87.53590234375Q90.24233709472657,86.68520234375,90.59001709472656,85.84940234375Q90.93768709472656,85.01360234375,91.32281709472656,84.19440234375Q91.70793709472656,83.37520234375,92.12973709472656,82.57430234374999Q92.55152709472657,81.77330234375,93.00911709472656,80.99230234375Q93.46671709472656,80.21120234375,93.95917709472656,79.45170234375Q94.45162709472656,78.69210234375001,94.97794709472656,77.95560234375Q95.50425709472657,77.21910234375,96.06335709472657,76.50720234375Q96.62244709472657,75.79530234375,97.21317709472656,75.10940234375Q97.80390709472657,74.42340234375,98.42504709472657,73.76500234375Q99.04624709472657,73.10650234375,99.69654709472657,72.47680234375Q100.34684709472657,71.84710234375,101.02494709472656,71.24740234375Q101.70304709472656,70.64776234375,102.40764709472657,70.07941234375Q103.11214709472657,69.51105234375,103.84174709472657,68.97515234375Q104.57124709472656,68.43925234375,105.32434709472656,67.93690234375Q106.07734709472656,67.43455234375,106.85234709472655,66.96678234375Q107.62734709472656,66.49901234375,108.42274709472656,66.06678234375Q109.21814709472656,65.63455234375,110.03224709472656,65.23874234375Q110.84634709472657,64.84294234375,111.67754709472656,64.48436234375Q112.50864709472657,64.12579234375,113.35524709472656,63.80518234375Q114.20174709472656,63.48458234375,115.06194709472656,63.20260234375Q115.92214709472657,62.92062234375,116.79424709472656,62.67784234375Q117.66624709472656,62.43506234375,118.54844709472655,62.23198234375Q119.43054709472656,62.02890234375,120.32104709472657,61.86593734375Q121.21144709472657,61.70297234375,122.10834709472655,61.58045534375Q123.00524709472657,61.45793834375,123.90674709472657,61.37612134375Q124.80824709472657,61.29430364375,125.71254709472656,61.25335294375Q126.61684709472655,61.21240234375,127.52214709472656,61.21240234375Q128.50404709472656,61.21240234375,129.48484709472655,61.26058404375Q130.46554709472656,61.30876584375,131.44274709472657,61.40501334375Q132.42004709472656,61.50126034375,133.39134709472657,61.64534134375Q134.36264709472655,61.78942334375,135.32574709472658,61.98099134375Q136.28874709472655,62.17255934375,137.24134709472656,62.41115234375Q138.19384709472655,62.64974234375,139.13344709472656,62.93479234375Q140.07314709472655,63.21983234375,140.99764709472657,63.55064234375Q141.92224709472657,63.88144234375,142.82944709472656,64.25722234375Q143.73664709472655,64.63299234375,144.62424709472657,65.05283234375Q145.51194709472657,65.47266234375,146.37794709472655,65.93555234375Q147.24394709472656,66.39843234375,148.08624709472656,66.90325234375Q148.92844709472655,67.40807234375,149.74494709472657,67.95361234375Q150.56134709472656,68.49915234375,151.35004709472656,69.08410234375Q152.13874709472657,69.66904234375,152.89784709472656,70.29198234374999Q153.65684709472657,70.91492234374999,154.38444709472657,71.57440234375Q155.11204709472656,72.23380234375,155.80634709472656,72.92810234375Q156.50074709472656,73.62250234375,157.16014709472657,74.35000234375Q157.81954709472654,75.07760234375,158.44254709472656,75.83670234375Q159.06544709472655,76.59570234375,159.65044709472656,77.38440234375Q160.23534709472656,78.17310234375,160.78084709472657,78.98960234375Q161.32644709472657,79.80600234375,161.83124709472656,80.64830234375Q162.33604709472655,81.49050234375,162.79894709472654,82.35650234375001Q163.26184709472656,83.22250234375,163.68164709472654,84.11020234375Q164.10144709472655,84.99790234375,164.47724709472658,85.90510234375Q164.85304709472655,86.81230234375,165.18384709472656,87.73680234375Q165.51464709472657,88.66130234375,165.79974709472657,89.60100234375Q166.08474709472657,90.54070234375,166.32334709472656,91.49320234375Q166.56194709472658,92.44570234375,166.75354709472657,93.40880234375Q166.94504709472656,94.37190234375001,167.08914709472657,95.34320234375Q167.23324709472655,96.31450234375001,167.32944709472656,97.29170234375Q167.42574709472655,98.26890234375,167.47394709472655,99.24970234375Q167.52214709472656,100.23050234375,167.52214709472656,101.21240234375Q167.52214709472656,102.04090234374999,167.48784709472656,102.86860234375Z" fill-rule="evenodd" fill="#DBDBDB" transform="rotate(45 87.823 61.212)"></path><path d="M123.00400954589844,80.814107051375L107.18516540489844,96.632908984375L115.67044954589844,105.118208984375L136.34520954589843,84.443448984375Q134.77220954589845,83.704218984375,133.14090954589844,83.104218984375Q131.50970954589843,82.504218984375,129.83260954589844,82.047978984375Q128.15550954589844,81.591735984375,126.44510954589843,81.282684984375Q124.73470954589844,80.973634984375,123.00400954589844,80.814107051375Z" fill-rule="evenodd" fill="#FFFFFF" transform="rotate(45 107.185 80.814)"></path><path d="M60.77496082763672,147.23234248046873C76.47576082763672,161.45934248046876,100.74766082763672,160.99944248046876,115.89446082763672,145.85274248046875C131.5153608276367,130.23174248046877,131.5153608276367,104.90514248046875,115.89446082763672,89.28424248046875C100.27346082763671,73.66324248046875,74.94686082763673,73.66323248046875,59.32586082763672,89.28424248046875C44.17909082763672,104.43094248046876,43.719300827636715,128.70314248046876,57.946560827636716,144.40394248046874L51.54797082763672,150.80244248046876L54.376400827636715,153.63084248046874L60.77496082763672,147.23234248046873ZM118.81336082763671,131.07254248046874Q116.23756082763671,137.02434248046876,111.65176082763672,141.61014248046877Q107.06596082763673,146.19594248046874,101.11416082763671,148.77174248046873Q94.65176082763672,151.56844248046875,87.61016082763672,151.56844248046875Q80.56846082763673,151.56844248046875,74.10616082763671,148.77174248046873Q68.15426082763672,146.19594248046874,63.568560827636716,141.61014248046877Q58.98276082763672,137.02434248046876,56.40692082763672,131.07254248046874Q53.610150827636716,124.61014248046875,53.610150827636716,117.56844248046875Q53.610150827636716,110.52684248046876,56.40693082763672,104.06444248046876Q58.98276082763672,98.11264248046875,63.568560827636716,93.52684248046874Q68.15426082763672,88.94104248046875,74.10616082763671,86.36525248046875Q80.56856082763672,83.56848248046875,87.61016082763672,83.56848248046875Q94.65176082763672,83.56848248046875,101.11416082763671,86.36526248046874Q107.06596082763673,88.94104248046875,111.65176082763672,93.52684248046874Q116.23756082763671,98.11264248046875,118.81336082763671,104.06444248046876Q121.61016082763672,110.52684248046876,121.61016082763672,117.56844248046875Q121.61016082763672,124.61014248046875,118.81336082763671,131.07254248046874Z" fill-rule="evenodd" fill="#575757"></path></g></symbol>
<symbol xmlns="http://www.w3.org/2000/svg" viewBox="0 0 200 200" id="search-empty-new-dynamic"><g style="mix-blend-mode:passthrough"><g style="mix-blend-mode:passthrough"><rect width="200" height="200" rx="0" fill="none"></rect><path d="M48.71970560302734,147.97376237182618L57.205005603027345,156.45906237182618L43.76990560302734,169.89406237182618C41.426795603027344,172.23716237182617,37.62780560302734,172.23716237182617,35.28466560302734,169.89406237182618C32.941519603027345,167.55086237182616,32.94151860302734,163.75186237182618,35.28466560302734,161.40876237182619L48.71970560302734,147.97376237182618ZM121.44070560302734,120.99956237182617Q121.61010560302735,119.30146237182618,121.61010560302735,117.56836237182617Q121.61010560302735,110.52676237182618,118.81330560302735,104.06436237182618Q118.79950560302734,104.03236237182617,118.78520560302735,103.99956237182617L95.99970560302734,103.99956237182617L95.99970560302734,91.99959237182617L110.02340560302734,91.99959237182617Q106.03580560302734,88.49517237182617,101.11410560302734,86.36518237182617Q94.65170560302735,83.56839752192617,87.61010560302734,83.56839942932618Q81.05380560302734,83.56839765342617,74.99960560302733,85.99294237182617L74.99960560302733,120.99946237182617L121.44070560302734,120.99956237182617ZM115.90580560302735,89.29557237182617Q115.90010560302734,89.28982237182618,115.89430560302735,89.28408237182617L115.90580560302735,89.29557237182617Z" fill-rule="evenodd"></path></g></g></symbol>
<symbol xmlns="http://www.w3.org/2000/svg" fill="none" viewBox="0 0 200 200" id="search-empty-new"><g style="mix-blend-mode:passthrough"><rect width="200" height="200" rx="0" fill="none"></rect><path d="M158.9475,142L69,142L69,34.72767Q70.78536,33.89976,72.613,33.16992Q74.44064,32.44009,76.30518000000001,31.81048Q78.16973,31.18087,80.06569999999999,30.65333Q81.9616,30.125799999999998,83.8834,29.70189Q85.8052,29.27799,87.7471,28.958962Q89.6891,28.639936,91.6455,28.426729Q93.6019,28.213522,95.5669,28.106761Q97.532,28,99.5,28Q101.2798,28,103.0574,28.0873294Q104.83500000000001,28.174659,106.6062,28.349107Q108.3774,28.523556,110.138,28.784703Q111.8985,29.04585,113.644,29.39307Q115.3896,29.74028,117.1161,30.17273Q118.8425,30.60518,120.54560000000001,31.12183Q122.2488,31.638469999999998,123.9245,32.23805Q125.6002,32.83764,127.2445,33.51873Q128.8888,34.19982,130.4977,34.96077Q132.10660000000001,35.72173,133.6763,36.56071Q135.2459,37.39969,136.7724,38.3147Q138.299,39.2297,139.7788,40.2185Q141.2587,41.2072,142.6882,42.2675Q144.1177,43.3277,145.49349999999998,44.4567Q146.8693,45.5858,148.188,46.781Q149.5067,47.976299999999995,150.7652,49.2348Q152.02370000000002,50.4932,153.21890000000002,51.812Q154.4142,53.130700000000004,155.5433,54.5065Q156.6723,55.8823,157.73250000000002,57.311800000000005Q158.7928,58.741299999999995,159.7815,60.2212Q160.77030000000002,61.701,161.68529999999998,63.2276Q162.6003,64.7541,163.4393,66.3237Q164.2783,67.8934,165.0392,69.50229999999999Q165.80020000000002,71.1111,166.4813,72.75540000000001Q167.16230000000002,74.3997,167.7619,76.0755Q168.3615,77.7512,168.8782,79.45439999999999Q169.39499999999998,81.1575,169.827,82.8839Q170.26,84.6104,170.607,86.35589999999999Q170.954,88.1015,171.215,89.862Q171.476,91.6226,171.651,93.3938Q171.825,95.165,171.913,96.9426Q172,98.7202,172,100.5Q172,101.881,171.947,103.2609Q171.89499999999998,104.6408,171.79000000000002,106.0178Q171.685,107.3947,171.527,108.7666Q171.37,110.1386,171.16,111.5035Q170.951,112.8685,170.689,114.2245Q170.428,115.5804,170.115,116.9255Q169.80200000000002,118.2705,169.438,119.6027Q169.074,120.9348,168.6599,122.2521Q168.2456,123.5694,167.78140000000002,124.87Q167.3172,126.1706,166.8038,127.4526Q166.2905,128.735,165.7286,129.99599999999998Q165.1668,131.25799999999998,164.5574,132.497Q163.9479,133.736,163.2917,134.951Q162.63549999999998,136.166,161.93349999999998,137.35500000000002Q161.23149999999998,138.54399999999998,160.4847,139.70600000000002Q159.7379,140.868,158.9475,142Z" fill-rule="evenodd" fill="#DBDBDB"></path><path d="M170.3237,116L79,116L79,30.95865Q83.99239,29.48695,89.1438,28.743474Q94.2952,28.00000000000001,99.5,28Q101.2798,28,103.0574,28.0873294Q104.83500000000001,28.174659,106.6062,28.349107Q108.3774,28.523556,110.138,28.784703Q111.8985,29.04585,113.644,29.39307Q115.3896,29.74028,117.1161,30.17273Q118.8425,30.60518,120.54560000000001,31.12183Q122.2488,31.638469999999998,123.9245,32.23805Q125.6002,32.83764,127.2445,33.51873Q128.8888,34.19982,130.4977,34.96077Q132.10660000000001,35.72173,133.6763,36.56071Q135.2459,37.39969,136.7724,38.3147Q138.299,39.2297,139.7788,40.2185Q141.2587,41.2072,142.6882,42.2675Q144.1177,43.3277,145.49349999999998,44.4567Q146.8693,45.5858,148.188,46.781Q149.5067,47.976299999999995,150.7652,49.2348Q152.02370000000002,50.4932,153.219,51.812Q154.4142,53.130700000000004,155.5433,54.5065Q156.6723,55.8823,157.73250000000002,57.311800000000005Q158.7927,58.741299999999995,159.7815,60.2212Q160.77030000000002,61.701,161.68529999999998,63.2276Q162.6003,64.7541,163.4393,66.3237Q164.2783,67.8934,165.0392,69.50229999999999Q165.80020000000002,71.1111,166.4813,72.75540000000001Q167.16230000000002,74.3997,167.7619,76.0755Q168.3615,77.7512,168.8782,79.45439999999999Q169.3948,81.1575,169.82729999999998,82.8839Q170.2597,84.6104,170.6069,86.35589999999999Q170.95409999999998,88.1015,171.2153,89.862Q171.4764,91.6226,171.65089999999998,93.3938Q171.8253,95.165,171.9127,96.9426Q172,98.7202,172,100.5Q172,104.4089,171.5797,108.2952Q171.1594,112.1815,170.3237,116Z" fill-rule="evenodd" fill="#FFFFFF"></path><path d="M140.9246,41L99,41L99,49L150.5294,49Q146.0731,44.58445,140.9246,41ZM132,89L116,89L116,97L132,97L132,89ZM166.582,73L99,73L99,65L162.7139,65Q164.8936,68.8813,166.582,73Z" fill-rule="evenodd" fill="#DBDBDB"></path><path d="M167.48754709472655,102.86890234375L130.93094709472655,139.42550234375L106.18214709472656,114.67680234375L87.82253885672657,96.31720234375Q87.93332109472657,95.41870234375,88.08463209472656,94.52620234375Q88.23594309472657,93.63380234375,88.42747409472656,92.74900234374999Q88.61900409472656,91.86430234375,88.85035709472656,90.98910234375Q89.08171709472656,90.11400234375,89.35242709472656,89.25020234375Q89.62313709472656,88.38640234375,89.93264709472656,87.53570234375Q90.24215709472656,86.68510234375,90.58983709472656,85.84930234375Q90.93751709472656,85.01350234375,91.32264709472656,84.19430234375Q91.70776709472656,83.37510234375,92.12956709472657,82.57410234375Q92.55135709472657,81.77320234375,93.00895709472657,80.99210234374999Q93.46654709472656,80.21110234375,93.95900709472656,79.45150234375001Q94.45146709472657,78.69200234375,94.97778709472657,77.95550234375Q95.50410709472656,77.21900234374999,96.06319709472656,76.50710234375Q96.62228709472656,75.79520234375,97.21301709472657,75.10930234375Q97.80374709472656,74.42340234375,98.42494709472656,73.76490234375Q99.04604709472656,73.10640234375,99.69634709472656,72.47670234375Q100.34664709472656,71.84700234375,101.02474709472656,71.24730234375Q101.70294709472657,70.64769234375,102.40744709472656,70.07934234375Q103.11204709472656,69.51099234375,103.84154709472656,68.97509234375Q104.57114709472657,68.43919234375,105.32414709472656,67.93685234375Q106.07724709472656,67.43450234375,106.85224709472656,66.96674234375Q107.62724709472656,66.49897234375,108.42254709472657,66.06674234375Q109.21794709472655,65.63452234375,110.03204709472656,65.23871234375Q110.84614709472656,64.84291234375,111.67734709472657,64.48434234375Q112.50844709472656,64.12577234375,113.35504709472656,63.80516234375Q114.20154709472656,63.48456234375,115.06174709472657,63.20258234375Q115.92194709472656,62.92060234375,116.79404709472657,62.67783234375Q117.66604709472657,62.43505234375,118.54824709472656,62.23197234375Q119.43034709472656,62.02889634375,120.32074709472656,61.86593234375Q121.21124709472656,61.70296834375,122.10814709472656,61.58045234375Q123.00504709472656,61.45793634375,123.90654709472656,61.37612034375Q124.80804709472656,61.29430304375,125.71234709472657,61.25335264375Q126.61664709472656,61.21240234375,127.52184709472655,61.21240234375Q128.50384709472655,61.21240234375,129.48454709472657,61.26058404375Q130.46534709472655,61.30876584375,131.44254709472656,61.40501334375Q132.41974709472657,61.50126034375,133.39104709472656,61.64534134375Q134.36234709472657,61.78942334375,135.32544709472657,61.98099134375Q136.28854709472657,62.17255934375,137.24104709472655,62.41115234375Q138.19354709472657,62.64974234375,139.13324709472656,62.93479234375Q140.07294709472657,63.21983234375,140.99744709472657,63.55064234375Q141.92194709472656,63.88144234375,142.82914709472658,64.25722234375Q143.73634709472657,64.63299234375,144.62404709472656,65.05283234375Q145.51174709472656,65.47266234375,146.37774709472657,65.93555234375Q147.24374709472656,66.39843234375,148.08594709472658,66.90325234375Q148.92824709472657,67.40807234375,149.74464709472656,67.95361234375Q150.56114709472655,68.49915234375,151.34984709472656,69.08410234375Q152.13854709472656,69.66904234375,152.89754709472658,70.29198234374999Q153.65664709472657,70.91492234374999,154.38424709472656,71.57440234375Q155.11174709472658,72.23380234375,155.80614709472655,72.92810234375Q156.50044709472655,73.62250234375,157.15984709472656,74.35000234375Q157.81934709472657,75.07760234375,158.44224709472655,75.83670234375Q159.06524709472654,76.59570234375,159.65014709472655,77.38440234375Q160.23514709472656,78.17310234375,160.78064709472656,78.98960234375Q161.32614709472657,79.80600234375,161.83104709472656,80.64830234375Q162.33584709472655,81.49050234375,162.79874709472656,82.35650234375001Q163.26154709472655,83.22250234375,163.68144709472656,84.11020234375Q164.10124709472655,84.99790234375,164.47704709472657,85.90510234375Q164.85284709472654,86.81230234375,165.18364709472655,87.73680234375Q165.51444709472656,88.66130234375,165.79944709472656,89.60100234375Q166.08454709472656,90.54070234375,166.32314709472655,91.49320234375Q166.56174709472657,92.44570234375,166.75324709472656,93.40880234375Q166.94484709472658,94.37190234375001,167.08894709472656,95.34320234375Q167.23294709472657,96.31450234375001,167.32924709472655,97.29170234375Q167.42544709472656,98.26890234375,167.47364709472657,99.24970234375Q167.52184709472658,100.23050234375,167.52184709472658,101.21240234375Q167.52184709472658,102.04100234375,167.48754709472655,102.86890234375Z" fill-rule="evenodd" fill="#DBDBDB" transform="rotate(45 87.823 61.212)"></path><path d="M123.00420954589843,80.814127656275L107.18540954589844,96.632908984375L115.67068954589844,105.118208984375L136.34540954589843,84.443528984375Q134.77230954589845,83.704288984375,133.14110954589844,83.104288984375Q131.50990954589844,82.504278984375,129.83280954589844,82.048028984375Q128.15570954589845,81.591781984375,126.44530954589844,81.282722984375Q124.73490954589843,80.973664984375,123.00420954589843,80.814127656275Z" fill-rule="evenodd" fill="#FFFFFF" transform="rotate(45 107.185 80.814)"></path><path d="M60.77496082763672,147.23234248046873C76.47576082763672,161.45934248046876,100.74766082763672,160.99944248046876,115.89446082763672,145.85274248046875C131.5153608276367,130.23174248046877,131.5153608276367,104.90514248046875,115.89446082763672,89.28424248046875C100.27346082763671,73.66324248046875,74.94686082763673,73.66323248046875,59.32586082763672,89.28424248046875C44.17910082763672,104.43094248046876,43.71931082763672,128.70314248046876,57.946560827636716,144.40394248046874L51.54796082763672,150.80244248046876L54.37639082763672,153.63084248046874L60.77496082763672,147.23234248046873ZM118.81336082763671,131.07254248046874Q116.23756082763671,137.02434248046876,111.65176082763672,141.61014248046877Q107.06596082763673,146.19594248046874,101.11416082763671,148.77174248046873Q94.65176082763672,151.56844248046875,87.61016082763672,151.56844248046875Q80.56846082763673,151.56844248046875,74.10616082763671,148.77174248046873Q68.15436082763672,146.19594248046874,63.568560827636716,141.61014248046877Q58.98276082763672,137.02434248046876,56.40693082763672,131.07254248046874Q53.61016082763672,124.61014248046875,53.61016082763672,117.56844248046875Q53.61016082763672,110.52684248046876,56.40694082763672,104.06444248046876Q58.98276082763672,98.11264248046875,63.568560827636716,93.52684248046874Q68.15436082763672,88.94104248046875,74.10616082763671,86.36525248046875Q80.56856082763672,83.56848248046875,87.61016082763672,83.56848248046875Q94.65176082763672,83.56848248046875,101.11416082763671,86.36526248046874Q107.06596082763673,88.94104248046875,111.65176082763672,93.52684248046874Q116.23756082763671,98.11264248046875,118.81336082763671,104.06444248046876Q121.61016082763672,110.52684248046876,121.61016082763672,117.56844248046875Q121.61016082763672,124.61014248046875,118.81336082763671,131.07254248046874Z" fill-rule="evenodd" fill="#000000"></path></g></symbol>
<symbol xmlns="http://www.w3.org/2000/svg" viewBox="0 0 140 140" id="search-empty-pointer"><path d="M535.619659,243.90565 L514.123612,265.401696 C510.374579,269.15073 504.296195,269.15073 500.547162,265.401696 C496.798129,261.652663 496.798129,255.574279 500.547162,251.825246 L522.043208,230.3292 L535.619659,243.90565 Z M616.374576,140.768857 L597.692328,140.770585 L597.692328,159.970585 L631.535724,159.971077 C635.470577,168.541147 636.951892,177.961013 635.979671,187.170912 L564.092328,187.170912 L564.091462,133.739566 C581.165648,126.56062 601.294161,128.903717 616.374576,140.768857 Z" transform="translate(-497 -129)" fill-rule="nonzero"></path></symbol>
<symbol xmlns="http://www.w3.org/2000/svg" xmlns:xlink="http://www.w3.org/1999/xlink" viewBox="0 0 320 320" id="search-empty"><defs><circle id="search-empty_a" cx="116" cy="116" r="116"></circle><circle id="search-empty_c" cx="64" cy="64" r="64"></circle></defs><g fill-rule="evenodd"><path fill="none" d="M0 0H320V320H0z"></path><g transform="translate(43.2 44.8)"><mask id="search-empty_b" fill="#fff"><use xlink:href="#search-empty_a"></use></mask><use fill-opacity=".04" fill="#000000" xlink:href="#search-empty_a"></use><path fill="#DBDBDB" mask="url(#search-empty_b)" d="M67.2 -32L238.4 -32 238.4 182.4 116.453221 182.4 67.2 182.4 67.2 126.951724z"></path><path fill="#FFFFFF" mask="url(#search-empty_b)" d="M83.2 -35.2H243.2V140.8H83.2z"></path><path fill="#DBDBDB" mask="url(#search-empty_b)" d="M115.2 20.8L211.2 20.8 211.2 33.6 115.2 33.6zM115.2 59.2H246.39999999999998V72H115.2zM142.4 97.6H168V110.39999999999999H142.4z"></path></g><g transform="rotate(45 -47.725 218.008)"><g><mask id="search-empty_d" fill="#fff"><use xlink:href="#search-empty_c"></use></mask><path fill="#DBDBDB" mask="url(#search-empty_d)" transform="rotate(-45 54.181 -11.19)" d="M-31.4188458 -118.389062L139.781154 -118.389062 139.781154 96.0109381 18.1811542 96.0109381 -31.4188458 96.0109381 -31.4188458 40.0109381z"></path><path fill="#FFFFFF" mask="url(#search-empty_d)" transform="rotate(-45 38.625 -64.93)" d="M-46.975195 -172.129177L124.224805 -172.129177 124.224805 42.2708227 2.62480502 42.2708227 -46.975195 42.2708227 -46.975195 -13.7291773z"></path></g><circle stroke="#000000" stroke-width="12" cx="64" cy="64" r="58" fill="none"></circle><path d="M57.7665804,130.031076 L57.7665804,160.431076 C57.7665804,165.733009 53.468514,170.031076 48.1665804,170.031076 C42.8646468,170.031076 38.5665804,165.733009 38.5665804,160.431076 L38.5665804,130.031076 L57.7665804,130.031076 Z M41.940204,9.09272657e-14 L28.7310824,13.2115662 L42.3075326,26.7880164 L66.2387743,2.85746932 C75.0810902,6.135063 82.78939,11.7484659 88.6143078,18.9483124 L37.7820492,69.7801087 L6.00408612e-13,31.9992849 C6.99699161,14.8497314 22.8868196,2.27354314 41.940204,9.09272657e-14 Z" transform="translate(15.833 12.369)" fill-rule="nonzero"></path><path fill="#000000" d="M60.8 126.4H67.2V142.4H60.8z"></path></g></g></symbol>
<symbol xmlns="http://www.w3.org/2000/svg" viewBox="0 0 20 20" id="search-sidebar"><path d="M15.336333307504654,12.823633277702331Q15.794433307504654,11.964033277702331,16.030533307504655,11.01903327770233Q16.266633307504655,10.074043277702332,16.266633307504655,9.100003277702331Q16.266633307504655,8.905653277702331,16.257133307504652,8.711543277702331Q16.247633307504653,8.517433277702331,16.228533307504655,8.32403327770233Q16.209533307504653,8.13062327770233,16.180933307504652,7.938383277702331Q16.15243330750465,7.746143277702331,16.114533307504654,7.555533277702332Q16.076633307504654,7.3649232777023315,16.029433307504654,7.176403277702332Q15.982233307504654,6.987883277702331,15.925733307504654,6.801913277702331Q15.869333307504654,6.615933277702331,15.803933307504654,6.432953277702332Q15.738433307504653,6.249973277702331,15.664033307504655,6.070423277702331Q15.589633307504654,5.890873277702331,15.506533307504654,5.715183277702332Q15.423533307504654,5.539503277702331,15.331833307504654,5.3681132777023315Q15.240233307504655,5.196713277702331,15.140333307504655,5.030023277702332Q15.040433307504655,4.863323277702332,14.932433307504654,4.701733277702331Q14.824533307504653,4.540143277702331,14.708733307504653,4.3840432777023315Q14.592933307504653,4.227953277702332,14.469633307504655,4.077723277702331Q14.346333307504654,3.9274932777023315,14.215833307504655,3.7834932777023313Q14.085333307504653,3.6394932777023317,13.947933307504654,3.5020732777023316Q13.810533307504654,3.3646532777023315,13.666533307504654,3.2341332777023317Q13.522533307504654,3.1036232777023316,13.372233307504654,2.9803332777023313Q13.222033307504654,2.8570432777023314,13.065933307504654,2.741273277702332Q12.909833307504654,2.6255032777023315,12.748233307504654,2.5175332777023316Q12.586633307504654,2.4095632777023317,12.419933307504653,2.3096432777023317Q12.253333307504654,2.2097332777023313,12.081933307504654,2.1181232777023316Q11.910533307504654,2.0265102777023314,11.734833307504655,1.9434182777023317Q11.559133307504654,1.8603252777023316,11.379533307504653,1.7859532777023315Q11.200033307504654,1.7115812777023316,11.017033307504654,1.6461092777023316Q10.834033307504654,1.5806372777023316,10.648133307504654,1.5242222777023315Q10.462133307504654,1.4678072777023314,10.273593307504655,1.4205862777023315Q10.085073307504654,1.3733642777023316,9.894463307504655,1.3354492777023315Q9.703853307504653,1.2975352777023315,9.511613307504653,1.2690191777023316Q9.319373307504653,1.2405031777023316,9.125963307504653,1.2214541777023316Q8.932563307504655,1.2024051777023315,8.738453307504654,1.1928692477023315Q8.544343307504654,1.1833332777023315,8.350003307504654,1.1833332777023315Q8.155653307504654,1.1833332777023315,7.9615433075046536,1.1928692477023315Q7.767433307504654,1.2024051777023315,7.574033307504654,1.2214541777023316Q7.380623307504654,1.2405031777023316,7.188383307504654,1.2690191777023316Q6.996143307504654,1.2975352777023315,6.805533307504654,1.3354492777023315Q6.614923307504654,1.3733642777023316,6.426403307504654,1.4205862777023315Q6.237883307504654,1.4678072777023314,6.051913307504654,1.5242222777023315Q5.865933307504654,1.5806372777023316,5.682953307504654,1.6461092777023316Q5.4999733075046535,1.7115812777023316,5.320423307504654,1.7859532777023315Q5.140873307504654,1.8603252777023316,4.965183307504654,1.9434182777023317Q4.789503307504654,2.0265102777023314,4.618113307504654,2.1181232777023316Q4.446713307504654,2.2097332777023313,4.2800233075046545,2.3096432777023317Q4.113323307504654,2.4095632777023317,3.951733307504654,2.5175332777023316Q3.790143307504654,2.6255032777023315,3.634043307504654,2.741273277702332Q3.477953307504654,2.8570432777023314,3.327723307504654,2.9803332777023313Q3.177493307504654,3.1036232777023316,3.0334933075046537,3.2341332777023317Q2.889493307504654,3.3646532777023315,2.752073307504654,3.5020732777023316Q2.614653307504654,3.6394932777023317,2.484133307504654,3.7834932777023313Q2.353623307504654,3.9274932777023315,2.2303333075046536,4.077723277702331Q2.1070433075046537,4.227953277702332,1.991273307504654,4.3840432777023315Q1.8755033075046539,4.540143277702331,1.767533307504654,4.701733277702331Q1.6595633075046539,4.863323277702332,1.5596433075046539,5.030023277702332Q1.459733307504654,5.196713277702331,1.368123307504654,5.3681132777023315Q1.2765103075046538,5.539503277702331,1.193418307504654,5.715183277702332Q1.110325307504654,5.890873277702331,1.0359533075046539,6.070423277702331Q0.961581307504654,6.249973277702331,0.896109307504654,6.432953277702332Q0.8306373075046539,6.615933277702331,0.7742223075046539,6.801913277702331Q0.7178073075046539,6.987883277702331,0.6705863075046539,7.176403277702332Q0.623364307504654,7.3649232777023315,0.585449307504654,7.555533277702332Q0.547535307504654,7.746143277702331,0.5190192075046539,7.938383277702331Q0.4905032075046539,8.13062327770233,0.47145420750465394,8.32403327770233Q0.4524052075046539,8.517433277702331,0.44286927750465394,8.711543277702331Q0.43333330750465393,8.905653277702331,0.43333330750465393,9.100003277702331Q0.43333330750465393,9.294343277702332,0.44286927750465394,9.488453277702332Q0.4524052075046539,9.682563277702332,0.47145420750465394,9.875963277702331Q0.4905032075046539,10.069373277702331,0.5190192075046539,10.261613277702331Q0.547535307504654,10.453853277702331,0.585449307504654,10.644463277702332Q0.623364307504654,10.835073277702332,0.6705863075046539,11.023593277702332Q0.7178073075046539,11.212133277702332,0.7742223075046539,11.398133277702332Q0.8306373075046539,11.584033277702332,0.896109307504654,11.767033277702332Q0.961581307504654,11.950033277702332,1.0359533075046539,12.12953327770233Q1.110325307504654,12.309133277702331,1.193418307504654,12.484833277702332Q1.2765103075046538,12.660533277702331,1.368123307504654,12.831933277702332Q1.459733307504654,13.003333277702332,1.5596433075046539,13.16993327770233Q1.6595633075046539,13.336633277702331,1.767533307504654,13.498233277702331Q1.8755033075046539,13.659833277702331,1.991273307504654,13.815933277702332Q2.1070433075046537,13.972033277702332,2.2303333075046536,14.122233277702332Q2.353623307504654,14.272533277702331,2.484133307504654,14.416533277702332Q2.614653307504654,14.560533277702332,2.752073307504654,14.697933277702331Q2.889493307504654,14.83533327770233,3.0334933075046537,14.965833277702332Q3.177493307504654,15.096333277702332,3.327723307504654,15.219633277702332Q3.477953307504654,15.34293327770233,3.634043307504654,15.458733277702331Q3.790143307504654,15.574533277702331,3.951733307504654,15.682433277702332Q4.113323307504654,15.790433277702332,4.2800233075046545,15.890333277702332Q4.446713307504654,15.990233277702332,4.618113307504654,16.08183327770233Q4.789503307504654,16.173533277702333,4.965183307504654,16.25653327770233Q5.140873307504654,16.339633277702333,5.320423307504654,16.41403327770233Q5.4999733075046535,16.48843327770233,5.682953307504654,16.55393327770233Q5.865933307504654,16.61933327770233,6.051913307504654,16.67573327770233Q6.237883307504654,16.73223327770233,6.426403307504654,16.77943327770233Q6.614923307504654,16.82663327770233,6.805533307504654,16.864533277702332Q6.996143307504654,16.90243327770233,7.188383307504654,16.93093327770233Q7.380623307504654,16.95953327770233,7.574033307504654,16.978533277702333Q7.767433307504654,16.99763327770233,7.9615433075046536,17.00713327770233Q8.155653307504654,17.016633277702333,8.350003307504654,17.016633277702333Q9.001503307504654,17.016633277702333,9.644243307504654,16.910133277702332Q10.286983307504654,16.803633277702332,10.903633307504654,16.59353327770233Q11.520333307504654,16.38333327770233,12.094333307504654,16.07523327770233Q12.668433307504653,15.767033277702332,13.184333307504653,15.369233277702332L16.822533307504653,18.422033277702333Q16.885233307504652,18.47463327770233,16.952833307504655,18.52093327770233Q17.020433307504653,18.567133277702332,17.092233307504653,18.606533277702333Q17.163933307504653,18.64593327770233,17.239233307504655,18.678033277702333Q17.314533307504654,18.710233277702333,17.392633307504653,18.734833277702332Q17.470733307504656,18.759433277702332,17.550833307504654,18.77633327770233Q17.631033307504655,18.79313327770233,17.712433307504654,18.802033277702332Q17.793833307504652,18.810933277702333,17.875633307504653,18.81183327770233Q17.957533307504654,18.812733277702332,18.039133307504652,18.80563327770233Q18.120633307504654,18.798533277702333,18.201133307504655,18.783433277702333Q18.281633307504652,18.768333277702332,18.360233307504654,18.745333277702333Q18.438833307504655,18.722433277702333,18.514833307504652,18.691933277702333Q18.590833307504653,18.661433277702333,18.663433307504654,18.623633277702332Q18.736033307504655,18.58583327770233,18.804633307504655,18.541133277702333Q18.873233307504655,18.49633327770233,18.937033307504652,18.445133277702332Q19.000933307504653,18.39383327770233,19.059433307504655,18.336633277702333Q19.117933307504654,18.27933327770233,19.170533307504655,18.216633277702332Q19.223233307504653,18.153933277702333,19.269433307504652,18.08633327770233Q19.315633307504655,18.01873327770233,19.355033307504655,17.946933277702332Q19.394433307504652,17.875133277702332,19.426633307504655,17.79983327770233Q19.458733307504655,17.72453327770233,19.483333307504655,17.646433277702332Q19.508033307504654,17.568433277702333,19.524833307504654,17.48823327770233Q19.541733307504654,17.40813327770233,19.550633307504654,17.32673327770233Q19.559533307504655,17.245333277702333,19.560433307504653,17.16343327770233Q19.561333307504654,17.08163327770233,19.554133307504653,17.000033277702332Q19.547033307504655,16.91843327770233,19.531933307504655,16.83803327770233Q19.516833307504655,16.75753327770233,19.493933307504655,16.67893327770233Q19.471033307504655,16.600333277702333,19.440533307504655,16.524333277702333Q19.410033307504655,16.448333277702332,19.372233307504654,16.37573327770233Q19.334333307504654,16.30313327770233,19.289633307504655,16.234533277702333Q19.244933307504652,16.16593327770233,19.193633307504655,16.10213327770233Q19.142433307504653,16.038233277702332,19.085133307504655,15.979733277702332Q19.027833307504654,15.921233277702331,18.965133307504654,15.868533277702332L15.336333307504654,12.823633277702331ZM11.590933307504654,5.859093277702332Q12.933333307504654,7.201523277702331,12.933333307504654,9.100003277702331Q12.933333307504654,10.998473277702331,11.590933307504654,12.340933277702332Q10.248473307504653,13.683333277702332,8.350003307504654,13.683333277702332Q6.451523307504654,13.683333277702332,5.109093307504654,12.340933277702332Q3.766663307504654,10.998473277702331,3.766663307504654,9.100003277702331Q3.766663307504654,7.201523277702331,5.109093307504654,5.859093277702332Q6.451523307504654,4.516663277702332,8.350003307504654,4.516663277702332Q10.248473307504653,4.516663277702332,11.590933307504654,5.859093277702332Z" fill-rule="evenodd"></path></symbol>
<symbol xmlns="http://www.w3.org/2000/svg" viewBox="0 0 16 16" id="search-thin"><path d="M11.927164123535157,10.979559116744996C12.806564123535157,9.892049116744996,13.333364123535157,8.507529116744994,13.333364123535157,6.999989116744995C13.333364123535157,3.502189116744995,10.497804123535156,0.6666591167449951,6.999994123535156,0.6666591167449951C3.502194123535156,0.6666591167449951,0.6666641235351562,3.502189116744995,0.6666641235351562,6.999989116744995C0.6666641235351562,10.497799116744995,3.502194123535156,13.333359116744996,6.999994123535156,13.333359116744996C8.509934123535157,13.333359116744996,9.896454123535156,12.804959116744994,10.984764123535156,11.922959116744995L14.043564123535155,14.981759116744994Q14.137364123535157,15.075559116744994,14.259864123535156,15.126359116744995Q14.382364123535156,15.177059116744996,14.514964123535156,15.177059116744996Q14.647564123535156,15.177059116744996,14.770064123535157,15.126359116744995Q14.892564123535156,15.075559116744994,14.986364123535155,14.981759116744994L14.986464123535157,14.981659116744995Q15.032864123535155,14.935259116744994,15.069364123535156,14.880659116744996Q15.105864123535156,14.826059116744995,15.130964123535156,14.765359116744994Q15.156164123535156,14.704759116744995,15.168964123535156,14.640359116744994Q15.181764123535157,14.575959116744995,15.181764123535157,14.510259116744995Q15.181764123535157,14.444659116744996,15.168964123535156,14.380259116744995Q15.156164123535156,14.315859116744996,15.130964123535156,14.255159116744995Q15.105864123535156,14.194459116744994,15.069364123535156,14.139859116744995Q15.032864123535155,14.085259116744995,14.986464123535157,14.038859116744995L11.927164123535157,10.979559116744996ZM10.535534123535156,3.464459116744995Q11.999964123535156,4.928929116744995,11.999964123535156,6.999989116744995Q11.999964123535156,9.071059116744996,10.535534123535156,10.535529116744994Q9.071064123535157,11.999959116744995,6.999994123535156,11.999959116744995Q4.928934123535156,11.999959116744995,3.4644641235351563,10.535529116744994Q1.9999941235351562,9.071059116744996,1.9999941235351562,6.999989116744995Q1.9999941235351562,4.928929116744995,3.4644641235351563,3.464459116744995Q4.928934123535156,1.999989116744995,6.999994123535156,1.999989116744995Q9.071064123535157,1.999989116744995,10.535534123535156,3.464459116744995Z" fill-rule="evenodd"></path></symbol>
<symbol xmlns="http://www.w3.org/2000/svg" viewBox="0 0 24 24" id="search"><path d="M16.5,16.3l2.4,2.4c0.3,0.3,0.3,0.8,0,1.1l-0.1,0.1c-0.3,0.3-0.8,0.3-1.1,0l-2.5-2.5 c-1.1,0.7-2.3,1-3.7,1c-3.9,0-7-3.1-7-7s3.1-7,7-7s7,3.1,7,7C18.5,13.3,17.7,15.1,16.5,16.3z M11.5,16.4c2.8,0,5-2.2,5-5s-2.2-5-5-5 s-5,2.2-5,5S8.7,16.4,11.5,16.4z"></path></symbol>
</svg>