<svg xmlns="http://www.w3.org/2000/svg" xmlns:xlink="http://www.w3.org/1999/xlink" style="position: absolute; width: 0; height: 0" aria-hidden="true" id="__SVG_SPRITE_NODE__">
<symbol xmlns="http://www.w3.org/2000/svg" viewBox="0 0 24 24" id="subscribe"><path fill="none" d="M0 0H24V24H0z"></path><path d="M19.5,5H18V3h-1v2H7V3H6v2H4.5C3.7,5,3,5.7,3,6.5v13C3,20.3,3.7,21,4.5,21h15c0.8,0,1.5-0.7,1.5-1.5v-13 C21,5.7,20.3,5,19.5,5z M20,19.5c0,0.3-0.2,0.5-0.5,0.5h-15C4.2,20,4,19.8,4,19.5v-13C4,6.2,4.2,6,4.5,6h15C19.8,6,20,6.2,20,6.5 V19.5z"></path><path d="M7 9H17V10H7zM7 12H17V13H7zM7 15H14V16H7z"></path></symbol>
</svg>