<svg xmlns="http://www.w3.org/2000/svg" xmlns:xlink="http://www.w3.org/1999/xlink" style="position: absolute; width: 0; height: 0" aria-hidden="true" id="__SVG_SPRITE_NODE__">
<symbol xmlns="http://www.w3.org/2000/svg" viewBox="0 0 24 24" id="subtask-add"><g fill-rule="evenodd"><path fill="none" d="M0 0H24V24H0z"></path><path d="M8,8 L8,3 C8,2.44771525 8.44771525,2 9,2 C9.55228475,2 10,2.44771525 10,3 L10,8 L15,8 C15.5522847,8 16,8.44771525 16,9 C16,9.55228475 15.5522847,10 15,10 L10,10 L10,15 C10,15.5522847 9.55228475,16 9,16 C8.44771525,16 8,15.5522847 8,15 L8,10 L3,10 C2.44771525,10 2,9.55228475 2,9 C2,8.44771525 2.44771525,8 3,8 L8,8 Z" transform="translate(3 3)"></path></g></symbol>
<symbol xmlns="http://www.w3.org/2000/svg" viewBox="0 0 16 16" id="subtask-bold"><path d="M1.6666688919067383,1.9887233730697633L1.6666709912167383,11.084553373069763C1.6666713598767382,12.500633373069762,2.803918891906738,13.666633373069763,4.220038891906738,13.666633373069763L9.327838891906739,13.666633373069763C9.696028891906739,13.666633373069763,9.999998891906738,13.368233373069764,9.999998891906738,13.000033373069764C9.999998891906738,12.631833373069764,9.701528891906738,12.333333373069763,9.333338891906738,12.333333373069763L4.272728891906738,12.333333373069763C3.5698188919067384,12.333333373069763,2.9999988919067384,11.763533373069762,2.9999988919067384,11.060603373069764L2.9999988919067384,6.333333373069763L9.333338891906738,6.333333373069763C9.701528891906738,6.333333373069763,9.999998891906738,6.0348533730697635,9.999998891906738,5.666663373069763C9.999998891906738,5.298473373069763,9.701528891906738,5.000003373069763,9.333338891906738,5.000003373069763L2.9999988919067384,5.000003373069763L2.9999988919067384,2.000000373069763C2.9999988919067384,1.6318103730697633,2.7015288919067384,1.3333333730697632,2.333335891906738,1.3333333730697632C1.9651458919067384,1.3333333730697632,1.6666688919067383,1.620533373069763,1.6666688919067383,1.9887233730697633ZM14.333368891906739,5.666663373069763Q14.333368891906739,5.732173373069763,14.326868891906738,5.797353373069763Q14.320468891906739,5.862543373069763,14.307668891906738,5.926783373069763Q14.294968891906738,5.991033373069763,14.275968891906738,6.053713373069763Q14.256868891906738,6.116393373069763,14.231868891906739,6.176913373069763Q14.206768891906739,6.237423373069763,14.175868891906738,6.295193373069763Q14.145068891906739,6.352963373069763,14.108668891906738,6.407423373069763Q14.072268891906738,6.461893373069763,14.030668891906739,6.512523373069763Q13.989168891906738,6.563163373069763,13.942768891906738,6.609473373069763Q13.896468891906737,6.655793373069764,13.845868891906738,6.697343373069764Q13.795268891906739,6.738903373069763,13.740768891906738,6.775293373069763Q13.686268891906739,6.811683373069763,13.628568891906738,6.842563373069763Q13.570768891906738,6.8734433730697635,13.510268891906739,6.898503373069763Q13.449768891906738,6.923573373069763,13.387068891906738,6.9425833730697635Q13.324368891906738,6.961603373069763,13.260168891906739,6.974383373069763Q13.195868891906738,6.987163373069763,13.130668891906739,6.993583373069763Q13.065468891906738,7.000003373069763,12.999968891906738,7.000003373069763Q12.934468891906738,7.000003373069763,12.869268891906739,6.993583373069763Q12.804168891906738,6.987163373069763,12.739868891906738,6.974383373069763Q12.675668891906739,6.961603373069763,12.612968891906739,6.9425833730697635Q12.550268891906738,6.923573373069763,12.489768891906738,6.898503373069763Q12.42926889190674,6.8734433730697635,12.371468891906739,6.842563373069763Q12.313668891906739,6.811683373069763,12.259268891906737,6.775293373069763Q12.204768891906738,6.738903373069763,12.154168891906739,6.697343373069764Q12.103468891906738,6.655793373069764,12.057168891906738,6.609473373069763Q12.010868891906739,6.563163373069763,11.969368891906738,6.512523373069763Q11.927768891906739,6.461893373069763,11.891368891906739,6.407423373069763Q11.854968891906738,6.352963373069763,11.82406889190674,6.295193373069763Q11.793268891906738,6.237423373069763,11.768168891906738,6.176913373069763Q11.743068891906738,6.116393373069763,11.724068891906738,6.053713373069763Q11.705068891906738,5.991033373069763,11.692268891906739,5.926783373069763Q11.679468891906739,5.862543373069763,11.673068891906738,5.797353373069763Q11.666668891906738,5.732173373069763,11.666668891906738,5.666663373069763Q11.666668891906738,5.601163373069763,11.673068891906738,5.535973373069763Q11.679468891906739,5.470793373069763,11.692268891906739,5.406543373069764Q11.705068891906738,5.342303373069763,11.724068891906738,5.279623373069763Q11.743068891906738,5.216933373069763,11.768168891906738,5.156423373069764Q11.793268891906738,5.095903373069763,11.82406889190674,5.038133373069764Q11.854968891906738,4.980373373069764,11.891368891906739,4.9259033730697634Q11.927768891906739,4.871443373069763,11.969368891906738,4.820813373069763Q12.010868891906739,4.770173373069763,12.057168891906738,4.723853373069764Q12.103468891906738,4.6775433730697635,12.154168891906739,4.635983373069763Q12.204768891906738,4.594433373069763,12.259268891906737,4.558043373069763Q12.313668891906739,4.521653373069763,12.371468891906739,4.4907733730697625Q12.42926889190674,4.459893373069763,12.489768891906738,4.434823373069763Q12.550268891906738,4.409763373069763,12.612968891906739,4.390743373069763Q12.675668891906739,4.371733373069763,12.739868891906738,4.358953373069763Q12.804168891906738,4.346173373069764,12.869268891906739,4.3397533730697635Q12.934468891906738,4.333333373069763,12.999968891906738,4.333333373069763Q13.065468891906738,4.333333373069763,13.130668891906739,4.3397533730697635Q13.195868891906738,4.346173373069764,13.260168891906739,4.358953373069763Q13.324368891906738,4.371733373069763,13.387068891906738,4.390743373069763Q13.449768891906738,4.409763373069763,13.510268891906739,4.434823373069763Q13.570768891906738,4.459893373069763,13.628568891906738,4.4907733730697625Q13.686268891906739,4.521653373069763,13.740768891906738,4.558043373069763Q13.795268891906739,4.594433373069763,13.845868891906738,4.635983373069763Q13.896468891906737,4.6775433730697635,13.942768891906738,4.723853373069764Q13.989168891906738,4.770173373069763,14.030668891906739,4.820813373069763Q14.072268891906738,4.871443373069763,14.108668891906738,4.9259033730697634Q14.145068891906739,4.980373373069764,14.175868891906738,5.038133373069764Q14.206768891906739,5.095903373069763,14.231868891906739,5.156423373069764Q14.256868891906738,5.216933373069763,14.275968891906738,5.279623373069763Q14.294968891906738,5.342303373069763,14.307668891906738,5.406543373069764Q14.320468891906739,5.470793373069763,14.326868891906738,5.535973373069763Q14.333368891906739,5.601163373069763,14.333368891906739,5.666663373069763ZM14.333368891906739,13.000133373069763Q14.333368891906739,13.065633373069764,14.326868891906738,13.130833373069763Q14.320468891906739,13.196033373069763,14.307668891906738,13.260233373069763Q14.294968891906738,13.324533373069762,14.275968891906738,13.387233373069764Q14.256868891906738,13.449933373069763,14.231868891906739,13.510433373069763Q14.206768891906739,13.570933373069764,14.175868891906738,13.628733373069764Q14.145068891906739,13.686433373069763,14.108668891906738,13.740933373069764Q14.072268891906738,13.795433373069763,14.030668891906739,13.846033373069764Q13.989168891906738,13.896633373069763,13.942768891906738,13.942933373069764Q13.896468891906737,13.989333373069764,13.845868891906738,14.030833373069763Q13.795268891906739,14.072433373069764,13.740768891906738,14.108833373069762Q13.686268891906739,14.145133373069763,13.628568891906738,14.176033373069764Q13.570768891906738,14.206933373069763,13.510268891906739,14.232033373069763Q13.449768891906738,14.257033373069763,13.387068891906738,14.276033373069763Q13.324368891906738,14.295133373069763,13.260168891906739,14.307833373069764Q13.195868891906738,14.320633373069763,13.130668891906739,14.327033373069764Q13.065468891906738,14.333533373069763,12.999968891906738,14.333533373069763Q12.934468891906738,14.333533373069763,12.869268891906739,14.327033373069764Q12.804168891906738,14.320633373069763,12.739868891906738,14.307833373069764Q12.675668891906739,14.295133373069763,12.612968891906739,14.276033373069763Q12.550268891906738,14.257033373069763,12.489768891906738,14.232033373069763Q12.42926889190674,14.206933373069763,12.371468891906739,14.176033373069764Q12.313668891906739,14.145133373069763,12.259268891906737,14.108833373069762Q12.204768891906738,14.072433373069764,12.154168891906739,14.030833373069763Q12.103468891906738,13.989333373069764,12.057168891906738,13.942933373069764Q12.010868891906739,13.896633373069763,11.969368891906738,13.846033373069764Q11.927768891906739,13.795433373069763,11.891368891906739,13.740933373069764Q11.854968891906738,13.686433373069763,11.82406889190674,13.628733373069764Q11.793268891906738,13.570933373069764,11.768168891906738,13.510433373069763Q11.743068891906738,13.449933373069763,11.724068891906738,13.387233373069764Q11.705068891906738,13.324533373069762,11.692268891906739,13.260233373069763Q11.679468891906739,13.196033373069763,11.673068891906738,13.130833373069763Q11.666668891906738,13.065633373069764,11.666668891906738,13.000133373069763Q11.666668891906738,12.934633373069763,11.673068891906738,12.869433373069763Q11.679468891906739,12.804333373069763,11.692268891906739,12.740033373069764Q11.705068891906738,12.675833373069763,11.724068891906738,12.613133373069763Q11.743068891906738,12.550433373069763,11.768168891906738,12.489933373069762Q11.793268891906738,12.429433373069763,11.82406889190674,12.371633373069763Q11.854968891906738,12.313833373069762,11.891368891906739,12.259433373069763Q11.927768891906739,12.204933373069764,11.969368891906738,12.154333373069763Q12.010868891906739,12.103633373069764,12.057168891906738,12.057333373069763Q12.103468891906738,12.011033373069763,12.154168891906739,11.969433373069764Q12.204768891906738,11.927933373069763,12.259268891906737,11.891533373069763Q12.313668891906739,11.855133373069764,12.371468891906739,11.824233373069763Q12.42926889190674,11.793433373069764,12.489768891906738,11.768333373069764Q12.550268891906738,11.743233373069764,12.612968891906739,11.724233373069763Q12.675668891906739,11.705233373069763,12.739868891906738,11.692433373069763Q12.804168891906738,11.679633373069763,12.869268891906739,11.673233373069763Q12.934468891906738,11.666833373069764,12.999968891906738,11.666833373069764Q13.065468891906738,11.666833373069764,13.130668891906739,11.673233373069763Q13.195868891906738,11.679633373069763,13.260168891906739,11.692433373069763Q13.324368891906738,11.705233373069763,13.387068891906738,11.724233373069763Q13.449768891906738,11.743233373069764,13.510268891906739,11.768333373069764Q13.570768891906738,11.793433373069764,13.628568891906738,11.824233373069763Q13.686268891906739,11.855133373069764,13.740768891906738,11.891533373069763Q13.795268891906739,11.927933373069763,13.845868891906738,11.969433373069764Q13.896468891906737,12.011033373069763,13.942768891906738,12.057333373069763Q13.989168891906738,12.103633373069764,14.030668891906739,12.154333373069763Q14.072268891906738,12.204933373069764,14.108668891906738,12.259433373069763Q14.145068891906739,12.313833373069762,14.175868891906738,12.371633373069763Q14.206768891906739,12.429433373069763,14.231868891906739,12.489933373069762Q14.256868891906738,12.550433373069763,14.275968891906738,12.613133373069763Q14.294968891906738,12.675833373069763,14.307668891906738,12.740033373069764Q14.320468891906739,12.804333373069763,14.326868891906738,12.869433373069763Q14.333368891906739,12.934633373069763,14.333368891906739,13.000133373069763Z" fill-rule="evenodd"></path></symbol>
<symbol xmlns="http://www.w3.org/2000/svg" viewBox="0 0 24 24" id="subtask-mode"><path d="M3,4C2.447715,4,2,4.447715,2,5C2,5.55228,2.447715,6,3,6L21,6C21.5523,6,22,5.55228,22,5C22,4.447715,21.5523,4,21,4L3,4ZM4,10C2.89543,10,2,10.895430000000001,2,12C2,13.10457,2.89543,14,4,14C5.10457,14,6,13.10457,6,12C6,10.895430000000001,5.10457,10,4,10ZM21,13L7.32843,13C7.44198,12.67883,7.5,12.34066,7.5,12C7.5,11.65934,7.44198,11.32117,7.32843,11L21,11C21.5523,11,22,11.44772,22,12C22,12.55229,21.5523,13,21,13ZM4,17C2.89543,17,2,17.895400000000002,2,19C2,20.1046,2.89543,21,4,21C5.10457,21,6,20.1046,6,19C6,17.895400000000002,5.10457,17,4,17ZM15,20L7.32843,20C7.44198,19.678800000000003,7.5,19.3407,7.5,19C7.5,18.6593,7.44198,18.321199999999997,7.32843,18L15,18C15.5523,18,16,18.447699999999998,16,19C16,19.552300000000002,15.5523,20,15,20Z" fill-rule="evenodd"></path></symbol>
<symbol xmlns="http://www.w3.org/2000/svg" viewBox="0 0 24 24" id="subtask"><path d="M1,4.5L1,19.5C1,21.433,2.567,23,4.5,23L19.5,23C21.433,23,23,21.433,23,19.5L23,4.5C23,2.567,21.433,1,19.5,1L4.5,1C2.567,1,1,2.567,1,4.5ZM3.43934,20.5607Q3,20.1213,3,19.5L3,4.5Q3,3.87868,3.43934,3.43934Q3.87868,3,4.5,3L19.5,3Q20.1213,3,20.5607,3.43934Q21,3.87868,21,4.5L21,19.5Q21,20.1213,20.5607,20.5607Q20.1213,21,19.5,21L4.5,21Q3.87868,21,3.43934,20.5607ZM7,6Q6.90151,6,6.80491,6.01921Q6.70831,6.03843,6.61732,6.07612Q6.52632,6.11381,6.44443,6.16853Q6.36254,6.22325,6.29289,6.29289Q6.22325,6.36254,6.16853,6.44443Q6.11381,6.52632,6.07612,6.61732Q6.03843,6.70831,6.01921,6.80491Q6,6.90151,6,7Q6,7.09849,6.01921,7.19509Q6.03843,7.29169,6.07612,7.38268Q6.11381,7.47368,6.16853,7.55557Q6.22325,7.63746,6.29289,7.70711Q6.36254,7.77675,6.44443,7.83147Q6.52632,7.88619,6.61732,7.92388Q6.70831,7.96157,6.80491,7.98078Q6.90151,8,7,8L17,8Q17.0985,8,17.1951,7.98078Q17.2917,7.96157,17.3827,7.92388Q17.4737,7.88619,17.5556,7.83147Q17.6375,7.77675,17.7071,7.70711Q17.7767,7.63746,17.8315,7.55557Q17.8862,7.47368,17.9239,7.38268Q17.9616,7.29169,17.9808,7.19509Q18,7.09849,18,7Q18,6.90151,17.9808,6.80491Q17.9616,6.70831,17.9239,6.61732Q17.8862,6.52632,17.8315,6.44443Q17.7767,6.36254,17.7071,6.29289Q17.6375,6.22325,17.5556,6.16853Q17.4737,6.11381,17.3827,6.07612Q17.2917,6.03843,17.1951,6.01921Q17.0985,6,17,6L7,6ZM7,11Q6.90151,11,6.80491,11.0192Q6.70831,11.0384,6.61732,11.0761Q6.52632,11.1138,6.44443,11.1685Q6.36254,11.2232,6.29289,11.2929Q6.22325,11.3625,6.16853,11.4444Q6.11381,11.5263,6.07612,11.6173Q6.03843,11.7083,6.01921,11.8049Q6,11.9015,6,12Q6,12.0985,6.01921,12.1951Q6.03843,12.2917,6.07612,12.3827Q6.11381,12.4737,6.16853,12.5556Q6.22325,12.6375,6.29289,12.7071Q6.36254,12.7767,6.44443,12.8315Q6.52632,12.8862,6.61732,12.9239Q6.70831,12.9616,6.80491,12.9808Q6.90151,13,7,13Q7.09849,13,7.19509,12.9808Q7.29169,12.9616,7.38268,12.9239Q7.47368,12.8862,7.55557,12.8315Q7.63746,12.7767,7.70711,12.7071Q7.77675,12.6375,7.83147,12.5556Q7.88619,12.4737,7.92388,12.3827Q7.96157,12.2917,7.98078,12.1951Q8,12.0985,8,12Q8,11.9015,7.98078,11.8049Q7.96157,11.7083,7.92388,11.6173Q7.88619,11.5263,7.83147,11.4444Q7.77675,11.3625,7.70711,11.2929Q7.63746,11.2232,7.55557,11.1685Q7.47368,11.1138,7.38268,11.0761Q7.29169,11.0384,7.19509,11.0192Q7.09849,11,7,11ZM10,11Q9.90151,11,9.80491,11.0192Q9.70831,11.0384,9.61732,11.0761Q9.52632,11.1138,9.44443,11.1685Q9.36254,11.2232,9.29289,11.2929Q9.22325,11.3625,9.16853,11.4444Q9.11381,11.5263,9.07612,11.6173Q9.03843,11.7083,9.01921,11.8049Q9,11.9015,9,12Q9,12.0985,9.01921,12.1951Q9.03843,12.2917,9.07612,12.3827Q9.11381,12.4737,9.16853,12.5556Q9.22325,12.6375,9.29289,12.7071Q9.36254,12.7767,9.44443,12.8315Q9.52632,12.8862,9.61732,12.9239Q9.70831,12.9616,9.80491,12.9808Q9.90151,13,10,13L17,13Q17.0985,13,17.1951,12.9808Q17.2917,12.9616,17.3827,12.9239Q17.4737,12.8862,17.5556,12.8315Q17.6375,12.7767,17.7071,12.7071Q17.7767,12.6375,17.8315,12.5556Q17.8862,12.4737,17.9239,12.3827Q17.9616,12.2917,17.9808,12.1951Q18,12.0985,18,12Q18,11.9015,17.9808,11.8049Q17.9616,11.7083,17.9239,11.6173Q17.8862,11.5263,17.8315,11.4444Q17.7767,11.3625,17.7071,11.2929Q17.6375,11.2232,17.5556,11.1685Q17.4737,11.1138,17.3827,11.0761Q17.2917,11.0384,17.1951,11.0192Q17.0985,11,17,11L10,11ZM7,16Q6.90151,16,6.80491,16.019199999999998Q6.70831,16.0384,6.61732,16.0761Q6.52632,16.113799999999998,6.44443,16.1685Q6.36254,16.2232,6.29289,16.2929Q6.22325,16.3625,6.16853,16.4444Q6.11381,16.5263,6.07612,16.6173Q6.03843,16.7083,6.01921,16.8049Q6,16.9015,6,17Q6,17.0985,6.01921,17.1951Q6.03843,17.2917,6.07612,17.3827Q6.11381,17.4737,6.16853,17.5556Q6.22325,17.6375,6.29289,17.7071Q6.36254,17.7767,6.44443,17.8315Q6.52632,17.8862,6.61732,17.9239Q6.70831,17.9616,6.80491,17.9808Q6.90151,18,7,18Q7.09849,18,7.19509,17.9808Q7.29169,17.9616,7.38268,17.9239Q7.47368,17.8862,7.55557,17.8315Q7.63746,17.7767,7.70711,17.7071Q7.77675,17.6375,7.83147,17.5556Q7.88619,17.4737,7.92388,17.3827Q7.96157,17.2917,7.98078,17.1951Q8,17.0985,8,17Q8,16.9015,7.98078,16.8049Q7.96157,16.7083,7.92388,16.6173Q7.88619,16.5263,7.83147,16.4444Q7.77675,16.3625,7.70711,16.2929Q7.63746,16.2232,7.55557,16.1685Q7.47368,16.113799999999998,7.38268,16.0761Q7.29169,16.0384,7.19509,16.019199999999998Q7.09849,16,7,16ZM10,16Q9.90151,16,9.80491,16.019199999999998Q9.70831,16.0384,9.61732,16.0761Q9.52632,16.113799999999998,9.44443,16.1685Q9.36254,16.2232,9.29289,16.2929Q9.22325,16.3625,9.16853,16.4444Q9.11381,16.5263,9.07612,16.6173Q9.03843,16.7083,9.01921,16.8049Q9,16.9015,9,17Q9,17.0985,9.01921,17.1951Q9.03843,17.2917,9.07612,17.3827Q9.11381,17.4737,9.16853,17.5556Q9.22325,17.6375,9.29289,17.7071Q9.36254,17.7767,9.44443,17.8315Q9.52632,17.8862,9.61732,17.9239Q9.70831,17.9616,9.80491,17.9808Q9.90151,18,10,18L17,18Q17.0985,18,17.1951,17.9808Q17.2917,17.9616,17.3827,17.9239Q17.4737,17.8862,17.5556,17.8315Q17.6375,17.7767,17.7071,17.7071Q17.7767,17.6375,17.8315,17.5556Q17.8862,17.4737,17.9239,17.3827Q17.9616,17.2917,17.9808,17.1951Q18,17.0985,18,17Q18,16.9015,17.9808,16.8049Q17.9616,16.7083,17.9239,16.6173Q17.8862,16.5263,17.8315,16.4444Q17.7767,16.3625,17.7071,16.2929Q17.6375,16.2232,17.5556,16.1685Q17.4737,16.113799999999998,17.3827,16.0761Q17.2917,16.0384,17.1951,16.019199999999998Q17.0985,16,17,16L10,16Z" fill-rule="evenodd"></path></symbol>
</svg>