<svg xmlns="http://www.w3.org/2000/svg" xmlns:xlink="http://www.w3.org/1999/xlink" style="position: absolute; width: 0; height: 0" aria-hidden="true" id="__SVG_SPRITE_NODE__">
<symbol xmlns="http://www.w3.org/2000/svg" viewBox="152 -152 1024 1024" id="twitter"><path d="M1041.5,150.6c-27.8,12.3-57.6,20.6-88.9,24.4c32-19.2,56.5-49.5,68.1-85.7c-29.9,17.7-63.1,30.6-98.4,37.6 C894,96.8,853.8,78,809.2,78c-85.5,0-154.9,69.3-154.9,154.9c0,12.1,1.4,24,4,35.3c-128.7-6.5-242.8-68.1-319.2-161.8 c-13.3,22.9-21,49.5-21,77.9c0,53.7,27.3,101.1,68.9,128.9c-25.4-0.8-49.3-7.8-70.1-19.4c0,0.6,0,1.3,0,1.9 c0,75,53.4,137.6,124.2,151.9c-13,3.5-26.7,5.4-40.8,5.4c-10,0-19.7-1-29.1-2.8c19.7,61.5,76.9,106.3,144.7,107.6 c-53,41.5-119.8,66.3-192.3,66.3c-12.5,0-24.8-0.7-37-2.2c68.5,44,150,69.6,237.4,69.6c284.9,0,440.7-236,440.7-440.7 c0-6.7-0.2-13.4-0.5-20C994.4,209,1020.7,181.7,1041.5,150.6z"></path></symbol>
</svg>