<svg xmlns="http://www.w3.org/2000/svg" xmlns:xlink="http://www.w3.org/1999/xlink" style="position: absolute; width: 0; height: 0" aria-hidden="true" id="__SVG_SPRITE_NODE__">
<symbol xmlns="http://www.w3.org/2000/svg" viewBox="0 0 48 48" id="video-call"><g fill-rule="evenodd"><path fill="none" d="M0 0H48V48H0z"></path><path d="M22.6052632 0C23.6516974 0 24.5.820811292 24.5 1.83333333L24.5 20.1666667C24.5 21.1791887 23.6516974 22 22.6052632 22L2.39473684 22C1.34830258 22 .5 21.1791887.5 20.1666667L.5 1.83333333C.5.820811292 1.34830258 0 2.39473684 0L22.6052632 0zM28.1837722 3.77207592L35.1837722 1.43874259C35.7077156 1.26409482 36.2740355 1.5472548 36.4486833 2.07119812 36.4826721 2.17316459 36.5 2.27994379 36.5 2.38742589L36.5 19.6125741C36.5 20.1648589 36.0522847 20.6125741 35.5 20.6125741 35.3925179 20.6125741 35.2857387 20.5952462 35.1837722 20.5612574L28.1837722 18.2279241C27.7754301 18.09181 27.5 17.7096712 27.5 17.2792408L27.5 4.72075922C27.5 4.29032881 27.7754301 3.90818997 28.1837722 3.77207592z" transform="translate(5.5 13)"></path></g></symbol>
<symbol xmlns="http://www.w3.org/2000/svg" viewBox="0 0 64 64" id="video"><g fill="none" fill-rule="evenodd"><path d="M8,9.3420016 C8,7.12807525 9.81214523,5.33333333 11.9881206,5.33333333 L40,5.33333333 L56,21.3333333 L56,54.671346 C56,56.8779007 54.2347281,58.6666667 51.9901068,58.6666667 L12.0098932,58.6666667 C9.79529033,58.6666667 8,56.8921712 8,54.6579984 L8,9.3420016 Z" fill="#2166F3"></path><path d="M40,5.33333333 L56,21.3333333 L41.5052412,21.3333333 C40.6739194,21.3333333 40,20.6662036 40,19.8280922 L40,5.33333333 Z" fill="#000000" opacity=".3"></path><path d="M24.4101612,1.77779457 L23.4871034,1.77779457 L23.4871034,4.44444749 L20.7179297,4.44444749 L20.7179297,1.77779457 L5.94869891,1.77779457 L5.94869891,4.44444749 L3.17952524,4.44444749 L3.17952524,1.77779457 L2.2564293,1.77779457 C1.74784907,1.77779457 1.33333333,2.1769219 1.33333333,2.66666667 L1.33333333,24 C1.33333333,24.4897814 1.74784907,24.8889088 2.2564293,24.8889088 L3.17952524,24.8889088 L3.17952524,24 L5.94869891,24 L5.94869891,24.8889088 L20.7179678,24.8889088 L20.7179678,24 L23.4871414,24 L23.4871414,24.8889088 L24.4101993,24.8889088 C24.9188176,24.8889088 25.3333333,24.4897814 25.3333333,24 L25.3333333,2.66666667 C25.3333333,2.17688524 24.9188176,1.77779457 24.4101612,1.77779457 Z M5.94869891,20.4444017 L3.17952524,20.4444017 L3.17952524,17.7777121 L5.94869891,17.7777121 L5.94869891,20.4444017 L5.94869891,20.4444017 Z M5.94869891,15.1110592 L3.17952524,15.1110592 L3.17952524,12.4444063 L5.94869891,12.4444063 L5.94869891,15.1110592 L5.94869891,15.1110592 Z M5.94869891,9.77775334 L3.17952524,9.77775334 L3.17952524,7.11106375 L5.94869891,7.11106375 L5.94869891,9.77775334 L5.94869891,9.77775334 Z M17.5683867,13.9163899 L11.5656173,17.288004 C11.4677841,17.3351089 11.3606626,17.3573234 11.2545307,17.3573234 C11.1271572,17.3573234 11.0034382,17.3244782 10.8908349,17.2604375 C10.6877454,17.1421803 10.5640264,16.9306663 10.5640264,16.7048925 L10.5640264,9.96265399 C10.5640264,9.73596375 10.6877454,9.52444974 10.8908349,9.40619248 C11.0957136,9.28709214 11.3514502,9.27642477 11.5646657,9.3795058 L17.567397,12.7501668 C17.8009403,12.8612758 17.9486799,13.0861699 17.9486799,13.3332784 C17.9486799,13.5804235 17.8009404,13.8053175 17.5683867,13.9163899 Z M23.4871034,20.4444017 L20.7179297,20.4444017 L20.7179297,17.7777121 L23.4871034,17.7777121 L23.4871034,20.4444017 Z M23.4871034,15.1110592 L20.7179297,15.1110592 L20.7179297,12.4444063 L23.4871034,12.4444063 L23.4871034,15.1110592 Z M23.4871034,9.77775334 L20.7179297,9.77775334 L20.7179297,7.11106375 L23.4871034,7.11106375 L23.4871034,9.77775334 Z" transform="translate(18.667 24)" fill="#FFFFFF" fill-rule="nonzero"></path></g></symbol>
</svg>