<svg xmlns="http://www.w3.org/2000/svg" xmlns:xlink="http://www.w3.org/1999/xlink" style="position: absolute; width: 0; height: 0" aria-hidden="true" id="__SVG_SPRITE_NODE__">
<symbol xmlns="http://www.w3.org/2000/svg" viewBox="0 0 14 14" id="visitor"><g style="mix-blend-mode:passthrough"><path d="M7.0000032538604735,12.541633253860473C10.060583253860473,12.541633253860473,12.541633253860473,10.060583253860473,12.541633253860473,7.0000032538604735C12.541633253860473,5.469713253860474,11.921433253860474,4.084293253860474,10.918553253860473,3.0814532538604738C9.915703253860473,2.0786052538604736,8.530293253860474,1.4583332538604736,7.0000032538604735,1.4583332538604736C3.9394232538604737,1.4583332538604736,1.4583332538604736,3.9394232538604737,1.4583332538604736,7.0000032538604735C1.4583332538604736,10.060583253860473,3.9394232538604737,12.541633253860473,7.0000032538604735,12.541633253860473ZM6.5625032538604735,11.579233253860474L6.5625032538604735,9.188263253860473L4.9470532538604735,9.188263253860473Q5.146733253860473,9.889623253860474,5.488613253860474,10.480143253860474Q5.989063253860474,11.344553253860473,6.5625032538604735,11.579233253860474ZM7.4375032538604735,11.579233253860474Q8.010933253860474,11.344553253860473,8.511383253860473,10.480143253860474Q8.853263253860472,9.889623253860474,9.052943253860473,9.188263253860473L7.4375032538604735,9.188263253860473L7.4375032538604735,11.579233253860474ZM10.117703253860473,8.313263253860473L11.490933253860474,8.313263253860473Q11.666633253860473,7.693013253860474,11.666633253860473,7.0000032538604735Q11.666633253860473,6.307403253860474,11.491233253860473,5.6875032538604735L10.117813253860474,5.6875032538604735C10.176973253860474,6.108263253860474,10.208333253860474,6.547803253860474,10.208333253860474,7.0000032538604735C10.208333253860474,7.452463253860474,10.176943253860474,7.892263253860474,10.117703253860473,8.313263253860473ZM9.948503253860475,9.188263253860473L11.136433253860474,9.188263253860473Q10.815353253860474,9.784313253860473,10.299833253860474,10.299833253860474Q9.749383253860474,10.850283253860473,9.107123253860474,11.179053253860474C9.467423253860474,10.636593253860473,9.756923253860474,9.957383253860474,9.948503253860475,9.188263253860473ZM9.240503253860474,5.6875032538604735Q9.333333253860474,6.307573253860474,9.333333253860474,7.0000032538604735Q9.333333253860474,7.6928532538604735,9.240393253860475,8.313263253860473L7.4375032538604735,8.313263253860473L7.4375032538604735,5.6875032538604735L9.240503253860474,5.6875032538604735ZM9.948693253860474,4.8125032538604735C9.786643253860474,4.161663253860473,9.554483253860473,3.5751832538604735,9.268633253860473,3.0814532538604738C9.216543253860474,2.9914832538604736,9.162673253860474,2.9045932538604737,9.107123253860474,2.8209532538604734Q9.749383253860474,3.149723253860474,10.299833253860474,3.700163253860474Q10.815673253860474,4.216013253860474,11.136843253860473,4.8125032538604735L9.948693253860474,4.8125032538604735ZM9.053163253860474,4.8125032538604735L7.4375032538604735,4.8125032538604735L7.4375032538604735,2.4207782538604734Q8.010933253860474,2.6554432538604735,8.511383253860473,3.5198532538604734Q8.853453253860474,4.1106932538604735,9.053163253860474,4.8125032538604735ZM6.5625032538604735,2.4207782538604734Q5.989063253860474,2.6554432538604735,5.488613253860474,3.5198532538604734Q5.146543253860473,4.1106932538604735,4.946843253860473,4.8125032538604735L6.5625032538604735,4.8125032538604735L6.5625032538604735,2.4207782538604734ZM4.051303253860474,4.8125032538604735C4.242883253860473,4.043063253860474,4.532453253860474,3.363593253860474,4.892873253860474,2.8209532538604734Q4.2506132538604735,3.149723253860474,3.700163253860474,3.700163253860474Q3.1843232538604735,4.216013253860474,2.8631532538604736,4.8125032538604735L4.051303253860474,4.8125032538604735ZM2.5088032538604734,5.6875032538604735L3.8821832538604735,5.6875032538604735C3.8230232538604736,6.108263253860474,3.7916632538604738,6.547803253860474,3.7916632538604738,7.0000032538604735C3.7916632538604738,7.452463253860474,3.823063253860474,7.892263253860474,3.8822932538604737,8.313263253860473L2.5090232538604735,8.313263253860473Q2.3333332538604736,7.693013253860474,2.3333332538604736,7.0000032538604735Q2.3333332538604736,6.307403253860474,2.5088032538604734,5.6875032538604735ZM2.8635632538604736,9.188263253860473Q3.184653253860474,9.784313253860473,3.700163253860474,10.299833253860474Q4.2506132538604735,10.850273253860474,4.892873253860474,11.179053253860474C4.532573253860473,10.636593253860473,4.243073253860474,9.957383253860474,4.051493253860474,9.188263253860473L2.8635632538604736,9.188263253860473ZM4.759613253860474,8.313263253860473Q4.666663253860474,7.6928532538604735,4.666663253860474,7.0000032538604735Q4.666663253860474,6.307573253860474,4.759493253860473,5.6875032538604735L6.5625032538604735,5.6875032538604735L6.5625032538604735,8.313263253860473L4.759613253860474,8.313263253860473Z" fill-rule="evenodd"></path></g></symbol>
</svg>